%FSAX44Y44*%
%MOMM*%
G71*
G01*
G75*
G04 Layer_Physical_Order=1*
G04 Layer_Color=255*
%ADD10R,0.5000X0.6000*%
%ADD11R,0.6000X0.5000*%
%ADD12R,0.7000X0.9000*%
%ADD13R,0.3000X0.6000*%
%ADD14R,1.5500X1.5500*%
%ADD15R,0.6500X0.2000*%
%ADD16R,0.2000X0.6500*%
%ADD17R,0.9000X0.7000*%
%ADD18O,0.8000X0.2000*%
%ADD19O,0.2000X0.8000*%
%ADD20R,4.6000X4.6000*%
%ADD21R,1.0000X2.0000*%
%ADD22R,0.7112X0.2286*%
%ADD23R,1.1500X1.4000*%
%ADD24R,0.4500X0.3500*%
%ADD25R,0.3500X0.4500*%
%ADD26C,0.1500*%
%ADD27C,0.3000*%
%ADD28C,0.5000*%
%ADD29C,0.2000*%
%ADD30C,0.9000*%
%ADD31C,0.6000*%
%ADD32C,0.8000*%
%ADD33R,0.9000X0.9000*%
G36*
X02872580Y02502083D02*
X02872868Y02501879D01*
Y02500028D01*
X02877368D01*
Y02499278D01*
X02878118D01*
Y02495278D01*
X02879118D01*
Y02495278D01*
Y02495028D01*
X02879118Y02494217D01*
X02879118Y02494217D01*
X02879118D01*
Y02483028D01*
X02882610D01*
X02883886Y02481909D01*
X02883995Y02481705D01*
X02883712Y02481283D01*
X02883452Y02480754D01*
X02883262Y02480195D01*
X02883179Y02479778D01*
X02892057D01*
X02891974Y02480195D01*
X02891784Y02480754D01*
X02891523Y02481283D01*
X02891196Y02481773D01*
X02890807Y02482217D01*
X02890363Y02482606D01*
X02889873Y02482934D01*
X02889344Y02483194D01*
X02889118Y02483271D01*
Y02495028D01*
D01*
Y02495028D01*
X02889368Y02495278D01*
X02891057D01*
X02891057Y02495278D01*
Y02495278D01*
X02891868Y02495278D01*
X02891993D01*
X02892118D01*
X02892929Y02495278D01*
X02892929Y02495278D01*
Y02495278D01*
X02893868D01*
X02894118Y02495028D01*
X02894118Y02494217D01*
X02894118Y02494217D01*
X02894118D01*
Y02489778D01*
X02899118D01*
Y02489028D01*
X02899868D01*
Y02483028D01*
X02903307D01*
X02903307Y02483028D01*
Y02483028D01*
X02904118Y02483028D01*
X02904368Y02483278D01*
X02905179Y02483278D01*
X02905179Y02483278D01*
Y02483278D01*
X02908118D01*
Y02487278D01*
X02909618D01*
Y02483278D01*
X02913307D01*
X02913307Y02483278D01*
Y02483278D01*
X02913368Y02483278D01*
X02913868D01*
X02914368D01*
X02914429Y02483278D01*
X02914429Y02483278D01*
Y02483278D01*
X02918781D01*
Y02480865D01*
X02916623D01*
Y02481251D01*
X02897113D01*
Y02480781D01*
X02897001Y02480754D01*
X02896673Y02480619D01*
X02896371Y02480434D01*
X02896102Y02480204D01*
X02896102Y02480204D01*
X02893358Y02477459D01*
X02892035Y02478167D01*
X02892057Y02478278D01*
X02883179D01*
X02883262Y02477861D01*
X02883452Y02477302D01*
X02883712Y02476773D01*
X02884040Y02476283D01*
X02884429Y02475839D01*
X02884609Y02475682D01*
X02884080Y02474278D01*
X02879618D01*
Y02473287D01*
X02877618D01*
Y02475278D01*
X02870118D01*
X02866504Y02478892D01*
X02867078Y02480278D01*
X02870868D01*
Y02485278D01*
Y02490278D01*
X02866188D01*
X02866188Y02490278D01*
Y02490278D01*
X02865618Y02490278D01*
X02865127Y02490769D01*
Y02498628D01*
X02865090Y02499099D01*
X02865005Y02499456D01*
X02866029Y02500552D01*
X02866295Y02500506D01*
X02866968Y02500469D01*
X02867641Y02500506D01*
X02868305Y02500619D01*
X02868953Y02500806D01*
X02869576Y02501064D01*
X02870165Y02501390D01*
X02870715Y02501780D01*
X02871217Y02502229D01*
X02871467Y02502508D01*
X02872580Y02502083D01*
D02*
G37*
G36*
X03042447Y02578185D02*
X03043846Y02575632D01*
X03045174Y02573041D01*
X03046432Y02570416D01*
X03047619Y02567758D01*
X03048733Y02565068D01*
X03049774Y02562349D01*
X03050741Y02559603D01*
X03051633Y02556832D01*
X03052450Y02554037D01*
X03053190Y02551222D01*
X03053855Y02548387D01*
X03054442Y02545536D01*
X03054952Y02542670D01*
X03055384Y02539790D01*
X03055738Y02536901D01*
X03056013Y02534003D01*
X03056210Y02531098D01*
X03056328Y02528189D01*
X03056367Y02525360D01*
X03056360Y02525278D01*
X03056367Y02525196D01*
X03056328Y02522367D01*
X03056210Y02519458D01*
X03056013Y02516553D01*
X03055738Y02513655D01*
X03055384Y02510766D01*
X03054952Y02507886D01*
X03054442Y02505020D01*
X03053855Y02502169D01*
X03053190Y02499334D01*
X03052450Y02496519D01*
X03051633Y02493724D01*
X03050741Y02490953D01*
X03049774Y02488207D01*
X03048733Y02485488D01*
X03047619Y02482798D01*
X03046432Y02480140D01*
X03045174Y02477514D01*
X03043846Y02474924D01*
X03042447Y02472371D01*
X03040980Y02469856D01*
X03039445Y02467382D01*
X03037845Y02464950D01*
X03036328Y02462778D01*
X03031906D01*
X03031487Y02463435D01*
X03031009Y02464059D01*
X03030478Y02464638D01*
X03029899Y02465169D01*
X03029275Y02465647D01*
X03028612Y02466070D01*
X03027915Y02466433D01*
X03027189Y02466733D01*
X03026440Y02466970D01*
X03025673Y02467140D01*
X03024893Y02467242D01*
X03024108Y02467277D01*
X03023323Y02467242D01*
X03022544Y02467140D01*
X03022353Y02467097D01*
X03021281Y02468147D01*
X03021307Y02468278D01*
X03012429D01*
X03012512Y02467861D01*
X03012702Y02467302D01*
X03012963Y02466773D01*
X03013290Y02466283D01*
X03013679Y02465839D01*
X03014123Y02465450D01*
X03013172Y02464027D01*
X03009858D01*
X03009213Y02463991D01*
X03008577Y02463883D01*
X03007956Y02463704D01*
X03007781Y02463632D01*
X03007359Y02463457D01*
X03006794Y02463144D01*
X03006278Y02462778D01*
X02993868D01*
Y02460778D01*
X02990368D01*
Y02461278D01*
X02986368D01*
Y02462778D01*
X02990368D01*
Y02465909D01*
X02990472Y02466000D01*
X02991734Y02466572D01*
X02991873Y02466450D01*
X02992363Y02466123D01*
X02992892Y02465862D01*
X02993451Y02465672D01*
X02994030Y02465557D01*
X02994618Y02465518D01*
X02995207Y02465557D01*
X02995785Y02465672D01*
X02996344Y02465862D01*
X02996873Y02466123D01*
X02997363Y02466450D01*
X02997807Y02466839D01*
X02998196Y02467283D01*
X02998523Y02467773D01*
X02998784Y02468302D01*
X02998974Y02468861D01*
X02999089Y02469439D01*
X02999128Y02470028D01*
X02999089Y02470617D01*
X02998974Y02471195D01*
X02998784Y02471754D01*
X02998523Y02472283D01*
X02998196Y02472773D01*
X02997807Y02473217D01*
X02997363Y02473606D01*
X02996873Y02473934D01*
X02996344Y02474194D01*
X02995785Y02474384D01*
X02995207Y02474499D01*
X02994618Y02474538D01*
X02994030Y02474499D01*
X02993451Y02474384D01*
X02992892Y02474194D01*
X02992363Y02473934D01*
X02991873Y02473606D01*
X02991734Y02473484D01*
X02990472Y02474056D01*
X02990368Y02474148D01*
Y02476528D01*
X02982618D01*
Y02476778D01*
X02974618D01*
Y02479278D01*
X02972118D01*
Y02480028D01*
X02971368D01*
Y02484778D01*
X02969875D01*
Y02486278D01*
X02972118D01*
Y02490028D01*
X02973618D01*
Y02486278D01*
X02977118D01*
Y02490028D01*
Y02493778D01*
X02974618D01*
Y02493778D01*
X02974618Y02493778D01*
X02974618Y02493778D01*
Y02496278D01*
X02970868D01*
Y02497778D01*
X02974618D01*
Y02498778D01*
Y02503778D01*
Y02510278D01*
D01*
Y02510278D01*
X02974618Y02510278D01*
X02977118D01*
Y02514028D01*
X02978618D01*
Y02510278D01*
X02991118D01*
X02991118Y02510278D01*
X02991118Y02509217D01*
X02991118Y02509217D01*
X02991118D01*
Y02503778D01*
Y02498778D01*
Y02494839D01*
X02991118Y02494839D01*
X02991118D01*
X02991118Y02493778D01*
X02991118Y02493778D01*
X02988618D01*
Y02490028D01*
Y02486278D01*
X02990029D01*
X02991028Y02485139D01*
X02991131Y02484912D01*
X02990790Y02484523D01*
X02990463Y02484033D01*
X02990202Y02483504D01*
X02990012Y02482945D01*
X02989929Y02482528D01*
X02998807D01*
X02998724Y02482945D01*
X02998535Y02483504D01*
X02998397Y02483782D01*
X02999616Y02484656D01*
X03001868Y02482404D01*
Y02477278D01*
X03010807D01*
X03010807Y02477278D01*
Y02477278D01*
X03010868Y02477278D01*
X03011368D01*
X03011868D01*
X03011929Y02477278D01*
X03011929Y02477278D01*
Y02477278D01*
X03015618D01*
Y02481278D01*
Y02485278D01*
X03014118D01*
Y02485278D01*
Y02485528D01*
X03014118Y02486339D01*
X03014118Y02486339D01*
X03014118D01*
Y02489778D01*
X03008118D01*
Y02491278D01*
X03014118D01*
Y02491278D01*
X03014368Y02491528D01*
X03015179Y02491528D01*
X03015179Y02491528D01*
Y02491528D01*
X03017618D01*
Y02496028D01*
X03018368D01*
Y02496778D01*
X03022368D01*
Y02500467D01*
X03022368Y02500467D01*
X03022368D01*
X03022368Y02500528D01*
Y02501028D01*
Y02501528D01*
X03022368Y02501589D01*
X03022368Y02501589D01*
X03022368D01*
Y02510528D01*
X03021118D01*
Y02510528D01*
Y02510778D01*
X03021118Y02511589D01*
X03021118Y02511589D01*
X03021118D01*
Y02514028D01*
X03016618D01*
Y02515528D01*
X03021118D01*
Y02517960D01*
X03021118Y02517961D01*
X03021118D01*
X03021118Y02518778D01*
Y02518778D01*
Y02519041D01*
X03021221Y02519049D01*
X03021566Y02519132D01*
X03021893Y02519267D01*
X03022195Y02519452D01*
X03022464Y02519682D01*
X03023964Y02521182D01*
X03023964Y02521182D01*
X03024194Y02521451D01*
X03024379Y02521753D01*
X03024458Y02521945D01*
X03024514Y02522081D01*
X03024597Y02522425D01*
X03024612Y02522617D01*
X03024623Y02522623D01*
X03025113Y02522950D01*
X03025557Y02523339D01*
X03025946Y02523783D01*
X03026273Y02524273D01*
X03026534Y02524802D01*
X03026724Y02525361D01*
X03026839Y02525939D01*
X03026878Y02526528D01*
X03026839Y02527117D01*
X03026724Y02527695D01*
X03026534Y02528254D01*
X03026273Y02528783D01*
X03025946Y02529273D01*
X03025557Y02529717D01*
X03025113Y02530106D01*
X03024623Y02530434D01*
X03024094Y02530694D01*
X03023535Y02530884D01*
X03022957Y02530999D01*
X03022368Y02531038D01*
X03021779Y02530999D01*
X03021201Y02530884D01*
X03020642Y02530694D01*
X03020113Y02530434D01*
X03019623Y02530106D01*
X03019179Y02529717D01*
X03018790Y02529273D01*
X03018463Y02528783D01*
X03018202Y02528254D01*
X03018012Y02527695D01*
X03017897Y02527117D01*
X03017858Y02526528D01*
X03017897Y02525939D01*
X03018012Y02525361D01*
X03018202Y02524802D01*
X03015632Y02523535D01*
X03014107D01*
X03011537Y02524802D01*
X03011727Y02525361D01*
X03011842Y02525939D01*
X03011880Y02526528D01*
X03011842Y02527117D01*
X03011727Y02527695D01*
X03011537Y02528254D01*
X03011276Y02528783D01*
X03010948Y02529273D01*
X03010560Y02529717D01*
X03010116Y02530106D01*
X03009626Y02530434D01*
X03009369Y02530560D01*
X03009709Y02532021D01*
X03012868D01*
X03013221Y02532049D01*
X03013565Y02532132D01*
X03013893Y02532267D01*
X03014195Y02532452D01*
X03014464Y02532682D01*
X03015464Y02533682D01*
X03015464Y02533682D01*
X03015588Y02533827D01*
X03015694Y02533951D01*
X03015879Y02534253D01*
X03016014Y02534581D01*
X03016097Y02534925D01*
X03016105Y02535028D01*
X03021118D01*
Y02552028D01*
X03006618D01*
Y02536535D01*
X03005118D01*
Y02542778D01*
X02997868D01*
Y02543528D01*
X02997118D01*
Y02552028D01*
X02990618D01*
X02990618Y02553778D01*
X02990618D01*
X02990618Y02553778D01*
Y02553778D01*
D01*
D01*
X02990618Y02557028D01*
X02990618D01*
X02990618Y02557028D01*
X02990618Y02557028D01*
X03005118D01*
Y02574028D01*
X02990618D01*
D01*
X02990618D01*
X02990118Y02574528D01*
Y02580528D01*
X03041080D01*
X03042447Y02578185D01*
D02*
G37*
G36*
X02917055Y02626686D02*
Y02596528D01*
X02903556D01*
X02903547Y02577118D01*
X02902256Y02575013D01*
X02901893Y02575163D01*
X02901510Y02575255D01*
X02901118Y02575286D01*
X02900726Y02575255D01*
X02900343Y02575163D01*
X02899980Y02575013D01*
X02899644Y02574807D01*
X02899345Y02574551D01*
X02898147Y02574252D01*
X02897891Y02574551D01*
X02897592Y02574807D01*
X02897256Y02575013D01*
X02896893Y02575163D01*
X02896510Y02575255D01*
X02896118Y02575286D01*
X02895726Y02575255D01*
X02895343Y02575163D01*
X02894980Y02575013D01*
X02894644Y02574807D01*
X02894345Y02574551D01*
X02894089Y02574252D01*
X02893884Y02573917D01*
X02893733Y02573553D01*
X02893641Y02573170D01*
X02893610Y02572778D01*
Y02566778D01*
X02893641Y02566386D01*
X02893733Y02566003D01*
X02893884Y02565640D01*
X02893989Y02565468D01*
X02892928Y02564407D01*
X02892756Y02564512D01*
X02892393Y02564663D01*
X02892010Y02564755D01*
X02891618Y02564786D01*
X02889368D01*
Y02562278D01*
X02887868D01*
Y02564786D01*
X02885618D01*
X02885476Y02564774D01*
X02884743Y02565453D01*
X02884860Y02566948D01*
X02884863Y02566950D01*
X02885307Y02567339D01*
X02885696Y02567783D01*
X02886023Y02568273D01*
X02886284Y02568802D01*
X02886474Y02569361D01*
X02886589Y02569939D01*
X02886628Y02570528D01*
X02886589Y02571117D01*
X02886474Y02571695D01*
X02886284Y02572254D01*
X02886023Y02572783D01*
X02885696Y02573273D01*
X02885307Y02573717D01*
X02884863Y02574106D01*
X02884373Y02574434D01*
X02883844Y02574695D01*
X02883285Y02574884D01*
X02882707Y02574999D01*
X02882118Y02575038D01*
X02881530Y02574999D01*
X02880951Y02574884D01*
X02880392Y02574695D01*
X02879863Y02574434D01*
X02879373Y02574106D01*
X02879234Y02573984D01*
X02877972Y02574556D01*
X02877868Y02574648D01*
Y02577028D01*
X02874618D01*
Y02572528D01*
X02873868D01*
Y02571778D01*
X02869868D01*
Y02568028D01*
X02869868D01*
X02869868Y02567028D01*
X02869868D01*
Y02558028D01*
X02875676D01*
X02880111Y02553593D01*
Y02547828D01*
X02879072Y02546611D01*
X02878802Y02546460D01*
X02878593Y02546589D01*
X02878265Y02546725D01*
X02877921Y02546807D01*
X02877568Y02546835D01*
X02872527D01*
X02872382Y02547185D01*
X02872056Y02547775D01*
X02871666Y02548325D01*
X02871217Y02548827D01*
X02870715Y02549276D01*
X02870165Y02549666D01*
X02869576Y02549992D01*
X02868953Y02550250D01*
X02868305Y02550437D01*
X02867641Y02550550D01*
X02866968Y02550587D01*
X02866295Y02550550D01*
X02865631Y02550437D01*
X02864983Y02550250D01*
X02864361Y02549992D01*
X02863771Y02549666D01*
X02863221Y02549276D01*
X02862719Y02548827D01*
X02862270Y02548325D01*
X02861880Y02547775D01*
X02861720Y02547487D01*
X02860268Y02547862D01*
Y02550578D01*
X02855018D01*
Y02544578D01*
X02853518D01*
Y02550578D01*
X02851819D01*
X02851246Y02551964D01*
X02855703Y02556422D01*
X02856279Y02556307D01*
X02856868Y02556268D01*
X02857457Y02556307D01*
X02858035Y02556422D01*
X02858594Y02556612D01*
X02859123Y02556873D01*
X02859613Y02557200D01*
X02860057Y02557589D01*
X02860446Y02558033D01*
X02860774Y02558523D01*
X02861035Y02559052D01*
X02861224Y02559611D01*
X02861339Y02560190D01*
X02861378Y02560778D01*
X02861339Y02561367D01*
X02861224Y02561945D01*
X02861035Y02562504D01*
X02860774Y02563033D01*
X02860446Y02563523D01*
X02860057Y02563967D01*
X02859613Y02564356D01*
X02859123Y02564684D01*
X02858594Y02564944D01*
X02858035Y02565134D01*
X02857457Y02565249D01*
X02856868Y02565288D01*
X02856279Y02565249D01*
X02855701Y02565134D01*
X02855142Y02564944D01*
X02854613Y02564684D01*
X02854123Y02564356D01*
X02853679Y02563967D01*
X02853290Y02563523D01*
X02852963Y02563033D01*
X02852702Y02562504D01*
X02852512Y02561945D01*
X02852397Y02561367D01*
X02852358Y02560778D01*
X02852397Y02560190D01*
X02852512Y02559613D01*
X02846745Y02553846D01*
X02845454Y02554611D01*
X02846103Y02556832D01*
X02846995Y02559603D01*
X02847962Y02562349D01*
X02849003Y02565068D01*
X02850117Y02567758D01*
X02851304Y02570416D01*
X02852562Y02573041D01*
X02853890Y02575632D01*
X02855289Y02578185D01*
X02856756Y02580700D01*
X02858290Y02583174D01*
X02859891Y02585605D01*
X02861558Y02587993D01*
X02863288Y02590334D01*
X02865081Y02592628D01*
X02866936Y02594872D01*
X02868850Y02597065D01*
X02870823Y02599206D01*
X02872854Y02601292D01*
X02874940Y02603322D01*
X02877081Y02605296D01*
X02879274Y02607210D01*
X02881518Y02609065D01*
X02883812Y02610858D01*
X02886153Y02612588D01*
X02888540Y02614254D01*
X02890972Y02615855D01*
X02893446Y02617390D01*
X02895961Y02618857D01*
X02898514Y02620255D01*
X02901104Y02621584D01*
X02903730Y02622842D01*
X02906389Y02624029D01*
X02909078Y02625143D01*
X02911797Y02626184D01*
X02914543Y02627151D01*
X02915843Y02627569D01*
X02917055Y02626686D01*
D02*
G37*
G36*
X02903772Y02461432D02*
X02903772Y02461432D01*
X02904041Y02461202D01*
X02904343Y02461017D01*
X02904670Y02460882D01*
X02905015Y02460799D01*
X02905368Y02460771D01*
X02905368Y02460771D01*
X02920307D01*
X02921368Y02459710D01*
Y02458028D01*
X02918368D01*
Y02452028D01*
X02917618D01*
Y02451278D01*
X02912618D01*
Y02446028D01*
D01*
Y02446028D01*
X02912368Y02445778D01*
X02907618D01*
Y02446028D01*
X02907618D01*
Y02458028D01*
X02897618D01*
Y02453037D01*
X02895618D01*
Y02460771D01*
X02898970D01*
X02899323Y02460799D01*
X02899667Y02460882D01*
X02899995Y02461017D01*
X02900297Y02461202D01*
X02900566Y02461432D01*
X02902169Y02463035D01*
X02903772Y02461432D01*
D02*
G37*
%LPC*%
G36*
X03022368Y02495278D02*
X03019118D01*
Y02491528D01*
X03022368D01*
Y02495278D01*
D02*
G37*
G36*
X02982118Y02493778D02*
X02978618D01*
Y02490028D01*
Y02486278D01*
X02982118D01*
Y02490028D01*
Y02493778D01*
D02*
G37*
G36*
X02987118D02*
X02983618D01*
Y02490028D01*
Y02486278D01*
X02987118D01*
Y02490028D01*
Y02493778D01*
D02*
G37*
G36*
X02876618Y02498528D02*
X02872868D01*
Y02495278D01*
X02876618D01*
Y02498528D01*
D02*
G37*
G36*
X02987307Y02501278D02*
X02983618D01*
Y02497589D01*
X02984035Y02497672D01*
X02984594Y02497862D01*
X02985123Y02498123D01*
X02985613Y02498450D01*
X02986057Y02498839D01*
X02986446Y02499283D01*
X02986773Y02499773D01*
X02987034Y02500302D01*
X02987224Y02500861D01*
X02987307Y02501278D01*
D02*
G37*
G36*
X03041368Y02505278D02*
X03037679D01*
X03037762Y02504861D01*
X03037952Y02504302D01*
X03038213Y02503773D01*
X03038540Y02503283D01*
X03038929Y02502839D01*
X03039373Y02502450D01*
X03039863Y02502123D01*
X03040392Y02501862D01*
X03040951Y02501672D01*
X03041368Y02501589D01*
Y02505278D01*
D02*
G37*
G36*
X02982118Y02501278D02*
X02978429D01*
X02978512Y02500861D01*
X02978701Y02500302D01*
X02978962Y02499773D01*
X02979290Y02499283D01*
X02979679Y02498839D01*
X02980123Y02498450D01*
X02980613Y02498123D01*
X02981142Y02497862D01*
X02981701Y02497672D01*
X02982118Y02497589D01*
Y02501278D01*
D02*
G37*
G36*
X03046557Y02505278D02*
X03042868D01*
Y02501589D01*
X03043285Y02501672D01*
X03043844Y02501862D01*
X03044373Y02502123D01*
X03044863Y02502450D01*
X03045307Y02502839D01*
X03045696Y02503283D01*
X03046023Y02503773D01*
X03046284Y02504302D01*
X03046474Y02504861D01*
X03046557Y02505278D01*
D02*
G37*
G36*
X02877618Y02490278D02*
X02872368D01*
Y02486028D01*
X02877618D01*
Y02490278D01*
D02*
G37*
G36*
X03020868Y02480528D02*
X03017118D01*
Y02477278D01*
X03020868D01*
Y02480528D01*
D02*
G37*
G36*
X02993618Y02481028D02*
X02989929D01*
X02990012Y02480611D01*
X02990202Y02480052D01*
X02990463Y02479523D01*
X02990790Y02479033D01*
X02991179Y02478589D01*
X02991623Y02478200D01*
X02992113Y02477873D01*
X02992642Y02477612D01*
X02993201Y02477422D01*
X02993618Y02477339D01*
Y02481028D01*
D02*
G37*
G36*
X03017618Y02473467D02*
Y02469778D01*
X03021307D01*
X03021224Y02470195D01*
X03021034Y02470754D01*
X03020773Y02471283D01*
X03020446Y02471773D01*
X03020057Y02472217D01*
X03019613Y02472606D01*
X03019123Y02472934D01*
X03018594Y02473194D01*
X03018035Y02473384D01*
X03017618Y02473467D01*
D02*
G37*
G36*
X02916868Y02458028D02*
X02912618D01*
Y02452778D01*
X02916868D01*
Y02458028D01*
D02*
G37*
G36*
X03016118Y02473467D02*
X03015701Y02473384D01*
X03015142Y02473194D01*
X03014613Y02472934D01*
X03014123Y02472606D01*
X03013679Y02472217D01*
X03013290Y02471773D01*
X03012963Y02471283D01*
X03012702Y02470754D01*
X03012512Y02470195D01*
X03012429Y02469778D01*
X03016118D01*
Y02473467D01*
D02*
G37*
G36*
X03020868Y02485278D02*
X03017118D01*
Y02482028D01*
X03020868D01*
Y02485278D01*
D02*
G37*
G36*
X02898368Y02488278D02*
X02894118D01*
Y02483028D01*
X02898368D01*
Y02488278D01*
D02*
G37*
G36*
X02974618Y02484778D02*
X02972868D01*
Y02480778D01*
X02974618D01*
Y02484778D01*
D02*
G37*
G36*
X02998807Y02481028D02*
X02995118D01*
Y02477339D01*
X02995535Y02477422D01*
X02996094Y02477612D01*
X02996623Y02477873D01*
X02997113Y02478200D01*
X02997557Y02478589D01*
X02997946Y02479033D01*
X02998274Y02479523D01*
X02998535Y02480052D01*
X02998724Y02480611D01*
X02998807Y02481028D01*
D02*
G37*
G36*
X02877618Y02484528D02*
X02872368D01*
Y02480278D01*
X02877618D01*
Y02484528D01*
D02*
G37*
G36*
X02982118Y02506467D02*
X02981701Y02506384D01*
X02981142Y02506194D01*
X02980613Y02505934D01*
X02980123Y02505606D01*
X02979679Y02505217D01*
X02979290Y02504773D01*
X02978962Y02504283D01*
X02978701Y02503754D01*
X02978512Y02503195D01*
X02978429Y02502778D01*
X02982118D01*
Y02506467D01*
D02*
G37*
G36*
X02889554Y02586776D02*
X02885865D01*
Y02583087D01*
X02886282Y02583170D01*
X02886841Y02583359D01*
X02887370Y02583620D01*
X02887860Y02583948D01*
X02888304Y02584337D01*
X02888693Y02584780D01*
X02889020Y02585271D01*
X02889281Y02585800D01*
X02889471Y02586359D01*
X02889554Y02586776D01*
D02*
G37*
G36*
X02884365Y02591965D02*
X02883948Y02591882D01*
X02883389Y02591692D01*
X02882860Y02591431D01*
X02882370Y02591104D01*
X02881926Y02590714D01*
X02881537Y02590271D01*
X02881210Y02589781D01*
X02880949Y02589251D01*
X02880759Y02588693D01*
X02880676Y02588276D01*
X02884365D01*
Y02591965D01*
D02*
G37*
G36*
Y02586776D02*
X02880676D01*
X02880759Y02586359D01*
X02880949Y02585800D01*
X02881210Y02585271D01*
X02881537Y02584780D01*
X02881926Y02584337D01*
X02882370Y02583948D01*
X02882860Y02583620D01*
X02883389Y02583359D01*
X02883948Y02583170D01*
X02884365Y02583087D01*
Y02586776D01*
D02*
G37*
G36*
X03036618Y02576717D02*
Y02573028D01*
X03040307D01*
X03040224Y02573445D01*
X03040034Y02574004D01*
X03039773Y02574533D01*
X03039446Y02575023D01*
X03039057Y02575467D01*
X03038613Y02575856D01*
X03038123Y02576183D01*
X03037594Y02576444D01*
X03037035Y02576634D01*
X03036618Y02576717D01*
D02*
G37*
G36*
X02873118Y02577028D02*
X02869868D01*
Y02573278D01*
X02873118D01*
Y02577028D01*
D02*
G37*
G36*
X02909618Y02620717D02*
X02909201Y02620634D01*
X02908642Y02620444D01*
X02908113Y02620183D01*
X02907623Y02619856D01*
X02907179Y02619467D01*
X02906790Y02619023D01*
X02906462Y02618533D01*
X02906201Y02618004D01*
X02906012Y02617445D01*
X02905929Y02617028D01*
X02909618D01*
Y02620717D01*
D02*
G37*
G36*
X02911118D02*
Y02617028D01*
X02914807D01*
X02914724Y02617445D01*
X02914534Y02618004D01*
X02914273Y02618533D01*
X02913946Y02619023D01*
X02913557Y02619467D01*
X02913113Y02619856D01*
X02912623Y02620183D01*
X02912094Y02620444D01*
X02911535Y02620634D01*
X02911118Y02620717D01*
D02*
G37*
G36*
X02914807Y02615528D02*
X02911118D01*
Y02611839D01*
X02911535Y02611922D01*
X02912094Y02612112D01*
X02912623Y02612373D01*
X02913113Y02612700D01*
X02913557Y02613089D01*
X02913946Y02613533D01*
X02914273Y02614023D01*
X02914534Y02614552D01*
X02914724Y02615111D01*
X02914807Y02615528D01*
D02*
G37*
G36*
X02885865Y02591965D02*
Y02588276D01*
X02889554D01*
X02889471Y02588693D01*
X02889281Y02589251D01*
X02889020Y02589781D01*
X02888693Y02590271D01*
X02888304Y02590714D01*
X02887860Y02591104D01*
X02887370Y02591431D01*
X02886841Y02591692D01*
X02886282Y02591882D01*
X02885865Y02591965D01*
D02*
G37*
G36*
X02909618Y02615528D02*
X02905929D01*
X02906012Y02615111D01*
X02906201Y02614552D01*
X02906462Y02614023D01*
X02906790Y02613533D01*
X02907179Y02613089D01*
X02907623Y02612700D01*
X02908113Y02612373D01*
X02908642Y02612112D01*
X02909201Y02611922D01*
X02909618Y02611839D01*
Y02615528D01*
D02*
G37*
G36*
X03035118Y02576717D02*
X03034701Y02576634D01*
X03034142Y02576444D01*
X03033613Y02576183D01*
X03033123Y02575856D01*
X03032679Y02575467D01*
X03032290Y02575023D01*
X03031963Y02574533D01*
X03031702Y02574004D01*
X03031512Y02573445D01*
X03031429Y02573028D01*
X03035118D01*
Y02576717D01*
D02*
G37*
G36*
X03005118Y02552028D02*
X02998618D01*
Y02544278D01*
X03005118D01*
Y02545278D01*
X03000368D01*
Y02546778D01*
X03005118D01*
Y02552028D01*
D02*
G37*
G36*
X03013118Y02564778D02*
X03006618D01*
Y02563778D01*
X03011368D01*
Y02562278D01*
X03006618D01*
Y02557028D01*
X03013118D01*
Y02564778D01*
D02*
G37*
G36*
X03042868Y02510467D02*
Y02506778D01*
X03046557D01*
X03046474Y02507195D01*
X03046284Y02507754D01*
X03046023Y02508283D01*
X03045696Y02508773D01*
X03045307Y02509217D01*
X03044863Y02509606D01*
X03044373Y02509933D01*
X03043844Y02510194D01*
X03043285Y02510384D01*
X03042868Y02510467D01*
D02*
G37*
G36*
X02983618Y02506467D02*
Y02502778D01*
X02987307D01*
X02987224Y02503195D01*
X02987034Y02503754D01*
X02986773Y02504283D01*
X02986446Y02504773D01*
X02986057Y02505217D01*
X02985613Y02505606D01*
X02985123Y02505934D01*
X02984594Y02506194D01*
X02984035Y02506384D01*
X02983618Y02506467D01*
D02*
G37*
G36*
X03041368Y02510467D02*
X03040951Y02510384D01*
X03040392Y02510194D01*
X03039863Y02509933D01*
X03039373Y02509606D01*
X03038929Y02509217D01*
X03038540Y02508773D01*
X03038213Y02508283D01*
X03037952Y02507754D01*
X03037762Y02507195D01*
X03037679Y02506778D01*
X03041368D01*
Y02510467D01*
D02*
G37*
G36*
X03035118Y02571528D02*
X03031429D01*
X03031512Y02571111D01*
X03031702Y02570552D01*
X03031963Y02570023D01*
X03032290Y02569533D01*
X03032679Y02569089D01*
X03033123Y02568700D01*
X03033613Y02568372D01*
X03034142Y02568112D01*
X03034701Y02567922D01*
X03035118Y02567839D01*
Y02571528D01*
D02*
G37*
G36*
X03040307D02*
X03036618D01*
Y02567839D01*
X03037035Y02567922D01*
X03037594Y02568112D01*
X03038123Y02568372D01*
X03038613Y02568700D01*
X03039057Y02569089D01*
X03039446Y02569533D01*
X03039773Y02570023D01*
X03040034Y02570552D01*
X03040224Y02571111D01*
X03040307Y02571528D01*
D02*
G37*
G36*
X03021118Y02574028D02*
X03014618D01*
Y02566278D01*
X03021118D01*
Y02574028D01*
D02*
G37*
G36*
Y02564778D02*
X03014618D01*
Y02557028D01*
X03021118D01*
Y02564778D01*
D02*
G37*
G36*
X03013118Y02574028D02*
X03006618D01*
Y02566278D01*
X03013118D01*
Y02574028D01*
D02*
G37*
%LPD*%
D10*
X02927618Y02472028D02*
D03*
Y02462028D02*
D03*
X02986618Y02558278D02*
D03*
Y02568278D02*
D03*
X02960118Y02555528D02*
D03*
Y02545528D02*
D03*
X02929368Y02442278D02*
D03*
X02929368Y02452278D02*
D03*
X02935118Y02581028D02*
D03*
Y02591028D02*
D03*
X02926868Y02591028D02*
D03*
Y02581028D02*
D03*
X02937618Y02442278D02*
D03*
X02937618Y02452278D02*
D03*
X02986618Y02549278D02*
D03*
Y02539278D02*
D03*
X02968368Y02545528D02*
D03*
Y02555528D02*
D03*
X02918618Y02581028D02*
D03*
Y02591028D02*
D03*
X02873868Y02562528D02*
D03*
Y02572528D02*
D03*
X02986368Y02472028D02*
D03*
Y02462028D02*
D03*
X03018368Y02506028D02*
D03*
Y02496028D02*
D03*
D11*
X02908868Y02487278D02*
D03*
X02918868D02*
D03*
X02985618Y02576778D02*
D03*
X02975618D02*
D03*
X02996868Y02453278D02*
D03*
X02986868Y02453278D02*
D03*
X02996868Y02445028D02*
D03*
X02986868Y02445028D02*
D03*
X02936868Y02599778D02*
D03*
X02926868D02*
D03*
X03016368Y02481278D02*
D03*
X03006368D02*
D03*
X02929868Y02491028D02*
D03*
X02939868D02*
D03*
X02946618Y02440278D02*
D03*
X02956618D02*
D03*
X02938118Y02480778D02*
D03*
X02928118D02*
D03*
X02952618Y02499778D02*
D03*
X02942618D02*
D03*
X02959118Y02576778D02*
D03*
X02949118D02*
D03*
X02975618Y02440278D02*
D03*
X02965618D02*
D03*
X02887368Y02499278D02*
D03*
X02877368D02*
D03*
X02960118Y02563778D02*
D03*
X02970118D02*
D03*
X02906618Y02499278D02*
D03*
X02896618D02*
D03*
X03006618Y02514778D02*
D03*
X03016618D02*
D03*
D12*
X02917618Y02452028D02*
D03*
X02902618D02*
D03*
X02899118Y02489028D02*
D03*
X02884118D02*
D03*
D13*
X02892618Y02469778D02*
D03*
X02887618D02*
D03*
X02882618D02*
D03*
Y02456778D02*
D03*
X02887618D02*
D03*
X02892618D02*
D03*
D14*
X02963118Y02465278D02*
D03*
D15*
X02948368Y02456278D02*
D03*
Y02460778D02*
D03*
Y02465278D02*
D03*
Y02469778D02*
D03*
Y02474278D02*
D03*
X02977868D02*
D03*
Y02469778D02*
D03*
Y02465278D02*
D03*
Y02460778D02*
D03*
Y02456278D02*
D03*
D16*
X02954118Y02480028D02*
D03*
X02958618D02*
D03*
X02963118D02*
D03*
X02967618D02*
D03*
X02972118D02*
D03*
Y02450528D02*
D03*
X02967618D02*
D03*
X02963118D02*
D03*
X02958618D02*
D03*
X02954118D02*
D03*
D17*
X02871618Y02485278D02*
D03*
Y02470278D02*
D03*
X03008118Y02505528D02*
D03*
Y02490528D02*
D03*
D18*
X02948618Y02517278D02*
D03*
Y02522278D02*
D03*
Y02527278D02*
D03*
Y02532278D02*
D03*
Y02537278D02*
D03*
Y02542278D02*
D03*
Y02547278D02*
D03*
Y02552278D02*
D03*
Y02557278D02*
D03*
Y02562278D02*
D03*
X02888618D02*
D03*
Y02557278D02*
D03*
Y02552278D02*
D03*
Y02547278D02*
D03*
Y02542278D02*
D03*
Y02537278D02*
D03*
Y02532278D02*
D03*
Y02527278D02*
D03*
Y02522278D02*
D03*
Y02517278D02*
D03*
D19*
X02941118Y02569778D02*
D03*
X02936118D02*
D03*
X02931118D02*
D03*
X02926118D02*
D03*
X02921118D02*
D03*
X02916118D02*
D03*
X02911118D02*
D03*
X02906118D02*
D03*
X02901118D02*
D03*
X02896118D02*
D03*
Y02509778D02*
D03*
X02901118D02*
D03*
X02906118D02*
D03*
X02911118D02*
D03*
X02916118D02*
D03*
X02921118D02*
D03*
X02926118D02*
D03*
X02931118D02*
D03*
X02936118D02*
D03*
X02941118D02*
D03*
D20*
X02918618Y02539778D02*
D03*
D21*
X02965119Y02610029D02*
D03*
X02999119D02*
D03*
D22*
X02911567Y02468448D02*
D03*
Y02473528D02*
D03*
Y02478608D02*
D03*
X02902169D02*
D03*
Y02473528D02*
D03*
Y02468448D02*
D03*
D23*
X03013868Y02543528D02*
D03*
Y02565528D02*
D03*
X02997868D02*
D03*
X02997868Y02543528D02*
D03*
D24*
X02970868Y02507028D02*
D03*
Y02502028D02*
D03*
Y02497028D02*
D03*
X02994868D02*
D03*
Y02502028D02*
D03*
Y02507028D02*
D03*
D25*
X02972868Y02490028D02*
D03*
X02977868D02*
D03*
X02982868D02*
D03*
X02987868D02*
D03*
X02992868D02*
D03*
X02992868Y02514028D02*
D03*
X02987868D02*
D03*
X02982868D02*
D03*
X02977868D02*
D03*
X02972868D02*
D03*
D26*
X02921118Y02502028D02*
Y02509778D01*
X02918368Y02499278D02*
X02921118Y02502028D01*
X02918368Y02499278D02*
X02924368Y02493278D01*
X02910868Y02499278D02*
X02916118Y02504528D01*
X02906618Y02499278D02*
X02910868D01*
X02898493Y02488403D02*
X02899618Y02487278D01*
X02896618Y02491528D02*
X02899118Y02489028D01*
X02896618Y02491528D02*
Y02499278D01*
X02916118Y02504528D02*
Y02509778D01*
X02846618Y02550528D02*
X02856868Y02560778D01*
X02846618Y02534028D02*
Y02550528D01*
X02924368Y02484528D02*
Y02493278D01*
Y02484528D02*
X02928118Y02480778D01*
X02961368Y02502028D02*
X02970118D01*
X02960868D02*
X02961368D01*
X02970118D02*
X02970868Y02502778D01*
X02940368Y02499778D02*
X02943118D01*
X02940368Y02491528D02*
Y02499778D01*
X02939868Y02491028D02*
X02940368Y02491528D01*
X02994368Y02480528D02*
Y02487778D01*
X02992868Y02489278D02*
X02994368Y02487778D01*
X02992868Y02489278D02*
Y02490028D01*
X02987868D02*
X02992868D01*
X02982868D02*
X02987868D01*
X02977868D02*
X02982868D01*
X02972868D02*
X02977868D01*
X02988368Y02470028D02*
X02994618D01*
X02986368Y02472028D02*
X02988368Y02470028D01*
X02998368Y02497028D02*
X03000618Y02494778D01*
Y02486846D02*
Y02494778D01*
Y02486846D02*
X03006186Y02481278D01*
X03006368D01*
X02852518Y02519178D02*
X02852718D01*
X02929368Y02438278D02*
Y02442278D01*
X02927868Y02436778D02*
X02929368Y02438278D01*
X02927868Y02428778D02*
Y02436778D01*
X02939718Y02428778D02*
Y02436178D01*
X02982868Y02514028D02*
Y02517778D01*
X02980618Y02520028D02*
X02982868Y02517778D01*
X02955618Y02522278D02*
X02957618Y02524278D01*
X02950868Y02522278D02*
X02955618D01*
X02950868Y02522278D02*
X02950868Y02522278D01*
X02957618Y02524278D02*
X02968528D01*
X02941522Y02509528D02*
X02949118D01*
X02952118Y02494028D02*
X02955868Y02490278D01*
X02948868Y02494028D02*
X02952118D01*
X02943118Y02499778D02*
X02948868Y02494028D01*
X02954868Y02498278D02*
X02956868Y02496278D01*
X02962118D01*
X02967618Y02490778D01*
X02968043Y02532278D02*
X02974043Y02538278D01*
X02952118Y02532278D02*
X02968043D01*
X02952118Y02532278D02*
X02952118Y02532278D01*
X02968800Y02537278D02*
X02972800Y02541278D01*
X02947618Y02537278D02*
X02968800D01*
X02965898Y02540278D02*
X02968368Y02542749D01*
X02947618Y02537278D02*
X02947618Y02537278D01*
X02930618Y02491028D02*
X02935618Y02486028D01*
X02929868Y02491028D02*
X02930618D01*
X02997868Y02543528D02*
Y02553528D01*
X02997868Y02543528D02*
X02997868Y02543528D01*
X02997618Y02553778D02*
X02997868Y02553528D01*
X02986618Y02553778D02*
X02997618D01*
X03022368Y02522778D02*
Y02526528D01*
X03020868Y02521278D02*
X03022368Y02522778D01*
X03008868Y02521278D02*
X03020868D01*
X03006618Y02519028D02*
X03008868Y02521278D01*
X02985936Y02531278D02*
X02996368D01*
X03001118Y02526528D02*
X03007371D01*
X02996368Y02531278D02*
X03001118Y02526528D01*
X02956159Y02528819D02*
X02968827D01*
X02954618Y02527278D02*
X02956159Y02528819D01*
X02951618Y02527278D02*
X02954618D01*
X02968528Y02524278D02*
X02976528Y02532278D01*
X02968827Y02528819D02*
X02975285Y02535278D01*
X02986943Y02526028D02*
X02992368D01*
X02985618Y02538278D02*
X02986618Y02539278D01*
X02951618Y02527278D02*
X02951618Y02527278D01*
X02947618Y02532278D02*
X02952118D01*
X02987868Y02514028D02*
Y02520778D01*
X02982368Y02526278D02*
X02987868Y02520778D01*
X02978618Y02526278D02*
X02982368D01*
X02980693Y02532278D02*
X02986943Y02526028D01*
X02981936Y02535278D02*
X02985936Y02531278D01*
X02975285Y02535278D02*
X02981936D01*
X02978368Y02541278D02*
X02981618Y02544528D01*
X02976528Y02532278D02*
X02980693D01*
X02974043Y02538278D02*
X02985618D01*
X02972800Y02541278D02*
X02978368D01*
X02968368Y02542749D02*
Y02545528D01*
X02962119Y02514028D02*
X02962119Y02514028D01*
X02972868D01*
X02995618Y02497028D02*
X02998368D01*
X02994868Y02497778D02*
X02995618Y02497028D01*
X02994868D02*
X02995618D01*
X03005868Y02514028D02*
X03006618Y02514778D01*
X02992868Y02514028D02*
X03005868D01*
X02992868D02*
X02993868Y02515028D01*
X03000868Y02507028D02*
X03002368Y02505528D01*
X02994868Y02507028D02*
X03000868D01*
X02994868Y02504028D02*
Y02507028D01*
X02975368Y02568528D02*
X02976369Y02567527D01*
X02961118Y02568528D02*
X02975368D01*
X02960118Y02567528D02*
X02961118Y02568528D01*
X02955868Y02571528D02*
X02980368D01*
X02953618Y02569278D02*
X02955868Y02571528D01*
X02947618Y02522278D02*
X02950868D01*
X02947618Y02527278D02*
X02951618D01*
X02981618Y02544528D02*
Y02567528D01*
X02955868Y02490278D02*
X02960117D01*
X02967618Y02480528D02*
Y02490778D01*
X02963118Y02480028D02*
Y02487277D01*
X02960369Y02490026D02*
X02963118Y02487277D01*
X02960117Y02490278D02*
X02960369Y02490026D01*
X02950368Y02487278D02*
X02955118D01*
X02949868Y02487778D02*
X02950368Y02487278D01*
X02955118D02*
X02958618Y02483778D01*
X02941118Y02499028D02*
X02941436D01*
X02988618Y02534278D02*
X02995611D01*
X02986618Y02536278D02*
X02988618Y02534278D01*
X02995611Y02534278D02*
X03012868D01*
X03013868Y02535278D01*
X02980368Y02571528D02*
X02985618Y02576778D01*
X02965368Y02441028D02*
Y02444278D01*
X02963118Y02446528D02*
X02965368Y02444278D01*
X02963118Y02446528D02*
Y02451028D01*
X02965368Y02441028D02*
X02965618Y02440778D01*
X02958618Y02442278D02*
Y02451028D01*
X02956618Y02440278D02*
X02958618Y02442278D01*
X02969618Y02445028D02*
X02986868D01*
X02967618Y02447028D02*
X02969618Y02445028D01*
X02972368Y02453028D02*
X02986618D01*
X02986868Y02453278D01*
X02887618Y02537278D02*
X02887618Y02537278D01*
X02916115Y02599531D02*
X02917368Y02598278D01*
X02888618Y02599531D02*
X02916115D01*
X02917368Y02592278D02*
Y02598278D01*
Y02592278D02*
X02918618Y02591028D01*
X02986618Y02553778D02*
Y02558278D01*
Y02549278D02*
Y02553778D01*
X02986618Y02558278D02*
X02986618Y02558278D01*
X02977868Y02465278D02*
X02983118D01*
X02986368Y02462028D01*
X02963118Y02465278D02*
X02977868D01*
X02963118Y02465778D02*
Y02466606D01*
Y02465778D02*
X02972118Y02474778D01*
Y02480028D01*
Y02481528D01*
X03002368Y02505528D02*
X03008118D01*
X03006618Y02514778D02*
Y02519028D01*
X02984118Y02469778D02*
X02986368Y02472028D01*
X02977868Y02469778D02*
X02984118D01*
X02967368Y02576778D02*
X02967368Y02576778D01*
X02967368Y02576778D02*
X02967368Y02576778D01*
X02959118Y02576778D02*
X02967368D01*
X02967368Y02576778D02*
X02975618D01*
X02982868Y02568778D02*
X02994118D01*
X02981618Y02567528D02*
X02982868Y02568778D01*
X02976117Y02547779D02*
X02976369D01*
X02968368Y02555528D02*
X02976117Y02547779D01*
X02960118Y02555528D02*
X02968368D01*
X02970118Y02557278D01*
Y02564278D01*
X02960118D02*
Y02567528D01*
X02976369Y02556030D02*
Y02567527D01*
X02953618Y02563778D02*
Y02569278D01*
X02952118Y02562278D02*
X02953618Y02563778D01*
X02947618Y02562278D02*
X02952118D01*
X02975493Y02440653D02*
X02975618Y02440778D01*
Y02434428D02*
Y02440528D01*
X02969218Y02428028D02*
X02975618Y02434428D01*
X02955868Y02428028D02*
X02956518D01*
X02946618Y02437278D02*
X02955868Y02428028D01*
X02946618Y02437278D02*
Y02440778D01*
X02936118Y02573028D02*
X02942368Y02579278D01*
X02947618Y02527278D02*
X02947618Y02527278D01*
X02918868Y02580278D02*
Y02581028D01*
X02918618D02*
X02918868D01*
X02935118Y02591028D02*
X02942368D01*
X02926868Y02591028D02*
X02926868Y02591028D01*
X02926868Y02591028D02*
Y02599778D01*
X02918868Y02580278D02*
X02926118Y02573028D01*
Y02569778D02*
Y02573028D01*
X02936118Y02569778D02*
Y02573028D01*
X02927118Y02578778D02*
X02931118Y02574778D01*
X02927118Y02578778D02*
Y02581028D01*
X02935118Y02578778D02*
Y02581028D01*
X02931118Y02574778D02*
X02935118Y02578778D01*
X02958618Y02480528D02*
Y02483778D01*
X03008378Y02449288D02*
X03015128D01*
X03009858Y02458268D02*
X03024108D01*
X02967618Y02447028D02*
Y02451028D01*
X02937618Y02438278D02*
X02939718Y02436178D01*
X02937618Y02438278D02*
Y02442278D01*
X02937618Y02451778D02*
Y02452278D01*
X02940618Y02491028D02*
Y02491028D01*
Y02491028D02*
X02940868Y02490778D01*
X02942368Y02460278D02*
Y02468278D01*
X02939618Y02457528D02*
X02942368Y02460278D01*
X02929368Y02452278D02*
X02929868D01*
X02930118Y02452528D01*
X02911567Y02478608D02*
X02921038D01*
X02927618Y02472028D01*
X02921038Y02478608D02*
Y02484858D01*
X02918618Y02487278D02*
X02921038Y02484858D01*
X02911567Y02468448D02*
Y02473528D01*
Y02468448D02*
X02919788D01*
X02919868Y02468528D01*
X02902169Y02466227D02*
Y02468448D01*
X02892618Y02469778D02*
Y02473528D01*
X02897698Y02478608D01*
X02902169D01*
X02882618Y02464528D02*
Y02469778D01*
X02902169Y02466227D02*
X02905368Y02463028D01*
X02926618D01*
X02927618Y02462028D01*
X02882618Y02464528D02*
X02884118Y02463028D01*
X02898970D01*
X02902169Y02466227D01*
X02936118Y02509278D02*
Y02521778D01*
X02917618Y02539778D02*
X02935118Y02522278D01*
X02899618Y02487278D02*
X02908868D01*
X02936868Y02472278D02*
Y02479528D01*
X02938118Y02480778D01*
X02928743Y02481403D02*
X02929368Y02480778D01*
X03018368Y02506028D02*
Y02508278D01*
X03008118Y02505528D02*
X03017868D01*
X03018368Y02506028D01*
X02885115Y02596028D02*
X02888618Y02599531D01*
X02885115Y02587526D02*
Y02596028D01*
X02942368Y02579278D02*
Y02591028D01*
X02910368Y02583278D02*
Y02591278D01*
Y02583278D02*
X02912618Y02581028D01*
X02918618D01*
X02996868Y02453278D02*
X03004868D01*
X03009858Y02458268D01*
X02996868Y02445028D02*
X03004118D01*
X03008378Y02449288D01*
X02933868Y02457528D02*
X02939618D01*
X02943868Y02469778D02*
X02948368D01*
X02942368Y02468278D02*
X02943868Y02469778D01*
X02954118Y02451028D02*
Y02452278D01*
X02937618D02*
X02954118D01*
X02929368D02*
Y02453028D01*
X02933868Y02457528D01*
X03013868Y02535278D02*
Y02543278D01*
X02994118Y02568778D02*
X02997868Y02565028D01*
X02935618Y02486028D02*
X02942368D01*
X02944118Y02484278D01*
Y02482528D02*
Y02484278D01*
Y02482528D02*
X02946118Y02480528D01*
X02954118D01*
X02942368Y02579278D02*
X02944618Y02577028D01*
X02949368D01*
X02931118Y02569778D02*
Y02574778D01*
X02931118Y02569778D02*
X02931118Y02569778D01*
X02947618Y02552278D02*
X02952868D01*
X02958368Y02546778D01*
Y02545528D02*
Y02546778D01*
X02947618Y02557278D02*
X02953118D01*
X02960118Y02564278D01*
X02960118D01*
X02947618Y02542278D02*
X02953868D01*
X02955868Y02540278D01*
X02965898D01*
X02959618Y02520028D02*
X02980618D01*
X02949118Y02509528D02*
X02959618Y02520028D01*
X02949118Y02509528D02*
X02952618Y02506028D01*
Y02499778D02*
Y02506028D01*
X02931118Y02499278D02*
Y02509778D01*
Y02492278D02*
Y02499278D01*
X02929868Y02491028D02*
X02931118Y02492278D01*
X02885368Y02517278D02*
X02888618D01*
X02885368Y02498778D02*
Y02517278D01*
X02866968Y02516503D02*
Y02519178D01*
X02884618Y02557278D02*
X02888618D01*
X02866968Y02544578D02*
X02877568D01*
X02884868Y02537278D01*
X02887618D01*
X02884111Y02542278D02*
X02888618D01*
X02882368Y02544021D02*
X02884111Y02542278D01*
X02882368Y02544021D02*
Y02554528D01*
X02881868Y02522278D02*
X02888618D01*
X02888618Y02527278D02*
X02888618Y02527278D01*
X02879618Y02527278D02*
X02888618D01*
X02879118Y02535028D02*
X02881868Y02532278D01*
X02888618D01*
X02879118Y02519528D02*
X02881868Y02522278D01*
X02866968Y02519178D02*
X02874368Y02511778D01*
X02879118D01*
X02882118Y02559778D02*
Y02570528D01*
Y02559778D02*
X02884618Y02557278D01*
X02873868Y02562528D02*
X02874368D01*
X02882368Y02554528D01*
X02879118Y02526778D02*
X02879618Y02527278D01*
X02848768Y02531878D02*
X02854268D01*
X02846618Y02534028D02*
X02848768Y02531878D01*
D27*
X02882118Y02470278D02*
X02882618Y02469778D01*
X02871618Y02470278D02*
X02882118D01*
X02865118D02*
X02871618D01*
X02862118Y02473278D02*
X02865118Y02470278D01*
X02851418Y02506478D02*
X02851968Y02505928D01*
X02887618Y02469778D02*
Y02479023D01*
X02887615Y02479026D02*
X02887618Y02479023D01*
X02901618Y02450028D02*
X02902618Y02449028D01*
X02882618Y02452028D02*
Y02456778D01*
Y02452028D02*
X02884618Y02450028D01*
X02901618D01*
X02862118Y02473278D02*
Y02498628D01*
X02854268Y02506478D02*
X02862118Y02498628D01*
D28*
X02940119Y02610029D02*
X02965119D01*
X02936868Y02606778D02*
X02940119Y02610029D01*
X02936868Y02599778D02*
Y02606778D01*
D29*
X02885368Y02489028D02*
Y02498778D01*
D30*
X02939718Y02428778D02*
D03*
X02956518D02*
D03*
X02866968Y02506478D02*
D03*
X02854268Y02531878D02*
D03*
X02854268Y02519178D02*
D03*
X02854268Y02506478D02*
D03*
X02866968Y02544578D02*
D03*
X02866968Y02531878D02*
D03*
X02866968Y02519178D02*
D03*
X02854268Y02493778D02*
D03*
D31*
X03000368Y02546028D02*
D03*
X02899118Y02489028D02*
D03*
X03011368Y02563028D02*
D03*
X02982868Y02502028D02*
D03*
X03008118Y02490528D02*
D03*
X02994618Y02470028D02*
D03*
X02994368Y02481778D02*
D03*
X02927868Y02428778D02*
D03*
X03007371Y02526528D02*
D03*
X02961368Y02514028D02*
D03*
X02992368Y02526028D02*
D03*
X02961368Y02502028D02*
D03*
X02978618Y02526278D02*
D03*
X02960369Y02490026D02*
D03*
X02949868Y02487778D02*
D03*
X02910368Y02616278D02*
D03*
X03035868Y02572278D02*
D03*
X03016868Y02469028D02*
D03*
X02917618Y02452028D02*
D03*
X03022368Y02526528D02*
D03*
X02917368Y02527278D02*
D03*
X02976368Y02556028D02*
D03*
X02963118Y02465278D02*
D03*
X02976368Y02547778D02*
D03*
X02967368Y02576778D02*
D03*
X02936868Y02472278D02*
D03*
X02931118Y02499278D02*
D03*
X02918368D02*
D03*
X03008118Y02505528D02*
D03*
X02884118Y02489028D02*
D03*
X02910368Y02591278D02*
D03*
X02942368D02*
D03*
X02879118Y02535028D02*
D03*
X02919868Y02468528D02*
D03*
X02887618Y02479028D02*
D03*
X02871618Y02485278D02*
D03*
X02902618Y02452028D02*
D03*
X02917368Y02552278D02*
D03*
X03042118Y02506028D02*
D03*
X02885115Y02587526D02*
D03*
X02879118Y02527278D02*
D03*
Y02511778D02*
D03*
Y02519528D02*
D03*
X02882118Y02570528D02*
D03*
X02856868Y02560778D02*
D03*
D32*
X03015128Y02449288D02*
D03*
X03024108Y02458268D02*
D03*
X02969218Y02428778D02*
D03*
D33*
X02854268Y02544578D02*
D03*
M02*
