%FSAX44Y44*%
%MOMM*%
G71*
G01*
G75*
%ADD10R,0.5000X0.6000*%
%ADD11R,0.6000X0.5000*%
%ADD12R,0.7000X0.9000*%
%ADD13R,0.3000X0.6000*%
%ADD14R,1.5500X1.5500*%
%ADD15R,0.6500X0.2000*%
%ADD16R,0.2000X0.6500*%
%ADD17R,0.9000X0.7000*%
%ADD18O,0.8000X0.2000*%
%ADD19O,0.2000X0.8000*%
%ADD20R,4.6000X4.6000*%
%ADD21R,1.0000X2.0000*%
%ADD22R,0.7112X0.2286*%
%ADD23R,1.1500X1.4000*%
%ADD24R,0.4500X0.3500*%
%ADD25R,0.3500X0.4500*%
%ADD26C,0.1500*%
%ADD27C,0.3000*%
%ADD28C,0.5000*%
%ADD29C,0.2000*%
%ADD30C,0.9000*%
%ADD31C,0.6000*%
%ADD32C,0.8000*%
%ADD33R,0.9000X0.9000*%
%ADD34C,0.2500*%
%ADD35C,0.1250*%
%ADD36R,0.6500X0.7500*%
%ADD37R,0.7500X0.6500*%
%ADD38R,0.8500X1.0500*%
%ADD39R,0.4500X0.7500*%
%ADD40R,1.7000X1.7000*%
%ADD41R,0.8000X0.3500*%
%ADD42R,0.3500X0.8000*%
%ADD43R,1.0500X0.8500*%
%ADD44O,0.9500X0.3500*%
%ADD45O,0.3500X0.9500*%
%ADD46R,4.7500X4.7500*%
%ADD47R,1.1500X2.1500*%
%ADD48R,0.9144X0.4318*%
%ADD49R,1.3000X1.5500*%
%ADD50R,0.6000X0.5000*%
%ADD51R,0.5000X0.6000*%
%ADD52C,1.0500*%
%ADD53C,0.7500*%
%ADD54C,0.9500*%
%ADD55R,1.0500X1.0500*%
%ADD56C,0.1000*%
%ADD57C,0.1270*%
%ADD58C,0.1693*%
D57*
X02937218Y02428778D02*
X02942218D01*
X02939718Y02426278D02*
Y02431278D01*
X02998868Y02546028D02*
X03001868D01*
X03000368Y02544528D02*
Y02547528D01*
X03012628Y02449288D02*
X03017628D01*
X03015128Y02446788D02*
Y02451788D01*
X03021608Y02458268D02*
X03026608D01*
X03024108Y02455768D02*
Y02460768D01*
X02954018Y02428778D02*
X02959018D01*
X02956518Y02426278D02*
Y02431278D01*
X02966718Y02428778D02*
X02971718D01*
X02969218Y02426278D02*
Y02431278D01*
X02897618Y02489028D02*
X02900618D01*
X02899118Y02487528D02*
Y02490528D01*
X03009868Y02563028D02*
X03012868D01*
X03011368Y02561528D02*
Y02564528D01*
X02864468Y02506478D02*
X02869468D01*
X02866968Y02503978D02*
Y02508978D01*
X02851768Y02544578D02*
X02856768D01*
X02854268Y02542078D02*
Y02547078D01*
X02851768Y02531878D02*
X02856768D01*
X02854268Y02529378D02*
Y02534378D01*
X02851768Y02519178D02*
X02856768D01*
X02854268Y02516678D02*
Y02521678D01*
X02851768Y02506478D02*
X02856768D01*
X02854268Y02503978D02*
Y02508978D01*
X02864468Y02544578D02*
X02869468D01*
X02866968Y02542078D02*
Y02547078D01*
X02864468Y02531878D02*
X02869468D01*
X02866968Y02529378D02*
Y02534378D01*
X02864468Y02519178D02*
X02869468D01*
X02866968Y02516678D02*
Y02521678D01*
X02851768Y02493778D02*
X02856768D01*
X02854268Y02491278D02*
Y02496278D01*
X02981368Y02502028D02*
X02984368D01*
X02982868Y02500528D02*
Y02503528D01*
X03006618Y02490528D02*
X03009618D01*
X03008118Y02489028D02*
Y02492028D01*
X02993118Y02470028D02*
X02996118D01*
X02994618Y02468528D02*
Y02471528D01*
X02992868Y02481778D02*
X02995868D01*
X02994368Y02480278D02*
Y02483278D01*
X02926368Y02428778D02*
X02929368D01*
X02927868Y02427278D02*
Y02430278D01*
X03005871Y02526528D02*
X03008871D01*
X03007371Y02525028D02*
Y02528028D01*
X02959868Y02514028D02*
X02962868D01*
X02961368Y02512528D02*
Y02515528D01*
X02990868Y02526028D02*
X02993868D01*
X02992368Y02524528D02*
Y02527528D01*
X02959868Y02502028D02*
X02962868D01*
X02961368Y02500528D02*
Y02503528D01*
X02977118Y02526278D02*
X02980118D01*
X02978618Y02524778D02*
Y02527778D01*
X02958869Y02490026D02*
X02961869D01*
X02960369Y02488526D02*
Y02491526D01*
X02948368Y02487778D02*
X02951368D01*
X02949868Y02486278D02*
Y02489278D01*
X02908868Y02616278D02*
X02911868D01*
X02910368Y02614778D02*
Y02617778D01*
X03034368Y02572278D02*
X03037368D01*
X03035868Y02570778D02*
Y02573778D01*
X03015368Y02469028D02*
X03018368D01*
X03016868Y02467528D02*
Y02470528D01*
X02916118Y02452028D02*
X02919118D01*
X02917618Y02450528D02*
Y02453528D01*
X03020868Y02526528D02*
X03023868D01*
X03022368Y02525028D02*
Y02528028D01*
X02915868Y02527278D02*
X02918868D01*
X02917368Y02525778D02*
Y02528778D01*
X02974868Y02556028D02*
X02977868D01*
X02976368Y02554528D02*
Y02557528D01*
X02961618Y02465278D02*
X02964618D01*
X02963118Y02463778D02*
Y02466778D01*
X02974868Y02547778D02*
X02977868D01*
X02976368Y02546278D02*
Y02549278D01*
X02965868Y02576778D02*
X02968868D01*
X02967368Y02575278D02*
Y02578278D01*
X02935368Y02472278D02*
X02938368D01*
X02936868Y02470778D02*
Y02473778D01*
X02929618Y02499278D02*
X02932618D01*
X02931118Y02497778D02*
Y02500778D01*
X02916868Y02499278D02*
X02919868D01*
X02918368Y02497778D02*
Y02500778D01*
X03006618Y02505528D02*
X03009618D01*
X03008118Y02504028D02*
Y02507028D01*
X02882618Y02489028D02*
X02885618D01*
X02884118Y02487528D02*
Y02490528D01*
X02908868Y02591278D02*
X02911868D01*
X02910368Y02589778D02*
Y02592778D01*
X02940868Y02591278D02*
X02943868D01*
X02942368Y02589778D02*
Y02592778D01*
X02877618Y02535028D02*
X02880618D01*
X02879118Y02533528D02*
Y02536528D01*
X02918368Y02468528D02*
X02921368D01*
X02919868Y02467028D02*
Y02470028D01*
X02886118Y02479028D02*
X02889118D01*
X02887618Y02477528D02*
Y02480528D01*
X02870118Y02485278D02*
X02873118D01*
X02871618Y02483778D02*
Y02486778D01*
X02901118Y02452028D02*
X02904118D01*
X02902618Y02450528D02*
Y02453528D01*
X02915868Y02552278D02*
X02918868D01*
X02917368Y02550778D02*
Y02553778D01*
X03040618Y02506028D02*
X03043618D01*
X03042118Y02504528D02*
Y02507528D01*
X02883615Y02587526D02*
X02886615D01*
X02885115Y02586026D02*
Y02589026D01*
X02877618Y02527278D02*
X02880618D01*
X02879118Y02525778D02*
Y02528778D01*
X02877618Y02511778D02*
X02880618D01*
X02879118Y02510278D02*
Y02513278D01*
X02877618Y02519528D02*
X02880618D01*
X02879118Y02518028D02*
Y02521028D01*
X02880618Y02570528D02*
X02883618D01*
X02882118Y02569028D02*
Y02572028D01*
X02855368Y02560778D02*
X02858368D01*
X02856868Y02559278D02*
Y02562278D01*
M02*
