%FSAX44Y44*%
%MOMM*%
G71*
G01*
G75*
G04 Layer_Physical_Order=4*
G04 Layer_Color=16711680*
%ADD10R,0.5000X0.6000*%
%ADD11R,0.6000X0.5000*%
%ADD12R,0.7000X0.9000*%
%ADD13R,0.3000X0.6000*%
%ADD14R,1.5500X1.5500*%
%ADD15R,0.6500X0.2000*%
%ADD16R,0.2000X0.6500*%
%ADD17R,0.9000X0.7000*%
%ADD18O,0.8000X0.2000*%
%ADD19O,0.2000X0.8000*%
%ADD20R,4.6000X4.6000*%
%ADD21R,1.0000X2.0000*%
%ADD22R,0.7112X0.2286*%
%ADD23R,1.1500X1.4000*%
%ADD24R,0.4500X0.3500*%
%ADD25R,0.3500X0.4500*%
%ADD26C,0.1500*%
%ADD27C,0.3000*%
%ADD28C,0.5000*%
%ADD29C,0.2000*%
%ADD30C,0.9000*%
%ADD31C,0.6000*%
%ADD32C,0.8000*%
%ADD33R,0.9000X0.9000*%
G36*
X03042447Y02578185D02*
X03043846Y02575632D01*
X03045174Y02573041D01*
X03046432Y02570416D01*
X03047619Y02567758D01*
X03048733Y02565068D01*
X03049774Y02562349D01*
X03050741Y02559603D01*
X03051633Y02556832D01*
X03052450Y02554037D01*
X03053190Y02551222D01*
X03053855Y02548387D01*
X03054442Y02545536D01*
X03054952Y02542670D01*
X03055384Y02539790D01*
X03055738Y02536901D01*
X03056013Y02534003D01*
X03056210Y02531098D01*
X03056328Y02528189D01*
X03056367Y02525360D01*
X03056360Y02525278D01*
X03056367Y02525196D01*
X03056328Y02522367D01*
X03056210Y02519458D01*
X03056013Y02516553D01*
X03055738Y02513655D01*
X03055384Y02510766D01*
X03054952Y02507886D01*
X03054442Y02505020D01*
X03053855Y02502169D01*
X03053190Y02499334D01*
X03052450Y02496519D01*
X03051633Y02493724D01*
X03050741Y02490953D01*
X03049774Y02488207D01*
X03048733Y02485488D01*
X03047619Y02482798D01*
X03046432Y02480140D01*
X03045174Y02477514D01*
X03043846Y02474924D01*
X03042447Y02472371D01*
X03040980Y02469856D01*
X03039445Y02467382D01*
X03037845Y02464950D01*
X03036328Y02462778D01*
X03031906D01*
X03031487Y02463435D01*
X03031009Y02464059D01*
X03030478Y02464638D01*
X03029899Y02465169D01*
X03029275Y02465647D01*
X03028612Y02466070D01*
X03027915Y02466433D01*
X03027189Y02466733D01*
X03026440Y02466970D01*
X03025673Y02467140D01*
X03024893Y02467242D01*
X03024108Y02467277D01*
X03023323Y02467242D01*
X03022544Y02467140D01*
X03022353Y02467097D01*
X03021281Y02468147D01*
X03021307Y02468278D01*
X03012429D01*
X03012512Y02467861D01*
X03012702Y02467302D01*
X03012963Y02466773D01*
X03013290Y02466283D01*
X03013679Y02465839D01*
X03014123Y02465450D01*
X03014613Y02465123D01*
X03015142Y02464862D01*
X03015701Y02464672D01*
X03016010Y02464611D01*
X03016258Y02464030D01*
X03015431Y02462778D01*
X02993868D01*
Y02457028D01*
X02955118D01*
X02955118Y02471278D01*
X02941677D01*
X02941677D01*
X02941677D01*
D01*
D01*
X02941378Y02472278D01*
X02941378Y02472278D01*
X02941378D01*
D01*
D01*
D01*
X02941339Y02472867D01*
X02941224Y02473445D01*
X02941035Y02474004D01*
X02940773Y02474533D01*
X02940446Y02475023D01*
X02940057Y02475467D01*
X02939613Y02475856D01*
X02939123Y02476183D01*
X02938594Y02476444D01*
X02938035Y02476634D01*
X02937457Y02476749D01*
X02936868Y02476788D01*
X02936279Y02476749D01*
X02935701Y02476634D01*
X02935142Y02476444D01*
X02934613Y02476183D01*
X02934123Y02475856D01*
X02933679Y02475467D01*
X02933290Y02475023D01*
X02932963Y02474533D01*
X02932702Y02474004D01*
X02932512Y02473445D01*
X02932397Y02472867D01*
X02932358Y02472278D01*
X02932397Y02471689D01*
X02932408Y02471632D01*
X02932118Y02471278D01*
X02932118D01*
X02932118Y02463339D01*
X02931057Y02462278D01*
X02921368D01*
Y02456751D01*
X02920995Y02456326D01*
X02920045Y02455818D01*
X02919873Y02455933D01*
X02919344Y02456194D01*
X02918785Y02456384D01*
X02918368Y02456467D01*
Y02452028D01*
Y02447589D01*
X02918785Y02447672D01*
X02919344Y02447862D01*
X02919873Y02448123D01*
X02920045Y02448238D01*
X02920995Y02447730D01*
X02921368Y02447305D01*
Y02445778D01*
X02899618D01*
X02865254Y02480142D01*
X02860407Y02486458D01*
X02860409Y02486520D01*
X02860992Y02487054D01*
X02861552Y02487666D01*
X02862057Y02488324D01*
X02862503Y02489023D01*
X02862886Y02489759D01*
X02863204Y02490526D01*
X02863453Y02491317D01*
X02863633Y02492127D01*
X02863741Y02492949D01*
X02863777Y02493778D01*
X02863741Y02494607D01*
X02863633Y02495429D01*
X02863453Y02496239D01*
X02863204Y02497030D01*
X02862886Y02497797D01*
X02862503Y02498533D01*
X02862057Y02499232D01*
X02861552Y02499890D01*
X02860992Y02500502D01*
X02860380Y02501062D01*
X02859722Y02501567D01*
X02859551Y02501677D01*
X02859263Y02503149D01*
X02859356Y02503281D01*
X02859682Y02503871D01*
X02859868Y02504319D01*
X02861368D01*
X02861554Y02503871D01*
X02861880Y02503281D01*
X02862270Y02502731D01*
X02862719Y02502229D01*
X02863221Y02501780D01*
X02863771Y02501390D01*
X02864361Y02501064D01*
X02864983Y02500806D01*
X02865631Y02500619D01*
X02866295Y02500506D01*
X02866968Y02500469D01*
X02867641Y02500506D01*
X02868305Y02500619D01*
X02868953Y02500806D01*
X02869576Y02501064D01*
X02870165Y02501390D01*
X02870715Y02501780D01*
X02871217Y02502229D01*
X02871666Y02502731D01*
X02872056Y02503281D01*
X02872382Y02503871D01*
X02872640Y02504493D01*
X02872827Y02505141D01*
X02872939Y02505805D01*
X02872977Y02506478D01*
X02872939Y02507151D01*
X02872827Y02507815D01*
X02872640Y02508463D01*
X02872495Y02508813D01*
X02873108Y02509427D01*
X02874334Y02509843D01*
X02875119Y02509713D01*
X02875212Y02509523D01*
X02875540Y02509033D01*
X02875929Y02508589D01*
X02876373Y02508200D01*
X02876863Y02507873D01*
X02877392Y02507612D01*
X02877951Y02507422D01*
X02878529Y02507307D01*
X02879118Y02507268D01*
X02879707Y02507307D01*
X02880285Y02507422D01*
X02880844Y02507612D01*
X02881373Y02507873D01*
X02881863Y02508200D01*
X02882307Y02508589D01*
X02882696Y02509033D01*
X02883022Y02509521D01*
X02887368D01*
X02887721Y02509549D01*
X02888065Y02509632D01*
X02888393Y02509767D01*
X02888694Y02509952D01*
X02888964Y02510182D01*
X02892464Y02513682D01*
X02892464Y02513682D01*
X02892694Y02513951D01*
X02892879Y02514253D01*
X02892958Y02514445D01*
X02893015Y02514581D01*
X02893097Y02514925D01*
X02893125Y02515278D01*
X02893125Y02515278D01*
Y02561778D01*
X02893125Y02561778D01*
X02893097Y02562131D01*
X02893015Y02562475D01*
X02892879Y02562803D01*
X02892694Y02563105D01*
X02892464Y02563374D01*
X02892464Y02563374D01*
X02886475Y02569363D01*
X02886589Y02569939D01*
X02886628Y02570528D01*
X02886589Y02571117D01*
X02886474Y02571695D01*
X02886284Y02572254D01*
X02886023Y02572783D01*
X02885696Y02573273D01*
X02885361Y02573655D01*
X02885477Y02573911D01*
X02886451Y02575021D01*
X02902485D01*
X02903546Y02573960D01*
X02903543Y02569028D01*
X02909176D01*
X02943272Y02534932D01*
X02943272Y02534932D01*
X02943541Y02534702D01*
X02943843Y02534517D01*
X02944171Y02534382D01*
X02944515Y02534299D01*
X02944868Y02534271D01*
X02944868Y02534271D01*
X02996436D01*
X03003015Y02527693D01*
X03002900Y02527117D01*
X03002861Y02526528D01*
X03002900Y02525939D01*
X03003015Y02525361D01*
X03003205Y02524802D01*
X03003465Y02524273D01*
X03003793Y02523783D01*
X03004182Y02523339D01*
X03004626Y02522950D01*
X03005116Y02522623D01*
X03005645Y02522362D01*
X03006204Y02522172D01*
X03006782Y02522057D01*
X03007371Y02522018D01*
X03007960Y02522057D01*
X03008538Y02522172D01*
X03009097Y02522362D01*
X03009626Y02522623D01*
X03010116Y02522950D01*
X03010560Y02523339D01*
X03010948Y02523783D01*
X03011276Y02524273D01*
X03011537Y02524802D01*
X03011727Y02525361D01*
X03011842Y02525939D01*
X03011880Y02526528D01*
X03011842Y02527117D01*
X03011727Y02527695D01*
X03011537Y02528254D01*
X03011276Y02528783D01*
X03010948Y02529273D01*
X03010560Y02529717D01*
X03010116Y02530106D01*
X03009626Y02530434D01*
X03009097Y02530694D01*
X03008538Y02530884D01*
X03007960Y02530999D01*
X03007371Y02531038D01*
X03006782Y02530999D01*
X03006206Y02530885D01*
X02998967Y02538124D01*
X02998698Y02538354D01*
X02998396Y02538539D01*
X02998068Y02538674D01*
X02997724Y02538757D01*
X02997371Y02538785D01*
X02945803D01*
X02916945Y02567642D01*
X02917520Y02569028D01*
X02952306D01*
Y02580528D01*
X02962645D01*
X02963070Y02580155D01*
X02963578Y02579205D01*
X02963463Y02579033D01*
X02963202Y02578504D01*
X02963012Y02577945D01*
X02962929Y02577528D01*
X02971807D01*
X02971724Y02577945D01*
X02971534Y02578504D01*
X02971273Y02579033D01*
X02971158Y02579205D01*
X02971666Y02580155D01*
X02972091Y02580528D01*
X03041080D01*
X03042447Y02578185D01*
D02*
G37*
G36*
X02917055Y02626686D02*
Y02596528D01*
X02903556D01*
X02903548Y02579535D01*
X02879618D01*
X02879265Y02579507D01*
X02878921Y02579424D01*
X02878593Y02579289D01*
X02878291Y02579104D01*
X02878167Y02578998D01*
X02878022Y02578874D01*
X02878022Y02578874D01*
X02873772Y02574624D01*
X02873542Y02574355D01*
X02873357Y02574053D01*
X02873221Y02573725D01*
X02873139Y02573381D01*
X02873111Y02573028D01*
Y02548758D01*
X02871682Y02548303D01*
X02871666Y02548325D01*
X02871217Y02548827D01*
X02870715Y02549276D01*
X02870165Y02549666D01*
X02869576Y02549992D01*
X02868953Y02550250D01*
X02868305Y02550437D01*
X02867641Y02550550D01*
X02866968Y02550587D01*
X02866295Y02550550D01*
X02865631Y02550437D01*
X02864983Y02550250D01*
X02864361Y02549992D01*
X02863771Y02549666D01*
X02863221Y02549276D01*
X02862719Y02548827D01*
X02862270Y02548325D01*
X02861880Y02547775D01*
X02861720Y02547487D01*
X02860268Y02547862D01*
Y02550578D01*
X02855018D01*
Y02544578D01*
X02854268D01*
Y02543828D01*
X02848268D01*
Y02538578D01*
X02850984D01*
X02851359Y02537126D01*
X02851071Y02536966D01*
X02850521Y02536576D01*
X02850019Y02536127D01*
X02849570Y02535625D01*
X02849180Y02535075D01*
X02848854Y02534485D01*
X02848596Y02533863D01*
X02848409Y02533215D01*
X02848296Y02532551D01*
X02848258Y02531878D01*
X02848296Y02531205D01*
X02848409Y02530541D01*
X02848596Y02529893D01*
X02848854Y02529271D01*
X02849180Y02528681D01*
X02849570Y02528131D01*
X02850019Y02527629D01*
X02850521Y02527180D01*
X02851071Y02526790D01*
X02851660Y02526464D01*
X02852109Y02526278D01*
Y02524778D01*
X02851661Y02524592D01*
X02851071Y02524266D01*
X02850521Y02523876D01*
X02850019Y02523427D01*
X02849570Y02522925D01*
X02849180Y02522375D01*
X02848854Y02521785D01*
X02848596Y02521163D01*
X02848409Y02520515D01*
X02848297Y02519851D01*
X02848259Y02519178D01*
X02848297Y02518505D01*
X02848409Y02517841D01*
X02848596Y02517193D01*
X02848854Y02516571D01*
X02849180Y02515981D01*
X02849570Y02515431D01*
X02850019Y02514929D01*
X02850521Y02514480D01*
X02851071Y02514090D01*
X02851661Y02513764D01*
X02852109Y02513578D01*
Y02512078D01*
X02851660Y02511892D01*
X02851071Y02511566D01*
X02850521Y02511176D01*
X02850019Y02510727D01*
X02849570Y02510225D01*
X02849180Y02509675D01*
X02848854Y02509085D01*
X02848596Y02508463D01*
X02848409Y02507815D01*
X02848297Y02507151D01*
X02848259Y02506478D01*
X02848297Y02505805D01*
X02848409Y02505141D01*
X02848596Y02504493D01*
X02848854Y02503871D01*
X02849180Y02503281D01*
X02849273Y02503149D01*
X02848985Y02501677D01*
X02848814Y02501567D01*
X02848156Y02501062D01*
X02847544Y02500502D01*
X02846984Y02499890D01*
X02846479Y02499232D01*
X02846135Y02498693D01*
X02845548Y02498785D01*
X02844554Y02499302D01*
X02844546Y02499334D01*
X02843882Y02502169D01*
X02843294Y02505020D01*
X02842784Y02507886D01*
X02842352Y02510766D01*
X02841998Y02513655D01*
X02841723Y02516553D01*
X02841526Y02519458D01*
X02841407Y02522367D01*
X02841368Y02525278D01*
X02841407Y02528189D01*
X02841526Y02531098D01*
X02841723Y02534003D01*
X02841998Y02536901D01*
X02842352Y02539790D01*
X02842784Y02542670D01*
X02843294Y02545536D01*
X02843882Y02548387D01*
X02844546Y02551222D01*
X02845287Y02554037D01*
X02846103Y02556832D01*
X02846995Y02559603D01*
X02847962Y02562349D01*
X02849003Y02565068D01*
X02850117Y02567758D01*
X02851304Y02570416D01*
X02852562Y02573041D01*
X02853890Y02575632D01*
X02855289Y02578185D01*
X02856756Y02580700D01*
X02858290Y02583174D01*
X02859891Y02585605D01*
X02861558Y02587993D01*
X02863288Y02590334D01*
X02865081Y02592628D01*
X02866936Y02594872D01*
X02868850Y02597065D01*
X02870823Y02599206D01*
X02872854Y02601292D01*
X02874940Y02603322D01*
X02877081Y02605296D01*
X02879274Y02607210D01*
X02881518Y02609065D01*
X02883812Y02610858D01*
X02886153Y02612588D01*
X02888540Y02614254D01*
X02890972Y02615855D01*
X02893446Y02617390D01*
X02895961Y02618857D01*
X02898514Y02620255D01*
X02901104Y02621584D01*
X02903730Y02622842D01*
X02906389Y02624029D01*
X02909078Y02625143D01*
X02911797Y02626184D01*
X02914543Y02627151D01*
X02915843Y02627569D01*
X02917055Y02626686D01*
D02*
G37*
%LPC*%
G36*
X02960369Y02494536D02*
X02959780Y02494497D01*
X02959201Y02494382D01*
X02958643Y02494193D01*
X02958114Y02493932D01*
X02957623Y02493604D01*
X02957180Y02493215D01*
X02956791Y02492772D01*
X02956463Y02492281D01*
X02956202Y02491752D01*
X02956013Y02491194D01*
X02955898Y02490615D01*
X02955859Y02490026D01*
X02955898Y02489438D01*
X02956013Y02488859D01*
X02956202Y02488300D01*
X02956463Y02487771D01*
X02956791Y02487281D01*
X02957180Y02486837D01*
X02957623Y02486449D01*
X02958114Y02486121D01*
X02958643Y02485860D01*
X02959201Y02485670D01*
X02959780Y02485555D01*
X02960369Y02485517D01*
X02960957Y02485555D01*
X02961536Y02485670D01*
X02962094Y02485860D01*
X02962623Y02486121D01*
X02963114Y02486449D01*
X02963557Y02486837D01*
X02963946Y02487281D01*
X02964274Y02487771D01*
X02964535Y02488300D01*
X02964724Y02488859D01*
X02964839Y02489438D01*
X02964878Y02490026D01*
X02964839Y02490615D01*
X02964724Y02491194D01*
X02964535Y02491752D01*
X02964274Y02492281D01*
X02963946Y02492772D01*
X02963557Y02493215D01*
X02963114Y02493604D01*
X02962623Y02493932D01*
X02962094Y02494193D01*
X02961536Y02494382D01*
X02960957Y02494497D01*
X02960369Y02494536D01*
D02*
G37*
G36*
X02903557Y02488278D02*
X02899868D01*
Y02484589D01*
X02900285Y02484672D01*
X02900844Y02484862D01*
X02901373Y02485123D01*
X02901863Y02485450D01*
X02902307Y02485839D01*
X02902696Y02486283D01*
X02903023Y02486773D01*
X02903284Y02487302D01*
X02903474Y02487861D01*
X02903557Y02488278D01*
D02*
G37*
G36*
X02872368Y02489717D02*
Y02486028D01*
X02876057D01*
X02875974Y02486445D01*
X02875784Y02487004D01*
X02875523Y02487533D01*
X02875196Y02488023D01*
X02874807Y02488467D01*
X02874363Y02488856D01*
X02873873Y02489183D01*
X02873344Y02489444D01*
X02872785Y02489634D01*
X02872368Y02489717D01*
D02*
G37*
G36*
X02870868D02*
X02870451Y02489634D01*
X02869892Y02489444D01*
X02869363Y02489183D01*
X02868873Y02488856D01*
X02868429Y02488467D01*
X02868040Y02488023D01*
X02867713Y02487533D01*
X02867451Y02487004D01*
X02867262Y02486445D01*
X02867179Y02486028D01*
X02870868D01*
Y02489717D01*
D02*
G37*
G36*
X02995118Y02486217D02*
Y02482528D01*
X02998807D01*
X02998724Y02482945D01*
X02998535Y02483504D01*
X02998274Y02484033D01*
X02997946Y02484523D01*
X02997557Y02484967D01*
X02997113Y02485356D01*
X02996623Y02485683D01*
X02996094Y02485944D01*
X02995535Y02486134D01*
X02995118Y02486217D01*
D02*
G37*
G36*
X02993618D02*
X02993201Y02486134D01*
X02992642Y02485944D01*
X02992113Y02485683D01*
X02991623Y02485356D01*
X02991179Y02484967D01*
X02990790Y02484523D01*
X02990463Y02484033D01*
X02990202Y02483504D01*
X02990012Y02482945D01*
X02989929Y02482528D01*
X02993618D01*
Y02486217D01*
D02*
G37*
G36*
X02918368Y02503788D02*
X02917780Y02503749D01*
X02917201Y02503634D01*
X02916642Y02503444D01*
X02916113Y02503183D01*
X02915623Y02502856D01*
X02915179Y02502467D01*
X02914790Y02502023D01*
X02914463Y02501533D01*
X02914202Y02501004D01*
X02914012Y02500445D01*
X02913897Y02499867D01*
X02913858Y02499278D01*
X02913897Y02498689D01*
X02914012Y02498111D01*
X02914202Y02497552D01*
X02914463Y02497023D01*
X02914790Y02496533D01*
X02915179Y02496089D01*
X02915623Y02495700D01*
X02916111Y02495374D01*
Y02490778D01*
X02916139Y02490425D01*
X02916222Y02490081D01*
X02916357Y02489753D01*
X02916542Y02489451D01*
X02916772Y02489182D01*
X02919772Y02486182D01*
X02920042Y02485952D01*
X02920343Y02485767D01*
X02920670Y02485632D01*
X02921015Y02485549D01*
X02921368Y02485521D01*
X02921368Y02485521D01*
X02945964D01*
X02946290Y02485033D01*
X02946679Y02484589D01*
X02947123Y02484200D01*
X02947613Y02483873D01*
X02948142Y02483612D01*
X02948701Y02483422D01*
X02949279Y02483307D01*
X02949868Y02483268D01*
X02950457Y02483307D01*
X02951035Y02483422D01*
X02951594Y02483612D01*
X02952123Y02483873D01*
X02952613Y02484200D01*
X02953057Y02484589D01*
X02953446Y02485033D01*
X02953773Y02485523D01*
X02954034Y02486052D01*
X02954224Y02486611D01*
X02954339Y02487189D01*
X02954378Y02487778D01*
X02954339Y02488367D01*
X02954224Y02488945D01*
X02954034Y02489504D01*
X02953773Y02490033D01*
X02953446Y02490523D01*
X02953057Y02490967D01*
X02952613Y02491356D01*
X02952123Y02491684D01*
X02951594Y02491944D01*
X02951035Y02492134D01*
X02950457Y02492249D01*
X02949868Y02492288D01*
X02949279Y02492249D01*
X02948701Y02492134D01*
X02948142Y02491944D01*
X02947613Y02491684D01*
X02947123Y02491356D01*
X02946679Y02490967D01*
X02946290Y02490523D01*
X02945964Y02490035D01*
X02922303D01*
X02920625Y02491713D01*
Y02495374D01*
X02921113Y02495700D01*
X02921557Y02496089D01*
X02921946Y02496533D01*
X02922274Y02497023D01*
X02922534Y02497552D01*
X02922724Y02498111D01*
X02922839Y02498689D01*
X02922878Y02499278D01*
X02922839Y02499867D01*
X02922724Y02500445D01*
X02922534Y02501004D01*
X02922274Y02501533D01*
X02921946Y02502023D01*
X02921557Y02502467D01*
X02921113Y02502856D01*
X02920623Y02503183D01*
X02920094Y02503444D01*
X02919535Y02503634D01*
X02918957Y02503749D01*
X02918368Y02503788D01*
D02*
G37*
G36*
X02898368Y02488278D02*
X02894679D01*
X02894762Y02487861D01*
X02894951Y02487302D01*
X02895212Y02486773D01*
X02895540Y02486283D01*
X02895929Y02485839D01*
X02896373Y02485450D01*
X02896863Y02485123D01*
X02897392Y02484862D01*
X02897951Y02484672D01*
X02898368Y02484589D01*
Y02488278D01*
D02*
G37*
G36*
X02884118Y02493538D02*
X02883529Y02493499D01*
X02882951Y02493384D01*
X02882392Y02493194D01*
X02881863Y02492934D01*
X02881373Y02492606D01*
X02880929Y02492217D01*
X02880540Y02491773D01*
X02880212Y02491283D01*
X02879951Y02490754D01*
X02879762Y02490195D01*
X02879647Y02489617D01*
X02879608Y02489028D01*
X02879647Y02488439D01*
X02879762Y02487861D01*
X02879951Y02487302D01*
X02880212Y02486773D01*
X02880540Y02486283D01*
X02880929Y02485839D01*
X02881373Y02485450D01*
X02881863Y02485123D01*
X02882392Y02484862D01*
X02882951Y02484672D01*
X02883529Y02484557D01*
X02884118Y02484518D01*
X02884707Y02484557D01*
X02885285Y02484672D01*
X02885844Y02484862D01*
X02886373Y02485123D01*
X02886863Y02485450D01*
X02887307Y02485839D01*
X02887696Y02486283D01*
X02888023Y02486773D01*
X02888284Y02487302D01*
X02888474Y02487861D01*
X02888589Y02488439D01*
X02888628Y02489028D01*
X02888589Y02489617D01*
X02888474Y02490195D01*
X02888284Y02490754D01*
X02888023Y02491283D01*
X02887696Y02491773D01*
X02887307Y02492217D01*
X02886863Y02492606D01*
X02886373Y02492934D01*
X02885844Y02493194D01*
X02885285Y02493384D01*
X02884707Y02493499D01*
X02884118Y02493538D01*
D02*
G37*
G36*
X03007368Y02489778D02*
X03003679D01*
X03003762Y02489361D01*
X03003952Y02488802D01*
X03004213Y02488273D01*
X03004540Y02487783D01*
X03004929Y02487339D01*
X03005373Y02486950D01*
X03005863Y02486622D01*
X03006392Y02486362D01*
X03006951Y02486172D01*
X03007368Y02486089D01*
Y02489778D01*
D02*
G37*
G36*
X02987307Y02501278D02*
X02983618D01*
Y02497589D01*
X02984035Y02497672D01*
X02984594Y02497862D01*
X02985123Y02498123D01*
X02985613Y02498450D01*
X02986057Y02498839D01*
X02986446Y02499283D01*
X02986773Y02499773D01*
X02987034Y02500302D01*
X02987224Y02500861D01*
X02987307Y02501278D01*
D02*
G37*
G36*
X02982118D02*
X02978429D01*
X02978512Y02500861D01*
X02978701Y02500302D01*
X02978962Y02499773D01*
X02979290Y02499283D01*
X02979679Y02498839D01*
X02980123Y02498450D01*
X02980613Y02498123D01*
X02981142Y02497862D01*
X02981701Y02497672D01*
X02982118Y02497589D01*
Y02501278D01*
D02*
G37*
G36*
X03008118Y02510038D02*
X03007529Y02509999D01*
X03006951Y02509884D01*
X03006392Y02509694D01*
X03005863Y02509433D01*
X03005373Y02509106D01*
X03004929Y02508717D01*
X03004540Y02508273D01*
X03004213Y02507783D01*
X03003952Y02507254D01*
X03003762Y02506695D01*
X03003647Y02506117D01*
X03003608Y02505528D01*
X03003647Y02504939D01*
X03003762Y02504361D01*
X03003952Y02503802D01*
X03004213Y02503273D01*
X03004540Y02502783D01*
X03004929Y02502339D01*
X03005373Y02501950D01*
X03005863Y02501622D01*
X03006392Y02501362D01*
X03006951Y02501172D01*
X03007529Y02501057D01*
X03008118Y02501018D01*
X03008707Y02501057D01*
X03009285Y02501172D01*
X03009844Y02501362D01*
X03010373Y02501622D01*
X03010863Y02501950D01*
X03011307Y02502339D01*
X03011696Y02502783D01*
X03012024Y02503273D01*
X03012285Y02503802D01*
X03012474Y02504361D01*
X03012589Y02504939D01*
X03012628Y02505528D01*
X03012589Y02506117D01*
X03012474Y02506695D01*
X03012285Y02507254D01*
X03012024Y02507783D01*
X03011696Y02508273D01*
X03011307Y02508717D01*
X03010863Y02509106D01*
X03010373Y02509433D01*
X03009844Y02509694D01*
X03009285Y02509884D01*
X03008707Y02509999D01*
X03008118Y02510038D01*
D02*
G37*
G36*
X03046557Y02505278D02*
X03042868D01*
Y02501589D01*
X03043285Y02501672D01*
X03043844Y02501862D01*
X03044373Y02502123D01*
X03044863Y02502450D01*
X03045307Y02502839D01*
X03045696Y02503283D01*
X03046023Y02503773D01*
X03046284Y02504302D01*
X03046474Y02504861D01*
X03046557Y02505278D01*
D02*
G37*
G36*
X03041368D02*
X03037679D01*
X03037762Y02504861D01*
X03037952Y02504302D01*
X03038213Y02503773D01*
X03038540Y02503283D01*
X03038929Y02502839D01*
X03039373Y02502450D01*
X03039863Y02502123D01*
X03040392Y02501862D01*
X03040951Y02501672D01*
X03041368Y02501589D01*
Y02505278D01*
D02*
G37*
G36*
X02898368Y02493467D02*
X02897951Y02493384D01*
X02897392Y02493194D01*
X02896863Y02492934D01*
X02896373Y02492606D01*
X02895929Y02492217D01*
X02895540Y02491773D01*
X02895212Y02491283D01*
X02894951Y02490754D01*
X02894762Y02490195D01*
X02894679Y02489778D01*
X02898368D01*
Y02493467D01*
D02*
G37*
G36*
X03012557Y02489778D02*
X03008868D01*
Y02486089D01*
X03009285Y02486172D01*
X03009844Y02486362D01*
X03010373Y02486622D01*
X03010863Y02486950D01*
X03011307Y02487339D01*
X03011696Y02487783D01*
X03012024Y02488273D01*
X03012285Y02488802D01*
X03012474Y02489361D01*
X03012557Y02489778D01*
D02*
G37*
G36*
X02899868Y02493467D02*
Y02489778D01*
X02903557D01*
X02903474Y02490195D01*
X02903284Y02490754D01*
X02903023Y02491283D01*
X02902696Y02491773D01*
X02902307Y02492217D01*
X02901863Y02492606D01*
X02901373Y02492934D01*
X02900844Y02493194D01*
X02900285Y02493384D01*
X02899868Y02493467D01*
D02*
G37*
G36*
X03008868Y02494967D02*
Y02491278D01*
X03012557D01*
X03012474Y02491695D01*
X03012285Y02492254D01*
X03012024Y02492783D01*
X03011696Y02493273D01*
X03011307Y02493717D01*
X03010863Y02494106D01*
X03010373Y02494433D01*
X03009844Y02494694D01*
X03009285Y02494884D01*
X03008868Y02494967D01*
D02*
G37*
G36*
X03007368D02*
X03006951Y02494884D01*
X03006392Y02494694D01*
X03005863Y02494433D01*
X03005373Y02494106D01*
X03004929Y02493717D01*
X03004540Y02493273D01*
X03004213Y02492783D01*
X03003952Y02492254D01*
X03003762Y02491695D01*
X03003679Y02491278D01*
X03007368D01*
Y02494967D01*
D02*
G37*
G36*
X02876057Y02484528D02*
X02872368D01*
Y02480839D01*
X02872785Y02480922D01*
X02873344Y02481112D01*
X02873873Y02481373D01*
X02874363Y02481700D01*
X02874807Y02482089D01*
X02875196Y02482533D01*
X02875523Y02483023D01*
X02875784Y02483552D01*
X02875974Y02484111D01*
X02876057Y02484528D01*
D02*
G37*
G36*
X02924307Y02467778D02*
X02920618D01*
Y02464089D01*
X02921035Y02464172D01*
X02921594Y02464362D01*
X02922123Y02464622D01*
X02922613Y02464950D01*
X02923057Y02465339D01*
X02923446Y02465783D01*
X02923773Y02466273D01*
X02924034Y02466802D01*
X02924224Y02467361D01*
X02924307Y02467778D01*
D02*
G37*
G36*
X02919118D02*
X02915429D01*
X02915512Y02467361D01*
X02915702Y02466802D01*
X02915963Y02466273D01*
X02916290Y02465783D01*
X02916679Y02465339D01*
X02917123Y02464950D01*
X02917613Y02464622D01*
X02918142Y02464362D01*
X02918701Y02464172D01*
X02919118Y02464089D01*
Y02467778D01*
D02*
G37*
G36*
X02994618Y02474538D02*
X02994030Y02474499D01*
X02993451Y02474384D01*
X02992892Y02474194D01*
X02992363Y02473934D01*
X02991873Y02473606D01*
X02991429Y02473217D01*
X02991040Y02472773D01*
X02990713Y02472283D01*
X02990452Y02471754D01*
X02990262Y02471195D01*
X02990147Y02470617D01*
X02990108Y02470028D01*
X02990147Y02469439D01*
X02990262Y02468861D01*
X02990452Y02468302D01*
X02990713Y02467773D01*
X02991040Y02467283D01*
X02991429Y02466839D01*
X02991873Y02466450D01*
X02992363Y02466123D01*
X02992892Y02465862D01*
X02993451Y02465672D01*
X02994030Y02465557D01*
X02994618Y02465518D01*
X02995207Y02465557D01*
X02995785Y02465672D01*
X02996344Y02465862D01*
X02996873Y02466123D01*
X02997363Y02466450D01*
X02997807Y02466839D01*
X02998196Y02467283D01*
X02998523Y02467773D01*
X02998784Y02468302D01*
X02998974Y02468861D01*
X02999089Y02469439D01*
X02999128Y02470028D01*
X02999089Y02470617D01*
X02998974Y02471195D01*
X02998784Y02471754D01*
X02998523Y02472283D01*
X02998196Y02472773D01*
X02997807Y02473217D01*
X02997363Y02473606D01*
X02996873Y02473934D01*
X02996344Y02474194D01*
X02995785Y02474384D01*
X02995207Y02474499D01*
X02994618Y02474538D01*
D02*
G37*
G36*
X02963868Y02469717D02*
Y02466028D01*
X02967557D01*
X02967474Y02466445D01*
X02967285Y02467004D01*
X02967024Y02467533D01*
X02966696Y02468023D01*
X02966307Y02468467D01*
X02965863Y02468856D01*
X02965373Y02469183D01*
X02964844Y02469444D01*
X02964285Y02469634D01*
X02963868Y02469717D01*
D02*
G37*
G36*
X02962368D02*
X02961951Y02469634D01*
X02961392Y02469444D01*
X02960863Y02469183D01*
X02960373Y02468856D01*
X02959929Y02468467D01*
X02959540Y02468023D01*
X02959213Y02467533D01*
X02958952Y02467004D01*
X02958762Y02466445D01*
X02958679Y02466028D01*
X02962368D01*
Y02469717D01*
D02*
G37*
G36*
X02916868Y02451278D02*
X02913179D01*
X02913262Y02450861D01*
X02913452Y02450302D01*
X02913712Y02449773D01*
X02914040Y02449283D01*
X02914429Y02448839D01*
X02914873Y02448450D01*
X02915363Y02448123D01*
X02915892Y02447862D01*
X02916451Y02447672D01*
X02916868Y02447589D01*
Y02451278D01*
D02*
G37*
G36*
X02902618Y02456538D02*
X02902029Y02456499D01*
X02901451Y02456384D01*
X02900892Y02456194D01*
X02900363Y02455933D01*
X02899873Y02455606D01*
X02899429Y02455217D01*
X02899040Y02454773D01*
X02898712Y02454283D01*
X02898452Y02453754D01*
X02898262Y02453195D01*
X02898147Y02452617D01*
X02898109Y02452028D01*
X02898147Y02451439D01*
X02898262Y02450861D01*
X02898452Y02450302D01*
X02898712Y02449773D01*
X02899040Y02449283D01*
X02899429Y02448839D01*
X02899873Y02448450D01*
X02900363Y02448123D01*
X02900892Y02447862D01*
X02901451Y02447672D01*
X02902029Y02447557D01*
X02902618Y02447518D01*
X02903206Y02447557D01*
X02903785Y02447672D01*
X02904344Y02447862D01*
X02904873Y02448123D01*
X02905363Y02448450D01*
X02905807Y02448839D01*
X02906196Y02449283D01*
X02906523Y02449773D01*
X02906784Y02450302D01*
X02906974Y02450861D01*
X02907089Y02451439D01*
X02907128Y02452028D01*
X02907089Y02452617D01*
X02906974Y02453195D01*
X02906784Y02453754D01*
X02906523Y02454283D01*
X02906196Y02454773D01*
X02905807Y02455217D01*
X02905363Y02455606D01*
X02904873Y02455933D01*
X02904344Y02456194D01*
X02903785Y02456384D01*
X02903206Y02456499D01*
X02902618Y02456538D01*
D02*
G37*
G36*
X02916868Y02456467D02*
X02916451Y02456384D01*
X02915892Y02456194D01*
X02915363Y02455933D01*
X02914873Y02455606D01*
X02914429Y02455217D01*
X02914040Y02454773D01*
X02913712Y02454283D01*
X02913452Y02453754D01*
X02913262Y02453195D01*
X02913179Y02452778D01*
X02916868D01*
Y02456467D01*
D02*
G37*
G36*
X02967557Y02464528D02*
X02963868D01*
Y02460839D01*
X02964285Y02460922D01*
X02964844Y02461112D01*
X02965373Y02461373D01*
X02965863Y02461700D01*
X02966307Y02462089D01*
X02966696Y02462533D01*
X02967024Y02463023D01*
X02967285Y02463552D01*
X02967474Y02464111D01*
X02967557Y02464528D01*
D02*
G37*
G36*
X02962368D02*
X02958679D01*
X02958762Y02464111D01*
X02958952Y02463552D01*
X02959213Y02463023D01*
X02959540Y02462533D01*
X02959929Y02462089D01*
X02960373Y02461700D01*
X02960863Y02461373D01*
X02961392Y02461112D01*
X02961951Y02460922D01*
X02962368Y02460839D01*
Y02464528D01*
D02*
G37*
G36*
X02919118Y02472967D02*
X02918701Y02472884D01*
X02918142Y02472694D01*
X02917613Y02472433D01*
X02917123Y02472106D01*
X02916679Y02471717D01*
X02916290Y02471273D01*
X02915963Y02470783D01*
X02915702Y02470254D01*
X02915512Y02469695D01*
X02915429Y02469278D01*
X02919118D01*
Y02472967D01*
D02*
G37*
G36*
X02998807Y02481028D02*
X02995118D01*
Y02477339D01*
X02995535Y02477422D01*
X02996094Y02477612D01*
X02996623Y02477873D01*
X02997113Y02478200D01*
X02997557Y02478589D01*
X02997946Y02479033D01*
X02998274Y02479523D01*
X02998535Y02480052D01*
X02998724Y02480611D01*
X02998807Y02481028D01*
D02*
G37*
G36*
X02993618D02*
X02989929D01*
X02990012Y02480611D01*
X02990202Y02480052D01*
X02990463Y02479523D01*
X02990790Y02479033D01*
X02991179Y02478589D01*
X02991623Y02478200D01*
X02992113Y02477873D01*
X02992642Y02477612D01*
X02993201Y02477422D01*
X02993618Y02477339D01*
Y02481028D01*
D02*
G37*
G36*
X02886868Y02483467D02*
X02886451Y02483384D01*
X02885892Y02483194D01*
X02885363Y02482934D01*
X02884873Y02482606D01*
X02884429Y02482217D01*
X02884040Y02481773D01*
X02883712Y02481283D01*
X02883452Y02480754D01*
X02883262Y02480195D01*
X02883179Y02479778D01*
X02886868D01*
Y02483467D01*
D02*
G37*
G36*
X02870868Y02484528D02*
X02867179D01*
X02867262Y02484111D01*
X02867451Y02483552D01*
X02867713Y02483023D01*
X02868040Y02482533D01*
X02868429Y02482089D01*
X02868873Y02481700D01*
X02869363Y02481373D01*
X02869892Y02481112D01*
X02870451Y02480922D01*
X02870868Y02480839D01*
Y02484528D01*
D02*
G37*
G36*
X02888368Y02483467D02*
Y02479778D01*
X02892057D01*
X02891974Y02480195D01*
X02891784Y02480754D01*
X02891523Y02481283D01*
X02891196Y02481773D01*
X02890807Y02482217D01*
X02890363Y02482606D01*
X02889873Y02482934D01*
X02889344Y02483194D01*
X02888785Y02483384D01*
X02888368Y02483467D01*
D02*
G37*
G36*
X03016118Y02473467D02*
X03015701Y02473384D01*
X03015142Y02473194D01*
X03014613Y02472934D01*
X03014123Y02472606D01*
X03013679Y02472217D01*
X03013290Y02471773D01*
X03012963Y02471283D01*
X03012702Y02470754D01*
X03012512Y02470195D01*
X03012429Y02469778D01*
X03016118D01*
Y02473467D01*
D02*
G37*
G36*
X02920618Y02472967D02*
Y02469278D01*
X02924307D01*
X02924224Y02469695D01*
X02924034Y02470254D01*
X02923773Y02470783D01*
X02923446Y02471273D01*
X02923057Y02471717D01*
X02922613Y02472106D01*
X02922123Y02472433D01*
X02921594Y02472694D01*
X02921035Y02472884D01*
X02920618Y02472967D01*
D02*
G37*
G36*
X03017618Y02473467D02*
Y02469778D01*
X03021307D01*
X03021224Y02470195D01*
X03021034Y02470754D01*
X03020773Y02471283D01*
X03020446Y02471773D01*
X03020057Y02472217D01*
X03019613Y02472606D01*
X03019123Y02472934D01*
X03018594Y02473194D01*
X03018035Y02473384D01*
X03017618Y02473467D01*
D02*
G37*
G36*
X02892057Y02478278D02*
X02888368D01*
Y02474589D01*
X02888785Y02474672D01*
X02889344Y02474862D01*
X02889873Y02475123D01*
X02890363Y02475450D01*
X02890807Y02475839D01*
X02891196Y02476283D01*
X02891523Y02476773D01*
X02891784Y02477302D01*
X02891974Y02477861D01*
X02892057Y02478278D01*
D02*
G37*
G36*
X02886868D02*
X02883179D01*
X02883262Y02477861D01*
X02883452Y02477302D01*
X02883712Y02476773D01*
X02884040Y02476283D01*
X02884429Y02475839D01*
X02884873Y02475450D01*
X02885363Y02475123D01*
X02885892Y02474862D01*
X02886451Y02474672D01*
X02886868Y02474589D01*
Y02478278D01*
D02*
G37*
G36*
X02982118Y02506467D02*
X02981701Y02506384D01*
X02981142Y02506194D01*
X02980613Y02505934D01*
X02980123Y02505606D01*
X02979679Y02505217D01*
X02979290Y02504773D01*
X02978962Y02504283D01*
X02978701Y02503754D01*
X02978512Y02503195D01*
X02978429Y02502778D01*
X02982118D01*
Y02506467D01*
D02*
G37*
G36*
X03012118Y02567467D02*
Y02563778D01*
X03015807D01*
X03015724Y02564195D01*
X03015534Y02564754D01*
X03015273Y02565283D01*
X03014946Y02565773D01*
X03014557Y02566217D01*
X03014113Y02566606D01*
X03013623Y02566933D01*
X03013094Y02567195D01*
X03012535Y02567384D01*
X03012118Y02567467D01*
D02*
G37*
G36*
X03010618D02*
X03010201Y02567384D01*
X03009642Y02567195D01*
X03009113Y02566933D01*
X03008623Y02566606D01*
X03008179Y02566217D01*
X03007790Y02565773D01*
X03007462Y02565283D01*
X03007202Y02564754D01*
X03007012Y02564195D01*
X03006929Y02563778D01*
X03010618D01*
Y02567467D01*
D02*
G37*
G36*
X03035118Y02571528D02*
X03031429D01*
X03031512Y02571111D01*
X03031702Y02570552D01*
X03031963Y02570023D01*
X03032290Y02569533D01*
X03032679Y02569089D01*
X03033123Y02568700D01*
X03033613Y02568372D01*
X03034142Y02568112D01*
X03034701Y02567922D01*
X03035118Y02567839D01*
Y02571528D01*
D02*
G37*
G36*
X02966618Y02576028D02*
X02962929D01*
X02963012Y02575611D01*
X02963202Y02575052D01*
X02963463Y02574523D01*
X02963790Y02574033D01*
X02964179Y02573589D01*
X02964623Y02573200D01*
X02965113Y02572873D01*
X02965642Y02572612D01*
X02966201Y02572422D01*
X02966618Y02572339D01*
Y02576028D01*
D02*
G37*
G36*
X03040307Y02571528D02*
X03036618D01*
Y02567839D01*
X03037035Y02567922D01*
X03037594Y02568112D01*
X03038123Y02568372D01*
X03038613Y02568700D01*
X03039057Y02569089D01*
X03039446Y02569533D01*
X03039773Y02570023D01*
X03040034Y02570552D01*
X03040224Y02571111D01*
X03040307Y02571528D01*
D02*
G37*
G36*
X02918118Y02556717D02*
Y02553028D01*
X02921807D01*
X02921724Y02553445D01*
X02921534Y02554004D01*
X02921273Y02554533D01*
X02920946Y02555023D01*
X02920557Y02555467D01*
X02920113Y02555856D01*
X02919623Y02556183D01*
X02919094Y02556444D01*
X02918535Y02556634D01*
X02918118Y02556717D01*
D02*
G37*
G36*
X02916618D02*
X02916201Y02556634D01*
X02915642Y02556444D01*
X02915113Y02556183D01*
X02914623Y02555856D01*
X02914179Y02555467D01*
X02913790Y02555023D01*
X02913463Y02554533D01*
X02913202Y02554004D01*
X02913012Y02553445D01*
X02912929Y02553028D01*
X02916618D01*
Y02556717D01*
D02*
G37*
G36*
X02856868Y02565288D02*
X02856279Y02565249D01*
X02855701Y02565134D01*
X02855142Y02564944D01*
X02854613Y02564684D01*
X02854123Y02564356D01*
X02853679Y02563967D01*
X02853290Y02563523D01*
X02852963Y02563033D01*
X02852702Y02562504D01*
X02852512Y02561945D01*
X02852397Y02561367D01*
X02852358Y02560778D01*
X02852397Y02560190D01*
X02852512Y02559611D01*
X02852702Y02559052D01*
X02852963Y02558523D01*
X02853290Y02558033D01*
X02853679Y02557589D01*
X02854123Y02557200D01*
X02854613Y02556873D01*
X02855142Y02556612D01*
X02855701Y02556422D01*
X02856279Y02556307D01*
X02856868Y02556268D01*
X02857457Y02556307D01*
X02858035Y02556422D01*
X02858594Y02556612D01*
X02859123Y02556873D01*
X02859613Y02557200D01*
X02860057Y02557589D01*
X02860446Y02558033D01*
X02860774Y02558523D01*
X02861035Y02559052D01*
X02861224Y02559611D01*
X02861339Y02560190D01*
X02861378Y02560778D01*
X02861339Y02561367D01*
X02861224Y02561945D01*
X02861035Y02562504D01*
X02860774Y02563033D01*
X02860446Y02563523D01*
X02860057Y02563967D01*
X02859613Y02564356D01*
X02859123Y02564684D01*
X02858594Y02564944D01*
X02858035Y02565134D01*
X02857457Y02565249D01*
X02856868Y02565288D01*
D02*
G37*
G36*
X03015807Y02562278D02*
X03012118D01*
Y02558589D01*
X03012535Y02558672D01*
X03013094Y02558862D01*
X03013623Y02559122D01*
X03014113Y02559450D01*
X03014557Y02559839D01*
X03014946Y02560283D01*
X03015273Y02560773D01*
X03015534Y02561302D01*
X03015724Y02561861D01*
X03015807Y02562278D01*
D02*
G37*
G36*
X03010618D02*
X03006929D01*
X03007012Y02561861D01*
X03007202Y02561302D01*
X03007462Y02560773D01*
X03007790Y02560283D01*
X03008179Y02559839D01*
X03008623Y02559450D01*
X03009113Y02559122D01*
X03009642Y02558862D01*
X03010201Y02558672D01*
X03010618Y02558589D01*
Y02562278D01*
D02*
G37*
G36*
X02971807Y02576028D02*
X02968118D01*
Y02572339D01*
X02968535Y02572422D01*
X02969094Y02572612D01*
X02969623Y02572873D01*
X02970113Y02573200D01*
X02970557Y02573589D01*
X02970946Y02574033D01*
X02971273Y02574523D01*
X02971534Y02575052D01*
X02971724Y02575611D01*
X02971807Y02576028D01*
D02*
G37*
G36*
X02909618Y02615528D02*
X02905929D01*
X02906012Y02615111D01*
X02906201Y02614552D01*
X02906462Y02614023D01*
X02906790Y02613533D01*
X02907179Y02613089D01*
X02907623Y02612700D01*
X02908113Y02612373D01*
X02908642Y02612112D01*
X02909201Y02611922D01*
X02909618Y02611839D01*
Y02615528D01*
D02*
G37*
G36*
X02885865Y02591965D02*
Y02588276D01*
X02889554D01*
X02889471Y02588693D01*
X02889281Y02589251D01*
X02889020Y02589781D01*
X02888693Y02590271D01*
X02888304Y02590714D01*
X02887860Y02591104D01*
X02887370Y02591431D01*
X02886841Y02591692D01*
X02886282Y02591882D01*
X02885865Y02591965D01*
D02*
G37*
G36*
X02914807Y02615528D02*
X02911118D01*
Y02611839D01*
X02911535Y02611922D01*
X02912094Y02612112D01*
X02912623Y02612373D01*
X02913113Y02612700D01*
X02913557Y02613089D01*
X02913946Y02613533D01*
X02914273Y02614023D01*
X02914534Y02614552D01*
X02914724Y02615111D01*
X02914807Y02615528D01*
D02*
G37*
G36*
X02911118Y02620717D02*
Y02617028D01*
X02914807D01*
X02914724Y02617445D01*
X02914534Y02618004D01*
X02914273Y02618533D01*
X02913946Y02619023D01*
X02913557Y02619467D01*
X02913113Y02619856D01*
X02912623Y02620183D01*
X02912094Y02620444D01*
X02911535Y02620634D01*
X02911118Y02620717D01*
D02*
G37*
G36*
X02909618D02*
X02909201Y02620634D01*
X02908642Y02620444D01*
X02908113Y02620183D01*
X02907623Y02619856D01*
X02907179Y02619467D01*
X02906790Y02619023D01*
X02906462Y02618533D01*
X02906201Y02618004D01*
X02906012Y02617445D01*
X02905929Y02617028D01*
X02909618D01*
Y02620717D01*
D02*
G37*
G36*
X03036618Y02576717D02*
Y02573028D01*
X03040307D01*
X03040224Y02573445D01*
X03040034Y02574004D01*
X03039773Y02574533D01*
X03039446Y02575023D01*
X03039057Y02575467D01*
X03038613Y02575856D01*
X03038123Y02576183D01*
X03037594Y02576444D01*
X03037035Y02576634D01*
X03036618Y02576717D01*
D02*
G37*
G36*
X03035118D02*
X03034701Y02576634D01*
X03034142Y02576444D01*
X03033613Y02576183D01*
X03033123Y02575856D01*
X03032679Y02575467D01*
X03032290Y02575023D01*
X03031963Y02574533D01*
X03031702Y02574004D01*
X03031512Y02573445D01*
X03031429Y02573028D01*
X03035118D01*
Y02576717D01*
D02*
G37*
G36*
X02884365Y02586776D02*
X02880676D01*
X02880759Y02586359D01*
X02880949Y02585800D01*
X02881210Y02585271D01*
X02881537Y02584780D01*
X02881926Y02584337D01*
X02882370Y02583948D01*
X02882860Y02583620D01*
X02883389Y02583359D01*
X02883948Y02583170D01*
X02884365Y02583087D01*
Y02586776D01*
D02*
G37*
G36*
Y02591965D02*
X02883948Y02591882D01*
X02883389Y02591692D01*
X02882860Y02591431D01*
X02882370Y02591104D01*
X02881926Y02590714D01*
X02881537Y02590271D01*
X02881210Y02589781D01*
X02880949Y02589251D01*
X02880759Y02588693D01*
X02880676Y02588276D01*
X02884365D01*
Y02591965D01*
D02*
G37*
G36*
X02889554Y02586776D02*
X02885865D01*
Y02583087D01*
X02886282Y02583170D01*
X02886841Y02583359D01*
X02887370Y02583620D01*
X02887860Y02583948D01*
X02888304Y02584337D01*
X02888693Y02584780D01*
X02889020Y02585271D01*
X02889281Y02585800D01*
X02889471Y02586359D01*
X02889554Y02586776D01*
D02*
G37*
G36*
X02916618Y02526528D02*
X02912929D01*
X02913012Y02526111D01*
X02913202Y02525552D01*
X02913463Y02525023D01*
X02913790Y02524533D01*
X02914179Y02524089D01*
X02914623Y02523700D01*
X02915113Y02523373D01*
X02915642Y02523112D01*
X02916201Y02522922D01*
X02916618Y02522839D01*
Y02526528D01*
D02*
G37*
G36*
X03022368Y02531038D02*
X03021779Y02530999D01*
X03021201Y02530884D01*
X03020642Y02530694D01*
X03020113Y02530434D01*
X03019623Y02530106D01*
X03019179Y02529717D01*
X03018790Y02529273D01*
X03018463Y02528783D01*
X03018202Y02528254D01*
X03018012Y02527695D01*
X03017897Y02527117D01*
X03017858Y02526528D01*
X03017897Y02525939D01*
X03018012Y02525361D01*
X03018202Y02524802D01*
X03018463Y02524273D01*
X03018790Y02523783D01*
X03019179Y02523339D01*
X03019623Y02522950D01*
X03020113Y02522623D01*
X03020642Y02522362D01*
X03021201Y02522172D01*
X03021779Y02522057D01*
X03022368Y02522018D01*
X03022957Y02522057D01*
X03023535Y02522172D01*
X03024094Y02522362D01*
X03024623Y02522623D01*
X03025113Y02522950D01*
X03025557Y02523339D01*
X03025946Y02523783D01*
X03026273Y02524273D01*
X03026534Y02524802D01*
X03026724Y02525361D01*
X03026839Y02525939D01*
X03026878Y02526528D01*
X03026839Y02527117D01*
X03026724Y02527695D01*
X03026534Y02528254D01*
X03026273Y02528783D01*
X03025946Y02529273D01*
X03025557Y02529717D01*
X03025113Y02530106D01*
X03024623Y02530434D01*
X03024094Y02530694D01*
X03023535Y02530884D01*
X03022957Y02530999D01*
X03022368Y02531038D01*
D02*
G37*
G36*
X02921807Y02526528D02*
X02918118D01*
Y02522839D01*
X02918535Y02522922D01*
X02919094Y02523112D01*
X02919623Y02523373D01*
X02920113Y02523700D01*
X02920557Y02524089D01*
X02920946Y02524533D01*
X02921273Y02525023D01*
X02921534Y02525552D01*
X02921724Y02526111D01*
X02921807Y02526528D01*
D02*
G37*
G36*
X02918118Y02531717D02*
Y02528028D01*
X02921807D01*
X02921724Y02528445D01*
X02921534Y02529004D01*
X02921273Y02529533D01*
X02920946Y02530023D01*
X02920557Y02530467D01*
X02920113Y02530856D01*
X02919623Y02531183D01*
X02919094Y02531444D01*
X02918535Y02531634D01*
X02918118Y02531717D01*
D02*
G37*
G36*
X02916618D02*
X02916201Y02531634D01*
X02915642Y02531444D01*
X02915113Y02531183D01*
X02914623Y02530856D01*
X02914179Y02530467D01*
X02913790Y02530023D01*
X02913463Y02529533D01*
X02913202Y02529004D01*
X02913012Y02528445D01*
X02912929Y02528028D01*
X02916618D01*
Y02531717D01*
D02*
G37*
G36*
X03041368Y02510467D02*
X03040951Y02510384D01*
X03040392Y02510194D01*
X03039863Y02509933D01*
X03039373Y02509606D01*
X03038929Y02509217D01*
X03038540Y02508773D01*
X03038213Y02508283D01*
X03037952Y02507754D01*
X03037762Y02507195D01*
X03037679Y02506778D01*
X03041368D01*
Y02510467D01*
D02*
G37*
G36*
X02983618Y02506467D02*
Y02502778D01*
X02987307D01*
X02987224Y02503195D01*
X02987034Y02503754D01*
X02986773Y02504283D01*
X02986446Y02504773D01*
X02986057Y02505217D01*
X02985613Y02505606D01*
X02985123Y02505934D01*
X02984594Y02506194D01*
X02984035Y02506384D01*
X02983618Y02506467D01*
D02*
G37*
G36*
X03042868Y02510467D02*
Y02506778D01*
X03046557D01*
X03046474Y02507195D01*
X03046284Y02507754D01*
X03046023Y02508283D01*
X03045696Y02508773D01*
X03045307Y02509217D01*
X03044863Y02509606D01*
X03044373Y02509933D01*
X03043844Y02510194D01*
X03043285Y02510384D01*
X03042868Y02510467D01*
D02*
G37*
G36*
X02992368Y02530538D02*
X02991779Y02530499D01*
X02991201Y02530384D01*
X02990642Y02530194D01*
X02990113Y02529933D01*
X02989623Y02529606D01*
X02989179Y02529217D01*
X02988790Y02528773D01*
X02988463Y02528283D01*
X02988202Y02527754D01*
X02988012Y02527195D01*
X02987897Y02526617D01*
X02987858Y02526028D01*
X02987897Y02525439D01*
X02988011Y02524863D01*
X02967433Y02504285D01*
X02965272D01*
X02964946Y02504773D01*
X02964557Y02505217D01*
X02964113Y02505606D01*
X02963623Y02505934D01*
X02963094Y02506194D01*
X02962535Y02506384D01*
X02961956Y02506499D01*
X02961368Y02506538D01*
X02960779Y02506499D01*
X02960201Y02506384D01*
X02959642Y02506194D01*
X02959113Y02505934D01*
X02958623Y02505606D01*
X02958179Y02505217D01*
X02957790Y02504773D01*
X02957462Y02504283D01*
X02957202Y02503754D01*
X02957012Y02503195D01*
X02956897Y02502617D01*
X02956858Y02502028D01*
X02956897Y02501439D01*
X02957012Y02500861D01*
X02957202Y02500302D01*
X02957462Y02499773D01*
X02957790Y02499283D01*
X02958179Y02498839D01*
X02958623Y02498450D01*
X02959113Y02498123D01*
X02959642Y02497862D01*
X02960201Y02497672D01*
X02960779Y02497557D01*
X02961368Y02497518D01*
X02961956Y02497557D01*
X02962535Y02497672D01*
X02963094Y02497862D01*
X02963623Y02498123D01*
X02964113Y02498450D01*
X02964557Y02498839D01*
X02964946Y02499283D01*
X02965272Y02499771D01*
X02968368D01*
X02968721Y02499799D01*
X02969066Y02499881D01*
X02969393Y02500017D01*
X02969695Y02500202D01*
X02969964Y02500432D01*
X02991203Y02521671D01*
X02991779Y02521557D01*
X02992368Y02521518D01*
X02992957Y02521557D01*
X02993535Y02521672D01*
X02994094Y02521862D01*
X02994623Y02522123D01*
X02995113Y02522450D01*
X02995557Y02522839D01*
X02995946Y02523283D01*
X02996273Y02523773D01*
X02996534Y02524302D01*
X02996724Y02524861D01*
X02996839Y02525439D01*
X02996878Y02526028D01*
X02996839Y02526617D01*
X02996724Y02527195D01*
X02996534Y02527754D01*
X02996273Y02528283D01*
X02995946Y02528773D01*
X02995557Y02529217D01*
X02995113Y02529606D01*
X02994623Y02529933D01*
X02994094Y02530194D01*
X02993535Y02530384D01*
X02992957Y02530499D01*
X02992368Y02530538D01*
D02*
G37*
G36*
X02961368Y02518538D02*
X02960779Y02518499D01*
X02960201Y02518384D01*
X02959642Y02518194D01*
X02959113Y02517934D01*
X02958623Y02517606D01*
X02958179Y02517217D01*
X02957790Y02516773D01*
X02957462Y02516283D01*
X02957202Y02515754D01*
X02957012Y02515195D01*
X02956897Y02514617D01*
X02956858Y02514028D01*
X02956897Y02513439D01*
X02957012Y02512861D01*
X02957202Y02512302D01*
X02957462Y02511773D01*
X02957790Y02511283D01*
X02958179Y02510839D01*
X02958623Y02510450D01*
X02959113Y02510123D01*
X02959642Y02509862D01*
X02960201Y02509672D01*
X02960779Y02509557D01*
X02961368Y02509518D01*
X02961956Y02509557D01*
X02962535Y02509672D01*
X02963094Y02509862D01*
X02963623Y02510123D01*
X02964113Y02510450D01*
X02964557Y02510839D01*
X02964946Y02511283D01*
X02965273Y02511773D01*
X02965534Y02512302D01*
X02965724Y02512861D01*
X02965839Y02513439D01*
X02965878Y02514028D01*
X02965839Y02514617D01*
X02965724Y02515195D01*
X02965534Y02515754D01*
X02965273Y02516283D01*
X02964946Y02516773D01*
X02964557Y02517217D01*
X02964113Y02517606D01*
X02963623Y02517934D01*
X02963094Y02518194D01*
X02962535Y02518384D01*
X02961956Y02518499D01*
X02961368Y02518538D01*
D02*
G37*
G36*
X02978618Y02530788D02*
X02978029Y02530749D01*
X02977451Y02530634D01*
X02976892Y02530444D01*
X02976363Y02530184D01*
X02975873Y02529856D01*
X02975429Y02529467D01*
X02975040Y02529023D01*
X02974714Y02528535D01*
X02958118D01*
X02958118Y02528535D01*
X02957765Y02528507D01*
X02957421Y02528425D01*
X02957093Y02528289D01*
X02956791Y02528104D01*
X02956522Y02527874D01*
X02956522Y02527874D01*
X02932283Y02503634D01*
X02931707Y02503749D01*
X02931118Y02503788D01*
X02930529Y02503749D01*
X02929951Y02503634D01*
X02929392Y02503444D01*
X02928863Y02503183D01*
X02928373Y02502856D01*
X02927929Y02502467D01*
X02927540Y02502023D01*
X02927213Y02501533D01*
X02926952Y02501004D01*
X02926762Y02500445D01*
X02926647Y02499867D01*
X02926608Y02499278D01*
X02926647Y02498689D01*
X02926762Y02498111D01*
X02926952Y02497552D01*
X02927213Y02497023D01*
X02927540Y02496533D01*
X02927929Y02496089D01*
X02928373Y02495700D01*
X02928863Y02495373D01*
X02929392Y02495112D01*
X02929951Y02494922D01*
X02930529Y02494807D01*
X02931118Y02494768D01*
X02931707Y02494807D01*
X02932285Y02494922D01*
X02932844Y02495112D01*
X02933373Y02495373D01*
X02933863Y02495700D01*
X02934307Y02496089D01*
X02934696Y02496533D01*
X02935023Y02497023D01*
X02935284Y02497552D01*
X02935474Y02498111D01*
X02935589Y02498689D01*
X02935628Y02499278D01*
X02935589Y02499867D01*
X02935475Y02500443D01*
X02959053Y02524021D01*
X02974714D01*
X02975040Y02523533D01*
X02975429Y02523089D01*
X02975873Y02522700D01*
X02976363Y02522373D01*
X02976892Y02522112D01*
X02977451Y02521922D01*
X02978029Y02521807D01*
X02978618Y02521768D01*
X02979207Y02521807D01*
X02979785Y02521922D01*
X02980344Y02522112D01*
X02980873Y02522373D01*
X02981363Y02522700D01*
X02981807Y02523089D01*
X02982196Y02523533D01*
X02982523Y02524023D01*
X02982784Y02524552D01*
X02982974Y02525111D01*
X02983089Y02525689D01*
X02983128Y02526278D01*
X02983089Y02526867D01*
X02982974Y02527445D01*
X02982784Y02528004D01*
X02982523Y02528533D01*
X02982196Y02529023D01*
X02981807Y02529467D01*
X02981363Y02529856D01*
X02980873Y02530184D01*
X02980344Y02530444D01*
X02979785Y02530634D01*
X02979207Y02530749D01*
X02978618Y02530788D01*
D02*
G37*
G36*
X03001118Y02550467D02*
Y02546778D01*
X03004807D01*
X03004724Y02547195D01*
X03004534Y02547754D01*
X03004273Y02548283D01*
X03003946Y02548773D01*
X03003557Y02549217D01*
X03003113Y02549606D01*
X03002623Y02549933D01*
X03002094Y02550194D01*
X03001535Y02550384D01*
X03001118Y02550467D01*
D02*
G37*
G36*
X02999618D02*
X02999201Y02550384D01*
X02998642Y02550194D01*
X02998113Y02549933D01*
X02997623Y02549606D01*
X02997179Y02549217D01*
X02996790Y02548773D01*
X02996462Y02548283D01*
X02996201Y02547754D01*
X02996012Y02547195D01*
X02995929Y02546778D01*
X02999618D01*
Y02550467D01*
D02*
G37*
G36*
X02916618Y02551528D02*
X02912929D01*
X02913012Y02551111D01*
X02913202Y02550552D01*
X02913463Y02550023D01*
X02913790Y02549533D01*
X02914179Y02549089D01*
X02914623Y02548700D01*
X02915113Y02548372D01*
X02915642Y02548112D01*
X02916201Y02547922D01*
X02916618Y02547839D01*
Y02551528D01*
D02*
G37*
G36*
X02976368Y02560538D02*
X02975779Y02560499D01*
X02975201Y02560384D01*
X02974642Y02560194D01*
X02974113Y02559933D01*
X02973623Y02559606D01*
X02973179Y02559217D01*
X02972790Y02558773D01*
X02972462Y02558283D01*
X02972202Y02557754D01*
X02972012Y02557195D01*
X02971897Y02556617D01*
X02971858Y02556028D01*
X02971897Y02555439D01*
X02972012Y02554861D01*
X02972202Y02554302D01*
X02972462Y02553773D01*
X02972790Y02553283D01*
X02973179Y02552839D01*
X02973391Y02552653D01*
Y02551153D01*
X02973179Y02550967D01*
X02972790Y02550523D01*
X02972462Y02550033D01*
X02972202Y02549504D01*
X02972012Y02548945D01*
X02971929Y02548528D01*
X02980807D01*
X02980724Y02548945D01*
X02980534Y02549504D01*
X02980273Y02550033D01*
X02979946Y02550523D01*
X02979557Y02550967D01*
X02979344Y02551153D01*
Y02552653D01*
X02979557Y02552839D01*
X02979946Y02553283D01*
X02980273Y02553773D01*
X02980534Y02554302D01*
X02980724Y02554861D01*
X02980839Y02555439D01*
X02980878Y02556028D01*
X02980839Y02556617D01*
X02980724Y02557195D01*
X02980534Y02557754D01*
X02980273Y02558283D01*
X02979946Y02558773D01*
X02979557Y02559217D01*
X02979113Y02559606D01*
X02978623Y02559933D01*
X02978094Y02560194D01*
X02977535Y02560384D01*
X02976956Y02560499D01*
X02976368Y02560538D01*
D02*
G37*
G36*
X02921807Y02551528D02*
X02918118D01*
Y02547839D01*
X02918535Y02547922D01*
X02919094Y02548112D01*
X02919623Y02548372D01*
X02920113Y02548700D01*
X02920557Y02549089D01*
X02920946Y02549533D01*
X02921273Y02550023D01*
X02921534Y02550552D01*
X02921724Y02551111D01*
X02921807Y02551528D01*
D02*
G37*
G36*
X03004807Y02545278D02*
X03001118D01*
Y02541589D01*
X03001535Y02541672D01*
X03002094Y02541862D01*
X03002623Y02542123D01*
X03003113Y02542450D01*
X03003557Y02542839D01*
X03003946Y02543283D01*
X03004273Y02543773D01*
X03004534Y02544302D01*
X03004724Y02544861D01*
X03004807Y02545278D01*
D02*
G37*
G36*
X02999618D02*
X02995929D01*
X02996012Y02544861D01*
X02996201Y02544302D01*
X02996462Y02543773D01*
X02996790Y02543283D01*
X02997179Y02542839D01*
X02997623Y02542450D01*
X02998113Y02542123D01*
X02998642Y02541862D01*
X02999201Y02541672D01*
X02999618Y02541589D01*
Y02545278D01*
D02*
G37*
G36*
X02975618Y02547028D02*
X02971929D01*
X02972012Y02546611D01*
X02972202Y02546052D01*
X02972462Y02545523D01*
X02972790Y02545033D01*
X02973179Y02544589D01*
X02973623Y02544200D01*
X02974113Y02543873D01*
X02974642Y02543612D01*
X02975201Y02543422D01*
X02975618Y02543339D01*
Y02547028D01*
D02*
G37*
G36*
X02853518Y02550578D02*
X02848268D01*
Y02545328D01*
X02853518D01*
Y02550578D01*
D02*
G37*
G36*
X02980807Y02547028D02*
X02977118D01*
Y02543339D01*
X02977535Y02543422D01*
X02978094Y02543612D01*
X02978623Y02543873D01*
X02979113Y02544200D01*
X02979557Y02544589D01*
X02979946Y02545033D01*
X02980273Y02545523D01*
X02980534Y02546052D01*
X02980724Y02546611D01*
X02980807Y02547028D01*
D02*
G37*
%LPD*%
D26*
X02921368Y02487778D02*
X02949868D01*
X02918368Y02490778D02*
Y02499278D01*
Y02490778D02*
X02921368Y02487778D01*
X02960868Y02502028D02*
X02961118Y02501778D01*
X02961368Y02502028D02*
X02968368D01*
X02992368Y02526028D01*
X02944868Y02536528D02*
X02997371D01*
X02931118Y02499278D02*
X02931368Y02499778D01*
X02997371Y02536528D02*
X03007371Y02526528D01*
X02910368Y02591278D02*
X02942368D01*
X02931118Y02499278D02*
X02958118Y02526278D01*
X02978618D01*
X02854268Y02531878D02*
Y02532396D01*
X02866968Y02506478D02*
X02873868Y02513378D01*
Y02529778D02*
X02879118Y02535028D01*
X02873868Y02513378D02*
Y02529778D01*
X02882118Y02570528D02*
X02890868Y02561778D01*
Y02515278D02*
Y02561778D01*
X02887368Y02511778D02*
X02890868Y02515278D01*
X02879118Y02511778D02*
X02887368D01*
X02866968Y02531878D02*
X02875368Y02540278D01*
Y02573028D01*
X02879618Y02577278D01*
X02904118D01*
X02944868Y02536528D01*
D30*
X02939718Y02428778D02*
D03*
X02956518D02*
D03*
X02866968Y02506478D02*
D03*
X02854268Y02531878D02*
D03*
X02854268Y02519178D02*
D03*
X02854268Y02506478D02*
D03*
X02866968Y02544578D02*
D03*
X02866968Y02531878D02*
D03*
X02866968Y02519178D02*
D03*
X02854268Y02493778D02*
D03*
D31*
X03000368Y02546028D02*
D03*
X02899118Y02489028D02*
D03*
X03011368Y02563028D02*
D03*
X02982868Y02502028D02*
D03*
X03008118Y02490528D02*
D03*
X02994618Y02470028D02*
D03*
X02994368Y02481778D02*
D03*
X02927868Y02428778D02*
D03*
X03007371Y02526528D02*
D03*
X02961368Y02514028D02*
D03*
X02992368Y02526028D02*
D03*
X02961368Y02502028D02*
D03*
X02978618Y02526278D02*
D03*
X02960369Y02490026D02*
D03*
X02949868Y02487778D02*
D03*
X02910368Y02616278D02*
D03*
X03035868Y02572278D02*
D03*
X03016868Y02469028D02*
D03*
X02917618Y02452028D02*
D03*
X03022368Y02526528D02*
D03*
X02917368Y02527278D02*
D03*
X02976368Y02556028D02*
D03*
X02963118Y02465278D02*
D03*
X02976368Y02547778D02*
D03*
X02967368Y02576778D02*
D03*
X02936868Y02472278D02*
D03*
X02931118Y02499278D02*
D03*
X02918368D02*
D03*
X03008118Y02505528D02*
D03*
X02884118Y02489028D02*
D03*
X02910368Y02591278D02*
D03*
X02942368D02*
D03*
X02879118Y02535028D02*
D03*
X02919868Y02468528D02*
D03*
X02887618Y02479028D02*
D03*
X02871618Y02485278D02*
D03*
X02902618Y02452028D02*
D03*
X02917368Y02552278D02*
D03*
X03042118Y02506028D02*
D03*
X02885115Y02587526D02*
D03*
X02879118Y02527278D02*
D03*
Y02511778D02*
D03*
Y02519528D02*
D03*
X02882118Y02570528D02*
D03*
X02856868Y02560778D02*
D03*
D32*
X03015128Y02449288D02*
D03*
X03024108Y02458268D02*
D03*
X02969218Y02428778D02*
D03*
D33*
X02854268Y02544578D02*
D03*
M02*
