%FSAX44Y44*%
%MOMM*%
G71*
G01*
G75*
G04 Layer_Color=32896*
%ADD10R,0.5000X0.6000*%
%ADD11R,0.6000X0.5000*%
%ADD12R,0.7000X0.9000*%
%ADD13R,0.3000X0.6000*%
%ADD14R,1.5500X1.5500*%
%ADD15R,0.6500X0.2000*%
%ADD16R,0.2000X0.6500*%
%ADD17R,0.9000X0.7000*%
%ADD18O,0.8000X0.2000*%
%ADD19O,0.2000X0.8000*%
%ADD20R,4.6000X4.6000*%
%ADD21R,1.0000X2.0000*%
%ADD22R,0.7112X0.2286*%
%ADD23R,1.1500X1.4000*%
%ADD24R,0.4500X0.3500*%
%ADD25R,0.3500X0.4500*%
%ADD26C,0.1500*%
%ADD27C,0.3000*%
%ADD28C,0.5000*%
%ADD29C,0.2000*%
%ADD30C,0.9000*%
%ADD31C,0.6000*%
%ADD32C,0.8000*%
%ADD33R,0.9000X0.9000*%
%ADD34C,0.2500*%
%ADD35C,0.1250*%
%ADD36R,0.6500X0.7500*%
%ADD37R,0.7500X0.6500*%
%ADD38R,0.8500X1.0500*%
%ADD39R,0.4500X0.7500*%
%ADD40R,1.7000X1.7000*%
%ADD41R,0.8000X0.3500*%
%ADD42R,0.3500X0.8000*%
%ADD43R,1.0500X0.8500*%
%ADD44O,0.9500X0.3500*%
%ADD45O,0.3500X0.9500*%
%ADD46R,4.7500X4.7500*%
%ADD47R,1.1500X2.1500*%
%ADD48R,0.9144X0.4318*%
%ADD49R,1.3000X1.5500*%
%ADD50R,0.6000X0.5000*%
%ADD51R,0.5000X0.6000*%
%ADD52C,1.0500*%
%ADD53C,0.7500*%
%ADD54C,0.9500*%
%ADD55R,1.0500X1.0500*%
D29*
X02933368Y02435128D02*
X02946068D01*
X02933368Y02422428D02*
Y02435128D01*
Y02422428D02*
X02946068D01*
X02946068Y02435128D02*
X02946068Y02422428D01*
X03006147Y02449288D02*
X03024108Y02467248D01*
X03006147Y02449288D02*
X03015128Y02440308D01*
X03033088Y02458268D01*
X03024108Y02467248D02*
X03033088Y02458268D01*
X02950168Y02435128D02*
X02975568D01*
X02950168Y02422428D02*
Y02435128D01*
Y02422428D02*
X02975568Y02422428D01*
X02975568Y02435128D02*
X02975568Y02422428D01*
X02846648Y02552198D02*
X02874588D01*
X02874588Y02486158D01*
X02846648Y02486158D02*
X02874588Y02486158D01*
X02846648Y02486158D02*
Y02552198D01*
D35*
X02885868Y02498528D02*
Y02504526D01*
X02882869D01*
X02881869Y02503526D01*
Y02501527D01*
X02882869Y02500527D01*
X02885868D01*
X02879870Y02498528D02*
X02877870D01*
X02878870D01*
Y02504526D01*
X02879870Y02503526D01*
X02945892Y02442464D02*
Y02448462D01*
X02942893D01*
X02941893Y02447462D01*
Y02445463D01*
X02942893Y02444463D01*
X02945892D01*
X02936895Y02442464D02*
Y02448462D01*
X02939894Y02445463D01*
X02935895D01*
X03037868Y02470278D02*
Y02476276D01*
X03034869D01*
X03033869Y02475276D01*
Y02473277D01*
X03034869Y02472277D01*
X03037868D01*
X03027871Y02470278D02*
X03031870D01*
X03027871Y02474277D01*
Y02475276D01*
X03028871Y02476276D01*
X03030870D01*
X03031870Y02475276D01*
X02973618Y02438778D02*
Y02444776D01*
X02970619D01*
X02969619Y02443776D01*
Y02441777D01*
X02970619Y02440777D01*
X02973618D01*
X02967620Y02443776D02*
X02966620Y02444776D01*
X02964621D01*
X02963621Y02443776D01*
Y02442777D01*
X02964621Y02441777D01*
X02965621D01*
X02964621D01*
X02963621Y02440777D01*
Y02439778D01*
X02964621Y02438778D01*
X02966620D01*
X02967620Y02439778D01*
M02*
