M48
;Layer_Color=9474304
;FILE_FORMAT=4:4
METRIC
;TYPE=PLATED
T1F00S00C0.3000
T2F00S00C0.5000
%
T01
X02902618Y02452028
X02917618
X02919868Y02468528
X02936868Y02472278
X02949868Y02487778
X02960369Y02490026
X02961368Y02502028
Y02514028
X02978618Y02526278
X02992368Y02526028
X03007371Y02526528
X03022368Y02526528
X03008118Y02505528
Y02490528
X02994368Y02481778
X02994618Y02470028
X03016868Y02469028
X02963118Y02465278
X02982868Y02502028
X02976368Y02547778
Y02556028
X02967368Y02576778
X02942368Y02591278
X02910368
Y02616278
X02885115Y02587526
X02882118Y02570528
X02856868Y02560778
X02879118Y02535028
Y02527278
Y02519528
Y02511778
X02884118Y02489028
X02887618Y02479028
X02899118Y02489028
X02918368Y02499278
X02931118
X02917368Y02527278
Y02552278
X03000368Y02546028
X03011368Y02563028
X03035868Y02572278
X03042118Y02506028
X02871618Y02485278
X02927868Y02428778
T02
X02854268Y02493778
X02854268Y02506478
X02866968Y02506478
X02866968Y02519178
X02854268
X02854268Y02531878
Y02544578
X02866968
X02866968Y02531878
X02939718Y02428778
X02956518
X02969218
X03015128Y02449288
X03024108Y02458268
M30
