%FSAX44Y44*%
%MOMM*%
G71*
G01*
G75*
G04 Layer_Color=2752767*
%ADD10R,0.5000X0.6000*%
%ADD11R,0.6000X0.5000*%
%ADD12R,0.7000X0.9000*%
%ADD13R,0.3000X0.6000*%
%ADD14R,1.5500X1.5500*%
%ADD15R,0.6500X0.2000*%
%ADD16R,0.2000X0.6500*%
%ADD17R,0.9000X0.7000*%
%ADD18O,0.8000X0.2000*%
%ADD19O,0.2000X0.8000*%
%ADD20R,4.6000X4.6000*%
%ADD21R,1.0000X2.0000*%
%ADD22R,0.7112X0.2286*%
%ADD23R,1.1500X1.4000*%
%ADD24R,0.4500X0.3500*%
%ADD25R,0.3500X0.4500*%
%ADD26C,0.1500*%
%ADD27C,0.3000*%
%ADD28C,0.5000*%
%ADD29C,0.2000*%
%ADD30C,0.9000*%
%ADD31C,0.6000*%
%ADD32C,0.8000*%
%ADD33R,0.9000X0.9000*%
%ADD34C,0.2500*%
%ADD35C,0.1250*%
%ADD36R,0.6500X0.7500*%
%ADD37R,0.7500X0.6500*%
%ADD38R,0.8500X1.0500*%
%ADD39R,0.4500X0.7500*%
%ADD40R,1.7000X1.7000*%
%ADD41R,0.8000X0.3500*%
%ADD42R,0.3500X0.8000*%
%ADD43R,1.0500X0.8500*%
%ADD44O,0.9500X0.3500*%
%ADD45O,0.3500X0.9500*%
%ADD46R,4.7500X4.7500*%
%ADD47R,1.1500X2.1500*%
%ADD48R,0.9144X0.4318*%
%ADD49R,1.3000X1.5500*%
%ADD50R,0.6000X0.5000*%
%ADD51R,0.5000X0.6000*%
%ADD52C,1.0500*%
%ADD53C,0.7500*%
%ADD54C,0.9500*%
%ADD55R,1.0500X1.0500*%
%ADD56C,0.1000*%
%ADD57C,0.1270*%
%ADD58C,0.1693*%
D57*
X02934638Y02423698D02*
Y02433858D01*
X02944798D01*
Y02423698D01*
X02934638D01*
X03010048Y02444208D02*
Y02454368D01*
X03020208D01*
Y02444208D01*
X03010048D01*
X03019028Y02453188D02*
Y02463348D01*
X03029188D01*
Y02453188D01*
X03019028D01*
X02951438Y02423698D02*
Y02433858D01*
X02961598D01*
Y02423698D01*
X02951438D01*
X02964138D02*
Y02433858D01*
X02974298D01*
Y02423698D01*
X02964138D01*
X02861888Y02501398D02*
Y02511558D01*
X02872048D01*
Y02501398D01*
X02861888D01*
X02849188Y02539498D02*
Y02549658D01*
X02859348D01*
Y02539498D01*
X02849188D01*
Y02526798D02*
Y02536958D01*
X02859348D01*
Y02526798D01*
X02849188D01*
X02849188Y02514098D02*
Y02524258D01*
X02859348D01*
Y02514098D01*
X02849188D01*
X02849188Y02501398D02*
Y02511558D01*
X02859348D01*
Y02501398D01*
X02849188D01*
X02861888Y02539498D02*
Y02549658D01*
X02872048D01*
Y02539498D01*
X02861888D01*
X02861888Y02526798D02*
Y02536958D01*
X02872048D01*
Y02526798D01*
X02861888D01*
X02861888Y02514098D02*
Y02524258D01*
X02872048D01*
Y02514098D01*
X02861888D01*
X02849188Y02488698D02*
Y02498858D01*
X02859348D01*
Y02488698D01*
X02849188D01*
D58*
X03005448Y02546028D02*
G03*
X03005448Y02546028I-00005080J00000000D01*
G01*
X02904198Y02489028D02*
G03*
X02904198Y02489028I-00005080J00000000D01*
G01*
X03016448Y02563028D02*
G03*
X03016448Y02563028I-00005080J00000000D01*
G01*
X02987948Y02502028D02*
G03*
X02987948Y02502028I-00005080J00000000D01*
G01*
X03013198Y02490528D02*
G03*
X03013198Y02490528I-00005080J00000000D01*
G01*
X02999698Y02470028D02*
G03*
X02999698Y02470028I-00005080J00000000D01*
G01*
X02999448Y02481778D02*
G03*
X02999448Y02481778I-00005080J00000000D01*
G01*
X02932948Y02428778D02*
G03*
X02932948Y02428778I-00005080J00000000D01*
G01*
X03012451Y02526528D02*
G03*
X03012451Y02526528I-00005080J00000000D01*
G01*
X02966448Y02514028D02*
G03*
X02966448Y02514028I-00005080J00000000D01*
G01*
X02997448Y02526028D02*
G03*
X02997448Y02526028I-00005080J00000000D01*
G01*
X02966448Y02502028D02*
G03*
X02966448Y02502028I-00005080J00000000D01*
G01*
X02983698Y02526278D02*
G03*
X02983698Y02526278I-00005080J00000000D01*
G01*
X02965449Y02490026D02*
G03*
X02965449Y02490026I-00005080J00000000D01*
G01*
X02954948Y02487778D02*
G03*
X02954948Y02487778I-00005080J00000000D01*
G01*
X02915448Y02616278D02*
G03*
X02915448Y02616278I-00005080J00000000D01*
G01*
X03040948Y02572278D02*
G03*
X03040948Y02572278I-00005080J00000000D01*
G01*
X03021948Y02469028D02*
G03*
X03021948Y02469028I-00005080J00000000D01*
G01*
X02922698Y02452028D02*
G03*
X02922698Y02452028I-00005080J00000000D01*
G01*
X03027448Y02526528D02*
G03*
X03027448Y02526528I-00005080J00000000D01*
G01*
X02922448Y02527278D02*
G03*
X02922448Y02527278I-00005080J00000000D01*
G01*
X02981448Y02556028D02*
G03*
X02981448Y02556028I-00005080J00000000D01*
G01*
X02968198Y02465278D02*
G03*
X02968198Y02465278I-00005080J00000000D01*
G01*
X02981448Y02547778D02*
G03*
X02981448Y02547778I-00005080J00000000D01*
G01*
X02972448Y02576778D02*
G03*
X02972448Y02576778I-00005080J00000000D01*
G01*
X02941948Y02472278D02*
G03*
X02941948Y02472278I-00005080J00000000D01*
G01*
X02936198Y02499278D02*
G03*
X02936198Y02499278I-00005080J00000000D01*
G01*
X02923448D02*
G03*
X02923448Y02499278I-00005080J00000000D01*
G01*
X03013198Y02505528D02*
G03*
X03013198Y02505528I-00005080J00000000D01*
G01*
X02889198Y02489028D02*
G03*
X02889198Y02489028I-00005080J00000000D01*
G01*
X02915448Y02591278D02*
G03*
X02915448Y02591278I-00005080J00000000D01*
G01*
X02947448D02*
G03*
X02947448Y02591278I-00005080J00000000D01*
G01*
X02884198Y02535028D02*
G03*
X02884198Y02535028I-00005080J00000000D01*
G01*
X02924948Y02468528D02*
G03*
X02924948Y02468528I-00005080J00000000D01*
G01*
X02892698Y02479028D02*
G03*
X02892698Y02479028I-00005080J00000000D01*
G01*
X02876698Y02485278D02*
G03*
X02876698Y02485278I-00005080J00000000D01*
G01*
X02907698Y02452028D02*
G03*
X02907698Y02452028I-00005080J00000000D01*
G01*
X02922448Y02552278D02*
G03*
X02922448Y02552278I-00005080J00000000D01*
G01*
X03047198Y02506028D02*
G03*
X03047198Y02506028I-00005080J00000000D01*
G01*
X02890195Y02587526D02*
G03*
X02890195Y02587526I-00005080J00000000D01*
G01*
X02884198Y02527278D02*
G03*
X02884198Y02527278I-00005080J00000000D01*
G01*
Y02511778D02*
G03*
X02884198Y02511778I-00005080J00000000D01*
G01*
Y02519528D02*
G03*
X02884198Y02519528I-00005080J00000000D01*
G01*
X02887198Y02570528D02*
G03*
X02887198Y02570528I-00005080J00000000D01*
G01*
X02861948Y02560778D02*
G03*
X02861948Y02560778I-00005080J00000000D01*
G01*
M02*
