%FSAX44Y44*%
%MOMM*%
G71*
G01*
G75*
G04 Layer_Color=8421504*
%ADD10R,0.5000X0.6000*%
%ADD11R,0.6000X0.5000*%
%ADD12R,0.7000X0.9000*%
%ADD13R,0.3000X0.6000*%
%ADD14R,1.5500X1.5500*%
%ADD15R,0.6500X0.2000*%
%ADD16R,0.2000X0.6500*%
%ADD17R,0.9000X0.7000*%
%ADD18O,0.8000X0.2000*%
%ADD19O,0.2000X0.8000*%
%ADD20R,4.6000X4.6000*%
%ADD21R,1.0000X2.0000*%
%ADD22R,0.7112X0.2286*%
%ADD23R,1.1500X1.4000*%
%ADD24R,0.4500X0.3500*%
%ADD25R,0.3500X0.4500*%
%ADD26C,0.1500*%
%ADD27C,0.3000*%
%ADD28C,0.5000*%
%ADD29C,0.2000*%
%ADD30C,0.9000*%
%ADD31C,0.6000*%
%ADD32C,0.8000*%
%ADD33R,0.9000X0.9000*%
%ADD34C,0.2500*%
%ADD35C,0.1250*%
D10*
X02927618Y02472028D02*
D03*
Y02462028D02*
D03*
X02986618Y02558278D02*
D03*
Y02568278D02*
D03*
X02960118Y02555528D02*
D03*
Y02545528D02*
D03*
X02929368Y02442278D02*
D03*
X02929368Y02452278D02*
D03*
X02935118Y02581028D02*
D03*
Y02591028D02*
D03*
X02926868Y02591028D02*
D03*
Y02581028D02*
D03*
X02937618Y02442278D02*
D03*
X02937618Y02452278D02*
D03*
X02986618Y02549278D02*
D03*
Y02539278D02*
D03*
X02968368Y02545528D02*
D03*
Y02555528D02*
D03*
X02918618Y02581028D02*
D03*
Y02591028D02*
D03*
X02873868Y02562528D02*
D03*
Y02572528D02*
D03*
X02986368Y02472028D02*
D03*
Y02462028D02*
D03*
X03018368Y02506028D02*
D03*
Y02496028D02*
D03*
D11*
X02908868Y02487278D02*
D03*
X02918868D02*
D03*
X02985618Y02576778D02*
D03*
X02975618D02*
D03*
X02996868Y02453278D02*
D03*
X02986868Y02453278D02*
D03*
X02996868Y02445028D02*
D03*
X02986868Y02445028D02*
D03*
X02936868Y02599778D02*
D03*
X02926868D02*
D03*
X03016368Y02481278D02*
D03*
X03006368D02*
D03*
X02929868Y02491028D02*
D03*
X02939868D02*
D03*
X02946618Y02440278D02*
D03*
X02956618D02*
D03*
X02938118Y02480778D02*
D03*
X02928118D02*
D03*
X02952618Y02499778D02*
D03*
X02942618D02*
D03*
X02959118Y02576778D02*
D03*
X02949118D02*
D03*
X02975618Y02440278D02*
D03*
X02965618D02*
D03*
X02887368Y02499278D02*
D03*
X02877368D02*
D03*
X02960118Y02563778D02*
D03*
X02970118D02*
D03*
X02906618Y02499278D02*
D03*
X02896618D02*
D03*
X03006618Y02514778D02*
D03*
X03016618D02*
D03*
D12*
X02917618Y02452028D02*
D03*
X02902618D02*
D03*
X02899118Y02489028D02*
D03*
X02884118D02*
D03*
D13*
X02892618Y02469778D02*
D03*
X02887618D02*
D03*
X02882618D02*
D03*
Y02456778D02*
D03*
X02887618D02*
D03*
X02892618D02*
D03*
D14*
X02963118Y02465278D02*
D03*
D15*
X02948368Y02456278D02*
D03*
Y02460778D02*
D03*
Y02465278D02*
D03*
Y02469778D02*
D03*
Y02474278D02*
D03*
X02977868D02*
D03*
Y02469778D02*
D03*
Y02465278D02*
D03*
Y02460778D02*
D03*
Y02456278D02*
D03*
D16*
X02954118Y02480028D02*
D03*
X02958618D02*
D03*
X02963118D02*
D03*
X02967618D02*
D03*
X02972118D02*
D03*
Y02450528D02*
D03*
X02967618D02*
D03*
X02963118D02*
D03*
X02958618D02*
D03*
X02954118D02*
D03*
D17*
X02871618Y02485278D02*
D03*
Y02470278D02*
D03*
X03008118Y02505528D02*
D03*
Y02490528D02*
D03*
D18*
X02948618Y02517278D02*
D03*
Y02522278D02*
D03*
Y02527278D02*
D03*
Y02532278D02*
D03*
Y02537278D02*
D03*
Y02542278D02*
D03*
Y02547278D02*
D03*
Y02552278D02*
D03*
Y02557278D02*
D03*
Y02562278D02*
D03*
X02888618D02*
D03*
Y02557278D02*
D03*
Y02552278D02*
D03*
Y02547278D02*
D03*
Y02542278D02*
D03*
Y02537278D02*
D03*
Y02532278D02*
D03*
Y02527278D02*
D03*
Y02522278D02*
D03*
Y02517278D02*
D03*
D19*
X02941118Y02569778D02*
D03*
X02936118D02*
D03*
X02931118D02*
D03*
X02926118D02*
D03*
X02921118D02*
D03*
X02916118D02*
D03*
X02911118D02*
D03*
X02906118D02*
D03*
X02901118D02*
D03*
X02896118D02*
D03*
Y02509778D02*
D03*
X02901118D02*
D03*
X02906118D02*
D03*
X02911118D02*
D03*
X02916118D02*
D03*
X02921118D02*
D03*
X02926118D02*
D03*
X02931118D02*
D03*
X02936118D02*
D03*
X02941118D02*
D03*
D20*
X02918618Y02539778D02*
D03*
D21*
X02965119Y02610029D02*
D03*
X02999119D02*
D03*
D22*
X02911567Y02468448D02*
D03*
Y02473528D02*
D03*
Y02478608D02*
D03*
X02902169D02*
D03*
Y02473528D02*
D03*
Y02468448D02*
D03*
D23*
X03013868Y02543528D02*
D03*
Y02565528D02*
D03*
X02997868D02*
D03*
X02997868Y02543528D02*
D03*
D24*
X02970868Y02507028D02*
D03*
Y02502028D02*
D03*
Y02497028D02*
D03*
X02994868D02*
D03*
Y02502028D02*
D03*
Y02507028D02*
D03*
D25*
X02972868Y02490028D02*
D03*
X02977868D02*
D03*
X02982868D02*
D03*
X02987868D02*
D03*
X02992868D02*
D03*
X02992868Y02514028D02*
D03*
X02987868D02*
D03*
X02982868D02*
D03*
X02977868D02*
D03*
X02972868D02*
D03*
M02*
