%FSAX44Y44*%
%MOMM*%
G71*
G01*
G75*
G04 Layer_Color=8388736*
%ADD10R,0.5000X0.6000*%
%ADD11R,0.6000X0.5000*%
%ADD12R,0.7000X0.9000*%
%ADD13R,0.3000X0.6000*%
%ADD14R,1.5500X1.5500*%
%ADD15R,0.6500X0.2000*%
%ADD16R,0.2000X0.6500*%
%ADD17R,0.9000X0.7000*%
%ADD18O,0.8000X0.2000*%
%ADD19O,0.2000X0.8000*%
%ADD20R,4.6000X4.6000*%
%ADD21R,1.0000X2.0000*%
%ADD22R,0.7112X0.2286*%
%ADD23R,1.1500X1.4000*%
%ADD24R,0.4500X0.3500*%
%ADD25R,0.3500X0.4500*%
%ADD26C,0.1500*%
%ADD27C,0.3000*%
%ADD28C,0.5000*%
%ADD29C,0.2000*%
%ADD30C,0.9000*%
%ADD31C,0.6000*%
%ADD32C,0.8000*%
%ADD33R,0.9000X0.9000*%
%ADD34C,0.2500*%
%ADD35C,0.1250*%
%ADD36R,0.6500X0.7500*%
%ADD37R,0.7500X0.6500*%
%ADD38R,0.8500X1.0500*%
%ADD39R,0.4500X0.7500*%
%ADD40R,1.7000X1.7000*%
%ADD41R,0.8000X0.3500*%
%ADD42R,0.3500X0.8000*%
%ADD43R,1.0500X0.8500*%
%ADD44O,0.9500X0.3500*%
%ADD45O,0.3500X0.9500*%
%ADD46R,4.7500X4.7500*%
%ADD47R,1.1500X2.1500*%
%ADD48R,0.9144X0.4318*%
%ADD49R,1.3000X1.5500*%
%ADD50R,0.6000X0.5000*%
%ADD51R,0.5000X0.6000*%
%ADD52C,1.0500*%
%ADD53C,0.7500*%
%ADD54C,0.9500*%
%ADD55R,1.0500X1.0500*%
D36*
X02927618Y02472028D02*
D03*
Y02462028D02*
D03*
X02986618Y02558278D02*
D03*
Y02568278D02*
D03*
X02960118Y02555528D02*
D03*
Y02545528D02*
D03*
X02929368Y02442278D02*
D03*
X02929368Y02452278D02*
D03*
X02935118Y02581028D02*
D03*
Y02591028D02*
D03*
X02926868Y02591028D02*
D03*
Y02581028D02*
D03*
X02937618Y02442278D02*
D03*
X02937618Y02452278D02*
D03*
X02986618Y02549278D02*
D03*
Y02539278D02*
D03*
X02968368Y02545528D02*
D03*
Y02555528D02*
D03*
X02918618Y02581028D02*
D03*
Y02591028D02*
D03*
X02873868Y02562528D02*
D03*
Y02572528D02*
D03*
X02986368Y02472028D02*
D03*
Y02462028D02*
D03*
X03018368Y02506028D02*
D03*
Y02496028D02*
D03*
D37*
X02908868Y02487278D02*
D03*
X02918868D02*
D03*
X02985618Y02576778D02*
D03*
X02975618D02*
D03*
X02996868Y02453278D02*
D03*
X02986868Y02453278D02*
D03*
X02996868Y02445028D02*
D03*
X02986868Y02445028D02*
D03*
X02936868Y02599778D02*
D03*
X02926868D02*
D03*
X03016368Y02481278D02*
D03*
X03006368D02*
D03*
X02929868Y02491028D02*
D03*
X02939868D02*
D03*
X02946618Y02440278D02*
D03*
X02956618D02*
D03*
X02938118Y02480778D02*
D03*
X02928118D02*
D03*
X02952618Y02499778D02*
D03*
X02942618D02*
D03*
X02959118Y02576778D02*
D03*
X02949118D02*
D03*
X02975618Y02440278D02*
D03*
X02965618D02*
D03*
X02887368Y02499278D02*
D03*
X02877368D02*
D03*
X02960118Y02563778D02*
D03*
X02970118D02*
D03*
X02906618Y02499278D02*
D03*
X02896618D02*
D03*
X03006618Y02514778D02*
D03*
X03016618D02*
D03*
D38*
X02917618Y02452028D02*
D03*
X02902618D02*
D03*
X02899118Y02489028D02*
D03*
X02884118D02*
D03*
D39*
X02892618Y02469778D02*
D03*
X02887618D02*
D03*
X02882618D02*
D03*
Y02456778D02*
D03*
X02887618D02*
D03*
X02892618D02*
D03*
D40*
X02963118Y02465278D02*
D03*
D41*
X02948368Y02456278D02*
D03*
Y02460778D02*
D03*
Y02465278D02*
D03*
Y02469778D02*
D03*
Y02474278D02*
D03*
X02977868D02*
D03*
Y02469778D02*
D03*
Y02465278D02*
D03*
Y02460778D02*
D03*
Y02456278D02*
D03*
D42*
X02954118Y02480028D02*
D03*
X02958618D02*
D03*
X02963118D02*
D03*
X02967618D02*
D03*
X02972118D02*
D03*
Y02450528D02*
D03*
X02967618D02*
D03*
X02963118D02*
D03*
X02958618D02*
D03*
X02954118D02*
D03*
D43*
X02871618Y02485278D02*
D03*
Y02470278D02*
D03*
X03008118Y02505528D02*
D03*
Y02490528D02*
D03*
D44*
X02948618Y02517278D02*
D03*
Y02522278D02*
D03*
Y02527278D02*
D03*
Y02532278D02*
D03*
Y02537278D02*
D03*
Y02542278D02*
D03*
Y02547278D02*
D03*
Y02552278D02*
D03*
Y02557278D02*
D03*
Y02562278D02*
D03*
X02888618D02*
D03*
Y02557278D02*
D03*
Y02552278D02*
D03*
Y02547278D02*
D03*
Y02542278D02*
D03*
Y02537278D02*
D03*
Y02532278D02*
D03*
Y02527278D02*
D03*
Y02522278D02*
D03*
Y02517278D02*
D03*
D45*
X02941118Y02569778D02*
D03*
X02936118D02*
D03*
X02931118D02*
D03*
X02926118D02*
D03*
X02921118D02*
D03*
X02916118D02*
D03*
X02911118D02*
D03*
X02906118D02*
D03*
X02901118D02*
D03*
X02896118D02*
D03*
Y02509778D02*
D03*
X02901118D02*
D03*
X02906118D02*
D03*
X02911118D02*
D03*
X02916118D02*
D03*
X02921118D02*
D03*
X02926118D02*
D03*
X02931118D02*
D03*
X02936118D02*
D03*
X02941118D02*
D03*
D46*
X02918618Y02539778D02*
D03*
D47*
X02965119Y02610029D02*
D03*
X02999119D02*
D03*
D48*
X02911567Y02468448D02*
D03*
Y02473528D02*
D03*
Y02478608D02*
D03*
X02902169D02*
D03*
Y02473528D02*
D03*
Y02468448D02*
D03*
D49*
X03013868Y02543528D02*
D03*
Y02565528D02*
D03*
X02997868D02*
D03*
X02997868Y02543528D02*
D03*
D50*
X02970868Y02507028D02*
D03*
Y02502028D02*
D03*
Y02497028D02*
D03*
X02994868D02*
D03*
Y02502028D02*
D03*
Y02507028D02*
D03*
D51*
X02972868Y02490028D02*
D03*
X02977868D02*
D03*
X02982868D02*
D03*
X02987868D02*
D03*
X02992868D02*
D03*
X02992868Y02514028D02*
D03*
X02987868D02*
D03*
X02982868D02*
D03*
X02977868D02*
D03*
X02972868D02*
D03*
D52*
X02939718Y02428778D02*
D03*
X02956518D02*
D03*
X02866968Y02506478D02*
D03*
X02854268Y02531878D02*
D03*
X02854268Y02519178D02*
D03*
X02854268Y02506478D02*
D03*
X02866968Y02544578D02*
D03*
X02866968Y02531878D02*
D03*
X02866968Y02519178D02*
D03*
X02854268Y02493778D02*
D03*
D53*
X03000368Y02546028D02*
D03*
X02899118Y02489028D02*
D03*
X03011368Y02563028D02*
D03*
X02982868Y02502028D02*
D03*
X03008118Y02490528D02*
D03*
X02994618Y02470028D02*
D03*
X02994368Y02481778D02*
D03*
X02927868Y02428778D02*
D03*
X03007371Y02526528D02*
D03*
X02961368Y02514028D02*
D03*
X02992368Y02526028D02*
D03*
X02961368Y02502028D02*
D03*
X02978618Y02526278D02*
D03*
X02960369Y02490026D02*
D03*
X02949868Y02487778D02*
D03*
X02910368Y02616278D02*
D03*
X03035868Y02572278D02*
D03*
X03016868Y02469028D02*
D03*
X02917618Y02452028D02*
D03*
X03022368Y02526528D02*
D03*
X02917368Y02527278D02*
D03*
X02976368Y02556028D02*
D03*
X02963118Y02465278D02*
D03*
X02976368Y02547778D02*
D03*
X02967368Y02576778D02*
D03*
X02936868Y02472278D02*
D03*
X02931118Y02499278D02*
D03*
X02918368D02*
D03*
X03008118Y02505528D02*
D03*
X02884118Y02489028D02*
D03*
X02910368Y02591278D02*
D03*
X02942368D02*
D03*
X02879118Y02535028D02*
D03*
X02919868Y02468528D02*
D03*
X02887618Y02479028D02*
D03*
X02871618Y02485278D02*
D03*
X02902618Y02452028D02*
D03*
X02917368Y02552278D02*
D03*
X03042118Y02506028D02*
D03*
X02885115Y02587526D02*
D03*
X02879118Y02527278D02*
D03*
Y02511778D02*
D03*
Y02519528D02*
D03*
X02882118Y02570528D02*
D03*
X02856868Y02560778D02*
D03*
D54*
X03015128Y02449288D02*
D03*
X03024108Y02458268D02*
D03*
X02969218Y02428778D02*
D03*
D55*
X02854268Y02544578D02*
D03*
M02*
