%FSAX44Y44*%
%MOMM*%
G71*
G01*
G75*
G04 Layer_Color=65535*
%ADD10R,0.5000X0.6000*%
%ADD11R,0.6000X0.5000*%
%ADD12R,0.7000X0.9000*%
%ADD13R,0.3000X0.6000*%
%ADD14R,1.5500X1.5500*%
%ADD15R,0.6500X0.2000*%
%ADD16R,0.2000X0.6500*%
%ADD17R,0.9000X0.7000*%
%ADD18O,0.8000X0.2000*%
%ADD19O,0.2000X0.8000*%
%ADD20R,4.6000X4.6000*%
%ADD21R,1.0000X2.0000*%
%ADD22R,0.7112X0.2286*%
%ADD23R,1.1500X1.4000*%
%ADD24R,0.4500X0.3500*%
%ADD25R,0.3500X0.4500*%
%ADD26C,0.1500*%
%ADD27C,0.3000*%
%ADD28C,0.5000*%
%ADD29C,0.2000*%
%ADD30C,0.9000*%
%ADD31C,0.6000*%
%ADD32C,0.8000*%
%ADD33R,0.9000X0.9000*%
%ADD34C,0.2500*%
%ADD35C,0.1250*%
D29*
X02961128Y02623028D02*
G03*
X02961128Y02623028I-00000010J00000000D01*
G01*
X03018878Y02533538D02*
G03*
X03018878Y02533538I-00000010J00000000D01*
G01*
X02999368Y02513778D02*
G03*
X02999368Y02513778I-00001000J00000000D01*
G01*
X02908118Y02448528D02*
X02912118D01*
X02908118Y02455528D02*
X02912118D01*
X02896118Y02461778D02*
Y02464778D01*
X02879118Y02461778D02*
Y02464778D01*
X02896118D01*
X02879118Y02461778D02*
X02896118D01*
X02978618Y02449778D02*
Y02451278D01*
X02977118Y02449778D02*
X02978618D01*
Y02479278D02*
Y02480778D01*
X02977118D02*
X02978618D01*
X02947618D02*
X02949118D01*
X02947618Y02479278D02*
Y02480778D01*
Y02449778D02*
Y02451278D01*
Y02449778D02*
X02949118D01*
X02875118Y02475778D02*
Y02479778D01*
X02868118Y02475778D02*
Y02479778D01*
X02950618Y02507778D02*
Y02512278D01*
X02946118Y02507778D02*
X02950618D01*
X02886618D02*
X02891118D01*
X02886618D02*
Y02512278D01*
Y02567278D02*
Y02571778D01*
X02891118D01*
X02950618Y02567278D02*
Y02571778D01*
X02946118D02*
X02950618D01*
X02973118Y02619028D02*
X02991118D01*
X02973118Y02601028D02*
X02991118D01*
X03011118Y02496028D02*
Y02500028D01*
X03004618D02*
X03011118D01*
X03004618Y02496028D02*
Y02500028D01*
X02901618Y02464528D02*
X02912032D01*
X02901704Y02482528D02*
X02912118D01*
X02889618Y02485528D02*
X02893618D01*
X02889618Y02492528D02*
X02893618D01*
X02992868Y02553528D02*
Y02555528D01*
X03018868Y02553528D02*
Y02555528D01*
X02967368Y02518528D02*
X02972368D01*
X02993368D02*
X02998368D01*
X02993368Y02485528D02*
X02998368D01*
X02967368D02*
X02972368D01*
D34*
X02958368Y02509278D02*
G03*
X02958368Y02509278I-00001250J00000000D01*
G01*
D35*
X02866368Y02464526D02*
Y02459528D01*
X02867368Y02458528D01*
X02869367D01*
X02870367Y02459528D01*
Y02464526D01*
X02876365Y02458528D02*
X02872366D01*
X02876365Y02462527D01*
Y02463526D01*
X02875365Y02464526D01*
X02873366D01*
X02872366Y02463526D01*
X02885367Y02449526D02*
X02884367Y02450526D01*
X02882368D01*
X02881368Y02449526D01*
Y02445528D01*
X02882368Y02444528D01*
X02884367D01*
X02885367Y02445528D01*
X02887366Y02444528D02*
X02889366D01*
X02888366D01*
Y02450526D01*
X02887366Y02449526D01*
X02895363Y02444528D02*
Y02450526D01*
X02892365Y02447527D01*
X02896363D01*
X02858620Y02472777D02*
X02857620Y02471777D01*
Y02469778D01*
X02858620Y02468778D01*
X02862618D01*
X02863618Y02469778D01*
Y02471777D01*
X02862618Y02472777D01*
X02863618Y02474776D02*
Y02476775D01*
Y02475776D01*
X02857620D01*
X02858620Y02474776D01*
Y02479774D02*
X02857620Y02480774D01*
Y02482773D01*
X02858620Y02483773D01*
X02859619D01*
X02860619Y02482773D01*
Y02481774D01*
Y02482773D01*
X02861619Y02483773D01*
X02862618D01*
X02863618Y02482773D01*
Y02480774D01*
X02862618Y02479774D01*
X03021368Y02572526D02*
Y02571526D01*
X03023367Y02569527D01*
X03025367Y02571526D01*
Y02572526D01*
X03023367Y02569527D02*
Y02566528D01*
X03027366D02*
X03029366D01*
X03028366D01*
Y02572526D01*
X03027366Y02571526D01*
X02874868Y02584026D02*
Y02579028D01*
X02875868Y02578028D01*
X02877867D01*
X02878867Y02579028D01*
Y02584026D01*
X02880866Y02578028D02*
X02882865D01*
X02881866D01*
Y02584026D01*
X02880866Y02583026D01*
X02916870Y02459278D02*
X02921868D01*
X02922868Y02460278D01*
Y02462277D01*
X02921868Y02463277D01*
X02916870D01*
X02917870Y02465276D02*
X02916870Y02466276D01*
Y02468275D01*
X02917870Y02469275D01*
X02918869D01*
X02919869Y02468275D01*
Y02467275D01*
Y02468275D01*
X02920869Y02469275D01*
X02921868D01*
X02922868Y02468275D01*
Y02466276D01*
X02921868Y02465276D01*
X02996117Y02579276D02*
X02995117Y02580276D01*
X02993118D01*
X02992118Y02579276D01*
Y02575278D01*
X02993118Y02574278D01*
X02995117D01*
X02996117Y02575278D01*
X02998116Y02574278D02*
X03000115D01*
X02999116D01*
Y02580276D01*
X02998116Y02579276D01*
X03007113Y02574278D02*
X03003114D01*
X03007113Y02578277D01*
Y02579276D01*
X03006113Y02580276D01*
X03004114D01*
X03003114Y02579276D01*
X02957870Y02533027D02*
X02956870Y02532027D01*
Y02530028D01*
X02957870Y02529028D01*
X02961868D01*
X02962868Y02530028D01*
Y02532027D01*
X02961868Y02533027D01*
X02956870Y02539025D02*
X02957870Y02537025D01*
X02959869Y02535026D01*
X02961868D01*
X02962868Y02536026D01*
Y02538025D01*
X02961868Y02539025D01*
X02960869D01*
X02959869Y02538025D01*
Y02535026D01*
X02966620Y02532527D02*
X02965620Y02531527D01*
Y02529528D01*
X02966620Y02528528D01*
X02970618D01*
X02971618Y02529528D01*
Y02531527D01*
X02970618Y02532527D01*
X02965620Y02538525D02*
Y02534526D01*
X02968619D01*
X02967619Y02536525D01*
Y02537525D01*
X02968619Y02538525D01*
X02970618D01*
X02971618Y02537525D01*
Y02535526D01*
X02970618Y02534526D01*
X02978618Y02528276D02*
Y02523278D01*
X02979618Y02522278D01*
X02981617D01*
X02982617Y02523278D01*
Y02528276D01*
X02988615D02*
X02984616D01*
Y02525277D01*
X02986615Y02526277D01*
X02987615D01*
X02988615Y02525277D01*
Y02523278D01*
X02987615Y02522278D01*
X02985616D01*
X02984616Y02523278D01*
X02947868Y02487028D02*
Y02493026D01*
X02950867D01*
X02951867Y02492026D01*
Y02490027D01*
X02950867Y02489027D01*
X02947868D01*
X02949867D02*
X02951867Y02487028D01*
X02953866D02*
X02955865D01*
X02954866D01*
Y02493026D01*
X02953866Y02492026D01*
X02962863Y02487028D02*
X02958864D01*
X02962863Y02491027D01*
Y02492026D01*
X02961863Y02493026D01*
X02959864D01*
X02958864Y02492026D01*
X02966868Y02495528D02*
X02960870D01*
Y02498527D01*
X02961870Y02499527D01*
X02963869D01*
X02964868Y02498527D01*
Y02495528D01*
Y02497527D02*
X02966868Y02499527D01*
Y02501526D02*
Y02503525D01*
Y02502526D01*
X02960870D01*
X02961870Y02501526D01*
X02966868Y02506524D02*
Y02508524D01*
Y02507524D01*
X02960870D01*
X02961870Y02506524D01*
X02923118Y02472528D02*
X02917120D01*
Y02475527D01*
X02918120Y02476527D01*
X02920119D01*
X02921118Y02475527D01*
Y02472528D01*
Y02474527D02*
X02923118Y02476527D01*
X02918120Y02478526D02*
X02917120Y02479526D01*
Y02481525D01*
X02918120Y02482525D01*
X02919119D01*
X02920119Y02481525D01*
Y02480525D01*
Y02481525D01*
X02921118Y02482525D01*
X02922118D01*
X02923118Y02481525D01*
Y02479526D01*
X02922118Y02478526D01*
X02932868Y02458278D02*
Y02464276D01*
X02935867D01*
X02936867Y02463276D01*
Y02461277D01*
X02935867Y02460277D01*
X02932868D01*
X02934867D02*
X02936867Y02458278D01*
X02942865D02*
X02938866D01*
X02942865Y02462277D01*
Y02463276D01*
X02941865Y02464276D01*
X02939866D01*
X02938866Y02463276D01*
X02926118Y02612276D02*
Y02606278D01*
X02930117D01*
X02936115D02*
X02932116D01*
X02936115Y02610277D01*
Y02611277D01*
X02935115Y02612276D01*
X02933116D01*
X02932116Y02611277D01*
X02941618Y02588526D02*
Y02582528D01*
X02945617D01*
X02947616D02*
X02949615D01*
X02948616D01*
Y02588526D01*
X02947616Y02587527D01*
X03016867Y02474776D02*
X03015867Y02475776D01*
X03013868D01*
X03012868Y02474776D01*
Y02470778D01*
X03013868Y02469778D01*
X03015867D01*
X03016867Y02470778D01*
X03018866Y02469778D02*
X03020865D01*
X03019866D01*
Y02475776D01*
X03018866Y02474776D01*
X03023864Y02470778D02*
X03024864Y02469778D01*
X03026863D01*
X03027863Y02470778D01*
Y02474776D01*
X03026863Y02475776D01*
X03024864D01*
X03023864Y02474776D01*
Y02473777D01*
X03024864Y02472777D01*
X03027863D01*
X03024870Y02500277D02*
X03023870Y02499277D01*
Y02497278D01*
X03024870Y02496278D01*
X03028868D01*
X03029868Y02497278D01*
Y02499277D01*
X03028868Y02500277D01*
X03029868Y02502276D02*
Y02504275D01*
Y02503276D01*
X03023870D01*
X03024870Y02502276D01*
Y02507274D02*
X03023870Y02508274D01*
Y02510273D01*
X03024870Y02511273D01*
X03025869D01*
X03026869Y02510273D01*
X03027869Y02511273D01*
X03028868D01*
X03029868Y02510273D01*
Y02508274D01*
X03028868Y02507274D01*
X03027869D01*
X03026869Y02508274D01*
X03025869Y02507274D01*
X03024870D01*
X03026869Y02508274D02*
Y02510273D01*
X03024617Y02490026D02*
X03023617Y02491026D01*
X03021618D01*
X03020618Y02490026D01*
Y02486028D01*
X03021618Y02485028D01*
X03023617D01*
X03024617Y02486028D01*
X03026616Y02485028D02*
X03028615D01*
X03027616D01*
Y02491026D01*
X03026616Y02490026D01*
X03031614Y02491026D02*
X03035613D01*
Y02490026D01*
X03031614Y02486028D01*
Y02485028D01*
X03011617Y02525276D02*
X03010617Y02526276D01*
X03008618D01*
X03007618Y02525276D01*
Y02521278D01*
X03008618Y02520278D01*
X03010617D01*
X03011617Y02521278D01*
X03013616Y02520278D02*
X03015616D01*
X03014616D01*
Y02526276D01*
X03013616Y02525276D01*
X03022613Y02526276D02*
X03020614Y02525276D01*
X03018615Y02523277D01*
Y02521278D01*
X03019614Y02520278D01*
X03021613D01*
X03022613Y02521278D01*
Y02522277D01*
X03021613Y02523277D01*
X03018615D01*
X02918617Y02502026D02*
X02917617Y02503026D01*
X02915618D01*
X02914618Y02502026D01*
Y02498028D01*
X02915618Y02497028D01*
X02917617D01*
X02918617Y02498028D01*
X02920616Y02497028D02*
X02922615D01*
X02921616D01*
Y02503026D01*
X02920616Y02502026D01*
X02925614D02*
X02926614Y02503026D01*
X02928613D01*
X02929613Y02502026D01*
Y02498028D01*
X02928613Y02497028D01*
X02926614D01*
X02925614Y02498028D01*
Y02502026D01*
X02862617Y02575276D02*
X02861617Y02576276D01*
X02859618D01*
X02858618Y02575276D01*
Y02571278D01*
X02859618Y02570278D01*
X02861617D01*
X02862617Y02571278D01*
X02864616D02*
X02865616Y02570278D01*
X02867615D01*
X02868615Y02571278D01*
Y02575276D01*
X02867615Y02576276D01*
X02865616D01*
X02864616Y02575276D01*
Y02574277D01*
X02865616Y02573277D01*
X02868615D01*
X02906617Y02582776D02*
X02905617Y02583776D01*
X02903618D01*
X02902618Y02582776D01*
Y02578778D01*
X02903618Y02577778D01*
X02905617D01*
X02906617Y02578778D01*
X02908616Y02582776D02*
X02909616Y02583776D01*
X02911615D01*
X02912615Y02582776D01*
Y02581777D01*
X02911615Y02580777D01*
X02912615Y02579778D01*
Y02578778D01*
X02911615Y02577778D01*
X02909616D01*
X02908616Y02578778D01*
Y02579778D01*
X02909616Y02580777D01*
X02908616Y02581777D01*
Y02582776D01*
X02909616Y02580777D02*
X02911615D01*
X02957617Y02587776D02*
X02956617Y02588776D01*
X02954618D01*
X02953618Y02587776D01*
Y02583778D01*
X02954618Y02582778D01*
X02956617D01*
X02957617Y02583778D01*
X02959616Y02588776D02*
X02963615D01*
Y02587776D01*
X02959616Y02583778D01*
Y02582778D01*
X02866117Y02497776D02*
X02865117Y02498776D01*
X02863118D01*
X02862118Y02497776D01*
Y02493778D01*
X02863118Y02492778D01*
X02865117D01*
X02866117Y02493778D01*
X02868116Y02497776D02*
X02869116Y02498776D01*
X02871115D01*
X02872115Y02497776D01*
Y02496777D01*
X02871115Y02495777D01*
X02870115D01*
X02871115D01*
X02872115Y02494777D01*
Y02493778D01*
X02871115Y02492778D01*
X02869116D01*
X02868116Y02493778D01*
X02890367Y02480776D02*
X02889367Y02481776D01*
X02887368D01*
X02886368Y02480776D01*
Y02476778D01*
X02887368Y02475778D01*
X02889367D01*
X02890367Y02476778D01*
X02896365Y02475778D02*
X02892366D01*
X02896365Y02479777D01*
Y02480776D01*
X02895365Y02481776D01*
X02893366D01*
X02892366Y02480776D01*
X02916117Y02602776D02*
X02915117Y02603776D01*
X02913118D01*
X02912118Y02602776D01*
Y02598778D01*
X02913118Y02597778D01*
X02915117D01*
X02916117Y02598778D01*
X02918116Y02597778D02*
X02920115D01*
X02919116D01*
Y02603776D01*
X02918116Y02602776D01*
X03008368Y02598528D02*
Y02602527D01*
X03010367Y02604526D01*
X03012367Y02602527D01*
Y02598528D01*
Y02601527D01*
X03008368D01*
X03014366Y02598528D02*
X03016365D01*
X03015366D01*
Y02604526D01*
X03014366Y02603526D01*
X02995617Y02473276D02*
X02994617Y02474276D01*
X02992618D01*
X02991618Y02473276D01*
Y02469278D01*
X02992618Y02468278D01*
X02994617D01*
X02995617Y02469278D01*
X02997616Y02468278D02*
X02999615D01*
X02998616D01*
Y02474276D01*
X02997616Y02473276D01*
X03006613Y02474276D02*
X03002614D01*
Y02471277D01*
X03004614Y02472277D01*
X03005613D01*
X03006613Y02471277D01*
Y02469278D01*
X03005613Y02468278D01*
X03003614D01*
X03002614Y02469278D01*
X02993118Y02458528D02*
Y02464526D01*
X02996117D01*
X02997117Y02463526D01*
Y02461527D01*
X02996117Y02460527D01*
X02993118D01*
X02995117D02*
X02997117Y02458528D01*
X03002115D02*
Y02464526D01*
X02999116Y02461527D01*
X03003115D01*
X02996868Y02433528D02*
Y02439526D01*
X02999867D01*
X03000867Y02438526D01*
Y02436527D01*
X02999867Y02435527D01*
X02996868D01*
X02998867D02*
X03000867Y02433528D01*
X03006865Y02439526D02*
X03002866D01*
Y02436527D01*
X03004865Y02437527D01*
X03005865D01*
X03006865Y02436527D01*
Y02434528D01*
X03005865Y02433528D01*
X03003866D01*
X03002866Y02434528D01*
X02932868Y02468028D02*
Y02474026D01*
X02935867D01*
X02936867Y02473026D01*
Y02471027D01*
X02935867Y02470027D01*
X02932868D01*
X02934867D02*
X02936867Y02468028D01*
X02942865Y02474026D02*
X02940865Y02473026D01*
X02938866Y02471027D01*
Y02469028D01*
X02939866Y02468028D01*
X02941865D01*
X02942865Y02469028D01*
Y02470027D01*
X02941865Y02471027D01*
X02938866D01*
X02921118Y02422528D02*
Y02428526D01*
X02924117D01*
X02925117Y02427526D01*
Y02425527D01*
X02924117Y02424527D01*
X02921118D01*
X02923117D02*
X02925117Y02422528D01*
X02927116Y02427526D02*
X02928116Y02428526D01*
X02930115D01*
X02931115Y02427526D01*
Y02426527D01*
X02930115Y02425527D01*
X02931115Y02424527D01*
Y02423528D01*
X02930115Y02422528D01*
X02928116D01*
X02927116Y02423528D01*
Y02424527D01*
X02928116Y02425527D01*
X02927116Y02426527D01*
Y02427526D01*
X02928116Y02425527D02*
X02930115D01*
X02914868Y02431278D02*
Y02437276D01*
X02917867D01*
X02918867Y02436276D01*
Y02434277D01*
X02917867Y02433277D01*
X02914868D01*
X02916867D02*
X02918867Y02431278D01*
X02920866Y02432278D02*
X02921866Y02431278D01*
X02923865D01*
X02924865Y02432278D01*
Y02436276D01*
X02923865Y02437276D01*
X02921866D01*
X02920866Y02436276D01*
Y02435277D01*
X02921866Y02434277D01*
X02924865D01*
X02903618Y02439778D02*
Y02445776D01*
X02906617D01*
X02907617Y02444776D01*
Y02442777D01*
X02906617Y02441777D01*
X02903618D01*
X02905617D02*
X02907617Y02439778D01*
X02909616D02*
X02911615D01*
X02910616D01*
Y02445776D01*
X02909616Y02444776D01*
X02914614D02*
X02915614Y02445776D01*
X02917614D01*
X02918613Y02444776D01*
Y02440778D01*
X02917614Y02439778D01*
X02915614D01*
X02914614Y02440778D01*
Y02444776D01*
X02982368Y02433778D02*
Y02439776D01*
X02985367D01*
X02986367Y02438776D01*
Y02436777D01*
X02985367Y02435777D01*
X02982368D01*
X02984367D02*
X02986367Y02433778D01*
X02988366Y02439776D02*
X02992365D01*
Y02438776D01*
X02988366Y02434778D01*
Y02433778D01*
X02983618Y02482776D02*
Y02477778D01*
X02984618Y02476778D01*
X02986617D01*
X02987617Y02477778D01*
Y02482776D01*
X02992615Y02476778D02*
Y02482776D01*
X02989616Y02479777D01*
X02993615D01*
X02975870Y02540527D02*
X02974870Y02539527D01*
Y02537528D01*
X02975870Y02536528D01*
X02979868D01*
X02980868Y02537528D01*
Y02539527D01*
X02979868Y02540527D01*
X02980868Y02542526D02*
Y02544525D01*
Y02543526D01*
X02974870D01*
X02975870Y02542526D01*
X02980868Y02547524D02*
Y02549524D01*
Y02548524D01*
X02974870D01*
X02975870Y02547524D01*
X02976370Y02563277D02*
X02975370Y02562277D01*
Y02560278D01*
X02976370Y02559278D01*
X02980368D01*
X02981368Y02560278D01*
Y02562277D01*
X02980368Y02563277D01*
X02981368Y02568275D02*
X02975370D01*
X02978369Y02565276D01*
Y02569275D01*
X02978618Y02583028D02*
Y02589026D01*
X02981617D01*
X02982617Y02588026D01*
Y02586027D01*
X02981617Y02585027D01*
X02978618D01*
X02980617D02*
X02982617Y02583028D01*
X02984616D02*
X02986615D01*
X02985616D01*
Y02589026D01*
X02984616Y02588026D01*
M02*
