%FSAX44Y44*%
%MOMM*%
G71*
G01*
G75*
%ADD10R,2.0320X0.7620*%
%ADD11R,0.6000X0.6000*%
%ADD12O,1.8000X0.4500*%
%ADD13R,0.5000X0.6000*%
%ADD14R,0.9000X0.7000*%
%ADD15R,0.6000X0.5000*%
%ADD16R,2.1000X1.4750*%
%ADD17R,1.3800X0.4500*%
%ADD18R,1.9000X2.3750*%
%ADD19R,1.9000X1.1750*%
%ADD20R,0.7000X0.9000*%
%ADD21R,1.4000X0.7000*%
%ADD22O,2.1000X0.3500*%
%ADD23C,0.2000*%
%ADD24C,0.3000*%
%ADD25C,0.6000*%
%ADD26C,1.0160*%
%ADD27C,1.3000*%
G04:AMPARAMS|DCode=28|XSize=1.4mm|YSize=1.4mm|CornerRadius=0mm|HoleSize=0mm|Usage=FLASHONLY|Rotation=0.000|XOffset=0mm|YOffset=0mm|HoleType=Round|Shape=Relief|Width=0.15mm|Gap=0.15mm|Entries=4|*
%AMTHD28*
7,0,0,1.4000,1.1000,0.1500,45*
%
%ADD28THD28*%
%ADD29C,0.2500*%
%ADD30C,0.6000*%
%ADD31C,0.1250*%
%ADD32C,0.1500*%
%ADD33R,2.1820X0.9120*%
%ADD34R,0.7500X0.7500*%
%ADD35O,1.9500X0.6000*%
%ADD36R,0.6500X0.7500*%
%ADD37R,1.0500X0.8500*%
%ADD38R,0.7500X0.6500*%
%ADD39R,2.2500X1.6250*%
%ADD40R,1.5300X0.6000*%
%ADD41R,2.0500X2.5250*%
%ADD42R,2.0500X1.3250*%
%ADD43R,0.8500X1.0500*%
%ADD44R,1.5500X0.8500*%
%ADD45O,2.2500X0.5000*%
%ADD46C,0.7500*%
%ADD47C,0.1000*%
%ADD48C,0.1270*%
D48*
X00435500Y00386250D02*
X00438500D01*
X00437000Y00384750D02*
Y00387750D01*
X00436000Y00363250D02*
X00439000D01*
X00437500Y00361750D02*
Y00364750D01*
X00467250Y00325250D02*
X00470250D01*
X00468750Y00323750D02*
Y00326750D01*
X00453000Y00298750D02*
X00456000D01*
X00454500Y00297250D02*
Y00300250D01*
X00436660Y00325200D02*
X00439660D01*
X00438160Y00323700D02*
Y00326700D01*
X00432250Y00305000D02*
X00435250D01*
X00433750Y00303500D02*
Y00306500D01*
X00290500Y00368625D02*
X00293500D01*
X00292000Y00367125D02*
Y00370125D01*
X00291250Y00319375D02*
X00294250D01*
X00292750Y00317875D02*
Y00320875D01*
X00268250Y00314875D02*
X00271250D01*
X00269750Y00313375D02*
Y00316375D01*
X00267500Y00373125D02*
X00270500D01*
X00269000Y00371625D02*
Y00374625D01*
X00262500Y00264000D02*
X00265500D01*
X00264000Y00262500D02*
Y00265500D01*
X00332250Y00382750D02*
X00335250D01*
X00333750Y00381250D02*
Y00384250D01*
X00422500Y00264000D02*
X00425500D01*
X00424000Y00262500D02*
Y00265500D01*
X00462500Y00264000D02*
X00465500D01*
X00464000Y00262500D02*
Y00265500D01*
X00492500Y00304000D02*
X00495500D01*
X00494000Y00302500D02*
Y00305500D01*
X00492500Y00264000D02*
X00495500D01*
X00494000Y00262500D02*
Y00265500D01*
X00492500Y00344000D02*
X00495500D01*
X00494000Y00342500D02*
Y00345500D01*
X00492500Y00384000D02*
X00495500D01*
X00494000Y00382500D02*
Y00385500D01*
X00400000Y00370000D02*
X00403000D01*
X00401500Y00368500D02*
Y00371500D01*
X00371500Y00312750D02*
X00374500D01*
X00373000Y00311250D02*
Y00314250D01*
X00272500Y00344000D02*
X00275500D01*
X00274000Y00342500D02*
Y00345500D01*
X00492500Y00424000D02*
X00495500D01*
X00494000Y00422500D02*
Y00425500D01*
X00262500Y00424000D02*
X00265500D01*
X00264000Y00422500D02*
Y00425500D01*
X00422500Y00424000D02*
X00425500D01*
X00424000Y00422500D02*
Y00425500D01*
X00342500Y00424000D02*
X00345500D01*
X00344000Y00422500D02*
Y00425500D01*
X00302500Y00424000D02*
X00305500D01*
X00304000Y00422500D02*
Y00425500D01*
X00382500Y00424000D02*
X00385500D01*
X00384000Y00422500D02*
Y00425500D01*
X00462500Y00424000D02*
X00465500D01*
X00464000Y00422500D02*
Y00425500D01*
X00289500Y00276250D02*
X00292500D01*
X00291000Y00274750D02*
Y00277750D01*
X00299750Y00398000D02*
X00302750D01*
X00301250Y00396500D02*
Y00399500D01*
X00441750Y00298750D02*
X00444750D01*
X00443250Y00297250D02*
Y00300250D01*
M02*
