%FSAX44Y44*%
%MOMM*%
G71*
G01*
G75*
G04 Layer_Color=2752767*
%ADD10R,2.0320X0.7620*%
%ADD11R,0.6000X0.6000*%
%ADD12O,1.8000X0.4500*%
%ADD13R,0.5000X0.6000*%
%ADD14R,0.9000X0.7000*%
%ADD15R,0.6000X0.5000*%
%ADD16R,2.1000X1.4750*%
%ADD17R,1.3800X0.4500*%
%ADD18R,1.9000X2.3750*%
%ADD19R,1.9000X1.1750*%
%ADD20R,0.7000X0.9000*%
%ADD21R,1.4000X0.7000*%
%ADD22O,2.1000X0.3500*%
%ADD23C,0.2000*%
%ADD24C,0.3000*%
%ADD25C,0.6000*%
%ADD26C,1.0160*%
%ADD27C,1.3000*%
G04:AMPARAMS|DCode=28|XSize=1.4mm|YSize=1.4mm|CornerRadius=0mm|HoleSize=0mm|Usage=FLASHONLY|Rotation=0.000|XOffset=0mm|YOffset=0mm|HoleType=Round|Shape=Relief|Width=0.15mm|Gap=0.15mm|Entries=4|*
%AMTHD28*
7,0,0,1.4000,1.1000,0.1500,45*
%
%ADD28THD28*%
%ADD29C,0.2500*%
%ADD30C,0.6000*%
%ADD31C,0.1250*%
%ADD32C,0.1500*%
%ADD33R,2.1820X0.9120*%
%ADD34R,0.7500X0.7500*%
%ADD35O,1.9500X0.6000*%
%ADD36R,0.6500X0.7500*%
%ADD37R,1.0500X0.8500*%
%ADD38R,0.7500X0.6500*%
%ADD39R,2.2500X1.6250*%
%ADD40R,1.5300X0.6000*%
%ADD41R,2.0500X2.5250*%
%ADD42R,2.0500X1.3250*%
%ADD43R,0.8500X1.0500*%
%ADD44R,1.5500X0.8500*%
%ADD45O,2.2500X0.5000*%
%ADD46C,0.7500*%
%ADD47C,0.1000*%
%ADD48C,0.1270*%
D48*
X00431920Y00381170D02*
Y00391330D01*
X00442080D01*
Y00381170D01*
X00431920D01*
X00432420Y00358170D02*
Y00368330D01*
X00442580D01*
Y00358170D01*
X00432420D01*
X00463670Y00320170D02*
Y00330330D01*
X00473830D01*
Y00320170D01*
X00463670D01*
X00449420Y00293670D02*
Y00303830D01*
X00459580D01*
Y00293670D01*
X00449420D01*
X00433080Y00320120D02*
Y00330280D01*
X00443240D01*
Y00320120D01*
X00433080D01*
X00428670Y00299920D02*
Y00310080D01*
X00438830D01*
Y00299920D01*
X00428670D01*
X00286920Y00363545D02*
Y00373705D01*
X00297080D01*
Y00363545D01*
X00286920D01*
X00287670Y00314295D02*
Y00324455D01*
X00297830D01*
Y00314295D01*
X00287670D01*
X00264670Y00309795D02*
Y00319955D01*
X00274830D01*
Y00309795D01*
X00264670D01*
X00263920Y00368045D02*
Y00378205D01*
X00274080D01*
Y00368045D01*
X00263920D01*
X00258920Y00258920D02*
Y00269080D01*
X00269080D01*
Y00258920D01*
X00258920D01*
X00328670Y00377670D02*
Y00387830D01*
X00338830D01*
Y00377670D01*
X00328670D01*
X00418920Y00258920D02*
Y00269080D01*
X00429080D01*
Y00258920D01*
X00418920D01*
X00458920D02*
Y00269080D01*
X00469080D01*
Y00258920D01*
X00458920D01*
X00488920Y00298920D02*
Y00309080D01*
X00499080D01*
Y00298920D01*
X00488920D01*
Y00258920D02*
Y00269080D01*
X00499080D01*
Y00258920D01*
X00488920D01*
Y00338920D02*
Y00349080D01*
X00499080D01*
Y00338920D01*
X00488920D01*
Y00378920D02*
Y00389080D01*
X00499080D01*
Y00378920D01*
X00488920D01*
X00396420Y00364920D02*
Y00375080D01*
X00406580D01*
Y00364920D01*
X00396420D01*
X00367920Y00307670D02*
Y00317830D01*
X00378080D01*
Y00307670D01*
X00367920D01*
X00268920Y00338920D02*
Y00349080D01*
X00279080D01*
Y00338920D01*
X00268920D01*
X00488920Y00418920D02*
Y00429080D01*
X00499080D01*
Y00418920D01*
X00488920D01*
X00258920D02*
Y00429080D01*
X00269080D01*
Y00418920D01*
X00258920D01*
X00418920D02*
Y00429080D01*
X00429080D01*
Y00418920D01*
X00418920D01*
X00338920D02*
Y00429080D01*
X00349080D01*
Y00418920D01*
X00338920D01*
X00298920D02*
Y00429080D01*
X00309080D01*
Y00418920D01*
X00298920D01*
X00378920D02*
Y00429080D01*
X00389080D01*
Y00418920D01*
X00378920D01*
X00458920D02*
Y00429080D01*
X00469080D01*
Y00418920D01*
X00458920D01*
X00285920Y00271170D02*
Y00281330D01*
X00296080D01*
Y00271170D01*
X00285920D01*
X00296170Y00392920D02*
Y00403080D01*
X00306330D01*
Y00392920D01*
X00296170D01*
X00438170Y00293670D02*
Y00303830D01*
X00448330D01*
Y00293670D01*
X00438170D01*
M02*
