%FSAX44Y44*%
%MOMM*%
G71*
G01*
G75*
G04 Layer_Color=8421504*
%ADD10R,2.0320X0.7620*%
%ADD11R,0.6000X0.6000*%
%ADD12O,1.8000X0.4500*%
%ADD13R,0.5000X0.6000*%
%ADD14R,0.9000X0.7000*%
%ADD15R,0.6000X0.5000*%
%ADD16R,2.1000X1.4750*%
%ADD17R,1.3800X0.4500*%
%ADD18R,1.9000X2.3750*%
%ADD19R,1.9000X1.1750*%
%ADD20R,0.7000X0.9000*%
%ADD21R,1.4000X0.7000*%
%ADD22O,2.1000X0.3500*%
%ADD23C,0.2000*%
%ADD24C,0.3000*%
%ADD25C,0.6000*%
%ADD26C,1.0160*%
%ADD27C,1.3000*%
G04:AMPARAMS|DCode=28|XSize=1.4mm|YSize=1.4mm|CornerRadius=0mm|HoleSize=0mm|Usage=FLASHONLY|Rotation=0.000|XOffset=0mm|YOffset=0mm|HoleType=Round|Shape=Relief|Width=0.15mm|Gap=0.15mm|Entries=4|*
%AMTHD28*
7,0,0,1.4000,1.1000,0.1500,45*
%
%ADD28THD28*%
%ADD29C,0.2500*%
%ADD30C,0.6000*%
%ADD31C,0.1250*%
%ADD32C,0.1500*%
D10*
X00468640Y00325200D02*
D03*
Y00337900D02*
D03*
Y00350600D02*
D03*
Y00363300D02*
D03*
X00438160Y00325200D02*
D03*
Y00337900D02*
D03*
Y00350600D02*
D03*
Y00363300D02*
D03*
D11*
X00458000Y00401750D02*
D03*
Y00379750D02*
D03*
X00477250Y00401750D02*
D03*
Y00379750D02*
D03*
D12*
X00418500Y00386000D02*
D03*
Y00392500D02*
D03*
Y00399000D02*
D03*
Y00405500D02*
D03*
X00377000Y00386000D02*
D03*
Y00392500D02*
D03*
Y00399000D02*
D03*
Y00405500D02*
D03*
D13*
X00310000Y00343750D02*
D03*
Y00333750D02*
D03*
X00320500Y00286000D02*
D03*
Y00296000D02*
D03*
X00317000Y00353250D02*
D03*
Y00363250D02*
D03*
X00348000Y00392500D02*
D03*
Y00402500D02*
D03*
X00318750Y00330250D02*
D03*
Y00340250D02*
D03*
D14*
X00358750Y00392500D02*
D03*
Y00407500D02*
D03*
X00437000Y00386250D02*
D03*
Y00401250D02*
D03*
X00337000Y00392500D02*
D03*
Y00407500D02*
D03*
D15*
X00358750Y00382500D02*
D03*
X00348750D02*
D03*
X00433750Y00290000D02*
D03*
X00443750D02*
D03*
X00304250Y00306000D02*
D03*
X00314250D02*
D03*
X00267250Y00408750D02*
D03*
X00277250D02*
D03*
X00320500Y00383000D02*
D03*
X00310500D02*
D03*
D16*
X00292750Y00319375D02*
D03*
Y00368625D02*
D03*
D17*
X00296350Y00350500D02*
D03*
Y00357000D02*
D03*
Y00344000D02*
D03*
Y00337500D02*
D03*
Y00331000D02*
D03*
D18*
X00269750Y00373125D02*
D03*
Y00314875D02*
D03*
D19*
Y00352375D02*
D03*
Y00335625D02*
D03*
D20*
X00325500Y00393500D02*
D03*
X00310500D02*
D03*
X00282250Y00398250D02*
D03*
X00267250D02*
D03*
D21*
X00276250Y00291250D02*
D03*
X00308250D02*
D03*
Y00276250D02*
D03*
X00276250D02*
D03*
D22*
X00407500Y00270500D02*
D03*
Y00277000D02*
D03*
Y00283500D02*
D03*
Y00290000D02*
D03*
Y00296500D02*
D03*
Y00303000D02*
D03*
Y00309500D02*
D03*
Y00316000D02*
D03*
Y00322500D02*
D03*
Y00329000D02*
D03*
Y00335500D02*
D03*
Y00342000D02*
D03*
Y00348500D02*
D03*
Y00355000D02*
D03*
X00338500Y00270500D02*
D03*
Y00277000D02*
D03*
Y00283500D02*
D03*
Y00290000D02*
D03*
Y00296500D02*
D03*
Y00303000D02*
D03*
Y00309500D02*
D03*
Y00316000D02*
D03*
Y00322500D02*
D03*
Y00329000D02*
D03*
Y00335500D02*
D03*
Y00342000D02*
D03*
Y00348500D02*
D03*
Y00355000D02*
D03*
M02*
