%FSAX44Y44*%
%MOMM*%
G71*
G01*
G75*
G04 Layer_Color=65535*
%ADD10R,2.0320X0.7620*%
%ADD11R,0.6000X0.6000*%
%ADD12O,1.8000X0.4500*%
%ADD13R,0.5000X0.6000*%
%ADD14R,0.9000X0.7000*%
%ADD15R,0.6000X0.5000*%
%ADD16R,2.1000X1.4750*%
%ADD17R,1.3800X0.4500*%
%ADD18R,1.9000X2.3750*%
%ADD19R,1.9000X1.1750*%
%ADD20R,0.7000X0.9000*%
%ADD21R,1.4000X0.7000*%
%ADD22O,2.1000X0.3500*%
%ADD23C,0.2000*%
%ADD24C,0.3000*%
%ADD25C,0.6000*%
%ADD26C,1.0160*%
%ADD27C,1.3000*%
G04:AMPARAMS|DCode=28|XSize=1.4mm|YSize=1.4mm|CornerRadius=0mm|HoleSize=0mm|Usage=FLASHONLY|Rotation=0.000|XOffset=0mm|YOffset=0mm|HoleType=Round|Shape=Relief|Width=0.15mm|Gap=0.15mm|Entries=4|*
%AMTHD28*
7,0,0,1.4000,1.1000,0.1500,45*
%
%ADD28THD28*%
%ADD29C,0.2500*%
%ADD30C,0.6000*%
%ADD31C,0.1250*%
%ADD32C,0.1500*%
D23*
X00313260Y00299750D02*
G03*
X00313260Y00299750I-00000010J00000000D01*
G01*
X00431000Y00318250D02*
X00509000D01*
X00431000Y00370250D02*
X00508000D01*
X00454000Y00395750D02*
X00462000D01*
X00454000Y00385750D02*
X00462000D01*
X00454000D02*
X00458000Y00395750D01*
X00462000Y00385750D01*
X00473250Y00395750D02*
X00481250D01*
X00473250Y00385750D02*
X00481250D01*
X00473250D02*
X00477250Y00395750D01*
X00481250Y00385750D01*
X00405500Y00379750D02*
Y00411750D01*
X00390000Y00379750D02*
Y00411750D01*
Y00379750D02*
X00405500D01*
X00390000Y00411750D02*
X00405500D01*
X00355250Y00398000D02*
Y00402000D01*
X00362250Y00398000D02*
Y00402000D01*
X00433500Y00391750D02*
Y00395750D01*
X00440500Y00391750D02*
Y00395750D01*
X00283250Y00304000D02*
X00298250D01*
Y00309000D01*
X00283250Y00384000D02*
X00298250D01*
Y00379000D02*
Y00384000D01*
X00316000Y00390000D02*
X00320000D01*
X00316000Y00397000D02*
X00320000D01*
X00274250Y00297750D02*
Y00299750D01*
X00310250D01*
Y00297750D02*
Y00299750D01*
Y00267750D02*
Y00269750D01*
X00274250Y00267750D02*
X00310250D01*
X00274250D02*
Y00269750D01*
X00310250Y00282750D02*
Y00284750D01*
X00274250Y00282750D02*
Y00284750D01*
X00393000Y00260250D02*
Y00365250D01*
X00353000Y00260250D02*
Y00365250D01*
Y00260250D02*
X00393000D01*
X00353000Y00365250D02*
X00393000D01*
X00333500Y00398000D02*
Y00402000D01*
X00340500Y00398000D02*
Y00402000D01*
X00272750Y00393250D02*
X00276750D01*
X00272750Y00403250D02*
X00276750D01*
D29*
X00419750Y00378250D02*
G03*
X00419750Y00378250I-00001250J00000000D01*
G01*
X00408750Y00263250D02*
G03*
X00408750Y00263250I-00001250J00000000D01*
G01*
D30*
X00386000Y00270250D02*
G03*
X00386000Y00270250I-00003000J00000000D01*
G01*
D31*
X00272750Y00398250D02*
X00276750Y00400750D01*
Y00395750D02*
Y00400750D01*
X00272750Y00398250D02*
X00276750Y00395750D01*
X00272750Y00395750D02*
Y00400750D01*
X00468500Y00308000D02*
Y00313998D01*
X00471499D01*
X00472499Y00312998D01*
Y00310999D01*
X00471499Y00309999D01*
X00468500D01*
X00474498Y00308000D02*
X00476497D01*
X00475498D01*
Y00313998D01*
X00474498Y00312998D01*
X00453500Y00413998D02*
Y00408000D01*
X00456499D01*
X00457499Y00409000D01*
Y00412998D01*
X00456499Y00413998D01*
X00453500D01*
X00462497Y00408000D02*
Y00413998D01*
X00459498Y00410999D01*
X00463497D01*
X00472250Y00414248D02*
Y00408250D01*
X00475249D01*
X00476249Y00409250D01*
Y00413248D01*
X00475249Y00414248D01*
X00472250D01*
X00478248Y00413248D02*
X00479248Y00414248D01*
X00481247D01*
X00482247Y00413248D01*
Y00412249D01*
X00481247Y00411249D01*
X00480247D01*
X00481247D01*
X00482247Y00410249D01*
Y00409250D01*
X00481247Y00408250D01*
X00479248D01*
X00478248Y00409250D01*
X00370000Y00415998D02*
Y00411000D01*
X00371000Y00410000D01*
X00372999D01*
X00373999Y00411000D01*
Y00415998D01*
X00375998Y00410000D02*
X00377997D01*
X00376998D01*
Y00415998D01*
X00375998Y00414998D01*
X00306752Y00316249D02*
X00305752Y00315249D01*
Y00313250D01*
X00306752Y00312250D01*
X00310750D01*
X00311750Y00313250D01*
Y00315249D01*
X00310750Y00316249D01*
Y00318248D02*
X00311750Y00319248D01*
Y00321247D01*
X00310750Y00322247D01*
X00306752D01*
X00305752Y00321247D01*
Y00319248D01*
X00306752Y00318248D01*
X00307751D01*
X00308751Y00319248D01*
Y00322247D01*
X00454749Y00292498D02*
X00453749Y00293498D01*
X00451750D01*
X00450750Y00292498D01*
Y00288500D01*
X00451750Y00287500D01*
X00453749D01*
X00454749Y00288500D01*
X00459747Y00287500D02*
Y00293498D01*
X00456748Y00290499D01*
X00460747D01*
X00337502Y00379499D02*
X00336502Y00378499D01*
Y00376500D01*
X00337502Y00375500D01*
X00341500D01*
X00342500Y00376500D01*
Y00378499D01*
X00341500Y00379499D01*
X00337502Y00381498D02*
X00336502Y00382498D01*
Y00384497D01*
X00337502Y00385497D01*
X00338501D01*
X00339501Y00384497D01*
Y00383497D01*
Y00384497D01*
X00340501Y00385497D01*
X00341500D01*
X00342500Y00384497D01*
Y00382498D01*
X00341500Y00381498D01*
X00337750Y00262498D02*
Y00257500D01*
X00338750Y00256500D01*
X00340749D01*
X00341749Y00257500D01*
Y00262498D01*
X00347747Y00256500D02*
X00343748D01*
X00347747Y00260499D01*
Y00261498D01*
X00346747Y00262498D01*
X00344748D01*
X00343748Y00261498D01*
X00323750Y00270000D02*
X00317752D01*
Y00272999D01*
X00318752Y00273999D01*
X00320751D01*
X00321751Y00272999D01*
Y00270000D01*
Y00271999D02*
X00323750Y00273999D01*
X00318752Y00275998D02*
X00317752Y00276998D01*
Y00278997D01*
X00318752Y00279997D01*
X00319751D01*
X00320751Y00278997D01*
Y00277997D01*
Y00278997D01*
X00321751Y00279997D01*
X00322750D01*
X00323750Y00278997D01*
Y00276998D01*
X00322750Y00275998D01*
X00314500Y00310750D02*
Y00316748D01*
X00317499D01*
X00318499Y00315748D01*
Y00313749D01*
X00317499Y00312749D01*
X00314500D01*
X00316499D02*
X00318499Y00310750D01*
X00324497D02*
X00320498D01*
X00324497Y00314749D01*
Y00315748D01*
X00323497Y00316748D01*
X00321498D01*
X00320498Y00315748D01*
X00283500Y00405750D02*
Y00411748D01*
X00286499D01*
X00287499Y00410748D01*
Y00408749D01*
X00286499Y00407749D01*
X00283500D01*
X00285499D02*
X00287499Y00405750D01*
X00289498D02*
X00291497D01*
X00290498D01*
Y00411748D01*
X00289498Y00410748D01*
X00311999Y00406748D02*
X00308000D01*
Y00403749D01*
X00309999D01*
X00308000D01*
Y00400750D01*
X00317997Y00406748D02*
X00313998D01*
Y00400750D01*
X00317997D01*
X00313998Y00403749D02*
X00315997D01*
X00319996Y00400750D02*
X00321996D01*
X00320996D01*
Y00406748D01*
X00319996Y00405748D01*
X00287500Y00263498D02*
Y00257500D01*
X00290499D01*
X00291499Y00258500D01*
Y00262498D01*
X00290499Y00263498D01*
X00287500D01*
X00297497Y00257500D02*
X00293498D01*
X00297497Y00261499D01*
Y00262498D01*
X00296497Y00263498D01*
X00294498D01*
X00293498Y00262498D01*
X00306002Y00355249D02*
X00305002Y00354249D01*
Y00352250D01*
X00306002Y00351250D01*
X00310000D01*
X00311000Y00352250D01*
Y00354249D01*
X00310000Y00355249D01*
X00311000Y00357248D02*
Y00359247D01*
Y00358248D01*
X00305002D01*
X00306002Y00357248D01*
Y00362246D02*
X00305002Y00363246D01*
Y00365246D01*
X00306002Y00366245D01*
X00310000D01*
X00311000Y00365246D01*
Y00363246D01*
X00310000Y00362246D01*
X00306002D01*
X00328252Y00379249D02*
X00327252Y00378249D01*
Y00376250D01*
X00328252Y00375250D01*
X00332250D01*
X00333250Y00376250D01*
Y00378249D01*
X00332250Y00379249D01*
X00328252Y00381248D02*
X00327252Y00382248D01*
Y00384247D01*
X00328252Y00385247D01*
X00329251D01*
X00330251Y00384247D01*
X00331251Y00385247D01*
X00332250D01*
X00333250Y00384247D01*
Y00382248D01*
X00332250Y00381248D01*
X00331251D01*
X00330251Y00382248D01*
X00329251Y00381248D01*
X00328252D01*
X00330251Y00382248D02*
Y00384247D01*
X00334752Y00417999D02*
X00333752Y00416999D01*
Y00415000D01*
X00334752Y00414000D01*
X00338750D01*
X00339750Y00415000D01*
Y00416999D01*
X00338750Y00417999D01*
X00333752Y00423997D02*
X00334752Y00421997D01*
X00336751Y00419998D01*
X00338750D01*
X00339750Y00420998D01*
Y00422997D01*
X00338750Y00423997D01*
X00337751D01*
X00336751Y00422997D01*
Y00419998D01*
X00345752Y00412249D02*
X00344752Y00411249D01*
Y00409250D01*
X00345752Y00408250D01*
X00349750D01*
X00350750Y00409250D01*
Y00411249D01*
X00349750Y00412249D01*
X00344752Y00418247D02*
Y00414248D01*
X00347751D01*
X00346751Y00416247D01*
Y00417247D01*
X00347751Y00418247D01*
X00349750D01*
X00350750Y00417247D01*
Y00415248D01*
X00349750Y00414248D01*
X00356252Y00418249D02*
X00355252Y00417249D01*
Y00415250D01*
X00356252Y00414250D01*
X00360250D01*
X00361250Y00415250D01*
Y00417249D01*
X00360250Y00418249D01*
X00361250Y00424247D02*
Y00420248D01*
X00357251Y00424247D01*
X00356252D01*
X00355252Y00423247D01*
Y00421248D01*
X00356252Y00420248D01*
X00437249Y00413498D02*
X00436249Y00414498D01*
X00434250D01*
X00433250Y00413498D01*
Y00409500D01*
X00434250Y00408500D01*
X00436249D01*
X00437249Y00409500D01*
X00439248Y00408500D02*
X00441247D01*
X00440248D01*
Y00414498D01*
X00439248Y00413498D01*
X00318749Y00324498D02*
X00317749Y00325498D01*
X00315750D01*
X00314750Y00324498D01*
Y00320500D01*
X00315750Y00319500D01*
X00317749D01*
X00318749Y00320500D01*
X00320748Y00325498D02*
X00324747D01*
Y00324498D01*
X00320748Y00320500D01*
Y00319500D01*
X00288000Y00394248D02*
Y00388250D01*
X00290999D01*
X00291999Y00389250D01*
Y00393248D01*
X00290999Y00394248D01*
X00288000D01*
X00293998Y00388250D02*
X00295997D01*
X00294998D01*
Y00394248D01*
X00293998Y00393248D01*
X00437250Y00263248D02*
X00439249D01*
X00438250D01*
Y00257250D01*
X00437250D01*
X00439249D01*
X00442248D02*
Y00263248D01*
X00446247Y00257250D01*
Y00263248D01*
X00448246Y00257250D02*
Y00263248D01*
X00451245D01*
X00452245Y00262248D01*
Y00260249D01*
X00451245Y00259249D01*
X00448246D01*
X00450246D02*
X00452245Y00257250D01*
X00454244Y00263248D02*
X00456244D01*
X00455244D01*
Y00257250D01*
X00454244D01*
X00456244D01*
X00459243D02*
Y00261249D01*
X00461242Y00263248D01*
X00463242Y00261249D01*
Y00257250D01*
Y00260249D01*
X00459243D01*
X00471239Y00257250D02*
Y00261249D01*
X00473238Y00263248D01*
X00475238Y00261249D01*
Y00257250D01*
Y00260249D01*
X00471239D01*
X00477237Y00263248D02*
Y00259249D01*
X00479236Y00257250D01*
X00481236Y00259249D01*
Y00263248D01*
X00483235D02*
X00485234D01*
X00484235D01*
Y00257250D01*
X00483235D01*
X00485234D01*
X00488233Y00263248D02*
X00492232D01*
Y00262248D01*
X00488233Y00258250D01*
Y00257250D01*
X00492232D01*
X00437250Y00273748D02*
Y00267750D01*
X00440249D01*
X00441249Y00268750D01*
Y00272748D01*
X00440249Y00273748D01*
X00437250D01*
X00444248Y00267750D02*
X00446247D01*
X00447247Y00268750D01*
Y00270749D01*
X00446247Y00271749D01*
X00444248D01*
X00443248Y00270749D01*
Y00268750D01*
X00444248Y00267750D01*
X00449246D02*
Y00271749D01*
X00452245D01*
X00453245Y00270749D01*
Y00267750D01*
X00457243Y00265751D02*
X00458243D01*
X00459243Y00266750D01*
Y00271749D01*
X00456244D01*
X00455244Y00270749D01*
Y00268750D01*
X00456244Y00267750D01*
X00459243D01*
X00461242D02*
X00463242D01*
X00462242D01*
Y00273748D01*
X00461242D01*
X00469240Y00267750D02*
X00467240D01*
X00466241Y00268750D01*
Y00270749D01*
X00467240Y00271749D01*
X00469240D01*
X00470239Y00270749D01*
Y00269749D01*
X00466241D01*
X00478237Y00273748D02*
Y00269749D01*
X00480236Y00267750D01*
X00482235Y00269749D01*
Y00273748D01*
X00484235Y00267750D02*
X00486234D01*
X00485234D01*
Y00273748D01*
X00484235Y00272748D01*
X00489233Y00267750D02*
Y00268750D01*
X00490233D01*
Y00267750D01*
X00489233D01*
X00494231Y00272748D02*
X00495231Y00273748D01*
X00497230D01*
X00498230Y00272748D01*
Y00268750D01*
X00497230Y00267750D01*
X00495231D01*
X00494231Y00268750D01*
Y00272748D01*
X00437250Y00278250D02*
Y00284248D01*
X00440249D01*
X00441249Y00283248D01*
Y00281249D01*
X00440249Y00280249D01*
X00437250D01*
X00443248Y00282249D02*
Y00278250D01*
Y00280249D01*
X00444248Y00281249D01*
X00445247Y00282249D01*
X00446247D01*
X00450246Y00278250D02*
X00452245D01*
X00453245Y00279250D01*
Y00281249D01*
X00452245Y00282249D01*
X00450246D01*
X00449246Y00281249D01*
Y00279250D01*
X00450246Y00278250D01*
X00457243Y00276251D02*
X00458243D01*
X00459243Y00277250D01*
Y00282249D01*
X00456244D01*
X00455244Y00281249D01*
Y00279250D01*
X00456244Y00278250D01*
X00459243D01*
X00461242Y00282249D02*
Y00278250D01*
Y00280249D01*
X00462242Y00281249D01*
X00463242Y00282249D01*
X00464241D01*
X00468240D02*
X00470239D01*
X00471239Y00281249D01*
Y00278250D01*
X00468240D01*
X00467240Y00279250D01*
X00468240Y00280249D01*
X00471239D01*
X00473238Y00278250D02*
Y00282249D01*
X00474238D01*
X00475238Y00281249D01*
Y00278250D01*
Y00281249D01*
X00476237Y00282249D01*
X00477237Y00281249D01*
Y00278250D01*
X00479236D02*
Y00282249D01*
X00480236D01*
X00481236Y00281249D01*
Y00278250D01*
Y00281249D01*
X00482235Y00282249D01*
X00483235Y00281249D01*
Y00278250D01*
X00485234D02*
X00487234D01*
X00486234D01*
Y00282249D01*
X00485234D01*
X00490233Y00278250D02*
Y00282249D01*
X00493232D01*
X00494231Y00281249D01*
Y00278250D01*
X00498230Y00276251D02*
X00499230D01*
X00500230Y00277250D01*
Y00282249D01*
X00497231D01*
X00496231Y00281249D01*
Y00279250D01*
X00497231Y00278250D01*
X00500230D01*
D32*
X00261252Y00296749D02*
Y00294749D01*
Y00295749D01*
X00266250D01*
X00267250Y00294749D01*
Y00293750D01*
X00266250Y00292750D01*
X00267250Y00298748D02*
Y00300747D01*
Y00299748D01*
X00261252D01*
X00262252Y00298748D01*
M02*
