M48
;Layer_Color=9474304
;FILE_FORMAT=4:4
METRIC
;TYPE=PLATED
T1F00S00C0.3000
%
T01
X00264000Y00264000
X00291000Y00276250
X00292750Y00319375
X00269750Y00314875
X00274000Y00344000
X00269000Y00373125
X00292000Y00368625
X00333750Y00382750
X00373000Y00312750
X00433750Y00305000
X00443250Y00298750
X00454500
X00468750Y00325250
X00438160Y00325200
X00437500Y00363250
X00437000Y00386250
X00401500Y00370000
X00494000Y00384000
Y00344000
Y00304000
Y00264000
X00464000
X00424000
Y00424000
X00464000
X00494000
X00384000
X00344000
X00304000
X00301250Y00398000
X00264000Y00424000
M30
