%FSAX44Y44*%
%MOMM*%
G71*
G01*
G75*
G04 Layer_Physical_Order=4*
G04 Layer_Color=16711680*
%ADD10R,2.0320X0.7620*%
%ADD11R,0.6000X0.6000*%
%ADD12O,1.8000X0.4500*%
%ADD13R,0.5000X0.6000*%
%ADD14R,0.9000X0.7000*%
%ADD15R,0.6000X0.5000*%
%ADD16R,2.1000X1.4750*%
%ADD17R,1.3800X0.4500*%
%ADD18R,1.9000X2.3750*%
%ADD19R,1.9000X1.1750*%
%ADD20R,0.7000X0.9000*%
%ADD21R,1.4000X0.7000*%
%ADD22O,2.1000X0.3500*%
%ADD23C,0.2000*%
%ADD24C,0.3000*%
%ADD25C,0.6000*%
%ADD26C,1.0160*%
%ADD27C,1.3000*%
G04:AMPARAMS|DCode=28|XSize=1.4mm|YSize=1.4mm|CornerRadius=0mm|HoleSize=0mm|Usage=FLASHONLY|Rotation=0.000|XOffset=0mm|YOffset=0mm|HoleType=Round|Shape=Relief|Width=0.15mm|Gap=0.15mm|Entries=4|*
%AMTHD28*
7,0,0,1.4000,1.1000,0.1500,45*
%
%ADD28THD28*%
G36*
X00504000Y00254000D02*
X00254000D01*
X00254000Y00254000D01*
Y00434000D01*
X00504000D01*
Y00254000D01*
D02*
G37*
%LPC*%
G36*
X00292000Y00318625D02*
X00288310D01*
X00288366Y00318200D01*
X00288819Y00317106D01*
X00289541Y00316166D01*
X00290481Y00315444D01*
X00291575Y00314991D01*
X00292000Y00314935D01*
Y00318625D01*
D02*
G37*
G36*
X00373750Y00317190D02*
Y00313500D01*
X00377440D01*
X00377384Y00313925D01*
X00376931Y00315019D01*
X00376209Y00315959D01*
X00375269Y00316681D01*
X00374175Y00317134D01*
X00373750Y00317190D01*
D02*
G37*
G36*
X00372250D02*
X00371825Y00317134D01*
X00370731Y00316681D01*
X00369790Y00315959D01*
X00369069Y00315019D01*
X00368616Y00313925D01*
X00368560Y00313500D01*
X00372250D01*
Y00317190D01*
D02*
G37*
G36*
X00270500Y00319315D02*
Y00315625D01*
X00274190D01*
X00274134Y00316050D01*
X00273681Y00317144D01*
X00272959Y00318084D01*
X00272019Y00318806D01*
X00270925Y00319259D01*
X00270500Y00319315D01*
D02*
G37*
G36*
X00269000D02*
X00268575Y00319259D01*
X00267481Y00318806D01*
X00266541Y00318084D01*
X00265819Y00317144D01*
X00265366Y00316050D01*
X00265310Y00315625D01*
X00269000D01*
Y00319315D01*
D02*
G37*
G36*
X00297190Y00318625D02*
X00293500D01*
Y00314935D01*
X00293925Y00314991D01*
X00295019Y00315444D01*
X00295959Y00316166D01*
X00296681Y00317106D01*
X00297134Y00318200D01*
X00297190Y00318625D01*
D02*
G37*
G36*
X00372250Y00312000D02*
X00368560D01*
X00368616Y00311575D01*
X00369069Y00310481D01*
X00369790Y00309541D01*
X00370731Y00308819D01*
X00371825Y00308366D01*
X00372250Y00308310D01*
Y00312000D01*
D02*
G37*
G36*
X00494750Y00308440D02*
Y00304750D01*
X00498440D01*
X00498384Y00305175D01*
X00497931Y00306269D01*
X00497209Y00307209D01*
X00496269Y00307931D01*
X00495175Y00308384D01*
X00494750Y00308440D01*
D02*
G37*
G36*
X00493250D02*
X00492825Y00308384D01*
X00491731Y00307931D01*
X00490791Y00307209D01*
X00490069Y00306269D01*
X00489616Y00305175D01*
X00489560Y00304750D01*
X00493250D01*
Y00308440D01*
D02*
G37*
G36*
X00274190Y00314125D02*
X00270500D01*
Y00310435D01*
X00270925Y00310491D01*
X00272019Y00310944D01*
X00272959Y00311665D01*
X00273681Y00312606D01*
X00274134Y00313700D01*
X00274190Y00314125D01*
D02*
G37*
G36*
X00269000D02*
X00265310D01*
X00265366Y00313700D01*
X00265819Y00312606D01*
X00266541Y00311665D01*
X00267481Y00310944D01*
X00268575Y00310491D01*
X00269000Y00310435D01*
Y00314125D01*
D02*
G37*
G36*
X00377440Y00312000D02*
X00373750D01*
Y00308310D01*
X00374175Y00308366D01*
X00375269Y00308819D01*
X00376209Y00309541D01*
X00376931Y00310481D01*
X00377384Y00311575D01*
X00377440Y00312000D01*
D02*
G37*
G36*
X00292000Y00323815D02*
X00291575Y00323759D01*
X00290481Y00323306D01*
X00289541Y00322584D01*
X00288819Y00321644D01*
X00288366Y00320550D01*
X00288310Y00320125D01*
X00292000D01*
Y00323815D01*
D02*
G37*
G36*
X00498440Y00343250D02*
X00494750D01*
Y00339560D01*
X00495175Y00339616D01*
X00496269Y00340069D01*
X00497209Y00340791D01*
X00497931Y00341731D01*
X00498384Y00342825D01*
X00498440Y00343250D01*
D02*
G37*
G36*
X00493250D02*
X00489560D01*
X00489616Y00342825D01*
X00490069Y00341731D01*
X00490791Y00340791D01*
X00491731Y00340069D01*
X00492825Y00339616D01*
X00493250Y00339560D01*
Y00343250D01*
D02*
G37*
G36*
X00278440D02*
X00274750D01*
Y00339560D01*
X00275175Y00339616D01*
X00276269Y00340069D01*
X00277209Y00340791D01*
X00277931Y00341731D01*
X00278384Y00342825D01*
X00278440Y00343250D01*
D02*
G37*
G36*
X00493250Y00348440D02*
X00492825Y00348384D01*
X00491731Y00347931D01*
X00490791Y00347209D01*
X00490069Y00346269D01*
X00489616Y00345175D01*
X00489560Y00344750D01*
X00493250D01*
Y00348440D01*
D02*
G37*
G36*
X00274750D02*
Y00344750D01*
X00278440D01*
X00278384Y00345175D01*
X00277931Y00346269D01*
X00277209Y00347209D01*
X00276269Y00347931D01*
X00275175Y00348384D01*
X00274750Y00348440D01*
D02*
G37*
G36*
X00273250D02*
X00272825Y00348384D01*
X00271731Y00347931D01*
X00270791Y00347209D01*
X00270069Y00346269D01*
X00269616Y00345175D01*
X00269560Y00344750D01*
X00273250D01*
Y00348440D01*
D02*
G37*
G36*
X00473190Y00324500D02*
X00469500D01*
Y00320810D01*
X00469925Y00320866D01*
X00471019Y00321319D01*
X00471959Y00322041D01*
X00472681Y00322981D01*
X00473134Y00324075D01*
X00473190Y00324500D01*
D02*
G37*
G36*
X00468000D02*
X00464310D01*
X00464366Y00324075D01*
X00464819Y00322981D01*
X00465541Y00322041D01*
X00466481Y00321319D01*
X00467575Y00320866D01*
X00468000Y00320810D01*
Y00324500D01*
D02*
G37*
G36*
X00293500Y00323815D02*
Y00320125D01*
X00297190D01*
X00297134Y00320550D01*
X00296681Y00321644D01*
X00295959Y00322584D01*
X00295019Y00323306D01*
X00293925Y00323759D01*
X00293500Y00323815D01*
D02*
G37*
G36*
X00273250Y00343250D02*
X00269560D01*
X00269616Y00342825D01*
X00270069Y00341731D01*
X00270791Y00340791D01*
X00271731Y00340069D01*
X00272825Y00339616D01*
X00273250Y00339560D01*
Y00343250D01*
D02*
G37*
G36*
X00469500Y00329690D02*
Y00326000D01*
X00473190D01*
X00473134Y00326425D01*
X00472681Y00327519D01*
X00471959Y00328459D01*
X00471019Y00329181D01*
X00469925Y00329634D01*
X00469500Y00329690D01*
D02*
G37*
G36*
X00468000D02*
X00467575Y00329634D01*
X00466481Y00329181D01*
X00465541Y00328459D01*
X00464819Y00327519D01*
X00464366Y00326425D01*
X00464310Y00326000D01*
X00468000D01*
Y00329690D01*
D02*
G37*
G36*
X00263250Y00268440D02*
X00262825Y00268384D01*
X00261731Y00267931D01*
X00260791Y00267209D01*
X00260069Y00266269D01*
X00259616Y00265175D01*
X00259560Y00264750D01*
X00263250D01*
Y00268440D01*
D02*
G37*
G36*
X00498440Y00263250D02*
X00494750D01*
Y00259560D01*
X00495175Y00259616D01*
X00496269Y00260069D01*
X00497209Y00260791D01*
X00497931Y00261731D01*
X00498384Y00262825D01*
X00498440Y00263250D01*
D02*
G37*
G36*
X00493250D02*
X00489560D01*
X00489616Y00262825D01*
X00490069Y00261731D01*
X00490791Y00260791D01*
X00491731Y00260069D01*
X00492825Y00259616D01*
X00493250Y00259560D01*
Y00263250D01*
D02*
G37*
G36*
X00424750Y00268440D02*
Y00264750D01*
X00428440D01*
X00428384Y00265175D01*
X00427931Y00266269D01*
X00427209Y00267209D01*
X00426269Y00267931D01*
X00425175Y00268384D01*
X00424750Y00268440D01*
D02*
G37*
G36*
X00423250D02*
X00422825Y00268384D01*
X00421731Y00267931D01*
X00420790Y00267209D01*
X00420069Y00266269D01*
X00419616Y00265175D01*
X00419560Y00264750D01*
X00423250D01*
Y00268440D01*
D02*
G37*
G36*
X00264750D02*
Y00264750D01*
X00268440D01*
X00268384Y00265175D01*
X00267931Y00266269D01*
X00267209Y00267209D01*
X00266269Y00267931D01*
X00265175Y00268384D01*
X00264750Y00268440D01*
D02*
G37*
G36*
X00423250Y00263250D02*
X00419560D01*
X00419616Y00262825D01*
X00420069Y00261731D01*
X00420790Y00260791D01*
X00421731Y00260069D01*
X00422825Y00259616D01*
X00423250Y00259560D01*
Y00263250D01*
D02*
G37*
G36*
X00268440D02*
X00264750D01*
Y00259560D01*
X00265175Y00259616D01*
X00266269Y00260069D01*
X00267209Y00260791D01*
X00267931Y00261731D01*
X00268384Y00262825D01*
X00268440Y00263250D01*
D02*
G37*
G36*
X00263250D02*
X00259560D01*
X00259616Y00262825D01*
X00260069Y00261731D01*
X00260791Y00260791D01*
X00261731Y00260069D01*
X00262825Y00259616D01*
X00263250Y00259560D01*
Y00263250D01*
D02*
G37*
G36*
X00468440D02*
X00464750D01*
Y00259560D01*
X00465175Y00259616D01*
X00466269Y00260069D01*
X00467210Y00260791D01*
X00467931Y00261731D01*
X00468384Y00262825D01*
X00468440Y00263250D01*
D02*
G37*
G36*
X00463250D02*
X00459560D01*
X00459616Y00262825D01*
X00460069Y00261731D01*
X00460791Y00260791D01*
X00461731Y00260069D01*
X00462825Y00259616D01*
X00463250Y00259560D01*
Y00263250D01*
D02*
G37*
G36*
X00428440D02*
X00424750D01*
Y00259560D01*
X00425175Y00259616D01*
X00426269Y00260069D01*
X00427209Y00260791D01*
X00427931Y00261731D01*
X00428384Y00262825D01*
X00428440Y00263250D01*
D02*
G37*
G36*
X00463250Y00268440D02*
X00462825Y00268384D01*
X00461731Y00267931D01*
X00460791Y00267209D01*
X00460069Y00266269D01*
X00459616Y00265175D01*
X00459560Y00264750D01*
X00463250D01*
Y00268440D01*
D02*
G37*
G36*
X00444000Y00303190D02*
Y00299500D01*
X00447690D01*
X00447634Y00299925D01*
X00447181Y00301019D01*
X00446459Y00301959D01*
X00445519Y00302681D01*
X00444425Y00303134D01*
X00444000Y00303190D01*
D02*
G37*
G36*
X00442500D02*
X00442075Y00303134D01*
X00440981Y00302681D01*
X00440041Y00301959D01*
X00439319Y00301019D01*
X00438866Y00299925D01*
X00438810Y00299500D01*
X00442500D01*
Y00303190D01*
D02*
G37*
G36*
X00438160Y00329487D02*
X00437051Y00329341D01*
X00436017Y00328912D01*
X00435129Y00328231D01*
X00434448Y00327343D01*
X00434019Y00326310D01*
X00433873Y00325200D01*
X00434019Y00324090D01*
X00434448Y00323057D01*
X00435129Y00322169D01*
X00436017Y00321488D01*
X00437051Y00321059D01*
X00438160Y00320913D01*
X00439081Y00321035D01*
X00452206Y00307910D01*
Y00302347D01*
X00451469Y00301781D01*
X00450788Y00300893D01*
X00450359Y00299860D01*
X00450213Y00298750D01*
X00450359Y00297640D01*
X00450788Y00296607D01*
X00451469Y00295719D01*
X00452357Y00295038D01*
X00453391Y00294609D01*
X00454500Y00294463D01*
X00455610Y00294609D01*
X00456643Y00295038D01*
X00457531Y00295719D01*
X00458212Y00296607D01*
X00458641Y00297640D01*
X00458787Y00298750D01*
X00458641Y00299860D01*
X00458212Y00300893D01*
X00457531Y00301781D01*
X00456794Y00302347D01*
Y00308860D01*
X00456648Y00309592D01*
X00456619Y00309738D01*
X00456122Y00310482D01*
X00442325Y00324279D01*
X00442447Y00325200D01*
X00442301Y00326310D01*
X00441872Y00327343D01*
X00441191Y00328231D01*
X00440303Y00328912D01*
X00439269Y00329341D01*
X00438160Y00329487D01*
D02*
G37*
G36*
X00433750Y00309287D02*
X00432640Y00309141D01*
X00431607Y00308712D01*
X00430719Y00308031D01*
X00430038Y00307143D01*
X00429609Y00306110D01*
X00429463Y00305000D01*
X00429609Y00303890D01*
X00430038Y00302857D01*
X00430719Y00301969D01*
X00431607Y00301288D01*
X00432640Y00300859D01*
X00433750Y00300713D01*
X00434860Y00300859D01*
X00435893Y00301288D01*
X00436781Y00301969D01*
X00437462Y00302857D01*
X00437891Y00303890D01*
X00438037Y00305000D01*
X00437891Y00306110D01*
X00437462Y00307143D01*
X00436781Y00308031D01*
X00435893Y00308712D01*
X00434860Y00309141D01*
X00433750Y00309287D01*
D02*
G37*
G36*
X00498440Y00303250D02*
X00494750D01*
Y00299560D01*
X00495175Y00299616D01*
X00496269Y00300069D01*
X00497209Y00300791D01*
X00497931Y00301731D01*
X00498384Y00302825D01*
X00498440Y00303250D01*
D02*
G37*
G36*
X00493250D02*
X00489560D01*
X00489616Y00302825D01*
X00490069Y00301731D01*
X00490791Y00300791D01*
X00491731Y00300069D01*
X00492825Y00299616D01*
X00493250Y00299560D01*
Y00303250D01*
D02*
G37*
G36*
X00494750Y00268440D02*
Y00264750D01*
X00498440D01*
X00498384Y00265175D01*
X00497931Y00266269D01*
X00497209Y00267209D01*
X00496269Y00267931D01*
X00495175Y00268384D01*
X00494750Y00268440D01*
D02*
G37*
G36*
X00493250D02*
X00492825Y00268384D01*
X00491731Y00267931D01*
X00490791Y00267209D01*
X00490069Y00266269D01*
X00489616Y00265175D01*
X00489560Y00264750D01*
X00493250D01*
Y00268440D01*
D02*
G37*
G36*
X00464750D02*
Y00264750D01*
X00468440D01*
X00468384Y00265175D01*
X00467931Y00266269D01*
X00467210Y00267209D01*
X00466269Y00267931D01*
X00465175Y00268384D01*
X00464750Y00268440D01*
D02*
G37*
G36*
X00447690Y00298000D02*
X00444000D01*
Y00294310D01*
X00444425Y00294366D01*
X00445519Y00294819D01*
X00446459Y00295541D01*
X00447181Y00296481D01*
X00447634Y00297575D01*
X00447690Y00298000D01*
D02*
G37*
G36*
X00442500D02*
X00438810D01*
X00438866Y00297575D01*
X00439319Y00296481D01*
X00440041Y00295541D01*
X00440981Y00294819D01*
X00442075Y00294366D01*
X00442500Y00294310D01*
Y00298000D01*
D02*
G37*
G36*
X00291000Y00280537D02*
X00289890Y00280391D01*
X00288857Y00279962D01*
X00287969Y00279281D01*
X00287288Y00278393D01*
X00286859Y00277360D01*
X00286713Y00276250D01*
X00286859Y00275140D01*
X00287288Y00274107D01*
X00287969Y00273219D01*
X00288857Y00272538D01*
X00289890Y00272109D01*
X00291000Y00271963D01*
X00292110Y00272109D01*
X00293143Y00272538D01*
X00294031Y00273219D01*
X00294712Y00274107D01*
X00295141Y00275140D01*
X00295287Y00276250D01*
X00295141Y00277360D01*
X00294712Y00278393D01*
X00294031Y00279281D01*
X00293143Y00279962D01*
X00292110Y00280391D01*
X00291000Y00280537D01*
D02*
G37*
G36*
X00494750Y00348440D02*
Y00344750D01*
X00498440D01*
X00498384Y00345175D01*
X00497931Y00346269D01*
X00497209Y00347209D01*
X00496269Y00347931D01*
X00495175Y00348384D01*
X00494750Y00348440D01*
D02*
G37*
G36*
X00468440Y00423250D02*
X00464750D01*
Y00419560D01*
X00465175Y00419616D01*
X00466269Y00420069D01*
X00467210Y00420790D01*
X00467931Y00421731D01*
X00468384Y00422825D01*
X00468440Y00423250D01*
D02*
G37*
G36*
X00463250D02*
X00459560D01*
X00459616Y00422825D01*
X00460069Y00421731D01*
X00460791Y00420790D01*
X00461731Y00420069D01*
X00462825Y00419616D01*
X00463250Y00419560D01*
Y00423250D01*
D02*
G37*
G36*
X00428440D02*
X00424750D01*
Y00419560D01*
X00425175Y00419616D01*
X00426269Y00420069D01*
X00427209Y00420790D01*
X00427931Y00421731D01*
X00428384Y00422825D01*
X00428440Y00423250D01*
D02*
G37*
G36*
X00263250Y00428440D02*
X00262825Y00428384D01*
X00261731Y00427931D01*
X00260791Y00427209D01*
X00260069Y00426269D01*
X00259616Y00425175D01*
X00259560Y00424750D01*
X00263250D01*
Y00428440D01*
D02*
G37*
G36*
X00498440Y00423250D02*
X00494750D01*
Y00419560D01*
X00495175Y00419616D01*
X00496269Y00420069D01*
X00497209Y00420790D01*
X00497931Y00421731D01*
X00498384Y00422825D01*
X00498440Y00423250D01*
D02*
G37*
G36*
X00493250D02*
X00489560D01*
X00489616Y00422825D01*
X00490069Y00421731D01*
X00490791Y00420790D01*
X00491731Y00420069D01*
X00492825Y00419616D01*
X00493250Y00419560D01*
Y00423250D01*
D02*
G37*
G36*
X00348440D02*
X00344750D01*
Y00419560D01*
X00345175Y00419616D01*
X00346269Y00420069D01*
X00347209Y00420790D01*
X00347931Y00421731D01*
X00348384Y00422825D01*
X00348440Y00423250D01*
D02*
G37*
G36*
X00343250D02*
X00339560D01*
X00339616Y00422825D01*
X00340069Y00421731D01*
X00340791Y00420790D01*
X00341731Y00420069D01*
X00342825Y00419616D01*
X00343250Y00419560D01*
Y00423250D01*
D02*
G37*
G36*
X00308440D02*
X00304750D01*
Y00419560D01*
X00305175Y00419616D01*
X00306269Y00420069D01*
X00307209Y00420790D01*
X00307931Y00421731D01*
X00308384Y00422825D01*
X00308440Y00423250D01*
D02*
G37*
G36*
X00423250D02*
X00419560D01*
X00419616Y00422825D01*
X00420069Y00421731D01*
X00420790Y00420790D01*
X00421731Y00420069D01*
X00422825Y00419616D01*
X00423250Y00419560D01*
Y00423250D01*
D02*
G37*
G36*
X00388440D02*
X00384750D01*
Y00419560D01*
X00385175Y00419616D01*
X00386269Y00420069D01*
X00387209Y00420790D01*
X00387931Y00421731D01*
X00388384Y00422825D01*
X00388440Y00423250D01*
D02*
G37*
G36*
X00383250D02*
X00379560D01*
X00379616Y00422825D01*
X00380069Y00421731D01*
X00380791Y00420790D01*
X00381731Y00420069D01*
X00382825Y00419616D01*
X00383250Y00419560D01*
Y00423250D01*
D02*
G37*
G36*
X00264750Y00428440D02*
Y00424750D01*
X00268440D01*
X00268384Y00425175D01*
X00267931Y00426269D01*
X00267209Y00427209D01*
X00266269Y00427931D01*
X00265175Y00428384D01*
X00264750Y00428440D01*
D02*
G37*
G36*
X00463250D02*
X00462825Y00428384D01*
X00461731Y00427931D01*
X00460791Y00427209D01*
X00460069Y00426269D01*
X00459616Y00425175D01*
X00459560Y00424750D01*
X00463250D01*
Y00428440D01*
D02*
G37*
G36*
X00424750D02*
Y00424750D01*
X00428440D01*
X00428384Y00425175D01*
X00427931Y00426269D01*
X00427209Y00427209D01*
X00426269Y00427931D01*
X00425175Y00428384D01*
X00424750Y00428440D01*
D02*
G37*
G36*
X00423250D02*
X00422825Y00428384D01*
X00421731Y00427931D01*
X00420790Y00427209D01*
X00420069Y00426269D01*
X00419616Y00425175D01*
X00419560Y00424750D01*
X00423250D01*
Y00428440D01*
D02*
G37*
G36*
X00494750D02*
Y00424750D01*
X00498440D01*
X00498384Y00425175D01*
X00497931Y00426269D01*
X00497209Y00427209D01*
X00496269Y00427931D01*
X00495175Y00428384D01*
X00494750Y00428440D01*
D02*
G37*
G36*
X00493250D02*
X00492825Y00428384D01*
X00491731Y00427931D01*
X00490791Y00427209D01*
X00490069Y00426269D01*
X00489616Y00425175D01*
X00489560Y00424750D01*
X00493250D01*
Y00428440D01*
D02*
G37*
G36*
X00464750D02*
Y00424750D01*
X00468440D01*
X00468384Y00425175D01*
X00467931Y00426269D01*
X00467210Y00427209D01*
X00466269Y00427931D01*
X00465175Y00428384D01*
X00464750Y00428440D01*
D02*
G37*
G36*
X00343250D02*
X00342825Y00428384D01*
X00341731Y00427931D01*
X00340791Y00427209D01*
X00340069Y00426269D01*
X00339616Y00425175D01*
X00339560Y00424750D01*
X00343250D01*
Y00428440D01*
D02*
G37*
G36*
X00304750D02*
Y00424750D01*
X00308440D01*
X00308384Y00425175D01*
X00307931Y00426269D01*
X00307209Y00427209D01*
X00306269Y00427931D01*
X00305175Y00428384D01*
X00304750Y00428440D01*
D02*
G37*
G36*
X00303250D02*
X00302825Y00428384D01*
X00301731Y00427931D01*
X00300791Y00427209D01*
X00300069Y00426269D01*
X00299616Y00425175D01*
X00299560Y00424750D01*
X00303250D01*
Y00428440D01*
D02*
G37*
G36*
X00384750D02*
Y00424750D01*
X00388440D01*
X00388384Y00425175D01*
X00387931Y00426269D01*
X00387209Y00427209D01*
X00386269Y00427931D01*
X00385175Y00428384D01*
X00384750Y00428440D01*
D02*
G37*
G36*
X00383250D02*
X00382825Y00428384D01*
X00381731Y00427931D01*
X00380791Y00427209D01*
X00380069Y00426269D01*
X00379616Y00425175D01*
X00379560Y00424750D01*
X00383250D01*
Y00428440D01*
D02*
G37*
G36*
X00344750D02*
Y00424750D01*
X00348440D01*
X00348384Y00425175D01*
X00347931Y00426269D01*
X00347209Y00427209D01*
X00346269Y00427931D01*
X00345175Y00428384D01*
X00344750Y00428440D01*
D02*
G37*
G36*
X00303250Y00423250D02*
X00299560D01*
X00299616Y00422825D01*
X00300069Y00421731D01*
X00300791Y00420790D01*
X00301731Y00420069D01*
X00302825Y00419616D01*
X00303250Y00419560D01*
Y00423250D01*
D02*
G37*
G36*
X00292750Y00373065D02*
Y00369375D01*
X00296440D01*
X00296384Y00369800D01*
X00295931Y00370894D01*
X00295209Y00371834D01*
X00294269Y00372556D01*
X00293175Y00373009D01*
X00292750Y00373065D01*
D02*
G37*
G36*
X00291250D02*
X00290825Y00373009D01*
X00289731Y00372556D01*
X00288791Y00371834D01*
X00288069Y00370894D01*
X00287616Y00369800D01*
X00287560Y00369375D01*
X00291250D01*
Y00373065D01*
D02*
G37*
G36*
X00273440Y00372375D02*
X00269750D01*
Y00368685D01*
X00270175Y00368741D01*
X00271269Y00369194D01*
X00272209Y00369916D01*
X00272931Y00370856D01*
X00273384Y00371950D01*
X00273440Y00372375D01*
D02*
G37*
G36*
X00268250Y00377565D02*
X00267825Y00377509D01*
X00266731Y00377056D01*
X00265791Y00376334D01*
X00265069Y00375394D01*
X00264616Y00374300D01*
X00264560Y00373875D01*
X00268250D01*
Y00377565D01*
D02*
G37*
G36*
X00402250Y00374440D02*
Y00370750D01*
X00405940D01*
X00405884Y00371175D01*
X00405431Y00372269D01*
X00404710Y00373209D01*
X00403769Y00373931D01*
X00402675Y00374384D01*
X00402250Y00374440D01*
D02*
G37*
G36*
X00400750D02*
X00400325Y00374384D01*
X00399231Y00373931D01*
X00398291Y00373209D01*
X00397569Y00372269D01*
X00397116Y00371175D01*
X00397060Y00370750D01*
X00400750D01*
Y00374440D01*
D02*
G37*
G36*
X00296440Y00367875D02*
X00292750D01*
Y00364185D01*
X00293175Y00364241D01*
X00294269Y00364694D01*
X00295209Y00365416D01*
X00295931Y00366356D01*
X00296384Y00367450D01*
X00296440Y00367875D01*
D02*
G37*
G36*
X00291250D02*
X00287560D01*
X00287616Y00367450D01*
X00288069Y00366356D01*
X00288791Y00365416D01*
X00289731Y00364694D01*
X00290825Y00364241D01*
X00291250Y00364185D01*
Y00367875D01*
D02*
G37*
G36*
X00437500Y00367537D02*
X00436390Y00367391D01*
X00435357Y00366962D01*
X00434469Y00366281D01*
X00433788Y00365393D01*
X00433359Y00364360D01*
X00433213Y00363250D01*
X00433359Y00362141D01*
X00433788Y00361107D01*
X00434469Y00360219D01*
X00435357Y00359538D01*
X00436390Y00359109D01*
X00437500Y00358963D01*
X00438610Y00359109D01*
X00439643Y00359538D01*
X00440531Y00360219D01*
X00441212Y00361107D01*
X00441641Y00362141D01*
X00441787Y00363250D01*
X00441641Y00364360D01*
X00441212Y00365393D01*
X00440531Y00366281D01*
X00439643Y00366962D01*
X00438610Y00367391D01*
X00437500Y00367537D01*
D02*
G37*
G36*
X00268250Y00372375D02*
X00264560D01*
X00264616Y00371950D01*
X00265069Y00370856D01*
X00265791Y00369916D01*
X00266731Y00369194D01*
X00267825Y00368741D01*
X00268250Y00368685D01*
Y00372375D01*
D02*
G37*
G36*
X00405940Y00369250D02*
X00402250D01*
Y00365560D01*
X00402675Y00365616D01*
X00403769Y00366069D01*
X00404710Y00366791D01*
X00405431Y00367731D01*
X00405884Y00368825D01*
X00405940Y00369250D01*
D02*
G37*
G36*
X00400750D02*
X00397060D01*
X00397116Y00368825D01*
X00397569Y00367731D01*
X00398291Y00366791D01*
X00399231Y00366069D01*
X00400325Y00365616D01*
X00400750Y00365560D01*
Y00369250D01*
D02*
G37*
G36*
X00269750Y00377565D02*
Y00373875D01*
X00273440D01*
X00273384Y00374300D01*
X00272931Y00375394D01*
X00272209Y00376334D01*
X00271269Y00377056D01*
X00270175Y00377509D01*
X00269750Y00377565D01*
D02*
G37*
G36*
X00494750Y00388440D02*
Y00384750D01*
X00498440D01*
X00498384Y00385175D01*
X00497931Y00386269D01*
X00497209Y00387209D01*
X00496269Y00387931D01*
X00495175Y00388384D01*
X00494750Y00388440D01*
D02*
G37*
G36*
X00493250D02*
X00492825Y00388384D01*
X00491731Y00387931D01*
X00490791Y00387209D01*
X00490069Y00386269D01*
X00489616Y00385175D01*
X00489560Y00384750D01*
X00493250D01*
Y00388440D01*
D02*
G37*
G36*
X00334500Y00387190D02*
Y00383500D01*
X00338190D01*
X00338134Y00383925D01*
X00337681Y00385019D01*
X00336959Y00385960D01*
X00336019Y00386681D01*
X00334925Y00387134D01*
X00334500Y00387190D01*
D02*
G37*
G36*
X00268440Y00423250D02*
X00264750D01*
Y00419560D01*
X00265175Y00419616D01*
X00266269Y00420069D01*
X00267209Y00420790D01*
X00267931Y00421731D01*
X00268384Y00422825D01*
X00268440Y00423250D01*
D02*
G37*
G36*
X00263250D02*
X00259560D01*
X00259616Y00422825D01*
X00260069Y00421731D01*
X00260791Y00420790D01*
X00261731Y00420069D01*
X00262825Y00419616D01*
X00263250Y00419560D01*
Y00423250D01*
D02*
G37*
G36*
X00301250Y00402287D02*
X00300140Y00402141D01*
X00299107Y00401712D01*
X00298219Y00401031D01*
X00297538Y00400143D01*
X00297109Y00399109D01*
X00296963Y00398000D01*
X00297109Y00396890D01*
X00297538Y00395857D01*
X00298219Y00394969D01*
X00299107Y00394288D01*
X00300140Y00393859D01*
X00301250Y00393713D01*
X00302360Y00393859D01*
X00303393Y00394288D01*
X00304281Y00394969D01*
X00304962Y00395857D01*
X00305391Y00396890D01*
X00305537Y00398000D01*
X00305391Y00399109D01*
X00304962Y00400143D01*
X00304281Y00401031D01*
X00303393Y00401712D01*
X00302360Y00402141D01*
X00301250Y00402287D01*
D02*
G37*
G36*
X00493250Y00383250D02*
X00489560D01*
X00489616Y00382825D01*
X00490069Y00381731D01*
X00490791Y00380791D01*
X00491731Y00380069D01*
X00492825Y00379616D01*
X00493250Y00379560D01*
Y00383250D01*
D02*
G37*
G36*
X00338190Y00382000D02*
X00334500D01*
Y00378310D01*
X00334925Y00378366D01*
X00336019Y00378819D01*
X00336959Y00379541D01*
X00337681Y00380481D01*
X00338134Y00381575D01*
X00338190Y00382000D01*
D02*
G37*
G36*
X00333000D02*
X00329310D01*
X00329366Y00381575D01*
X00329819Y00380481D01*
X00330541Y00379541D01*
X00331481Y00378819D01*
X00332575Y00378366D01*
X00333000Y00378310D01*
Y00382000D01*
D02*
G37*
G36*
Y00387190D02*
X00332575Y00387134D01*
X00331481Y00386681D01*
X00330541Y00385960D01*
X00329819Y00385019D01*
X00329366Y00383925D01*
X00329310Y00383500D01*
X00333000D01*
Y00387190D01*
D02*
G37*
G36*
X00437000Y00390537D02*
X00435891Y00390391D01*
X00434857Y00389962D01*
X00433969Y00389281D01*
X00433288Y00388393D01*
X00432859Y00387360D01*
X00432713Y00386250D01*
X00432859Y00385140D01*
X00433288Y00384107D01*
X00433969Y00383219D01*
X00434857Y00382538D01*
X00435891Y00382109D01*
X00437000Y00381963D01*
X00438110Y00382109D01*
X00439143Y00382538D01*
X00440031Y00383219D01*
X00440712Y00384107D01*
X00441141Y00385140D01*
X00441287Y00386250D01*
X00441141Y00387360D01*
X00440712Y00388393D01*
X00440031Y00389281D01*
X00439143Y00389962D01*
X00438110Y00390391D01*
X00437000Y00390537D01*
D02*
G37*
G36*
X00498440Y00383250D02*
X00494750D01*
Y00379560D01*
X00495175Y00379616D01*
X00496269Y00380069D01*
X00497209Y00380791D01*
X00497931Y00381731D01*
X00498384Y00382825D01*
X00498440Y00383250D01*
D02*
G37*
%LPD*%
D23*
X00438160Y00325200D02*
X00454500Y00308860D01*
Y00298750D02*
Y00308860D01*
D25*
X00437000Y00386250D02*
D03*
X00437500Y00363250D02*
D03*
X00468750Y00325250D02*
D03*
X00454500Y00298750D02*
D03*
X00438160Y00325200D02*
D03*
X00433750Y00305000D02*
D03*
X00292000Y00368625D02*
D03*
X00292750Y00319375D02*
D03*
X00269750Y00314875D02*
D03*
X00269000Y00373125D02*
D03*
X00264000Y00264000D02*
D03*
X00333750Y00382750D02*
D03*
X00424000Y00264000D02*
D03*
X00464000D02*
D03*
X00494000Y00304000D02*
D03*
Y00264000D02*
D03*
Y00344000D02*
D03*
Y00384000D02*
D03*
X00401500Y00370000D02*
D03*
X00373000Y00312750D02*
D03*
X00274000Y00344000D02*
D03*
X00494000Y00424000D02*
D03*
X00264000D02*
D03*
X00424000D02*
D03*
X00344000D02*
D03*
X00304000D02*
D03*
X00384000D02*
D03*
X00464000D02*
D03*
X00291000Y00276250D02*
D03*
X00301250Y00398000D02*
D03*
X00443250Y00298750D02*
D03*
M02*
