%FSTAX23Y23*%
%MOMM*%
%SFA1B1*%

%IPPOS*%
%ADD10R,0.599999X0.499999*%
%ADD11R,0.499999X0.599999*%
%ADD12R,2.099996X1.474997*%
%ADD13R,1.379997X0.449999*%
%ADD14R,1.899996X1.174998*%
%ADD15R,1.899996X2.374995*%
%ADD16R,0.699999X0.899998*%
%ADD17R,0.899998X0.699999*%
%ADD18O,1.799996X0.449999*%
%ADD19O,2.099996X0.349999*%
%ADD20R,0.599999X0.599999*%
%ADD21R,1.149998X1.399997*%
%ADD22R,0.999998X1.999996*%
%ADD23R,1.399997X0.699999*%
%ADD24O,0.799998X0.200000*%
%ADD25O,0.200000X0.799998*%
%ADD26R,4.599991X4.599991*%
%LNusb_dongle_pcb-1*%
%LPD*%
G54D10*
X57349Y27349D03*
X58349D03*
X26924Y40749D03*
X27924D03*
X31799Y37249D03*
X30799D03*
X42574Y28674D03*
X43574D03*
X54474Y33674D03*
X55474D03*
X54474Y32799D03*
X55474D03*
X57824Y33174D03*
X58824D03*
X54474Y31924D03*
X55474D03*
X34624Y37374D03*
X35624D03*
X46074Y31849D03*
X45074D03*
G54D11*
X30974Y33899D03*
Y32899D03*
X31849Y32849D03*
Y33849D03*
X50099Y36849D03*
Y37849D03*
X52874Y36774D03*
Y37774D03*
X34574Y38299D03*
Y39299D03*
X31949Y27874D03*
Y28874D03*
X30924Y29549D03*
Y30549D03*
X31849Y35174D03*
Y36174D03*
X45724Y29124D03*
Y28124D03*
X59699Y33349D03*
Y34349D03*
X51074Y35774D03*
Y36774D03*
X51949D03*
Y35774D03*
X51074Y37724D03*
Y38724D03*
X55549Y29724D03*
Y30724D03*
X49999Y27474D03*
Y26474D03*
G54D12*
X29149Y35862D03*
Y30937D03*
G54D13*
X29509Y32099D03*
Y32749D03*
Y33399D03*
Y34699D03*
Y34049D03*
G54D14*
X26849Y32562D03*
Y34237D03*
G54D15*
X26849Y30487D03*
Y36312D03*
G54D16*
X30849Y38324D03*
X32349D03*
X28399Y39624D03*
X26899D03*
X56799Y26274D03*
X58299D03*
G54D17*
X33499Y39799D03*
Y38299D03*
X35624Y39799D03*
Y38299D03*
X44674Y29074D03*
Y27574D03*
X43449Y38324D03*
Y39824D03*
G54D18*
X37424Y40274D03*
Y39624D03*
Y38974D03*
Y38324D03*
X41574Y40274D03*
Y39624D03*
Y38974D03*
Y38324D03*
G54D19*
X33749Y35174D03*
Y34524D03*
Y33874D03*
Y33224D03*
Y32574D03*
Y31924D03*
Y31274D03*
Y30624D03*
Y29974D03*
Y29324D03*
Y28674D03*
Y28024D03*
Y27374D03*
Y26724D03*
X40649Y35174D03*
Y34524D03*
Y33874D03*
Y33224D03*
Y32574D03*
Y31924D03*
Y31274D03*
Y30624D03*
Y29974D03*
Y29324D03*
Y28674D03*
Y28024D03*
Y27374D03*
Y26724D03*
G54D20*
X43174Y35224D03*
X45374D03*
X43199Y33249D03*
X45399D03*
G54D21*
X56749Y29724D03*
Y31924D03*
X58349D03*
Y29724D03*
G54D22*
X5635Y3995D03*
X5975D03*
G54D23*
X27199Y28074D03*
X30399D03*
Y26574D03*
X27199D03*
G54D24*
X53249Y29249D03*
Y29749D03*
Y30249D03*
Y30749D03*
Y31249D03*
Y31749D03*
Y32249D03*
Y32749D03*
Y33249D03*
Y33749D03*
X47249D03*
Y33249D03*
Y32749D03*
Y32249D03*
Y31749D03*
Y31249D03*
Y30749D03*
Y30249D03*
Y29749D03*
Y29249D03*
G54D25*
X52499Y34499D03*
X51999D03*
X51499D03*
X50999D03*
X50499D03*
X49999D03*
X49499D03*
X48999D03*
X48499D03*
X47999D03*
Y28499D03*
X48499D03*
X48999D03*
X49499D03*
X49999D03*
X50499D03*
X50999D03*
X51499D03*
X51999D03*
X52499D03*
G54D26*
X50249Y31499D03*
M02*