%FSTAX23Y23*%
%MOMM*%
%SFA1B1*%

%IPPOS*%
%ADD27C,0.200000*%
%ADD30C,0.599999*%
%ADD31C,1.015998*%
%ADD55C,0.127000*%
%ADD56C,0.253999*%
%ADD57C,0.507999*%
%ADD58C,2.031996*%
%ADD59C,4.063992*%
%LNusb_dongle_pcb-1*%
%LPD*%
G54D55*
X54186Y41336D02*
Y34836D01*
X60336*
Y25463*
X25463*
Y41336*
X54186*
G54D56*
X54059Y41209D02*
Y34709D01*
X60209*
Y2559*
X2559*
Y41209*
X54059*
G54D57*
X53805Y40955D02*
Y34455D01*
X59955*
Y25844*
X25844*
Y40955*
X53805*
G54D31*
X53297Y40447D02*
Y33947D01*
X59447*
Y26352*
X26352*
Y40447*
X53297*
G54D58*
X52281Y39431D02*
Y32931D01*
X58431*
Y27368*
X27368*
Y39431*
X52281*
G54D59*
X50249Y37399D02*
Y30899D01*
X56399*
Y294*
X294*
Y37399*
X50249*
X29413Y31394D02*
X5019D01*
X29413Y35432D02*
X5019D01*
%LNusb_dongle_pcb-2*%
%LPC*%
G36*
X37793Y31649D02*
X37424D01*
Y3128*
X37467Y31286*
X37576Y31331*
X3767Y31404*
X37743Y31498*
X37788Y31607*
X37793Y31649*
G37*
G36*
X37274D02*
X36905D01*
X36911Y31607*
X36956Y31498*
X37028Y31404*
X37123Y31331*
X37232Y31286*
X37274Y3128*
Y31649*
G37*
G36*
X44024Y32099D02*
X43655D01*
X43661Y32057*
X43706Y31948*
X43779Y31854*
X43873Y31781*
X43982Y31736*
X44024Y3173*
Y32099*
G37*
G36*
X37274Y32168D02*
X37232Y32163D01*
X37123Y32118*
X37028Y32045*
X36956Y31951*
X36911Y31842*
X36905Y31799*
X37274*
Y32168*
G37*
G36*
X44543Y32099D02*
X44174D01*
Y3173*
X44217Y31736*
X44326Y31781*
X4442Y31854*
X44493Y31948*
X44538Y32057*
X44543Y32099*
G37*
G36*
X29149Y31306D02*
Y30937D01*
X29518*
X29513Y30979*
X29468Y31089*
X29395Y31183*
X29301Y31255*
X29192Y313*
X29149Y31306*
G37*
G36*
X29518Y30787D02*
X29149D01*
Y30418*
X29192Y30424*
X29301Y30469*
X29395Y30541*
X29468Y30635*
X29513Y30744*
X29518Y30787*
G37*
G36*
X28999D02*
X2863D01*
X28636Y30744*
X28681Y30635*
X28754Y30541*
X28848Y30469*
X28957Y30424*
X28999Y30418*
Y30787*
G37*
G36*
X26774Y30931D02*
X26732Y30925D01*
X26623Y3088*
X26529Y30808*
X26456Y30714*
X26411Y30604*
X26405Y30562*
X26774*
Y30931*
G37*
G36*
X28999Y31306D02*
X28957Y313D01*
X28848Y31255*
X28754Y31183*
X28681Y31089*
X28636Y30979*
X2863Y30937*
X28999*
Y31306*
G37*
G36*
X26924Y30931D02*
Y30562D01*
X27293*
X27288Y30604*
X27243Y30714*
X2717Y30808*
X27076Y3088*
X26967Y30925*
X26924Y30931*
G37*
G36*
X26774Y33006D02*
X26732Y33D01*
X26623Y32955*
X26529Y32883*
X26456Y32789*
X26411Y32679*
X26405Y32637*
X26774*
Y33006*
G37*
G36*
X50693Y32924D02*
X50324D01*
Y32555*
X50367Y32561*
X50476Y32606*
X5057Y32679*
X50643Y32773*
X50688Y32882*
X50693Y32924*
G37*
G36*
X26924Y33006D02*
Y32637D01*
X27293*
X27288Y32679*
X27243Y32789*
X2717Y32883*
X27076Y32955*
X26967Y33*
X26924Y33006*
G37*
G36*
X56868Y33099D02*
X56499D01*
Y3273*
X56542Y32736*
X56651Y32781*
X56745Y32854*
X56818Y32948*
X56863Y33057*
X56868Y33099*
G37*
G36*
X56349D02*
X5598D01*
X55986Y33057*
X56031Y32948*
X56104Y32854*
X56198Y32781*
X56307Y32736*
X56349Y3273*
Y33099*
G37*
G36*
X50174Y32924D02*
X49805D01*
X49811Y32882*
X49856Y32773*
X49929Y32679*
X50023Y32606*
X50132Y32561*
X50174Y32555*
Y32924*
G37*
G36*
X26774Y32487D02*
X26405D01*
X26411Y32444*
X26456Y32335*
X26529Y32241*
X26623Y32169*
X26732Y32124*
X26774Y32118*
Y32487*
G37*
G36*
X37424Y32168D02*
Y31799D01*
X37793*
X37788Y31842*
X37743Y31951*
X3767Y32045*
X37576Y32118*
X37467Y32163*
X37424Y32168*
G37*
G36*
X27293Y32487D02*
X26924D01*
Y32118*
X26967Y32124*
X27076Y32169*
X2717Y32241*
X27243Y32335*
X27288Y32444*
X27293Y32487*
G37*
G36*
X44174Y32618D02*
Y32249D01*
X44543*
X44538Y32292*
X44493Y32401*
X4442Y32495*
X44326Y32568*
X44217Y32613*
X44174Y32618*
G37*
G36*
X44024D02*
X43982Y32613D01*
X43873Y32568*
X43779Y32495*
X43706Y32401*
X43661Y32292*
X43655Y32249*
X44024*
Y32618*
G37*
G36*
X50324Y30443D02*
Y30074D01*
X50693*
X50688Y30117*
X50643Y30226*
X5057Y3032*
X50476Y30393*
X50367Y30438*
X50324Y30443*
G37*
G36*
X54024Y26599D02*
X53655D01*
X53661Y26557*
X53706Y26448*
X53779Y26354*
X53873Y26281*
X53982Y26236*
X54024Y2623*
Y26599*
G37*
G36*
X28799Y27028D02*
X28689Y27014D01*
X28585Y26971*
X28496Y26903*
X28428Y26814*
X28385Y2671*
X28371Y26599*
X28385Y26488*
X28428Y26385*
X28496Y26296*
X28585Y26228*
X28689Y26185*
X28799Y26171*
X2891Y26185*
X29014Y26228*
X29103Y26296*
X29171Y26385*
X29214Y26488*
X29228Y26599*
X29214Y2671*
X29171Y26814*
X29103Y26903*
X29014Y26971*
X2891Y27014*
X28799Y27028*
G37*
G36*
X54543Y26599D02*
X54174D01*
Y2623*
X54217Y26236*
X54326Y26281*
X5442Y26354*
X54493Y26448*
X54538Y26557*
X54543Y26599*
G37*
G36*
X54174Y27118D02*
Y26749D01*
X54543*
X54538Y26792*
X54493Y26901*
X5442Y26995*
X54326Y27068*
X54217Y27113*
X54174Y27118*
G37*
G36*
X54024D02*
X53982Y27113D01*
X53873Y27068*
X53779Y26995*
X53706Y26901*
X53661Y26792*
X53655Y26749*
X54024*
Y27118*
G37*
G36*
X32124Y26493D02*
Y26124D01*
X32493*
X32488Y26167*
X32443Y26276*
X3237Y2637*
X32276Y26443*
X32167Y26488*
X32124Y26493*
G37*
G36*
X32493Y25974D02*
X32124D01*
Y25605*
X32167Y25611*
X32276Y25656*
X3237Y25729*
X32443Y25823*
X32488Y25932*
X32493Y25974*
G37*
G36*
X31974D02*
X31605D01*
X31611Y25932*
X31656Y25823*
X31729Y25729*
X31823Y25656*
X31932Y25611*
X31974Y25605*
Y25974*
G37*
G36*
X55599Y26703D02*
X55489Y26689D01*
X55385Y26646*
X55296Y26578*
X55228Y26489*
X55185Y26385*
X55171Y26274*
X55185Y26163*
X55228Y2606*
X55296Y25971*
X55385Y25903*
X55489Y2586*
X55599Y25846*
X5571Y2586*
X55814Y25903*
X55903Y25971*
X55971Y2606*
X56014Y26163*
X56028Y26274*
X56014Y26385*
X55971Y26489*
X55903Y26578*
X55814Y26646*
X5571Y26689*
X55599Y26703*
G37*
G36*
X31974Y26493D02*
X31932Y26488D01*
X31823Y26443*
X31729Y2637*
X31656Y26276*
X31611Y26167*
X31605Y26124*
X31974*
Y26493*
G37*
G36*
X44949Y30453D02*
X44839Y30439D01*
X44735Y30396*
X44646Y30328*
X44578Y30239*
X44535Y30135*
X44521Y30024*
X44535Y29913*
X44578Y2981*
X44646Y29721*
X44735Y29653*
X44795Y29628*
Y2694*
X44746Y26903*
X44678Y26814*
X44635Y2671*
X44621Y26599*
X44635Y26488*
X44678Y26385*
X44746Y26296*
X4481Y26247*
X44812Y26237*
X44862Y26162*
X44937Y26113*
X45024Y26095*
X45112Y26113*
X45187Y26162*
X45212Y26187*
X4523Y26214*
X45264Y26228*
X45353Y26296*
X45421Y26385*
X45464Y26488*
X45478Y26599*
X45464Y2671*
X45421Y26814*
X45353Y26903*
X45264Y26971*
X45254Y26975*
Y29723*
X45321Y2981*
X45364Y29913*
X45378Y30024*
X45364Y30135*
X45321Y30239*
X45253Y30328*
X45164Y30396*
X4506Y30439*
X44949Y30453*
G37*
G36*
X50693Y29924D02*
X50324D01*
Y29555*
X50367Y29561*
X50476Y29606*
X5057Y29679*
X50643Y29773*
X50688Y29882*
X50693Y29924*
G37*
G36*
X50174D02*
X49805D01*
X49811Y29882*
X49856Y29773*
X49929Y29679*
X50023Y29606*
X50132Y29561*
X50174Y29555*
Y29924*
G37*
G36*
X26774Y30412D02*
X26405D01*
X26411Y30369*
X26456Y3026*
X26529Y30166*
X26623Y30094*
X26732Y30049*
X26774Y30043*
Y30412*
G37*
G36*
X50174Y30443D02*
X50132Y30438D01*
X50023Y30393*
X49929Y3032*
X49856Y30226*
X49811Y30117*
X49805Y30074*
X50174*
Y30443*
G37*
G36*
X27293Y30412D02*
X26924D01*
Y30043*
X26967Y30049*
X27076Y30094*
X2717Y30166*
X27243Y3026*
X27288Y30369*
X27293Y30412*
G37*
G36*
X42924Y32228D02*
X42813Y32214D01*
X4271Y32171*
X42621Y32103*
X42553Y32014*
X4251Y3191*
X42496Y31799*
X4251Y31689*
X42553Y31585*
X42621Y31496*
X42695Y3144*
Y27734*
X42621Y27678*
X42553Y27589*
X4251Y27485*
X42496Y27374*
X4251Y27263*
X42553Y2716*
X42621Y27071*
X4271Y27003*
X42813Y2696*
X42924Y26946*
X43035Y2696*
X43139Y27003*
X43228Y27071*
X43296Y2716*
X43339Y27263*
X43353Y27374*
X43339Y27485*
X43296Y27589*
X43228Y27678*
X43154Y27734*
Y29279*
X43288Y29345*
X4331Y29328*
X43414Y29285*
X43524Y29271*
X43635Y29285*
X43739Y29328*
X43828Y29396*
X43896Y29485*
X43939Y29589*
X43953Y29699*
X43939Y2981*
X43896Y29914*
X43828Y30003*
X43739Y30071*
X43635Y30114*
X43524Y30128*
X43414Y30114*
X4331Y30071*
X43288Y30054*
X43154Y3012*
Y3144*
X43228Y31496*
X43296Y31585*
X43339Y31689*
X43353Y31799*
X43339Y3191*
X43296Y32014*
X43228Y32103*
X43139Y32171*
X43035Y32214*
X42924Y32228*
G37*
G36*
X59968Y28324D02*
X59599D01*
Y27955*
X59642Y27961*
X59751Y28006*
X59845Y28079*
X59918Y28173*
X59963Y28282*
X59968Y28324*
G37*
G36*
X59449D02*
X5908D01*
X59086Y28282*
X59131Y28173*
X59203Y28079*
X59298Y28006*
X59407Y27961*
X59449Y27955*
Y28324*
G37*
G36*
Y28843D02*
X59407Y28838D01*
X59298Y28793*
X59203Y2872*
X59131Y28626*
X59086Y28517*
X5908Y28474*
X59449*
Y28843*
G37*
G36*
X44299Y33653D02*
X44188Y33639D01*
X44085Y33596*
X43996Y33528*
X43928Y33439*
X43885Y33335*
X43871Y33224*
X43885Y33114*
X43928Y3301*
X43996Y32921*
X44085Y32853*
X44188Y3281*
X44299Y32796*
X4441Y3281*
X44514Y32853*
X44603Y32921*
X44659Y32995*
X45654*
X4597Y32679*
Y29124*
X45988Y29037*
X46037Y28962*
X46512Y28487*
X46587Y28437*
X46601Y28435*
X46674Y2842*
X53949*
X54037Y28437*
X54112Y28487*
X54482Y28858*
X54574Y28846*
X54685Y2886*
X54789Y28903*
X54878Y28971*
X54946Y2906*
X54989Y29163*
X55003Y29274*
X54989Y29385*
X54946Y29489*
X54878Y29578*
X54789Y29646*
X54685Y29689*
X54574Y29703*
X54464Y29689*
X5436Y29646*
X54271Y29578*
X54203Y29489*
X5416Y29385*
X54146Y29274*
X54158Y29182*
X53854Y28879*
X46769*
X46429Y29219*
Y32774*
X46411Y32862*
X46362Y32937*
X45912Y33387*
X45837Y33436*
X45749Y33454*
X44659*
X44603Y33528*
X44514Y33596*
X4441Y33639*
X44299Y33653*
G37*
G36*
X59599Y28843D02*
Y28474D01*
X59968*
X59963Y28517*
X59918Y28626*
X59845Y2872*
X59751Y28793*
X59642Y28838*
X59599Y28843*
G37*
G36*
X53793Y38774D02*
X53424D01*
Y38405*
X53467Y38411*
X53576Y38456*
X5367Y38529*
X53743Y38623*
X53788Y38732*
X53793Y38774*
G37*
G36*
X53274D02*
X52905D01*
X52911Y38732*
X52956Y38623*
X53029Y38529*
X53123Y38456*
X53232Y38411*
X53274Y38405*
Y38774*
G37*
G36*
Y39293D02*
X53232Y39288D01*
X53123Y39243*
X53029Y3917*
X52956Y39076*
X52911Y38967*
X52905Y38924*
X53274*
Y39293*
G37*
G36*
X29499Y40053D02*
X29388Y40039D01*
X29285Y39996*
X29196Y39928*
X29128Y39839*
X29085Y39735*
X29071Y39624*
X29085Y39513*
X29128Y3941*
X29196Y39321*
X29285Y39253*
X29388Y3921*
X29499Y39196*
X2961Y3921*
X29714Y39253*
X29803Y39321*
X29871Y3941*
X29914Y39513*
X29928Y39624*
X29914Y39735*
X29871Y39839*
X29803Y39928*
X29714Y39996*
X2961Y40039*
X29499Y40053*
G37*
G36*
X53424Y39293D02*
Y38924D01*
X53793*
X53788Y38967*
X53743Y39076*
X5367Y3917*
X53576Y39243*
X53467Y39288*
X53424Y39293*
G37*
G36*
X44774Y38753D02*
X44664Y38739D01*
X4456Y38696*
X44471Y38628*
X44403Y38539*
X4436Y38435*
X44346Y38324*
X4436Y38214*
X44403Y3811*
X44471Y38021*
X4456Y37953*
X44664Y3791*
X44774Y37896*
X44885Y3791*
X44989Y37953*
X45078Y38021*
X45146Y3811*
X45189Y38214*
X45203Y38324*
X45189Y38435*
X45146Y38539*
X45078Y38628*
X44989Y38696*
X44885Y38739*
X44774Y38753*
G37*
G36*
X47374Y37118D02*
X47332Y37113D01*
X47223Y37068*
X47129Y36995*
X47056Y36901*
X47011Y36792*
X47005Y36749*
X47374*
Y37118*
G37*
G36*
X40774Y37043D02*
Y36674D01*
X41143*
X41138Y36717*
X41093Y36826*
X4102Y3692*
X40926Y36993*
X40817Y37038*
X40774Y37043*
G37*
G36*
X47524Y37118D02*
Y36749D01*
X47893*
X47888Y36792*
X47843Y36901*
X4777Y36995*
X47676Y37068*
X47567Y37113*
X47524Y37118*
G37*
G36*
X33724Y37543D02*
Y37174D01*
X34093*
X34088Y37217*
X34043Y37326*
X3397Y3742*
X33876Y37493*
X33767Y37538*
X33724Y37543*
G37*
G36*
X33574D02*
X33532Y37538D01*
X33423Y37493*
X33328Y3742*
X33256Y37326*
X33211Y37217*
X33205Y37174*
X33574*
Y37543*
G37*
G36*
X39399Y39999D02*
X3903D01*
X39036Y39957*
X39081Y39848*
X39154Y39754*
X39248Y39681*
X39357Y39636*
X39399Y3963*
Y39999*
G37*
G36*
X30799Y41118D02*
X30757Y41113D01*
X30648Y41068*
X30554Y40995*
X30481Y40901*
X30436Y40792*
X3043Y40749*
X30799*
Y41118*
G37*
G36*
X46518Y40699D02*
X46149D01*
Y4033*
X46192Y40336*
X46301Y40381*
X46395Y40454*
X46468Y40548*
X46513Y40657*
X46518Y40699*
G37*
G36*
X30949Y41118D02*
Y40749D01*
X31318*
X31313Y40792*
X31268Y40901*
X31195Y40995*
X31101Y41068*
X30992Y41113*
X30949Y41118*
G37*
G36*
X46149Y41218D02*
Y40849D01*
X46518*
X46513Y40892*
X46468Y41001*
X46395Y41095*
X46301Y41168*
X46192Y41213*
X46149Y41218*
G37*
G36*
X45999D02*
X45957Y41213D01*
X45848Y41168*
X45754Y41095*
X45681Y41001*
X45636Y40892*
X4563Y40849*
X45999*
Y41218*
G37*
G36*
Y40699D02*
X4563D01*
X45636Y40657*
X45681Y40548*
X45754Y40454*
X45848Y40381*
X45957Y40336*
X45999Y4033*
Y40699*
G37*
G36*
X39399Y40518D02*
X39357Y40513D01*
X39248Y40468*
X39154Y40395*
X39081Y40301*
X39036Y40192*
X3903Y40149*
X39399*
Y40518*
G37*
G36*
X39918Y39999D02*
X39549D01*
Y3963*
X39592Y39636*
X39701Y39681*
X39795Y39754*
X39868Y39848*
X39913Y39957*
X39918Y39999*
G37*
G36*
X39549Y40518D02*
Y40149D01*
X39918*
X39913Y40192*
X39868Y40301*
X39795Y40395*
X39701Y40468*
X39592Y40513*
X39549Y40518*
G37*
G36*
X31318Y40599D02*
X30949D01*
Y4023*
X30992Y40236*
X31101Y40281*
X31195Y40354*
X31268Y40448*
X31313Y40557*
X31318Y40599*
G37*
G36*
X30799D02*
X3043D01*
X30436Y40557*
X30481Y40448*
X30554Y40354*
X30648Y40281*
X30757Y40236*
X30799Y4023*
Y40599*
G37*
G36*
X29074Y35787D02*
X28705D01*
X28711Y35744*
X28756Y35635*
X28829Y35541*
X28923Y35469*
X29032Y35424*
X29074Y35418*
Y35787*
G37*
G36*
X26999Y34606D02*
Y34237D01*
X27368*
X27363Y34279*
X27318Y34389*
X27245Y34483*
X27151Y34555*
X27042Y346*
X26999Y34606*
G37*
G36*
X29593Y35787D02*
X29224D01*
Y35418*
X29267Y35424*
X29376Y35469*
X2947Y35541*
X29543Y35635*
X29588Y35744*
X29593Y35787*
G37*
G36*
X27293Y36237D02*
X26924D01*
Y35868*
X26967Y35874*
X27076Y35919*
X2717Y35991*
X27243Y36085*
X27288Y36194*
X27293Y36237*
G37*
G36*
X26774D02*
X26405D01*
X26411Y36194*
X26456Y36085*
X26529Y35991*
X26623Y35919*
X26732Y35874*
X26774Y35868*
Y36237*
G37*
G36*
X26849Y34606D02*
X26807Y346D01*
X26698Y34555*
X26603Y34483*
X26531Y34389*
X26486Y34279*
X2648Y34237*
X26849*
Y34606*
G37*
G36*
X50324Y33443D02*
Y33074D01*
X50693*
X50688Y33117*
X50643Y33226*
X5057Y3332*
X50476Y33393*
X50367Y33438*
X50324Y33443*
G37*
G36*
X50174D02*
X50132Y33438D01*
X50023Y33393*
X49929Y3332*
X49856Y33226*
X49811Y33117*
X49805Y33074*
X50174*
Y33443*
G37*
G36*
X56474Y34428D02*
X56364Y34414D01*
X5626Y34371*
X56171Y34303*
X56103Y34214*
X5606Y3411*
X56046Y33999*
X5606Y33888*
X56103Y33785*
X56171Y33696*
X56198Y33568*
X56104Y33495*
X56031Y33401*
X55986Y33292*
X5598Y33249*
X56868*
X56863Y33292*
X56818Y33401*
X56745Y33495*
X56743Y33497*
X56728Y33533*
Y33659*
X56778Y33696*
X56846Y33785*
X56889Y33888*
X56903Y33999*
X56889Y3411*
X56846Y34214*
X56778Y34303*
X56689Y34371*
X56585Y34414*
X56474Y34428*
G37*
G36*
X27368Y34087D02*
X26999D01*
Y33718*
X27042Y33724*
X27151Y33769*
X27245Y33841*
X27318Y33935*
X27363Y34044*
X27368Y34087*
G37*
G36*
X26849D02*
X2648D01*
X26486Y34044*
X26531Y33935*
X26603Y33841*
X26698Y33769*
X26807Y33724*
X26849Y33718*
Y34087*
G37*
G36*
X29074Y36306D02*
X29032Y363D01*
X28923Y36255*
X28829Y36183*
X28756Y36089*
X28711Y35979*
X28705Y35937*
X29074*
Y36306*
G37*
G36*
X26924Y36756D02*
Y36387D01*
X27293*
X27288Y36429*
X27243Y36539*
X2717Y36633*
X27076Y36705*
X26967Y3675*
X26924Y36756*
G37*
G36*
X26774D02*
X26732Y3675D01*
X26623Y36705*
X26529Y36633*
X26456Y36539*
X26411Y36429*
X26405Y36387*
X26774*
Y36756*
G37*
G36*
X33574Y37024D02*
X33205D01*
X33211Y36982*
X33256Y36873*
X33328Y36779*
X33423Y36706*
X33532Y36661*
X33574Y36655*
Y37024*
G37*
G36*
X40624Y37043D02*
X40582Y37038D01*
X40473Y36993*
X40379Y3692*
X40306Y36826*
X40261Y36717*
X40255Y36674*
X40624*
Y37043*
G37*
G36*
X34093Y37024D02*
X33724D01*
Y36655*
X33767Y36661*
X33876Y36706*
X3397Y36779*
X34043Y36873*
X34088Y36982*
X34093Y37024*
G37*
G36*
X47893Y36599D02*
X47524D01*
Y3623*
X47567Y36236*
X47676Y36281*
X4777Y36353*
X47843Y36448*
X47888Y36557*
X47893Y36599*
G37*
G36*
X52899Y36203D02*
X52789Y36189D01*
X52685Y36146*
X52596Y36078*
X5254Y36004*
X50459*
X50403Y36078*
X50314Y36146*
X5021Y36189*
X50099Y36203*
X49989Y36189*
X49885Y36146*
X49796Y36078*
X49728Y35989*
X49685Y35885*
X49671Y35774*
X49685Y35664*
X49728Y3556*
X49796Y35471*
X49885Y35403*
X49989Y3536*
X50099Y35346*
X5021Y3536*
X50314Y35403*
X50403Y35471*
X50459Y35545*
X5254*
X52596Y35471*
X52685Y35403*
X52789Y3536*
X52899Y35346*
X5301Y3536*
X53114Y35403*
X53203Y35471*
X53271Y3556*
X53314Y35664*
X53328Y35774*
X53314Y35885*
X53271Y35989*
X53203Y36078*
X53114Y36146*
X5301Y36189*
X52899Y36203*
G37*
G36*
X29224Y36306D02*
Y35937D01*
X29593*
X29588Y35979*
X29543Y36089*
X2947Y36183*
X29376Y36255*
X29267Y363*
X29224Y36306*
G37*
G36*
X40624Y36524D02*
X40255D01*
X40261Y36482*
X40306Y36373*
X40379Y36279*
X40473Y36206*
X40582Y36161*
X40624Y36155*
Y36524*
G37*
G36*
X47374Y36599D02*
X47005D01*
X47011Y36557*
X47056Y36448*
X47129Y36353*
X47223Y36281*
X47332Y36236*
X47374Y3623*
Y36599*
G37*
G36*
X41143Y36524D02*
X40774D01*
Y36155*
X40817Y36161*
X40926Y36206*
X4102Y36279*
X41093Y36373*
X41138Y36482*
X41143Y36524*
G37*
%LNusb_dongle_pcb-3*%
%LPD*%
G54D27*
X45024Y26324D02*
Y29949D01*
X45049Y26349D02*
Y26599D01*
X45024Y26324D02*
X45049Y26349D01*
X50099Y35774D02*
X52899D01*
X44299Y33224D02*
X45749D01*
X46199Y29124D02*
X46674Y28649D01*
X53949*
X54574Y29274*
X45749Y33224D02*
X46199Y32774D01*
Y29124D02*
Y32774D01*
X42924Y27374D02*
Y31799D01*
X44949Y30024D02*
X45024Y29949D01*
G54D30*
X29074Y30862D03*
X26849Y32562D03*
X26924Y34162D03*
X29149Y35862D03*
X26849Y36312D03*
Y30487D03*
X45049Y26599D03*
X53349Y38849D03*
X40699Y36599D03*
X47449Y36674D03*
X44099Y32174D03*
X54099Y26674D03*
X59524Y28399D03*
X32049Y26049D03*
X37349Y31724D03*
X46074Y40774D03*
X39474Y40074D03*
X30874Y40674D03*
X33649Y37099D03*
X50099Y35774D03*
X52899D03*
X55599Y26274D03*
X28799Y26599D03*
X44774Y38324D03*
X44299Y33224D03*
X54574Y29274D03*
X56474Y33999D03*
X29499Y39624D03*
X44949Y30024D03*
X42924Y31799D03*
Y27374D03*
X56424Y33174D03*
X43524Y29699D03*
X50249Y32999D03*
Y29999D03*
M02*