%FSTAX23Y23*%
%MOMM*%
%SFA1B1*%

%IPPOS*%
%ADD55C,0.127000*%
%LNusb_dongle_pcb-1*%
%LPD*%
G54D55*
X28566Y30354D02*
Y3137D01*
X29582*
Y30354*
X28566*
X26341Y32054D02*
Y3307D01*
X27357*
Y32054*
X26341*
X26416Y33654D02*
Y3467D01*
X27432*
Y33654*
X26416*
X28641Y35354D02*
Y3637D01*
X29657*
Y35354*
X28641*
X26341Y35804D02*
Y3682D01*
X27357*
Y35804*
X26341*
Y29979D02*
Y30995D01*
X27357*
Y29979*
X26341*
X44541Y26091D02*
Y27107D01*
X45557*
Y26091*
X44541*
X52841Y38341D02*
Y39357D01*
X53857*
Y38341*
X52841*
X40191Y36091D02*
Y37107D01*
X41207*
Y36091*
X40191*
X46941Y36166D02*
Y37182D01*
X47957*
Y36166*
X46941*
X43591Y31666D02*
Y32682D01*
X44607*
Y31666*
X43591*
X53591Y26166D02*
Y27182D01*
X54607*
Y26166*
X53591*
X59016Y27891D02*
Y28907D01*
X60032*
Y27891*
X59016*
X31541Y25541D02*
Y26557D01*
X32557*
Y25541*
X31541*
X36841Y31216D02*
Y32232D01*
X37857*
Y31216*
X36841*
X45566Y40266D02*
Y41282D01*
X46582*
Y40266*
X45566*
X38966Y39566D02*
Y40582D01*
X39982*
Y39566*
X38966*
X30366Y40166D02*
Y41182D01*
X31382*
Y40166*
X30366*
X33141Y36591D02*
Y37607D01*
X34157*
Y36591*
X33141*
X49591Y35266D02*
Y36282D01*
X50607*
Y35266*
X49591*
X52391D02*
Y36282D01*
X53407*
Y35266*
X52391*
X55091Y25766D02*
Y26782D01*
X56107*
Y25766*
X55091*
X28291Y26091D02*
Y27107D01*
X29307*
Y26091*
X28291*
X44266Y37816D02*
Y38832D01*
X45282*
Y37816*
X44266*
X43791Y32716D02*
Y33732D01*
X44807*
Y32716*
X43791*
X54066Y28766D02*
Y29782D01*
X55082*
Y28766*
X54066*
X55966Y33491D02*
Y34507D01*
X56982*
Y33491*
X55966*
X28991Y39116D02*
Y40132D01*
X30007*
Y39116*
X28991*
X44441Y29516D02*
Y30532D01*
X45457*
Y29516*
X44441*
X42416Y31291D02*
Y32307D01*
X43432*
Y31291*
X42416*
Y26866D02*
Y27882D01*
X43432*
Y26866*
X42416*
X55916Y32666D02*
Y33682D01*
X56932*
Y32666*
X55916*
X43016Y29191D02*
Y30207D01*
X44032*
Y29191*
X43016*
X49741Y32491D02*
Y33507D01*
X50757*
Y32491*
X49741*
Y29491D02*
Y30507D01*
X50757*
Y29491*
X49741*
M02*