%FSTAX23Y23*%
%MOMM*%
%SFA1B1*%

%IPPOS*%
%ADD10R,0.599999X0.499999*%
%ADD11R,0.499999X0.599999*%
%ADD12R,2.099996X1.474997*%
%ADD13R,1.379997X0.449999*%
%ADD14R,1.899996X1.174998*%
%ADD15R,1.899996X2.374995*%
%ADD16R,0.699999X0.899998*%
%ADD17R,0.899998X0.699999*%
%ADD18O,1.799996X0.449999*%
%ADD19O,2.099996X0.349999*%
%ADD20R,0.599999X0.599999*%
%ADD21R,1.149998X1.399997*%
%ADD22R,0.999998X1.999996*%
%ADD23R,1.399997X0.699999*%
%ADD24O,0.799998X0.200000*%
%ADD25O,0.200000X0.799998*%
%ADD26R,4.599991X4.599991*%
%ADD27C,0.200000*%
%ADD28C,0.299999*%
%ADD29C,0.499999*%
%ADD30C,0.599999*%
%ADD55C,0.127000*%
%LNusb_dongle_pcb-1*%
%LPD*%
G54D55*
X54186Y41336D02*
Y40391D01*
X5172*
X5161Y40377*
X51576Y40363*
X51503Y40333*
X51415Y40265*
X50759Y39609*
X50691Y39521*
X50662Y39448*
X50647Y39414*
X50633Y39304*
Y3872*
X50636Y38696*
Y38236*
X51513*
Y38696*
X51516Y3872*
Y39116*
X51907Y39508*
X54186*
Y34935*
Y34926*
X54153Y34892*
X54143*
X54064Y34877*
X54037Y34871*
X53947Y34811*
X53513Y34377*
X53453Y34287*
X53432Y34181*
Y34071*
X53403Y34042*
X52943*
X52837Y34021*
X52742Y33958*
X5276Y33985*
X52745Y33995*
X52735Y3401*
X52708Y33992*
X52771Y34087*
X52792Y34193*
Y34806*
X52771Y34912*
X52707Y35007*
X5267Y35032*
X52666Y35079*
X52677Y35138*
X5283Y35291*
X52899Y35282*
X53027Y35299*
X53146Y35348*
X53248Y35426*
X53326Y35528*
X53375Y35647*
X53392Y35774*
X53375Y35902*
X53326Y36021*
X53248Y36123*
X53146Y36201*
X53167Y36192*
Y36286*
X53313*
Y37199*
Y37273*
X53338Y37298*
Y37763*
X52411*
Y37261*
X52436*
Y37199*
Y37067*
X52388*
Y37263*
X51574*
X51582*
X51513Y37332*
Y38213*
X50636*
Y37299*
Y37199*
Y36286*
X51449*
X51574*
X52388*
Y36482*
X52436*
Y36286*
X52582*
Y36146*
X52551Y36123*
X52473Y36021*
X52424Y35902*
X52419Y35867*
X52388Y35869*
Y36263*
X51574*
X51484*
X51449*
X50636*
Y35737*
X50655Y35745*
X50595Y35792*
X50592Y35774*
X50575Y35902*
X50526Y36021*
X50448Y36123*
X50392Y36165*
Y36361*
X50538*
Y37274*
Y37348*
X50563Y37373*
Y37838*
X49636*
Y37336*
X49661*
Y37274*
Y36361*
X49807*
Y36165*
X49751Y36123*
X49673Y36021*
X49624Y35902*
X49607Y35774*
X49624Y35647*
X49673Y35528*
X49751Y35426*
X49853Y35348*
X49972Y35299*
X501Y35282*
X50169Y35291*
X50322Y35138*
X50333Y35079*
X50329Y35032*
X50292Y35007*
X50291Y35006*
X50208*
X50207Y35007*
X50112Y35071*
X49999Y35094*
X49887Y35071*
X49792Y35007*
X49791Y35006*
X49708*
X49707Y35007*
X49612Y35071*
X49499Y35094*
X49387Y35071*
X49292Y35007*
X49291Y35006*
X49208*
X49207Y35007*
X49112Y35071*
X48999Y35094*
X48887Y35071*
X48792Y35007*
X48791Y35006*
X48708*
X48707Y35007*
X48612Y35071*
X48499Y35094*
X48387Y35071*
X48292Y35007*
X48291Y35006*
X48208*
X48207Y35007*
X48112Y35071*
X47999Y35094*
X47887Y35071*
X47791Y35007*
X47728Y34912*
X47707Y34806*
Y34193*
X47728Y34087*
X47765Y34031*
X47753Y34002*
X47741Y33999*
X47672Y34045*
X47556Y34068*
X47261*
Y33813*
X47238*
Y34068*
X46943*
X46827Y34045*
X46724Y33975*
X46654Y33872*
X46652Y33861*
X46617Y33865*
Y34981*
X46602Y3506*
X46596Y35087*
X46536Y35177*
X46277Y35436*
X46187Y35496*
X46081Y35517*
X45863*
Y35713*
X44886*
Y34736*
X45863*
Y34932*
X45953*
X46032Y34853*
Y33518*
X46053Y33412*
X46113Y33322*
X46397Y33038*
X46487Y32978*
X46593Y32957*
X46663*
X46697Y32891*
X46678Y32862*
X46655Y32749*
X46678Y32637*
X46741Y32542*
X46743Y32541*
Y32458*
X46741Y32457*
X46678Y32362*
X46655Y32249*
X46678Y32137*
X46697Y32108*
X46663Y32042*
X46563*
Y32288*
X45649*
X45576*
X45551Y32313*
X45086*
Y31913*
X45063*
Y32313*
X44624*
X44599*
X446Y32309*
X44548Y32433*
X44466Y32541*
X44358Y32623*
X44234Y32675*
X44111Y32691*
Y32174*
Y31658*
X44234Y31674*
X44358Y31726*
X44466Y31808*
X44505Y3186*
X44561Y31841*
Y31542*
X43596*
X43408Y3173*
X43417Y31799*
X434Y31927*
X43351Y32046*
X43273Y32148*
X43171Y32226*
X43052Y32275*
X42924Y32292*
X42797Y32275*
X42678Y32226*
X42646Y32201*
X42579Y32232*
X42542Y32858*
X42521Y32962*
X42461Y33052*
X42077Y33436*
X41987Y33496*
X41881Y33517*
X4174*
X41755Y33506*
Y33593*
X41784Y33615*
X41842Y33691*
X41879Y3378*
X41891Y33874*
X41879Y33969*
X41842Y34058*
X41784Y34134*
X41755Y34156*
Y34163*
X41824Y34232*
X42153*
X42707Y33678*
X42711Y33687*
Y32761*
X43688*
Y33738*
X43466*
X43471Y33712*
X43411Y33802*
X42477Y34736*
X42387Y34796*
X42281Y34817*
X4174*
X41755Y34806*
Y34813*
X41824Y34882*
X42686*
Y34736*
X43663*
Y35713*
X42686*
Y35467*
X4174*
X41708Y35492*
X41619Y35529*
X41529Y35541*
X3977*
X3968Y35529*
X39591Y35492*
X39515Y35434*
X39457Y35358*
X3942Y35269*
X39408Y35174*
X3942Y3508*
X39457Y34991*
X39515Y34915*
X39544Y34893*
Y34806*
X39515Y34784*
X39457Y34708*
X3942Y34619*
X39408Y34524*
X3942Y3443*
X39457Y34341*
X39515Y34265*
X39544Y34243*
Y34156*
X39515Y34134*
X39457Y34058*
X3942Y33969*
X39408Y33874*
X3942Y3378*
X39457Y33691*
X39515Y33615*
X39544Y33593*
Y33506*
X39515Y33484*
X39457Y33408*
X3942Y33319*
X39408Y33224*
X3942Y3313*
X39457Y33041*
X39515Y32965*
X39544Y32943*
Y32856*
X39515Y32834*
X39457Y32758*
X3942Y32669*
X39408Y32574*
X3942Y3248*
X39457Y32391*
X39515Y32315*
X39544Y32293*
Y32206*
X39515Y32184*
X39457Y32108*
X3942Y32019*
X39408Y31924*
X3942Y3183*
X39457Y31741*
X39515Y31665*
X39544Y31643*
Y31556*
X39515Y31534*
X39457Y31458*
X3942Y31369*
X39408Y31274*
X3942Y3118*
X39457Y31091*
X39515Y31015*
X39523Y31009*
Y30922*
X39497Y30902*
X39435Y3082*
X39396Y30726*
X39384Y30636*
X40586*
Y30613*
X39384*
X39396Y30523*
X39435Y30429*
X39497Y30347*
X39523Y30327*
Y3024*
X39517Y30234*
X39457Y30158*
X3942Y30069*
X39408Y29974*
X3942Y2988*
X39457Y29791*
X39515Y29715*
X39544Y29693*
Y29606*
X39515Y29584*
X39457Y29508*
X3942Y29419*
X39408Y29324*
X3942Y2923*
X39457Y29141*
X39515Y29065*
X39544Y29043*
Y28956*
X39515Y28934*
X39457Y28858*
X3942Y28769*
X39408Y28674*
X3942Y2858*
X39457Y28491*
X39515Y28415*
X39544Y28393*
Y28306*
X39515Y28284*
X39457Y28208*
X3942Y28119*
X39408Y28024*
X3942Y2793*
X39457Y27841*
X39515Y27765*
X39544Y27743*
Y27656*
X39515Y27634*
X39457Y27558*
X3942Y27469*
X39408Y27374*
X3942Y2728*
X39457Y27191*
X39515Y27115*
X39544Y27093*
Y27006*
X39515Y26984*
X39457Y26908*
X3942Y26819*
X39408Y26724*
X3942Y2663*
X39457Y26541*
X39515Y26465*
X39591Y26407*
X3968Y2637*
X3977Y26358*
X41529*
X41619Y2637*
X41708Y26407*
X4174Y26432*
X42353*
X42397Y26388*
X42487Y26328*
X42593Y26307*
X44658*
X44701Y26251*
X44803Y26173*
X44922Y26124*
X45049Y26107*
X45177Y26124*
X45296Y26173*
X45398Y26251*
X45476Y26353*
X45525Y26472*
X45542Y26599*
X45525Y26727*
X45476Y26846*
X45398Y26948*
X45316Y27011*
X45316Y2701*
X45338Y27062*
Y27289*
Y27563*
X44686*
Y27027*
X44711Y26955*
X44701Y26948*
X44658Y26892*
X43154*
X43146Y26937*
X43171Y26948*
X43273Y27026*
X43351Y27128*
X434Y27247*
X43417Y27374*
X434Y27502*
X43351Y27621*
X43273Y27723*
X43171Y27801*
X43052Y2785*
X42924Y27867*
X42855Y27858*
X42537Y28176*
X42562Y28236*
X42999*
X43073*
X43098Y28211*
X43563*
Y28611*
X43586*
Y28211*
X44088*
Y28536*
X44099*
X45249*
X45261*
Y28574*
Y28151*
X45248Y28138*
X45218*
X44686*
Y27586*
X45338*
Y27611*
X45324*
X45381*
X45713*
Y28061*
X45788*
Y28136*
X46188*
Y28638*
X46163*
Y28699*
Y28957*
X47556*
X47662Y28978*
X47757Y29041*
X47739Y29014*
X47754Y29004*
X47764Y28989*
X47791Y29007*
X47728Y28912*
X47707Y28806*
Y28193*
X47728Y28087*
X47792Y27991*
X47887Y27928*
X47999Y27905*
X48112Y27928*
X48207Y27991*
X48208Y27993*
X48291*
X48292Y27991*
X48387Y27928*
X48499Y27905*
X48612Y27928*
X48707Y27991*
X48708Y27993*
X48791*
X48792Y27991*
X48887Y27928*
X48999Y27905*
X49112Y27928*
X49207Y27991*
X49208Y27993*
X49291*
X49292Y27991*
X49387Y27928*
X495Y27905*
X49491Y27904*
X49561Y27847*
Y27049*
Y26976*
X49536Y26951*
Y26486*
X50463*
Y26988*
X50438*
Y27049*
Y27847*
X50508Y27904*
X50499Y27905*
X50612Y27928*
X50707Y27991*
X50708Y27993*
X50791*
X50792Y27991*
X50887Y27928*
X50999Y27905*
X51112Y27928*
X51207Y27991*
X51208Y27993*
X51291*
X51292Y27991*
X51387Y27928*
X51499Y27905*
X51612Y27928*
X51697Y27984*
X51746Y28015*
X51774Y27974*
X51877Y27904*
X51988Y27882*
Y28436*
X52011*
Y27882*
X52122Y27904*
X52155Y27927*
X52231Y27895*
X52228Y27912*
X52288Y27822*
X52447Y27663*
X52537Y27603*
X52643Y27582*
X56703*
X56861Y27424*
Y26974*
Y26982*
X56792Y26913*
X56261*
Y26567*
X5599*
X55948Y26623*
X55846Y26701*
X55727Y2675*
X55599Y26767*
X55472Y2675*
X55353Y26701*
X55251Y26623*
X55173Y26521*
X55124Y26402*
X55107Y26274*
X55124Y26147*
X55173Y26028*
X55251Y25926*
X55353Y25848*
X55472Y25799*
X55599Y25782*
X55727Y25799*
X55846Y25848*
X55948Y25926*
X5599Y25982*
X56261*
Y25636*
X57338*
Y26849*
Y26842*
X57407Y26911*
X57838*
Y27788*
X57325*
X57027Y28086*
X56937Y28146*
X56831Y28167*
X52771*
X52792Y28146*
Y28499*
Y28806*
X52771Y28912*
X52708Y29007*
X52735Y28989*
X52745Y29004*
X5276Y29014*
X52742Y29041*
X52837Y28978*
X52943Y28957*
X53556*
X53662Y28978*
X53757Y29042*
X53821Y29137*
X53844Y29249*
X53821Y29362*
X53758Y29457*
X53756Y29458*
Y29541*
X53758Y29542*
X53821Y29637*
X53844Y29749*
X53821Y29862*
X53802Y29891*
X53836Y29957*
X54228*
X54282Y29903*
Y29665*
X54226Y29623*
X54148Y29521*
X54099Y29402*
X54082Y29274*
X54099Y29147*
X54148Y29028*
X54226Y28926*
X54328Y28848*
X54447Y28799*
X54574Y28782*
X54702Y28799*
X54821Y28848*
X54923Y28926*
X55001Y29028*
X5505Y29147*
X55059Y29211*
X55149*
X55538*
Y29661*
X55561*
Y29211*
X55918*
X55923*
X55961Y29173*
Y28811*
X56738*
Y29661*
X56813*
Y29736*
X57538*
Y30457*
X57586*
Y28836*
X59113*
Y30613*
X58587*
X58561Y30652*
X58252Y30961*
X58257Y30958*
X58274Y31011*
X58306Y31043*
X58336Y31861*
X58413*
Y31936*
X59138*
Y32668*
Y32711*
X59338*
Y32836*
X59299*
X59381*
X59688*
Y33286*
X59763*
Y33361*
X60163*
Y33863*
X60138*
Y33924*
Y34774*
Y34767*
X60207Y34836*
X60336*
Y25463*
X25463*
Y41336*
X54186*
X25476Y25501D02*
X60324D01*
X25476Y25603D02*
X60324D01*
X25476Y25704D02*
X56235D01*
X57353D02*
X60324D01*
X25476Y25806D02*
X55448D01*
X55752D02*
X56235D01*
X57353D02*
X60324D01*
X25476Y25907D02*
X5527D01*
X55956D02*
X56235D01*
X57353D02*
X60324D01*
X25476Y26009D02*
X55168D01*
X57353D02*
X60324D01*
X25476Y26111D02*
X55117D01*
X57353D02*
X60324D01*
X25476Y26212D02*
X44729D01*
X45364D02*
X55092D01*
X57353D02*
X60324D01*
X25476Y26314D02*
X4257D01*
X45465D02*
X55092D01*
X57353D02*
X60324D01*
X25476Y26415D02*
X39573D01*
X41732D02*
X42341D01*
X45516D02*
X55117D01*
X57353D02*
X60324D01*
X25476Y26517D02*
X39446D01*
X45567D02*
X49504D01*
X50495D02*
X55143D01*
X57353D02*
X60324D01*
X25476Y26619D02*
X39395D01*
X45567D02*
X49504D01*
X50495D02*
X55219D01*
X55981D02*
X56235D01*
X57353D02*
X60324D01*
X25476Y2672D02*
X39395D01*
X45542D02*
X49504D01*
X50495D02*
X55397D01*
X55829D02*
X56235D01*
X57353D02*
X60324D01*
X25476Y26822D02*
X39395D01*
X45516D02*
X49504D01*
X50495D02*
X56235D01*
X57353D02*
X60324D01*
X25476Y26923D02*
X39446D01*
X43179D02*
X44653D01*
X4544D02*
X49504D01*
X50495D02*
X56768D01*
X57861D02*
X60324D01*
X25476Y27025D02*
X39522D01*
X43306D02*
X44653D01*
X45364D02*
X49529D01*
X50469D02*
X56845D01*
X57861D02*
X60324D01*
X25476Y27127D02*
X39496D01*
X43383D02*
X44653D01*
X45364D02*
X49529D01*
X50469D02*
X56845D01*
X57861D02*
X60324D01*
X25476Y27228D02*
X3942D01*
X43433D02*
X44653D01*
X45364D02*
X49529D01*
X50469D02*
X56845D01*
X57861D02*
X60324D01*
X25476Y2733D02*
X39395D01*
X43433D02*
X44653D01*
X45364D02*
X49529D01*
X50469D02*
X56845D01*
X57861D02*
X60324D01*
X25476Y27431D02*
X39395D01*
X43433D02*
X44653D01*
X45364D02*
X49529D01*
X50469D02*
X56845D01*
X57861D02*
X60324D01*
X25476Y27533D02*
X3942D01*
X43433D02*
X44653D01*
X45364D02*
X49529D01*
X50469D02*
X56743D01*
X57861D02*
X60324D01*
X25476Y27635D02*
X39496D01*
X43383D02*
X44653D01*
X45745D02*
X49529D01*
X50469D02*
X52476D01*
X57861D02*
X60324D01*
X25476Y27736D02*
X39522D01*
X43281D02*
X44653D01*
X45745D02*
X49529D01*
X50469D02*
X52349D01*
X57861D02*
X60324D01*
X25476Y27838D02*
X3942D01*
X43078D02*
X44653D01*
X45745D02*
X49529D01*
X50469D02*
X52273D01*
X57302D02*
X60324D01*
X25476Y27939D02*
X39395D01*
X42798D02*
X44653D01*
X45745D02*
X47853D01*
X48132D02*
X48361D01*
X4864D02*
X48869D01*
X49148D02*
X49352D01*
X50647D02*
X5085D01*
X5113D02*
X51358D01*
X51638D02*
X5179D01*
X52019D02*
X51993D01*
X572D02*
X60324D01*
X25476Y28041D02*
X39395D01*
X42697D02*
X44653D01*
X45745D02*
X47751D01*
X52019D02*
X51993D01*
X57099D02*
X60324D01*
X25476Y28143D02*
X3942D01*
X42595D02*
X45237D01*
X46202D02*
X47701D01*
X52019D02*
X51993D01*
X56972D02*
X60324D01*
X25476Y28244D02*
X39446D01*
X43586D02*
X4356D01*
X44119D02*
X45237D01*
X46202D02*
X47675D01*
X52019D02*
X51993D01*
X52806D02*
X60324D01*
X25476Y28346D02*
X39522D01*
X43586D02*
X4356D01*
X44119D02*
X45237D01*
X46202D02*
X47675D01*
X52019D02*
X51993D01*
X52806D02*
X60324D01*
X25476Y28447D02*
X39471D01*
X43586D02*
X4356D01*
X44119D02*
X45237D01*
X46202D02*
X47675D01*
X52806D02*
X60324D01*
X25476Y28549D02*
X3942D01*
X43586D02*
X4356D01*
X46202D02*
X47675D01*
X52806D02*
X60324D01*
X25476Y28651D02*
X39395D01*
X46177D02*
X47675D01*
X52806D02*
X60324D01*
X25476Y28752D02*
X39395D01*
X46177D02*
X47675D01*
X52806D02*
X60324D01*
X25476Y28854D02*
X3942D01*
X46177D02*
X47701D01*
X52806D02*
X54305D01*
X54838D02*
X5593D01*
X56768D02*
X57556D01*
X59131D02*
X60324D01*
X25476Y28955D02*
X39522D01*
X47574D02*
X47751D01*
X52781D02*
X52908D01*
X53593D02*
X54203D01*
X54965D02*
X5593D01*
X56768D02*
X57556D01*
X59131D02*
X60324D01*
X25476Y29057D02*
X39496D01*
X53797D02*
X54127D01*
X55041D02*
X5593D01*
X56768D02*
X57556D01*
X59131D02*
X60324D01*
X25476Y29159D02*
X3942D01*
X53873D02*
X54076D01*
X55067D02*
X5593D01*
X56768D02*
X57556D01*
X59131D02*
X60324D01*
X25476Y2926D02*
X39395D01*
X53873D02*
X54076D01*
X56768D02*
X57556D01*
X59131D02*
X60324D01*
X25476Y29362D02*
X39395D01*
X53847D02*
X54076D01*
X56768D02*
X57556D01*
X59131D02*
X60324D01*
X25476Y29463D02*
X3942D01*
X53771D02*
X54101D01*
X56768D02*
X57556D01*
X59131D02*
X60324D01*
X25476Y29565D02*
X39471D01*
X53797D02*
X54178D01*
X56768D02*
X57556D01*
X59131D02*
X60324D01*
X25476Y29667D02*
X39522D01*
X53873D02*
X54254D01*
X56845D02*
X57556D01*
X59131D02*
X60324D01*
X25476Y29768D02*
X39446D01*
X53873D02*
X54254D01*
X57556D02*
D01*
X59131D02*
X60324D01*
X25476Y2987D02*
X39395D01*
X53847D02*
X54254D01*
X57556D02*
D01*
X59131D02*
X60324D01*
X25476Y29971D02*
X39395D01*
X57556D02*
D01*
X59131D02*
X60324D01*
X25476Y30073D02*
X39395D01*
X57556D02*
D01*
X59131D02*
X60324D01*
X25476Y30175D02*
X39446D01*
X57556D02*
D01*
X59131D02*
X60324D01*
X25476Y30276D02*
X39496D01*
X57556D02*
D01*
X59131D02*
X60324D01*
X25476Y30378D02*
X39471D01*
X57556D02*
D01*
X59131D02*
X60324D01*
X25476Y30479D02*
X39395D01*
X59131D02*
X60324D01*
X25476Y30581D02*
X39369D01*
X59131D02*
X60324D01*
X25476Y30683D02*
X39369D01*
X58572D02*
X60324D01*
X25476Y30784D02*
X3942D01*
X5847D02*
X60324D01*
X25476Y30886D02*
X39471D01*
X58369D02*
X60324D01*
X25476Y30987D02*
X39496D01*
X58292D02*
X60324D01*
X25476Y31089D02*
X3942D01*
X58369D02*
X60324D01*
X25476Y31191D02*
X39395D01*
X58369D02*
X60324D01*
X25476Y31292D02*
X39395D01*
X58369D02*
X60324D01*
X25476Y31394D02*
X3942D01*
X58369D02*
X60324D01*
X25476Y31495D02*
X39446D01*
X58369D02*
X60324D01*
X25476Y31597D02*
X39522D01*
X4356D02*
X44526D01*
X58369D02*
X60324D01*
X25476Y31699D02*
X39471D01*
X43459D02*
X44094D01*
X44322D02*
X44526D01*
X58369D02*
X60324D01*
X25476Y318D02*
X3942D01*
X43433D02*
X44094D01*
X445D02*
X44526D01*
X58369D02*
X60324D01*
X25476Y31902D02*
X39395D01*
X43433D02*
X44094D01*
X45084D02*
X45059D01*
X58445D02*
X60324D01*
X25476Y32003D02*
X39395D01*
X43408D02*
X44094D01*
X45084D02*
X45059D01*
X59156D02*
X60324D01*
X25476Y32105D02*
X3942D01*
X43357D02*
X44094D01*
X45084D02*
X45059D01*
X46583D02*
X46659D01*
X59156D02*
X60324D01*
X25476Y32207D02*
X39522D01*
X43256D02*
X44094D01*
X45084D02*
X45059D01*
X46583D02*
X46659D01*
X59156D02*
X60324D01*
X25476Y32308D02*
X39496D01*
X42595D02*
X44094D01*
X44627D02*
X46659D01*
X59156D02*
X60324D01*
X25476Y3241D02*
X3942D01*
X42595D02*
X44094D01*
X44602D02*
X46685D01*
X59156D02*
X60324D01*
X25476Y32511D02*
X39395D01*
X42595D02*
X44094D01*
X44526D02*
X4671D01*
X59156D02*
X60324D01*
X25476Y32613D02*
X39395D01*
X42595D02*
X44094D01*
X44373D02*
X46685D01*
X59156D02*
X60324D01*
X25476Y32715D02*
X3942D01*
X42595D02*
X46659D01*
X59359D02*
X60324D01*
X25476Y32816D02*
X39471D01*
X42595D02*
X42697D01*
X43713D02*
X46659D01*
X59359D02*
X60324D01*
X25476Y32918D02*
X39522D01*
X4257D02*
X42697D01*
X43713D02*
X46659D01*
X59715D02*
X60324D01*
X25476Y33019D02*
X39446D01*
X42519D02*
X42697D01*
X43713D02*
X46405D01*
X59715D02*
X60324D01*
X25476Y33121D02*
X39395D01*
X42417D02*
X42697D01*
X43713D02*
X46304D01*
X59715D02*
X60324D01*
X25476Y33223D02*
X39395D01*
X42316D02*
X42697D01*
X43713D02*
X46202D01*
X59715D02*
X60324D01*
X25476Y33324D02*
X39395D01*
X42214D02*
X42697D01*
X43713D02*
X46075D01*
X59791D02*
X60324D01*
X25476Y33426D02*
X39446D01*
X42113D02*
X42697D01*
X43713D02*
X46024D01*
X60197D02*
X60324D01*
X25476Y33527D02*
X39522D01*
X41782D02*
X42697D01*
X43713D02*
X45999D01*
X60197D02*
X60324D01*
X25476Y33629D02*
X39471D01*
X41833D02*
X42697D01*
X43713D02*
X45999D01*
X60197D02*
X60324D01*
X25476Y33731D02*
X3942D01*
X41884D02*
X42646D01*
X43484D02*
X45999D01*
X60197D02*
X60324D01*
X25476Y33832D02*
X39395D01*
X41909D02*
X42544D01*
X43408D02*
X45999D01*
X47269D02*
X47243D01*
X60197D02*
X60324D01*
X25476Y33934D02*
X39395D01*
X41909D02*
X42443D01*
X43306D02*
X45999D01*
X46634D02*
X46685D01*
X47269D02*
X47243D01*
X60172D02*
X60324D01*
X25476Y34035D02*
X3942D01*
X41884D02*
X42341D01*
X43205D02*
X45999D01*
X46634D02*
X46812D01*
X47269D02*
X47243D01*
X47701D02*
X47751D01*
X52781D02*
X5339D01*
X60172D02*
X60324D01*
X25476Y34137D02*
X39496D01*
X41808D02*
X4224D01*
X43103D02*
X45999D01*
X46634D02*
X47701D01*
X52806D02*
X53416D01*
X60172D02*
X60324D01*
X25476Y34239D02*
X39522D01*
X43002D02*
X45999D01*
X46634D02*
X47675D01*
X52806D02*
X53416D01*
X60172D02*
X60324D01*
X25476Y3434D02*
X3942D01*
X429D02*
X45999D01*
X46634D02*
X47675D01*
X52806D02*
X53466D01*
X60172D02*
X60324D01*
X25476Y34442D02*
X39395D01*
X42798D02*
X45999D01*
X46634D02*
X47675D01*
X52806D02*
X53568D01*
X60172D02*
X60324D01*
X25476Y34543D02*
X39395D01*
X42697D02*
X45999D01*
X46634D02*
X47675D01*
X52806D02*
X5367D01*
X60172D02*
X60324D01*
X25476Y34645D02*
X3942D01*
X42595D02*
X45999D01*
X46634D02*
X47675D01*
X52806D02*
X53771D01*
X60172D02*
X60324D01*
X25476Y34747D02*
X39471D01*
X42494D02*
X42671D01*
X43687D02*
X44856D01*
X45897D02*
X45999D01*
X46634D02*
X47675D01*
X52806D02*
X53873D01*
X60172D02*
X60324D01*
X25476Y34848D02*
X39522D01*
X41833D02*
X42671D01*
X43687D02*
X44856D01*
X45897D02*
X45999D01*
X46634D02*
X47701D01*
X52806D02*
X53974D01*
X25476Y3495D02*
X39471D01*
X43687D02*
X44856D01*
X46634D02*
X47726D01*
X52781D02*
X54152D01*
X25476Y35051D02*
X3942D01*
X43687D02*
X44856D01*
X46634D02*
X47828D01*
X48183D02*
X48336D01*
X48691D02*
X48844D01*
X49174D02*
X49326D01*
X49682D02*
X49834D01*
X5019D02*
X50317D01*
X52704D02*
X54152D01*
X25476Y35153D02*
X39395D01*
X43687D02*
X44856D01*
X46583D02*
X50266D01*
X5273D02*
X54152D01*
X25476Y35255D02*
X39395D01*
X43687D02*
X44856D01*
X46481D02*
X50164D01*
X52831D02*
X54152D01*
X25476Y35356D02*
X3942D01*
X43687D02*
X44856D01*
X4638D02*
X49834D01*
X53162D02*
X54152D01*
X25476Y35458D02*
X39547D01*
X41757D02*
X42671D01*
X43687D02*
X44856D01*
X46278D02*
X49733D01*
X53289D02*
X54152D01*
X25476Y35559D02*
X42671D01*
X43687D02*
X44856D01*
X45897D02*
X49656D01*
X53365D02*
X54152D01*
X25476Y35661D02*
X42671D01*
X43687D02*
X44856D01*
X45897D02*
X49606D01*
X53416D02*
X54152D01*
X25476Y35763D02*
X4958D01*
X50647D02*
X50622D01*
X53416D02*
X54152D01*
X25476Y35864D02*
X49606D01*
X50622D02*
D01*
X52425D02*
X524D01*
X53416D02*
X54152D01*
X25476Y35966D02*
X49656D01*
X50571D02*
X50622D01*
X52425D02*
X5245D01*
X53365D02*
X54152D01*
X25476Y36067D02*
X49707D01*
X5052D02*
X50622D01*
X52425D02*
X52501D01*
X53314D02*
X54152D01*
X25476Y36169D02*
X49783D01*
X50418D02*
X50622D01*
X52425D02*
X52552D01*
X53212D02*
X54152D01*
X25476Y36271D02*
X49783D01*
X50418D02*
X52552D01*
X53187D02*
X54152D01*
X25476Y36372D02*
X49631D01*
X50571D02*
X50622D01*
X52425D02*
X524D01*
X53339D02*
X54152D01*
X25476Y36474D02*
X49631D01*
X50571D02*
X50622D01*
X53339D02*
X54152D01*
X25476Y36575D02*
X49631D01*
X50571D02*
X50622D01*
X53339D02*
X54152D01*
X25476Y36677D02*
X49631D01*
X50571D02*
X50622D01*
X53339D02*
X54152D01*
X25476Y36779D02*
X49631D01*
X50571D02*
X50622D01*
X53339D02*
X54152D01*
X25476Y3688D02*
X49631D01*
X50571D02*
X50622D01*
X53339D02*
X54152D01*
X25476Y36982D02*
X49631D01*
X50571D02*
X50622D01*
X53339D02*
X54152D01*
X25476Y37083D02*
X49631D01*
X50571D02*
X50622D01*
X52425D02*
X524D01*
X53339D02*
X54152D01*
X25476Y37185D02*
X49631D01*
X50571D02*
X50622D01*
X52425D02*
X524D01*
X53339D02*
X54152D01*
X25476Y37287D02*
X49631D01*
X50571D02*
X50622D01*
X51587D02*
X52374D01*
X53365D02*
X54152D01*
X25476Y37388D02*
X49606D01*
X50596D02*
X50622D01*
X51536D02*
X52374D01*
X53365D02*
X54152D01*
X25476Y3749D02*
X49606D01*
X50596D02*
X50622D01*
X51536D02*
X52374D01*
X53365D02*
X54152D01*
X25476Y37591D02*
X49606D01*
X50596D02*
X50622D01*
X51536D02*
X52374D01*
X53365D02*
X54152D01*
X25476Y37693D02*
X49606D01*
X50596D02*
X50622D01*
X51536D02*
X52374D01*
X53365D02*
X54152D01*
X25476Y37795D02*
X49606D01*
X50596D02*
X50622D01*
X51536D02*
X54152D01*
X25476Y37896D02*
X50622D01*
X51536D02*
X54152D01*
X25476Y37998D02*
X50622D01*
X51536D02*
X54152D01*
X25476Y38099D02*
X50622D01*
X51536D02*
X54152D01*
X25476Y38201D02*
X54152D01*
X25476Y38303D02*
X50622D01*
X51536D02*
X54152D01*
X25476Y38404D02*
X50622D01*
X51536D02*
X54152D01*
X25476Y38506D02*
X50622D01*
X51536D02*
X54152D01*
X25476Y38607D02*
X50622D01*
X51536D02*
X54152D01*
X25476Y38709D02*
X50596D01*
X51536D02*
X54152D01*
X25476Y38811D02*
X50596D01*
X51536D02*
X54152D01*
X25476Y38912D02*
X50596D01*
X51536D02*
X54152D01*
X25476Y39014D02*
X50596D01*
X51536D02*
X54152D01*
X25476Y39115D02*
X50596D01*
X51536D02*
X54152D01*
X25476Y39217D02*
X50596D01*
X51663D02*
X54152D01*
X25476Y39319D02*
X50622D01*
X51765D02*
X54152D01*
X25476Y3942D02*
X50622D01*
X51866D02*
X54152D01*
X25476Y39522D02*
X50672D01*
X25476Y39623D02*
X50749D01*
X25476Y39725D02*
X5085D01*
X25476Y39827D02*
X50952D01*
X25476Y39928D02*
X51053D01*
X25476Y4003D02*
X51155D01*
X25476Y40131D02*
X51257D01*
X25476Y40233D02*
X51358D01*
X25476Y40335D02*
X51485D01*
X25476Y40436D02*
X54152D01*
X25476Y40538D02*
X54152D01*
X25476Y40639D02*
X54152D01*
X25476Y40741D02*
X54152D01*
X25476Y40843D02*
X54152D01*
X25476Y40944D02*
X54152D01*
X25476Y41046D02*
X54152D01*
X25476Y41147D02*
X54152D01*
X25476Y41249D02*
X54152D01*
X59261Y34249D02*
Y33924D01*
Y33851*
X59236Y33826*
Y33626*
X59248Y33638*
X59193*
X58836*
Y33238*
X58813*
Y33638*
X58311*
Y33613*
X58249*
X57336*
Y33467*
X57236Y33446*
X57147Y33386*
X56998Y33238*
X56931Y3326*
X56925Y33309*
X56873Y33433*
X56797Y33532*
X56792Y33546*
Y33627*
X56823Y33651*
X56901Y33753*
X5695Y33872*
X56967Y33999*
X5695Y34127*
X56901Y34246*
X56903Y34243*
X56935Y34307*
X59203*
X59261Y34249*
X56946Y33299D02*
X57048D01*
X58826D02*
X588D01*
X56921Y334D02*
X57149D01*
X58826D02*
X588D01*
X56845Y33502D02*
X57302D01*
X58826D02*
X588D01*
X56819Y33604D02*
X58292D01*
X58826D02*
X588D01*
X56895Y33705D02*
X59207D01*
X56946Y33807D02*
X59207D01*
X56997Y33908D02*
X59258D01*
X56997Y3401D02*
X59258D01*
X56997Y34112D02*
X59258D01*
X56946Y34213D02*
X59258D01*
X31165Y35128D02*
X31368D01*
X31165Y35229D02*
X31394D01*
X31165Y35331D02*
X31394D01*
X31165Y35432D02*
X31394D01*
X31165Y35534D02*
X31394D01*
X31165Y35636D02*
X31394D01*
X31165Y35737D02*
X31368D01*
X31165Y35839D02*
X31368D01*
X35204D02*
X35331D01*
X31165Y3594D02*
X31368D01*
X35102D02*
X35331D01*
X31165Y36042D02*
X31368D01*
X32334D02*
X3241D01*
X3495D02*
X35331D01*
X31165Y36144D02*
X31368D01*
X32334D02*
X35331D01*
X31165Y36245D02*
X35331D01*
X31165Y36347D02*
X35331D01*
X31165Y36448D02*
X35331D01*
X31165Y3655D02*
X35331D01*
X31165Y36652D02*
X33629D01*
X33934D02*
X35331D01*
X31165Y36753D02*
X33629D01*
X34061D02*
X35331D01*
X31826Y36855D02*
X33629D01*
X34137D02*
X35331D01*
X31826Y36956D02*
X33629D01*
X34645D02*
X3462D01*
X31826Y37058D02*
X33629D01*
X34645D02*
X3462D01*
X31826Y3716D02*
X33629D01*
X34645D02*
X3462D01*
X32334Y37261D02*
X33629D01*
X34645D02*
X3462D01*
X32334Y37363D02*
X33629D01*
X32334Y37464D02*
X33629D01*
X32334Y37566D02*
X33629D01*
X33883D02*
X34086D01*
X32384Y37668D02*
X34086D01*
%LNusb_dongle_pcb-2*%
%LPC*%
G36*
X37274Y32168D02*
X37232Y32163D01*
X37123Y32118*
X37028Y32045*
X36956Y31951*
X36911Y31842*
X36905Y31799*
X37274*
Y32168*
G37*
G36*
X37424D02*
Y31799D01*
X37793*
X37788Y31842*
X37743Y31951*
X3767Y32045*
X37576Y32118*
X37467Y32163*
X37424Y32168*
G37*
G36*
X32249Y32774D02*
X31924D01*
Y32399*
X32249*
Y32774*
G37*
G36*
X44024Y32618D02*
X43982Y32613D01*
X43873Y32568*
X43779Y32495*
X43706Y32401*
X43661Y32292*
X43655Y32249*
X44024*
Y32618*
G37*
G36*
X27949Y32487D02*
X25749D01*
Y31931*
Y31824*
Y31718*
Y30562*
X26849*
Y30487*
X26924*
Y29149*
X27949*
Y30049*
X28056*
X29074*
Y30937*
X29149*
Y31012*
X30349*
Y31824*
Y32024*
X28669*
Y31931*
X28563Y31824*
X27949*
Y31931*
Y32487*
G37*
G36*
X44024Y32099D02*
X43655D01*
X43661Y32057*
X43706Y31948*
X43779Y31854*
X43873Y31781*
X43982Y31736*
X44024Y3173*
Y32099*
G37*
G36*
X34942Y31199D02*
X32557D01*
X32558Y3119*
X32591Y31111*
X32643Y31043*
X32687Y31009*
Y30947*
X32655Y30854*
X31299*
Y30974*
X30549*
Y30124*
X31299*
Y30395*
X32681*
X32707Y30374*
Y3031*
X32601Y30204*
X32374*
X32287Y30186*
X32212Y30137*
X32112Y30037*
X32062Y29962*
X32045Y29874*
Y29299*
X31574*
Y28449*
Y2841*
X31468Y28304*
X31224*
Y28549*
X29574*
Y27599*
X31224*
Y27845*
X31574*
Y27449*
X32324*
Y28299*
X3188*
X31779Y28411*
X31783Y28449*
X32324*
Y28775*
X32437Y28887*
X3247Y28937*
X32486Y28962*
X32504Y29049*
Y29081*
X32565Y29102*
X32687Y29015*
Y2894*
X32643Y28906*
X32591Y28838*
X32558Y28759*
X32557Y28749*
X34942*
X34941Y28759*
X34908Y28838*
X34856Y28906*
X34812Y2894*
Y2909*
X34838Y2911*
X34887Y29173*
X34917Y29246*
X34927Y29324*
X34917Y29403*
X34887Y29476*
X34838Y29538*
X34791Y29574*
Y29724*
X34838Y2976*
X34887Y29823*
X34917Y29896*
X34927Y29974*
X34917Y30053*
X34887Y30126*
X34838Y30188*
X34791Y30224*
Y30374*
X34838Y3041*
X34887Y30473*
X34917Y30546*
X34927Y30624*
X34917Y30703*
X34887Y30776*
X34838Y30838*
X34812Y30859*
Y31009*
X34856Y31043*
X34908Y31111*
X34941Y3119*
X34942Y31199*
G37*
G36*
X30349Y30862D02*
X29224D01*
Y30049*
X30349*
Y30862*
G37*
G36*
X59074Y31849D02*
X58424D01*
Y31074*
X59074*
Y31849*
G37*
G36*
X37793Y31649D02*
X37424D01*
Y3128*
X37467Y31286*
X37576Y31331*
X3767Y31404*
X37743Y31498*
X37788Y31607*
X37793Y31649*
G37*
G36*
X37274D02*
X36905D01*
X36911Y31607*
X36956Y31498*
X37028Y31404*
X37123Y31331*
X37232Y31286*
X37274Y3128*
Y31649*
G37*
G36*
X30349Y36749D02*
X29224D01*
Y35937*
X30349*
Y36749*
G37*
G36*
X26774Y34162D02*
X25749D01*
Y33499*
X26774*
Y34162*
G37*
G36*
X40624Y36524D02*
X40255D01*
X40261Y36482*
X40306Y36373*
X40379Y36279*
X40473Y36206*
X40582Y36161*
X40624Y36155*
Y36524*
G37*
G36*
X47374Y36599D02*
X47005D01*
X47011Y36557*
X47056Y36448*
X47129Y36353*
X47223Y36281*
X47332Y36236*
X47374Y3623*
Y36599*
G37*
G36*
X41143Y36524D02*
X40774D01*
Y36155*
X40817Y36161*
X40926Y36206*
X4102Y36279*
X41093Y36373*
X41138Y36482*
X41143Y36524*
G37*
G36*
X27949Y34162D02*
X26924D01*
Y33499*
X27949*
Y34162*
G37*
G36*
X26774Y33299D02*
X25749D01*
Y32637*
X26774*
Y33299*
G37*
G36*
X30899Y32824D02*
X30543D01*
X30574Y32667*
Y32449*
X30899*
Y32824*
G37*
G36*
X27949Y33299D02*
X26924D01*
Y32637*
X27949*
Y33299*
G37*
G36*
X45824Y33674D02*
X44974D01*
Y33454*
X44659*
X44603Y33528*
X44514Y33596*
X4441Y33639*
X44299Y33653*
X44188Y33639*
X44085Y33596*
X43996Y33528*
X43928Y33439*
X43885Y33335*
X43871Y33224*
X43885Y33114*
X43928Y3301*
X43996Y32921*
X44085Y32853*
X44188Y3281*
X44299Y32796*
X4441Y3281*
X44514Y32853*
X44603Y32921*
X44659Y32995*
X44974*
Y32824*
X45824*
Y33674*
G37*
G36*
X60099Y33274D02*
X59774D01*
Y32899*
X60099*
Y33274*
G37*
G36*
X26774Y30412D02*
X25749D01*
Y29149*
X26774*
Y30412*
G37*
G36*
X28024Y27049D02*
X26374D01*
Y26099*
X28024*
Y26345*
X28459*
X28496Y26296*
X28585Y26228*
X28689Y26185*
X28799Y26171*
X2891Y26185*
X29014Y26228*
X29103Y26296*
X29171Y26385*
X29214Y26488*
X29228Y26599*
X29214Y2671*
X29171Y26814*
X29103Y26903*
X29014Y26971*
X2891Y27014*
X28799Y27028*
X28689Y27014*
X28585Y26971*
X28496Y26903*
X28428Y26814*
X28424Y26804*
X28024*
Y27049*
G37*
G36*
X32124Y26493D02*
Y26124D01*
X32493*
X32488Y26167*
X32443Y26276*
X3237Y2637*
X32276Y26443*
X32167Y26488*
X32124Y26493*
G37*
G36*
X31974D02*
X31932Y26488D01*
X31823Y26443*
X31729Y2637*
X31656Y26276*
X31611Y26167*
X31605Y26124*
X31974*
Y26493*
G37*
G36*
X34942Y27949D02*
X32557D01*
X32558Y2794*
X32591Y27861*
X32643Y27793*
X32687Y27759*
Y27609*
X3266Y27588*
X32612Y27526*
X32582Y27453*
X32572Y27374*
X32582Y27296*
X32612Y27223*
X3266Y2716*
X32707Y27124*
Y26974*
X3266Y26938*
X32612Y26876*
X32582Y26803*
X32572Y26724*
X32582Y26646*
X32612Y26573*
X3266Y2651*
X32723Y26462*
X32796Y26432*
X32874Y26422*
X34624*
X34703Y26432*
X34776Y26462*
X34838Y2651*
X34887Y26573*
X34917Y26646*
X34927Y26724*
X34917Y26803*
X34887Y26876*
X34838Y26938*
X34791Y26974*
Y27124*
X34838Y2716*
X34887Y27223*
X34917Y27296*
X34927Y27374*
X34917Y27453*
X34887Y27526*
X34838Y27588*
X34812Y27609*
Y27759*
X34856Y27793*
X34908Y27861*
X34941Y2794*
X34942Y27949*
G37*
G36*
X54543Y26599D02*
X54174D01*
Y2623*
X54217Y26236*
X54326Y26281*
X5442Y26354*
X54493Y26448*
X54538Y26557*
X54543Y26599*
G37*
G36*
X54024D02*
X53655D01*
X53661Y26557*
X53706Y26448*
X53779Y26354*
X53873Y26281*
X53982Y26236*
X54024Y2623*
Y26599*
G37*
G36*
X58774Y27724D02*
X57924D01*
Y26974*
Y26949*
X57824Y26849*
Y25699*
X58774*
Y26849*
Y26974*
Y27724*
G37*
G36*
X32493Y25974D02*
X32124D01*
Y25605*
X32167Y25611*
X32276Y25656*
X3237Y25729*
X32443Y25823*
X32488Y25932*
X32493Y25974*
G37*
G36*
X31974D02*
X31605D01*
X31611Y25932*
X31656Y25823*
X31729Y25729*
X31823Y25656*
X31932Y25611*
X31974Y25605*
Y25974*
G37*
G36*
X31224Y27049D02*
X29574D01*
Y26099*
X31224*
Y27049*
G37*
G36*
X50399Y26399D02*
X50074D01*
Y26024*
X50399*
Y26399*
G37*
G36*
X49924D02*
X49599D01*
Y26024*
X49924*
Y26399*
G37*
G36*
X31299Y29974D02*
X30549D01*
Y29499*
X30379Y29329*
X29424*
X29337Y29311*
X29262Y29262*
X28304Y28304*
X28024*
Y28549*
X26374*
Y27599*
X28024*
Y27845*
X28399*
X28487Y27863*
X28562Y27912*
X29519Y2887*
X30474*
X30562Y28888*
X30637Y28937*
X30824Y29124*
X31299*
Y29974*
G37*
G36*
X34942Y28599D02*
X32557D01*
X32558Y2859*
X32591Y28511*
X32643Y28443*
X32666Y28424*
Y28274*
X32643Y28256*
X32591Y28188*
X32558Y28109*
X32557Y28099*
X34942*
X34941Y28109*
X34908Y28188*
X34856Y28256*
X34833Y28274*
Y28424*
X34856Y28443*
X34908Y28511*
X34941Y2859*
X34942Y28599*
G37*
G36*
X59968Y28324D02*
X59599D01*
Y27955*
X59642Y27961*
X59751Y28006*
X59845Y28079*
X59918Y28173*
X59963Y28282*
X59968Y28324*
G37*
G36*
X57474Y29649D02*
X56824D01*
Y28874*
X57474*
Y29649*
G37*
G36*
X59599Y28843D02*
Y28474D01*
X59968*
X59963Y28517*
X59918Y28626*
X59845Y2872*
X59751Y28793*
X59642Y28838*
X59599Y28843*
G37*
G36*
X59449D02*
X59407Y28838D01*
X59298Y28793*
X59203Y2872*
X59131Y28626*
X59086Y28517*
X5908Y28474*
X59449*
Y28843*
G37*
G36*
X44599Y27499D02*
X44074D01*
Y27074*
X44599*
Y27499*
G37*
G36*
X54174Y27118D02*
Y26749D01*
X54543*
X54538Y26792*
X54493Y26901*
X5442Y26995*
X54326Y27068*
X54217Y27113*
X54174Y27118*
G37*
G36*
X54024D02*
X53982Y27113D01*
X53873Y27068*
X53779Y26995*
X53706Y26901*
X53661Y26792*
X53655Y26749*
X54024*
Y27118*
G37*
G36*
X59449Y28324D02*
X5908D01*
X59086Y28282*
X59131Y28173*
X59203Y28079*
X59298Y28006*
X59407Y27961*
X59449Y27955*
Y28324*
G37*
G36*
X46124Y28049D02*
X45799D01*
Y27674*
X46124*
Y28049*
G37*
G36*
X44599Y28074D02*
X44074D01*
Y27649*
X44599*
Y28074*
G37*
G36*
X39549Y40518D02*
Y40149D01*
X39918*
X39913Y40192*
X39868Y40301*
X39795Y40395*
X39701Y40468*
X39592Y40513*
X39549Y40518*
G37*
G36*
X39399D02*
X39357Y40513D01*
X39248Y40468*
X39154Y40395*
X39081Y40301*
X39036Y40192*
X3903Y40149*
X39399*
Y40518*
G37*
G36*
X44049Y40324D02*
X43524D01*
Y39899*
X44049*
Y40324*
G37*
G36*
X37349Y40653D02*
X36749D01*
X36652Y4064*
X3656Y40602*
X36482Y40542*
X36422Y40464*
X36384Y40372*
X36375Y40299*
X36374*
X36224*
X36221*
X35699*
Y39799*
X35549*
Y40299*
X35024*
Y39799*
X34974Y39749*
X34918*
X34649*
Y39299*
X34499*
Y39749*
X34206*
X34174*
X34099Y39824*
Y40299*
X33574*
Y39799*
Y39299*
X34068*
X34099*
X34174Y39224*
Y38849*
Y38774*
X34074*
X32924*
X32824Y38874*
Y38899*
X31874*
Y37756*
Y37749*
X31774Y37649*
X31349*
X31324*
Y37749*
Y38899*
X30374*
Y37749*
Y37624*
Y36874*
X30522*
Y35426*
X30397Y35343*
X30349Y35363*
Y35787*
X29149*
Y35862*
X29074*
Y36749*
X28056*
X27949*
Y37649*
X26924*
Y36312*
X26849*
Y36237*
X25749*
Y35081*
Y34974*
Y34868*
Y34312*
X27949*
Y34974*
X28056*
X28694*
Y34349*
Y33699*
Y33049*
Y32474*
X28669*
Y32174*
X30349*
Y32474*
X30324*
Y33049*
Y3317*
X30474*
X30513Y32974*
X30974*
Y32899*
X31049*
Y32449*
X31343*
X31374*
X31449Y32399*
X31481*
X31774*
Y32849*
X31849*
Y32924*
X32249*
Y33299*
X32224*
Y33424*
Y33645*
X32655*
X32687Y33552*
Y3349*
X32643Y33456*
X32591Y33388*
X32558Y33309*
X32557Y33299*
X33749*
Y33149*
X32557*
X32558Y3314*
X32591Y33061*
X32643Y32993*
X32687Y32959*
Y32809*
X3266Y32788*
X32612Y32726*
X32582Y32653*
X32572Y32574*
X32582Y32496*
X32612Y32423*
X3266Y3236*
X32707Y32324*
Y32174*
X3266Y32138*
X32612Y32076*
X32582Y32003*
X32572Y31924*
X32582Y31846*
X32612Y31773*
X3266Y3171*
X32687Y3169*
Y3154*
X32643Y31506*
X32591Y31438*
X32558Y31359*
X32557Y31349*
X34942*
X34941Y31359*
X34908Y31438*
X34856Y31506*
X34812Y3154*
Y31602*
X34844Y31695*
X35024*
X35112Y31713*
X35187Y31762*
X35787Y32362*
X35836Y32437*
X35854Y32524*
Y36999*
X36049*
Y37749*
X36124Y37824*
X36199*
Y38466*
X36332Y38537*
X3641Y38485*
X36384Y38422*
X36381Y38399*
X38468*
X38465Y38422*
X38427Y38514*
X38389Y38563*
X38456Y38697*
X40555*
X40609Y38627*
X40641Y38563*
X40594Y38501*
X40558Y38416*
X40546Y38324*
X40558Y38233*
X40594Y38148*
X4065Y38075*
X40723Y38019*
X40808Y37983*
X40899Y37971*
X42249*
X42341Y37983*
X42426Y38019*
X42463Y38047*
X42874*
Y37849*
X44024*
Y38047*
X44452*
X44471Y38021*
X4456Y37953*
X44664Y3791*
X44774Y37896*
X44885Y3791*
X44989Y37953*
X45078Y38021*
X45146Y3811*
X45189Y38214*
X45203Y38324*
X45189Y38435*
X45146Y38539*
X45078Y38628*
X44989Y38696*
X44885Y38739*
X44774Y38753*
X44664Y38739*
X4456Y38696*
X44471Y38628*
X44452Y38602*
X44024*
Y38799*
X42874*
Y38602*
X42593*
X4254Y38672*
X42508Y38736*
X42555Y38798*
X4259Y38883*
X42602Y38974*
X4259Y39066*
X42555Y39151*
X42499Y39224*
X42439Y39297*
X42517Y39357*
X42577Y39435*
X42615Y39527*
X42618Y39549*
X40531*
X40534Y39527*
X40572Y39435*
X40609Y39386*
X40543Y39252*
X38456*
X38389Y39386*
X38427Y39435*
X38465Y39527*
X38468Y39549*
X37424*
Y39699*
X38468*
X38465Y39722*
X38427Y39814*
X38367Y39892*
Y40007*
X38427Y40085*
X38465Y40177*
X38468Y40199*
X37424*
Y40274*
X37349*
Y40653*
G37*
G36*
X31318Y40599D02*
X30949D01*
Y4023*
X30992Y40236*
X31101Y40281*
X31195Y40354*
X31268Y40448*
X31313Y40557*
X31318Y40599*
G37*
G36*
X30799D02*
X3043D01*
X30436Y40557*
X30481Y40448*
X30554Y40354*
X30648Y40281*
X30757Y40236*
X30799Y4023*
Y40599*
G37*
G36*
X39918Y39999D02*
X39549D01*
Y3963*
X39592Y39636*
X39701Y39681*
X39795Y39754*
X39868Y39848*
X39913Y39957*
X39918Y39999*
G37*
G36*
X39399D02*
X3903D01*
X39036Y39957*
X39081Y39848*
X39154Y39754*
X39248Y39681*
X39357Y39636*
X39399Y3963*
Y39999*
G37*
G36*
X44049Y39749D02*
X43524D01*
Y39324*
X44049*
Y39749*
G37*
G36*
X43374Y40324D02*
X42849D01*
Y39899*
X43374*
Y40324*
G37*
G36*
X33424Y40299D02*
X32899D01*
Y39874*
X33424*
Y40299*
G37*
G36*
X42618Y40199D02*
X40531D01*
X40534Y40177*
X40572Y40085*
X40632Y40007*
Y39892*
X40572Y39814*
X40534Y39722*
X40531Y39699*
X42618*
X42615Y39722*
X42577Y39814*
X42517Y39892*
Y40007*
X42577Y40085*
X42615Y40177*
X42618Y40199*
G37*
G36*
X30949Y41118D02*
Y40749D01*
X31318*
X31313Y40792*
X31268Y40901*
X31195Y40995*
X31101Y41068*
X30992Y41113*
X30949Y41118*
G37*
G36*
X30799D02*
X30757Y41113D01*
X30648Y41068*
X30554Y40995*
X30481Y40901*
X30436Y40792*
X3043Y40749*
X30799*
Y41118*
G37*
G36*
X42249Y40653D02*
X41649D01*
Y40349*
X42618*
X42615Y40372*
X42577Y40464*
X42517Y40542*
X42439Y40602*
X42347Y4064*
X42249Y40653*
G37*
G36*
X46149Y41218D02*
Y40849D01*
X46518*
X46513Y40892*
X46468Y41001*
X46395Y41095*
X46301Y41168*
X46192Y41213*
X46149Y41218*
G37*
G36*
X45999D02*
X45957Y41213D01*
X45848Y41168*
X45754Y41095*
X45681Y41001*
X45636Y40892*
X4563Y40849*
X45999*
Y41218*
G37*
G36*
X28374Y41149D02*
X27999D01*
Y40824*
X28374*
Y41149*
G37*
G36*
X27849D02*
X27474D01*
Y41124*
X27349*
X26499*
Y40374*
X2667*
Y40199*
X26424*
Y39049*
X27374*
Y40199*
X27129*
Y40374*
X27349*
X27449*
X27474Y40349*
X27849*
Y40749*
Y41149*
G37*
G36*
X46518Y40699D02*
X46149D01*
Y4033*
X46192Y40336*
X46301Y40381*
X46395Y40454*
X46468Y40548*
X46513Y40657*
X46518Y40699*
G37*
G36*
X45999D02*
X4563D01*
X45636Y40657*
X45681Y40548*
X45754Y40454*
X45848Y40381*
X45957Y40336*
X45999Y4033*
Y40699*
G37*
G36*
X41499Y40653D02*
X40899D01*
X40802Y4064*
X4071Y40602*
X40632Y40542*
X40572Y40464*
X40534Y40372*
X40531Y40349*
X41499*
Y40653*
G37*
G36*
X38099D02*
X37499D01*
Y40349*
X38468*
X38465Y40372*
X38427Y40464*
X38367Y40542*
X38289Y40602*
X38197Y4064*
X38099Y40653*
G37*
G36*
X28374Y40674D02*
X27999D01*
Y40349*
X28374*
Y40674*
G37*
G36*
X43374Y39749D02*
X42849D01*
Y39324*
X43374*
Y39749*
G37*
G36*
X52799Y38224D02*
X52474D01*
Y37849*
X52799*
Y38224*
G37*
G36*
X47524Y37118D02*
Y36749D01*
X47893*
X47888Y36792*
X47843Y36901*
X4777Y36995*
X47676Y37068*
X47567Y37113*
X47524Y37118*
G37*
G36*
X50024Y38299D02*
X49699D01*
Y37924*
X50024*
Y38299*
G37*
G36*
X53274Y38224D02*
X52949D01*
Y37849*
X53274*
Y38224*
G37*
G36*
X47374Y37118D02*
X47332Y37113D01*
X47223Y37068*
X47129Y36995*
X47056Y36901*
X47011Y36792*
X47005Y36749*
X47374*
Y37118*
G37*
G36*
X26774Y37649D02*
X25749D01*
Y36387*
X26774*
Y37649*
G37*
G36*
X47893Y36599D02*
X47524D01*
Y3623*
X47567Y36236*
X47676Y36281*
X4777Y36353*
X47843Y36448*
X47888Y36557*
X47893Y36599*
G37*
G36*
X40774Y37043D02*
Y36674D01*
X41143*
X41138Y36717*
X41093Y36826*
X4102Y3692*
X40926Y36993*
X40817Y37038*
X40774Y37043*
G37*
G36*
X40624D02*
X40582Y37038D01*
X40473Y36993*
X40379Y3692*
X40306Y36826*
X40261Y36717*
X40255Y36674*
X40624*
Y37043*
G37*
G36*
X53274Y39293D02*
X53232Y39288D01*
X53123Y39243*
X53029Y3917*
X52956Y39076*
X52911Y38967*
X52905Y38924*
X53274*
Y39293*
G37*
G36*
X53793Y38774D02*
X53424D01*
Y38405*
X53467Y38411*
X53576Y38456*
X5367Y38529*
X53743Y38623*
X53788Y38732*
X53793Y38774*
G37*
G36*
X53274D02*
X52905D01*
X52911Y38732*
X52956Y38623*
X53029Y38529*
X53123Y38456*
X53232Y38411*
X53274Y38405*
Y38774*
G37*
G36*
X33424Y39724D02*
X32899D01*
Y39299*
X33424*
Y39724*
G37*
G36*
X28874Y40199D02*
X27924D01*
Y39049*
X28874*
Y39395*
X2914*
X29196Y39321*
X29285Y39253*
X29388Y3921*
X29499Y39196*
X2961Y3921*
X29714Y39253*
X29803Y39321*
X29871Y3941*
X29914Y39513*
X29928Y39624*
X29914Y39735*
X29871Y39839*
X29803Y39928*
X29714Y39996*
X2961Y40039*
X29499Y40053*
X29388Y40039*
X29285Y39996*
X29196Y39928*
X2914Y39854*
X28874*
Y40199*
G37*
G36*
X53424Y39293D02*
Y38924D01*
X53793*
X53788Y38967*
X53743Y39076*
X5367Y3917*
X53576Y39243*
X53467Y39288*
X53424Y39293*
G37*
G36*
X38468Y38249D02*
X37499D01*
Y37946*
X38099*
X38197Y37959*
X38289Y37997*
X38367Y38057*
X38427Y38135*
X38465Y38227*
X38468Y38249*
G37*
G36*
X37349D02*
X36381D01*
X36384Y38227*
X36422Y38135*
X36482Y38057*
X3656Y37997*
X36652Y37959*
X36749Y37946*
X37349*
Y38249*
G37*
G36*
X50499Y38299D02*
X50174D01*
Y37924*
X50499*
Y38299*
G37*
%LNusb_dongle_pcb-3*%
%LPD*%
G54D55*
X34102Y37691D02*
X34079Y37481D01*
X34017Y37464*
X34016Y37466*
X33908Y37548*
X33784Y376*
X33661Y37616*
Y37099*
Y36583*
X33784Y36599*
X33908Y36651*
X34016Y36733*
X34098Y36841*
X3415Y36965*
X34143Y36915*
X3417Y36911*
X34201*
X34613*
Y37311*
X34636*
Y36911*
X35138*
Y36936*
X35199*
X35332*
Y35767*
X35271Y35742*
X35027Y35986*
X34937Y36046*
X34831Y36067*
X32543*
X32437Y36046*
X3238Y36008*
X32313Y36036*
Y36163*
X31386*
Y35661*
X31411*
Y35599*
Y3515*
X31328Y35067*
X31168*
X31182Y35057*
X31129Y35136*
X31129Y35136*
X3114Y3522*
Y36811*
X31224*
X31298*
X31323Y36786*
X31788*
Y37186*
X31863*
Y37261*
X32313*
Y37643*
Y37623*
X32376Y37686*
X32888*
Y37761*
X32924*
X34039*
X34102Y37691*
%LNusb_dongle_pcb-4*%
%LPC*%
G36*
X31774Y36624D02*
X31449D01*
Y36249*
X31774*
Y36624*
G37*
G36*
X32249D02*
X31924D01*
Y36249*
X32249*
Y36624*
G37*
G36*
Y37174D02*
X31874D01*
Y36849*
X32249*
Y37174*
G37*
G36*
X33574Y37543D02*
X33532Y37538D01*
X33423Y37493*
X33328Y3742*
X33256Y37326*
X33211Y37217*
X33205Y37174*
X33574*
Y37543*
G37*
G36*
Y37024D02*
X33205D01*
X33211Y36982*
X33256Y36873*
X33328Y36779*
X33423Y36706*
X33532Y36661*
X33574Y36655*
Y37024*
G37*
%LNusb_dongle_pcb-5*%
%LPD*%
G54D10*
X57349Y27349D03*
X58349D03*
X26924Y40749D03*
X27924D03*
X31799Y37249D03*
X30799D03*
X42574Y28674D03*
X43574D03*
X54474Y33674D03*
X55474D03*
X54474Y32799D03*
X55474D03*
X57824Y33174D03*
X58824D03*
X54474Y31924D03*
X55474D03*
X34624Y37374D03*
X35624D03*
X46074Y31849D03*
X45074D03*
G54D11*
X30974Y33899D03*
Y32899D03*
X31849Y32849D03*
Y33849D03*
X50099Y36849D03*
Y37849D03*
X52874Y36774D03*
Y37774D03*
X34574Y38299D03*
Y39299D03*
X31949Y27874D03*
Y28874D03*
X30924Y29549D03*
Y30549D03*
X31849Y35174D03*
Y36174D03*
X45724Y29124D03*
Y28124D03*
X59699Y33349D03*
Y34349D03*
X51074Y35774D03*
Y36774D03*
X51949D03*
Y35774D03*
X51074Y37724D03*
Y38724D03*
X55549Y29724D03*
Y30724D03*
X49999Y27474D03*
Y26474D03*
G54D12*
X29149Y35862D03*
Y30937D03*
G54D13*
X29509Y32099D03*
Y32749D03*
Y33399D03*
Y34699D03*
Y34049D03*
G54D14*
X26849Y32562D03*
Y34237D03*
G54D15*
X26849Y30487D03*
Y36312D03*
G54D16*
X30849Y38324D03*
X32349D03*
X28399Y39624D03*
X26899D03*
X56799Y26274D03*
X58299D03*
G54D17*
X33499Y39799D03*
Y38299D03*
X35624Y39799D03*
Y38299D03*
X44674Y29074D03*
Y27574D03*
X43449Y38324D03*
Y39824D03*
G54D18*
X37424Y40274D03*
Y39624D03*
Y38974D03*
Y38324D03*
X41574Y40274D03*
Y39624D03*
Y38974D03*
Y38324D03*
G54D19*
X33749Y35174D03*
Y34524D03*
Y33874D03*
Y33224D03*
Y32574D03*
Y31924D03*
Y31274D03*
Y30624D03*
Y29974D03*
Y29324D03*
Y28674D03*
Y28024D03*
Y27374D03*
Y26724D03*
X40649Y35174D03*
Y34524D03*
Y33874D03*
Y33224D03*
Y32574D03*
Y31924D03*
Y31274D03*
Y30624D03*
Y29974D03*
Y29324D03*
Y28674D03*
Y28024D03*
Y27374D03*
Y26724D03*
G54D20*
X43174Y35224D03*
X45374D03*
X43199Y33249D03*
X45399D03*
G54D21*
X56749Y29724D03*
Y31924D03*
X58349D03*
Y29724D03*
G54D22*
X5635Y3995D03*
X5975D03*
G54D23*
X27199Y28074D03*
X30399D03*
Y26574D03*
X27199D03*
G54D24*
X53249Y29249D03*
Y29749D03*
Y30249D03*
Y30749D03*
Y31249D03*
Y31749D03*
Y32249D03*
Y32749D03*
Y33249D03*
Y33749D03*
X47249D03*
Y33249D03*
Y32749D03*
Y32249D03*
Y31749D03*
Y31249D03*
Y30749D03*
Y30249D03*
Y29749D03*
Y29249D03*
G54D25*
X52499Y34499D03*
X51999D03*
X51499D03*
X50999D03*
X50499D03*
X49999D03*
X49499D03*
X48999D03*
X48499D03*
X47999D03*
Y28499D03*
X48499D03*
X48999D03*
X49499D03*
X49999D03*
X50499D03*
X50999D03*
X51499D03*
X51999D03*
X52499D03*
G54D26*
X50249Y31499D03*
G54D27*
X32374Y29974D02*
X33749D01*
X32274Y29874D02*
X32374Y29974D01*
X32274Y29049D02*
Y29874D01*
X32099Y28874D02*
X32274Y29049D01*
X31949Y28874D02*
X32099D01*
X45724Y28124D02*
X45849Y27999D01*
X46574*
X28399Y28074D02*
X29424Y29099D01*
X27199Y28074D02*
X28399D01*
X29424Y29099D02*
X30474D01*
X30924Y29549*
X42599Y26599D02*
X45049D01*
X42474Y26724D02*
X42599Y26599D01*
X40649Y26724D02*
X42474D01*
X44099Y32174D02*
X44424Y31849D01*
X45074*
X30999Y30624D02*
X33749D01*
X30924Y30549D02*
X30999Y30624D01*
X58824Y33174D02*
X58849Y33199D01*
Y33699*
X58549Y33999D02*
X58849Y33699D01*
X57474Y33999D02*
X58549D01*
X56649Y33174D02*
X57474Y33999D01*
X56424Y33174D02*
X56649D01*
X59499D02*
X59699Y33374D01*
X58824Y33174D02*
X59499D01*
X56406D02*
X56424D01*
X56056Y32824D02*
X56406Y33174D01*
X55499Y32824D02*
X56056D01*
X55474Y32799D02*
X55499Y32824D01*
X29509Y34049D02*
X3024D01*
X30965Y34774*
X31449*
X31849Y35174*
X30974Y34324D02*
X31099Y34449D01*
X30974Y33899D02*
Y34324D01*
X30474Y33399D02*
X30974Y33899D01*
X29509Y33399D02*
X30474D01*
X31849Y35174D02*
X31949D01*
X32549Y35774*
X32074Y34449D02*
X32799Y35174D01*
X31099Y34449D02*
X32074D01*
X32799Y35174D02*
X33749D01*
X30399Y28074D02*
X31749D01*
X31949Y27874*
X50099Y36849D02*
D01*
Y35774D02*
Y36849D01*
X51949Y36774D02*
D01*
X52874*
Y35799D02*
X52899Y35774D01*
X52874Y35799D02*
Y36774D01*
X50999Y34499D02*
Y34874D01*
X50099Y35774D02*
X50999Y34874D01*
X51999D02*
X52899Y35774D01*
X51949Y35284D02*
Y35774D01*
X51499Y34834D02*
X51949Y35284D01*
X56824Y27874D02*
X57349Y27349D01*
X52649Y27874D02*
X56824D01*
X52499Y28024D02*
X52649Y27874D01*
X58299Y26274D02*
X58349Y26324D01*
Y27349*
X55599Y26274D02*
D01*
X56799*
X28799Y26574D02*
Y26599D01*
X27199Y26574D02*
X28799D01*
X40649Y34524D02*
X42274D01*
X46599Y33249D02*
X47249D01*
X45374Y33224D02*
X45399Y33249D01*
X44299Y33224D02*
X45374D01*
X54574Y29274D02*
Y30024D01*
X54349Y30249D02*
X54574Y30024D01*
X53249Y30249D02*
X54349D01*
X53249Y31749D02*
X53699D01*
X53874Y31924*
X54474*
X53249Y32749D02*
X54424D01*
X54474Y32799*
X53249Y33249D02*
X53674D01*
X54099Y33674*
X54474*
X53249Y33749D02*
X53524D01*
X53724Y33949*
X54474Y33674D02*
Y34049D01*
X53249Y31249D02*
X54899D01*
X26899Y39624D02*
Y40724D01*
X26924Y40749*
X28399Y39624D02*
X29499D01*
X33749Y31924D02*
X35024D01*
X35624Y32524*
Y37374*
X33749Y34524D02*
X34874D01*
X35137Y34787*
X45849Y29249D02*
X47249D01*
X45724Y29124D02*
X45849Y29249D01*
X44724Y29124D02*
X45724D01*
X44674Y29074D02*
X44724Y29124D01*
X44949Y30024D02*
X46049D01*
X46324Y29749*
X47249*
X46399Y30249D02*
X47249D01*
X46174Y31749D02*
X47249D01*
X46074Y31849D02*
X46174Y31749D01*
X46359Y30749D02*
X47249D01*
X40649Y33224D02*
X41874D01*
X46499Y31249D02*
X47249D01*
X46499D02*
D01*
X46319D02*
X46499D01*
X32549Y35774D02*
X34824D01*
X35137Y35462*
Y34787D02*
Y35462D01*
X53249Y30749D02*
X58049D01*
X58349Y30449*
Y29724D02*
Y30449D01*
X54899Y31249D02*
X55024Y31374D01*
X56199*
X42274Y34524D02*
X43199Y33599D01*
Y33249D02*
Y33599D01*
X43124Y35174D02*
X43174Y35224D01*
X40649Y35174D02*
X43124D01*
X54474Y34049D02*
X54699Y34274D01*
X53724Y34174D02*
X54149Y34599D01*
X53724Y33949D02*
Y34174D01*
X55474Y31924D02*
Y32799D01*
Y33674*
X55524Y33624*
X41874Y33224D02*
X42249Y32849D01*
Y31474D02*
Y32849D01*
X40649Y29324D02*
X41924D01*
X43524Y29699D02*
X44049D01*
X44674Y29074*
X42574Y28749D02*
X43524Y29699D01*
X42574Y28674D02*
Y28749D01*
X41849Y28674D02*
X42574D01*
X41849D02*
D01*
X40649D02*
X41849D01*
X40649Y28024D02*
X42274D01*
X42924Y27374*
X42249Y31474D02*
X42849Y30874D01*
X46234*
X46359Y30749*
X41924Y29324D02*
X43149Y30549D01*
X46099*
X46399Y30249*
X42924Y31799D02*
X43474Y31249D01*
X46319*
X56199Y34274D02*
X56474Y33999D01*
X54699Y34274D02*
X56199D01*
Y31374D02*
X56599Y31774D01*
Y32424*
X57349Y33174*
X57824*
X54149Y34599D02*
X59324D01*
X59549Y34374*
X59699*
X51999Y34499D02*
Y34874D01*
X51074Y36774D02*
Y37724D01*
Y35259D02*
Y35774D01*
Y35259D02*
X51499Y34834D01*
X46324Y33524D02*
X46599Y33249D01*
X45374Y35224D02*
X46074D01*
X46324Y34974*
Y33524D02*
Y34974D01*
X52499Y28024D02*
Y28499D01*
X49999Y27474D02*
Y28499D01*
Y27474D02*
D01*
X31874Y33874D02*
X33749D01*
X31849Y33849D02*
X31874Y33874D01*
G54D28*
X30799Y35224D02*
Y37249D01*
X30274Y34699D02*
X30799Y35224D01*
X29509Y34699D02*
X30274D01*
X41574Y38324D02*
X43449D01*
X41574D02*
D01*
X43449D02*
X44774D01*
X30799Y37249D02*
Y38274D01*
X30849Y38324*
X35599D02*
X35624Y38299D01*
Y37374D02*
Y38299D01*
Y37374D02*
D01*
Y38299D02*
X36299Y38974D01*
X37424*
X41574*
X32349Y38324D02*
X35599D01*
G54D29*
X51725Y3995D02*
X5635D01*
X51074Y39299D02*
X51725Y3995D01*
X51074Y38724D02*
Y39299D01*
G54D30*
X29074Y30862D03*
X26849Y32562D03*
X26924Y34162D03*
X29149Y35862D03*
X26849Y36312D03*
Y30487D03*
X45049Y26599D03*
X53349Y38849D03*
X40699Y36599D03*
X47449Y36674D03*
X44099Y32174D03*
X54099Y26674D03*
X59524Y28399D03*
X32049Y26049D03*
X37349Y31724D03*
X46074Y40774D03*
X39474Y40074D03*
X30874Y40674D03*
X33649Y37099D03*
X50099Y35774D03*
X52899D03*
X55599Y26274D03*
X28799Y26599D03*
X44774Y38324D03*
X44299Y33224D03*
X54574Y29274D03*
X56474Y33999D03*
X29499Y39624D03*
X44949Y30024D03*
X42924Y31799D03*
Y27374D03*
X56424Y33174D03*
X43524Y29699D03*
X50249Y32999D03*
Y29999D03*
M02*