%FSTAX23Y23*%
%MOMM*%
%SFA1B1*%

%IPPOS*%
%AMD32*
1,1,1.400000,0.000000,0.000000*
1,0,1.100000,0.000000,0.000000*
4,0,4,0.441960,0.546100,-0.546100,-0.441960,-0.441960,-0.546100,0.546100,0.441960,0.441960,0.546100,0.0*
4,0,4,-0.441960,0.546100,0.546100,-0.441960,0.441960,-0.546100,-0.546100,0.441960,-0.441960,0.546100,0.0*
%
%ADD31C,1.015998*%
G04~CAMADD=32~12~0.0~0.0~0.0~0.0~0.0~0.0~0~551.2~433.1~0.0~45.0~4~59.1~0.0~0.0~0.0~0~0.0~0.0~0.0~0.0~551.2~551.2*
%ADD32D32*%
%ADD33C,1.299997*%
%ADD55C,0.127000*%
%ADD56C,0.253999*%
%ADD57C,0.507999*%
%ADD58C,2.031996*%
%LNusb_dongle_pcb-1*%
%LPD*%
G54D31*
X25399Y25399D02*
D01*
X60399D01*
Y41399*
X25399D02*
X60399D01*
X25399Y25399D02*
Y41399D01*
G54D32*
X55599Y26274D03*
X28799Y26599D03*
X44774Y38324D03*
X56474Y33999D03*
X29499Y39624D03*
X43524Y29699D03*
G54D33*
X29074Y30862D03*
X26849Y32562D03*
X26924Y34162D03*
X29149Y35862D03*
X26849Y36312D03*
Y30487D03*
X45049Y26599D03*
X53349Y38849D03*
X40699Y36599D03*
X47449Y36674D03*
X44099Y32174D03*
X54099Y26674D03*
X59524Y28399D03*
X32049Y26049D03*
X37349Y31724D03*
X46074Y40774D03*
X39474Y40074D03*
X30874Y40674D03*
X33649Y37099D03*
X50099Y35774D03*
X52899D03*
X44299Y33224D03*
X54574Y29274D03*
X44949Y30024D03*
X42924Y31799D03*
Y27374D03*
X56424Y33174D03*
X50249Y32999D03*
Y29999D03*
G54D55*
X60336Y41336D02*
Y34963D01*
X54313*
Y41336*
X60336*
G54D56*
X60209Y41209D02*
Y3509D01*
X5444*
Y41209*
X60209*
G54D57*
X59955Y40955D02*
Y35344D01*
X54694*
Y40955*
X59955*
G54D31*
X59447Y40447D02*
Y35852D01*
X55202*
Y40447*
X59447*
G54D58*
X58431Y39431D02*
Y36868D01*
X56218*
Y39431*
X58431*
M02*