%FSTAX23Y23*%
%MOMM*%
%SFA1B1*%

%IPPOS*%
%ADD37R,0.749999X0.649999*%
%ADD38R,0.649999X0.749999*%
%ADD39R,2.249995X1.624997*%
%ADD40R,1.529997X0.599999*%
%ADD41R,2.049996X1.324997*%
%ADD42R,2.049996X2.524995*%
%ADD43R,0.849998X1.049998*%
%ADD44R,1.049998X0.849998*%
%ADD45O,1.949996X0.599999*%
%ADD46O,2.249995X0.499999*%
%ADD47R,0.749999X0.749999*%
%ADD48R,1.299997X1.549997*%
%ADD49R,1.149998X2.149996*%
%ADD50R,1.549997X0.849998*%
%ADD51O,0.949998X0.349999*%
%ADD52O,0.349999X0.949998*%
%ADD53R,4.749991X4.749991*%
%ADD54C,0.749999*%
%LNusb_dongle_pcb-1*%
%LPD*%
G54D37*
X57349Y27349D03*
X58349D03*
X26924Y40749D03*
X27924D03*
X31799Y37249D03*
X30799D03*
X42574Y28674D03*
X43574D03*
X54474Y33674D03*
X55474D03*
X54474Y32799D03*
X55474D03*
X57824Y33174D03*
X58824D03*
X54474Y31924D03*
X55474D03*
X34624Y37374D03*
X35624D03*
X46074Y31849D03*
X45074D03*
G54D38*
X30974Y33899D03*
Y32899D03*
X31849Y32849D03*
Y33849D03*
X50099Y36849D03*
Y37849D03*
X52874Y36774D03*
Y37774D03*
X34574Y38299D03*
Y39299D03*
X31949Y27874D03*
Y28874D03*
X30924Y29549D03*
Y30549D03*
X31849Y35174D03*
Y36174D03*
X45724Y29124D03*
Y28124D03*
X59699Y33349D03*
Y34349D03*
X51074Y35774D03*
Y36774D03*
X51949D03*
Y35774D03*
X51074Y37724D03*
Y38724D03*
X55549Y29724D03*
Y30724D03*
X49999Y27474D03*
Y26474D03*
G54D39*
X29149Y35862D03*
Y30937D03*
G54D40*
X29509Y32099D03*
Y32749D03*
Y33399D03*
Y34699D03*
Y34049D03*
G54D41*
X26849Y32562D03*
Y34237D03*
G54D42*
X26849Y30487D03*
Y36312D03*
G54D43*
X30849Y38324D03*
X32349D03*
X28399Y39624D03*
X26899D03*
X56799Y26274D03*
X58299D03*
G54D44*
X33499Y39799D03*
Y38299D03*
X35624Y39799D03*
Y38299D03*
X44674Y29074D03*
Y27574D03*
X43449Y38324D03*
Y39824D03*
G54D45*
X37424Y40274D03*
Y39624D03*
Y38974D03*
Y38324D03*
X41574Y40274D03*
Y39624D03*
Y38974D03*
Y38324D03*
G54D46*
X33749Y35174D03*
Y34524D03*
Y33874D03*
Y33224D03*
Y32574D03*
Y31924D03*
Y31274D03*
Y30624D03*
Y29974D03*
Y29324D03*
Y28674D03*
Y28024D03*
Y27374D03*
Y26724D03*
X40649Y35174D03*
Y34524D03*
Y33874D03*
Y33224D03*
Y32574D03*
Y31924D03*
Y31274D03*
Y30624D03*
Y29974D03*
Y29324D03*
Y28674D03*
Y28024D03*
Y27374D03*
Y26724D03*
G54D47*
X43174Y35224D03*
X45374D03*
X43199Y33249D03*
X45399D03*
G54D48*
X56749Y29724D03*
Y31924D03*
X58349D03*
Y29724D03*
G54D49*
X5635Y3995D03*
X5975D03*
G54D50*
X27199Y28074D03*
X30399D03*
Y26574D03*
X27199D03*
G54D51*
X53249Y29249D03*
Y29749D03*
Y30249D03*
Y30749D03*
Y31249D03*
Y31749D03*
Y32249D03*
Y32749D03*
Y33249D03*
Y33749D03*
X47249D03*
Y33249D03*
Y32749D03*
Y32249D03*
Y31749D03*
Y31249D03*
Y30749D03*
Y30249D03*
Y29749D03*
Y29249D03*
G54D52*
X52499Y34499D03*
X51999D03*
X51499D03*
X50999D03*
X50499D03*
X49999D03*
X49499D03*
X48999D03*
X48499D03*
X47999D03*
Y28499D03*
X48499D03*
X48999D03*
X49499D03*
X49999D03*
X50499D03*
X50999D03*
X51499D03*
X51999D03*
X52499D03*
G54D53*
X50249Y31499D03*
G54D54*
X29074Y30862D03*
X26849Y32562D03*
X26924Y34162D03*
X29149Y35862D03*
X26849Y36312D03*
Y30487D03*
X45049Y26599D03*
X53349Y38849D03*
X40699Y36599D03*
X47449Y36674D03*
X44099Y32174D03*
X54099Y26674D03*
X59524Y28399D03*
X32049Y26049D03*
X37349Y31724D03*
X46074Y40774D03*
X39474Y40074D03*
X30874Y40674D03*
X33649Y37099D03*
X50099Y35774D03*
X52899D03*
X55599Y26274D03*
X28799Y26599D03*
X44774Y38324D03*
X44299Y33224D03*
X54574Y29274D03*
X56474Y33999D03*
X29499Y39624D03*
X44949Y30024D03*
X42924Y31799D03*
Y27374D03*
X56424Y33174D03*
X43524Y29699D03*
X50249Y32999D03*
Y29999D03*
M02*