%FSTAX23Y23*%
%MOMM*%
%SFA1B1*%

%IPPOS*%
%ADD9500C,0.299999*%
%ADD9501C,0.499999*%
%LNsmarttokens-1*%
%LPD*%
G54D9500*
X290261Y245202D03*
X291761D03*
X291986Y246852D03*
X293686Y247227D03*
X294986Y248777D03*
X296036Y249002D03*
X296136Y250202D03*
Y251402D03*
X297861Y252627D03*
X299236Y252602D03*
X300737Y252652D03*
X302236D03*
X300811Y250552D03*
Y249052D03*
X299436Y248177D03*
X299461Y247002D03*
X301686Y246902D03*
X296311Y246527D03*
X298286Y250202D03*
X297636Y254777D03*
Y255602D03*
X296736Y257677D03*
X294236Y259127D03*
X291036D03*
Y261627D03*
X288511Y258752D03*
X288211Y257052D03*
X285686Y256077D03*
X287911Y253502D03*
Y252727D03*
Y251952D03*
Y251177D03*
X288411Y248902D03*
X288761Y247902D03*
X289911Y248902D03*
X291836Y249927D03*
X293111D03*
X291736Y252727D03*
Y255227D03*
X300036Y254602D03*
X301136Y256302D03*
X303586Y257227D03*
X304211Y250602D03*
X287161Y248527D03*
X292786Y242877D03*
G54D9501*
X285426Y249377D03*
Y250647D03*
X286696D03*
Y251917D03*
X285426D03*
Y253187D03*
Y254457D03*
X286696D03*
Y253187D03*
X293971Y242877D03*
X295651D03*
X296921D03*
X301512Y244928D03*
X30241Y245826D03*
M02*