%FSTAX23Y23*%
%MOIN*%
%SFA1B1*%

%IPPOS*%
%ADD28C,0.007874*%
%ADD32C,0.009843*%
%ADD33C,0.004921*%
%ADD34R,0.015748X0.027559*%
%LNsmarttokens-1*%
%LPD*%
G54D28*
X11858Y10029D02*
D01*
X11858Y10029*
X11858Y1003*
X11858Y1003*
X11858Y1003*
X11858Y1003*
X11858Y10031*
X11858Y10031*
X11858Y10031*
X11857Y10031*
X11857Y10032*
X11857Y10032*
X11857Y10032*
X11857Y10032*
X11857Y10032*
X11856Y10033*
X11856Y10033*
X11856Y10033*
X11856Y10033*
X11855Y10033*
X11855Y10033*
X11855Y10033*
X11854Y10033*
X11854*
X11854Y10033*
X11854Y10033*
X11853Y10033*
X11853Y10033*
X11853Y10033*
X11853Y10033*
X11852Y10033*
X11852Y10032*
X11852Y10032*
X11852Y10032*
X11851Y10032*
X11851Y10032*
X11851Y10031*
X11851Y10031*
X11851Y10031*
X11851Y10031*
X11851Y1003*
X11851Y1003*
X1185Y1003*
X1185Y1003*
X1185Y10029*
X1185Y10029*
X1185Y10029*
X1185Y10029*
X1185Y10028*
X11851Y10028*
X11851Y10028*
X11851Y10028*
X11851Y10027*
X11851Y10027*
X11851Y10027*
X11851Y10027*
X11851Y10026*
X11852Y10026*
X11852Y10026*
X11852Y10026*
X11852Y10026*
X11853Y10026*
X11853Y10025*
X11853Y10025*
X11853Y10025*
X11854Y10025*
X11854Y10025*
X11854Y10025*
X11854*
X11855Y10025*
X11855Y10025*
X11855Y10025*
X11856Y10025*
X11856Y10025*
X11856Y10026*
X11856Y10026*
X11857Y10026*
X11857Y10026*
X11857Y10026*
X11857Y10026*
X11857Y10027*
X11857Y10027*
X11858Y10027*
X11858Y10027*
X11858Y10028*
X11858Y10028*
X11858Y10028*
X11858Y10028*
X11858Y10029*
X11858Y10029*
X11858Y10029*
X11917Y09815D02*
D01*
Y09815*
Y09815*
X11917Y09815*
Y09815*
X11917Y09815*
X11917Y09815*
X11917Y09815*
X11917Y09815*
X11917Y09815*
X11917Y09815*
X11917Y09815*
X11917Y09815*
X11917Y09815*
X11917Y09815*
X11917Y09815*
X11917Y09815*
X11917Y09815*
X11917Y09815*
X11917*
X11917Y09815*
X11917*
X11917Y09815*
X11917*
X11917Y09815*
X11917*
X11917Y09815*
X11917*
X11917Y09815*
X11917Y09815*
X11917Y09815*
X11917Y09815*
X11917Y09815*
X11917Y09815*
X11917Y09815*
X11917Y09815*
X11917Y09815*
X11917Y09815*
X11917Y09815*
X11917Y09815*
X11917Y09815*
X11917Y09815*
X11917Y09815*
Y09815*
Y09815*
X11917Y09815*
X11917Y09815*
Y09815*
Y09815*
X11917Y09815*
X11917Y09815*
X11917Y09815*
X11917Y09815*
X11917Y09815*
X11917Y09815*
X11917Y09815*
X11917Y09815*
X11917Y09815*
X11917Y09815*
X11917Y09815*
X11917Y09815*
X11917Y09815*
X11917Y09815*
X11917Y09815*
X11917Y09815*
X11917Y09815*
X11917*
X11917*
X11917*
X11917*
X11917*
X11917Y09815*
X11917Y09815*
X11917Y09815*
X11917Y09815*
X11917Y09815*
X11917Y09815*
X11917Y09815*
X11917Y09815*
X11917Y09815*
X11917Y09815*
X11917Y09815*
X11917Y09815*
X11917Y09815*
X11917Y09815*
X11917Y09815*
X11917Y09815*
Y09815*
X11917Y09815*
Y09815*
Y09815*
X11646Y1023D02*
Y10301D01*
X11575Y1023D02*
Y10301D01*
X1125Y10079D02*
Y10095D01*
X11278Y10079D02*
Y10095D01*
X11409Y10077D02*
X11425D01*
X11409Y1005D02*
X11425D01*
X1195Y09963D02*
X11966D01*
X1195D02*
Y09989D01*
X11966*
X11338Y09734D02*
X11353D01*
X11338Y09761D02*
X11353D01*
X11664Y09751D02*
Y09768D01*
X11647Y09751D02*
X11664D01*
X11412D02*
X1143D01*
X11412D02*
Y09768D01*
Y09985D02*
Y10003D01*
X1143*
X11664Y09985D02*
Y10003D01*
X11647D02*
X11664D01*
X11293Y10093D02*
X1136D01*
X11293Y10081D02*
X1136D01*
Y10093*
X11293Y10081D02*
Y10093D01*
X11742Y09596D02*
Y09602D01*
X11736Y09596D02*
X11742D01*
X1162D02*
X11626D01*
X1162D02*
Y09602D01*
Y09712D02*
Y09718D01*
X11626*
X11742Y09712D02*
Y09718D01*
X11736D02*
X11742D01*
X119Y09942D02*
Y09961D01*
X1188Y09942D02*
X119D01*
X11766D02*
X11785D01*
X11766D02*
Y09961D01*
Y10056D02*
Y10075D01*
X11785*
X1188D02*
X119D01*
Y10056D02*
Y10075D01*
X11831Y09926D02*
X11839D01*
X11831Y09823D02*
X11839D01*
G54D32*
X11655Y09764D02*
D01*
X11655Y09765*
X11655Y09765*
X11655Y09765*
X11655Y09766*
X11655Y09766*
X11655Y09766*
X11655Y09767*
X11655Y09767*
X11655Y09767*
X11654Y09768*
X11654Y09768*
X11654Y09768*
X11654Y09768*
X11653Y09768*
X11653Y09769*
X11653Y09769*
X11652Y09769*
X11652Y09769*
X11652Y09769*
X11651Y09769*
X11651Y09769*
X11651Y09769*
X1165*
X1165Y09769*
X1165Y09769*
X11649Y09769*
X11649Y09769*
X11649Y09769*
X11648Y09769*
X11648Y09769*
X11648Y09768*
X11648Y09768*
X11647Y09768*
X11647Y09768*
X11647Y09768*
X11647Y09767*
X11646Y09767*
X11646Y09767*
X11646Y09766*
X11646Y09766*
X11646Y09766*
X11646Y09765*
X11646Y09765*
X11646Y09765*
X11646Y09764*
X11646Y09764*
X11646Y09764*
X11646Y09763*
X11646Y09763*
X11646Y09763*
X11646Y09762*
X11646Y09762*
X11646Y09762*
X11647Y09761*
X11647Y09761*
X11647Y09761*
X11647Y09761*
X11648Y09761*
X11648Y0976*
X11648Y0976*
X11648Y0976*
X11649Y0976*
X11649Y0976*
X11649Y0976*
X1165Y0976*
X1165Y09759*
X1165Y09759*
X11651*
X11651Y09759*
X11651Y0976*
X11652Y0976*
X11652Y0976*
X11652Y0976*
X11653Y0976*
X11653Y0976*
X11653Y0976*
X11654Y09761*
X11654Y09761*
X11654Y09761*
X11654Y09761*
X11655Y09761*
X11655Y09762*
X11655Y09762*
X11655Y09762*
X11655Y09763*
X11655Y09763*
X11655Y09763*
X11655Y09764*
X11655Y09764*
X11655Y09764*
G54D33*
X11305Y10165D02*
Y10145D01*
X11309Y10141*
X11317*
X11321Y10145*
Y10165*
X11344Y10141D02*
X11329D01*
X11344Y10157*
Y10161*
X11341Y10165*
X11333*
X11329Y10161*
X11405Y10111D02*
X11401Y10115D01*
X11393*
X11389Y10111*
Y10095*
X11393Y10091*
X11401*
X11405Y10095*
X11412Y10091D02*
X1142D01*
X11416*
Y10115*
X11412Y10111*
X11448Y10115D02*
X11432D01*
Y10103*
X1144Y10107*
X11444*
X11448Y10103*
Y10095*
X11444Y10091*
X11436*
X11432Y10095*
X11145Y10033D02*
X11141Y10029D01*
Y10021*
X11145Y10018*
X1116*
X11164Y10021*
Y10029*
X1116Y10033*
X11164Y10041D02*
Y10049D01*
Y10045*
X11141*
X11145Y10041*
Y10061D02*
X11141Y10065D01*
Y10073*
X11145Y10077*
X11149*
X11153Y10073*
Y10069*
Y10073*
X11156Y10077*
X1116*
X11164Y10073*
Y10065*
X1116Y10061*
X11818Y09889D02*
Y09885D01*
X11826Y09878*
X11834Y09885*
Y09889*
X11826Y09878D02*
Y09866D01*
X11842D02*
X11849D01*
X11845*
Y09889*
X11842Y09885*
X11527Y09878D02*
Y09858D01*
X1153Y09854*
X11538*
X11542Y09858*
Y09878*
X1155Y09854D02*
X11558D01*
X11554*
Y09878*
X1155Y09874*
X12004Y09911D02*
X12Y09915D01*
X11992*
X11988Y09911*
Y09895*
X11992Y09891*
X12*
X12004Y09895*
X12012Y09891D02*
X1202D01*
X12016*
Y09915*
X12012Y09911*
X12047Y09891D02*
X12031D01*
X12047Y09907*
Y09911*
X12043Y09915*
X12035*
X12031Y09911*
X11653Y09935D02*
X11649Y09939D01*
X11641*
X11637Y09935*
Y09919*
X11641Y09915*
X11649*
X11653Y09919*
X11676Y09939D02*
X11668Y09935D01*
X1166Y09927*
Y09919*
X11664Y09915*
X11672*
X11676Y09919*
Y09923*
X11672Y09927*
X1166*
X11815Y10011D02*
Y09992D01*
X11819Y09988*
X11827*
X11831Y09992*
Y10011*
X11854D02*
X11839D01*
Y1*
X11846Y10004*
X1185*
X11854Y1*
Y09992*
X1185Y09988*
X11842*
X11839Y09992*
X11425Y09673D02*
Y09696D01*
X11437*
X11441Y09693*
Y09685*
X11437Y09681*
X11425*
X11433D02*
X11441Y09673D01*
X11449D02*
X11457D01*
X11453*
Y09696*
X11449Y09693*
X11468Y09673D02*
X11476D01*
X11472*
Y09696*
X11468Y09693*
X11563Y1014D02*
Y10117D01*
X11579*
X11602D02*
X11587D01*
X11602Y10132*
Y10136*
X11598Y1014*
X11591*
X11587Y10136*
X11616Y1008D02*
Y10057D01*
X11632*
X1164D02*
X11648D01*
X11644*
Y1008*
X1164Y10076*
X12003Y09944D02*
X11999Y09947D01*
X11991*
X11987Y09944*
Y09928*
X11991Y09924*
X11999*
X12003Y09928*
X12011Y09924D02*
X12019D01*
X12015*
Y09947*
X12011Y09944*
X1203Y09928D02*
X12034Y09924D01*
X12042*
X12046Y09928*
Y09944*
X12042Y09947*
X12034*
X1203Y09944*
Y0994*
X12034Y09936*
X12046*
X11939Y10082D02*
X11935Y10086D01*
X11927*
X11923Y10082*
Y10067*
X11927Y10063*
X11935*
X11939Y10067*
X11947Y10063D02*
X11955D01*
X11951*
Y10086*
X11947Y10082*
X11966D02*
X1197Y10086D01*
X11978*
X11982Y10082*
Y10078*
X11978Y10074*
X11982Y1007*
Y10067*
X11978Y10063*
X1197*
X11966Y10067*
Y1007*
X1197Y10074*
X11966Y10078*
Y10082*
X1197Y10074D02*
X11978D01*
X12033Y09986D02*
X1203Y0999D01*
X12022*
X12018Y09986*
Y0997*
X12022Y09966*
X1203*
X12033Y0997*
X12041Y09966D02*
X12049D01*
X12045*
Y0999*
X12041Y09986*
X12061Y0999D02*
X12077D01*
Y09986*
X12061Y0997*
Y09966*
X12002Y10027D02*
X11998Y10031D01*
X1199*
X11986Y10027*
Y10011*
X1199Y10007*
X11998*
X12002Y10011*
X1201Y10007D02*
X12018D01*
X12014*
Y10031*
X1201Y10027*
X12045Y10031D02*
X12037Y10027D01*
X12029Y10019*
Y10011*
X12033Y10007*
X12041*
X12045Y10011*
Y10015*
X12041Y10019*
X12029*
X11404Y09726D02*
X114Y0973D01*
X11392*
X11388Y09726*
Y0971*
X11392Y09706*
X114*
X11404Y0971*
X11411Y09706D02*
X11419D01*
X11415*
Y0973*
X11411Y09726*
X11431D02*
X11435Y0973D01*
X11443*
X11447Y09726*
Y0971*
X11443Y09706*
X11435*
X11431Y0971*
Y09726*
X11335Y09913D02*
X11331Y09909D01*
Y09901*
X11335Y09897*
X1135*
X11354Y09901*
Y09909*
X1135Y09913*
Y09921D02*
X11354Y09925D01*
Y09933*
X1135Y09937*
X11335*
X11331Y09933*
Y09925*
X11335Y09921*
X11339*
X11342Y09925*
Y09937*
X11486Y10043D02*
X11482Y10047D01*
X11474*
X1147Y10043*
Y10027*
X11474Y10023*
X11482*
X11486Y10027*
X11494Y10043D02*
X11498Y10047D01*
X11506*
X1151Y10043*
Y10039*
X11506Y10035*
X1151Y10031*
Y10027*
X11506Y10023*
X11498*
X11494Y10027*
Y10031*
X11498Y10035*
X11494Y10039*
Y10043*
X11498Y10035D02*
X11506D01*
X11644Y10032D02*
X1164Y10036D01*
X11632*
X11628Y10032*
Y10016*
X11632Y10012*
X1164*
X11644Y10016*
X11652Y10036D02*
X11667D01*
Y10032*
X11652Y10016*
Y10012*
X11288Y09801D02*
X11284Y09805D01*
X11277*
X11273Y09801*
Y09785*
X11277Y09781*
X11284*
X11288Y09785*
X11296Y09801D02*
X113Y09805D01*
X11308*
X11312Y09801*
Y09797*
X11308Y09793*
X11304*
X11308*
X11312Y09789*
Y09785*
X11308Y09781*
X113*
X11296Y09785*
X11272Y09757D02*
X11268Y0976D01*
X1126*
X11256Y09757*
Y09741*
X1126Y09737*
X11268*
X11272Y09741*
X11295Y09737D02*
X1128D01*
X11295Y09753*
Y09757*
X11291Y0976*
X11283*
X1128Y09757*
X11498Y10078D02*
X11494Y10082D01*
X11486*
X11482Y10078*
Y10063*
X11486Y10059*
X11494*
X11498Y10063*
X11506Y10059D02*
X11514D01*
X1151*
Y10082*
X11506Y10078*
X11712Y09822D02*
X11708Y09819D01*
Y09811*
X11712Y09807*
X11727*
X11731Y09811*
Y09819*
X11727Y09822*
X11731Y0983D02*
Y09838D01*
Y09834*
X11708*
X11712Y0983*
X11731Y09862D02*
X11708D01*
X11719Y0985*
Y09866*
X11796Y09668D02*
X11773D01*
Y0968*
X11777Y09684*
X11784*
X11788Y0968*
Y09668*
Y09676D02*
X11796Y09684D01*
Y09707D02*
Y09692D01*
X1178Y09707*
X11777*
X11773Y09703*
Y09695*
X11777Y09692*
X11831Y09672D02*
X11807D01*
Y09684*
X11811Y09688*
X11819*
X11823Y09684*
Y09672*
Y0968D02*
X11831Y09688D01*
Y09707D02*
X11807D01*
X11819Y09695*
Y09711*
X11905Y09667D02*
X11882D01*
Y09679*
X11886Y09683*
X11894*
X11898Y09679*
Y09667*
Y09675D02*
X11905Y09683D01*
X11886Y09691D02*
X11882Y09695D01*
Y09702*
X11886Y09706*
X1189*
X11894Y09702*
X11898Y09706*
X11902*
X11905Y09702*
Y09695*
X11902Y09691*
X11898*
X11894Y09695*
X1189Y09691*
X11886*
X11894Y09695D02*
Y09702D01*
X11836Y0961D02*
Y09633D01*
X11847*
X11851Y0963*
Y09622*
X11847Y09618*
X11836*
X11843D02*
X11851Y0961D01*
X11859Y09614D02*
X11863Y0961D01*
X11871*
X11875Y09614*
Y0963*
X11871Y09633*
X11863*
X11859Y0963*
Y09626*
X11863Y09622*
X11875*
X1142Y09559D02*
Y09582D01*
X11432*
X11436Y09578*
Y0957*
X11432Y09567*
X1142*
X11428D02*
X11436Y09559D01*
X11444D02*
X11452D01*
X11448*
Y09582*
X11444Y09578*
X11464D02*
X11467Y09582D01*
X11475*
X11479Y09578*
Y09563*
X11475Y09559*
X11467*
X11464Y09563*
Y09578*
X11865Y09668D02*
X11842D01*
Y0968*
X11845Y09684*
X11853*
X11857Y0968*
Y09668*
Y09676D02*
X11865Y09684D01*
X11842Y09707D02*
X11845Y09699D01*
X11853Y09692*
X11861*
X11865Y09695*
Y09703*
X11861Y09707*
X11857*
X11853Y09703*
Y09692*
X11664Y09669D02*
Y09649D01*
X11668Y09645*
X11676*
X1168Y09649*
Y09669*
X117Y09645D02*
Y09669D01*
X11688Y09657*
X11704*
X12005Y09879D02*
X12001Y09882D01*
X11993*
X11989Y09879*
Y09863*
X11993Y09859*
X12001*
X12005Y09863*
X12013Y09859D02*
X12021D01*
X12017*
Y09882*
X12013Y09879*
X12032Y09859D02*
X1204D01*
X12036*
Y09882*
X12032Y09879*
X11656Y09967D02*
X11653Y09971D01*
X11645*
X11641Y09967*
Y09951*
X11645Y09947*
X11653*
X11656Y09951*
X11676Y09947D02*
Y09971D01*
X11664Y09959*
X1168*
X11736Y10002D02*
X11713D01*
Y10013*
X11717Y10017*
X11724*
X11728Y10013*
Y10002*
Y10009D02*
X11736Y10017D01*
Y10025D02*
Y10033D01*
Y10029*
X11713*
X11717Y10025*
X11418Y09605D02*
Y09629D01*
X1143*
X11434Y09625*
Y09617*
X1143Y09613*
X11418*
X11426D02*
X11434Y09605D01*
X11442D02*
X1145D01*
X11446*
Y09629*
X11442Y09625*
X11477Y09605D02*
X11462D01*
X11477Y09621*
Y09625*
X11473Y09629*
X11465*
X11462Y09625*
X11426Y09638D02*
Y09662D01*
X11438*
X11442Y09658*
Y0965*
X11438Y09646*
X11426*
X11434D02*
X11442Y09638D01*
X11465Y09662D02*
X1145D01*
Y0965*
X11458Y09654*
X11462*
X11465Y0965*
Y09642*
X11462Y09638*
X11454*
X1145Y09642*
X11683Y10253D02*
Y10268D01*
X11691Y10276*
X11699Y10268*
Y10253*
Y10264*
X11683*
X11707Y10253D02*
X11715D01*
X11711*
Y10276*
X11707Y10272*
X11651Y099D02*
X11647Y09904D01*
X11639*
X11635Y099*
Y09884*
X11639Y09881*
X11647*
X11651Y09884*
X11674Y09904D02*
X11658D01*
Y09892*
X11666Y09896*
X1167*
X11674Y09892*
Y09884*
X1167Y09881*
X11662*
X11658Y09884*
G54D34*
X1161Y1024D03*
M02*