%FSTAX23Y23*%
%MOIN*%
%SFA1B1*%

%IPPOS*%
%ADD55C,0.005000*%
%LNsmarttokens-1*%
%LPD*%
G54D55*
X11278Y09868D02*
X11297D01*
X11287Y09858D02*
Y09877D01*
X11228Y10018D02*
X11247D01*
X11237Y10008D02*
Y10027D01*
X11228Y09968D02*
X11247D01*
X11237Y09958D02*
Y09977D01*
X11228Y09918D02*
X11247D01*
X11237Y09908D02*
Y09927D01*
X11228Y09868D02*
X11247D01*
X11237Y09858D02*
Y09877D01*
X11278Y10018D02*
X11297D01*
X11287Y10008D02*
Y10027D01*
X11278Y09968D02*
X11297D01*
X11287Y09958D02*
Y09977D01*
X11278Y09918D02*
X11297D01*
X11287Y09908D02*
Y09927D01*
X11228Y09818D02*
X11247D01*
X11237Y09808D02*
Y09827D01*
X11327Y10217D02*
X11339D01*
X11333Y10212D02*
Y10223D01*
X11327Y09666D02*
X11339D01*
X11333Y0966D02*
Y09672D01*
X11603Y09551D02*
X11615D01*
X11609Y09545D02*
Y09557D01*
X11879Y10217D02*
X11891D01*
X11885Y10212D02*
Y10223D01*
X11879Y09666D02*
X11891D01*
X11885Y0966D02*
Y09672D01*
X11941Y09746D02*
X11953D01*
X11947Y0974D02*
Y09752D01*
X11816Y101D02*
X11828D01*
X11822Y10094D02*
Y10106D01*
X11857Y101D02*
X11869D01*
X11863Y10094D02*
Y10106D01*
X11724Y09999D02*
X11736D01*
X1173Y09993D02*
Y10005D01*
X11369Y09748D02*
X11381D01*
X11375Y09742D02*
Y09754D01*
X11695Y09827D02*
X11707D01*
X11701Y09821D02*
Y09833D01*
X11579Y09645D02*
X11591D01*
X11585Y09639D02*
Y09651D01*
X11579Y09717D02*
X11591D01*
X11585Y09711D02*
Y09723D01*
X11539Y09717D02*
X11551D01*
X11545Y09711D02*
Y09723D01*
X11676Y09765D02*
X11688D01*
X11682Y09759D02*
Y09771D01*
X11579Y09614D02*
X11591D01*
X11585Y09608D02*
Y0962D01*
X11827Y10008D02*
X11839D01*
X11833Y10003D02*
Y10014D01*
X11258Y10117D02*
X1127D01*
X11264Y10111D02*
Y10123D01*
X11332Y09966D02*
X11343D01*
X11338Y0996D02*
Y09972D01*
X11532Y09873D02*
X11544D01*
X11538Y09867D02*
Y09879D01*
X1131Y09748D02*
X11322D01*
X11316Y09742D02*
Y09754D01*
X11675Y09657D02*
X11687D01*
X11681Y09651D02*
Y09663D01*
X11785Y09906D02*
X11797D01*
X11791Y099D02*
Y09912D01*
X11847Y09799D02*
X11859D01*
X11853Y09793D02*
Y09805D01*
X1188Y09799D02*
X11892D01*
X11886Y09793D02*
Y09805D01*
X11939Y09837D02*
X11951D01*
X11945Y09831D02*
Y09843D01*
X11441Y10064D02*
X11453D01*
X11447Y10058D02*
Y1007D01*
X11728Y09831D02*
X1174D01*
X11734Y09825D02*
Y09837D01*
X11746Y0975D02*
X11758D01*
X11752Y09744D02*
Y09756D01*
X11815Y09799D02*
X11827D01*
X11821Y09793D02*
Y09805D01*
X11782Y09799D02*
X11794D01*
X11788Y09793D02*
Y09805D01*
X1147Y09685D02*
X11482D01*
X11476Y09679D02*
Y09691D01*
X11654Y1D02*
X11665D01*
X11659Y09994D02*
Y10006D01*
X11758Y10099D02*
X1177D01*
X11764Y10093D02*
Y10105D01*
X11825Y10166D02*
X11837D01*
X11831Y1016D02*
Y10172D01*
X11942Y10118D02*
X11954D01*
X11948Y10112D02*
Y10124D01*
X11473Y09932D02*
X11485D01*
X11479Y09926D02*
Y09938D01*
X11592Y09932D02*
X11603D01*
X11597Y09926D02*
Y09938D01*
X11532Y09932D02*
X11544D01*
X11538Y09926D02*
Y09938D01*
X11592Y09873D02*
X11603D01*
X11597Y09867D02*
Y09879D01*
X11592Y09814D02*
X11603D01*
X11597Y09808D02*
Y0982D01*
X11532Y09814D02*
X11544D01*
X11538Y09808D02*
Y0982D01*
X11473Y09814D02*
X11485D01*
X11479Y09808D02*
Y0982D01*
X11473Y09873D02*
X11485D01*
X11479Y09867D02*
Y09879D01*
X11415Y09731D02*
X11427D01*
X11421Y09725D02*
Y09737D01*
X11382Y10064D02*
X11394D01*
X11388Y10058D02*
Y1007D01*
M02*