%FSTAX23Y23*%
%MOIN*%
%SFA1B1*%

%IPPOS*%
%ADD25C,0.005905*%
%ADD29C,0.035433*%
%ADD31C,0.023622*%
%LNsmarttokens-1*%
%LPD*%
G36*
X11303Y10225D02*
X11302Y10224D01*
X11302Y10221*
X11302Y10217*
X11302Y10214*
X11302Y10211*
X11303Y10208*
X11304Y10205*
X11306Y10203*
X11307Y102*
X11309Y10197*
X11311Y10196*
Y10172*
X11311Y1017*
X11311Y10167*
X11312Y10165*
X11313Y10162*
X11314Y1016*
X11316Y10158*
X11317Y10156*
X11384Y1009*
X11385Y10088*
X11387Y10087*
Y10085*
X11386Y10082*
X11385Y10081*
X11383Y10081*
X11381Y1008*
X11379Y10079*
X11377Y10078*
X11375Y10076*
X11374Y10074*
X11372Y10072*
X11371Y1007*
X11371Y10068*
X1137Y10067*
X11405*
X11405Y10068*
X11404Y1007*
X11403Y10072*
X11402Y10074*
X114Y10076*
X11399Y10077*
X11399Y10079*
X11401Y10083*
X11434*
X11436Y10079*
X11436Y10077*
X11434Y10076*
X11433Y10074*
X11431Y10072*
X1143Y1007*
X1143Y10068*
X11429Y10066*
X11429Y10064*
X11429Y10061*
X1143Y10059*
X1143Y10057*
X11431Y10055*
X11433Y10053*
X11434Y10051*
X11436Y1005*
X11438Y10048*
X1144Y10047*
X11442Y10046*
X11445Y10046*
X11447Y10046*
X11449Y10046*
X11451Y10046*
X11454Y10047*
X11456Y10048*
X11458Y1005*
X11459Y10051*
X11461Y10053*
X11462Y10055*
X11463Y10057*
X11464Y10059*
X11464Y10061*
X11465Y10064*
X11464Y10066*
X11464Y10068*
X11463Y1007*
X11462Y10072*
X11461Y10074*
X11459Y10076*
X11458Y10077*
X11458Y10079*
X1146Y10083*
X11669*
X1173Y10022*
X11728Y10017*
X11727Y10016*
X11726Y10016*
X11723Y10015*
X11721Y10014*
X11719Y10013*
X11718Y10011*
X11716Y10009*
X11715Y10007*
X11714Y10005*
X11713Y10003*
X11713Y10002*
X1173*
Y09999*
X11733*
Y09981*
X11735Y09981*
X11737Y09982*
X11739Y09983*
X11741Y09985*
X11743Y09986*
X11744Y09988*
X11746Y0999*
X11747Y09992*
X11747Y09994*
X11748Y09996*
X11749Y09997*
X11754Y09998*
X11831Y09921*
Y09835*
X11829Y09833*
X11825Y0983*
X11824Y0983*
X11821Y0983*
X11818Y0983*
X11815Y0983*
X11812Y09829*
X11809Y09828*
X11806Y09827*
X11805Y09826*
X11803Y09827*
X118Y09828*
X11797Y09829*
X11795Y0983*
X11791Y0983*
X11788Y0983*
X11785Y0983*
X11782Y0983*
X11779Y09829*
X11776Y09828*
X11773Y09827*
X11771Y09825*
X11768Y09823*
X11766Y09821*
X11764Y09819*
X11762Y09816*
X11761Y09814*
X11759Y09811*
X11758Y09808*
X11757Y09805*
X11757Y09802*
X11757Y09799*
X11757Y09796*
X11757Y09793*
X11758Y0979*
X11759Y09787*
X11761Y09784*
X11762Y09781*
X11764Y09779*
X11766Y09777*
Y09769*
X11763Y09767*
X1176Y09765*
X11759Y09766*
X11757Y09767*
X11755Y09767*
Y0975*
Y09732*
X11757Y09732*
X11759Y09733*
X1176Y09734*
X11763Y09733*
X11766Y0973*
Y09712*
X11703Y0965*
X11698Y09652*
X11699Y09655*
X11699Y09657*
X11699Y09659*
X11698Y09662*
X11697Y09664*
X11696Y09666*
X11695Y09668*
X11694Y0967*
X11692Y09671*
X1169Y09672*
X11688Y09673*
X11686Y09674*
X11683Y09675*
X11681Y09675*
X11679Y09675*
X11676Y09674*
X11674Y09673*
X11672Y09672*
X1167Y09671*
X11669Y0967*
X11667Y09668*
X11666Y09666*
X11665Y09664*
X11664Y09662*
X11663Y09659*
X11663Y09657*
X11663Y09655*
X11664Y09652*
X11665Y0965*
X11666Y09648*
X11667Y09646*
X11669Y09645*
X1167Y09643*
X11672Y09642*
X11674Y09641*
X11676Y0964*
X11679Y0964*
X11681Y09639*
X11683Y0964*
X11686Y0964*
X11689Y09635*
X11663Y09609*
X11608*
X11606Y0961*
X11602Y09614*
X11602Y09616*
X11602Y09618*
X11601Y09621*
X116Y09623*
X11599Y09625*
X11598Y09626*
X11597Y09627*
Y09632*
X11598Y09633*
X11599Y09634*
X116Y09636*
X11601Y09638*
X11602Y09641*
X11602Y09643*
X11602Y09645*
X11602Y09648*
X11602Y0965*
X11601Y09652*
X116Y09654*
X11599Y09656*
X11597Y09658*
X11595Y09659*
X11593Y09661*
X11591Y09662*
X11589Y09662*
X11587Y09663*
X11585Y09663*
X11582Y09663*
X1158Y09662*
X11578Y09662*
X11576Y09661*
X11574Y09659*
X11572Y09658*
X11571Y09656*
X11569Y09654*
X11568Y09652*
X11567Y0965*
X11567Y09648*
X11567Y09645*
X11567Y09643*
X11567Y09641*
X11568Y09638*
X11569Y09636*
X11571Y09634*
X11571Y09633*
X11572Y09632*
Y09627*
X11571Y09626*
X11571Y09625*
X11569Y09623*
X11568Y09621*
X11567Y09618*
X11567Y09616*
X11567Y09614*
X11563Y0961*
X11562Y09609*
X11517*
X11419Y09707*
X11421Y09713*
X11421Y09713*
X11424Y09713*
X11426Y09714*
X11428Y09715*
X1143Y09716*
X11432Y09717*
X11434Y09718*
X11435Y0972*
X11437Y09722*
X11438Y09724*
X11438Y09726*
X11439Y09729*
X11439Y09731*
X11439Y09733*
X11438Y09736*
X11438Y09738*
X11437Y0974*
X11435Y09742*
X11434Y09743*
X11432Y09745*
X1143Y09746*
X11428Y09747*
X11426Y09748*
X11424Y09749*
X11421Y09749*
X11419Y09749*
X11417Y09748*
X11414Y09747*
X11412Y09746*
X1141Y09745*
X11409Y09743*
X11407Y09742*
X11406Y0974*
X11405Y09738*
X11404Y09736*
X11404Y09733*
X11403Y09731*
X11402Y0973*
X11402Y0973*
X11398Y09728*
X11397Y09729*
X11395Y0973*
X11393Y09732*
X11392Y09732*
X11391Y09734*
X1139Y09737*
Y09739*
X11391Y09741*
X11392Y09743*
X11392Y09745*
X11357*
X11358Y09743*
X11359Y09741*
X11359Y0974*
X11358Y09737*
X11356Y09734*
X11335*
X11333Y09737*
X11332Y0974*
X11332Y09741*
X11333Y09743*
X11334Y09745*
X11334Y09748*
X11334Y0975*
X11333Y09752*
X11332Y09754*
X11331Y09757*
X1133Y09758*
X11328Y0976*
X11327Y09762*
X11325Y09763*
X11323Y09764*
X11321Y09765*
X11318Y09765*
X11316Y09765*
X11314Y09765*
X11311Y09765*
X11309Y09764*
X11307Y09763*
X11305Y09762*
X11303Y0976*
X11302Y09758*
X11301Y09757*
X113Y09754*
X11299Y09752*
X11298Y0975*
X11298Y09748*
X11298Y09748*
X11292Y09745*
X11259Y09778*
Y09787*
X11261Y09789*
X11264Y09791*
X11266Y09793*
X11268Y09796*
X1127Y09799*
X11271Y09802*
X11273Y09805*
X11274Y09808*
X11274Y09811*
X11275Y09814*
X11275Y09818*
X11275Y09821*
X11274Y09824*
X11274Y09827*
X11273Y0983*
X11271Y09833*
X1127Y09836*
X11268Y09839*
X11266Y09842*
X11264Y09844*
X11261Y09846*
X11259Y09848*
X11259Y09849*
X11258Y09853*
X1126Y09857*
X11264Y09857*
X11266Y09857*
X11267Y09855*
X11269Y09853*
X11271Y09851*
X11273Y09849*
X11275Y09847*
X11277Y09846*
X1128Y09845*
X11282Y09844*
X11285Y09844*
X11287Y09844*
X1129Y09844*
X11293Y09844*
X11295Y09845*
X11298Y09846*
X113Y09847*
X11302Y09849*
X11304Y09851*
X11306Y09853*
X11307Y09855*
X11309Y09857*
X1131Y0986*
X1131Y09862*
X11311Y09865*
X11311Y09868*
X11311Y0987*
X1131Y09873*
X1131Y09875*
X11309Y09878*
X11307Y0988*
X11306Y09882*
X11304Y09884*
X11302Y09886*
X113Y09888*
X11298Y09889*
X11296Y09889*
X11296Y09893*
X11296Y09896*
X11298Y09896*
X113Y09897*
X11302Y09899*
X11304Y09901*
X11306Y09903*
X11307Y09905*
X11309Y09907*
X1131Y0991*
X1131Y09912*
X11311Y09915*
X11311Y09918*
X11311Y0992*
X1131Y09923*
X1131Y09925*
X11309Y09928*
X11307Y0993*
X11306Y09932*
X11304Y09934*
X11302Y09936*
X113Y09938*
X11298Y09939*
X11296Y09939*
X11296Y09943*
X11296Y09946*
X11298Y09946*
X113Y09947*
X11302Y09949*
X11304Y09951*
X11306Y09953*
X11307Y09955*
X11309Y09957*
X1131Y0996*
X1131Y09962*
X11311Y09965*
X11311Y09968*
X11311Y0997*
X1131Y09973*
X1131Y09975*
X11309Y09978*
X11307Y0998*
X11306Y09982*
X11304Y09984*
X11302Y09986*
X113Y09988*
X11298Y09989*
X11296Y09989*
X11296Y09993*
X11296Y09996*
X11298Y09996*
X113Y09997*
X11302Y09999*
X11304Y10001*
X11306Y10003*
X11307Y10005*
X11309Y10007*
X1131Y1001*
X1131Y10012*
X11311Y10015*
X11311Y10018*
X11311Y1002*
X1131Y10023*
X1131Y10025*
X11309Y10028*
X11307Y1003*
X11306Y10032*
X11304Y10034*
X11302Y10036*
X113Y10038*
X11298Y10039*
X11295Y1004*
X11293Y10041*
X1129Y10041*
X11287Y10041*
X11285Y10041*
X11282Y10041*
X1128Y1004*
X11277Y10039*
X11275Y10038*
X11273Y10036*
X11271Y10034*
X11269Y10032*
X11267Y1003*
X11266Y10028*
X11266Y10027*
X11262Y10026*
X11259Y10027*
X11259Y10028*
X11257Y1003*
X11256Y10032*
X11254Y10034*
X11252Y10036*
X1125Y10038*
X11248Y10039*
X11245Y1004*
X11243Y10041*
X1124Y10041*
X11237Y10041*
X11235Y10041*
X11232Y10041*
X1123Y1004*
X11227Y10039*
X11225Y10038*
X11223Y10036*
X11221Y10034*
X11219Y10032*
X11217Y1003*
X11216Y10028*
X11215Y10025*
X11214Y10023*
X11214Y1002*
X11214Y10018*
X11214Y10015*
X11214Y10012*
X11215Y1001*
X11216Y10007*
X11217Y10005*
X11219Y10003*
X11221Y10001*
X11223Y09999*
X11225Y09997*
X11227Y09996*
X11228Y09996*
X11229Y09993*
X11228Y09989*
X11227Y09989*
X11225Y09988*
X11223Y09986*
X11221Y09984*
X11219Y09982*
X11217Y0998*
X11216Y09978*
X11215Y09975*
X11214Y09973*
X11214Y0997*
X11214Y09968*
X11214Y09965*
X11214Y09962*
X11215Y0996*
X11216Y09957*
X11217Y09955*
X11219Y09953*
X11221Y09951*
X11223Y09949*
X11225Y09947*
X11226Y09947*
X11224Y09941*
X11214*
Y09894*
X11224*
X11226Y09888*
X11225Y09888*
X11223Y09886*
X11221Y09884*
X11219Y09882*
X11217Y0988*
X11216Y09878*
X11215Y09875*
X11214Y09873*
X11214Y0987*
X11214Y09868*
X11214Y09865*
X11214Y09862*
X11215Y0986*
X11216Y09857*
X11217Y09856*
X11217Y09855*
X11216Y09849*
X11215Y09848*
X11213Y09846*
X11211Y09844*
X11209Y09842*
X11207Y09839*
X11205Y09837*
X11203Y09837*
X11199Y09838*
X11199Y09839*
X11196Y09851*
X11194Y09862*
X11192Y09873*
X1119Y09884*
X11188Y09896*
X11187Y09907*
X11187Y09919*
X11186Y0993*
X11186Y09942*
X11186Y09953*
X11187Y09964*
X11187Y09976*
X11188Y09987*
X1119Y09999*
X11192Y1001*
X11194Y10021*
X11196Y10033*
X11199Y10044*
X11201Y10055*
X11205Y10066*
X11208Y10077*
X11212Y10087*
X11216Y10098*
X1122Y10109*
X11225Y10119*
X1123Y1013*
X11235Y1014*
X11241Y1015*
X11247Y1016*
X11253Y10169*
X11259Y10179*
X11265Y10188*
X11272Y10198*
X11279Y10207*
X11287Y10216*
X11294Y10224*
X11297Y10228*
X11303Y10225*
G37*
%LNsmarttokens-2*%
%LPC*%
G36*
X11749Y09767D02*
X11747Y09767D01*
X11745Y09766*
X11743Y09765*
X11741Y09764*
X11739Y09762*
X11738Y0976*
X11737Y09758*
X11736Y09756*
X11735Y09754*
X11734Y09753*
X11749*
Y09767*
G37*
G36*
X11378Y09765D02*
Y09751D01*
X11392*
X11392Y09752*
X11391Y09754*
X1139Y09757*
X11389Y09758*
X11388Y0976*
X11386Y09762*
X11384Y09763*
X11382Y09764*
X1138Y09765*
X11378Y09765*
G37*
G36*
X11372D02*
X1137Y09765D01*
X11368Y09764*
X11366Y09763*
X11364Y09762*
X11362Y0976*
X11361Y09758*
X1136Y09757*
X11359Y09754*
X11358Y09752*
X11357Y09751*
X11372*
Y09765*
G37*
G36*
X11597Y09831D02*
X11595Y09831D01*
X11593Y09831*
X11591Y0983*
X11589Y09829*
X11587Y09828*
X11585Y09826*
X11583Y09824*
X11582Y09822*
X11581Y0982*
X1158Y09818*
X1158Y09816*
X1158Y09814*
X1158Y09811*
X1158Y09809*
X11581Y09807*
X11582Y09805*
X11583Y09803*
X11585Y09801*
X11587Y098*
X11589Y09798*
X11591Y09797*
X11593Y09796*
X11595Y09796*
X11597Y09796*
X116Y09796*
X11602Y09796*
X11604Y09797*
X11606Y09798*
X11608Y098*
X1161Y09801*
X11612Y09803*
X11613Y09805*
X11614Y09807*
X11615Y09809*
X11615Y09811*
X11615Y09814*
X11615Y09816*
X11615Y09818*
X11614Y0982*
X11613Y09822*
X11612Y09824*
X1161Y09826*
X11608Y09828*
X11606Y09829*
X11604Y0983*
X11602Y09831*
X116Y09831*
X11597Y09831*
G37*
G36*
X11538D02*
X11536Y09831D01*
X11534Y09831*
X11532Y0983*
X11529Y09829*
X11528Y09828*
X11526Y09826*
X11524Y09824*
X11523Y09822*
X11522Y0982*
X11521Y09818*
X11521Y09816*
X11521Y09814*
X11521Y09811*
X11521Y09809*
X11522Y09807*
X11523Y09805*
X11524Y09803*
X11526Y09801*
X11528Y098*
X11529Y09798*
X11532Y09797*
X11534Y09796*
X11536Y09796*
X11538Y09796*
X11541Y09796*
X11543Y09796*
X11545Y09797*
X11547Y09798*
X11549Y098*
X11551Y09801*
X11552Y09803*
X11554Y09805*
X11555Y09807*
X11555Y09809*
X11556Y09811*
X11556Y09814*
X11556Y09816*
X11555Y09818*
X11555Y0982*
X11554Y09822*
X11552Y09824*
X11551Y09826*
X11549Y09828*
X11547Y09829*
X11545Y0983*
X11543Y09831*
X11541Y09831*
X11538Y09831*
G37*
G36*
X11479D02*
X11477Y09831D01*
X11475Y09831*
X11472Y0983*
X1147Y09829*
X11468Y09828*
X11467Y09826*
X11465Y09824*
X11464Y09822*
X11463Y0982*
X11462Y09818*
X11462Y09816*
X11462Y09814*
X11462Y09811*
X11462Y09809*
X11463Y09807*
X11464Y09805*
X11465Y09803*
X11467Y09801*
X11468Y098*
X1147Y09798*
X11472Y09797*
X11475Y09796*
X11477Y09796*
X11479Y09796*
X11482Y09796*
X11484Y09796*
X11486Y09797*
X11488Y09798*
X1149Y098*
X11492Y09801*
X11493Y09803*
X11495Y09805*
X11496Y09807*
X11496Y09809*
X11497Y09811*
X11497Y09814*
X11497Y09816*
X11496Y09818*
X11496Y0982*
X11495Y09822*
X11493Y09824*
X11492Y09826*
X1149Y09828*
X11488Y09829*
X11486Y0983*
X11484Y09831*
X11482Y09831*
X11479Y09831*
G37*
G36*
X11682Y09783D02*
X1168Y09783D01*
X11677Y09782*
X11675Y09782*
X11673Y09781*
X11671Y09779*
X1167Y09778*
X11668Y09776*
X11667Y09774*
X11666Y09772*
X11665Y0977*
X11664Y09768*
X11664Y09765*
X11664Y09763*
X11665Y09761*
X11666Y09759*
X11667Y09756*
X11668Y09755*
X1167Y09753*
X11671Y09751*
X11673Y0975*
X11675Y09749*
X11677Y09748*
X1168Y09748*
X11682Y09748*
X11684Y09748*
X11687Y09748*
X11689Y09749*
X11691Y0975*
X11693Y09751*
X11695Y09753*
X11696Y09755*
X11697Y09756*
X11698Y09759*
X11699Y09761*
X117Y09763*
X117Y09765*
X117Y09768*
X11699Y0977*
X11698Y09772*
X11697Y09774*
X11696Y09776*
X11695Y09778*
X11693Y09779*
X11691Y09781*
X11689Y09782*
X11687Y09782*
X11684Y09783*
X11682Y09783*
G37*
G36*
X11473Y09702D02*
X11472Y09702D01*
X1147Y09701*
X11467Y097*
X11466Y09699*
X11464Y09697*
X11462Y09695*
X11461Y09694*
X1146Y09691*
X11459Y09689*
X11459Y09688*
X11473*
Y09702*
G37*
G36*
X11494Y09682D02*
X11479D01*
Y09667*
X11481Y09667*
X11483Y09668*
X11485Y09669*
X11487Y09671*
X11489Y09672*
X1149Y09674*
X11492Y09676*
X11493Y09678*
X11493Y0968*
X11494Y09682*
G37*
G36*
X11473D02*
X11459D01*
X11459Y0968*
X1146Y09678*
X11461Y09676*
X11462Y09674*
X11464Y09672*
X11466Y09671*
X11467Y09669*
X1147Y09668*
X11472Y09667*
X11473Y09667*
Y09682*
G37*
G36*
X11749Y09747D02*
X11734D01*
X11735Y09745*
X11736Y09743*
X11737Y09741*
X11738Y09739*
X11739Y09737*
X11741Y09736*
X11743Y09734*
X11745Y09733*
X11747Y09732*
X11749Y09732*
Y09747*
G37*
G36*
X11585Y09735D02*
X11582Y09735D01*
X1158Y09734*
X11578Y09734*
X11576Y09732*
X11574Y09731*
X11572Y0973*
X11571Y09728*
X11569Y09726*
X11568Y09724*
X11568Y09723*
X11568Y09723*
X11562*
X11562Y09723*
X11562Y09724*
X11561Y09726*
X11559Y09728*
X11558Y0973*
X11556Y09731*
X11554Y09732*
X11552Y09734*
X1155Y09734*
X11548Y09735*
X11545Y09735*
X11543Y09735*
X11541Y09734*
X11538Y09734*
X11536Y09732*
X11534Y09731*
X11533Y0973*
X11531Y09728*
X1153Y09726*
X11529Y09724*
X11528Y09722*
X11528Y09719*
X11527Y09717*
X11528Y09715*
X11528Y09713*
X11529Y0971*
X1153Y09708*
X11531Y09706*
X11533Y09705*
X11534Y09703*
X11536Y09702*
X11538Y09701*
X11541Y097*
X11543Y097*
X11545Y09699*
X11548Y097*
X1155Y097*
X11552Y09701*
X11554Y09702*
X11556Y09703*
X11558Y09705*
X11559Y09706*
X11561Y09708*
X11562Y0971*
X11562Y09711*
X11562Y09711*
X11568*
X11568Y09711*
X11568Y0971*
X11569Y09708*
X11571Y09706*
X11572Y09705*
X11574Y09703*
X11576Y09702*
X11578Y09701*
X1158Y097*
X11582Y097*
X11585Y09699*
X11587Y097*
X11589Y097*
X11591Y09701*
X11593Y09702*
X11595Y09703*
X11597Y09705*
X11599Y09706*
X116Y09708*
X11601Y0971*
X11602Y09713*
X11602Y09715*
X11602Y09717*
X11602Y09719*
X11602Y09722*
X11601Y09724*
X116Y09726*
X11599Y09728*
X11597Y0973*
X11595Y09731*
X11593Y09732*
X11591Y09734*
X11589Y09734*
X11587Y09735*
X11585Y09735*
G37*
G36*
X11479Y09702D02*
Y09688D01*
X11494*
X11493Y09689*
X11493Y09691*
X11492Y09694*
X1149Y09695*
X11489Y09697*
X11487Y09699*
X11485Y097*
X11483Y09701*
X11481Y09702*
X11479Y09702*
G37*
G36*
X11734Y09849D02*
X11732Y09849D01*
X1173Y09848*
X11727Y09848*
X11725Y09847*
X11723Y09845*
X11722Y09844*
X1172Y09842*
X1172Y09841*
X11719Y09841*
X11716Y0984*
X11712Y09841*
X11712Y09841*
X1171Y09843*
X11708Y09844*
X11705Y09845*
X11703Y09845*
X11701Y09845*
X11698Y09845*
X11696Y09845*
X11694Y09844*
X11692Y09843*
X1169Y09841*
X11688Y0984*
X11687Y09838*
X11685Y09836*
X11684Y09834*
X11684Y09832*
X11683Y0983*
X11683Y09827*
X11683Y09825*
X11684Y09823*
X11684Y09821*
X11685Y09818*
X11687Y09817*
X11688Y09815*
X1169Y09813*
X11692Y09812*
X11694Y09811*
X11696Y0981*
X11698Y0981*
X11701Y0981*
X11703Y0981*
X11705Y0981*
X11708Y09811*
X1171Y09812*
X11712Y09813*
X11713Y09815*
X11715Y09817*
X11715Y09817*
X11716Y09817*
X11719Y09818*
X11722Y09818*
X11723Y09817*
X11725Y09816*
X11727Y09815*
X1173Y09814*
X11732Y09814*
X11734Y09814*
X11737Y09814*
X11739Y09814*
X11741Y09815*
X11743Y09816*
X11745Y09817*
X11747Y09819*
X11748Y0982*
X1175Y09822*
X11751Y09825*
X11751Y09827*
X11752Y09829*
X11752Y09831*
X11752Y09834*
X11751Y09836*
X11751Y09838*
X1175Y0984*
X11748Y09842*
X11747Y09844*
X11745Y09845*
X11743Y09847*
X11741Y09848*
X11739Y09848*
X11737Y09849*
X11734Y09849*
G37*
G36*
X11727Y09996D02*
X11713D01*
X11713Y09994*
X11714Y09992*
X11715Y0999*
X11716Y09988*
X11718Y09986*
X11719Y09985*
X11721Y09983*
X11723Y09982*
X11726Y09981*
X11727Y09981*
Y09996*
G37*
G36*
X11338Y09984D02*
X11335Y09984D01*
X11333Y09983*
X11331Y09983*
X11329Y09982*
X11327Y0998*
X11325Y09979*
X11323Y09977*
X11322Y09975*
X11321Y09973*
X1132Y09971*
X1132Y09968*
X1132Y09966*
X1132Y09964*
X1132Y09962*
X11321Y09959*
X11322Y09957*
X11323Y09955*
X11325Y09954*
X11327Y09952*
X11329Y09951*
X11331Y0995*
X11333Y09949*
X11335Y09949*
X11338Y09948*
X1134Y09949*
X11342Y09949*
X11344Y0995*
X11346Y09951*
X11348Y09952*
X1135Y09954*
X11352Y09955*
X11353Y09957*
X11354Y09959*
X11355Y09962*
X11355Y09964*
X11355Y09966*
X11355Y09968*
X11355Y09971*
X11354Y09973*
X11353Y09975*
X11352Y09977*
X1135Y09979*
X11348Y0998*
X11346Y09982*
X11344Y09983*
X11342Y09983*
X1134Y09984*
X11338Y09984*
G37*
G36*
X11597Y09949D02*
X11595Y09949D01*
X11593Y09949*
X11591Y09948*
X11589Y09947*
X11587Y09946*
X11585Y09944*
X11583Y09942*
X11582Y09941*
X11581Y09938*
X1158Y09936*
X1158Y09934*
X1158Y09932*
X1158Y09929*
X1158Y09927*
X11581Y09925*
X11582Y09923*
X11583Y09921*
X11585Y09919*
X11587Y09918*
X11589Y09916*
X11591Y09915*
X11593Y09915*
X11595Y09914*
X11597Y09914*
X116Y09914*
X11602Y09915*
X11604Y09915*
X11606Y09916*
X11608Y09918*
X1161Y09919*
X11612Y09921*
X11613Y09923*
X11614Y09925*
X11615Y09927*
X11615Y09929*
X11615Y09932*
X11615Y09934*
X11615Y09936*
X11614Y09938*
X11613Y09941*
X11612Y09942*
X1161Y09944*
X11608Y09946*
X11606Y09947*
X11604Y09948*
X11602Y09949*
X116Y09949*
X11597Y09949*
G37*
G36*
X11405Y10061D02*
X11391D01*
Y10046*
X11392Y10046*
X11395Y10047*
X11397Y10048*
X11399Y1005*
X114Y10051*
X11402Y10053*
X11403Y10055*
X11404Y10057*
X11405Y10059*
X11405Y10061*
G37*
G36*
X11385D02*
X1137D01*
X11371Y10059*
X11371Y10057*
X11372Y10055*
X11374Y10053*
X11375Y10051*
X11377Y1005*
X11379Y10048*
X11381Y10047*
X11383Y10046*
X11385Y10046*
Y10061*
G37*
G36*
X11659Y10017D02*
X11657Y10017D01*
X11655Y10017*
X11653Y10016*
X11651Y10015*
X11649Y10014*
X11647Y10012*
X11645Y1001*
X11644Y10008*
X11643Y10006*
X11642Y10004*
X11642Y10002*
X11642Y1*
X11642Y09997*
X11642Y09995*
X11643Y09993*
X11644Y09991*
X11645Y09989*
X11647Y09987*
X11649Y09986*
X11651Y09984*
X11653Y09983*
X11655Y09982*
X11657Y09982*
X11659Y09982*
X11662Y09982*
X11664Y09982*
X11666Y09983*
X11668Y09984*
X1167Y09986*
X11672Y09987*
X11674Y09989*
X11675Y09991*
X11676Y09993*
X11677Y09995*
X11677Y09997*
X11677Y1*
X11677Y10002*
X11677Y10004*
X11676Y10006*
X11675Y10008*
X11674Y1001*
X11672Y10012*
X1167Y10014*
X11668Y10015*
X11666Y10016*
X11664Y10017*
X11662Y10017*
X11659Y10017*
G37*
G36*
X11538Y09949D02*
X11536Y09949D01*
X11534Y09949*
X11532Y09948*
X11529Y09947*
X11528Y09946*
X11526Y09944*
X11524Y09942*
X11523Y09941*
X11522Y09938*
X11521Y09936*
X11521Y09934*
X11521Y09932*
X11521Y09929*
X11521Y09927*
X11522Y09925*
X11523Y09923*
X11524Y09921*
X11526Y09919*
X11528Y09918*
X11529Y09916*
X11532Y09915*
X11534Y09915*
X11536Y09914*
X11538Y09914*
X11541Y09914*
X11543Y09915*
X11545Y09915*
X11547Y09916*
X11549Y09918*
X11551Y09919*
X11552Y09921*
X11554Y09923*
X11555Y09925*
X11555Y09927*
X11556Y09929*
X11556Y09932*
X11556Y09934*
X11555Y09936*
X11555Y09938*
X11554Y09941*
X11552Y09942*
X11551Y09944*
X11549Y09946*
X11547Y09947*
X11545Y09948*
X11543Y09949*
X11541Y09949*
X11538Y09949*
G37*
G36*
Y0989D02*
X11536Y0989D01*
X11534Y0989*
X11532Y09889*
X11529Y09888*
X11528Y09887*
X11526Y09885*
X11524Y09883*
X11523Y09882*
X11522Y09879*
X11521Y09877*
X11521Y09875*
X11521Y09873*
X11521Y0987*
X11521Y09868*
X11522Y09866*
X11523Y09864*
X11524Y09862*
X11526Y0986*
X11528Y09859*
X11529Y09857*
X11532Y09856*
X11534Y09855*
X11536Y09855*
X11538Y09855*
X11541Y09855*
X11543Y09855*
X11545Y09856*
X11547Y09857*
X11549Y09859*
X11551Y0986*
X11552Y09862*
X11554Y09864*
X11555Y09866*
X11555Y09868*
X11556Y0987*
X11556Y09873*
X11556Y09875*
X11555Y09877*
X11555Y09879*
X11554Y09882*
X11552Y09883*
X11551Y09885*
X11549Y09887*
X11547Y09888*
X11545Y09889*
X11543Y0989*
X11541Y0989*
X11538Y0989*
G37*
G36*
X11479D02*
X11477Y0989D01*
X11475Y0989*
X11472Y09889*
X1147Y09888*
X11468Y09887*
X11467Y09885*
X11465Y09883*
X11464Y09882*
X11463Y09879*
X11462Y09877*
X11462Y09875*
X11462Y09873*
X11462Y0987*
X11462Y09868*
X11463Y09866*
X11464Y09864*
X11465Y09862*
X11467Y0986*
X11468Y09859*
X1147Y09857*
X11472Y09856*
X11475Y09855*
X11477Y09855*
X11479Y09855*
X11482Y09855*
X11484Y09855*
X11486Y09856*
X11488Y09857*
X1149Y09859*
X11492Y0986*
X11493Y09862*
X11495Y09864*
X11496Y09866*
X11496Y09868*
X11497Y0987*
X11497Y09873*
X11497Y09875*
X11496Y09877*
X11496Y09879*
X11495Y09882*
X11493Y09883*
X11492Y09885*
X1149Y09887*
X11488Y09888*
X11486Y09889*
X11484Y0989*
X11482Y0989*
X11479Y0989*
G37*
G36*
X11264Y10135D02*
X11261Y10134D01*
X11259Y10134*
X11257Y10133*
X11255Y10132*
X11253Y10131*
X11251Y10129*
X1125Y10128*
X11248Y10126*
X11247Y10124*
X11247Y10121*
X11246Y10119*
X11246Y10117*
X11246Y10114*
X11247Y10112*
X11247Y1011*
X11248Y10108*
X1125Y10106*
X11251Y10104*
X11253Y10103*
X11255Y10101*
X11257Y101*
X11259Y101*
X11261Y10099*
X11264Y10099*
X11266Y10099*
X11268Y101*
X11271Y101*
X11273Y10101*
X11275Y10103*
X11276Y10104*
X11278Y10106*
X11279Y10108*
X1128Y1011*
X11281Y10112*
X11281Y10114*
X11282Y10117*
X11281Y10119*
X11281Y10121*
X1128Y10124*
X11279Y10126*
X11278Y10128*
X11276Y10129*
X11275Y10131*
X11273Y10132*
X11271Y10133*
X11268Y10134*
X11266Y10134*
X11264Y10135*
G37*
G36*
X11479Y09949D02*
X11477Y09949D01*
X11475Y09949*
X11472Y09948*
X1147Y09947*
X11468Y09946*
X11467Y09944*
X11465Y09942*
X11464Y09941*
X11463Y09938*
X11462Y09936*
X11462Y09934*
X11462Y09932*
X11462Y09929*
X11462Y09927*
X11463Y09925*
X11464Y09923*
X11465Y09921*
X11467Y09919*
X11468Y09918*
X1147Y09916*
X11472Y09915*
X11475Y09915*
X11477Y09914*
X11479Y09914*
X11482Y09914*
X11484Y09915*
X11486Y09915*
X11488Y09916*
X1149Y09918*
X11492Y09919*
X11493Y09921*
X11495Y09923*
X11496Y09925*
X11496Y09927*
X11497Y09929*
X11497Y09932*
X11497Y09934*
X11496Y09936*
X11496Y09938*
X11495Y09941*
X11493Y09942*
X11492Y09944*
X1149Y09946*
X11488Y09947*
X11486Y09948*
X11484Y09949*
X11482Y09949*
X11479Y09949*
G37*
G36*
X11791Y09924D02*
X11789Y09924D01*
X11787Y09923*
X11785Y09922*
X11782Y09921*
X1178Y0992*
X11779Y09919*
X11777Y09917*
X11776Y09915*
X11775Y09913*
X11774Y09911*
X11774Y09908*
X11774Y09906*
X11774Y09904*
X11774Y09902*
X11775Y09899*
X11776Y09897*
X11777Y09895*
X11779Y09894*
X1178Y09892*
X11782Y09891*
X11785Y0989*
X11787Y09889*
X11789Y09889*
X11791Y09888*
X11794Y09889*
X11796Y09889*
X11798Y0989*
X118Y09891*
X11802Y09892*
X11804Y09894*
X11805Y09895*
X11807Y09897*
X11808Y09899*
X11808Y09902*
X11809Y09904*
X11809Y09906*
X11809Y09908*
X11808Y09911*
X11808Y09913*
X11807Y09915*
X11805Y09917*
X11804Y09919*
X11802Y0992*
X118Y09921*
X11798Y09922*
X11796Y09923*
X11794Y09924*
X11791Y09924*
G37*
G36*
X11597Y0989D02*
X11595Y0989D01*
X11593Y0989*
X11591Y09889*
X11589Y09888*
X11587Y09887*
X11585Y09885*
X11583Y09883*
X11582Y09882*
X11581Y09879*
X1158Y09877*
X1158Y09875*
X1158Y09873*
X1158Y0987*
X1158Y09868*
X11581Y09866*
X11582Y09864*
X11583Y09862*
X11585Y0986*
X11587Y09859*
X11589Y09857*
X11591Y09856*
X11593Y09855*
X11595Y09855*
X11597Y09855*
X116Y09855*
X11602Y09855*
X11604Y09856*
X11606Y09857*
X11608Y09859*
X1161Y0986*
X11612Y09862*
X11613Y09864*
X11614Y09866*
X11615Y09868*
X11615Y0987*
X11615Y09873*
X11615Y09875*
X11615Y09877*
X11614Y09879*
X11613Y09882*
X11612Y09883*
X1161Y09885*
X11608Y09887*
X11606Y09888*
X11604Y09889*
X11602Y0989*
X116Y0989*
X11597Y0989*
G37*
%LNsmarttokens-3*%
%LPD*%
G54D25*
X11237Y09769D02*
X11294Y09711D01*
X11237Y09769D02*
Y09818D01*
X11333Y10172D02*
X114Y10106D01*
X11678*
X11853Y09931*
Y09799D02*
Y09931D01*
X11333Y10172D02*
Y10217D01*
X11886Y09799D02*
Y10217D01*
X11609Y09551D02*
X11672D01*
X11821Y09699*
Y09799*
X11672Y09586D02*
X11788Y09702D01*
Y09799*
X11294Y09711D02*
X11383D01*
X11508Y09586*
X11672*
G54D29*
X11237Y09818D03*
G54D31*
X11333Y10217D03*
X11609Y09551D03*
X11885Y10217D03*
X1173Y09999D03*
X11375Y09748D03*
X11853Y09799D03*
X11886D03*
X11752Y0975D03*
X11821Y09799D03*
X11788D03*
X11476Y09685D03*
X11388Y10064D03*
M02*