%FSTAX23Y23*%
%MOMM*%
%SFA1B1*%

%IPPOS*%
%ADD57C,0.127000*%
%LNsmarttokens-1*%
%LPD*%
G54D57*
X293721Y242877D02*
X294221D01*
X293971Y242627D02*
Y243127D01*
X299886Y254602D02*
X300186D01*
X300036Y254452D02*
Y254752D01*
X301262Y244928D02*
X301762D01*
X301512Y244678D02*
Y245178D01*
X30216Y245826D02*
X30266D01*
X30241Y245576D02*
Y246076D01*
X295401Y242877D02*
X295901D01*
X295651Y242627D02*
Y243127D01*
X296671Y242877D02*
X297171D01*
X296921Y242627D02*
Y243127D01*
X289761Y248902D02*
X290061D01*
X289911Y248752D02*
Y249052D01*
X300986Y256302D02*
X301286D01*
X301136Y256152D02*
Y256452D01*
X286446Y250647D02*
X286946D01*
X286696Y250397D02*
Y250897D01*
X285176Y254457D02*
X285676D01*
X285426Y254207D02*
Y254707D01*
X285176Y253187D02*
X285676D01*
X285426Y252937D02*
Y253437D01*
X285176Y251917D02*
X285676D01*
X285426Y251667D02*
Y252167D01*
X285176Y250647D02*
X285676D01*
X285426Y250397D02*
Y250897D01*
X286446Y254457D02*
X286946D01*
X286696Y254207D02*
Y254707D01*
X286446Y253187D02*
X286946D01*
X286696Y252937D02*
Y253437D01*
X286446Y251917D02*
X286946D01*
X286696Y251667D02*
Y252167D01*
X285176Y249377D02*
X285676D01*
X285426Y249127D02*
Y249627D01*
X298136Y250202D02*
X298436D01*
X298286Y250052D02*
Y250352D01*
X300661Y249052D02*
X300961D01*
X300811Y248902D02*
Y249202D01*
X299311Y247002D02*
X299611D01*
X299461Y246852D02*
Y247152D01*
X299286Y248177D02*
X299586D01*
X299436Y248027D02*
Y248327D01*
X292636Y242877D02*
X292936D01*
X292786Y242727D02*
Y243027D01*
X300587Y252652D02*
X300887D01*
X300737Y252502D02*
Y252802D01*
X295986Y251402D02*
X296286D01*
X296136Y251252D02*
Y251552D01*
X299086Y252602D02*
X299386D01*
X299236Y252452D02*
Y252752D01*
X295986Y250202D02*
X296286D01*
X296136Y250052D02*
Y250352D01*
X297711Y252627D02*
X298011D01*
X297861Y252477D02*
Y252777D01*
X295886Y249002D02*
X296186D01*
X296036Y248852D02*
Y249152D01*
X294836Y248777D02*
X295136D01*
X294986Y248627D02*
Y248927D01*
X290886Y261627D02*
X291186D01*
X291036Y261477D02*
Y261777D01*
X303436Y257227D02*
X303736D01*
X303586Y257077D02*
Y257377D01*
X301536Y246902D02*
X301836D01*
X301686Y246752D02*
Y247052D01*
X291611Y245202D02*
X291911D01*
X291761Y245052D02*
Y245352D01*
X302086Y252652D02*
X302386D01*
X302236Y252502D02*
Y252802D01*
X291586Y252727D02*
X291886D01*
X291736Y252577D02*
Y252877D01*
X297486Y255602D02*
X297786D01*
X297636Y255452D02*
Y255752D01*
X296161Y246527D02*
X296461D01*
X296311Y246377D02*
Y246677D01*
X297486Y254777D02*
X297786D01*
X297636Y254627D02*
Y254927D01*
X296586Y257677D02*
X296886D01*
X296736Y257527D02*
Y257827D01*
X293536Y247227D02*
X293836D01*
X293686Y247077D02*
Y247377D01*
X292961Y249927D02*
X293261D01*
X293111Y249777D02*
Y250077D01*
X291686Y249927D02*
X291986D01*
X291836Y249777D02*
Y250077D01*
X300661Y250552D02*
X300961D01*
X300811Y250402D02*
Y250702D01*
X288261Y248902D02*
X288561D01*
X288411Y248752D02*
Y249052D01*
X290886Y259127D02*
X291186D01*
X291036Y258977D02*
Y259277D01*
X294086Y259127D02*
X294386D01*
X294236Y258977D02*
Y259277D01*
X287761Y253502D02*
X288061D01*
X287911Y253352D02*
Y253652D01*
X291836Y246852D02*
X292136D01*
X291986Y246702D02*
Y247002D01*
X288611Y247902D02*
X288911D01*
X288761Y247752D02*
Y248052D01*
X287011Y248527D02*
X287311D01*
X287161Y248377D02*
Y248677D01*
X290111Y245202D02*
X290411D01*
X290261Y245052D02*
Y245352D01*
X291586Y255227D02*
X291886D01*
X291736Y255077D02*
Y255377D01*
X304061Y250602D02*
X304361D01*
X304211Y250452D02*
Y250752D01*
X288361Y258752D02*
X288661D01*
X288511Y258602D02*
Y258902D01*
X287761Y252727D02*
X288061D01*
X287911Y252577D02*
Y252877D01*
X287761Y251177D02*
X288061D01*
X287911Y251027D02*
Y251327D01*
X287761Y251952D02*
X288061D01*
X287911Y251802D02*
Y252102D01*
X288061Y257052D02*
X288361D01*
X288211Y256902D02*
Y257202D01*
X285536Y256077D02*
X285836D01*
X285686Y255927D02*
Y256227D01*
M02*