%FSTAX23Y23*%
%MOIN*%
%SFA1B1*%

%IPPOS*%
%ADD10R,0.078740X0.039370*%
%ADD11R,0.023622X0.019685*%
%ADD12R,0.035433X0.027559*%
%ADD13R,0.019685X0.023622*%
%ADD14R,0.027559X0.035433*%
%ADD15O,0.031496X0.007874*%
%ADD16O,0.007874X0.031496*%
%ADD17R,0.157480X0.157480*%
%ADD18R,0.011811X0.023622*%
%ADD19R,0.025591X0.007874*%
%ADD20R,0.007874X0.025591*%
%ADD21R,0.061024X0.061024*%
%ADD22R,0.013780X0.017717*%
%ADD23R,0.017717X0.013780*%
%ADD24R,0.055118X0.045275*%
%ADD25C,0.005905*%
%ADD26C,0.020472*%
%ADD27C,0.011811*%
%ADD28C,0.007874*%
%ADD29C,0.035433*%
%ADD30R,0.035433X0.035433*%
%ADD31C,0.023622*%
%LNsmarttokens-1*%
%LPD*%
G36*
X11816Y10041D02*
X11859D01*
X11865*
Y10015*
Y09996*
Y09982*
Y09976*
X11859*
X11855*
Y09961*
Y09946*
X11869*
Y09961*
X11872*
Y09964*
X11885*
Y09969*
X11888Y09971*
X11891Y09971*
X11892Y0997*
Y0995*
X11892Y09949*
X11892Y09948*
X11893Y09946*
X11893Y09945*
X11894Y09944*
X11898Y0994*
X11896Y09935*
X11844*
Y09906*
X1183Y09892*
X11825Y09894*
Y09903*
X11791*
Y09906*
X11788*
Y09935*
X11759*
Y09942*
Y09943*
Y09955*
X11741*
Y09961*
X11759*
Y09974*
X11743*
X11741Y09975*
X1174Y09977*
X11739Y0998*
X11739Y09981*
X11739Y09982*
Y09983*
X11741Y09985*
X11743Y09986*
X11744Y09988*
X11746Y0999*
X11747Y09992*
X11747Y09994*
X11748Y09996*
X11748Y09999*
X11748Y10001*
X11747Y10003*
X11747Y10005*
X11746Y10007*
X11744Y10009*
X11743Y10011*
X11745Y10017*
X11765Y10037*
X11771Y10034*
Y10015*
Y09996*
Y09992*
X118*
Y09996*
Y10015*
Y10035*
Y10041*
X11806*
X1181*
Y10056*
X11816*
Y10041*
G37*
G36*
X11747Y10115D02*
X1175Y1011D01*
Y1011*
X11748Y10108*
X11747Y10106*
X11747Y10104*
X11746Y10102*
X11764*
Y10099*
X11767*
Y10082*
X11768Y10082*
X11771Y10083*
X11773Y10084*
X11775Y10085*
X11776Y10086*
X11777Y10088*
X11779Y10088*
X11783Y10086*
Y1007*
X1178*
Y10066*
X1177*
X11768Y10065*
X11767Y10065*
X11765Y10065*
X11764Y10064*
X11763Y10063*
X11723Y10023*
X11722Y10022*
X11722Y10022*
X11718Y1002*
X11717Y1002*
X11715Y1002*
X11715Y1002*
Y10022*
Y10035*
X11683*
Y10022*
Y1002*
Y10018*
Y10016*
Y10014*
Y1*
X11677Y1*
X11677Y10002*
X11677Y10004*
X11676Y10006*
X11675Y10008*
X11674Y1001*
X11672Y10012*
X1167Y10014*
X11668Y10015*
X11668Y10015*
X11666Y1002*
Y10022*
Y10022*
Y10022*
Y10033*
X11649*
Y10039*
X11666*
Y10052*
X11662*
Y10083*
X11633*
X11628Y10084*
Y10088*
Y10089*
Y10116*
X11634*
X11747*
X11747Y10115*
G37*
G36*
X1129Y09801D02*
X11291Y098D01*
X11293Y098*
X11294Y09799*
X11295Y09799*
X11297Y09799*
X11314*
X11318Y09795*
Y09791*
X11336*
Y09785*
X11318*
Y09777*
Y09772*
X11312Y09771*
X11296*
Y09751*
X11336*
Y09766*
Y09771*
X11341Y09772*
X1135*
X11354Y09772*
X11355Y09767*
Y09724*
X11395*
Y09771*
X11393Y09772*
Y09778*
X11432*
X11434Y09778*
X11435Y09779*
X11437Y09779*
X11438Y0978*
X11442Y09776*
X11441Y09775*
X1144Y09773*
X1144Y09772*
X1144Y0977*
Y09747*
X1144Y09745*
X11438Y09743*
X11435Y09743*
X11434Y09743*
X11432Y09745*
X1143Y09746*
X11428Y09747*
X11426Y09748*
X11424Y09748*
Y09734*
X1144*
X11441Y09735*
X11444Y09737*
X11444Y09737*
X11447Y09736*
X1145Y09733*
Y09731*
Y0972*
X11467*
Y09714*
X1145*
Y09701*
X1146*
X1146Y09701*
X11462Y09695*
Y09695*
X11461Y09694*
X1146Y09691*
X11459Y09689*
X11459Y09687*
X11459Y09685*
X11459Y09682*
X11459Y0968*
X1146Y09678*
X11461Y09676*
X11462Y09674*
X11464Y09672*
X11466Y09671*
X11467Y09669*
X1147Y09668*
X11472Y09667*
X11474Y09667*
X11476Y09667*
X11479Y09667*
X11481Y09667*
X11483Y09668*
X11485Y09669*
X11487Y09671*
X11488Y09671*
X11491Y09671*
X11494Y09669*
Y09669*
X11503*
Y09663*
X11494*
Y09632*
Y09631*
Y09605*
X11488Y09603*
X11409Y09682*
X11407Y09683*
X11405Y09685*
X11403Y09686*
X114Y09687*
X11398Y09688*
X11396Y09688*
X11393Y09688*
X11355*
X11353Y0969*
X11351Y09692*
X11348Y09693*
X11345Y09695*
X11342Y09696*
X11339Y09697*
X11336Y09697*
X11333Y09697*
X1133Y09697*
X11327Y09697*
X11324Y09696*
X11321Y09695*
X11318Y09693*
X11316Y09692*
X11313Y0969*
X11311Y09688*
X11309Y09686*
X11307Y09683*
X11306Y09681*
X11304Y09678*
X11303Y09675*
X11302Y09672*
X11302Y09669*
X11302Y09666*
X11302Y09663*
X11302Y0966*
X11303Y09658*
X11297Y09656*
X11294Y09659*
X11287Y09668*
X11279Y09676*
X11272Y09685*
X11265Y09695*
X11259Y09704*
X11253Y09714*
X11247Y09723*
X11241Y09733*
X11235Y09743*
X1123Y09753*
X11225Y09764*
X1122Y09774*
X11219Y09778*
X11219Y0978*
X11223Y09783*
X11225Y09782*
X11228Y09781*
X11231Y09781*
X11234Y0978*
X11237Y0978*
X11241Y0978*
X11244Y09781*
X11247Y09781*
X1125Y09782*
X11253Y09784*
X11256Y09785*
X11259Y09787*
X11261Y09789*
X11264Y09791*
X11266Y09793*
X11268Y09796*
X1127Y09799*
X11271Y09802*
X11273Y09805*
X11274Y09808*
X11274Y0981*
X11278Y09811*
X1128Y09811*
X1129Y09801*
G37*
G36*
X11348Y09987D02*
X11345Y09982D01*
X11344Y09983*
X11342Y09983*
X11341Y09984*
Y09969*
X11355*
X11355Y09971*
X11354Y09973*
X11354Y09973*
X11359Y09977*
X11378Y09958*
X11376Y09954*
Y09935*
X11373*
Y09932*
X11357*
Y09917*
Y09913*
Y09878*
X11352Y09876*
X11351*
X11342Y09885*
Y0992*
X11341Y09921*
X11341Y09923*
X11341Y09924*
X1134Y09925*
X11339Y09926*
X11308Y09957*
X11309Y09957*
X1131Y0996*
X1131Y09962*
X11311Y09965*
X11311Y09968*
X11311Y0997*
X1131Y09973*
X1131Y09975*
X11309Y09978*
X11307Y0998*
X11306Y09982*
X11304Y09984*
X11302Y09986*
X113Y09988*
X11298Y09989*
X11296Y09989*
X11296Y09993*
X11296Y09996*
X11298Y09996*
X113Y09997*
X11302Y09999*
X11304Y10001*
X11306Y10003*
X11307Y10005*
X11309Y10007*
X11309Y10009*
X11327*
X11348Y09987*
G37*
G36*
X11413Y1031D02*
Y10116D01*
X11546*
X11548Y10113*
X11549Y1011*
X11548Y10109*
X11543*
X11542Y10109*
X11541Y10108*
X11539Y10108*
X11538Y10107*
X11538Y10107*
X11537Y10106*
X11524Y10093*
X11523Y10092*
X11523Y10091*
X11522Y1009*
X11522Y10089*
X11522Y10087*
Y10083*
X11513*
Y10052*
X11509*
Y10039*
X11527*
Y10033*
X11509*
Y10022*
Y1002*
X11505Y10016*
X11504Y10015*
X11503Y10015*
X11503Y10014*
X115Y10013*
X11497*
X11495Y10014*
X11495Y10015*
X11494Y10015*
X11492Y10016*
X11491Y10016*
X11489Y10016*
X11488Y10016*
X11486Y10016*
X11485Y10015*
X11483Y10015*
X11483Y10014*
X11481Y10013*
X11478*
X11475Y10014*
X11475Y10015*
X11474Y10015*
X11472Y10016*
X11471Y10016*
X11469Y10016*
X11468Y10016*
X11466Y10016*
X11465Y10015*
X11464Y10015*
X11463Y10014*
X11461Y10013*
X11458*
X11456Y10014*
X11456Y10015*
X11454Y10015*
X11453Y10016*
X11451Y10016*
X1145Y10016*
X11448Y10016*
X11447Y10016*
X11445Y10015*
X11444Y10015*
X11443Y10013*
X11442Y10012*
X11441Y10011*
X1144Y1001*
X1144Y10008*
X1144Y10007*
Y09983*
X1144Y09981*
X1144Y0998*
X11441Y09978*
X11442Y09977*
X11438Y09973*
X11437Y09974*
X11435Y09975*
X11434Y09975*
X11432Y09975*
X11423*
Y09968*
X11441*
X11441Y09968*
X11441Y0997*
X1144Y09971*
X11444Y09975*
X11445Y09974*
X11447Y09973*
X11448Y09973*
X1145Y09973*
X11451Y09973*
X11453Y09973*
X11454Y09974*
X11456Y09975*
X11456Y09975*
X11458Y09976*
X11461*
X11463Y09975*
X11464Y09975*
X11465Y09974*
X11466Y09973*
X11468Y09973*
X11469Y09973*
X11471Y09973*
X11472Y09973*
X11474Y09974*
X11475Y09975*
X11475Y09975*
X11478Y09976*
X11481*
X11483Y09975*
X11483Y09975*
X11485Y09974*
X11486Y09973*
X11488Y09973*
X11489Y09973*
X11491Y09973*
X11492Y09973*
X11494Y09974*
X11495Y09975*
X11495Y09975*
X11497Y09976*
X115*
X11503Y09975*
X11503Y09975*
X11504Y09974*
X11506Y09973*
X11507Y09973*
X11509Y09973*
X1151Y09973*
X11512Y09973*
X11513Y09974*
X11515Y09975*
X11515Y09975*
X11517Y09976*
X1152*
X11522Y09975*
X11523Y09975*
X11524Y09974*
X11525Y09973*
X11527Y09973*
X11529Y09973*
X1153Y09973*
X11532Y09973*
X11533Y09974*
X11534Y09975*
X11535Y09975*
X11537Y09976*
X1154*
X11542Y09975*
X11542Y09975*
X11544Y09974*
X11545Y09973*
X11547Y09973*
X11548Y09973*
X1155Y09973*
X11551Y09973*
X11553Y09974*
X11553Y09975*
X11556Y09974*
X11559Y09973*
X1156Y09973*
X11561Y09972*
X11562Y09971*
X11565Y09967*
X11563Y09961*
X11541*
Y0988*
X11623*
Y09961*
X11612*
X1161Y09967*
X11614Y09971*
X11614Y09971*
X11614Y09972*
X11615Y09973*
X11616Y09973*
X1162Y09974*
X11622Y09975*
X11622Y09974*
X11624Y09973*
X11625Y09973*
X11627Y09973*
X11628Y09973*
X1163Y09973*
X11631Y09974*
X11633Y09975*
X11637Y09971*
X11636Y0997*
X11635Y09968*
X11635Y09967*
X11635Y09965*
X11635Y09964*
X11635Y09962*
X11636Y09961*
X11637Y09959*
X11637Y09959*
X11638Y09957*
Y09954*
X11637Y09951*
X11637Y09951*
X11636Y0995*
X11635Y09949*
X11635Y09947*
X11635Y09945*
X11635Y09944*
X11635Y09942*
X11636Y09941*
X11637Y0994*
X11637Y09939*
X11638Y09937*
Y09934*
X11637Y09932*
X11637Y09932*
X11636Y0993*
X11635Y09929*
X11635Y09927*
X11635Y09926*
X11635Y09924*
X11635Y09923*
X11636Y09921*
X11637Y0992*
X11637Y0992*
X11638Y09917*
Y09914*
X11637Y09912*
X11637Y09912*
X11636Y09911*
X11635Y09909*
X11635Y09908*
X11635Y09906*
X11635Y09905*
X11635Y09903*
X11636Y09902*
X11637Y099*
X11637Y099*
X11638Y09898*
Y09895*
X11637Y09892*
X11637Y09892*
X11636Y09891*
X11635Y09889*
X11635Y09888*
X11635Y09886*
X11635Y09885*
X11635Y09883*
X11636Y09882*
X11637Y09881*
X11637Y0988*
X11638Y09878*
Y09875*
X11637Y09873*
X11637Y09873*
X11636Y09871*
X11635Y0987*
X11635Y09868*
X11635Y09867*
X11635Y09865*
X11635Y09864*
X11636Y09862*
X11637Y09861*
X11637Y09861*
X11638Y09858*
Y09855*
X11637Y09853*
X11637Y09853*
X11636Y09852*
X11635Y0985*
X11635Y09849*
X11635Y09847*
X11635Y09846*
X11635Y09844*
X11636Y09843*
X11637Y09841*
X11637Y09841*
X11638Y09839*
Y09836*
X11637Y09833*
X11637Y09833*
X11636Y09832*
X11635Y0983*
X11635Y09829*
X11635Y09827*
X11635Y09826*
X11635Y09824*
X11636Y09823*
X11637Y09822*
X11637Y09821*
X11638Y09819*
Y09816*
X11637Y09814*
X11637Y09813*
X11636Y09812*
X11635Y09811*
X11635Y09809*
X11635Y09808*
X11635Y09806*
X11635Y09805*
X11636Y09803*
X11637Y09802*
X11637Y09802*
X11638Y09799*
Y09796*
X11637Y09794*
X11637Y09794*
X11636Y09792*
X11635Y09791*
X11635Y0979*
X11635Y09788*
X11635Y09786*
X11635Y09785*
X11636Y09784*
X11637Y09782*
X11633Y09778*
X11631Y09779*
X1163Y0978*
X11628Y0978*
X11627Y0978*
X11625Y0978*
X11624Y0978*
X11622Y09779*
X11621Y09778*
X11621Y09778*
X11619Y09777*
X11616*
X11613Y09778*
X11613Y09778*
X11612Y09779*
X1161Y0978*
X1161Y0978*
Y09758*
X11604*
Y0978*
X11604Y0978*
X11603Y09779*
X11601Y09778*
X11601Y09778*
X11599Y09777*
X11596*
X11594Y09778*
X11593Y09778*
X11592Y09779*
X11591Y0978*
X11589Y0978*
X11588Y0978*
X11586Y0978*
X11585Y0978*
X11583Y09779*
X11582Y09778*
X11582Y09778*
X11579Y09777*
X11576*
X11574Y09778*
X11574Y09778*
X11572Y09779*
X11571Y0978*
X11569Y0978*
X11568Y0978*
X11566Y0978*
X11565Y0978*
X11563Y09779*
X11562Y09778*
X11562Y09778*
X1156Y09777*
X11557*
X11554Y09778*
X11554Y09778*
X11553Y09779*
X11551Y0978*
X1155Y0978*
X11548Y0978*
X11547Y0978*
X11545Y0978*
X11544Y09779*
X11542Y09778*
X11542Y09778*
X1154Y09777*
X11537*
X11535Y09778*
X11534Y09778*
X11533Y09779*
X11532Y0978*
X1153Y0978*
X11529Y0978*
X11527Y0978*
X11525Y0978*
X11524Y09779*
X11523Y09778*
X11522Y09778*
X1152Y09777*
X11517*
X11515Y09778*
X11515Y09778*
X11513Y09779*
X11512Y0978*
X1151Y0978*
X11509Y0978*
X11507Y0978*
X11506Y0978*
X11504Y09779*
X11503Y09778*
X11503Y09778*
X115Y09777*
X11497*
X11495Y09778*
X11495Y09778*
X11494Y09779*
X11492Y0978*
X11491Y0978*
X11489Y0978*
X11488Y0978*
X11486Y0978*
X11485Y09779*
X11483Y09778*
X11483Y09778*
X11481Y09777*
X11478*
X11475Y09778*
X11475Y09778*
X11474Y09779*
X11472Y0978*
X11471Y0978*
X11469Y0978*
X11468Y0978*
X11466Y0978*
X11465Y09779*
X11464Y09778*
X11463Y09778*
X11461Y09777*
X11458*
X11456Y09778*
X11456Y09778*
X11454Y09779*
X11453Y0978*
X11451Y0978*
X1145Y0978*
X11448Y0978*
X11447Y0978*
X11445Y09779*
X11444Y09778*
X1144Y09782*
X11441Y09784*
X11441Y09785*
X11442Y09786*
X11442Y09788*
X11442Y0979*
X11441Y09791*
X11441Y09792*
X1144Y09794*
X1144Y09794*
X11439Y09796*
Y09799*
X1144Y09802*
X1144Y09802*
X11441Y09803*
X11441Y09805*
X11442Y09806*
X11442Y09808*
X11442Y09809*
X11441Y09811*
X11441Y09812*
X1144Y09813*
X1144Y09814*
X11439Y09816*
Y09819*
X1144Y09821*
X1144Y09822*
X11441Y09823*
X11441Y09824*
X11442Y09826*
X11442Y09827*
X11442Y09829*
X11441Y0983*
X11441Y09832*
X1144Y09833*
X1144Y09833*
X11439Y09836*
Y09839*
X1144Y09841*
X1144Y09841*
X11441Y09843*
X11441Y09844*
X11442Y09846*
X11442Y09847*
X11442Y09849*
X11441Y0985*
X11441Y09852*
X1144Y09853*
X1144Y09853*
X11439Y09855*
Y09858*
X1144Y09861*
X1144Y09861*
X11441Y09862*
X11441Y09864*
X11442Y09865*
X11442Y09867*
X11442Y09868*
X11441Y0987*
X11441Y09871*
X1144Y09873*
X1144Y09873*
X11439Y09875*
Y09878*
X1144Y0988*
X1144Y09881*
X11441Y09882*
X11441Y09883*
X11442Y09885*
X11442Y09886*
X11442Y09888*
X11441Y09889*
X11441Y09891*
X1144Y09892*
X1144Y09892*
X11439Y09895*
Y09898*
X1144Y099*
X1144Y099*
X11441Y09902*
X11441Y09903*
X11442Y09905*
X11442Y09906*
X11442Y09908*
X11441Y09909*
X11441Y09911*
X1144Y09912*
X1144Y09912*
X11439Y09914*
Y09917*
X1144Y0992*
X1144Y0992*
X11441Y09921*
X11441Y09923*
X11442Y09924*
X11442Y09926*
X11442Y09927*
X11441Y09929*
X11441Y0993*
X1144Y09932*
X1144Y09932*
X11439Y09934*
Y09937*
X1144Y09939*
X1144Y0994*
X11441Y09941*
X11441Y09942*
X11442Y09944*
X11442Y09945*
X11442Y09947*
X11441Y09949*
X11441Y0995*
X1144Y09951*
X1144Y09951*
X11439Y09954*
Y09957*
X1144Y09959*
X1144Y09959*
X11441Y09961*
X11441Y09962*
X11441Y09962*
X1142*
Y09965*
X11417*
Y09975*
X11408*
X11407Y09975*
X11405Y09975*
X11404Y09974*
X11403Y09973*
X11401Y09972*
X114Y09971*
X114Y0997*
X114Y09969*
X11396Y09968*
X11393Y09968*
X11393*
X11337Y10024*
X11336Y10025*
X11335Y10025*
X11333Y10026*
X11332Y10026*
X11333Y10032*
X11341*
X11342Y10032*
X11343Y10032*
X11345Y10033*
X11346Y10034*
X11347Y10035*
X11353Y10041*
X11353Y10041*
X11354Y10042*
X11354Y10043*
X11355Y10044*
X11358*
Y10079*
X1133*
Y10062*
X11324*
Y10079*
X11295*
Y1007*
X11287*
Y10077*
X1124*
Y10051*
X11229Y1004*
X11227Y10039*
X11225Y10038*
X11223Y10036*
X11221Y10034*
X11219Y10032*
X11217Y1003*
X11216Y10028*
X11215Y10025*
X11214Y10023*
X11214Y1002*
X11214Y10018*
X11214Y10015*
X11214Y10012*
X11215Y1001*
X11216Y10007*
X11217Y10005*
X11219Y10003*
X11221Y10001*
X11223Y09999*
X11225Y09997*
X11227Y09996*
X11228Y09996*
X11229Y09993*
X11228Y09989*
X11227Y09989*
X11225Y09988*
X11223Y09986*
X11221Y09984*
X11219Y09982*
X11217Y0998*
X11216Y09978*
X11215Y09975*
X11214Y09973*
X11214Y0997*
X11214Y09968*
X11214Y09965*
X11214Y09962*
X11215Y0996*
X11216Y09957*
X11217Y09955*
X11219Y09953*
X11221Y09951*
X11223Y09949*
X11225Y09947*
X11226Y09947*
X11224Y09941*
X11214*
Y0992*
X11237*
Y09915*
X11214*
Y09894*
X11224*
X11226Y09888*
X11225Y09888*
X11223Y09886*
X11221Y09884*
X11219Y09882*
X11217Y0988*
X11216Y09878*
X11215Y09875*
X11214Y09873*
X11214Y0987*
X11214Y09868*
X11214Y09865*
X11214Y09862*
X11215Y0986*
X11216Y09857*
X11217Y09856*
X11217Y09855*
X11216Y09849*
X11215Y09848*
X11213Y09846*
X11211Y09844*
X11209Y09842*
X11207Y09839*
X11205Y09837*
X11203Y09837*
X11199Y09838*
X11199Y09839*
X11196Y09851*
X11194Y09862*
X11192Y09873*
X1119Y09884*
X11188Y09896*
X11187Y09907*
X11187Y09919*
X11186Y0993*
X11186Y09942*
X11186Y09953*
X11187Y09964*
X11187Y09976*
X11188Y09987*
X1119Y09999*
X11192Y1001*
X11194Y10021*
X11196Y10033*
X11199Y10044*
X11201Y10055*
X11205Y10066*
X11208Y10077*
X11212Y10087*
X11216Y10098*
X1122Y10109*
X11225Y10119*
X1123Y1013*
X11235Y1014*
X11241Y1015*
X11247Y1016*
X11253Y10169*
X11259Y10179*
X11265Y10188*
X11272Y10198*
X11279Y10207*
X11287Y10216*
X11294Y10224*
X11297Y10228*
X11303Y10225*
X11302Y10224*
X11302Y10221*
X11302Y10217*
X11302Y10214*
X11302Y10211*
X11303Y10208*
X11304Y10205*
X11306Y10203*
X11307Y102*
X11309Y10197*
X11311Y10195*
X11313Y10193*
X11316Y10191*
X11318Y1019*
X11321Y10188*
X11324Y10187*
X11327Y10187*
X1133Y10186*
X11333Y10186*
X11336Y10186*
X11339Y10187*
X11342Y10187*
X11345Y10188*
X11348Y1019*
X11351Y10191*
X11353Y10193*
X11356Y10195*
X11358Y10197*
X1136Y102*
X11361Y10203*
X11362Y10205*
X11363Y10208*
X11364Y10211*
X11365Y10214*
X11365Y10217*
X11365Y10221*
X11364Y10224*
X11363Y10227*
X11362Y1023*
X11361Y10232*
X1136Y10235*
X11358Y10237*
X11356Y1024*
X11353Y10242*
X11351Y10244*
X11348Y10245*
X11345Y10247*
X11342Y10248*
X11339Y10248*
X11336Y10249*
X11333Y10249*
X1133Y10249*
X11327Y10248*
X11326Y10248*
X11323Y10253*
X11327Y10257*
X11335Y10264*
X11344Y10271*
X11353Y10278*
X11362Y10285*
X11372Y10292*
X11381Y10298*
X11391Y10304*
X11401Y1031*
X11407Y10314*
X11413Y1031*
G37*
G36*
X11818Y1031D02*
X11827Y10304D01*
X11837Y10298*
X11847Y10292*
X11856Y10285*
X11865Y10278*
X11874Y10271*
X11883Y10264*
X11892Y10257*
X11895Y10253*
X11892Y10248*
X11891Y10248*
X11888Y10249*
X11885Y10249*
X11882Y10249*
X11879Y10248*
X11876Y10248*
X11873Y10247*
X1187Y10245*
X11868Y10244*
X11865Y10242*
X11863Y1024*
X11861Y10237*
X11859Y10235*
X11857Y10232*
X11856Y1023*
X11855Y10227*
X11854Y10224*
X11854Y10221*
X11854Y10217*
X11854Y10214*
X11854Y10211*
X11855Y10208*
X11856Y10205*
X11857Y10203*
X11859Y102*
X11861Y10197*
X11863Y10195*
X11865Y10193*
X11868Y10191*
X1187Y1019*
X11873Y10188*
X11876Y10187*
X11879Y10187*
X11882Y10186*
X11885Y10186*
X11888Y10186*
X11891Y10187*
X11894Y10187*
X11897Y10188*
X119Y1019*
X11903Y10191*
X11905Y10193*
X11907Y10195*
X1191Y10197*
X11911Y102*
X11913Y10203*
X11914Y10205*
X11915Y10208*
X11916Y10211*
X11917Y10214*
X11917Y10217*
X11917Y10221*
X11916Y10224*
X11916Y10225*
X11921Y10228*
X11924Y10224*
X11932Y10216*
X11939Y10207*
X11946Y10198*
X11953Y10188*
X1196Y10179*
X11966Y10169*
X11972Y1016*
X11978Y1015*
X11983Y1014*
X11988Y1013*
X11993Y10119*
X11998Y10109*
X12002Y10098*
X12006Y10087*
X1201Y10077*
X12014Y10066*
X12017Y10055*
X1202Y10044*
X12023Y10033*
X12025Y10021*
X12027Y1001*
X12029Y09999*
X1203Y09987*
X12031Y09976*
X12032Y09964*
X12032Y09953*
X12032Y09942*
X12032Y09942*
X12032Y09941*
X12032Y0993*
X12032Y09919*
X12031Y09907*
X1203Y09896*
X12029Y09884*
X12027Y09873*
X12025Y09862*
X12023Y09851*
X1202Y09839*
X12017Y09828*
X12014Y09817*
X1201Y09806*
X12006Y09796*
X12002Y09785*
X11998Y09774*
X11993Y09764*
X11988Y09753*
X11983Y09743*
X11978Y09733*
X11972Y09723*
X11966Y09714*
X1196Y09704*
X11953Y09695*
X11946Y09685*
X11939Y09676*
X11932Y09668*
X11924Y09659*
X11921Y09656*
X11916Y09658*
X11916Y0966*
X11917Y09663*
X11917Y09666*
X11917Y09669*
X11916Y09672*
X11915Y09675*
X11914Y09678*
X11913Y09681*
X11911Y09683*
X1191Y09686*
X11907Y09688*
X11906Y09689*
X11905Y0969*
X11905Y09691*
X11908Y09696*
X11915*
Y09736*
Y09788*
X11916Y0979*
X11917Y09793*
X11917Y09796*
X11917Y09799*
X11917Y09802*
X11917Y09805*
X11916Y09808*
X11915Y09811*
X11914Y09814*
X11912Y09816*
X11911Y09817*
Y0984*
X11878*
Y09846*
X11911*
Y09859*
X11935*
X11937Y09853*
X11936Y09853*
X11934Y09851*
X11932Y0985*
X11931Y09848*
X11929Y09846*
X11928Y09844*
X11928Y09842*
X11927Y0984*
X11962*
X11962Y09842*
X11961Y09844*
X1196Y09846*
X11959Y09848*
X11957Y0985*
X11956Y09851*
X11954Y09853*
X11953Y09853*
X11954Y09859*
X11963*
Y09875*
X11966*
Y09878*
X11983*
Y0989*
Y09903*
X11966*
Y09909*
X11983*
Y09916*
Y09922*
Y09928*
Y09935*
X11966*
Y09941*
X11983*
Y09947*
Y09953*
X11984*
Y09977*
X11987*
Y0998*
X12007*
Y10001*
X11987*
X11983Y10005*
Y10013*
X11966*
Y10019*
X11983*
Y10026*
Y10032*
Y10038*
Y10045*
X11966*
Y10048*
X11963*
Y10064*
X1195*
X11948*
X11946*
X11944*
X11942*
X11936Y10064*
Y10068*
X11936Y10069*
X11936Y10071*
X11935Y10072*
X11934Y10073*
X11933Y10075*
X11879Y10129*
X11878Y1013*
X11877Y1013*
X11875Y10131*
X11874Y10131*
X11872Y10132*
X11813*
X11808Y10135*
X11808Y10135*
X11807Y10136*
Y10161*
X11809Y10162*
X11813Y10163*
X11813Y10162*
X11813Y10163*
X11814Y10161*
X11814Y10161*
X11814Y10159*
X11815Y10157*
X11817Y10155*
X11818Y10153*
X1182Y10152*
X11822Y10151*
X11824Y1015*
X11826Y10149*
X11828Y10148*
Y10166*
Y10183*
X11826Y10183*
X11824Y10182*
X11822Y10181*
X1182Y1018*
X11818Y10179*
X11817Y10177*
X11815Y10175*
X11814Y10173*
X11814Y10171*
X11814Y10171*
X11813Y1017*
X11813Y10169*
X11809Y1017*
X11807Y10171*
Y10309*
X11813Y10312*
X11818Y1031*
G37*
%LNsmarttokens-2*%
%LPC*%
G36*
X1179Y09958D02*
X1178D01*
Y09946*
X1179*
Y09958*
G37*
G36*
X1137Y09952D02*
X11357D01*
Y09938*
X1137*
Y09952*
G37*
G36*
X11983Y09872D02*
X11968D01*
Y09859*
X11983*
Y09872*
G37*
G36*
X11535Y09961D02*
X11454D01*
Y0988*
X11535*
Y09961*
G37*
G36*
X11825Y09935D02*
X11794D01*
Y09909*
X11825*
Y09935*
G37*
G36*
X11885Y09958D02*
X11875D01*
Y09946*
X11885*
Y09958*
G37*
G36*
X11335Y09963D02*
X1132D01*
X1132Y09962*
X11321Y09959*
X11322Y09957*
X11323Y09955*
X11325Y09954*
X11327Y09952*
X11329Y09951*
X11331Y0995*
X11333Y09949*
X11335Y09949*
Y09963*
G37*
G36*
X11355D02*
X11341D01*
Y09949*
X11342Y09949*
X11344Y0995*
X11346Y09951*
X11348Y09952*
X1135Y09954*
X11352Y09955*
X11353Y09957*
X11354Y09959*
X11355Y09962*
X11355Y09963*
G37*
G36*
X118Y09986D02*
X11771D01*
Y09976*
X11775*
X1178*
Y0997*
Y09964*
X11793*
Y09961*
X11796*
Y09946*
X1181*
Y09961*
Y09976*
X11806*
X118*
Y09982*
Y09986*
G37*
G36*
X1183Y09976D02*
X11816D01*
Y09961*
Y09946*
X1183*
Y09961*
Y09976*
G37*
G36*
X11849D02*
X11836D01*
Y09961*
Y09946*
X11849*
Y09961*
Y09976*
G37*
G36*
X11962Y09834D02*
X11948D01*
Y0982*
X11949Y0982*
X11952Y09821*
X11954Y09822*
X11956Y09823*
X11957Y09825*
X11959Y09826*
X1196Y09828*
X11961Y0983*
X11962Y09833*
X11962Y09834*
G37*
G36*
X11336Y09745D02*
X11319D01*
Y09724*
X11336*
Y09745*
G37*
G36*
X11944Y09743D02*
X11929D01*
X1193Y09741*
X1193Y09739*
X11931Y09737*
X11933Y09735*
X11934Y09733*
X11936Y09732*
X11938Y0973*
X1194Y09729*
X11942Y09729*
X11944Y09728*
Y09743*
G37*
G36*
X11964D02*
X1195D01*
Y09728*
X11951Y09729*
X11954Y09729*
X11956Y0973*
X11958Y09732*
X11959Y09733*
X11961Y09735*
X11962Y09737*
X11963Y09739*
X11964Y09741*
X11964Y09743*
G37*
G36*
X11418Y09728D02*
X11404D01*
X11404Y09726*
X11405Y09724*
X11406Y09722*
X11407Y0972*
X11409Y09718*
X1141Y09717*
X11412Y09716*
X11414Y09715*
X11417Y09714*
X11418Y09713*
Y09728*
G37*
G36*
X11439D02*
X11424D01*
Y09713*
X11426Y09714*
X11428Y09715*
X1143Y09716*
X11432Y09717*
X11434Y09718*
X11435Y0972*
X11437Y09722*
X11438Y09724*
X11438Y09726*
X11439Y09728*
G37*
G36*
X11313Y09745D02*
X11296D01*
Y09724*
X11313*
Y09745*
G37*
G36*
X11535Y09874D02*
X11454D01*
Y09792*
X11535*
Y09874*
G37*
G36*
X11623D02*
X11541D01*
Y09792*
X11623*
Y09874*
G37*
G36*
X11942Y09834D02*
X11927D01*
X11928Y09833*
X11928Y0983*
X11929Y09828*
X11931Y09826*
X11932Y09825*
X11934Y09823*
X11936Y09822*
X11938Y09821*
X1194Y0982*
X11942Y0982*
Y09834*
G37*
G36*
X11418Y09748D02*
X11417Y09748D01*
X11414Y09747*
X11412Y09746*
X1141Y09745*
X11409Y09743*
X11407Y09742*
X11406Y0974*
X11405Y09738*
X11404Y09736*
X11404Y09734*
X11418*
Y09748*
G37*
G36*
X11944Y09763D02*
X11942Y09763D01*
X1194Y09762*
X11938Y09761*
X11936Y0976*
X11934Y09758*
X11933Y09756*
X11931Y09755*
X1193Y09752*
X1193Y0975*
X11929Y09749*
X11944*
Y09763*
G37*
G36*
X1195D02*
Y09749D01*
X11964*
X11964Y0975*
X11963Y09752*
X11962Y09755*
X11961Y09756*
X11959Y09758*
X11958Y0976*
X11956Y09761*
X11954Y09762*
X11951Y09763*
X1195Y09763*
G37*
G36*
X11761Y10096D02*
X11746D01*
X11747Y10094*
X11747Y10092*
X11748Y1009*
X1175Y10088*
X11751Y10086*
X11753Y10085*
X11755Y10084*
X11757Y10083*
X11759Y10082*
X11761Y10082*
Y10096*
G37*
G36*
X11261Y10114D02*
X1124D01*
Y10097*
X11261*
Y10114*
G37*
G36*
X11287D02*
X11267D01*
Y10097*
X11287*
Y10114*
G37*
G36*
X11968Y10064D02*
Y10051D01*
X11983*
Y10064*
X11968*
G37*
G36*
X11444Y10087D02*
X11427D01*
Y10067*
X11444*
Y10087*
G37*
G36*
X11467D02*
X1145D01*
Y10067*
X11467*
Y10087*
G37*
G36*
X11287Y10136D02*
X11267D01*
Y1012*
X11287*
Y10136*
G37*
G36*
X11945Y10135D02*
X11943Y10135D01*
X11941Y10134*
X11939Y10133*
X11937Y10132*
X11935Y1013*
X11934Y10129*
X11932Y10127*
X11931Y10125*
X11931Y10122*
X1193Y10121*
X11945*
Y10135*
G37*
G36*
X11951D02*
Y10121D01*
X11965*
X11965Y10122*
X11964Y10125*
X11963Y10127*
X11962Y10129*
X1196Y1013*
X11959Y10132*
X11957Y10133*
X11955Y10134*
X11952Y10135*
X11951Y10135*
G37*
G36*
X11945Y10115D02*
X1193D01*
X11931Y10113*
X11931Y10111*
X11932Y10109*
X11934Y10107*
X11935Y10105*
X11937Y10104*
X11939Y10102*
X11941Y10101*
X11943Y10101*
X11945Y101*
Y10115*
G37*
G36*
X11965D02*
X11951D01*
Y101*
X11952Y10101*
X11955Y10101*
X11957Y10102*
X11959Y10104*
X1196Y10105*
X11962Y10107*
X11963Y10109*
X11964Y10111*
X11965Y10113*
X11965Y10115*
G37*
G36*
X11261Y10136D02*
X1124D01*
Y1012*
X11261*
Y10136*
G37*
G36*
X11715Y10056D02*
X11702D01*
Y10041*
X11715*
Y10056*
G37*
G36*
X1185Y10006D02*
X11836D01*
Y09991*
X11837Y09991*
X11839Y09992*
X11842Y09993*
X11843Y09994*
X11845Y09996*
X11847Y09998*
X11848Y1*
X11849Y10002*
X1185Y10004*
X1185Y10006*
G37*
G36*
X11834Y10183D02*
Y10169D01*
X11848*
X11848Y10171*
X11847Y10173*
X11846Y10175*
X11845Y10177*
X11843Y10179*
X11841Y1018*
X1184Y10181*
X11837Y10182*
X11835Y10183*
X11834Y10183*
G37*
G36*
X1183Y10026D02*
X11828Y10026D01*
X11826Y10025*
X11824Y10024*
X11822Y10023*
X1182Y10021*
X11819Y10019*
X11817Y10017*
X11816Y10015*
X11815Y10013*
X11815Y10011*
X1183*
Y10026*
G37*
G36*
X12007Y09974D02*
X1199D01*
Y09953*
X12007*
Y09974*
G37*
G36*
X11335Y09984D02*
X11333Y09983D01*
X11331Y09983*
X11329Y09982*
X11327Y0998*
X11325Y09979*
X11323Y09977*
X11322Y09975*
X11321Y09973*
X1132Y09971*
X1132Y09969*
X11335*
Y09984*
G37*
G36*
X1183Y10006D02*
X11815D01*
X11815Y10004*
X11816Y10002*
X11817Y1*
X11819Y09998*
X1182Y09996*
X11822Y09994*
X11824Y09993*
X11826Y09992*
X11828Y09991*
X1183Y09991*
Y10006*
G37*
G36*
X11444Y10061D02*
X11427D01*
Y1004*
X11444*
Y10061*
G37*
G36*
X11467D02*
X1145D01*
Y1004*
X11467*
Y10061*
G37*
G36*
X11696Y10056D02*
X11683D01*
Y10041*
X11696*
Y10056*
G37*
G36*
X11836Y10026D02*
Y10011D01*
X1185*
X1185Y10013*
X11849Y10015*
X11848Y10017*
X11847Y10019*
X11845Y10021*
X11843Y10023*
X11842Y10024*
X11839Y10025*
X11837Y10026*
X11836Y10026*
G37*
G36*
X11848Y10163D02*
X11834D01*
Y10148*
X11835Y10149*
X11837Y1015*
X1184Y10151*
X11841Y10152*
X11843Y10153*
X11845Y10155*
X11846Y10157*
X11847Y10159*
X11848Y10161*
X11848Y10163*
G37*
G36*
X11358Y10131D02*
X11295D01*
Y10095*
X11358*
Y10099*
X11364Y10101*
X11372Y10093*
X1137Y10087*
X11368*
Y1004*
X11407*
Y10087*
X114*
Y10094*
X11399Y10096*
X11399Y10098*
X11399Y10099*
X11398Y10099*
X11398Y101*
X11397Y10101*
X11396Y10102*
X11373Y10126*
X11371Y10127*
X1137Y10128*
X11369Y10129*
X11368Y10129*
X11366Y10129*
X11366Y10129*
X11364Y1013*
X11358*
Y10131*
G37*
%LNsmarttokens-3*%
%LPD*%
G54D10*
X1161Y10198D03*
Y10332D03*
G54D11*
X1157Y10068D03*
X1153D03*
X11467Y09717D03*
X11507D03*
X11926Y09875D03*
X11966D03*
X11926Y09906D03*
X11966D03*
Y10016D03*
X11926D03*
X11966Y10048D03*
X11926D03*
Y09938D03*
X11966D03*
X11336Y09788D03*
X11375D03*
X11741Y09958D03*
X11702D03*
Y09893D03*
X11741D03*
X11702Y09926D03*
X11741D03*
X11609Y10036D03*
X11649D03*
X11527D03*
X11566D03*
X11645Y10068D03*
X11605D03*
X11571Y101D03*
X1161D03*
X11551Y09571D03*
X11512D03*
Y09685D03*
X11551D03*
X11512Y09615D03*
X11551D03*
Y09647D03*
X11512D03*
X11776Y09621D03*
X11815D03*
G54D12*
X11264Y10058D03*
Y10117D03*
G54D13*
X11719Y0979D03*
Y09751D03*
X11373Y09935D03*
Y09895D03*
X11699Y10038D03*
Y09999D03*
X11788Y09728D03*
Y09767D03*
X11821Y09728D03*
Y09767D03*
X11853Y09728D03*
Y09767D03*
X11886Y09728D03*
Y09767D03*
G54D14*
X11388Y10064D03*
X11447D03*
X11987Y09977D03*
X11928D03*
X11375Y09748D03*
X11316D03*
G54D15*
X11656Y09788D03*
Y09808D03*
Y09827D03*
Y09847D03*
Y09867D03*
Y09886D03*
Y09906D03*
Y09926D03*
Y09945D03*
Y09965D03*
X1142D03*
Y09945D03*
Y09926D03*
Y09906D03*
Y09886D03*
Y09867D03*
Y09847D03*
Y09827D03*
Y09808D03*
Y09788D03*
G54D16*
X11627Y09995D03*
X11607D03*
X11588D03*
X11568D03*
X11548D03*
X11529D03*
X11509D03*
X11489D03*
X11469D03*
X1145D03*
Y09758D03*
X11469D03*
X11489D03*
X11509D03*
X11529D03*
X11548D03*
X11568D03*
X11588D03*
X11607D03*
X11627D03*
G54D17*
X11538Y09877D03*
G54D18*
X11307Y10113D03*
X11327D03*
X11346D03*
Y10062D03*
X11327D03*
X11307D03*
G54D19*
X11739Y09622D03*
Y09639D03*
Y09657D03*
Y09675D03*
Y09693D03*
X11623D03*
Y09675D03*
Y09657D03*
Y09639D03*
Y09622D03*
G54D20*
X11717Y09715D03*
X11699D03*
X11681D03*
X11663D03*
X11646D03*
Y09599D03*
X11663D03*
X11681D03*
X11699D03*
X11717D03*
G54D21*
X11681Y09657D03*
G54D22*
X11793Y10056D03*
X11813D03*
X11833D03*
X11852D03*
X11872D03*
Y09961D03*
X11852D03*
X11833D03*
X11813D03*
X11793D03*
G54D23*
X1188Y10028D03*
Y10008D03*
Y09989D03*
X11785D03*
Y10008D03*
Y10028D03*
G54D24*
X11791Y09843D03*
X11878D03*
Y09906D03*
X11791D03*
G54D25*
X11822Y101D02*
X11833Y10089D01*
Y10056D02*
Y10089D01*
X11852D02*
X11863Y101D01*
X11852Y10056D02*
Y10089D01*
X1178Y09855D02*
X11791Y09843D01*
X11751Y09867D02*
X11759Y09875D01*
X1167Y09847D02*
X11678D01*
X11759Y09875D02*
X11808D01*
X11826D02*
X11857Y09906D01*
X11878*
X11808Y09875D02*
X11826D01*
X11842D02*
X11925D01*
X11811Y09843D02*
X11842Y09875D01*
X11791Y09843D02*
X11811D01*
X11925Y09875D02*
D01*
X1167Y09847D02*
D01*
X11653Y09867D02*
D01*
Y09847D02*
X1167D01*
X11568Y09977D02*
X11575Y0997D01*
X116*
X11607Y09977*
Y09995*
X11695Y09933D02*
X11702Y09926D01*
X11653D02*
X11695D01*
X11656Y09886D02*
X11702D01*
X11656D02*
D01*
X1167Y09965D02*
X117Y09995D01*
X11653Y09965D02*
X1167D01*
X11653Y09867D02*
X11656D01*
X11741Y09893D02*
Y09926D01*
X11653Y09945D02*
X11672D01*
X11685Y09958*
X11702*
X11919Y10055D02*
X11926Y10048D01*
X11873Y10055D02*
X11919D01*
X1188Y10028D02*
X11897D01*
X11908Y10016*
X11926*
X1188Y10008D02*
Y10028D01*
X11928Y09977D02*
Y10014D01*
X11926Y10016D02*
X11928Y10014D01*
X11913Y09938D02*
X11926D01*
X11901Y0995D02*
X11913Y09938D01*
X11901Y0995D02*
Y09984D01*
X11896Y09989D02*
X11901Y09984D01*
X1188Y09989D02*
X11896D01*
X1173Y09982D02*
Y09999D01*
X11692Y09958D02*
X11711Y09977D01*
X11725*
X1173Y09982*
X11785Y09989D02*
X11791Y09983D01*
Y09963D02*
Y09983D01*
Y09963D02*
X11793Y09961D01*
X11813*
X11833*
X11852*
X11872*
X11926Y10016D02*
Y10048D01*
X11588Y1005D02*
X11605Y10068D01*
X11588Y09995D02*
Y1005D01*
X1157Y10068D02*
X11588Y1005D01*
X11566Y10036D02*
X11568Y10034D01*
Y09977D02*
Y10034D01*
X11607Y09995D02*
Y10034D01*
X11609Y10036*
X11641Y10068*
X11645*
X1153D02*
Y10087D01*
X11543Y101*
X11571*
X11403Y09945D02*
X1142D01*
X11297Y09808D02*
X1142D01*
X11237Y09868D02*
X11297Y09808D01*
X11287Y09868D02*
X11327Y09827D01*
X1142*
X11387Y09886D02*
X1142D01*
X11379Y09894D02*
X11387Y09886D01*
X11287Y09966D02*
Y09968D01*
Y09966D02*
X11333Y0992D01*
X11349Y09847D02*
X1142D01*
X11287Y0991D02*
Y09918D01*
Y0991D02*
X11349Y09847D01*
X11333Y09882D02*
Y0992D01*
Y09882D02*
X11347Y09867D01*
X1142*
X11678Y09847D02*
X11686Y09855D01*
X11656Y09867D02*
X11751D01*
X11686Y09855D02*
X1178D01*
X11656Y09827D02*
X11701D01*
X11346Y10047D02*
Y10062D01*
X11341Y10041D02*
X11346Y10047D01*
X11307D02*
Y10062D01*
X11507Y09717D02*
X11529Y09739D01*
Y09758*
X11585Y09717D02*
Y09732D01*
X11588Y09735*
Y09758*
X11545Y09717D02*
Y09732D01*
X11548Y09735*
Y09758*
X11592Y09685D02*
X11602Y09675D01*
X11623*
X11603Y09657D02*
X11623D01*
X11603Y09639D02*
X11623D01*
X11585Y09645D02*
X11597D01*
X11603Y09639*
X11551Y09645D02*
X11585D01*
X11712Y09743D02*
X11719Y09751D01*
X11635Y09765D02*
X11682D01*
X11635D02*
D01*
X11627Y09758D02*
Y09765D01*
X11551Y09685D02*
X11592D01*
X11601Y09694*
Y09703*
X11627Y09729*
Y09758*
Y09765D02*
X11635D01*
X11595Y09666D02*
X11603Y09657D01*
X11576Y09666D02*
X11595D01*
X11576D02*
D01*
X11512Y09615D02*
Y09647D01*
X11585Y09614D02*
X11597D01*
X11605Y09622*
X11623*
X11552Y09614D02*
X11585D01*
X11551Y09615D02*
X11552Y09614D01*
X11681Y09657D02*
Y09715D01*
X11646Y09693D02*
X11681Y09657D01*
X11623Y09693D02*
X11646D01*
X11741Y09926D02*
Y09958D01*
Y09926D02*
D01*
X11779Y09893D02*
X11791Y09906D01*
X11741Y09893D02*
X11779D01*
X11719Y09751D02*
X11751D01*
X1184Y09621D02*
X11885Y09666D01*
X11815Y09621D02*
X1184D01*
X1174D02*
X11776D01*
X11739Y09622D02*
X1174Y09621D01*
X11739Y09639D02*
D01*
X11801Y09657D02*
X11853Y09709D01*
Y09728*
X11739Y09657D02*
X11801D01*
X11739Y09675D02*
X11786D01*
X11821Y09709*
Y09728*
X11739Y09639D02*
X11816D01*
X11886Y09709*
Y09728*
X11739Y09693D02*
X11772D01*
X11788Y09709*
Y09728*
X11853Y09767D02*
Y09799D01*
X11886Y09767D02*
Y09799D01*
D01*
X11532Y09666D02*
X11576D01*
X11663Y09581D02*
Y09599D01*
X11512Y09647D02*
Y09685D01*
Y09687*
X11532Y09666*
X11307Y10047D02*
X11313Y10041D01*
X11341*
X11287Y10018D02*
X1133D01*
X11403Y09945*
X11878Y09906D02*
X11926D01*
X11878D02*
D01*
X11719Y0979D02*
Y09817D01*
X11734Y09831*
X11751Y09751D02*
X11752Y0975D01*
X11821Y09767D02*
Y09799D01*
X11551Y09571D02*
Y09572D01*
X11654D02*
X11663Y09581D01*
X11551Y09572D02*
X11654D01*
X11788Y09767D02*
Y09799D01*
X11512Y09685D02*
D01*
X11476D02*
X11512D01*
X11649Y1001D02*
Y10036D01*
Y1001D02*
X11659Y1D01*
X11675Y10015*
Y10038*
X11699*
X11487Y09571D02*
X11512D01*
X11333Y09666D02*
X11393D01*
X11487Y09571*
G54D26*
X1161Y101D02*
Y10198D01*
Y101D02*
D01*
G54D27*
X11346Y10113D02*
X11351Y10118D01*
X11237Y10031D02*
X11264Y10058D01*
X11237Y10018D02*
Y10031D01*
X11264Y10058D02*
X11303D01*
X11307Y10062*
X11364Y10118D02*
X11388Y10094D01*
X11351Y10118D02*
X11364D01*
X11388Y10064D02*
Y10094D01*
G54D28*
X11375Y09788D02*
X1142D01*
X11375D02*
D01*
Y09748D02*
Y09788D01*
X11663Y09715D02*
Y09733D01*
X11673Y09743*
X11712*
X1173Y09999D02*
Y10016D01*
X1177Y10056*
X11793*
Y10102*
X11813Y10122*
X11872*
X11926Y10068*
Y10048D02*
Y10068D01*
G54D29*
X11287Y09868D03*
X11237Y10018D03*
Y09968D03*
Y09868D03*
X11287Y10018D03*
Y09968D03*
Y09918D03*
X11237Y09818D03*
G54D30*
X11237Y09918D03*
G54D31*
X11333Y10217D03*
Y09666D03*
X11609Y09551D03*
X11885Y10217D03*
Y09666D03*
X11947Y09746D03*
X11822Y101D03*
X11863D03*
X1173Y09999D03*
X11375Y09748D03*
X11701Y09827D03*
X11585Y09645D03*
Y09717D03*
X11545D03*
X11682Y09765D03*
X11585Y09614D03*
X11833Y10008D03*
X11264Y10117D03*
X11338Y09966D03*
X11538Y09873D03*
X11316Y09748D03*
X11681Y09657D03*
X11791Y09906D03*
X11853Y09799D03*
X11886D03*
X11945Y09837D03*
X11447Y10064D03*
X11734Y09831D03*
X11752Y0975D03*
X11821Y09799D03*
X11788D03*
X11476Y09685D03*
X11659Y1D03*
X11764Y10099D03*
X11831Y10166D03*
X11948Y10118D03*
X11479Y09932D03*
X11597D03*
X11538D03*
X11597Y09873D03*
Y09814D03*
X11538D03*
X11479D03*
Y09873D03*
X11421Y09731D03*
X11388Y10064D03*
M02*