%FSTAX23Y23*%
%MOMM*%
%SFA1B1*%

%IPPOS*%
%ADD26C,0.150000*%
%ADD30C,0.899998*%
%ADD31C,0.599999*%
%ADD32C,0.799998*%
%ADD33R,0.899998X0.899998*%
%ADD57C,0.127000*%
%LNsmarttokens-1*%
%LPD*%
G54D57*
X304189Y257787D02*
X304328Y257532D01*
X30446Y257275*
X304585Y257014*
X304703Y256749*
X304814Y256482*
X304918Y256212*
X305014Y255939*
X305102Y255663*
X305184Y255385*
X305257Y255106*
X305323Y254824*
X305381Y25454*
X305432Y254255*
X305475Y253969*
X30551Y253682*
X305538Y253394*
X305557Y253105*
X305569Y252816*
X305573Y252535*
X305572Y252528*
X305573Y252521*
X305569Y252237*
X305557Y251948*
X305537Y251659*
X30551Y251371*
X305475Y251084*
X305432Y250797*
X305381Y250513*
X305323Y250229*
X305257Y249947*
X305183Y249668*
X305102Y24939*
X305013Y249114*
X304917Y248841*
X304813Y248571*
X304703Y248304*
X304585Y248039*
X30446Y247778*
X304328Y247521*
X304189Y247267*
X304043Y247017*
X30389Y246771*
X303731Y246529*
X303599Y246341*
X303225*
X3032Y246379*
X303149Y246446*
X303092Y246508*
X30303Y246565*
X302963Y246616*
X302892Y246662*
X302818Y2467*
X30274Y246733*
X30266Y246758*
X302578Y246776*
X302494Y246787*
X30241Y246791*
X302326Y246787*
X302243Y246776*
X302255Y246779*
X302197Y246836*
X302208Y246891*
X301165*
X301189Y246769*
X301211Y246705*
X301241Y246645*
X301278Y246589*
X301322Y246538*
X301373Y246494*
X301429Y246457*
X301489Y246427*
X301553Y246405*
X301555Y246405*
X301553Y246409*
X301508Y246341*
X299323*
Y245766*
X295575*
Y247191*
X294214*
X2942Y247239*
X294196Y247295*
X294183Y24736*
X294162Y247424*
X294132Y247485*
X294095Y247541*
X29405Y247591*
X293999Y247636*
X293944Y247673*
X293883Y247703*
X293819Y247724*
X293754Y247737*
X293686Y247742*
X293619Y247737*
X293553Y247724*
X293489Y247703*
X293429Y247673*
X293373Y247636*
X293322Y247591*
X293278Y247541*
X293241Y247485*
X293211Y247424*
X293189Y24736*
X293176Y247295*
X293172Y247227*
X293176Y24716*
X293172Y24718*
X293148Y24715*
Y24636*
X293079Y246291*
X292073*
Y245699*
X292059Y245683*
X292008Y245655*
X292019Y245648*
X291958Y245678*
X291894Y245699*
X291773Y245724*
Y245202*
Y244681*
X291894Y244705*
X291958Y244727*
X292019Y244757*
X292008Y244749*
X292059Y244722*
X292073Y244706*
Y244641*
X289988*
X286573Y248056*
X286104Y248666*
X286103Y248623*
X286144Y24866*
X286203Y248725*
X286257Y248795*
X286305Y24887*
X286346Y248949*
X28638Y24903*
X286406Y249115*
X286425Y249201*
X286437Y249289*
X286441Y249377*
X286437Y249466*
X286425Y249553*
X286406Y24964*
X28638Y249724*
X286346Y249806*
X286305Y249885*
X286257Y249959*
X286203Y250029*
X286144Y250095*
X286078Y250154*
X286008Y250208*
X286012Y250206*
X285993Y2503*
X285989Y250294*
X286025Y250359*
X286029Y250368*
X286094*
X286098Y250359*
X286134Y250294*
X286177Y250233*
X286226Y250177*
X286282Y250128*
X286343Y250085*
X286408Y250049*
X286477Y25002*
X286548Y249999*
X286622Y249987*
X286696Y249983*
X286771Y249987*
X286844Y249999*
X286916Y25002*
X286985Y250049*
X28705Y250085*
X287111Y250128*
X287166Y250177*
X287216Y250233*
X287259Y250294*
X287295Y250359*
X287324Y250428*
X287344Y250499*
X287357Y250573*
X287361Y250647*
X287357Y250722*
X287344Y250795*
X287324Y250867*
X287324Y250866*
X287345Y250887*
X287438Y250919*
X287469Y250913*
X287466Y25092*
X287503Y250864*
X287547Y250813*
X287598Y250769*
X287654Y250732*
X287714Y250702*
X287778Y25068*
X287844Y250667*
X287911Y250663*
X287979Y250667*
X288044Y25068*
X288108Y250702*
X288169Y250732*
X288225Y250769*
X288275Y250813*
X28832Y250864*
X288336Y250888*
X288739*
X288782Y250891*
X288826Y250902*
X288868Y250919*
X288906Y250943*
X288939Y250971*
X289293Y251325*
X28932Y251357*
X289344Y251396*
X289354Y25142*
X289362Y251438*
X289372Y251482*
X289375Y251525*
Y25618*
X289372Y256223*
X289362Y256267*
X289344Y256309*
X28932Y256347*
X289293Y25638*
X288716Y256957*
X288721Y256985*
X288726Y257052*
X288721Y25712*
X288708Y257185*
X288687Y257249*
X288657Y25731*
X28862Y257366*
X28861Y257376*
X288601Y257356*
X288673Y257438*
X290222*
X290291Y257369*
X29029Y256839*
X290891*
X294284Y253446*
X294316Y253418*
X294355Y253394*
X294397Y253377*
X294441Y253366*
X294484Y253363*
X299617*
X300232Y252748*
X300226Y25272*
X300222Y252652*
X300226Y252585*
X30024Y252519*
X300261Y252455*
X300291Y252395*
X300328Y252339*
X300373Y252288*
X300423Y252244*
X300479Y252207*
X30054Y252177*
X300603Y252155*
X300669Y252142*
X300737Y252138*
X300804Y252142*
X30087Y252155*
X300934Y252177*
X300994Y252207*
X30105Y252244*
X301101Y252288*
X301145Y252339*
X301182Y252395*
X301212Y252455*
X301234Y252519*
X301247Y252585*
X301251Y252652*
X301247Y252719*
X301234Y252785*
X301212Y252849*
X301182Y25291*
X301145Y252965*
X301101Y253016*
X30105Y253061*
X300994Y253098*
X300934Y253128*
X30087Y253149*
X300804Y253162*
X300737Y253167*
X300669Y253162*
X300641Y253157*
X299939Y253859*
X299907Y253886*
X299868Y25391*
X299826Y253927*
X299782Y253938*
X299739Y253941*
X294606*
X291769Y256779*
X291794Y256839*
X295294*
Y257989*
X29624*
X296256Y257975*
X296283Y257924*
X296291Y257935*
X296261Y257874*
X296239Y25781*
X296215Y257689*
X297258*
X297233Y25781*
X297212Y257874*
X297182Y257935*
X297189Y257924*
X297217Y257975*
X297233Y257989*
X304071*
X304189Y257786*
X289966Y244703D02*
X291744D01*
X291922D02*
X292049D01*
X289864Y244805D02*
X291744D01*
X289763Y244906D02*
X291744D01*
X289661Y245008D02*
X291744D01*
X289559Y245109D02*
X291744D01*
X289458Y245211D02*
X291744D01*
X289356Y245313D02*
X291744D01*
X289255Y245414D02*
X291744D01*
X289153Y245516D02*
X291744D01*
X289051Y245617D02*
X291744D01*
X28895Y245719D02*
X292049D01*
X288848Y245821D02*
X292049D01*
X295605D02*
X299288D01*
X288747Y245922D02*
X292049D01*
X295605D02*
X299288D01*
X288645Y246024D02*
X292049D01*
X295605D02*
X299288D01*
X288543Y246125D02*
X292049D01*
X295605D02*
X299288D01*
X288442Y246227D02*
X292049D01*
X295605D02*
X299288D01*
X28834Y246329D02*
X29309D01*
X295605D02*
X301472D01*
X30325D02*
X30358D01*
X288239Y24643D02*
X293115D01*
X295605D02*
X301472D01*
X303199D02*
X303656D01*
X288137Y246532D02*
X293115D01*
X295605D02*
X301294D01*
X303098D02*
X303707D01*
X288035Y246633D02*
X293115D01*
X295605D02*
X301218D01*
X302971D02*
X303783D01*
X287934Y246735D02*
X293115D01*
X295605D02*
X301193D01*
X302767D02*
X30386D01*
X287832Y246837D02*
X293115D01*
X295605D02*
X301167D01*
X302234D02*
X30391D01*
X287731Y246938D02*
X293115D01*
X295605D02*
X303987D01*
X287629Y24704D02*
X293115D01*
X295605D02*
X304037D01*
X287527Y247141D02*
X293115D01*
X295605D02*
X304088D01*
X287426Y247243D02*
X293141D01*
X294233D02*
X304164D01*
X287324Y247345D02*
X293166D01*
X294233D02*
X304215D01*
X287223Y247446D02*
X293217D01*
X294182D02*
X304266D01*
X287121Y247548D02*
X293242D01*
X294131D02*
X304317D01*
X287019Y247649D02*
X293369D01*
X294004D02*
X304368D01*
X286918Y247751D02*
X304444D01*
X286816Y247853D02*
X304495D01*
X286715Y247954D02*
X304545D01*
X286588Y248056D02*
X304596D01*
X286511Y248157D02*
X304622D01*
X286435Y248259D02*
X304672D01*
X286359Y248361D02*
X304698D01*
X286283Y248462D02*
X304749D01*
X286207Y248564D02*
X304799D01*
X286181Y248665D02*
X30485D01*
X286283Y248767D02*
X304876D01*
X286334Y248869D02*
X304926D01*
X286384Y24897D02*
X304952D01*
X286435Y249072D02*
X304977D01*
X286461Y249173D02*
X305003D01*
X286461Y249275D02*
X305053D01*
X286461Y249377D02*
X305079D01*
X286461Y249478D02*
X305104D01*
X286461Y24958D02*
X305155D01*
X286435Y249681D02*
X30518D01*
X286384Y249783D02*
X305206D01*
X286334Y249885D02*
X305231D01*
X286283Y249986D02*
X286588D01*
X286791D02*
X305257D01*
X286181Y250088D02*
X286308D01*
X28707D02*
X305282D01*
X28608Y250189D02*
X286207D01*
X287197D02*
X305307D01*
X286003Y250291D02*
X286105D01*
X287273D02*
X305333D01*
X28735Y250393D02*
X305358D01*
X287375Y250494D02*
X305358D01*
X287375Y250596D02*
X305384D01*
X287375Y250697D02*
X28768D01*
X288137D02*
X305409D01*
X287375Y250799D02*
X287553D01*
X288264D02*
X305409D01*
X287426Y250901D02*
X287477D01*
X288848D02*
X305434D01*
X289001Y251002D02*
X30546D01*
X289102Y251104D02*
X305485D01*
X289204Y251205D02*
X305485D01*
X289305Y251307D02*
X305485D01*
X289382Y251409D02*
X305511D01*
X289407Y25151D02*
X305511D01*
X289407Y251612D02*
X305511D01*
X289407Y251713D02*
X305561D01*
X289407Y251815D02*
X305561D01*
X289407Y251917D02*
X305561D01*
X289407Y252018D02*
X305561D01*
X289407Y25212D02*
X305561D01*
X289407Y252221D02*
X300431D01*
X30104D02*
X305561D01*
X289407Y252323D02*
X300329D01*
X301142D02*
X305561D01*
X289407Y252425D02*
X300253D01*
X301243D02*
X305561D01*
X289407Y252526D02*
X300202D01*
X301269D02*
X305561D01*
X289407Y252628D02*
X300202D01*
X301269D02*
X305561D01*
X289407Y252729D02*
X300202D01*
X301269D02*
X305561D01*
X289407Y252831D02*
X300126D01*
X301269D02*
X305561D01*
X289407Y252933D02*
X300024D01*
X301193D02*
X305561D01*
X289407Y253034D02*
X299923D01*
X301091D02*
X305561D01*
X289407Y253136D02*
X299821D01*
X300964D02*
X305561D01*
X289407Y253237D02*
X299719D01*
X300583D02*
X305561D01*
X289407Y253339D02*
X299618D01*
X300481D02*
X305561D01*
X289407Y253441D02*
X294258D01*
X30038D02*
X305511D01*
X289407Y253542D02*
X294157D01*
X300278D02*
X305511D01*
X289407Y253644D02*
X294055D01*
X300177D02*
X305511D01*
X289407Y253745D02*
X293954D01*
X300075D02*
X305485D01*
X289407Y253847D02*
X293852D01*
X299973D02*
X305485D01*
X289407Y253949D02*
X29375D01*
X294639D02*
X305485D01*
X289407Y25405D02*
X293649D01*
X294538D02*
X30546D01*
X289407Y254152D02*
X293547D01*
X294436D02*
X305434D01*
X289407Y254253D02*
X293446D01*
X294335D02*
X305409D01*
X289407Y254355D02*
X293344D01*
X294233D02*
X305409D01*
X289407Y254457D02*
X293242D01*
X294131D02*
X305384D01*
X289407Y254558D02*
X293141D01*
X29403D02*
X305358D01*
X289407Y25466D02*
X293039D01*
X293928D02*
X305358D01*
X289407Y254761D02*
X292938D01*
X293827D02*
X305333D01*
X289407Y254863D02*
X292836D01*
X293725D02*
X305307D01*
X289407Y254965D02*
X292734D01*
X293623D02*
X305282D01*
X289407Y255066D02*
X292633D01*
X293522D02*
X305257D01*
X289407Y255168D02*
X292531D01*
X29342D02*
X305231D01*
X289407Y255269D02*
X29243D01*
X293319D02*
X305206D01*
X289407Y255371D02*
X292328D01*
X293217D02*
X30518D01*
X289407Y255473D02*
X292226D01*
X293115D02*
X305155D01*
X289407Y255574D02*
X292125D01*
X293014D02*
X30513D01*
X289407Y255676D02*
X292023D01*
X292912D02*
X305079D01*
X289407Y255777D02*
X291922D01*
X292811D02*
X305053D01*
X289407Y255879D02*
X29182D01*
X292709D02*
X305003D01*
X289407Y255981D02*
X291718D01*
X292607D02*
X304977D01*
X289407Y256082D02*
X291617D01*
X292506D02*
X304952D01*
X289407Y256184D02*
X291515D01*
X292404D02*
X304926D01*
X289382Y256285D02*
X291414D01*
X292303D02*
X304876D01*
X289305Y256387D02*
X291312D01*
X292201D02*
X30485D01*
X289204Y256489D02*
X29121D01*
X292099D02*
X304799D01*
X289102Y25659D02*
X291109D01*
X291998D02*
X304749D01*
X289001Y256692D02*
X291007D01*
X291896D02*
X304698D01*
X288899Y256793D02*
X290906D01*
X29182D02*
X304672D01*
X288797Y256895D02*
X290271D01*
X295325D02*
X304622D01*
X288747Y256997D02*
X290271D01*
X295325D02*
X304596D01*
X288747Y257098D02*
X290271D01*
X295325D02*
X304545D01*
X288721Y2572D02*
X290271D01*
X295325D02*
X304495D01*
X28867Y257301D02*
X290271D01*
X295325D02*
X304444D01*
X28867Y257403D02*
X290245D01*
X295325D02*
X304368D01*
X295325Y257505D02*
X304317D01*
X295325Y257606D02*
X304266D01*
X295325Y257708D02*
X296214D01*
X297281D02*
X304215D01*
X295325Y257809D02*
X296214D01*
X297256D02*
X304164D01*
X295325Y257911D02*
X296265D01*
X29723D02*
X304088D01*
X291641Y262636D02*
Y259716D01*
X290292*
X290291Y258016*
X287959*
X287916Y258013*
X287872Y258002*
X28783Y257985*
X287791Y257961*
X287775Y257948*
X287759Y257934*
X28733Y257505*
X287302Y257472*
X287278Y257434*
X287261Y257392*
X28725Y257348*
X287247Y257305*
Y254922*
X287188Y254903*
X287166Y254927*
X287111Y254977*
X28705Y25502*
X286985Y255056*
X286916Y255085*
X286844Y255105*
X286771Y255118*
X286696Y255122*
X286622Y255118*
X286548Y255105*
X286477Y255085*
X286408Y255056*
X286343Y25502*
X286282Y254977*
X286226Y254927*
X286177Y254872*
X286134Y254811*
X28614Y254822*
X28609Y254835*
Y255121*
X285438*
Y254521*
X285363*
Y254446*
X284763*
Y253794*
X285049*
X285062Y253744*
X285073Y25375*
X285012Y253707*
X284956Y253657*
X284907Y253602*
X284864Y253541*
X284828Y253476*
X284799Y253407*
X284778Y253335*
X284766Y253262*
X284762Y253187*
X284766Y253113*
X284778Y253039*
X284799Y252968*
X284828Y252899*
X284864Y252834*
X284907Y252773*
X284956Y252717*
X285012Y252668*
X285073Y252625*
X285138Y252589*
X285147Y252585*
Y25252*
X285138Y252516*
X285073Y25248*
X285012Y252437*
X284956Y252387*
X284907Y252332*
X284864Y252271*
X284828Y252206*
X284799Y252137*
X284778Y252065*
X284766Y251992*
X284762Y251917*
X284766Y251843*
X284778Y251769*
X284799Y251698*
X284828Y251629*
X284864Y251564*
X284907Y251503*
X284956Y251447*
X285012Y251398*
X285073Y251355*
X285138Y251319*
X285147Y251315*
Y25125*
X285138Y251246*
X285073Y25121*
X285012Y251167*
X284956Y251117*
X284907Y251062*
X284864Y251001*
X284828Y250936*
X284799Y250867*
X284778Y250795*
X284766Y250722*
X284762Y250647*
X284766Y250573*
X284778Y250499*
X284799Y250428*
X284828Y250359*
X284864Y250294*
X284859Y2503*
X284841Y250206*
X284774Y250154*
X284709Y250095*
X284649Y250029*
X284595Y249959*
X284582Y249938*
X284574Y249939*
X28451Y249973*
X284516Y249948*
X28445Y250231*
X284391Y250514*
X28434Y250799*
X284297Y251086*
X284262Y251373*
X284235Y251661*
X284215Y25195*
X284204Y252239*
X2842Y252528*
X284204Y252818*
X284216Y253107*
X284235Y253395*
X284263Y253684*
X284298Y253971*
X284341Y254257*
X284391Y254542*
X28445Y254825*
X284516Y255107*
X28459Y255387*
X284671Y255665*
X284759Y25594*
X284856Y256213*
X284959Y256484*
X28507Y256751*
X285188Y257015*
X285313Y257276*
X285445Y257534*
X285584Y257787*
X28573Y258037*
X285882Y258283*
X286042Y258525*
X286207Y258762*
X286379Y258995*
X286558Y259223*
X286742Y259446*
X286932Y259664*
X287128Y259877*
X28733Y260084*
X287538Y260286*
X287751Y260482*
X287969Y260673*
X288192Y260857*
X28842Y261035*
X288653Y261207*
X28889Y261373*
X289132Y261532*
X289378Y261685*
X289628Y26183*
X289881Y261969*
X290139Y262101*
X2904Y262226*
X290664Y262344*
X290932Y262455*
X291202Y262559*
X291475Y262655*
X291573Y262686*
X291641Y262636*
X284251Y251409D02*
Y253695D01*
X284352Y250824D02*
Y254253D01*
X284454Y250266D02*
Y254838D01*
X284556Y249986D02*
Y255295D01*
X284657Y250088D02*
Y2556D01*
X284759Y250189D02*
Y250545D01*
Y250774D02*
Y251815D01*
Y252044D02*
Y253085D01*
Y253314D02*
Y253771D01*
Y254482D02*
Y25593D01*
X28486Y251053D02*
Y251536D01*
Y252323D02*
Y252806D01*
Y253593D02*
Y253771D01*
Y254482D02*
Y256209D01*
X284962Y25118D02*
Y251434D01*
Y25245D02*
Y252704D01*
Y25372D02*
Y253771D01*
Y254482D02*
Y256489D01*
X285064Y251256D02*
Y251332D01*
Y252526D02*
Y252602D01*
Y254482D02*
Y256743D01*
X285165Y254482D02*
Y256946D01*
X285267Y254482D02*
Y257174D01*
X285368Y254558D02*
Y257378D01*
X28547Y255142D02*
Y257581D01*
X285572Y255142D02*
Y257784D01*
X285673Y255142D02*
Y257936D01*
X285775Y255142D02*
Y258114D01*
X285876Y255142D02*
Y258292D01*
X285978Y255142D02*
Y258419D01*
X28608Y254863D02*
Y258546D01*
X286181Y254914D02*
Y258724D01*
X286283Y255015D02*
Y258851D01*
X286384Y255092D02*
Y259003D01*
X286486Y255142D02*
Y25913D01*
X286588Y255142D02*
Y259257D01*
X286689Y255142D02*
Y259359D01*
X286791Y255142D02*
Y259486D01*
X286892Y255142D02*
Y259587D01*
X286994Y255092D02*
Y259714D01*
X287096Y255015D02*
Y259816D01*
X287197Y254939D02*
Y259943D01*
X287299Y25753D02*
Y260045D01*
X2874Y257632D02*
Y260172D01*
X287502Y257733D02*
Y260273D01*
X287604Y257835D02*
Y260349D01*
X287705Y257936D02*
Y260426D01*
X287807Y258013D02*
Y260527D01*
X287908Y258038D02*
Y260629D01*
X28801Y258038D02*
Y260705D01*
X288112Y258038D02*
Y260781D01*
X288213Y258038D02*
Y260857D01*
X288315Y258038D02*
Y260934D01*
X288416Y258038D02*
Y261035D01*
X288518Y258038D02*
Y261111D01*
X28862Y258038D02*
Y261188D01*
X288721Y258038D02*
Y261238D01*
X288823Y258038D02*
Y261315D01*
X288924Y258038D02*
Y261365D01*
X289026Y258038D02*
Y261442D01*
X289128Y258038D02*
Y261543D01*
X289229Y258038D02*
Y261594D01*
X289331Y258038D02*
Y261645D01*
X289432Y258038D02*
Y261721D01*
X289534Y258038D02*
Y261772D01*
X289636Y258038D02*
Y261823D01*
X289737Y258038D02*
Y261873D01*
X289839Y258038D02*
Y261924D01*
X28994Y258038D02*
Y262D01*
X290042Y258038D02*
Y262051D01*
X290144Y258038D02*
Y262102D01*
X290245Y258038D02*
Y262153D01*
X290347Y25974D02*
Y262204D01*
X290448Y25974D02*
Y262254D01*
X29055Y25974D02*
Y262305D01*
X290652Y25974D02*
Y262356D01*
X290753Y25974D02*
Y262381D01*
X290855Y25974D02*
Y262407D01*
X290956Y25974D02*
Y262458D01*
X291058Y25974D02*
Y262483D01*
X29116Y25974D02*
Y262534D01*
X291261Y25974D02*
Y262559D01*
X291363Y25974D02*
Y26261D01*
X291464Y25974D02*
Y262686D01*
X291566Y25974D02*
Y262686D01*
%LNsmarttokens-2*%
%LPC*%
G36*
X296036Y249453D02*
X295977Y249449D01*
X29592Y249438*
X295864Y249419*
X295811Y249393*
X295762Y24936*
X295717Y249321*
X295679Y249277*
X295646Y249228*
X29562Y249175*
X295601Y249119*
X295589Y249061*
X295585Y249002*
X295589Y248943*
X295601Y248885*
X29562Y248829*
X295646Y248777*
X295679Y248728*
X295717Y248683*
X295762Y248644*
X295811Y248612*
X295864Y248585*
X29592Y248566*
X295977Y248555*
X296036Y248551*
X296095Y248555*
X296153Y248566*
X296209Y248585*
X296262Y248612*
X296311Y248644*
X296355Y248683*
X296394Y248728*
X296427Y248777*
X296453Y248829*
X296472Y248885*
X296483Y248943*
X296487Y249002*
X296483Y249061*
X296472Y249119*
X296453Y249175*
X296427Y249228*
X296394Y249277*
X296355Y249321*
X296311Y24936*
X296262Y249393*
X296209Y249419*
X296153Y249438*
X296095Y249449*
X296036Y249453*
G37*
G36*
X290355Y248827D02*
X289986D01*
Y248458*
X290028Y248467*
X290084Y248486*
X290137Y248512*
X290186Y248544*
X29023Y248583*
X290269Y248628*
X290302Y248677*
X290328Y24873*
X290347Y248786*
X290355Y248827*
G37*
G36*
X287236Y248971D02*
Y248602D01*
X287605*
X287597Y248644*
X287578Y2487*
X287552Y248753*
X287519Y248802*
X28748Y248846*
X287436Y248885*
X287387Y248918*
X287334Y248944*
X287278Y248963*
X287236Y248971*
G37*
G36*
X287086D02*
X287045Y248963D01*
X286989Y248944*
X286936Y248918*
X286887Y248885*
X286842Y248846*
X286803Y248802*
X286771Y248753*
X286745Y2487*
X286726Y248644*
X286717Y248602*
X287086*
Y248971*
G37*
G36*
X299511Y248621D02*
Y248252D01*
X29988*
X299872Y248294*
X299853Y24835*
X299827Y248403*
X299794Y248452*
X299755Y248496*
X299711Y248535*
X299662Y248568*
X299609Y248594*
X299553Y248613*
X299511Y248621*
G37*
G36*
X299361D02*
X29932Y248613D01*
X299264Y248594*
X299211Y248568*
X299162Y248535*
X299117Y248496*
X299078Y248452*
X299046Y248403*
X29902Y24835*
X299001Y248294*
X298992Y248252*
X299361*
Y248621*
G37*
G36*
X291836Y250378D02*
X291777Y250374D01*
X29172Y250363*
X291664Y250344*
X291611Y250318*
X291562Y250285*
X291517Y250246*
X291478Y250202*
X291446Y250153*
X29142Y2501*
X291401Y250044*
X291389Y249986*
X291385Y249927*
X291389Y249868*
X291401Y249811*
X29142Y249755*
X291446Y249702*
X291478Y249653*
X291517Y249608*
X291562Y249569*
X291611Y249537*
Y249077*
X291613Y249042*
X291622Y249008*
X291635Y248975*
X291654Y248945*
X291677Y248918*
X291977Y248618*
X292004Y248595*
X292034Y248576*
X292066Y248563*
X292101Y248554*
X292136Y248552*
X294596*
X294628Y248503*
X294667Y248458*
X294712Y248419*
X294761Y248387*
X294814Y248361*
X29487Y248342*
X294927Y24833*
X294986Y248326*
X295045Y24833*
X295103Y248342*
X295159Y248361*
X295212Y248387*
X295261Y248419*
X295305Y248458*
X295344Y248503*
X295377Y248552*
X295403Y248605*
X295422Y248661*
X295433Y248718*
X295437Y248777*
X295433Y248836*
X295422Y248894*
X295403Y24895*
X295377Y249003*
X295344Y249052*
X295305Y249096*
X295261Y249135*
X295212Y249168*
X295159Y249194*
X295103Y249213*
X295045Y249224*
X294986Y249228*
X294927Y249224*
X29487Y249213*
X294814Y249194*
X294761Y249168*
X294712Y249135*
X294667Y249096*
X294628Y249052*
X294596Y249003*
X29223*
X292062Y249171*
Y249537*
X292111Y249569*
X292155Y249608*
X292194Y249653*
X292227Y249702*
X292253Y249755*
X292272Y249811*
X292283Y249868*
X292287Y249927*
X292283Y249986*
X292272Y250044*
X292253Y2501*
X292227Y250153*
X292194Y250202*
X292155Y250246*
X292111Y250285*
X292062Y250318*
X292009Y250344*
X291953Y250363*
X291895Y250374*
X291836Y250378*
G37*
G36*
X289836Y248827D02*
X289467D01*
X289476Y248786*
X289495Y24873*
X289521Y248677*
X289553Y248628*
X289592Y248583*
X289637Y248544*
X289686Y248512*
X289739Y248486*
X289795Y248467*
X289836Y248458*
Y248827*
G37*
G36*
X288411Y249353D02*
X288352Y249349D01*
X288295Y249338*
X288239Y249319*
X288186Y249293*
X288137Y24926*
X288092Y249221*
X288053Y249177*
X288021Y249128*
X287995Y249075*
X287976Y249019*
X287964Y248961*
X28796Y248902*
X287964Y248843*
X287976Y248786*
X287995Y24873*
X288021Y248677*
X288053Y248628*
X288092Y248583*
X288137Y248544*
X288186Y248512*
X288239Y248486*
X288295Y248467*
X288352Y248455*
X288411Y248451*
X28847Y248455*
X288528Y248467*
X288584Y248486*
X288637Y248512*
X288686Y248544*
X28873Y248583*
X288769Y248628*
X288802Y248677*
X288828Y24873*
X288847Y248786*
X288858Y248843*
X288862Y248902*
X288858Y248961*
X288847Y249019*
X288828Y249075*
X288802Y249128*
X288769Y249177*
X28873Y249221*
X288686Y24926*
X288637Y249293*
X288584Y249319*
X288528Y249338*
X28847Y249349*
X288411Y249353*
G37*
G36*
X300736Y248977D02*
X300367D01*
X300376Y248936*
X300395Y24888*
X300421Y248827*
X300453Y248778*
X300492Y248733*
X300537Y248694*
X300586Y248662*
X300639Y248636*
X300695Y248617*
X300736Y248608*
Y248977*
G37*
G36*
X29873Y250127D02*
X298361D01*
Y249758*
X298403Y249767*
X298459Y249786*
X298512Y249812*
X298561Y249844*
X298605Y249883*
X298644Y249928*
X298677Y249977*
X298703Y25003*
X298722Y250086*
X29873Y250127*
G37*
G36*
X298211D02*
X297842D01*
X297851Y250086*
X29787Y25003*
X297896Y249977*
X297928Y249928*
X297967Y249883*
X298012Y249844*
X298061Y249812*
X298114Y249786*
X29817Y249767*
X298211Y249758*
Y250127*
G37*
G36*
X300811Y251003D02*
X300752Y250999D01*
X300695Y250988*
X300639Y250969*
X300586Y250943*
X300537Y25091*
X300492Y250871*
X300453Y250827*
X300421Y250778*
X300395Y250725*
X300376Y250669*
X300364Y250611*
X30036Y250552*
X300364Y250493*
X300376Y250436*
X300395Y25038*
X300421Y250327*
X300453Y250278*
X300492Y250233*
X300537Y250194*
X300586Y250162*
X300639Y250136*
X300695Y250117*
X300752Y250105*
X300811Y250101*
X30087Y250105*
X300928Y250117*
X300984Y250136*
X301037Y250162*
X301086Y250194*
X30113Y250233*
X301169Y250278*
X301202Y250327*
X301228Y25038*
X301247Y250436*
X301258Y250493*
X301262Y250552*
X301258Y250611*
X301247Y250669*
X301228Y250725*
X301202Y250778*
X301169Y250827*
X30113Y250871*
X301086Y25091*
X301037Y250943*
X300984Y250969*
X300928Y250988*
X30087Y250999*
X300811Y251003*
G37*
G36*
X304655Y250527D02*
X304286D01*
Y250158*
X304328Y250167*
X304384Y250186*
X304437Y250212*
X304486Y250244*
X30453Y250283*
X304569Y250328*
X304602Y250377*
X304628Y25043*
X304647Y250486*
X304655Y250527*
G37*
G36*
X304136D02*
X303767D01*
X303776Y250486*
X303795Y25043*
X303821Y250377*
X303853Y250328*
X303892Y250283*
X303937Y250244*
X303986Y250212*
X304039Y250186*
X304095Y250167*
X304136Y250158*
Y250527*
G37*
G36*
X289836Y249346D02*
X289795Y249338D01*
X289739Y249319*
X289686Y249293*
X289637Y24926*
X289592Y249221*
X289553Y249177*
X289521Y249128*
X289495Y249075*
X289476Y249019*
X289467Y248977*
X289836*
Y249346*
G37*
G36*
X301255Y248977D02*
X300886D01*
Y248608*
X300928Y248617*
X300984Y248636*
X301037Y248662*
X301086Y248694*
X30113Y248733*
X301169Y248778*
X301202Y248827*
X301228Y24888*
X301247Y248936*
X301255Y248977*
G37*
G36*
X289986Y249346D02*
Y248977D01*
X290355*
X290347Y249019*
X290328Y249075*
X290302Y249128*
X290269Y249177*
X29023Y249221*
X290186Y24926*
X290137Y249293*
X290084Y249319*
X290028Y249338*
X289986Y249346*
G37*
G36*
X300886Y249496D02*
Y249127D01*
X301255*
X301247Y249169*
X301228Y249225*
X301202Y249278*
X301169Y249327*
X30113Y249371*
X301086Y24941*
X301037Y249443*
X300984Y249469*
X300928Y249488*
X300886Y249496*
G37*
G36*
X300736D02*
X300695Y249488D01*
X300639Y249469*
X300586Y249443*
X300537Y24941*
X300492Y249371*
X300453Y249327*
X300421Y249278*
X300395Y249225*
X300376Y249169*
X300367Y249127*
X300736*
Y249496*
G37*
G36*
X287605Y248452D02*
X287236D01*
Y248083*
X287278Y248092*
X287334Y248111*
X287387Y248137*
X287436Y248169*
X28748Y248208*
X287519Y248253*
X287552Y248302*
X287578Y248355*
X287597Y248411*
X287605Y248452*
G37*
G36*
X29243Y246777D02*
X292061D01*
Y246408*
X292103Y246417*
X292159Y246436*
X292212Y246462*
X292261Y246494*
X292305Y246533*
X292344Y246578*
X292377Y246627*
X292403Y24668*
X292422Y246736*
X29243Y246777*
G37*
G36*
X291911D02*
X291542D01*
X291551Y246736*
X29157Y24668*
X291596Y246627*
X291628Y246578*
X291667Y246533*
X291712Y246494*
X291761Y246462*
X291814Y246436*
X29187Y246417*
X291911Y246408*
Y246777*
G37*
G36*
X299461Y247453D02*
X299402Y247449D01*
X299345Y247438*
X299289Y247419*
X299236Y247393*
X299187Y24736*
X299142Y247321*
X299103Y247277*
X299071Y247228*
X299045Y247175*
X299026Y247119*
X299014Y247061*
X29901Y247002*
X299014Y246943*
X299026Y246886*
X299045Y24683*
X299071Y246777*
X299103Y246728*
X299142Y246683*
X299187Y246644*
X299236Y246612*
X299289Y246586*
X299345Y246567*
X299402Y246555*
X299461Y246551*
X29952Y246555*
X299578Y246567*
X299634Y246586*
X299687Y246612*
X299736Y246644*
X29978Y246683*
X299819Y246728*
X299852Y246777*
X299878Y24683*
X299897Y246886*
X299908Y246943*
X299912Y247002*
X299908Y247061*
X299897Y247119*
X299878Y247175*
X299852Y247228*
X299819Y247277*
X29978Y247321*
X299736Y24736*
X299687Y247393*
X299634Y247419*
X299578Y247438*
X29952Y247449*
X299461Y247453*
G37*
G36*
X296386Y246971D02*
Y246602D01*
X296755*
X296747Y246644*
X296728Y2467*
X296702Y246753*
X296669Y246802*
X29663Y246846*
X296586Y246885*
X296537Y246918*
X296484Y246944*
X296428Y246963*
X296386Y246971*
G37*
G36*
X296236D02*
X296195Y246963D01*
X296139Y246944*
X296086Y246918*
X296037Y246885*
X295992Y246846*
X295953Y246802*
X295921Y246753*
X295895Y2467*
X295876Y246644*
X295867Y246602*
X296236*
Y246971*
G37*
G36*
X291686Y245127D02*
X291317D01*
X291326Y245086*
X291345Y24503*
X291371Y244977*
X291403Y244928*
X291442Y244883*
X291487Y244844*
X291536Y244812*
X291589Y244786*
X291645Y244767*
X291686Y244758*
Y245127*
G37*
G36*
X290261Y245653D02*
X290202Y245649D01*
X290145Y245638*
X290089Y245619*
X290036Y245593*
X289987Y24556*
X289942Y245521*
X289903Y245477*
X289871Y245428*
X289845Y245375*
X289826Y245319*
X289814Y245261*
X28981Y245202*
X289814Y245143*
X289826Y245086*
X289845Y24503*
X289871Y244977*
X289903Y244928*
X289942Y244883*
X289987Y244844*
X290036Y244812*
X290089Y244786*
X290145Y244767*
X290202Y244755*
X290261Y244751*
X29032Y244755*
X290378Y244767*
X290434Y244786*
X290487Y244812*
X290536Y244844*
X29058Y244883*
X290619Y244928*
X290652Y244977*
X290678Y24503*
X290697Y245086*
X290708Y245143*
X290712Y245202*
X290708Y245261*
X290697Y245319*
X290678Y245375*
X290652Y245428*
X290619Y245477*
X29058Y245521*
X290536Y24556*
X290487Y245593*
X290434Y245619*
X290378Y245638*
X29032Y245649*
X290261Y245653*
G37*
G36*
X291686Y245646D02*
X291645Y245638D01*
X291589Y245619*
X291536Y245593*
X291487Y24556*
X291442Y245521*
X291403Y245477*
X291371Y245428*
X291345Y245375*
X291326Y245319*
X291317Y245277*
X291686*
Y245646*
G37*
G36*
X296755Y246452D02*
X296386D01*
Y246083*
X296428Y246092*
X296484Y246111*
X296537Y246137*
X296586Y246169*
X29663Y246208*
X296669Y246253*
X296702Y246302*
X296728Y246355*
X296747Y246411*
X296755Y246452*
G37*
G36*
X296236D02*
X295867D01*
X295876Y246411*
X295895Y246355*
X295921Y246302*
X295953Y246253*
X295992Y246208*
X296037Y246169*
X296086Y246137*
X296139Y246111*
X296195Y246092*
X296236Y246083*
Y246452*
G37*
G36*
X291911Y247296D02*
X29187Y247288D01*
X291814Y247269*
X291761Y247243*
X291712Y24721*
X291667Y247171*
X291628Y247127*
X291596Y247078*
X29157Y247025*
X291551Y246969*
X291542Y246927*
X291911*
Y247296*
G37*
G36*
X29988Y248102D02*
X299511D01*
Y247733*
X299553Y247742*
X299609Y247761*
X299662Y247787*
X299711Y247819*
X299755Y247858*
X299794Y247903*
X299827Y247952*
X299853Y248005*
X299872Y248061*
X29988Y248102*
G37*
G36*
X299361D02*
X298992D01*
X299001Y248061*
X29902Y248005*
X299046Y247952*
X299078Y247903*
X299117Y247858*
X299162Y247819*
X299211Y247787*
X299264Y247761*
X29932Y247742*
X299361Y247733*
Y248102*
G37*
G36*
X288686Y248346D02*
X288645Y248338D01*
X288589Y248319*
X288536Y248293*
X288487Y24826*
X288442Y248221*
X288403Y248177*
X288371Y248128*
X288345Y248075*
X288326Y248019*
X288317Y247977*
X288686*
Y248346*
G37*
G36*
X287086Y248452D02*
X286717D01*
X286726Y248411*
X286745Y248355*
X286771Y248302*
X286803Y248253*
X286842Y248208*
X286887Y248169*
X286936Y248137*
X286989Y248111*
X287045Y248092*
X287086Y248083*
Y248452*
G37*
G36*
X288836Y248346D02*
Y247977D01*
X289205*
X289197Y248019*
X289178Y248075*
X289152Y248128*
X289119Y248177*
X28908Y248221*
X289036Y24826*
X288987Y248293*
X288934Y248319*
X288878Y248338*
X288836Y248346*
G37*
G36*
X301611Y247346D02*
X30157Y247338D01*
X301514Y247319*
X301461Y247293*
X301412Y24726*
X301367Y247221*
X301328Y247177*
X301296Y247128*
X30127Y247075*
X301251Y247019*
X301242Y246977*
X301611*
Y247346*
G37*
G36*
X292061Y247296D02*
Y246927D01*
X29243*
X292422Y246969*
X292403Y247025*
X292377Y247078*
X292344Y247127*
X292305Y247171*
X292261Y24721*
X292212Y247243*
X292159Y247269*
X292103Y247288*
X292061Y247296*
G37*
G36*
X301761Y247346D02*
Y246977D01*
X30213*
X302122Y247019*
X302103Y247075*
X302077Y247128*
X302044Y247177*
X302005Y247221*
X301961Y24726*
X301912Y247293*
X301859Y247319*
X301803Y247338*
X301761Y247346*
G37*
G36*
X289205Y247827D02*
X288836D01*
Y247458*
X288878Y247467*
X288934Y247486*
X288987Y247512*
X289036Y247544*
X28908Y247583*
X289119Y247628*
X289152Y247677*
X289178Y24773*
X289197Y247786*
X289205Y247827*
G37*
G36*
X288686D02*
X288317D01*
X288326Y247786*
X288345Y24773*
X288371Y247677*
X288403Y247628*
X288442Y247583*
X288487Y247544*
X288536Y247512*
X288589Y247486*
X288645Y247467*
X288686Y247458*
Y247827*
G37*
G36*
X298211Y250646D02*
X29817Y250638D01*
X298114Y250619*
X298061Y250593*
X298012Y25056*
X297967Y250521*
X297928Y250477*
X297896Y250428*
X29787Y250375*
X297851Y250319*
X297842Y250277*
X298211*
Y250646*
G37*
G36*
X301211Y256746D02*
Y256377D01*
X30158*
X301572Y256419*
X301553Y256475*
X301527Y256528*
X301494Y256577*
X301455Y256621*
X301411Y25666*
X301362Y256693*
X301309Y256719*
X301253Y256738*
X301211Y256746*
G37*
G36*
X301061D02*
X30102Y256738D01*
X300964Y256719*
X300911Y256693*
X300862Y25666*
X300817Y256621*
X300778Y256577*
X300746Y256528*
X30072Y256475*
X300701Y256419*
X300692Y256377*
X301061*
Y256746*
G37*
G36*
X303511Y257152D02*
X303142D01*
X303151Y257111*
X30317Y257055*
X303196Y257002*
X303228Y256953*
X303267Y256908*
X303312Y256869*
X303361Y256837*
X303414Y256811*
X30347Y256792*
X303511Y256783*
Y257152*
G37*
G36*
X296661Y257602D02*
X296292D01*
X296301Y257561*
X29632Y257505*
X296346Y257452*
X296378Y257403*
X296417Y257358*
X296462Y257319*
X296511Y257287*
X296564Y257261*
X29662Y257242*
X296661Y257233*
Y257602*
G37*
G36*
X30403Y257152D02*
X303661D01*
Y256783*
X303703Y256792*
X303759Y256811*
X303812Y256837*
X303861Y256869*
X303905Y256908*
X303944Y256953*
X303977Y257002*
X304003Y257055*
X304022Y257111*
X30403Y257152*
G37*
G36*
X291811Y255671D02*
Y255302D01*
X29218*
X292172Y255344*
X292153Y2554*
X292127Y255453*
X292094Y255502*
X292055Y255546*
X292011Y255585*
X291962Y255618*
X291909Y255644*
X291853Y255663*
X291811Y255671*
G37*
G36*
X291661D02*
X29162Y255663D01*
X291564Y255644*
X291511Y255618*
X291462Y255585*
X291417Y255546*
X291378Y255502*
X291346Y255453*
X29132Y2554*
X291301Y255344*
X291292Y255302*
X291661*
Y255671*
G37*
G36*
X285686Y256528D02*
X285627Y256524D01*
X28557Y256513*
X285514Y256494*
X285461Y256468*
X285412Y256435*
X285367Y256396*
X285328Y256352*
X285296Y256303*
X28527Y25625*
X285251Y256194*
X285239Y256136*
X285235Y256077*
X285239Y256018*
X285251Y255961*
X28527Y255905*
X285296Y255852*
X285328Y255803*
X285367Y255758*
X285412Y255719*
X285461Y255687*
X285514Y255661*
X28557Y255642*
X285627Y25563*
X285686Y255626*
X285745Y25563*
X285803Y255642*
X285859Y255661*
X285912Y255687*
X285961Y255719*
X286005Y255758*
X286044Y255803*
X286077Y255852*
X286103Y255905*
X286122Y255961*
X286133Y256018*
X286137Y256077*
X286133Y256136*
X286122Y256194*
X286103Y25625*
X286077Y256303*
X286044Y256352*
X286005Y256396*
X285961Y256435*
X285912Y256468*
X285859Y256494*
X285803Y256513*
X285745Y256524*
X285686Y256528*
G37*
G36*
X30158Y256227D02*
X301211D01*
Y255858*
X301253Y255867*
X301309Y255886*
X301362Y255912*
X301411Y255944*
X301455Y255983*
X301494Y256028*
X301527Y256077*
X301553Y25613*
X301572Y256186*
X30158Y256227*
G37*
G36*
X301061D02*
X300692D01*
X300701Y256186*
X30072Y25613*
X300746Y256077*
X300778Y256028*
X300817Y255983*
X300862Y255944*
X300911Y255912*
X300964Y255886*
X30102Y255867*
X301061Y255858*
Y256227*
G37*
G36*
X29718Y257602D02*
X296811D01*
Y257233*
X296853Y257242*
X296909Y257261*
X296962Y257287*
X297011Y257319*
X297055Y257358*
X297094Y257403*
X297127Y257452*
X297153Y257505*
X297172Y257561*
X29718Y257602*
G37*
G36*
X290961Y261552D02*
X290592D01*
X290601Y261511*
X29062Y261455*
X290646Y261402*
X290678Y261353*
X290717Y261308*
X290762Y261269*
X290811Y261237*
X290864Y261211*
X29092Y261192*
X290961Y261183*
Y261552*
G37*
G36*
X288586Y259196D02*
Y258827D01*
X288955*
X288947Y258869*
X288928Y258925*
X288901Y258978*
X288869Y259027*
X28883Y259071*
X288785Y25911*
X288736Y259143*
X288684Y259169*
X288628Y259188*
X288586Y259196*
G37*
G36*
X29148Y261552D02*
X291111D01*
Y261183*
X291153Y261192*
X291209Y261211*
X291262Y261237*
X291311Y261269*
X291355Y261308*
X291394Y261353*
X291427Y261402*
X291453Y261455*
X291472Y261511*
X29148Y261552*
G37*
G36*
X291111Y262071D02*
Y261702D01*
X29148*
X291472Y261744*
X291453Y2618*
X291427Y261853*
X291394Y261902*
X291355Y261946*
X291311Y261985*
X291262Y262018*
X291209Y262044*
X291153Y262063*
X291111Y262071*
G37*
G36*
X290961D02*
X29092Y262063D01*
X290864Y262044*
X290811Y262018*
X290762Y261985*
X290717Y261946*
X290678Y261902*
X290646Y261853*
X29062Y2618*
X290601Y261744*
X290592Y261702*
X290961*
Y262071*
G37*
G36*
X303661Y257671D02*
Y257302D01*
X30403*
X304022Y257344*
X304003Y2574*
X303977Y257453*
X303944Y257502*
X303905Y257546*
X303861Y257585*
X303812Y257618*
X303759Y257644*
X303703Y257663*
X303661Y257671*
G37*
G36*
X303511D02*
X30347Y257663D01*
X303414Y257644*
X303361Y257618*
X303312Y257585*
X303267Y257546*
X303228Y257502*
X303196Y257453*
X30317Y2574*
X303151Y257344*
X303142Y257302*
X303511*
Y257671*
G37*
G36*
X288436Y258677D02*
X288067D01*
X288075Y258635*
X288094Y258579*
X28812Y258527*
X288153Y258477*
X288192Y258433*
X288236Y258394*
X288285Y258361*
X288338Y258335*
X288394Y258316*
X288436Y258308*
Y258677*
G37*
G36*
Y259196D02*
X288394Y259188D01*
X288338Y259169*
X288285Y259143*
X288236Y25911*
X288192Y259071*
X288153Y259027*
X28812Y258978*
X288094Y258925*
X288075Y258869*
X288067Y258827*
X288436*
Y259196*
G37*
G36*
X288955Y258677D02*
X288586D01*
Y258308*
X288628Y258316*
X288684Y258335*
X288736Y258361*
X288785Y258394*
X28883Y258433*
X288869Y258477*
X288901Y258527*
X288928Y258579*
X288947Y258635*
X288955Y258677*
G37*
G36*
X291661Y252652D02*
X291292D01*
X291301Y252611*
X29132Y252555*
X291346Y252502*
X291378Y252453*
X291417Y252408*
X291462Y252369*
X291511Y252337*
X291564Y252311*
X29162Y252292*
X291661Y252283*
Y252652*
G37*
G36*
X302236Y253103D02*
X302177Y253099D01*
X30212Y253088*
X302064Y253069*
X302011Y253043*
X301962Y25301*
X301917Y252971*
X301878Y252927*
X301846Y252878*
X30182Y252825*
X301801Y252769*
X301789Y252711*
X301785Y252652*
X301789Y252593*
X301801Y252536*
X30182Y25248*
X301846Y252427*
X301878Y252378*
X301917Y252333*
X301962Y252294*
X302011Y252262*
X302064Y252236*
X30212Y252217*
X302177Y252205*
X302236Y252201*
X302295Y252205*
X302353Y252217*
X302409Y252236*
X302462Y252262*
X302511Y252294*
X302555Y252333*
X302594Y252378*
X302627Y252427*
X302653Y25248*
X302672Y252536*
X302683Y252593*
X302687Y252652*
X302683Y252711*
X302672Y252769*
X302653Y252825*
X302627Y252878*
X302594Y252927*
X302555Y252971*
X302511Y25301*
X302462Y253043*
X302409Y253069*
X302353Y253088*
X302295Y253099*
X302236Y253103*
G37*
G36*
X29218Y252652D02*
X291811D01*
Y252283*
X291853Y252292*
X291909Y252311*
X291962Y252337*
X292011Y252369*
X292055Y252408*
X292094Y252453*
X292127Y252502*
X292153Y252555*
X292172Y252611*
X29218Y252652*
G37*
G36*
X291811Y253171D02*
Y252802D01*
X29218*
X292172Y252844*
X292153Y2529*
X292127Y252953*
X292094Y253002*
X292055Y253046*
X292011Y253085*
X291962Y253118*
X291909Y253144*
X291853Y253163*
X291811Y253171*
G37*
G36*
X291661D02*
X29162Y253163D01*
X291564Y253144*
X291511Y253118*
X291462Y253085*
X291417Y253046*
X291378Y253002*
X291346Y252953*
X29132Y2529*
X291301Y252844*
X291292Y252802*
X291661*
Y253171*
G37*
G36*
X304136Y251046D02*
X304095Y251038D01*
X304039Y251019*
X303986Y250993*
X303937Y25096*
X303892Y250921*
X303853Y250877*
X303821Y250828*
X303795Y250775*
X303776Y250719*
X303767Y250677*
X304136*
Y251046*
G37*
G36*
X298361Y250646D02*
Y250277D01*
X29873*
X298722Y250319*
X298703Y250375*
X298677Y250428*
X298644Y250477*
X298605Y250521*
X298561Y25056*
X298512Y250593*
X298459Y250619*
X298403Y250638*
X298361Y250646*
G37*
G36*
X304286Y251046D02*
Y250677D01*
X304655*
X304647Y250719*
X304628Y250775*
X304602Y250828*
X304569Y250877*
X30453Y250921*
X304486Y25096*
X304437Y250993*
X304384Y251019*
X304328Y251038*
X304286Y251046*
G37*
G36*
X299236Y253053D02*
X299177Y253049D01*
X29912Y253038*
X299064Y253019*
X299011Y252993*
X298962Y25296*
X298917Y252921*
X298878Y252877*
X298846Y252828*
X29882Y252775*
X298801Y252719*
X298789Y252661*
X298785Y252602*
X298789Y252543*
X298801Y252486*
X296743Y250428*
X296527*
X296494Y250477*
X296455Y250521*
X296411Y25056*
X296362Y250593*
X296309Y250619*
X296253Y250638*
X296195Y250649*
X296136Y250653*
X296077Y250649*
X29602Y250638*
X295964Y250619*
X295911Y250593*
X295862Y25056*
X295817Y250521*
X295778Y250477*
X295746Y250428*
X29572Y250375*
X295701Y250319*
X295689Y250261*
X295685Y250202*
X295689Y250143*
X295701Y250086*
X29572Y25003*
X295746Y249977*
X295778Y249928*
X295817Y249883*
X295862Y249844*
X295911Y249812*
X295964Y249786*
X29602Y249767*
X296077Y249755*
X296136Y249751*
X296195Y249755*
X296253Y249767*
X296309Y249786*
X296362Y249812*
X296411Y249844*
X296455Y249883*
X296494Y249928*
X296527Y249977*
X296836*
X296872Y249979*
X296906Y249988*
X296939Y250001*
X296969Y25002*
X296996Y250043*
X29912Y252167*
X299177Y252155*
X299236Y252151*
X299295Y252155*
X299353Y252167*
X299409Y252186*
X299462Y252212*
X299511Y252244*
X299555Y252283*
X299594Y252328*
X299627Y252377*
X299653Y25243*
X299672Y252486*
X299683Y252543*
X299687Y252602*
X299683Y252661*
X299672Y252719*
X299653Y252775*
X299627Y252828*
X299594Y252877*
X299555Y252921*
X299511Y25296*
X299462Y252993*
X299409Y253019*
X299353Y253038*
X299295Y253049*
X299236Y253053*
G37*
G36*
X296136Y251853D02*
X296077Y251849D01*
X29602Y251838*
X295964Y251819*
X295911Y251793*
X295862Y25176*
X295817Y251721*
X295778Y251677*
X295746Y251628*
X29572Y251575*
X295701Y251519*
X295689Y251461*
X295685Y251402*
X295689Y251343*
X295701Y251286*
X29572Y25123*
X295746Y251177*
X295778Y251128*
X295817Y251083*
X295862Y251044*
X295911Y251012*
X295964Y250986*
X29602Y250967*
X296077Y250955*
X296136Y250951*
X296195Y250955*
X296253Y250967*
X296309Y250986*
X296362Y251012*
X296411Y251044*
X296455Y251083*
X296494Y251128*
X296527Y251177*
X296553Y25123*
X296572Y251286*
X296583Y251343*
X296587Y251402*
X296583Y251461*
X296572Y251519*
X296553Y251575*
X296527Y251628*
X296494Y251677*
X296455Y251721*
X296411Y25176*
X296362Y251793*
X296309Y251819*
X296253Y251838*
X296195Y251849*
X296136Y251853*
G37*
G36*
X297861Y253078D02*
X297802Y253074D01*
X297745Y253063*
X297689Y253044*
X297636Y253018*
X297587Y252985*
X297542Y252946*
X297503Y252902*
X297471Y252853*
X295811*
X295776Y25285*
X295742Y252842*
X295709Y252828*
X295679Y25281*
X295652Y252787*
X293228Y250363*
X29317Y250374*
X293111Y250378*
X293052Y250374*
X292995Y250363*
X292939Y250344*
X292886Y250318*
X292837Y250285*
X292792Y250246*
X292753Y250202*
X292721Y250153*
X292695Y2501*
X292676Y250044*
X292664Y249986*
X29266Y249927*
X292664Y249868*
X292676Y249811*
X292695Y249755*
X292721Y249702*
X292753Y249653*
X292792Y249608*
X292837Y249569*
X292886Y249537*
X292939Y249511*
X292995Y249492*
X293052Y24948*
X293111Y249476*
X29317Y24948*
X293228Y249492*
X293284Y249511*
X293337Y249537*
X293386Y249569*
X29343Y249608*
X293469Y249653*
X293502Y249702*
X293528Y249755*
X293547Y249811*
X293558Y249868*
X293562Y249927*
X293558Y249986*
X293547Y250044*
X295905Y252402*
X297471*
X297503Y252353*
X297542Y252308*
X297587Y252269*
X297636Y252237*
X297689Y252211*
X297745Y252192*
X297802Y25218*
X297861Y252176*
X29792Y25218*
X297978Y252192*
X298034Y252211*
X298087Y252237*
X298136Y252269*
X29818Y252308*
X298219Y252353*
X298252Y252402*
X298278Y252455*
X298297Y252511*
X298308Y252568*
X298312Y252627*
X298308Y252686*
X298297Y252744*
X298278Y2528*
X298252Y252853*
X298219Y252902*
X29818Y252946*
X298136Y252985*
X298087Y253018*
X298034Y253044*
X297978Y253063*
X29792Y253074*
X297861Y253078*
G37*
G36*
X300111Y255046D02*
Y254677D01*
X30048*
X300472Y254719*
X300453Y254775*
X300427Y254828*
X300394Y254877*
X300355Y254921*
X300311Y25496*
X300262Y254993*
X300209Y255019*
X300153Y255038*
X300111Y255046*
G37*
G36*
X299961D02*
X29992Y255038D01*
X299864Y255019*
X299811Y254993*
X299762Y25496*
X299717Y254921*
X299678Y254877*
X299646Y254828*
X29962Y254775*
X299601Y254719*
X299592Y254677*
X299961*
Y255046*
G37*
G36*
X291661Y255152D02*
X291292D01*
X291301Y255111*
X29132Y255055*
X291346Y255002*
X291378Y254953*
X291417Y254908*
X291462Y254869*
X291511Y254837*
X291564Y254811*
X29162Y254792*
X291661Y254783*
Y255152*
G37*
G36*
X297636Y256053D02*
X297577Y256049D01*
X29752Y256038*
X297464Y256019*
X297411Y255993*
X297362Y25596*
X297317Y255921*
X297278Y255877*
X297246Y255828*
X29722Y255775*
X297201Y255719*
X297189Y255661*
X297185Y255602*
X297189Y255543*
X297201Y255486*
X29722Y25543*
X297246Y255377*
X297278Y255328*
X297317Y255283*
X297339Y255265*
Y255115*
X297317Y255096*
X297278Y255052*
X297246Y255003*
X29722Y25495*
X297201Y254894*
X297192Y254852*
X29808*
X298072Y254894*
X298053Y25495*
X298027Y255003*
X297994Y255052*
X297955Y255096*
X297934Y255115*
Y255265*
X297955Y255283*
X297994Y255328*
X298027Y255377*
X298053Y25543*
X298072Y255486*
X298083Y255543*
X298087Y255602*
X298083Y255661*
X298072Y255719*
X298053Y255775*
X298027Y255828*
X297994Y255877*
X297955Y255921*
X297911Y25596*
X297862Y255993*
X297809Y256019*
X297753Y256038*
X297695Y256049*
X297636Y256053*
G37*
G36*
X29218Y255152D02*
X291811D01*
Y254783*
X291853Y254792*
X291909Y254811*
X291962Y254837*
X292011Y254869*
X292055Y254908*
X292094Y254953*
X292127Y255002*
X292153Y255055*
X292172Y255111*
X29218Y255152*
G37*
G36*
X30048Y254527D02*
X300111D01*
Y254158*
X300153Y254167*
X300209Y254186*
X300262Y254212*
X300311Y254244*
X300355Y254283*
X300394Y254328*
X300427Y254377*
X300453Y25443*
X300472Y254486*
X30048Y254527*
G37*
G36*
X299961D02*
X299592D01*
X299601Y254486*
X29962Y25443*
X299646Y254377*
X299678Y254328*
X299717Y254283*
X299762Y254244*
X299811Y254212*
X299864Y254186*
X29992Y254167*
X299961Y254158*
Y254527*
G37*
G36*
X297561Y254702D02*
X297192D01*
X297201Y254661*
X29722Y254605*
X297246Y254552*
X297278Y254503*
X297317Y254458*
X297362Y254419*
X297411Y254387*
X297464Y254361*
X29752Y254342*
X297561Y254333*
Y254702*
G37*
G36*
X285351Y255057D02*
X284826D01*
Y254532*
X285351*
Y255057*
G37*
G36*
X29808Y254702D02*
X297711D01*
Y254333*
X297753Y254342*
X297809Y254361*
X297862Y254387*
X297911Y254419*
X297955Y254458*
X297994Y254503*
X298027Y254552*
X298053Y254605*
X298072Y254661*
X29808Y254702*
G37*
%LNsmarttokens-3*%
%LPD*%
G54D26*
X292136Y248777D02*
X294986D01*
X291836Y249077D02*
Y249927D01*
Y249077D02*
X292136Y248777D01*
X296086Y250202D02*
X296111Y250177D01*
X296136Y250202D02*
X296836D01*
X299236Y252602*
X294486Y253652D02*
X299737D01*
X293111Y249927D02*
X293136Y249977D01*
X299737Y253652D02*
X300737Y252652D01*
X291036Y259127D02*
X294236D01*
X293111Y249927D02*
X295811Y252627D01*
X297861*
X285426Y253187D02*
Y253239D01*
X286696Y250647D02*
X287386Y251337D01*
Y252977D02*
X287911Y253502D01*
X287386Y251337D02*
Y252977D01*
X288211Y257052D02*
X289086Y256177D01*
Y251527D02*
Y256177D01*
X288736Y251177D02*
X289086Y251527D01*
X287911Y251177D02*
X288736D01*
X286696Y253187D02*
X287536Y254027D01*
Y257302*
X287961Y257727*
X290411*
X294486Y253652*
G54D30*
X293971Y242877D03*
X295651D03*
X286696Y250647D03*
X285426Y253187D03*
Y251917D03*
Y250647D03*
X286696Y254457D03*
Y253187D03*
Y251917D03*
X285426Y249377D03*
G54D31*
X300036Y254602D03*
X289911Y248902D03*
X301136Y256302D03*
X298286Y250202D03*
X300811Y249052D03*
X299461Y247002D03*
X299436Y248177D03*
X292786Y242877D03*
X300737Y252652D03*
X296136Y251402D03*
X299236Y252602D03*
X296136Y250202D03*
X297861Y252627D03*
X296036Y249002D03*
X294986Y248777D03*
X291036Y261627D03*
X303586Y257227D03*
X301686Y246902D03*
X291761Y245202D03*
X302236Y252652D03*
X291736Y252727D03*
X297636Y255602D03*
X296311Y246527D03*
X297636Y254777D03*
X296736Y257677D03*
X293686Y247227D03*
X293111Y249927D03*
X291836D03*
X300811Y250552D03*
X288411Y248902D03*
X291036Y259127D03*
X294236D03*
X287911Y253502D03*
X291986Y246852D03*
X288761Y247902D03*
X287161Y248527D03*
X290261Y245202D03*
X291736Y255227D03*
X304211Y250602D03*
X288511Y258752D03*
X287911Y252727D03*
Y251177D03*
Y251952D03*
X288211Y257052D03*
X285686Y256077D03*
G54D32*
X301512Y244928D03*
X30241Y245826D03*
X296921Y242877D03*
G54D33*
X285426Y254457D03*
M02*