%FSTAX23Y23*%
%MOMM*%
%SFA1B1*%

%IPPOS*%
%ADD57C,0.127000*%
%ADD58C,0.169300*%
%LNsmarttokens-1*%
%LPD*%
G54D57*
X293463Y242369D02*
Y243385D01*
X294479*
Y242369*
X293463*
X301004Y24442D02*
Y245436D01*
X30202*
Y24442*
X301004*
X301902Y245318D02*
Y246334D01*
X302918*
Y245318*
X301902*
X295143Y242369D02*
Y243385D01*
X296159*
Y242369*
X295143*
X296413D02*
Y243385D01*
X297429*
Y242369*
X296413*
X286188Y250139D02*
Y251155D01*
X287204*
Y250139*
X286188*
X284918Y253949D02*
Y254965D01*
X285934*
Y253949*
X284918*
Y252679D02*
Y253695D01*
X285934*
Y252679*
X284918*
Y251409D02*
Y252425D01*
X285934*
Y251409*
X284918*
Y250139D02*
Y251155D01*
X285934*
Y250139*
X284918*
X286188Y253949D02*
Y254965D01*
X287204*
Y253949*
X286188*
Y252679D02*
Y253695D01*
X287204*
Y252679*
X286188*
Y251409D02*
Y252425D01*
X287204*
Y251409*
X286188*
X284918Y248869D02*
Y249885D01*
X285934*
Y248869*
X284918*
G54D58*
X300544Y254602D02*
D01*
X300543Y254638*
X300539Y254673*
X300533Y254708*
X300525Y254742*
X300514Y254776*
X3005Y254809*
X300485Y254841*
X300467Y254871*
X300447Y254901*
X300425Y254929*
X300402Y254955*
X300376Y25498*
X300349Y255003*
X30032Y255023*
X30029Y255042*
X300259Y255059*
X300227Y255073*
X300193Y255085*
X300159Y255095*
X300125Y255103*
X300089Y255107*
X300054Y25511*
X300019*
X299983Y255107*
X299948Y255103*
X299913Y255095*
X299879Y255085*
X299846Y255073*
X299814Y255059*
X299782Y255042*
X299752Y255023*
X299724Y255003*
X299696Y25498*
X299671Y254955*
X299647Y254929*
X299625Y254901*
X299605Y254871*
X299588Y254841*
X299572Y254809*
X299559Y254776*
X299548Y254742*
X299539Y254708*
X299533Y254673*
X29953Y254638*
X299528Y254602*
X29953Y254567*
X299533Y254532*
X299539Y254497*
X299548Y254462*
X299559Y254429*
X299572Y254396*
X299588Y254364*
X299605Y254333*
X299625Y254304*
X299647Y254276*
X299671Y254249*
X299696Y254225*
X299724Y254202*
X299752Y254181*
X299782Y254162*
X299814Y254146*
X299846Y254131*
X299879Y254119*
X299913Y254109*
X299948Y254102*
X299983Y254097*
X300019Y254095*
X300054*
X300089Y254097*
X300125Y254102*
X300159Y254109*
X300193Y254119*
X300227Y254131*
X300259Y254146*
X30029Y254162*
X30032Y254181*
X300349Y254202*
X300376Y254225*
X300402Y254249*
X300425Y254276*
X300447Y254304*
X300467Y254333*
X300485Y254364*
X3005Y254396*
X300514Y254429*
X300525Y254462*
X300533Y254497*
X300539Y254532*
X300543Y254567*
X300544Y254602*
X290419Y248902D02*
D01*
X290418Y248938*
X290414Y248973*
X290408Y249008*
X2904Y249042*
X290389Y249076*
X290375Y249109*
X29036Y249141*
X290342Y249171*
X290322Y249201*
X2903Y249229*
X290277Y249255*
X290251Y24928*
X290224Y249303*
X290195Y249323*
X290165Y249342*
X290134Y249359*
X290102Y249373*
X290068Y249385*
X290034Y249395*
X29Y249403*
X289964Y249408*
X289929Y24941*
X289894*
X289858Y249408*
X289823Y249403*
X289788Y249395*
X289754Y249385*
X289721Y249373*
X289689Y249359*
X289657Y249342*
X289627Y249323*
X289599Y249303*
X289571Y24928*
X289546Y249255*
X289522Y249229*
X2895Y249201*
X28948Y249171*
X289463Y249141*
X289447Y249109*
X289434Y249076*
X289423Y249042*
X289414Y249008*
X289408Y248973*
X289405Y248938*
X289403Y248902*
X289405Y248867*
X289408Y248832*
X289414Y248797*
X289423Y248762*
X289434Y248729*
X289447Y248696*
X289463Y248664*
X28948Y248633*
X2895Y248604*
X289522Y248576*
X289546Y248549*
X289571Y248525*
X289599Y248502*
X289627Y248481*
X289657Y248462*
X289689Y248446*
X289721Y248431*
X289754Y248419*
X289788Y248409*
X289823Y248402*
X289858Y248397*
X289894Y248395*
X289929*
X289964Y248397*
X29Y248402*
X290034Y248409*
X290068Y248419*
X290102Y248431*
X290134Y248446*
X290165Y248462*
X290195Y248481*
X290224Y248502*
X290251Y248525*
X290277Y248549*
X2903Y248576*
X290322Y248604*
X290342Y248633*
X29036Y248664*
X290375Y248696*
X290389Y248729*
X2904Y248762*
X290408Y248797*
X290414Y248832*
X290418Y248867*
X290419Y248902*
X301644Y256302D02*
D01*
X301643Y256338*
X301639Y256373*
X301633Y256408*
X301625Y256442*
X301614Y256476*
X3016Y256509*
X301585Y256541*
X301567Y256571*
X301547Y256601*
X301525Y256629*
X301502Y256655*
X301476Y25668*
X301449Y256703*
X30142Y256723*
X30139Y256742*
X301359Y256759*
X301327Y256773*
X301293Y256785*
X301259Y256795*
X301225Y256803*
X301189Y256807*
X301154Y25681*
X301119*
X301083Y256807*
X301048Y256803*
X301013Y256795*
X300979Y256785*
X300946Y256773*
X300914Y256759*
X300882Y256742*
X300852Y256723*
X300824Y256703*
X300796Y25668*
X300771Y256655*
X300747Y256629*
X300725Y256601*
X300705Y256571*
X300688Y256541*
X300672Y256509*
X300659Y256476*
X300648Y256442*
X300639Y256408*
X300633Y256373*
X30063Y256338*
X300628Y256302*
X30063Y256267*
X300633Y256232*
X300639Y256197*
X300648Y256162*
X300659Y256129*
X300672Y256096*
X300688Y256064*
X300705Y256033*
X300725Y256004*
X300747Y255976*
X300771Y255949*
X300796Y255925*
X300824Y255902*
X300852Y255881*
X300882Y255862*
X300914Y255846*
X300946Y255831*
X300979Y255819*
X301013Y255809*
X301048Y255802*
X301083Y255797*
X301119Y255795*
X301154*
X301189Y255797*
X301225Y255802*
X301259Y255809*
X301293Y255819*
X301327Y255831*
X301359Y255846*
X30139Y255862*
X30142Y255881*
X301449Y255902*
X301476Y255925*
X301502Y255949*
X301525Y255976*
X301547Y256004*
X301567Y256033*
X301585Y256064*
X3016Y256096*
X301614Y256129*
X301625Y256162*
X301633Y256197*
X301639Y256232*
X301643Y256267*
X301644Y256302*
X298794Y250202D02*
D01*
X298793Y250238*
X298789Y250273*
X298783Y250308*
X298775Y250342*
X298764Y250376*
X29875Y250409*
X298735Y250441*
X298717Y250471*
X298697Y250501*
X298675Y250529*
X298652Y250555*
X298626Y25058*
X298599Y250603*
X29857Y250623*
X29854Y250642*
X298509Y250659*
X298477Y250673*
X298443Y250685*
X298409Y250695*
X298374Y250703*
X298339Y250708*
X298304Y25071*
X298269*
X298233Y250708*
X298198Y250703*
X298163Y250695*
X298129Y250685*
X298096Y250673*
X298064Y250659*
X298032Y250642*
X298002Y250623*
X297974Y250603*
X297946Y25058*
X297921Y250555*
X297897Y250529*
X297875Y250501*
X297855Y250471*
X297838Y250441*
X297822Y250409*
X297809Y250376*
X297798Y250342*
X297789Y250308*
X297783Y250273*
X29778Y250238*
X297778Y250202*
X29778Y250167*
X297783Y250132*
X297789Y250097*
X297798Y250062*
X297809Y250029*
X297822Y249996*
X297838Y249964*
X297855Y249933*
X297875Y249904*
X297897Y249876*
X297921Y249849*
X297946Y249825*
X297974Y249802*
X298002Y249781*
X298032Y249762*
X298064Y249746*
X298096Y249731*
X298129Y249719*
X298163Y249709*
X298198Y249702*
X298233Y249697*
X298269Y249695*
X298304*
X298339Y249697*
X298374Y249702*
X298409Y249709*
X298443Y249719*
X298477Y249731*
X298509Y249746*
X29854Y249762*
X29857Y249781*
X298599Y249802*
X298626Y249825*
X298652Y249849*
X298675Y249876*
X298697Y249904*
X298717Y249933*
X298735Y249964*
X29875Y249996*
X298764Y250029*
X298775Y250062*
X298783Y250097*
X298789Y250132*
X298793Y250167*
X298794Y250202*
X301319Y249052D02*
D01*
X301318Y249088*
X301314Y249123*
X301308Y249158*
X3013Y249192*
X301289Y249226*
X301275Y249259*
X30126Y249291*
X301242Y249321*
X301222Y249351*
X3012Y249379*
X301177Y249405*
X301151Y24943*
X301124Y249453*
X301095Y249473*
X301065Y249492*
X301034Y249509*
X301002Y249523*
X300968Y249535*
X300934Y249545*
X3009Y249553*
X300864Y249557*
X300829Y24956*
X300794*
X300758Y249557*
X300723Y249553*
X300688Y249545*
X300654Y249535*
X300621Y249523*
X300589Y249509*
X300557Y249492*
X300527Y249473*
X300499Y249453*
X300471Y24943*
X300446Y249405*
X300422Y249379*
X3004Y249351*
X30038Y249321*
X300363Y249291*
X300347Y249259*
X300334Y249226*
X300323Y249192*
X300314Y249158*
X300308Y249123*
X300305Y249088*
X300303Y249052*
X300305Y249017*
X300308Y248982*
X300314Y248947*
X300323Y248912*
X300334Y248879*
X300347Y248846*
X300363Y248814*
X30038Y248783*
X3004Y248754*
X300422Y248726*
X300446Y248699*
X300471Y248675*
X300499Y248652*
X300527Y248631*
X300557Y248612*
X300589Y248596*
X300621Y248581*
X300654Y248569*
X300688Y248559*
X300723Y248552*
X300758Y248547*
X300794Y248545*
X300829*
X300864Y248547*
X3009Y248552*
X300934Y248559*
X300968Y248569*
X301002Y248581*
X301034Y248596*
X301065Y248612*
X301095Y248631*
X301124Y248652*
X301151Y248675*
X301177Y248699*
X3012Y248726*
X301222Y248754*
X301242Y248783*
X30126Y248814*
X301275Y248846*
X301289Y248879*
X3013Y248912*
X301308Y248947*
X301314Y248982*
X301318Y249017*
X301319Y249052*
X299969Y247002D02*
D01*
X299968Y247038*
X299964Y247073*
X299958Y247108*
X29995Y247142*
X299939Y247176*
X299925Y247209*
X29991Y247241*
X299892Y247271*
X299872Y247301*
X29985Y247329*
X299827Y247355*
X299801Y24738*
X299774Y247403*
X299745Y247423*
X299715Y247442*
X299684Y247459*
X299652Y247473*
X299618Y247485*
X299584Y247495*
X299549Y247503*
X299514Y247508*
X299479Y24751*
X299444*
X299408Y247508*
X299373Y247503*
X299338Y247495*
X299304Y247485*
X299271Y247473*
X299239Y247459*
X299207Y247442*
X299177Y247423*
X299149Y247403*
X299121Y24738*
X299096Y247355*
X299072Y247329*
X29905Y247301*
X29903Y247271*
X299013Y247241*
X298997Y247209*
X298984Y247176*
X298973Y247142*
X298964Y247108*
X298958Y247073*
X298955Y247038*
X298953Y247002*
X298955Y246967*
X298958Y246932*
X298964Y246897*
X298973Y246862*
X298984Y246829*
X298997Y246796*
X299013Y246764*
X29903Y246733*
X29905Y246704*
X299072Y246676*
X299096Y246649*
X299121Y246625*
X299149Y246602*
X299177Y246581*
X299207Y246562*
X299239Y246546*
X299271Y246531*
X299304Y246519*
X299338Y246509*
X299373Y246502*
X299408Y246497*
X299444Y246495*
X299479*
X299514Y246497*
X299549Y246502*
X299584Y246509*
X299618Y246519*
X299652Y246531*
X299684Y246546*
X299715Y246562*
X299745Y246581*
X299774Y246602*
X299801Y246625*
X299827Y246649*
X29985Y246676*
X299872Y246704*
X299892Y246733*
X29991Y246764*
X299925Y246796*
X299939Y246829*
X29995Y246862*
X299958Y246897*
X299964Y246932*
X299968Y246967*
X299969Y247002*
X299944Y248177D02*
D01*
X299943Y248213*
X299939Y248248*
X299933Y248283*
X299925Y248317*
X299914Y248351*
X2999Y248384*
X299885Y248416*
X299867Y248446*
X299847Y248476*
X299825Y248504*
X299802Y24853*
X299776Y248555*
X299749Y248578*
X29972Y248598*
X29969Y248617*
X299659Y248634*
X299627Y248648*
X299593Y24866*
X299559Y24867*
X299525Y248678*
X299489Y248682*
X299454Y248685*
X299419*
X299383Y248682*
X299348Y248678*
X299313Y24867*
X299279Y24866*
X299246Y248648*
X299214Y248634*
X299182Y248617*
X299152Y248598*
X299124Y248578*
X299096Y248555*
X299071Y24853*
X299047Y248504*
X299025Y248476*
X299005Y248446*
X298988Y248416*
X298972Y248384*
X298959Y248351*
X298948Y248317*
X298939Y248283*
X298933Y248248*
X29893Y248213*
X298928Y248177*
X29893Y248142*
X298933Y248107*
X298939Y248072*
X298948Y248037*
X298959Y248004*
X298972Y247971*
X298988Y247939*
X299005Y247908*
X299025Y247879*
X299047Y247851*
X299071Y247824*
X299096Y2478*
X299124Y247777*
X299152Y247756*
X299182Y247737*
X299214Y247721*
X299246Y247706*
X299279Y247694*
X299313Y247684*
X299348Y247677*
X299383Y247672*
X299419Y24767*
X299454*
X299489Y247672*
X299525Y247677*
X299559Y247684*
X299593Y247694*
X299627Y247706*
X299659Y247721*
X29969Y247737*
X29972Y247756*
X299749Y247777*
X299776Y2478*
X299802Y247824*
X299825Y247851*
X299847Y247879*
X299867Y247908*
X299885Y247939*
X2999Y247971*
X299914Y248004*
X299925Y248037*
X299933Y248072*
X299939Y248107*
X299943Y248142*
X299944Y248177*
X293294Y242877D02*
D01*
X293293Y242913*
X293289Y242948*
X293283Y242983*
X293275Y243017*
X293264Y243051*
X29325Y243084*
X293235Y243116*
X293217Y243146*
X293197Y243176*
X293175Y243204*
X293152Y24323*
X293126Y243255*
X293099Y243278*
X29307Y243298*
X29304Y243317*
X293009Y243334*
X292977Y243348*
X292943Y24336*
X292909Y24337*
X292875Y243378*
X292839Y243383*
X292804Y243385*
X292769*
X292733Y243383*
X292698Y243378*
X292663Y24337*
X292629Y24336*
X292596Y243348*
X292564Y243334*
X292532Y243317*
X292502Y243298*
X292474Y243278*
X292446Y243255*
X292421Y24323*
X292397Y243204*
X292375Y243176*
X292355Y243146*
X292338Y243116*
X292322Y243084*
X292309Y243051*
X292298Y243017*
X292289Y242983*
X292283Y242948*
X29228Y242913*
X292278Y242877*
X29228Y242842*
X292283Y242807*
X292289Y242772*
X292298Y242737*
X292309Y242704*
X292322Y242671*
X292338Y242639*
X292355Y242608*
X292375Y242579*
X292397Y242551*
X292421Y242524*
X292446Y2425*
X292474Y242477*
X292502Y242456*
X292532Y242437*
X292564Y242421*
X292596Y242406*
X292629Y242394*
X292663Y242384*
X292698Y242377*
X292733Y242372*
X292769Y24237*
X292804*
X292839Y242372*
X292875Y242377*
X292909Y242384*
X292943Y242394*
X292977Y242406*
X293009Y242421*
X29304Y242437*
X29307Y242456*
X293099Y242477*
X293126Y2425*
X293152Y242524*
X293175Y242551*
X293197Y242579*
X293217Y242608*
X293235Y242639*
X29325Y242671*
X293264Y242704*
X293275Y242737*
X293283Y242772*
X293289Y242807*
X293293Y242842*
X293294Y242877*
X301245Y252652D02*
D01*
X301243Y252688*
X30124Y252723*
X301233Y252758*
X301225Y252792*
X301214Y252826*
X301201Y252859*
X301185Y252891*
X301167Y252921*
X301148Y252951*
X301126Y252979*
X301102Y253005*
X301076Y25303*
X301049Y253053*
X301021Y253073*
X300991Y253092*
X300959Y253109*
X300927Y253123*
X300894Y253135*
X300859Y253145*
X300825Y253153*
X30079Y253158*
X300754Y25316*
X300719*
X300683Y253158*
X300648Y253153*
X300614Y253145*
X30058Y253135*
X300546Y253123*
X300514Y253109*
X300483Y253092*
X300453Y253073*
X300424Y253053*
X300397Y25303*
X300371Y253005*
X300347Y252979*
X300326Y252951*
X300306Y252921*
X300288Y252891*
X300273Y252859*
X300259Y252826*
X300248Y252792*
X30024Y252758*
X300234Y252723*
X30023Y252688*
X300229Y252652*
X30023Y252617*
X300234Y252582*
X30024Y252547*
X300248Y252512*
X300259Y252479*
X300273Y252446*
X300288Y252414*
X300306Y252383*
X300326Y252354*
X300347Y252326*
X300371Y252299*
X300397Y252275*
X300424Y252252*
X300453Y252231*
X300483Y252212*
X300514Y252196*
X300546Y252181*
X30058Y252169*
X300614Y252159*
X300648Y252152*
X300683Y252147*
X300719Y252145*
X300754*
X30079Y252147*
X300825Y252152*
X300859Y252159*
X300894Y252169*
X300927Y252181*
X300959Y252196*
X300991Y252212*
X301021Y252231*
X301049Y252252*
X301076Y252275*
X301102Y252299*
X301126Y252326*
X301148Y252354*
X301167Y252383*
X301185Y252414*
X301201Y252446*
X301214Y252479*
X301225Y252512*
X301233Y252547*
X30124Y252582*
X301243Y252617*
X301245Y252652*
X296644Y251402D02*
D01*
X296643Y251438*
X296639Y251473*
X296633Y251508*
X296625Y251542*
X296614Y251576*
X2966Y251609*
X296585Y251641*
X296567Y251671*
X296547Y251701*
X296525Y251729*
X296502Y251755*
X296476Y25178*
X296449Y251803*
X29642Y251823*
X29639Y251842*
X296359Y251859*
X296327Y251873*
X296293Y251885*
X296259Y251895*
X296225Y251903*
X296189Y251908*
X296154Y25191*
X296119*
X296083Y251908*
X296048Y251903*
X296013Y251895*
X295979Y251885*
X295946Y251873*
X295914Y251859*
X295882Y251842*
X295852Y251823*
X295824Y251803*
X295796Y25178*
X295771Y251755*
X295747Y251729*
X295725Y251701*
X295705Y251671*
X295688Y251641*
X295672Y251609*
X295659Y251576*
X295648Y251542*
X295639Y251508*
X295633Y251473*
X29563Y251438*
X295628Y251402*
X29563Y251367*
X295633Y251332*
X295639Y251297*
X295648Y251262*
X295659Y251229*
X295672Y251196*
X295688Y251164*
X295705Y251133*
X295725Y251104*
X295747Y251076*
X295771Y251049*
X295796Y251025*
X295824Y251002*
X295852Y250981*
X295882Y250962*
X295914Y250946*
X295946Y250931*
X295979Y250919*
X296013Y250909*
X296048Y250902*
X296083Y250897*
X296119Y250895*
X296154*
X296189Y250897*
X296225Y250902*
X296259Y250909*
X296293Y250919*
X296327Y250931*
X296359Y250946*
X29639Y250962*
X29642Y250981*
X296449Y251002*
X296476Y251025*
X296502Y251049*
X296525Y251076*
X296547Y251104*
X296567Y251133*
X296585Y251164*
X2966Y251196*
X296614Y251229*
X296625Y251262*
X296633Y251297*
X296639Y251332*
X296643Y251367*
X296644Y251402*
X299744Y252602D02*
D01*
X299743Y252638*
X299739Y252673*
X299733Y252708*
X299725Y252742*
X299714Y252776*
X2997Y252809*
X299685Y252841*
X299667Y252871*
X299647Y252901*
X299625Y252929*
X299602Y252955*
X299576Y25298*
X299549Y253003*
X29952Y253023*
X29949Y253042*
X299459Y253059*
X299427Y253073*
X299393Y253085*
X299359Y253095*
X299325Y253103*
X299289Y253108*
X299254Y25311*
X299219*
X299183Y253108*
X299148Y253103*
X299113Y253095*
X299079Y253085*
X299046Y253073*
X299014Y253059*
X298982Y253042*
X298952Y253023*
X298924Y253003*
X298896Y25298*
X298871Y252955*
X298847Y252929*
X298825Y252901*
X298805Y252871*
X298788Y252841*
X298772Y252809*
X298759Y252776*
X298748Y252742*
X298739Y252708*
X298733Y252673*
X29873Y252638*
X298728Y252602*
X29873Y252567*
X298733Y252532*
X298739Y252497*
X298748Y252462*
X298759Y252429*
X298772Y252396*
X298788Y252364*
X298805Y252333*
X298825Y252304*
X298847Y252276*
X298871Y252249*
X298896Y252225*
X298924Y252202*
X298952Y252181*
X298982Y252162*
X299014Y252146*
X299046Y252131*
X299079Y252119*
X299113Y252109*
X299148Y252102*
X299183Y252097*
X299219Y252095*
X299254*
X299289Y252097*
X299325Y252102*
X299359Y252109*
X299393Y252119*
X299427Y252131*
X299459Y252146*
X29949Y252162*
X29952Y252181*
X299549Y252202*
X299576Y252225*
X299602Y252249*
X299625Y252276*
X299647Y252304*
X299667Y252333*
X299685Y252364*
X2997Y252396*
X299714Y252429*
X299725Y252462*
X299733Y252497*
X299739Y252532*
X299743Y252567*
X299744Y252602*
X296644Y250202D02*
D01*
X296643Y250238*
X296639Y250273*
X296633Y250308*
X296625Y250342*
X296614Y250376*
X2966Y250409*
X296585Y250441*
X296567Y250471*
X296547Y250501*
X296525Y250529*
X296502Y250555*
X296476Y25058*
X296449Y250603*
X29642Y250623*
X29639Y250642*
X296359Y250659*
X296327Y250673*
X296293Y250685*
X296259Y250695*
X296225Y250703*
X296189Y250708*
X296154Y25071*
X296119*
X296083Y250708*
X296048Y250703*
X296013Y250695*
X295979Y250685*
X295946Y250673*
X295914Y250659*
X295882Y250642*
X295852Y250623*
X295824Y250603*
X295796Y25058*
X295771Y250555*
X295747Y250529*
X295725Y250501*
X295705Y250471*
X295688Y250441*
X295672Y250409*
X295659Y250376*
X295648Y250342*
X295639Y250308*
X295633Y250273*
X29563Y250238*
X295628Y250202*
X29563Y250167*
X295633Y250132*
X295639Y250097*
X295648Y250062*
X295659Y250029*
X295672Y249996*
X295688Y249964*
X295705Y249933*
X295725Y249904*
X295747Y249876*
X295771Y249849*
X295796Y249825*
X295824Y249802*
X295852Y249781*
X295882Y249762*
X295914Y249746*
X295946Y249731*
X295979Y249719*
X296013Y249709*
X296048Y249702*
X296083Y249697*
X296119Y249695*
X296154*
X296189Y249697*
X296225Y249702*
X296259Y249709*
X296293Y249719*
X296327Y249731*
X296359Y249746*
X29639Y249762*
X29642Y249781*
X296449Y249802*
X296476Y249825*
X296502Y249849*
X296525Y249876*
X296547Y249904*
X296567Y249933*
X296585Y249964*
X2966Y249996*
X296614Y250029*
X296625Y250062*
X296633Y250097*
X296639Y250132*
X296643Y250167*
X296644Y250202*
X298369Y252627D02*
D01*
X298368Y252663*
X298364Y252698*
X298358Y252733*
X29835Y252767*
X298339Y252801*
X298325Y252834*
X29831Y252866*
X298292Y252896*
X298272Y252926*
X29825Y252954*
X298227Y25298*
X298201Y253005*
X298174Y253028*
X298145Y253048*
X298115Y253067*
X298084Y253084*
X298052Y253098*
X298018Y25311*
X297984Y25312*
X29795Y253128*
X297914Y253132*
X297879Y253135*
X297844*
X297808Y253132*
X297773Y253128*
X297738Y25312*
X297704Y25311*
X297671Y253098*
X297639Y253084*
X297607Y253067*
X297577Y253048*
X297549Y253028*
X297521Y253005*
X297496Y25298*
X297472Y252954*
X29745Y252926*
X29743Y252896*
X297413Y252866*
X297397Y252834*
X297384Y252801*
X297373Y252767*
X297364Y252733*
X297358Y252698*
X297355Y252663*
X297353Y252627*
X297355Y252592*
X297358Y252557*
X297364Y252522*
X297373Y252487*
X297384Y252454*
X297397Y252421*
X297413Y252389*
X29743Y252358*
X29745Y252329*
X297472Y252301*
X297496Y252274*
X297521Y25225*
X297549Y252227*
X297577Y252206*
X297607Y252187*
X297639Y252171*
X297671Y252156*
X297704Y252144*
X297738Y252134*
X297773Y252127*
X297808Y252122*
X297844Y25212*
X297879*
X297914Y252122*
X29795Y252127*
X297984Y252134*
X298018Y252144*
X298052Y252156*
X298084Y252171*
X298115Y252187*
X298145Y252206*
X298174Y252227*
X298201Y25225*
X298227Y252274*
X29825Y252301*
X298272Y252329*
X298292Y252358*
X29831Y252389*
X298325Y252421*
X298339Y252454*
X29835Y252487*
X298358Y252522*
X298364Y252557*
X298368Y252592*
X298369Y252627*
X296544Y249002D02*
D01*
X296543Y249038*
X296539Y249073*
X296533Y249108*
X296525Y249142*
X296514Y249176*
X2965Y249209*
X296485Y249241*
X296467Y249271*
X296447Y249301*
X296426Y249329*
X296402Y249355*
X296376Y24938*
X296349Y249402*
X29632Y249423*
X29629Y249442*
X296259Y249459*
X296227Y249473*
X296193Y249485*
X296159Y249495*
X296125Y249502*
X296089Y249507*
X296054Y24951*
X296019*
X295983Y249507*
X295948Y249502*
X295913Y249495*
X295879Y249485*
X295846Y249473*
X295814Y249459*
X295782Y249442*
X295752Y249423*
X295724Y249402*
X295696Y24938*
X295671Y249355*
X295647Y249329*
X295625Y249301*
X295606Y249271*
X295588Y249241*
X295572Y249209*
X295559Y249176*
X295548Y249142*
X295539Y249108*
X295533Y249073*
X29553Y249038*
X295528Y249002*
X29553Y248967*
X295533Y248931*
X295539Y248896*
X295548Y248862*
X295559Y248828*
X295572Y248795*
X295588Y248764*
X295606Y248733*
X295625Y248703*
X295647Y248676*
X295671Y248649*
X295696Y248625*
X295724Y248602*
X295752Y248581*
X295782Y248562*
X295814Y248546*
X295846Y248531*
X295879Y248519*
X295913Y248509*
X295948Y248502*
X295983Y248497*
X296019Y248494*
X296054*
X296089Y248497*
X296125Y248502*
X296159Y248509*
X296193Y248519*
X296227Y248531*
X296259Y248546*
X29629Y248562*
X29632Y248581*
X296349Y248602*
X296376Y248625*
X296402Y248649*
X296426Y248676*
X296447Y248703*
X296467Y248733*
X296485Y248764*
X2965Y248795*
X296514Y248828*
X296525Y248862*
X296533Y248896*
X296539Y248931*
X296543Y248967*
X296544Y249002*
X295494Y248777D02*
D01*
X295493Y248813*
X295489Y248848*
X295483Y248883*
X295475Y248917*
X295464Y248951*
X29545Y248984*
X295435Y249016*
X295417Y249046*
X295397Y249076*
X295375Y249104*
X295352Y24913*
X295326Y249155*
X295299Y249178*
X29527Y249198*
X29524Y249217*
X295209Y249234*
X295177Y249248*
X295143Y24926*
X295109Y24927*
X295075Y249278*
X295039Y249283*
X295004Y249285*
X294969*
X294933Y249283*
X294898Y249278*
X294863Y24927*
X294829Y24926*
X294796Y249248*
X294764Y249234*
X294732Y249217*
X294702Y249198*
X294674Y249178*
X294646Y249155*
X294621Y24913*
X294597Y249104*
X294575Y249076*
X294555Y249046*
X294538Y249016*
X294522Y248984*
X294509Y248951*
X294498Y248917*
X294489Y248883*
X294483Y248848*
X29448Y248813*
X294478Y248777*
X29448Y248742*
X294483Y248707*
X294489Y248672*
X294498Y248637*
X294509Y248604*
X294522Y248571*
X294538Y248539*
X294555Y248508*
X294575Y248479*
X294597Y248451*
X294621Y248424*
X294646Y2484*
X294674Y248377*
X294702Y248356*
X294732Y248337*
X294764Y248321*
X294796Y248306*
X294829Y248294*
X294863Y248284*
X294898Y248277*
X294933Y248272*
X294969Y24827*
X295004*
X295039Y248272*
X295075Y248277*
X295109Y248284*
X295143Y248294*
X295177Y248306*
X295209Y248321*
X29524Y248337*
X29527Y248356*
X295299Y248377*
X295326Y2484*
X295352Y248424*
X295375Y248451*
X295397Y248479*
X295417Y248508*
X295435Y248539*
X29545Y248571*
X295464Y248604*
X295475Y248637*
X295483Y248672*
X295489Y248707*
X295493Y248742*
X295494Y248777*
X291544Y261627D02*
D01*
X291543Y261663*
X291539Y261698*
X291533Y261733*
X291525Y261767*
X291514Y261801*
X2915Y261834*
X291485Y261866*
X291467Y261896*
X291447Y261926*
X291425Y261954*
X291402Y26198*
X291376Y262005*
X291349Y262028*
X29132Y262048*
X29129Y262067*
X291259Y262084*
X291227Y262098*
X291193Y26211*
X291159Y26212*
X291124Y262128*
X291089Y262133*
X291054Y262135*
X291019*
X290983Y262133*
X290948Y262128*
X290913Y26212*
X290879Y26211*
X290846Y262098*
X290814Y262084*
X290782Y262067*
X290752Y262048*
X290724Y262028*
X290696Y262005*
X290671Y26198*
X290647Y261954*
X290625Y261926*
X290605Y261896*
X290588Y261866*
X290572Y261834*
X290559Y261801*
X290548Y261767*
X290539Y261733*
X290533Y261698*
X29053Y261663*
X290528Y261627*
X29053Y261592*
X290533Y261557*
X290539Y261522*
X290548Y261487*
X290559Y261454*
X290572Y261421*
X290588Y261389*
X290605Y261358*
X290625Y261329*
X290647Y261301*
X290671Y261274*
X290696Y26125*
X290724Y261227*
X290752Y261206*
X290782Y261187*
X290814Y261171*
X290846Y261156*
X290879Y261144*
X290913Y261134*
X290948Y261127*
X290983Y261122*
X291019Y26112*
X291054*
X291089Y261122*
X291124Y261127*
X291159Y261134*
X291193Y261144*
X291227Y261156*
X291259Y261171*
X29129Y261187*
X29132Y261206*
X291349Y261227*
X291376Y26125*
X291402Y261274*
X291425Y261301*
X291447Y261329*
X291467Y261358*
X291485Y261389*
X2915Y261421*
X291514Y261454*
X291525Y261487*
X291533Y261522*
X291539Y261557*
X291543Y261592*
X291544Y261627*
X304094Y257227D02*
D01*
X304093Y257263*
X304089Y257298*
X304083Y257333*
X304075Y257367*
X304064Y257401*
X30405Y257434*
X304035Y257466*
X304017Y257496*
X303997Y257526*
X303975Y257554*
X303952Y25758*
X303926Y257605*
X303899Y257628*
X30387Y257648*
X30384Y257667*
X303809Y257684*
X303777Y257698*
X303743Y25771*
X303709Y25772*
X303675Y257728*
X303639Y257733*
X303604Y257735*
X303569*
X303533Y257733*
X303498Y257728*
X303463Y25772*
X303429Y25771*
X303396Y257698*
X303364Y257684*
X303332Y257667*
X303302Y257648*
X303274Y257628*
X303246Y257605*
X303221Y25758*
X303197Y257554*
X303175Y257526*
X303155Y257496*
X303138Y257466*
X303122Y257434*
X303109Y257401*
X303098Y257367*
X303089Y257333*
X303083Y257298*
X30308Y257263*
X303078Y257227*
X30308Y257192*
X303083Y257157*
X303089Y257122*
X303098Y257087*
X303109Y257054*
X303122Y257021*
X303138Y256989*
X303155Y256958*
X303175Y256929*
X303197Y256901*
X303221Y256874*
X303246Y25685*
X303274Y256827*
X303302Y256806*
X303332Y256787*
X303364Y256771*
X303396Y256756*
X303429Y256744*
X303463Y256734*
X303498Y256727*
X303533Y256722*
X303569Y25672*
X303604*
X303639Y256722*
X303675Y256727*
X303709Y256734*
X303743Y256744*
X303777Y256756*
X303809Y256771*
X30384Y256787*
X30387Y256806*
X303899Y256827*
X303926Y25685*
X303952Y256874*
X303975Y256901*
X303997Y256929*
X304017Y256958*
X304035Y256989*
X30405Y257021*
X304064Y257054*
X304075Y257087*
X304083Y257122*
X304089Y257157*
X304093Y257192*
X304094Y257227*
X302194Y246902D02*
D01*
X302193Y246938*
X302189Y246973*
X302183Y247008*
X302175Y247042*
X302164Y247076*
X30215Y247109*
X302135Y247141*
X302117Y247171*
X302097Y247201*
X302075Y247229*
X302052Y247255*
X302026Y24728*
X301999Y247303*
X30197Y247323*
X30194Y247342*
X301909Y247359*
X301877Y247373*
X301843Y247385*
X301809Y247395*
X301775Y247403*
X301739Y247408*
X301704Y24741*
X301669*
X301633Y247408*
X301598Y247403*
X301563Y247395*
X301529Y247385*
X301496Y247373*
X301464Y247359*
X301432Y247342*
X301402Y247323*
X301374Y247303*
X301346Y24728*
X301321Y247255*
X301297Y247229*
X301275Y247201*
X301255Y247171*
X301238Y247141*
X301222Y247109*
X301209Y247076*
X301198Y247042*
X301189Y247008*
X301183Y246973*
X30118Y246938*
X301178Y246902*
X30118Y246867*
X301183Y246832*
X301189Y246797*
X301198Y246762*
X301209Y246729*
X301222Y246696*
X301238Y246664*
X301255Y246633*
X301275Y246604*
X301297Y246576*
X301321Y246549*
X301346Y246525*
X301374Y246502*
X301402Y246481*
X301432Y246462*
X301464Y246446*
X301496Y246431*
X301529Y246419*
X301563Y246409*
X301598Y246402*
X301633Y246397*
X301669Y246395*
X301704*
X301739Y246397*
X301775Y246402*
X301809Y246409*
X301843Y246419*
X301877Y246431*
X301909Y246446*
X30194Y246462*
X30197Y246481*
X301999Y246502*
X302026Y246525*
X302052Y246549*
X302075Y246576*
X302097Y246604*
X302117Y246633*
X302135Y246664*
X30215Y246696*
X302164Y246729*
X302175Y246762*
X302183Y246797*
X302189Y246832*
X302193Y246867*
X302194Y246902*
X292269Y245202D02*
D01*
X292268Y245238*
X292264Y245273*
X292258Y245308*
X29225Y245342*
X292239Y245376*
X292225Y245409*
X29221Y245441*
X292192Y245471*
X292172Y245501*
X29215Y245529*
X292127Y245555*
X292101Y24558*
X292074Y245603*
X292045Y245623*
X292015Y245642*
X291984Y245659*
X291952Y245673*
X291918Y245685*
X291884Y245695*
X29185Y245703*
X291814Y245707*
X291779Y24571*
X291744*
X291708Y245707*
X291673Y245703*
X291638Y245695*
X291604Y245685*
X291571Y245673*
X291539Y245659*
X291507Y245642*
X291477Y245623*
X291449Y245603*
X291421Y24558*
X291396Y245555*
X291372Y245529*
X29135Y245501*
X29133Y245471*
X291313Y245441*
X291297Y245409*
X291284Y245376*
X291273Y245342*
X291264Y245308*
X291258Y245273*
X291255Y245238*
X291253Y245202*
X291255Y245167*
X291258Y245132*
X291264Y245097*
X291273Y245062*
X291284Y245029*
X291297Y244996*
X291313Y244964*
X29133Y244933*
X29135Y244904*
X291372Y244876*
X291396Y244849*
X291421Y244825*
X291449Y244802*
X291477Y244781*
X291507Y244762*
X291539Y244746*
X291571Y244731*
X291604Y244719*
X291638Y244709*
X291673Y244702*
X291708Y244697*
X291744Y244695*
X291779*
X291814Y244697*
X29185Y244702*
X291884Y244709*
X291918Y244719*
X291952Y244731*
X291984Y244746*
X292015Y244762*
X292045Y244781*
X292074Y244802*
X292101Y244825*
X292127Y244849*
X29215Y244876*
X292172Y244904*
X292192Y244933*
X29221Y244964*
X292225Y244996*
X292239Y245029*
X29225Y245062*
X292258Y245097*
X292264Y245132*
X292268Y245167*
X292269Y245202*
X302744Y252652D02*
D01*
X302743Y252688*
X302739Y252723*
X302733Y252758*
X302725Y252792*
X302714Y252826*
X3027Y252859*
X302685Y252891*
X302667Y252921*
X302647Y252951*
X302625Y252979*
X302602Y253005*
X302576Y25303*
X302549Y253053*
X30252Y253073*
X30249Y253092*
X302459Y253109*
X302427Y253123*
X302393Y253135*
X302359Y253145*
X302324Y253153*
X302289Y253158*
X302254Y25316*
X302219*
X302183Y253158*
X302148Y253153*
X302113Y253145*
X302079Y253135*
X302046Y253123*
X302014Y253109*
X301982Y253092*
X301952Y253073*
X301924Y253053*
X301896Y25303*
X301871Y253005*
X301847Y252979*
X301825Y252951*
X301805Y252921*
X301788Y252891*
X301772Y252859*
X301759Y252826*
X301748Y252792*
X301739Y252758*
X301733Y252723*
X30173Y252688*
X301728Y252652*
X30173Y252617*
X301733Y252582*
X301739Y252547*
X301748Y252512*
X301759Y252479*
X301772Y252446*
X301788Y252414*
X301805Y252383*
X301825Y252354*
X301847Y252326*
X301871Y252299*
X301896Y252275*
X301924Y252252*
X301952Y252231*
X301982Y252212*
X302014Y252196*
X302046Y252181*
X302079Y252169*
X302113Y252159*
X302148Y252152*
X302183Y252147*
X302219Y252145*
X302254*
X302289Y252147*
X302324Y252152*
X302359Y252159*
X302393Y252169*
X302427Y252181*
X302459Y252196*
X30249Y252212*
X30252Y252231*
X302549Y252252*
X302576Y252275*
X302602Y252299*
X302625Y252326*
X302647Y252354*
X302667Y252383*
X302685Y252414*
X3027Y252446*
X302714Y252479*
X302725Y252512*
X302733Y252547*
X302739Y252582*
X302743Y252617*
X302744Y252652*
X292244Y252727D02*
D01*
X292243Y252763*
X292239Y252798*
X292233Y252833*
X292225Y252867*
X292214Y252901*
X2922Y252934*
X292185Y252966*
X292167Y252996*
X292147Y253026*
X292125Y253054*
X292102Y25308*
X292076Y253105*
X292049Y253128*
X29202Y253148*
X29199Y253167*
X291959Y253184*
X291927Y253198*
X291893Y25321*
X291859Y25322*
X291824Y253228*
X291789Y253232*
X291754Y253235*
X291719*
X291683Y253232*
X291648Y253228*
X291613Y25322*
X291579Y25321*
X291546Y253198*
X291514Y253184*
X291482Y253167*
X291452Y253148*
X291424Y253128*
X291396Y253105*
X291371Y25308*
X291347Y253054*
X291325Y253026*
X291305Y252996*
X291288Y252966*
X291272Y252934*
X291259Y252901*
X291248Y252867*
X291239Y252833*
X291233Y252798*
X29123Y252763*
X291228Y252727*
X29123Y252692*
X291233Y252657*
X291239Y252622*
X291248Y252587*
X291259Y252554*
X291272Y252521*
X291288Y252489*
X291305Y252458*
X291325Y252429*
X291347Y252401*
X291371Y252374*
X291396Y25235*
X291424Y252327*
X291452Y252306*
X291482Y252287*
X291514Y252271*
X291546Y252256*
X291579Y252244*
X291613Y252234*
X291648Y252227*
X291683Y252222*
X291719Y25222*
X291754*
X291789Y252222*
X291824Y252227*
X291859Y252234*
X291893Y252244*
X291927Y252256*
X291959Y252271*
X29199Y252287*
X29202Y252306*
X292049Y252327*
X292076Y25235*
X292102Y252374*
X292125Y252401*
X292147Y252429*
X292167Y252458*
X292185Y252489*
X2922Y252521*
X292214Y252554*
X292225Y252587*
X292233Y252622*
X292239Y252657*
X292243Y252692*
X292244Y252727*
X298144Y255602D02*
D01*
X298143Y255638*
X298139Y255673*
X298133Y255708*
X298125Y255742*
X298114Y255776*
X2981Y255809*
X298085Y255841*
X298067Y255871*
X298047Y255901*
X298025Y255929*
X298002Y255955*
X297976Y25598*
X297949Y256003*
X29792Y256023*
X29789Y256042*
X297859Y256059*
X297827Y256073*
X297793Y256085*
X297759Y256095*
X297725Y256103*
X297689Y256107*
X297654Y25611*
X297619*
X297583Y256107*
X297548Y256103*
X297513Y256095*
X297479Y256085*
X297446Y256073*
X297414Y256059*
X297382Y256042*
X297352Y256023*
X297324Y256003*
X297296Y25598*
X297271Y255955*
X297247Y255929*
X297225Y255901*
X297205Y255871*
X297188Y255841*
X297172Y255809*
X297159Y255776*
X297148Y255742*
X297139Y255708*
X297133Y255673*
X29713Y255638*
X297128Y255602*
X29713Y255567*
X297133Y255532*
X297139Y255497*
X297148Y255462*
X297159Y255429*
X297172Y255396*
X297188Y255364*
X297205Y255333*
X297225Y255304*
X297247Y255276*
X297271Y255249*
X297296Y255225*
X297324Y255202*
X297352Y255181*
X297382Y255162*
X297414Y255146*
X297446Y255131*
X297479Y255119*
X297513Y255109*
X297548Y255102*
X297583Y255097*
X297619Y255095*
X297654*
X297689Y255097*
X297725Y255102*
X297759Y255109*
X297793Y255119*
X297827Y255131*
X297859Y255146*
X29789Y255162*
X29792Y255181*
X297949Y255202*
X297976Y255225*
X298002Y255249*
X298025Y255276*
X298047Y255304*
X298067Y255333*
X298085Y255364*
X2981Y255396*
X298114Y255429*
X298125Y255462*
X298133Y255497*
X298139Y255532*
X298143Y255567*
X298144Y255602*
X296819Y246527D02*
D01*
X296818Y246563*
X296814Y246598*
X296808Y246633*
X2968Y246667*
X296789Y246701*
X296775Y246734*
X29676Y246766*
X296742Y246796*
X296722Y246826*
X2967Y246854*
X296677Y24688*
X296651Y246905*
X296624Y246928*
X296595Y246948*
X296565Y246967*
X296534Y246984*
X296502Y246998*
X296468Y24701*
X296434Y24702*
X296399Y247028*
X296364Y247033*
X296329Y247035*
X296294*
X296258Y247033*
X296223Y247028*
X296188Y24702*
X296154Y24701*
X296121Y246998*
X296089Y246984*
X296057Y246967*
X296027Y246948*
X295999Y246928*
X295971Y246905*
X295946Y24688*
X295922Y246854*
X2959Y246826*
X29588Y246796*
X295863Y246766*
X295847Y246734*
X295834Y246701*
X295823Y246667*
X295814Y246633*
X295808Y246598*
X295805Y246563*
X295803Y246527*
X295805Y246492*
X295808Y246457*
X295814Y246422*
X295823Y246387*
X295834Y246354*
X295847Y246321*
X295863Y246289*
X29588Y246258*
X2959Y246229*
X295922Y246201*
X295946Y246174*
X295971Y24615*
X295999Y246127*
X296027Y246106*
X296057Y246087*
X296089Y246071*
X296121Y246056*
X296154Y246044*
X296188Y246034*
X296223Y246027*
X296258Y246022*
X296294Y24602*
X296329*
X296364Y246022*
X296399Y246027*
X296434Y246034*
X296468Y246044*
X296502Y246056*
X296534Y246071*
X296565Y246087*
X296595Y246106*
X296624Y246127*
X296651Y24615*
X296677Y246174*
X2967Y246201*
X296722Y246229*
X296742Y246258*
X29676Y246289*
X296775Y246321*
X296789Y246354*
X2968Y246387*
X296808Y246422*
X296814Y246457*
X296818Y246492*
X296819Y246527*
X298144Y254777D02*
D01*
X298143Y254813*
X298139Y254848*
X298133Y254883*
X298125Y254917*
X298114Y254951*
X2981Y254984*
X298085Y255016*
X298067Y255046*
X298047Y255076*
X298025Y255104*
X298002Y25513*
X297976Y255155*
X297949Y255178*
X29792Y255198*
X29789Y255217*
X297859Y255234*
X297827Y255248*
X297793Y25526*
X297759Y25527*
X297725Y255278*
X297689Y255283*
X297654Y255285*
X297619*
X297583Y255283*
X297548Y255278*
X297513Y25527*
X297479Y25526*
X297446Y255248*
X297414Y255234*
X297382Y255217*
X297352Y255198*
X297324Y255178*
X297296Y255155*
X297271Y25513*
X297247Y255104*
X297225Y255076*
X297205Y255046*
X297188Y255016*
X297172Y254984*
X297159Y254951*
X297148Y254917*
X297139Y254883*
X297133Y254848*
X29713Y254813*
X297128Y254777*
X29713Y254742*
X297133Y254707*
X297139Y254672*
X297148Y254637*
X297159Y254604*
X297172Y254571*
X297188Y254539*
X297205Y254508*
X297225Y254479*
X297247Y254451*
X297271Y254424*
X297296Y2544*
X297324Y254377*
X297352Y254356*
X297382Y254337*
X297414Y254321*
X297446Y254306*
X297479Y254294*
X297513Y254284*
X297548Y254277*
X297583Y254272*
X297619Y25427*
X297654*
X297689Y254272*
X297725Y254277*
X297759Y254284*
X297793Y254294*
X297827Y254306*
X297859Y254321*
X29789Y254337*
X29792Y254356*
X297949Y254377*
X297976Y2544*
X298002Y254424*
X298025Y254451*
X298047Y254479*
X298067Y254508*
X298085Y254539*
X2981Y254571*
X298114Y254604*
X298125Y254637*
X298133Y254672*
X298139Y254707*
X298143Y254742*
X298144Y254777*
X297244Y257677D02*
D01*
X297243Y257713*
X297239Y257748*
X297233Y257783*
X297225Y257817*
X297214Y257851*
X2972Y257884*
X297185Y257916*
X297167Y257946*
X297147Y257976*
X297125Y258004*
X297102Y25803*
X297076Y258055*
X297049Y258078*
X29702Y258098*
X29699Y258117*
X296959Y258134*
X296927Y258148*
X296893Y25816*
X296859Y25817*
X296825Y258178*
X296789Y258182*
X296754Y258185*
X296719*
X296683Y258182*
X296648Y258178*
X296613Y25817*
X296579Y25816*
X296546Y258148*
X296514Y258134*
X296482Y258117*
X296452Y258098*
X296424Y258078*
X296396Y258055*
X296371Y25803*
X296347Y258004*
X296325Y257976*
X296305Y257946*
X296288Y257916*
X296272Y257884*
X296259Y257851*
X296248Y257817*
X296239Y257783*
X296233Y257748*
X29623Y257713*
X296228Y257677*
X29623Y257642*
X296233Y257607*
X296239Y257572*
X296248Y257537*
X296259Y257504*
X296272Y257471*
X296288Y257439*
X296305Y257408*
X296325Y257379*
X296347Y257351*
X296371Y257324*
X296396Y2573*
X296424Y257277*
X296452Y257256*
X296482Y257237*
X296514Y257221*
X296546Y257206*
X296579Y257194*
X296613Y257184*
X296648Y257177*
X296683Y257172*
X296719Y25717*
X296754*
X296789Y257172*
X296825Y257177*
X296859Y257184*
X296893Y257194*
X296927Y257206*
X296959Y257221*
X29699Y257237*
X29702Y257256*
X297049Y257277*
X297076Y2573*
X297102Y257324*
X297125Y257351*
X297147Y257379*
X297167Y257408*
X297185Y257439*
X2972Y257471*
X297214Y257504*
X297225Y257537*
X297233Y257572*
X297239Y257607*
X297243Y257642*
X297244Y257677*
X294194Y247227D02*
D01*
X294193Y247263*
X294189Y247298*
X294183Y247333*
X294175Y247367*
X294164Y247401*
X29415Y247434*
X294135Y247466*
X294117Y247496*
X294097Y247526*
X294075Y247554*
X294052Y24758*
X294026Y247605*
X293999Y247628*
X29397Y247648*
X29394Y247667*
X293909Y247684*
X293877Y247698*
X293843Y24771*
X293809Y24772*
X293775Y247728*
X293739Y247733*
X293704Y247735*
X293669*
X293633Y247733*
X293598Y247728*
X293563Y24772*
X293529Y24771*
X293496Y247698*
X293464Y247684*
X293432Y247667*
X293402Y247648*
X293374Y247628*
X293346Y247605*
X293321Y24758*
X293297Y247554*
X293275Y247526*
X293255Y247496*
X293238Y247466*
X293222Y247434*
X293209Y247401*
X293198Y247367*
X293189Y247333*
X293183Y247298*
X29318Y247263*
X293178Y247227*
X29318Y247192*
X293183Y247157*
X293189Y247122*
X293198Y247087*
X293209Y247054*
X293222Y247021*
X293238Y246989*
X293255Y246958*
X293275Y246929*
X293297Y246901*
X293321Y246874*
X293346Y24685*
X293374Y246827*
X293402Y246806*
X293432Y246787*
X293464Y246771*
X293496Y246756*
X293529Y246744*
X293563Y246734*
X293598Y246727*
X293633Y246722*
X293669Y24672*
X293704*
X293739Y246722*
X293775Y246727*
X293809Y246734*
X293843Y246744*
X293877Y246756*
X293909Y246771*
X29394Y246787*
X29397Y246806*
X293999Y246827*
X294026Y24685*
X294052Y246874*
X294075Y246901*
X294097Y246929*
X294117Y246958*
X294135Y246989*
X29415Y247021*
X294164Y247054*
X294175Y247087*
X294183Y247122*
X294189Y247157*
X294193Y247192*
X294194Y247227*
X293619Y249927D02*
D01*
X293618Y249963*
X293614Y249998*
X293608Y250033*
X2936Y250067*
X293589Y250101*
X293575Y250134*
X29356Y250166*
X293542Y250196*
X293522Y250226*
X2935Y250254*
X293477Y25028*
X293451Y250305*
X293424Y250328*
X293395Y250348*
X293365Y250367*
X293334Y250384*
X293302Y250398*
X293268Y25041*
X293234Y25042*
X293199Y250428*
X293164Y250433*
X293129Y250435*
X293094*
X293058Y250433*
X293023Y250428*
X292988Y25042*
X292954Y25041*
X292921Y250398*
X292889Y250384*
X292857Y250367*
X292827Y250348*
X292799Y250328*
X292771Y250305*
X292746Y25028*
X292722Y250254*
X2927Y250226*
X29268Y250196*
X292663Y250166*
X292647Y250134*
X292634Y250101*
X292623Y250067*
X292614Y250033*
X292608Y249998*
X292605Y249963*
X292603Y249927*
X292605Y249892*
X292608Y249857*
X292614Y249822*
X292623Y249787*
X292634Y249754*
X292647Y249721*
X292663Y249689*
X29268Y249658*
X2927Y249629*
X292722Y249601*
X292746Y249574*
X292771Y24955*
X292799Y249527*
X292827Y249506*
X292857Y249487*
X292889Y249471*
X292921Y249456*
X292954Y249444*
X292988Y249434*
X293023Y249427*
X293058Y249422*
X293094Y24942*
X293129*
X293164Y249422*
X293199Y249427*
X293234Y249434*
X293268Y249444*
X293302Y249456*
X293334Y249471*
X293365Y249487*
X293395Y249506*
X293424Y249527*
X293451Y24955*
X293477Y249574*
X2935Y249601*
X293522Y249629*
X293542Y249658*
X29356Y249689*
X293575Y249721*
X293589Y249754*
X2936Y249787*
X293608Y249822*
X293614Y249857*
X293618Y249892*
X293619Y249927*
X292344D02*
D01*
X292343Y249963*
X292339Y249998*
X292333Y250033*
X292325Y250067*
X292314Y250101*
X2923Y250134*
X292285Y250166*
X292267Y250196*
X292247Y250226*
X292225Y250254*
X292202Y25028*
X292176Y250305*
X292149Y250328*
X29212Y250348*
X29209Y250367*
X292059Y250384*
X292027Y250398*
X291993Y25041*
X291959Y25042*
X291924Y250428*
X291889Y250433*
X291854Y250435*
X291819*
X291783Y250433*
X291748Y250428*
X291713Y25042*
X291679Y25041*
X291646Y250398*
X291614Y250384*
X291582Y250367*
X291552Y250348*
X291524Y250328*
X291496Y250305*
X291471Y25028*
X291447Y250254*
X291425Y250226*
X291405Y250196*
X291388Y250166*
X291372Y250134*
X291359Y250101*
X291348Y250067*
X291339Y250033*
X291333Y249998*
X29133Y249963*
X291328Y249927*
X29133Y249892*
X291333Y249857*
X291339Y249822*
X291348Y249787*
X291359Y249754*
X291372Y249721*
X291388Y249689*
X291405Y249658*
X291425Y249629*
X291447Y249601*
X291471Y249574*
X291496Y24955*
X291524Y249527*
X291552Y249506*
X291582Y249487*
X291614Y249471*
X291646Y249456*
X291679Y249444*
X291713Y249434*
X291748Y249427*
X291783Y249422*
X291819Y24942*
X291854*
X291889Y249422*
X291924Y249427*
X291959Y249434*
X291993Y249444*
X292027Y249456*
X292059Y249471*
X29209Y249487*
X29212Y249506*
X292149Y249527*
X292176Y24955*
X292202Y249574*
X292225Y249601*
X292247Y249629*
X292267Y249658*
X292285Y249689*
X2923Y249721*
X292314Y249754*
X292325Y249787*
X292333Y249822*
X292339Y249857*
X292343Y249892*
X292344Y249927*
X301319Y250552D02*
D01*
X301318Y250588*
X301314Y250623*
X301308Y250658*
X3013Y250692*
X301289Y250726*
X301275Y250759*
X30126Y250791*
X301242Y250821*
X301222Y250851*
X3012Y250879*
X301177Y250905*
X301151Y25093*
X301124Y250953*
X301095Y250973*
X301065Y250992*
X301034Y251009*
X301002Y251023*
X300968Y251035*
X300934Y251045*
X3009Y251053*
X300864Y251057*
X300829Y25106*
X300794*
X300758Y251057*
X300723Y251053*
X300688Y251045*
X300654Y251035*
X300621Y251023*
X300589Y251009*
X300557Y250992*
X300527Y250973*
X300499Y250953*
X300471Y25093*
X300446Y250905*
X300422Y250879*
X3004Y250851*
X30038Y250821*
X300363Y250791*
X300347Y250759*
X300334Y250726*
X300323Y250692*
X300314Y250658*
X300308Y250623*
X300305Y250588*
X300303Y250552*
X300305Y250517*
X300308Y250482*
X300314Y250447*
X300323Y250412*
X300334Y250379*
X300347Y250346*
X300363Y250314*
X30038Y250283*
X3004Y250254*
X300422Y250226*
X300446Y250199*
X300471Y250175*
X300499Y250152*
X300527Y250131*
X300557Y250112*
X300589Y250096*
X300621Y250081*
X300654Y250069*
X300688Y250059*
X300723Y250052*
X300758Y250047*
X300794Y250045*
X300829*
X300864Y250047*
X3009Y250052*
X300934Y250059*
X300968Y250069*
X301002Y250081*
X301034Y250096*
X301065Y250112*
X301095Y250131*
X301124Y250152*
X301151Y250175*
X301177Y250199*
X3012Y250226*
X301222Y250254*
X301242Y250283*
X30126Y250314*
X301275Y250346*
X301289Y250379*
X3013Y250412*
X301308Y250447*
X301314Y250482*
X301318Y250517*
X301319Y250552*
X288919Y248902D02*
D01*
X288918Y248938*
X288914Y248973*
X288908Y249008*
X2889Y249042*
X288889Y249076*
X288875Y249109*
X28886Y249141*
X288842Y249171*
X288822Y249201*
X2888Y249229*
X288777Y249255*
X288751Y24928*
X288724Y249303*
X288695Y249323*
X288665Y249342*
X288634Y249359*
X288602Y249373*
X288568Y249385*
X288534Y249395*
X2885Y249403*
X288464Y249408*
X288429Y24941*
X288394*
X288358Y249408*
X288323Y249403*
X288288Y249395*
X288254Y249385*
X288221Y249373*
X288189Y249359*
X288157Y249342*
X288127Y249323*
X288099Y249303*
X288071Y24928*
X288046Y249255*
X288022Y249229*
X288Y249201*
X28798Y249171*
X287963Y249141*
X287947Y249109*
X287934Y249076*
X287923Y249042*
X287914Y249008*
X287908Y248973*
X287905Y248938*
X287903Y248902*
X287905Y248867*
X287908Y248832*
X287914Y248797*
X287923Y248762*
X287934Y248729*
X287947Y248696*
X287963Y248664*
X28798Y248633*
X288Y248604*
X288022Y248576*
X288046Y248549*
X288071Y248525*
X288099Y248502*
X288127Y248481*
X288157Y248462*
X288189Y248446*
X288221Y248431*
X288254Y248419*
X288288Y248409*
X288323Y248402*
X288358Y248397*
X288394Y248395*
X288429*
X288464Y248397*
X2885Y248402*
X288534Y248409*
X288568Y248419*
X288602Y248431*
X288634Y248446*
X288665Y248462*
X288695Y248481*
X288724Y248502*
X288751Y248525*
X288777Y248549*
X2888Y248576*
X288822Y248604*
X288842Y248633*
X28886Y248664*
X288875Y248696*
X288889Y248729*
X2889Y248762*
X288908Y248797*
X288914Y248832*
X288918Y248867*
X288919Y248902*
X291544Y259127D02*
D01*
X291543Y259163*
X291539Y259198*
X291533Y259233*
X291525Y259267*
X291514Y259301*
X2915Y259334*
X291485Y259366*
X291467Y259396*
X291447Y259426*
X291425Y259454*
X291402Y25948*
X291376Y259505*
X291349Y259528*
X29132Y259548*
X29129Y259567*
X291259Y259584*
X291227Y259598*
X291193Y25961*
X291159Y25962*
X291124Y259628*
X291089Y259633*
X291054Y259635*
X291019*
X290983Y259633*
X290948Y259628*
X290913Y25962*
X290879Y25961*
X290846Y259598*
X290814Y259584*
X290782Y259567*
X290752Y259548*
X290724Y259528*
X290696Y259505*
X290671Y25948*
X290647Y259454*
X290625Y259426*
X290605Y259396*
X290588Y259366*
X290572Y259334*
X290559Y259301*
X290548Y259267*
X290539Y259233*
X290533Y259198*
X29053Y259163*
X290528Y259127*
X29053Y259092*
X290533Y259057*
X290539Y259022*
X290548Y258987*
X290559Y258954*
X290572Y258921*
X290588Y258889*
X290605Y258858*
X290625Y258829*
X290647Y258801*
X290671Y258774*
X290696Y25875*
X290724Y258727*
X290752Y258706*
X290782Y258687*
X290814Y258671*
X290846Y258656*
X290879Y258644*
X290913Y258634*
X290948Y258627*
X290983Y258622*
X291019Y25862*
X291054*
X291089Y258622*
X291124Y258627*
X291159Y258634*
X291193Y258644*
X291227Y258656*
X291259Y258671*
X29129Y258687*
X29132Y258706*
X291349Y258727*
X291376Y25875*
X291402Y258774*
X291425Y258801*
X291447Y258829*
X291467Y258858*
X291485Y258889*
X2915Y258921*
X291514Y258954*
X291525Y258987*
X291533Y259022*
X291539Y259057*
X291543Y259092*
X291544Y259127*
X294744D02*
D01*
X294743Y259163*
X294739Y259198*
X294733Y259233*
X294725Y259267*
X294714Y259301*
X2947Y259334*
X294685Y259366*
X294667Y259396*
X294647Y259426*
X294625Y259454*
X294602Y25948*
X294576Y259505*
X294549Y259528*
X29452Y259548*
X29449Y259567*
X294459Y259584*
X294427Y259598*
X294393Y25961*
X294359Y25962*
X294324Y259628*
X294289Y259633*
X294254Y259635*
X294219*
X294183Y259633*
X294148Y259628*
X294113Y25962*
X294079Y25961*
X294046Y259598*
X294014Y259584*
X293982Y259567*
X293952Y259548*
X293924Y259528*
X293896Y259505*
X293871Y25948*
X293847Y259454*
X293825Y259426*
X293805Y259396*
X293788Y259366*
X293772Y259334*
X293759Y259301*
X293748Y259267*
X293739Y259233*
X293733Y259198*
X29373Y259163*
X293728Y259127*
X29373Y259092*
X293733Y259057*
X293739Y259022*
X293748Y258987*
X293759Y258954*
X293772Y258921*
X293788Y258889*
X293805Y258858*
X293825Y258829*
X293847Y258801*
X293871Y258774*
X293896Y25875*
X293924Y258727*
X293952Y258706*
X293982Y258687*
X294014Y258671*
X294046Y258656*
X294079Y258644*
X294113Y258634*
X294148Y258627*
X294183Y258622*
X294219Y25862*
X294254*
X294289Y258622*
X294324Y258627*
X294359Y258634*
X294393Y258644*
X294427Y258656*
X294459Y258671*
X29449Y258687*
X29452Y258706*
X294549Y258727*
X294576Y25875*
X294602Y258774*
X294625Y258801*
X294647Y258829*
X294667Y258858*
X294685Y258889*
X2947Y258921*
X294714Y258954*
X294725Y258987*
X294733Y259022*
X294739Y259057*
X294743Y259092*
X294744Y259127*
X288419Y253502D02*
D01*
X288418Y253538*
X288414Y253573*
X288408Y253608*
X2884Y253642*
X288389Y253676*
X288375Y253709*
X28836Y253741*
X288342Y253771*
X288322Y253801*
X2883Y253829*
X288277Y253855*
X288251Y25388*
X288224Y253903*
X288195Y253923*
X288165Y253942*
X288134Y253959*
X288102Y253973*
X288068Y253985*
X288034Y253995*
X288Y254003*
X287964Y254008*
X287929Y25401*
X287894*
X287858Y254008*
X287823Y254003*
X287788Y253995*
X287754Y253985*
X287721Y253973*
X287689Y253959*
X287657Y253942*
X287627Y253923*
X287599Y253903*
X287571Y25388*
X287546Y253855*
X287522Y253829*
X2875Y253801*
X28748Y253771*
X287463Y253741*
X287447Y253709*
X287434Y253676*
X287423Y253642*
X287414Y253608*
X287408Y253573*
X287405Y253538*
X287403Y253502*
X287405Y253467*
X287408Y253432*
X287414Y253397*
X287423Y253362*
X287434Y253329*
X287447Y253296*
X287463Y253264*
X28748Y253233*
X2875Y253204*
X287522Y253176*
X287546Y253149*
X287571Y253125*
X287599Y253102*
X287627Y253081*
X287657Y253062*
X287689Y253046*
X287721Y253031*
X287754Y253019*
X287788Y253009*
X287823Y253002*
X287858Y252997*
X287894Y252995*
X287929*
X287964Y252997*
X288Y253002*
X288034Y253009*
X288068Y253019*
X288102Y253031*
X288134Y253046*
X288165Y253062*
X288195Y253081*
X288224Y253102*
X288251Y253125*
X288277Y253149*
X2883Y253176*
X288322Y253204*
X288342Y253233*
X28836Y253264*
X288375Y253296*
X288389Y253329*
X2884Y253362*
X288408Y253397*
X288414Y253432*
X288418Y253467*
X288419Y253502*
X292494Y246852D02*
D01*
X292493Y246888*
X292489Y246923*
X292483Y246958*
X292475Y246992*
X292464Y247026*
X29245Y247059*
X292435Y247091*
X292417Y247121*
X292397Y247151*
X292375Y247179*
X292352Y247205*
X292326Y24723*
X292299Y247253*
X29227Y247273*
X29224Y247292*
X292209Y247309*
X292177Y247323*
X292143Y247335*
X292109Y247345*
X292075Y247353*
X292039Y247358*
X292004Y24736*
X291969*
X291933Y247358*
X291898Y247353*
X291863Y247345*
X291829Y247335*
X291796Y247323*
X291764Y247309*
X291732Y247292*
X291702Y247273*
X291674Y247253*
X291646Y24723*
X291621Y247205*
X291597Y247179*
X291575Y247151*
X291555Y247121*
X291538Y247091*
X291522Y247059*
X291509Y247026*
X291498Y246992*
X291489Y246958*
X291483Y246923*
X29148Y246888*
X291478Y246852*
X29148Y246817*
X291483Y246782*
X291489Y246747*
X291498Y246712*
X291509Y246679*
X291522Y246646*
X291538Y246614*
X291555Y246583*
X291575Y246554*
X291597Y246526*
X291621Y246499*
X291646Y246475*
X291674Y246452*
X291702Y246431*
X291732Y246412*
X291764Y246396*
X291796Y246381*
X291829Y246369*
X291863Y246359*
X291898Y246352*
X291933Y246347*
X291969Y246345*
X292004*
X292039Y246347*
X292075Y246352*
X292109Y246359*
X292143Y246369*
X292177Y246381*
X292209Y246396*
X29224Y246412*
X29227Y246431*
X292299Y246452*
X292326Y246475*
X292352Y246499*
X292375Y246526*
X292397Y246554*
X292417Y246583*
X292435Y246614*
X29245Y246646*
X292464Y246679*
X292475Y246712*
X292483Y246747*
X292489Y246782*
X292493Y246817*
X292494Y246852*
X289269Y247902D02*
D01*
X289268Y247938*
X289264Y247973*
X289258Y248008*
X28925Y248042*
X289239Y248076*
X289225Y248109*
X28921Y248141*
X289192Y248171*
X289172Y248201*
X28915Y248229*
X289127Y248255*
X289101Y24828*
X289074Y248303*
X289045Y248323*
X289015Y248342*
X288984Y248359*
X288952Y248373*
X288918Y248385*
X288884Y248395*
X288849Y248403*
X288814Y248408*
X288779Y24841*
X288744*
X288708Y248408*
X288673Y248403*
X288638Y248395*
X288604Y248385*
X288571Y248373*
X288539Y248359*
X288507Y248342*
X288477Y248323*
X288449Y248303*
X288421Y24828*
X288396Y248255*
X288372Y248229*
X28835Y248201*
X28833Y248171*
X288313Y248141*
X288297Y248109*
X288284Y248076*
X288273Y248042*
X288264Y248008*
X288258Y247973*
X288255Y247938*
X288253Y247902*
X288255Y247867*
X288258Y247832*
X288264Y247797*
X288273Y247762*
X288284Y247729*
X288297Y247696*
X288313Y247664*
X28833Y247633*
X28835Y247604*
X288372Y247576*
X288396Y247549*
X288421Y247525*
X288449Y247502*
X288477Y247481*
X288507Y247462*
X288539Y247446*
X288571Y247431*
X288604Y247419*
X288638Y247409*
X288673Y247402*
X288708Y247397*
X288744Y247395*
X288779*
X288814Y247397*
X288849Y247402*
X288884Y247409*
X288918Y247419*
X288952Y247431*
X288984Y247446*
X289015Y247462*
X289045Y247481*
X289074Y247502*
X289101Y247525*
X289127Y247549*
X28915Y247576*
X289172Y247604*
X289192Y247633*
X28921Y247664*
X289225Y247696*
X289239Y247729*
X28925Y247762*
X289258Y247797*
X289264Y247832*
X289268Y247867*
X289269Y247902*
X287669Y248527D02*
D01*
X287668Y248563*
X287664Y248598*
X287658Y248633*
X28765Y248667*
X287639Y248701*
X287625Y248734*
X28761Y248766*
X287592Y248796*
X287572Y248826*
X28755Y248854*
X287527Y24888*
X287501Y248905*
X287474Y248928*
X287445Y248948*
X287415Y248967*
X287384Y248984*
X287352Y248998*
X287318Y24901*
X287284Y24902*
X287249Y249028*
X287214Y249033*
X287179Y249035*
X287144*
X287108Y249033*
X287073Y249028*
X287038Y24902*
X287004Y24901*
X286971Y248998*
X286939Y248984*
X286907Y248967*
X286877Y248948*
X286849Y248928*
X286821Y248905*
X286796Y24888*
X286772Y248854*
X28675Y248826*
X28673Y248796*
X286713Y248766*
X286697Y248734*
X286684Y248701*
X286673Y248667*
X286664Y248633*
X286658Y248598*
X286655Y248563*
X286653Y248527*
X286655Y248492*
X286658Y248457*
X286664Y248422*
X286673Y248387*
X286684Y248354*
X286697Y248321*
X286713Y248289*
X28673Y248258*
X28675Y248229*
X286772Y248201*
X286796Y248174*
X286821Y24815*
X286849Y248127*
X286877Y248106*
X286907Y248087*
X286939Y248071*
X286971Y248056*
X287004Y248044*
X287038Y248034*
X287073Y248027*
X287108Y248022*
X287144Y24802*
X287179*
X287214Y248022*
X287249Y248027*
X287284Y248034*
X287318Y248044*
X287352Y248056*
X287384Y248071*
X287415Y248087*
X287445Y248106*
X287474Y248127*
X287501Y24815*
X287527Y248174*
X28755Y248201*
X287572Y248229*
X287592Y248258*
X28761Y248289*
X287625Y248321*
X287639Y248354*
X28765Y248387*
X287658Y248422*
X287664Y248457*
X287668Y248492*
X287669Y248527*
X290769Y245202D02*
D01*
X290768Y245238*
X290764Y245273*
X290758Y245308*
X29075Y245342*
X290739Y245376*
X290725Y245409*
X29071Y245441*
X290692Y245471*
X290672Y245501*
X29065Y245529*
X290627Y245555*
X290601Y24558*
X290574Y245603*
X290545Y245623*
X290515Y245642*
X290484Y245659*
X290452Y245673*
X290418Y245685*
X290384Y245695*
X290349Y245703*
X290314Y245707*
X290279Y24571*
X290244*
X290208Y245707*
X290173Y245703*
X290138Y245695*
X290104Y245685*
X290071Y245673*
X290039Y245659*
X290007Y245642*
X289977Y245623*
X289949Y245603*
X289921Y24558*
X289896Y245555*
X289872Y245529*
X28985Y245501*
X28983Y245471*
X289813Y245441*
X289797Y245409*
X289784Y245376*
X289773Y245342*
X289764Y245308*
X289758Y245273*
X289755Y245238*
X289753Y245202*
X289755Y245167*
X289758Y245132*
X289764Y245097*
X289773Y245062*
X289784Y245029*
X289797Y244996*
X289813Y244964*
X28983Y244933*
X28985Y244904*
X289872Y244876*
X289896Y244849*
X289921Y244825*
X289949Y244802*
X289977Y244781*
X290007Y244762*
X290039Y244746*
X290071Y244731*
X290104Y244719*
X290138Y244709*
X290173Y244702*
X290208Y244697*
X290244Y244695*
X290279*
X290314Y244697*
X290349Y244702*
X290384Y244709*
X290418Y244719*
X290452Y244731*
X290484Y244746*
X290515Y244762*
X290545Y244781*
X290574Y244802*
X290601Y244825*
X290627Y244849*
X29065Y244876*
X290672Y244904*
X290692Y244933*
X29071Y244964*
X290725Y244996*
X290739Y245029*
X29075Y245062*
X290758Y245097*
X290764Y245132*
X290768Y245167*
X290769Y245202*
X292244Y255227D02*
D01*
X292243Y255263*
X292239Y255298*
X292233Y255333*
X292225Y255367*
X292214Y255401*
X2922Y255434*
X292185Y255466*
X292167Y255496*
X292147Y255526*
X292125Y255554*
X292102Y25558*
X292076Y255605*
X292049Y255628*
X29202Y255648*
X29199Y255667*
X291959Y255684*
X291927Y255698*
X291893Y25571*
X291859Y25572*
X291824Y255728*
X291789Y255733*
X291754Y255735*
X291719*
X291683Y255733*
X291648Y255728*
X291613Y25572*
X291579Y25571*
X291546Y255698*
X291514Y255684*
X291482Y255667*
X291452Y255648*
X291424Y255628*
X291396Y255605*
X291371Y25558*
X291347Y255554*
X291325Y255526*
X291305Y255496*
X291288Y255466*
X291272Y255434*
X291259Y255401*
X291248Y255367*
X291239Y255333*
X291233Y255298*
X29123Y255263*
X291228Y255227*
X29123Y255192*
X291233Y255157*
X291239Y255122*
X291248Y255087*
X291259Y255054*
X291272Y255021*
X291288Y254989*
X291305Y254958*
X291325Y254929*
X291347Y254901*
X291371Y254874*
X291396Y25485*
X291424Y254827*
X291452Y254806*
X291482Y254787*
X291514Y254771*
X291546Y254756*
X291579Y254744*
X291613Y254734*
X291648Y254727*
X291683Y254722*
X291719Y25472*
X291754*
X291789Y254722*
X291824Y254727*
X291859Y254734*
X291893Y254744*
X291927Y254756*
X291959Y254771*
X29199Y254787*
X29202Y254806*
X292049Y254827*
X292076Y25485*
X292102Y254874*
X292125Y254901*
X292147Y254929*
X292167Y254958*
X292185Y254989*
X2922Y255021*
X292214Y255054*
X292225Y255087*
X292233Y255122*
X292239Y255157*
X292243Y255192*
X292244Y255227*
X304719Y250602D02*
D01*
X304718Y250638*
X304714Y250673*
X304708Y250708*
X3047Y250742*
X304689Y250776*
X304675Y250809*
X30466Y250841*
X304642Y250871*
X304622Y250901*
X3046Y250929*
X304577Y250955*
X304551Y25098*
X304524Y251003*
X304495Y251023*
X304465Y251042*
X304434Y251059*
X304402Y251073*
X304368Y251085*
X304334Y251095*
X3043Y251103*
X304264Y251108*
X304229Y25111*
X304194*
X304158Y251108*
X304123Y251103*
X304088Y251095*
X304054Y251085*
X304021Y251073*
X303989Y251059*
X303957Y251042*
X303927Y251023*
X303899Y251003*
X303871Y25098*
X303846Y250955*
X303822Y250929*
X3038Y250901*
X30378Y250871*
X303763Y250841*
X303747Y250809*
X303734Y250776*
X303723Y250742*
X303714Y250708*
X303708Y250673*
X303705Y250638*
X303703Y250602*
X303705Y250567*
X303708Y250532*
X303714Y250497*
X303723Y250462*
X303734Y250429*
X303747Y250396*
X303763Y250364*
X30378Y250333*
X3038Y250304*
X303822Y250276*
X303846Y250249*
X303871Y250225*
X303899Y250202*
X303927Y250181*
X303957Y250162*
X303989Y250146*
X304021Y250131*
X304054Y250119*
X304088Y250109*
X304123Y250102*
X304158Y250097*
X304194Y250095*
X304229*
X304264Y250097*
X3043Y250102*
X304334Y250109*
X304368Y250119*
X304402Y250131*
X304434Y250146*
X304465Y250162*
X304495Y250181*
X304524Y250202*
X304551Y250225*
X304577Y250249*
X3046Y250276*
X304622Y250304*
X304642Y250333*
X30466Y250364*
X304675Y250396*
X304689Y250429*
X3047Y250462*
X304708Y250497*
X304714Y250532*
X304718Y250567*
X304719Y250602*
X289019Y258752D02*
D01*
X289018Y258788*
X289014Y258823*
X289008Y258858*
X288999Y258892*
X288988Y258926*
X288975Y258959*
X28896Y258991*
X288942Y259021*
X288922Y259051*
X2889Y259079*
X288876Y259105*
X288851Y25913*
X288824Y259152*
X288795Y259173*
X288765Y259192*
X288734Y259209*
X288701Y259223*
X288668Y259235*
X288634Y259245*
X288599Y259252*
X288564Y259257*
X288529Y25926*
X288493*
X288458Y259257*
X288423Y259252*
X288388Y259245*
X288354Y259235*
X288321Y259223*
X288288Y259209*
X288257Y259192*
X288227Y259173*
X288198Y259152*
X288171Y25913*
X288146Y259105*
X288122Y259079*
X2881Y259051*
X28808Y259021*
X288062Y258991*
X288047Y258959*
X288034Y258926*
X288023Y258892*
X288014Y258858*
X288008Y258823*
X288004Y258788*
X288003Y258752*
X288004Y258717*
X288008Y258681*
X288014Y258646*
X288023Y258612*
X288034Y258578*
X288047Y258545*
X288062Y258514*
X28808Y258483*
X2881Y258453*
X288122Y258426*
X288146Y258399*
X288171Y258375*
X288198Y258352*
X288227Y258331*
X288257Y258312*
X288288Y258296*
X288321Y258281*
X288354Y258269*
X288388Y258259*
X288423Y258252*
X288458Y258247*
X288493Y258244*
X288529*
X288564Y258247*
X288599Y258252*
X288634Y258259*
X288668Y258269*
X288701Y258281*
X288734Y258296*
X288765Y258312*
X288795Y258331*
X288824Y258352*
X288851Y258375*
X288876Y258399*
X2889Y258426*
X288922Y258453*
X288942Y258483*
X28896Y258514*
X288975Y258545*
X288988Y258578*
X288999Y258612*
X289008Y258646*
X289014Y258681*
X289018Y258717*
X289019Y258752*
X288419Y252727D02*
D01*
X288418Y252763*
X288414Y252798*
X288408Y252833*
X2884Y252867*
X288389Y252901*
X288375Y252934*
X28836Y252966*
X288342Y252996*
X288322Y253026*
X2883Y253054*
X288277Y25308*
X288251Y253105*
X288224Y253128*
X288195Y253148*
X288165Y253167*
X288134Y253184*
X288102Y253198*
X288068Y25321*
X288034Y25322*
X288Y253228*
X287964Y253232*
X287929Y253235*
X287894*
X287858Y253232*
X287823Y253228*
X287788Y25322*
X287754Y25321*
X287721Y253198*
X287689Y253184*
X287657Y253167*
X287627Y253148*
X287599Y253128*
X287571Y253105*
X287546Y25308*
X287522Y253054*
X2875Y253026*
X28748Y252996*
X287463Y252966*
X287447Y252934*
X287434Y252901*
X287423Y252867*
X287414Y252833*
X287408Y252798*
X287405Y252763*
X287403Y252727*
X287405Y252692*
X287408Y252657*
X287414Y252622*
X287423Y252587*
X287434Y252554*
X287447Y252521*
X287463Y252489*
X28748Y252458*
X2875Y252429*
X287522Y252401*
X287546Y252374*
X287571Y25235*
X287599Y252327*
X287627Y252306*
X287657Y252287*
X287689Y252271*
X287721Y252256*
X287754Y252244*
X287788Y252234*
X287823Y252227*
X287858Y252222*
X287894Y25222*
X287929*
X287964Y252222*
X288Y252227*
X288034Y252234*
X288068Y252244*
X288102Y252256*
X288134Y252271*
X288165Y252287*
X288195Y252306*
X288224Y252327*
X288251Y25235*
X288277Y252374*
X2883Y252401*
X288322Y252429*
X288342Y252458*
X28836Y252489*
X288375Y252521*
X288389Y252554*
X2884Y252587*
X288408Y252622*
X288414Y252657*
X288418Y252692*
X288419Y252727*
Y251177D02*
D01*
X288418Y251213*
X288414Y251248*
X288408Y251283*
X2884Y251317*
X288389Y251351*
X288375Y251384*
X28836Y251416*
X288342Y251446*
X288322Y251476*
X2883Y251504*
X288277Y25153*
X288251Y251555*
X288224Y251578*
X288195Y251598*
X288165Y251617*
X288134Y251634*
X288102Y251648*
X288068Y25166*
X288034Y25167*
X288Y251678*
X287964Y251683*
X287929Y251685*
X287894*
X287858Y251683*
X287823Y251678*
X287788Y25167*
X287754Y25166*
X287721Y251648*
X287689Y251634*
X287657Y251617*
X287627Y251598*
X287599Y251578*
X287571Y251555*
X287546Y25153*
X287522Y251504*
X2875Y251476*
X28748Y251446*
X287463Y251416*
X287447Y251384*
X287434Y251351*
X287423Y251317*
X287414Y251283*
X287408Y251248*
X287405Y251213*
X287403Y251177*
X287405Y251142*
X287408Y251107*
X287414Y251072*
X287423Y251037*
X287434Y251004*
X287447Y250971*
X287463Y250939*
X28748Y250908*
X2875Y250879*
X287522Y250851*
X287546Y250824*
X287571Y2508*
X287599Y250777*
X287627Y250756*
X287657Y250737*
X287689Y250721*
X287721Y250706*
X287754Y250694*
X287788Y250684*
X287823Y250677*
X287858Y250672*
X287894Y25067*
X287929*
X287964Y250672*
X288Y250677*
X288034Y250684*
X288068Y250694*
X288102Y250706*
X288134Y250721*
X288165Y250737*
X288195Y250756*
X288224Y250777*
X288251Y2508*
X288277Y250824*
X2883Y250851*
X288322Y250879*
X288342Y250908*
X28836Y250939*
X288375Y250971*
X288389Y251004*
X2884Y251037*
X288408Y251072*
X288414Y251107*
X288418Y251142*
X288419Y251177*
Y251952D02*
D01*
X288418Y251988*
X288414Y252023*
X288408Y252058*
X2884Y252092*
X288389Y252126*
X288375Y252159*
X28836Y252191*
X288342Y252221*
X288322Y252251*
X2883Y252279*
X288277Y252305*
X288251Y25233*
X288224Y252353*
X288195Y252373*
X288165Y252392*
X288134Y252409*
X288102Y252423*
X288068Y252435*
X288034Y252445*
X288Y252453*
X287964Y252458*
X287929Y25246*
X287894*
X287858Y252458*
X287823Y252453*
X287788Y252445*
X287754Y252435*
X287721Y252423*
X287689Y252409*
X287657Y252392*
X287627Y252373*
X287599Y252353*
X287571Y25233*
X287546Y252305*
X287522Y252279*
X2875Y252251*
X28748Y252221*
X287463Y252191*
X287447Y252159*
X287434Y252126*
X287423Y252092*
X287414Y252058*
X287408Y252023*
X287405Y251988*
X287403Y251952*
X287405Y251917*
X287408Y251882*
X287414Y251847*
X287423Y251812*
X287434Y251779*
X287447Y251746*
X287463Y251714*
X28748Y251683*
X2875Y251654*
X287522Y251626*
X287546Y251599*
X287571Y251575*
X287599Y251552*
X287627Y251531*
X287657Y251512*
X287689Y251496*
X287721Y251481*
X287754Y251469*
X287788Y251459*
X287823Y251452*
X287858Y251447*
X287894Y251445*
X287929*
X287964Y251447*
X288Y251452*
X288034Y251459*
X288068Y251469*
X288102Y251481*
X288134Y251496*
X288165Y251512*
X288195Y251531*
X288224Y251552*
X288251Y251575*
X288277Y251599*
X2883Y251626*
X288322Y251654*
X288342Y251683*
X28836Y251714*
X288375Y251746*
X288389Y251779*
X2884Y251812*
X288408Y251847*
X288414Y251882*
X288418Y251917*
X288419Y251952*
X288719Y257052D02*
D01*
X288718Y257088*
X288714Y257123*
X288708Y257158*
X2887Y257192*
X288689Y257226*
X288675Y257259*
X28866Y257291*
X288642Y257321*
X288622Y257351*
X2886Y257379*
X288577Y257405*
X288551Y25743*
X288524Y257453*
X288495Y257473*
X288465Y257492*
X288434Y257509*
X288402Y257523*
X288368Y257535*
X288334Y257545*
X2883Y257553*
X288264Y257558*
X288229Y25756*
X288194*
X288158Y257558*
X288123Y257553*
X288088Y257545*
X288054Y257535*
X288021Y257523*
X287989Y257509*
X287957Y257492*
X287927Y257473*
X287899Y257453*
X287871Y25743*
X287846Y257405*
X287822Y257379*
X2878Y257351*
X28778Y257321*
X287763Y257291*
X287747Y257259*
X287734Y257226*
X287723Y257192*
X287714Y257158*
X287708Y257123*
X287705Y257088*
X287703Y257052*
X287705Y257017*
X287708Y256982*
X287714Y256947*
X287723Y256912*
X287734Y256879*
X287747Y256846*
X287763Y256814*
X28778Y256783*
X2878Y256754*
X287822Y256726*
X287846Y256699*
X287871Y256675*
X287899Y256652*
X287927Y256631*
X287957Y256612*
X287989Y256596*
X288021Y256581*
X288054Y256569*
X288088Y256559*
X288123Y256552*
X288158Y256547*
X288194Y256545*
X288229*
X288264Y256547*
X2883Y256552*
X288334Y256559*
X288368Y256569*
X288402Y256581*
X288434Y256596*
X288465Y256612*
X288495Y256631*
X288524Y256652*
X288551Y256675*
X288577Y256699*
X2886Y256726*
X288622Y256754*
X288642Y256783*
X28866Y256814*
X288675Y256846*
X288689Y256879*
X2887Y256912*
X288708Y256947*
X288714Y256982*
X288718Y257017*
X288719Y257052*
X286194Y256077D02*
D01*
X286193Y256113*
X286189Y256148*
X286183Y256183*
X286175Y256217*
X286164Y256251*
X28615Y256284*
X286135Y256316*
X286117Y256346*
X286097Y256376*
X286075Y256404*
X286052Y25643*
X286026Y256455*
X285999Y256478*
X28597Y256498*
X28594Y256517*
X285909Y256534*
X285877Y256548*
X285843Y25656*
X285809Y25657*
X285774Y256578*
X285739Y256583*
X285704Y256585*
X285669*
X285633Y256583*
X285598Y256578*
X285563Y25657*
X285529Y25656*
X285496Y256548*
X285464Y256534*
X285432Y256517*
X285402Y256498*
X285374Y256478*
X285346Y256455*
X285321Y25643*
X285297Y256404*
X285275Y256376*
X285255Y256346*
X285238Y256316*
X285222Y256284*
X285209Y256251*
X285198Y256217*
X285189Y256183*
X285183Y256148*
X28518Y256113*
X285178Y256077*
X28518Y256042*
X285183Y256007*
X285189Y255972*
X285198Y255937*
X285209Y255904*
X285222Y255871*
X285238Y255839*
X285255Y255808*
X285275Y255779*
X285297Y255751*
X285321Y255724*
X285346Y2557*
X285374Y255677*
X285402Y255656*
X285432Y255637*
X285464Y255621*
X285496Y255606*
X285529Y255594*
X285563Y255584*
X285598Y255577*
X285633Y255572*
X285669Y25557*
X285704*
X285739Y255572*
X285774Y255577*
X285809Y255584*
X285843Y255594*
X285877Y255606*
X285909Y255621*
X28594Y255637*
X28597Y255656*
X285999Y255677*
X286026Y2557*
X286052Y255724*
X286075Y255751*
X286097Y255779*
X286117Y255808*
X286135Y255839*
X28615Y255871*
X286164Y255904*
X286175Y255937*
X286183Y255972*
X286189Y256007*
X286193Y256042*
X286194Y256077*
M02*