%FSTAX23Y23*%
%MOMM*%
%SFA1B1*%

%IPPOS*%
%ADD23C,0.200000*%
%ADD25C,0.599999*%
%ADD26C,1.015998*%
%ADD48C,0.127000*%
%ADD49C,0.253999*%
%ADD50C,0.507999*%
%ADD51C,2.031996*%
%ADD52C,4.063992*%
%ADD53C,8.127984*%
%LNprogramming_dongle_pcb-1*%
%LPD*%
G54D48*
X50336Y25463D02*
X25463D01*
Y43336*
X50336*
Y25463*
G54D49*
X50209Y2559D02*
X2559D01*
Y43209*
X50209*
Y2559*
G54D50*
X49955Y25844D02*
X25844D01*
Y42955*
X49955*
Y25844*
G54D26*
X49447Y26352D02*
X26352D01*
Y42447*
X49447*
Y26352*
G54D51*
X48431Y27368D02*
X27368D01*
Y41431*
X48431*
Y27368*
G54D52*
X46399Y294D02*
X294D01*
Y39399*
X46399*
Y294*
G54D53*
X42335Y33464D02*
X33464D01*
Y35335*
X42335*
Y33464*
%LNprogramming_dongle_pcb-2*%
%LPC*%
G36*
X29199Y31862D02*
X2883D01*
X28836Y31819*
X28881Y3171*
X28954Y31616*
X29048Y31544*
X29157Y31499*
X29199Y31493*
Y31862*
G37*
G36*
X37374Y31718D02*
Y31349D01*
X37743*
X37738Y31392*
X37693Y31501*
X3762Y31595*
X37526Y31668*
X37417Y31713*
X37374Y31718*
G37*
G36*
X37224D02*
X37182Y31713D01*
X37073Y31668*
X36978Y31595*
X36906Y31501*
X36861Y31392*
X36855Y31349*
X37224*
Y31718*
G37*
G36*
X27049Y31931D02*
Y31562D01*
X27418*
X27413Y31604*
X27368Y31714*
X27295Y31808*
X27201Y3188*
X27092Y31925*
X27049Y31931*
G37*
G36*
X26899D02*
X26857Y31925D01*
X26748Y3188*
X26654Y31808*
X26581Y31714*
X26536Y31604*
X2653Y31562*
X26899*
Y31931*
G37*
G36*
X29718Y31862D02*
X29349D01*
Y31493*
X29392Y31499*
X29501Y31544*
X29595Y31616*
X29668Y3171*
X29713Y31819*
X29718Y31862*
G37*
G36*
X37224Y31199D02*
X36855D01*
X36861Y31157*
X36906Y31048*
X36978Y30954*
X37073Y30881*
X37182Y30836*
X37224Y3083*
Y31199*
G37*
G36*
X49474Y30843D02*
Y30474D01*
X49843*
X49838Y30517*
X49793Y30626*
X4972Y3072*
X49626Y30793*
X49517Y30838*
X49474Y30843*
G37*
G36*
X49324D02*
X49282Y30838D01*
X49173Y30793*
X49079Y3072*
X49006Y30626*
X48961Y30517*
X48955Y30474*
X49324*
Y30843*
G37*
G36*
X27418Y31412D02*
X27049D01*
Y31043*
X27092Y31049*
X27201Y31094*
X27295Y31166*
X27368Y3126*
X27413Y31369*
X27418Y31412*
G37*
G36*
X26899D02*
X2653D01*
X26536Y31369*
X26581Y3126*
X26654Y31166*
X26748Y31094*
X26857Y31049*
X26899Y31043*
Y31412*
G37*
G36*
X37743Y31199D02*
X37374D01*
Y3083*
X37417Y30836*
X37526Y30881*
X3762Y30954*
X37693Y31048*
X37738Y31157*
X37743Y31199*
G37*
G36*
X29199Y32381D02*
X29157Y32375D01*
X29048Y3233*
X28954Y32258*
X28881Y32164*
X28836Y32054*
X2883Y32012*
X29199*
Y32381*
G37*
G36*
X49843Y34324D02*
X49474D01*
Y33955*
X49517Y33961*
X49626Y34006*
X4972Y34079*
X49793Y34173*
X49838Y34282*
X49843Y34324*
G37*
G36*
X49324D02*
X48955D01*
X48961Y34282*
X49006Y34173*
X49079Y34079*
X49173Y34006*
X49282Y33961*
X49324Y33955*
Y34324*
G37*
G36*
X27843D02*
X27474D01*
Y33955*
X27517Y33961*
X27626Y34006*
X2772Y34079*
X27793Y34173*
X27838Y34282*
X27843Y34324*
G37*
G36*
X49324Y34843D02*
X49282Y34838D01*
X49173Y34793*
X49079Y3472*
X49006Y34626*
X48961Y34517*
X48955Y34474*
X49324*
Y34843*
G37*
G36*
X27474D02*
Y34474D01*
X27843*
X27838Y34517*
X27793Y34626*
X2772Y3472*
X27626Y34793*
X27517Y34838*
X27474Y34843*
G37*
G36*
X27324D02*
X27282Y34838D01*
X27173Y34793*
X27079Y3472*
X27006Y34626*
X26961Y34517*
X26955Y34474*
X27324*
Y34843*
G37*
G36*
X47318Y32449D02*
X46949D01*
Y3208*
X46992Y32086*
X47101Y32131*
X47195Y32204*
X47268Y32298*
X47313Y32407*
X47318Y32449*
G37*
G36*
X46799D02*
X4643D01*
X46436Y32407*
X46481Y32298*
X46554Y32204*
X46648Y32131*
X46757Y32086*
X46799Y3208*
Y32449*
G37*
G36*
X29349Y32381D02*
Y32012D01*
X29718*
X29713Y32054*
X29668Y32164*
X29595Y32258*
X29501Y3233*
X29392Y32375*
X29349Y32381*
G37*
G36*
X27324Y34324D02*
X26955D01*
X26961Y34282*
X27006Y34173*
X27079Y34079*
X27173Y34006*
X27282Y33961*
X27324Y33955*
Y34324*
G37*
G36*
X46949Y32968D02*
Y32599D01*
X47318*
X47313Y32642*
X47268Y32751*
X47195Y32845*
X47101Y32918*
X46992Y32963*
X46949Y32968*
G37*
G36*
X46799D02*
X46757Y32963D01*
X46648Y32918*
X46554Y32845*
X46481Y32751*
X46436Y32642*
X4643Y32599*
X46799*
Y32968*
G37*
G36*
X26324Y26843D02*
X26282Y26838D01*
X26173Y26793*
X26079Y2672*
X26006Y26626*
X25961Y26517*
X25955Y26474*
X26324*
Y26843*
G37*
G36*
X49843Y26324D02*
X49474D01*
Y25955*
X49517Y25961*
X49626Y26006*
X4972Y26079*
X49793Y26173*
X49838Y26282*
X49843Y26324*
G37*
G36*
X49324D02*
X48955D01*
X48961Y26282*
X49006Y26173*
X49079Y26079*
X49173Y26006*
X49282Y25961*
X49324Y25955*
Y26324*
G37*
G36*
X42474Y26843D02*
Y26474D01*
X42843*
X42838Y26517*
X42793Y26626*
X4272Y2672*
X42626Y26793*
X42517Y26838*
X42474Y26843*
G37*
G36*
X42324D02*
X42282Y26838D01*
X42173Y26793*
X42078Y2672*
X42006Y26626*
X41961Y26517*
X41955Y26474*
X42324*
Y26843*
G37*
G36*
X26474D02*
Y26474D01*
X26843*
X26838Y26517*
X26793Y26626*
X2672Y2672*
X26626Y26793*
X26517Y26838*
X26474Y26843*
G37*
G36*
X42324Y26324D02*
X41955D01*
X41961Y26282*
X42006Y26173*
X42078Y26079*
X42173Y26006*
X42282Y25961*
X42324Y25955*
Y26324*
G37*
G36*
X26843D02*
X26474D01*
Y25955*
X26517Y25961*
X26626Y26006*
X2672Y26079*
X26793Y26173*
X26838Y26282*
X26843Y26324*
G37*
G36*
X26324D02*
X25955D01*
X25961Y26282*
X26006Y26173*
X26079Y26079*
X26173Y26006*
X26282Y25961*
X26324Y25955*
Y26324*
G37*
G36*
X46843D02*
X46474D01*
Y25955*
X46517Y25961*
X46626Y26006*
X4672Y26079*
X46793Y26173*
X46838Y26282*
X46843Y26324*
G37*
G36*
X46324D02*
X45955D01*
X45961Y26282*
X46006Y26173*
X46079Y26079*
X46173Y26006*
X46282Y25961*
X46324Y25955*
Y26324*
G37*
G36*
X42843D02*
X42474D01*
Y25955*
X42517Y25961*
X42626Y26006*
X4272Y26079*
X42793Y26173*
X42838Y26282*
X42843Y26324*
G37*
G36*
X46324Y26843D02*
X46282Y26838D01*
X46173Y26793*
X46079Y2672*
X46006Y26626*
X45961Y26517*
X45955Y26474*
X46324*
Y26843*
G37*
G36*
X44399Y30318D02*
Y29949D01*
X44768*
X44763Y29992*
X44718Y30101*
X44645Y30195*
X44551Y30268*
X44442Y30313*
X44399Y30318*
G37*
G36*
X44249D02*
X44207Y30313D01*
X44098Y30268*
X44004Y30195*
X43931Y30101*
X43886Y29992*
X4388Y29949*
X44249*
Y30318*
G37*
G36*
X43815Y32948D02*
X43705Y32934D01*
X43601Y32891*
X43512Y32823*
X43444Y32734*
X43401Y3263*
X43387Y32519*
X43401Y32408*
X43444Y32305*
X43512Y32216*
X43601Y32148*
X43705Y32105*
X43815Y32091*
X43908Y32103*
X4522Y3079*
Y30234*
X45146Y30178*
X45078Y30089*
X45035Y29985*
X45021Y29874*
X45035Y29763*
X45078Y2966*
X45146Y29571*
X45235Y29503*
X45339Y2946*
X45449Y29446*
X4556Y2946*
X45664Y29503*
X45753Y29571*
X45821Y2966*
X45864Y29763*
X45878Y29874*
X45864Y29985*
X45821Y30089*
X45753Y30178*
X45679Y30234*
Y30885*
X45664Y30959*
X45661Y30973*
X45612Y31048*
X44232Y32427*
X44244Y32519*
X4423Y3263*
X44187Y32734*
X44119Y32823*
X4403Y32891*
X43926Y32934*
X43815Y32948*
G37*
G36*
X43374Y30928D02*
X43263Y30914D01*
X4316Y30871*
X43071Y30803*
X43003Y30714*
X4296Y3061*
X42946Y30499*
X4296Y30388*
X43003Y30285*
X43071Y30196*
X4316Y30128*
X43263Y30085*
X43374Y30071*
X43485Y30085*
X43589Y30128*
X43678Y30196*
X43746Y30285*
X43789Y30388*
X43803Y30499*
X43789Y3061*
X43746Y30714*
X43678Y30803*
X43589Y30871*
X43485Y30914*
X43374Y30928*
G37*
G36*
X49843Y30324D02*
X49474D01*
Y29955*
X49517Y29961*
X49626Y30006*
X4972Y30079*
X49793Y30173*
X49838Y30282*
X49843Y30324*
G37*
G36*
X49324D02*
X48955D01*
X48961Y30282*
X49006Y30173*
X49079Y30079*
X49173Y30006*
X49282Y29961*
X49324Y29955*
Y30324*
G37*
G36*
X49474Y26843D02*
Y26474D01*
X49843*
X49838Y26517*
X49793Y26626*
X4972Y2672*
X49626Y26793*
X49517Y26838*
X49474Y26843*
G37*
G36*
X49324D02*
X49282Y26838D01*
X49173Y26793*
X49079Y2672*
X49006Y26626*
X48961Y26517*
X48955Y26474*
X49324*
Y26843*
G37*
G36*
X46474D02*
Y26474D01*
X46843*
X46838Y26517*
X46793Y26626*
X4672Y2672*
X46626Y26793*
X46517Y26838*
X46474Y26843*
G37*
G36*
X44768Y29799D02*
X44399D01*
Y2943*
X44442Y29436*
X44551Y29481*
X44645Y29554*
X44718Y29648*
X44763Y29757*
X44768Y29799*
G37*
G36*
X44249D02*
X4388D01*
X43886Y29757*
X43931Y29648*
X44004Y29554*
X44098Y29481*
X44207Y29436*
X44249Y2943*
Y29799*
G37*
G36*
X29099Y28053D02*
X28988Y28039D01*
X28885Y27996*
X28796Y27928*
X28728Y27839*
X28685Y27735*
X28671Y27624*
X28685Y27513*
X28728Y2741*
X28796Y27321*
X28885Y27253*
X28988Y2721*
X29099Y27196*
X2921Y2721*
X29314Y27253*
X29403Y27321*
X29471Y2741*
X29514Y27513*
X29528Y27624*
X29514Y27735*
X29471Y27839*
X29403Y27928*
X29314Y27996*
X2921Y28039*
X29099Y28053*
G37*
G36*
X49474Y34843D02*
Y34474D01*
X49843*
X49838Y34517*
X49793Y34626*
X4972Y3472*
X49626Y34793*
X49517Y34838*
X49474Y34843*
G37*
G36*
X46843Y42324D02*
X46474D01*
Y41955*
X46517Y41961*
X46626Y42006*
X4672Y42078*
X46793Y42173*
X46838Y42282*
X46843Y42324*
G37*
G36*
X46324D02*
X45955D01*
X45961Y42282*
X46006Y42173*
X46079Y42078*
X46173Y42006*
X46282Y41961*
X46324Y41955*
Y42324*
G37*
G36*
X42843D02*
X42474D01*
Y41955*
X42517Y41961*
X42626Y42006*
X4272Y42078*
X42793Y42173*
X42838Y42282*
X42843Y42324*
G37*
G36*
X26324Y42843D02*
X26282Y42838D01*
X26173Y42793*
X26079Y4272*
X26006Y42626*
X25961Y42517*
X25955Y42474*
X26324*
Y42843*
G37*
G36*
X49843Y42324D02*
X49474D01*
Y41955*
X49517Y41961*
X49626Y42006*
X4972Y42078*
X49793Y42173*
X49838Y42282*
X49843Y42324*
G37*
G36*
X49324D02*
X48955D01*
X48961Y42282*
X49006Y42173*
X49079Y42078*
X49173Y42006*
X49282Y41961*
X49324Y41955*
Y42324*
G37*
G36*
X34843D02*
X34474D01*
Y41955*
X34517Y41961*
X34626Y42006*
X3472Y42078*
X34793Y42173*
X34838Y42282*
X34843Y42324*
G37*
G36*
X34324D02*
X33955D01*
X33961Y42282*
X34006Y42173*
X34079Y42078*
X34173Y42006*
X34282Y41961*
X34324Y41955*
Y42324*
G37*
G36*
X30843D02*
X30474D01*
Y41955*
X30517Y41961*
X30626Y42006*
X3072Y42078*
X30793Y42173*
X30838Y42282*
X30843Y42324*
G37*
G36*
X42324D02*
X41955D01*
X41961Y42282*
X42006Y42173*
X42078Y42078*
X42173Y42006*
X42282Y41961*
X42324Y41955*
Y42324*
G37*
G36*
X38843D02*
X38474D01*
Y41955*
X38517Y41961*
X38626Y42006*
X3872Y42078*
X38793Y42173*
X38838Y42282*
X38843Y42324*
G37*
G36*
X38324D02*
X37955D01*
X37961Y42282*
X38006Y42173*
X38079Y42078*
X38173Y42006*
X38282Y41961*
X38324Y41955*
Y42324*
G37*
G36*
X26474Y42843D02*
Y42474D01*
X26843*
X26838Y42517*
X26793Y42626*
X2672Y4272*
X26626Y42793*
X26517Y42838*
X26474Y42843*
G37*
G36*
X46324D02*
X46282Y42838D01*
X46173Y42793*
X46079Y4272*
X46006Y42626*
X45961Y42517*
X45955Y42474*
X46324*
Y42843*
G37*
G36*
X42474D02*
Y42474D01*
X42843*
X42838Y42517*
X42793Y42626*
X4272Y4272*
X42626Y42793*
X42517Y42838*
X42474Y42843*
G37*
G36*
X42324D02*
X42282Y42838D01*
X42173Y42793*
X42078Y4272*
X42006Y42626*
X41961Y42517*
X41955Y42474*
X42324*
Y42843*
G37*
G36*
X49474D02*
Y42474D01*
X49843*
X49838Y42517*
X49793Y42626*
X4972Y4272*
X49626Y42793*
X49517Y42838*
X49474Y42843*
G37*
G36*
X49324D02*
X49282Y42838D01*
X49173Y42793*
X49079Y4272*
X49006Y42626*
X48961Y42517*
X48955Y42474*
X49324*
Y42843*
G37*
G36*
X46474D02*
Y42474D01*
X46843*
X46838Y42517*
X46793Y42626*
X4672Y4272*
X46626Y42793*
X46517Y42838*
X46474Y42843*
G37*
G36*
X34324D02*
X34282Y42838D01*
X34173Y42793*
X34079Y4272*
X34006Y42626*
X33961Y42517*
X33955Y42474*
X34324*
Y42843*
G37*
G36*
X30474D02*
Y42474D01*
X30843*
X30838Y42517*
X30793Y42626*
X3072Y4272*
X30626Y42793*
X30517Y42838*
X30474Y42843*
G37*
G36*
X30324D02*
X30282Y42838D01*
X30173Y42793*
X30079Y4272*
X30006Y42626*
X29961Y42517*
X29955Y42474*
X30324*
Y42843*
G37*
G36*
X38474D02*
Y42474D01*
X38843*
X38838Y42517*
X38793Y42626*
X3872Y4272*
X38626Y42793*
X38517Y42838*
X38474Y42843*
G37*
G36*
X38324D02*
X38282Y42838D01*
X38173Y42793*
X38079Y4272*
X38006Y42626*
X37961Y42517*
X37955Y42474*
X38324*
Y42843*
G37*
G36*
X34474D02*
Y42474D01*
X34843*
X34838Y42517*
X34793Y42626*
X3472Y4272*
X34626Y42793*
X34517Y42838*
X34474Y42843*
G37*
G36*
X30324Y42324D02*
X29955D01*
X29961Y42282*
X30006Y42173*
X30079Y42078*
X30173Y42006*
X30282Y41961*
X30324Y41955*
Y42324*
G37*
G36*
X29274Y37306D02*
Y36937D01*
X29643*
X29638Y36979*
X29593Y37089*
X2952Y37183*
X29426Y37255*
X29317Y373*
X29274Y37306*
G37*
G36*
X29124D02*
X29082Y373D01*
X28973Y37255*
X28879Y37183*
X28806Y37089*
X28761Y36979*
X28755Y36937*
X29124*
Y37306*
G37*
G36*
X27343Y37237D02*
X26974D01*
Y36868*
X27017Y36874*
X27126Y36919*
X2722Y36991*
X27293Y37085*
X27338Y37194*
X27343Y37237*
G37*
G36*
X26824Y37756D02*
X26782Y3775D01*
X26673Y37705*
X26579Y37633*
X26506Y37539*
X26461Y37429*
X26455Y37387*
X26824*
Y37756*
G37*
G36*
X40224Y37443D02*
Y37074D01*
X40593*
X40588Y37117*
X40543Y37226*
X4047Y3732*
X40376Y37393*
X40267Y37438*
X40224Y37443*
G37*
G36*
X40074D02*
X40032Y37438D01*
X39923Y37393*
X39829Y3732*
X39756Y37226*
X39711Y37117*
X39705Y37074*
X40074*
Y37443*
G37*
G36*
X29643Y36787D02*
X29274D01*
Y36418*
X29317Y36424*
X29426Y36469*
X2952Y36541*
X29593Y36635*
X29638Y36744*
X29643Y36787*
G37*
G36*
X29124D02*
X28755D01*
X28761Y36744*
X28806Y36635*
X28879Y36541*
X28973Y36469*
X29082Y36424*
X29124Y36418*
Y36787*
G37*
G36*
X43749Y36753D02*
X43638Y36739D01*
X43535Y36696*
X43446Y36628*
X43378Y36539*
X43335Y36435*
X43321Y36324*
X43335Y36214*
X43378Y3611*
X43446Y36021*
X43535Y35953*
X43638Y3591*
X43749Y35896*
X4386Y3591*
X43964Y35953*
X44053Y36021*
X44121Y3611*
X44164Y36214*
X44178Y36324*
X44164Y36435*
X44121Y36539*
X44053Y36628*
X43964Y36696*
X4386Y36739*
X43749Y36753*
G37*
G36*
X26824Y37237D02*
X26455D01*
X26461Y37194*
X26506Y37085*
X26579Y36991*
X26673Y36919*
X26782Y36874*
X26824Y36868*
Y37237*
G37*
G36*
X40593Y36924D02*
X40224D01*
Y36555*
X40267Y36561*
X40376Y36606*
X4047Y36679*
X40543Y36773*
X40588Y36882*
X40593Y36924*
G37*
G36*
X40074D02*
X39705D01*
X39711Y36882*
X39756Y36773*
X39829Y36679*
X39923Y36606*
X40032Y36561*
X40074Y36555*
Y36924*
G37*
G36*
X26974Y37756D02*
Y37387D01*
X27343*
X27338Y37429*
X27293Y37539*
X2722Y37633*
X27126Y37705*
X27017Y3775*
X26974Y37756*
G37*
G36*
X49474Y38843D02*
Y38474D01*
X49843*
X49838Y38517*
X49793Y38626*
X4972Y3872*
X49626Y38793*
X49517Y38838*
X49474Y38843*
G37*
G36*
X49324D02*
X49282Y38838D01*
X49173Y38793*
X49079Y3872*
X49006Y38626*
X48961Y38517*
X48955Y38474*
X49324*
Y38843*
G37*
G36*
X33449Y38718D02*
Y38349D01*
X33818*
X33813Y38392*
X33768Y38501*
X33695Y38595*
X33601Y38668*
X33492Y38713*
X33449Y38718*
G37*
G36*
X26843Y42324D02*
X26474D01*
Y41955*
X26517Y41961*
X26626Y42006*
X2672Y42078*
X26793Y42173*
X26838Y42282*
X26843Y42324*
G37*
G36*
X26324D02*
X25955D01*
X25961Y42282*
X26006Y42173*
X26079Y42078*
X26173Y42006*
X26282Y41961*
X26324Y41955*
Y42324*
G37*
G36*
X30124Y40228D02*
X30013Y40214D01*
X2991Y40171*
X29821Y40103*
X29753Y40014*
X2971Y3991*
X29696Y39799*
X2971Y39688*
X29753Y39585*
X29821Y39496*
X2991Y39428*
X30013Y39385*
X30124Y39371*
X30235Y39385*
X30339Y39428*
X30428Y39496*
X30496Y39585*
X30539Y39688*
X30553Y39799*
X30539Y3991*
X30496Y40014*
X30428Y40103*
X30339Y40171*
X30235Y40214*
X30124Y40228*
G37*
G36*
X49324Y38324D02*
X48955D01*
X48961Y38282*
X49006Y38173*
X49079Y38079*
X49173Y38006*
X49282Y37961*
X49324Y37955*
Y38324*
G37*
G36*
X33818Y38199D02*
X33449D01*
Y3783*
X33492Y37836*
X33601Y37881*
X33695Y37954*
X33768Y38048*
X33813Y38157*
X33818Y38199*
G37*
G36*
X33299D02*
X3293D01*
X32936Y38157*
X32981Y38048*
X33054Y37954*
X33148Y37881*
X33257Y37836*
X33299Y3783*
Y38199*
G37*
G36*
Y38718D02*
X33257Y38713D01*
X33148Y38668*
X33054Y38595*
X32981Y38501*
X32936Y38392*
X3293Y38349*
X33299*
Y38718*
G37*
G36*
X43699Y39053D02*
X43589Y39039D01*
X43485Y38996*
X43396Y38928*
X43328Y38839*
X43285Y38735*
X43271Y38624*
X43285Y38513*
X43328Y3841*
X43396Y38321*
X43485Y38253*
X43589Y3821*
X43699Y38196*
X4381Y3821*
X43914Y38253*
X44003Y38321*
X44071Y3841*
X44114Y38513*
X44128Y38624*
X44114Y38735*
X44071Y38839*
X44003Y38928*
X43914Y38996*
X4381Y39039*
X43699Y39053*
G37*
G36*
X49843Y38324D02*
X49474D01*
Y37955*
X49517Y37961*
X49626Y38006*
X4972Y38079*
X49793Y38173*
X49838Y38282*
X49843Y38324*
G37*
%LNprogramming_dongle_pcb-3*%
%LPD*%
G54D23*
X43815Y32519D02*
X45449Y30885D01*
Y29874D02*
Y30885D01*
G54D25*
X43699Y38624D03*
X43749Y36324D03*
X46874Y32524D03*
X45449Y29874D03*
X43815Y32519D03*
X43374Y30499D03*
X29199Y36862D03*
X29274Y31937D03*
X26974Y31487D03*
X26899Y37312D03*
X26399Y26399D03*
X33374Y38274D03*
X42399Y26399D03*
X46399D03*
X49399Y30399D03*
Y26399D03*
Y34399D03*
Y38399D03*
X40149Y36999D03*
X37299Y31274D03*
X27399Y34399D03*
X49399Y42399D03*
X26399D03*
X42399D03*
X34399D03*
X30399D03*
X38399D03*
X46399D03*
X29099Y27624D03*
X30124Y39799D03*
X44324Y29874D03*
M02*