%FSTAX23Y23*%
%MOMM*%
%SFA1B1*%

%IPPOS*%
%ADD23C,0.200000*%
%ADD29C,0.250000*%
%ADD30C,0.599999*%
%ADD31C,0.125000*%
%ADD32C,0.150000*%
%LNprogramming_dongle_pcb-1*%
%LPD*%
G54D23*
X31325Y29974D02*
D01*
X31325Y29975*
Y29975*
Y29975*
X31325Y29975*
X31325Y29975*
X31325Y29975*
X31325Y29975*
X31325Y29975*
X31325Y29975*
X31325Y29975*
X31325Y29975*
X31325Y29975*
X31325Y29975*
X31325Y29975*
X31325Y29975*
X31325Y29975*
X31325Y29975*
X31325Y29975*
X31325Y29975*
X31325*
X31325Y29975*
X31325*
X31324*
X31324*
X31324Y29975*
X31324*
X31324Y29975*
X31324Y29975*
X31324Y29975*
X31324Y29975*
X31324Y29975*
X31324Y29975*
X31324Y29975*
X31324Y29975*
X31324Y29975*
X31324Y29975*
X31324Y29975*
X31324Y29975*
X31324Y29975*
X31324Y29975*
X31324Y29975*
Y29975*
X31323Y29975*
Y29975*
Y29974*
Y29974*
Y29974*
X31324Y29974*
Y29974*
X31324Y29974*
X31324Y29974*
X31324Y29974*
X31324Y29974*
X31324Y29974*
X31324Y29974*
X31324Y29974*
X31324Y29974*
X31324Y29974*
X31324Y29974*
X31324Y29974*
X31324Y29974*
X31324Y29974*
X31324Y29974*
X31324Y29974*
X31324*
X31324Y29973*
X31324*
X31325*
X31325*
X31325Y29974*
X31325*
X31325Y29974*
X31325Y29974*
X31325Y29974*
X31325Y29974*
X31325Y29974*
X31325Y29974*
X31325Y29974*
X31325Y29974*
X31325Y29974*
X31325Y29974*
X31325Y29974*
X31325Y29974*
X31325Y29974*
X31325Y29974*
X31325Y29974*
X31325Y29974*
Y29974*
Y29974*
X31325Y29974*
X43099Y31824D02*
X50899D01*
X43099Y37024D02*
X50799D01*
X45399Y39574D02*
X46199D01*
X45399Y38574D02*
X46199D01*
X45399D02*
X45799Y39574D01*
X46199Y38574*
X47324Y39574D02*
X48124D01*
X47324Y38574D02*
X48124D01*
X47324D02*
X47724Y39574D01*
X48124Y38574*
X40549Y37974D02*
Y41174D01*
X38999Y37974D02*
Y41174D01*
Y37974D02*
X40549D01*
X38999Y41174D02*
X40549D01*
X35524Y39799D02*
Y40199D01*
X36224Y39799D02*
Y40199D01*
X43349Y39174D02*
Y39574D01*
X44049Y39174D02*
Y39574D01*
X28324Y30399D02*
X29824D01*
Y30899*
X28324Y38399D02*
X29824D01*
Y37899D02*
Y38399D01*
X31599Y38999D02*
X31999D01*
X31599Y39699D02*
X31999D01*
X27424Y29774D02*
Y29974D01*
X31024*
Y29774D02*
Y29974D01*
Y26774D02*
Y26974D01*
X27424Y26774D02*
X31024D01*
X27424D02*
Y26974D01*
X31024Y28274D02*
Y28474D01*
X27424Y28274D02*
Y28474D01*
X39299Y26024D02*
Y36524D01*
X35299Y26024D02*
Y36524D01*
Y26024D02*
X39299D01*
X35299Y36524D02*
X39299D01*
X33349Y39799D02*
Y40199D01*
X34049Y39799D02*
Y40199D01*
X27274Y39324D02*
X27674D01*
X27274Y40324D02*
X27674D01*
G54D29*
X41974Y37824D02*
D01*
X41974Y37833*
X41973Y37842*
X41972Y3785*
X4197Y37859*
X41967Y37867*
X41964Y37875*
X4196Y37883*
X41955Y37891*
X41951Y37898*
X41945Y37905*
X41939Y37911*
X41933Y37917*
X41926Y37923*
X41919Y37928*
X41912Y37933*
X41904Y37937*
X41896Y3794*
X41888Y37943*
X4188Y37946*
X41871Y37948*
X41863Y37949*
X41854Y37949*
X41845*
X41836Y37949*
X41828Y37948*
X41819Y37946*
X41811Y37943*
X41803Y3794*
X41795Y37937*
X41787Y37933*
X4178Y37928*
X41773Y37923*
X41766Y37917*
X4176Y37911*
X41754Y37905*
X41748Y37898*
X41743Y37891*
X41739Y37883*
X41735Y37875*
X41732Y37867*
X41729Y37859*
X41727Y3785*
X41726Y37842*
X41725Y37833*
X41724Y37824*
X41725Y37816*
X41726Y37807*
X41727Y37799*
X41729Y3779*
X41732Y37782*
X41735Y37774*
X41739Y37766*
X41743Y37758*
X41748Y37751*
X41754Y37744*
X4176Y37738*
X41766Y37732*
X41773Y37726*
X4178Y37721*
X41787Y37716*
X41795Y37712*
X41803Y37709*
X41811Y37706*
X41819Y37703*
X41828Y37701*
X41836Y377*
X41845Y377*
X41854*
X41863Y377*
X41871Y37701*
X4188Y37703*
X41888Y37706*
X41896Y37709*
X41904Y37712*
X41912Y37716*
X41919Y37721*
X41926Y37726*
X41933Y37732*
X41939Y37738*
X41945Y37744*
X41951Y37751*
X41955Y37758*
X4196Y37766*
X41964Y37774*
X41967Y37782*
X4197Y3779*
X41972Y37799*
X41973Y37807*
X41974Y37816*
X41974Y37824*
X40874Y26324D02*
D01*
X40874Y26333*
X40873Y26342*
X40872Y2635*
X4087Y26359*
X40867Y26367*
X40864Y26375*
X4086Y26383*
X40856Y26391*
X40851Y26398*
X40845Y26405*
X40839Y26411*
X40833Y26417*
X40826Y26423*
X40819Y26428*
X40812Y26433*
X40804Y26437*
X40796Y2644*
X40788Y26443*
X4078Y26446*
X40771Y26448*
X40763Y26449*
X40754Y26449*
X40745*
X40736Y26449*
X40728Y26448*
X40719Y26446*
X40711Y26443*
X40703Y2644*
X40695Y26437*
X40687Y26433*
X4068Y26428*
X40673Y26423*
X40666Y26417*
X4066Y26411*
X40654Y26405*
X40648Y26398*
X40643Y26391*
X40639Y26383*
X40635Y26375*
X40632Y26367*
X40629Y26359*
X40627Y2635*
X40626Y26342*
X40625Y26333*
X40624Y26324*
X40625Y26316*
X40626Y26307*
X40627Y26299*
X40629Y2629*
X40632Y26282*
X40635Y26274*
X40639Y26266*
X40643Y26258*
X40648Y26251*
X40654Y26244*
X4066Y26238*
X40666Y26232*
X40673Y26226*
X4068Y26221*
X40687Y26216*
X40695Y26212*
X40703Y26209*
X40711Y26206*
X40719Y26203*
X40728Y26201*
X40736Y262*
X40745Y262*
X40754*
X40763Y262*
X40771Y26201*
X4078Y26203*
X40788Y26206*
X40796Y26209*
X40804Y26212*
X40812Y26216*
X40819Y26221*
X40826Y26226*
X40833Y26232*
X40839Y26238*
X40845Y26244*
X40851Y26251*
X40856Y26258*
X4086Y26266*
X40864Y26274*
X40867Y26282*
X4087Y2629*
X40872Y26299*
X40873Y26307*
X40874Y26316*
X40874Y26324*
G54D30*
X38599Y27024D02*
D01*
X38599Y27045*
X38597Y27066*
X38593Y27087*
X38588Y27107*
X38581Y27127*
X38574Y27147*
X38564Y27165*
X38554Y27183*
X38542Y27201*
X38529Y27217*
X38515Y27233*
X385Y27247*
X38484Y27261*
X38467Y27273*
X38449Y27284*
X38431Y27294*
X38412Y27303*
X38392Y2731*
X38372Y27316*
X38352Y2732*
X38331Y27323*
X3831Y27324*
X38289*
X38268Y27323*
X38247Y2732*
X38227Y27316*
X38207Y2731*
X38187Y27303*
X38168Y27294*
X38149Y27284*
X38132Y27273*
X38115Y27261*
X38099Y27247*
X38084Y27233*
X3807Y27217*
X38057Y27201*
X38045Y27183*
X38035Y27165*
X38025Y27147*
X38018Y27127*
X38011Y27107*
X38006Y27087*
X38002Y27066*
X38Y27045*
X37999Y27024*
X38Y27004*
X38002Y26983*
X38006Y26962*
X38011Y26942*
X38018Y26922*
X38025Y26902*
X38035Y26884*
X38045Y26866*
X38057Y26848*
X3807Y26832*
X38084Y26816*
X38099Y26802*
X38115Y26788*
X38132Y26776*
X38149Y26765*
X38168Y26755*
X38187Y26746*
X38207Y26739*
X38227Y26733*
X38247Y26729*
X38268Y26726*
X38289Y26725*
X3831*
X38331Y26726*
X38352Y26729*
X38372Y26733*
X38392Y26739*
X38412Y26746*
X38431Y26755*
X38449Y26765*
X38467Y26776*
X38484Y26788*
X385Y26802*
X38515Y26816*
X38529Y26832*
X38542Y26848*
X38554Y26866*
X38564Y26884*
X38574Y26902*
X38581Y26922*
X38588Y26942*
X38593Y26962*
X38597Y26983*
X38599Y27004*
X38599Y27024*
G54D31*
X27274Y39824D02*
X27674Y40074D01*
Y39574D02*
Y40074D01*
X27274Y39824D02*
X27674Y39574D01*
X27274D02*
Y40074D01*
X46849Y30799D02*
Y31399D01*
X47149*
X47249Y31299*
Y31099*
X47149Y30999*
X46849*
X47449Y30799D02*
X47649D01*
X47549*
Y31399*
X47449Y31299*
X45349Y41399D02*
Y40799D01*
X45649*
X45749Y40899*
Y41299*
X45649Y41399*
X45349*
X46249Y40799D02*
Y41399D01*
X45949Y41099*
X46349*
X47224Y41424D02*
Y40824D01*
X47524*
X47624Y40924*
Y41324*
X47524Y41424*
X47224*
X47824Y41324D02*
X47924Y41424D01*
X48124*
X48224Y41324*
Y41224*
X48124Y41124*
X48024*
X48124*
X48224Y41024*
Y40924*
X48124Y40824*
X47924*
X47824Y40924*
X36999Y41599D02*
Y41099D01*
X37099Y40999*
X37299*
X37399Y41099*
Y41599*
X37599Y40999D02*
X37799D01*
X37699*
Y41599*
X37599Y41499*
X30675Y31624D02*
X30575Y31524D01*
Y31324*
X30675Y31224*
X31074*
X31174Y31324*
Y31524*
X31074Y31624*
Y31824D02*
X31174Y31924D01*
Y32124*
X31074Y32224*
X30675*
X30575Y32124*
Y31924*
X30675Y31824*
X30775*
X30875Y31924*
Y32224*
X45474Y29249D02*
X45374Y29349D01*
X45174*
X45074Y29249*
Y28849*
X45174Y28749*
X45374*
X45474Y28849*
X45974Y28749D02*
Y29349D01*
X45674Y29049*
X46074*
X3375Y37949D02*
X3365Y37849D01*
Y37649*
X3375Y37549*
X34149*
X34249Y37649*
Y37849*
X34149Y37949*
X3375Y38149D02*
X3365Y38249D01*
Y38449*
X3375Y38549*
X3385*
X3395Y38449*
Y38349*
Y38449*
X3405Y38549*
X34149*
X34249Y38449*
Y38249*
X34149Y38149*
X33774Y26249D02*
Y25749D01*
X33874Y25649*
X34074*
X34174Y25749*
Y26249*
X34774Y25649D02*
X34374D01*
X34774Y26049*
Y26149*
X34674Y26249*
X34474*
X34374Y26149*
X32374Y26999D02*
X31775D01*
Y27299*
X31875Y27399*
X32075*
X32175Y27299*
Y26999*
Y27199D02*
X32374Y27399D01*
X31875Y27599D02*
X31775Y27699D01*
Y27899*
X31875Y27999*
X31975*
X32075Y27899*
Y27799*
Y27899*
X32175Y27999*
X32274*
X32374Y27899*
Y27699*
X32274Y27599*
X31449Y31074D02*
Y31674D01*
X31749*
X31849Y31574*
Y31374*
X31749Y31274*
X31449*
X31649D02*
X31849Y31074D01*
X32449D02*
X32049D01*
X32449Y31474*
Y31574*
X32349Y31674*
X32149*
X32049Y31574*
X28349Y40574D02*
Y41174D01*
X28649*
X28749Y41074*
Y40874*
X28649Y40774*
X28349*
X28549D02*
X28749Y40574D01*
X28949D02*
X29149D01*
X29049*
Y41174*
X28949Y41074*
X31199Y40674D02*
X30799D01*
Y40374*
X30999*
X30799*
Y40074*
X31799Y40674D02*
X31399D01*
Y40074*
X31799*
X31399Y40374D02*
X31599D01*
X31999Y40074D02*
X32199D01*
X32099*
Y40674*
X31999Y40574*
X28749Y26349D02*
Y25749D01*
X29049*
X29149Y25849*
Y26249*
X29049Y26349*
X28749*
X29749Y25749D02*
X29349D01*
X29749Y26149*
Y26249*
X29649Y26349*
X29449*
X29349Y26249*
X306Y35524D02*
X305Y35424D01*
Y35224*
X306Y35124*
X30999*
X31099Y35224*
Y35424*
X30999Y35524*
X31099Y35724D02*
Y35924D01*
Y35824*
X305*
X306Y35724*
Y36224D02*
X305Y36324D01*
Y36524*
X306Y36624*
X30999*
X31099Y36524*
Y36324*
X30999Y36224*
X306*
X32825Y37924D02*
X32725Y37824D01*
Y37624*
X32825Y37524*
X33224*
X33324Y37624*
Y37824*
X33224Y37924*
X32825Y38124D02*
X32725Y38224D01*
Y38424*
X32825Y38524*
X32925*
X33025Y38424*
X33125Y38524*
X33224*
X33324Y38424*
Y38224*
X33224Y38124*
X33125*
X33025Y38224*
X32925Y38124*
X32825*
X33025Y38224D02*
Y38424D01*
X33475Y41799D02*
X33375Y41699D01*
Y41499*
X33475Y41399*
X33874*
X33974Y41499*
Y41699*
X33874Y41799*
X33375Y42399D02*
X33475Y42199D01*
X33675Y41999*
X33874*
X33974Y42099*
Y42299*
X33874Y42399*
X33775*
X33675Y42299*
Y41999*
X34575Y41224D02*
X34475Y41124D01*
Y40924*
X34575Y40824*
X34974*
X35074Y40924*
Y41124*
X34974Y41224*
X34475Y41824D02*
Y41424D01*
X34775*
X34675Y41624*
Y41724*
X34775Y41824*
X34974*
X35074Y41724*
Y41524*
X34974Y41424*
X35625Y41824D02*
X35525Y41724D01*
Y41524*
X35625Y41424*
X36024*
X36124Y41524*
Y41724*
X36024Y41824*
X36124Y42424D02*
Y42024D01*
X35725Y42424*
X35625*
X35525Y42324*
Y42124*
X35625Y42024*
X43724Y41349D02*
X43624Y41449D01*
X43424*
X43324Y41349*
Y40949*
X43424Y40849*
X43624*
X43724Y40949*
X43924Y40849D02*
X44124D01*
X44024*
Y41449*
X43924Y41349*
X31874Y32449D02*
X31774Y32549D01*
X31574*
X31474Y32449*
Y32049*
X31574Y31949*
X31774*
X31874Y32049*
X32074Y32549D02*
X32474D01*
Y32449*
X32074Y32049*
Y31949*
X28799Y39424D02*
Y38824D01*
X29099*
X29199Y38924*
Y39324*
X29099Y39424*
X28799*
X29399Y38824D02*
X29599D01*
X29499*
Y39424*
X29399Y39324*
X43724Y26324D02*
X43924D01*
X43824*
Y25724*
X43724*
X43924*
X44224D02*
Y26324D01*
X44624Y25724*
Y26324*
X44824Y25724D02*
Y26324D01*
X45124*
X45224Y26224*
Y26024*
X45124Y25924*
X44824*
X45024D02*
X45224Y25724D01*
X45424Y26324D02*
X45624D01*
X45524*
Y25724*
X45424*
X45624*
X45924D02*
Y26124D01*
X46124Y26324*
X46324Y26124*
Y25724*
Y26024*
X45924*
X47123Y25724D02*
Y26124D01*
X47323Y26324*
X47523Y26124*
Y25724*
Y26024*
X47123*
X47723Y26324D02*
Y25924D01*
X47923Y25724*
X48123Y25924*
Y26324*
X48323D02*
X48523D01*
X48423*
Y25724*
X48323*
X48523*
X48823Y26324D02*
X49223D01*
Y26224*
X48823Y25824*
Y25724*
X49223*
X43724Y27374D02*
Y26774D01*
X44024*
X44124Y26874*
Y27274*
X44024Y27374*
X43724*
X44424Y26774D02*
X44624D01*
X44724Y26874*
Y27074*
X44624Y27174*
X44424*
X44324Y27074*
Y26874*
X44424Y26774*
X44924D02*
Y27174D01*
X45224*
X45324Y27074*
Y26774*
X45724Y26575D02*
X45824D01*
X45924Y26674*
Y27174*
X45624*
X45524Y27074*
Y26874*
X45624Y26774*
X45924*
X46124D02*
X46324D01*
X46224*
Y27374*
X46124*
X46923Y26774D02*
X46723D01*
X46624Y26874*
Y27074*
X46723Y27174*
X46923*
X47023Y27074*
Y26974*
X46624*
X47823Y27374D02*
Y26974D01*
X48023Y26774*
X48223Y26974*
Y27374*
X48423Y26774D02*
X48623D01*
X48523*
Y27374*
X48423Y27274*
X48923Y26774D02*
Y26874D01*
X49023*
Y26774*
X48923*
X49423Y27274D02*
X49523Y27374D01*
X49722*
X49822Y27274*
Y26874*
X49722Y26774*
X49523*
X49423Y26874*
Y27274*
X43724Y27824D02*
Y28424D01*
X44024*
X44124Y28324*
Y28124*
X44024Y28024*
X43724*
X44324Y28224D02*
Y27824D01*
Y28024*
X44424Y28124*
X44524Y28224*
X44624*
X45024Y27824D02*
X45224D01*
X45324Y27924*
Y28124*
X45224Y28224*
X45024*
X44924Y28124*
Y27924*
X45024Y27824*
X45724Y27625D02*
X45824D01*
X45924Y27724*
Y28224*
X45624*
X45524Y28124*
Y27924*
X45624Y27824*
X45924*
X46124Y28224D02*
Y27824D01*
Y28024*
X46224Y28124*
X46324Y28224*
X46424*
X46823D02*
X47023D01*
X47123Y28124*
Y27824*
X46823*
X46723Y27924*
X46823Y28024*
X47123*
X47323Y27824D02*
Y28224D01*
X47423*
X47523Y28124*
Y27824*
Y28124*
X47623Y28224*
X47723Y28124*
Y27824*
X47923D02*
Y28224D01*
X48023*
X48123Y28124*
Y27824*
Y28124*
X48223Y28224*
X48323Y28124*
Y27824*
X48523D02*
X48723D01*
X48623*
Y28224*
X48523*
X49023Y27824D02*
Y28224D01*
X49323*
X49423Y28124*
Y27824*
X49822Y27625D02*
X49922D01*
X50022Y27724*
Y28224*
X49723*
X49623Y28124*
Y27924*
X49723Y27824*
X50022*
G54D32*
X26125Y29674D02*
Y29474D01*
Y29574*
X26624*
X26724Y29474*
Y29374*
X26624Y29274*
X26724Y29874D02*
Y30074D01*
Y29974*
X26125*
X26225Y29874*
M02*