%FSTAX23Y23*%
%MOMM*%
%SFA1B1*%

%IPPOS*%
%ADD10R,2.031996X0.761998*%
%ADD11R,0.599999X0.599999*%
%ADD12O,1.799996X0.449999*%
%ADD13R,0.499999X0.599999*%
%ADD14R,0.899998X0.699999*%
%ADD15R,0.599999X0.499999*%
%ADD16R,2.099996X1.474997*%
%ADD17R,1.379997X0.449999*%
%ADD18R,1.899996X2.374995*%
%ADD19R,1.899996X1.174998*%
%ADD20R,0.699999X0.899998*%
%ADD21R,1.399997X0.699999*%
%ADD22O,2.099996X0.349999*%
%LNprogramming_dongle_pcb-1*%
%LPD*%
G54D10*
X46863Y32519D03*
Y33789D03*
Y35059D03*
Y36329D03*
X43815Y32519D03*
Y33789D03*
Y35059D03*
Y36329D03*
G54D11*
X45799Y40174D03*
Y37974D03*
X47724Y40174D03*
Y37974D03*
G54D12*
X41849Y38599D03*
Y39249D03*
Y39899D03*
Y40549D03*
X37699Y38599D03*
Y39249D03*
Y39899D03*
Y40549D03*
G54D13*
X30999Y34374D03*
Y33374D03*
X32049Y28599D03*
Y29599D03*
X31699Y35324D03*
Y36324D03*
X34799Y39249D03*
Y40249D03*
X31874Y33024D03*
Y34024D03*
G54D14*
X35874Y39249D03*
Y40749D03*
X43699Y38624D03*
Y40124D03*
X33699Y39249D03*
Y40749D03*
G54D15*
X35874Y38249D03*
X34874D03*
X43374Y28999D03*
X44374D03*
X30424Y30599D03*
X31424D03*
X26724Y40874D03*
X27724D03*
X32049Y38299D03*
X31049D03*
G54D16*
X29274Y31937D03*
Y36862D03*
G54D17*
X29634Y35049D03*
Y35699D03*
Y34399D03*
Y33749D03*
Y33099D03*
G54D18*
X26974Y37312D03*
Y31487D03*
G54D19*
X26974Y35237D03*
Y33562D03*
G54D20*
X32549Y39349D03*
X31049D03*
X28224Y39824D03*
X26724D03*
G54D21*
X27624Y29124D03*
X30824D03*
Y27624D03*
X27624D03*
G54D22*
X40749Y27049D03*
Y27699D03*
Y28349D03*
Y28999D03*
Y29649D03*
Y30299D03*
Y30949D03*
Y31599D03*
Y32249D03*
Y32899D03*
Y33549D03*
Y34199D03*
Y34849D03*
Y35499D03*
X33849Y27049D03*
Y27699D03*
Y28349D03*
Y28999D03*
Y29649D03*
Y30299D03*
Y30949D03*
Y31599D03*
Y32249D03*
Y32899D03*
Y33549D03*
Y34199D03*
Y34849D03*
Y35499D03*
M02*