%FSTAX23Y23*%
%MOMM*%
%SFA1B1*%

%IPPOS*%
%ADD48C,0.127000*%
%LNprogramming_dongle_pcb-1*%
%LPD*%
G54D48*
X43549Y38624D02*
X43849D01*
X43699Y38474D02*
Y38774D01*
X43599Y36324D02*
X43899D01*
X43749Y36174D02*
Y36474D01*
X46724Y32524D02*
X47024D01*
X46874Y32374D02*
Y32674D01*
X45299Y29874D02*
X45599D01*
X45449Y29724D02*
Y30024D01*
X43665Y32519D02*
X43965D01*
X43815Y32369D02*
Y32669D01*
X43224Y30499D02*
X43524D01*
X43374Y30349D02*
Y30649D01*
X29049Y36862D02*
X29349D01*
X29199Y36712D02*
Y37012D01*
X29124Y31937D02*
X29424D01*
X29274Y31787D02*
Y32087D01*
X26824Y31487D02*
X27124D01*
X26974Y31337D02*
Y31637D01*
X26749Y37312D02*
X27049D01*
X26899Y37162D02*
Y37462D01*
X26249Y26399D02*
X26549D01*
X26399Y26249D02*
Y26549D01*
X33224Y38274D02*
X33524D01*
X33374Y38124D02*
Y38424D01*
X42249Y26399D02*
X42549D01*
X42399Y26249D02*
Y26549D01*
X46249Y26399D02*
X46549D01*
X46399Y26249D02*
Y26549D01*
X49249Y30399D02*
X49549D01*
X49399Y30249D02*
Y30549D01*
X49249Y26399D02*
X49549D01*
X49399Y26249D02*
Y26549D01*
X49249Y34399D02*
X49549D01*
X49399Y34249D02*
Y34549D01*
X49249Y38399D02*
X49549D01*
X49399Y38249D02*
Y38549D01*
X39999Y36999D02*
X40299D01*
X40149Y36849D02*
Y37149D01*
X37149Y31274D02*
X37449D01*
X37299Y31124D02*
Y31424D01*
X27249Y34399D02*
X27549D01*
X27399Y34249D02*
Y34549D01*
X49249Y42399D02*
X49549D01*
X49399Y42249D02*
Y42549D01*
X26249Y42399D02*
X26549D01*
X26399Y42249D02*
Y42549D01*
X42249Y42399D02*
X42549D01*
X42399Y42249D02*
Y42549D01*
X34249Y42399D02*
X34549D01*
X34399Y42249D02*
Y42549D01*
X30249Y42399D02*
X30549D01*
X30399Y42249D02*
Y42549D01*
X38249Y42399D02*
X38549D01*
X38399Y42249D02*
Y42549D01*
X46249Y42399D02*
X46549D01*
X46399Y42249D02*
Y42549D01*
X28949Y27624D02*
X29249D01*
X29099Y27474D02*
Y27774D01*
X29974Y39799D02*
X30274D01*
X30124Y39649D02*
Y39949D01*
X44174Y29874D02*
X44474D01*
X44324Y29724D02*
Y30024D01*
M02*