%FSAX44Y44*%
%MOMM*%
G71*
G01*
G75*
G04 Layer_Physical_Order=3*
G04 Layer_Color=128*
%ADD10R,0.6000X0.5000*%
%ADD11R,0.5000X0.6000*%
%ADD12R,2.1000X1.4750*%
%ADD13R,1.3800X0.4500*%
%ADD14R,1.9000X1.1750*%
%ADD15R,1.9000X2.3750*%
%ADD16R,0.7000X0.9000*%
%ADD17R,0.9000X0.7000*%
%ADD18O,1.8000X0.4500*%
%ADD19O,2.1000X0.3500*%
%ADD20R,0.6000X0.6000*%
%ADD21R,1.1500X1.4000*%
%ADD22R,1.0000X2.0000*%
%ADD23R,1.4000X0.7000*%
%ADD24O,0.8000X0.2000*%
%ADD25O,0.2000X0.8000*%
%ADD26R,4.6000X4.6000*%
%ADD27C,0.2000*%
%ADD28C,0.3000*%
%ADD29C,0.5000*%
%ADD30C,0.6000*%
%ADD31C,1.0160*%
G04:AMPARAMS|DCode=32|XSize=1.4mm|YSize=1.4mm|CornerRadius=0mm|HoleSize=0mm|Usage=FLASHONLY|Rotation=0.000|XOffset=0mm|YOffset=0mm|HoleType=Round|Shape=Relief|Width=0.15mm|Gap=0.15mm|Entries=4|*
%AMTHD32*
7,0,0,1.4000,1.1000,0.1500,45*
%
%ADD32THD32*%
%ADD33C,1.3000*%
G36*
X00604000Y00414000D02*
X00604000Y00349000D01*
X00542500D01*
Y00414000D01*
X00604000Y00414000D01*
X00604000Y00414000D01*
D02*
G37*
D31*
X00254000Y00254000D02*
X00254000D01*
X00254000D02*
X00604000D01*
Y00414000D01*
X00254000D02*
X00604000D01*
X00254000Y00254000D02*
Y00414000D01*
D32*
X00556000Y00262750D02*
D03*
X00288000Y00266000D02*
D03*
X00447750Y00383250D02*
D03*
X00564750Y00340000D02*
D03*
X00295000Y00396250D02*
D03*
X00435250Y00297000D02*
D03*
D33*
X00290750Y00308625D02*
D03*
X00268500Y00325625D02*
D03*
X00269250Y00341625D02*
D03*
X00291500Y00358625D02*
D03*
X00268500Y00363125D02*
D03*
Y00304875D02*
D03*
X00450500Y00266000D02*
D03*
X00533500Y00388500D02*
D03*
X00407000Y00366000D02*
D03*
X00474500Y00366750D02*
D03*
X00441000Y00321750D02*
D03*
X00541000Y00266750D02*
D03*
X00595250Y00284000D02*
D03*
X00320500Y00260500D02*
D03*
X00373500Y00317250D02*
D03*
X00460750Y00407750D02*
D03*
X00394750Y00400750D02*
D03*
X00308750Y00406750D02*
D03*
X00336500Y00371000D02*
D03*
X00501000Y00357750D02*
D03*
X00529000D02*
D03*
X00443000Y00332250D02*
D03*
X00545750Y00292750D02*
D03*
X00449500Y00300250D02*
D03*
X00429250Y00318000D02*
D03*
Y00273750D02*
D03*
X00564250Y00331750D02*
D03*
X00502500Y00330000D02*
D03*
Y00300000D02*
D03*
M02*
