%FSAX44Y44*%
%MOMM*%
G71*
G01*
G75*
%ADD10R,0.6000X0.5000*%
%ADD11R,0.5000X0.6000*%
%ADD12R,2.1000X1.4750*%
%ADD13R,1.3800X0.4500*%
%ADD14R,1.9000X1.1750*%
%ADD15R,1.9000X2.3750*%
%ADD16R,0.7000X0.9000*%
%ADD17R,0.9000X0.7000*%
%ADD18O,1.8000X0.4500*%
%ADD19O,2.1000X0.3500*%
%ADD20R,0.6000X0.6000*%
%ADD21R,1.1500X1.4000*%
%ADD22R,1.0000X2.0000*%
%ADD23R,1.4000X0.7000*%
%ADD24O,0.8000X0.2000*%
%ADD25O,0.2000X0.8000*%
%ADD26R,4.6000X4.6000*%
%ADD27C,0.2000*%
%ADD28C,0.3000*%
%ADD29C,0.5000*%
%ADD30C,0.6000*%
%ADD31C,1.0160*%
G04:AMPARAMS|DCode=32|XSize=1.4mm|YSize=1.4mm|CornerRadius=0mm|HoleSize=0mm|Usage=FLASHONLY|Rotation=0.000|XOffset=0mm|YOffset=0mm|HoleType=Round|Shape=Relief|Width=0.15mm|Gap=0.15mm|Entries=4|*
%AMTHD32*
7,0,0,1.4000,1.1000,0.1500,45*
%
%ADD32THD32*%
%ADD33C,1.3000*%
%ADD34C,0.2500*%
%ADD35C,0.6000*%
%ADD36C,0.1250*%
%ADD37R,0.7500X0.6500*%
%ADD38R,0.6500X0.7500*%
%ADD39R,2.2500X1.6250*%
%ADD40R,1.5300X0.6000*%
%ADD41R,2.0500X1.3250*%
%ADD42R,2.0500X2.5250*%
%ADD43R,0.8500X1.0500*%
%ADD44R,1.0500X0.8500*%
%ADD45O,1.9500X0.6000*%
%ADD46O,2.2500X0.5000*%
%ADD47R,0.7500X0.7500*%
%ADD48R,1.3000X1.5500*%
%ADD49R,1.1500X2.1500*%
%ADD50R,1.5500X0.8500*%
%ADD51O,0.9500X0.3500*%
%ADD52O,0.3500X0.9500*%
%ADD53R,4.7500X4.7500*%
%ADD54C,0.7500*%
%ADD55C,0.1270*%
D55*
X00289250Y00308625D02*
X00292250D01*
X00290750Y00307125D02*
Y00310125D01*
X00267000Y00325625D02*
X00270000D01*
X00268500Y00324125D02*
Y00327125D01*
X00267750Y00341625D02*
X00270750D01*
X00269250Y00340125D02*
Y00343125D01*
X00290000Y00358625D02*
X00293000D01*
X00291500Y00357125D02*
Y00360125D01*
X00267000Y00363125D02*
X00270000D01*
X00268500Y00361625D02*
Y00364625D01*
X00267000Y00304875D02*
X00270000D01*
X00268500Y00303375D02*
Y00306375D01*
X00449000Y00266000D02*
X00452000D01*
X00450500Y00264500D02*
Y00267500D01*
X00532000Y00388500D02*
X00535000D01*
X00533500Y00387000D02*
Y00390000D01*
X00405500Y00366000D02*
X00408500D01*
X00407000Y00364500D02*
Y00367500D01*
X00473000Y00366750D02*
X00476000D01*
X00474500Y00365250D02*
Y00368250D01*
X00439500Y00321750D02*
X00442500D01*
X00441000Y00320250D02*
Y00323250D01*
X00539500Y00266750D02*
X00542500D01*
X00541000Y00265250D02*
Y00268250D01*
X00593750Y00284000D02*
X00596750D01*
X00595250Y00282500D02*
Y00285500D01*
X00319000Y00260500D02*
X00322000D01*
X00320500Y00259000D02*
Y00262000D01*
X00372000Y00317250D02*
X00375000D01*
X00373500Y00315750D02*
Y00318750D01*
X00459250Y00407750D02*
X00462250D01*
X00460750Y00406250D02*
Y00409250D01*
X00393250Y00400750D02*
X00396250D01*
X00394750Y00399250D02*
Y00402250D01*
X00307250Y00406750D02*
X00310250D01*
X00308750Y00405250D02*
Y00408250D01*
X00335000Y00371000D02*
X00338000D01*
X00336500Y00369500D02*
Y00372500D01*
X00499500Y00357750D02*
X00502500D01*
X00501000Y00356250D02*
Y00359250D01*
X00527500Y00357750D02*
X00530500D01*
X00529000Y00356250D02*
Y00359250D01*
X00554500Y00262750D02*
X00557500D01*
X00556000Y00261250D02*
Y00264250D01*
X00286500Y00266000D02*
X00289500D01*
X00288000Y00264500D02*
Y00267500D01*
X00446250Y00383250D02*
X00449250D01*
X00447750Y00381750D02*
Y00384750D01*
X00441500Y00332250D02*
X00444500D01*
X00443000Y00330750D02*
Y00333750D01*
X00544250Y00292750D02*
X00547250D01*
X00545750Y00291250D02*
Y00294250D01*
X00563250Y00340000D02*
X00566250D01*
X00564750Y00338500D02*
Y00341500D01*
X00293500Y00396250D02*
X00296500D01*
X00295000Y00394750D02*
Y00397750D01*
X00448000Y00300250D02*
X00451000D01*
X00449500Y00298750D02*
Y00301750D01*
X00427750Y00318000D02*
X00430750D01*
X00429250Y00316500D02*
Y00319500D01*
X00427750Y00273750D02*
X00430750D01*
X00429250Y00272250D02*
Y00275250D01*
X00562750Y00331750D02*
X00565750D01*
X00564250Y00330250D02*
Y00333250D01*
X00433750Y00297000D02*
X00436750D01*
X00435250Y00295500D02*
Y00298500D01*
X00501000Y00330000D02*
X00504000D01*
X00502500Y00328500D02*
Y00331500D01*
X00501000Y00300000D02*
X00504000D01*
X00502500Y00298500D02*
Y00301500D01*
M02*
