%FSAX44Y44*%
%MOMM*%
G71*
G01*
G75*
G04 Layer_Color=8388736*
%ADD10R,0.6000X0.5000*%
%ADD11R,0.5000X0.6000*%
%ADD12R,2.1000X1.4750*%
%ADD13R,1.3800X0.4500*%
%ADD14R,1.9000X1.1750*%
%ADD15R,1.9000X2.3750*%
%ADD16R,0.7000X0.9000*%
%ADD17R,0.9000X0.7000*%
%ADD18O,1.8000X0.4500*%
%ADD19O,2.1000X0.3500*%
%ADD20R,0.6000X0.6000*%
%ADD21R,1.1500X1.4000*%
%ADD22R,1.0000X2.0000*%
%ADD23R,1.4000X0.7000*%
%ADD24O,0.8000X0.2000*%
%ADD25O,0.2000X0.8000*%
%ADD26R,4.6000X4.6000*%
%ADD27C,0.2000*%
%ADD28C,0.3000*%
%ADD29C,0.5000*%
%ADD30C,0.6000*%
%ADD31C,1.0160*%
G04:AMPARAMS|DCode=32|XSize=1.4mm|YSize=1.4mm|CornerRadius=0mm|HoleSize=0mm|Usage=FLASHONLY|Rotation=0.000|XOffset=0mm|YOffset=0mm|HoleType=Round|Shape=Relief|Width=0.15mm|Gap=0.15mm|Entries=4|*
%AMTHD32*
7,0,0,1.4000,1.1000,0.1500,45*
%
%ADD32THD32*%
%ADD33C,1.3000*%
%ADD34C,0.2500*%
%ADD35C,0.6000*%
%ADD36C,0.1250*%
%ADD37R,0.7500X0.6500*%
%ADD38R,0.6500X0.7500*%
%ADD39R,2.2500X1.6250*%
%ADD40R,1.5300X0.6000*%
%ADD41R,2.0500X1.3250*%
%ADD42R,2.0500X2.5250*%
%ADD43R,0.8500X1.0500*%
%ADD44R,1.0500X0.8500*%
%ADD45O,1.9500X0.6000*%
%ADD46O,2.2500X0.5000*%
%ADD47R,0.7500X0.7500*%
%ADD48R,1.3000X1.5500*%
%ADD49R,1.1500X2.1500*%
%ADD50R,1.5500X0.8500*%
%ADD51O,0.9500X0.3500*%
%ADD52O,0.3500X0.9500*%
%ADD53R,4.7500X4.7500*%
%ADD54C,0.7500*%
D37*
X00573500Y00273500D02*
D03*
X00583500D02*
D03*
X00269250Y00407500D02*
D03*
X00279250D02*
D03*
X00318000Y00372500D02*
D03*
X00308000D02*
D03*
X00425750Y00286750D02*
D03*
X00435750D02*
D03*
X00544750Y00336750D02*
D03*
X00554750D02*
D03*
X00544750Y00328000D02*
D03*
X00554750D02*
D03*
X00578250Y00331750D02*
D03*
X00588250D02*
D03*
X00544750Y00319250D02*
D03*
X00554750D02*
D03*
X00346250Y00373750D02*
D03*
X00356250D02*
D03*
X00460750Y00318500D02*
D03*
X00450750D02*
D03*
D38*
X00309750Y00339000D02*
D03*
Y00329000D02*
D03*
X00318500Y00328500D02*
D03*
Y00338500D02*
D03*
X00501000Y00368500D02*
D03*
Y00378500D02*
D03*
X00528750Y00367750D02*
D03*
Y00377750D02*
D03*
X00345750Y00383000D02*
D03*
Y00393000D02*
D03*
X00319500Y00278750D02*
D03*
Y00288750D02*
D03*
X00309250Y00295500D02*
D03*
Y00305500D02*
D03*
X00318500Y00351750D02*
D03*
Y00361750D02*
D03*
X00457250Y00291250D02*
D03*
Y00281250D02*
D03*
X00597000Y00333500D02*
D03*
Y00343500D02*
D03*
X00510750Y00357750D02*
D03*
Y00367750D02*
D03*
X00519500D02*
D03*
Y00357750D02*
D03*
X00510750Y00377250D02*
D03*
Y00387250D02*
D03*
X00555500Y00297250D02*
D03*
Y00307250D02*
D03*
X00500000Y00274750D02*
D03*
Y00264750D02*
D03*
D39*
X00291500Y00358625D02*
D03*
Y00309375D02*
D03*
D40*
X00295100Y00321000D02*
D03*
Y00327500D02*
D03*
Y00334000D02*
D03*
Y00347000D02*
D03*
Y00340500D02*
D03*
D41*
X00268500Y00325625D02*
D03*
Y00342375D02*
D03*
D42*
Y00304875D02*
D03*
Y00363125D02*
D03*
D43*
X00308500Y00383250D02*
D03*
X00323500D02*
D03*
X00284000Y00396250D02*
D03*
X00269000D02*
D03*
X00568000Y00262750D02*
D03*
X00583000D02*
D03*
D44*
X00335000Y00398000D02*
D03*
Y00383000D02*
D03*
X00356250Y00398000D02*
D03*
Y00383000D02*
D03*
X00446750Y00290750D02*
D03*
Y00275750D02*
D03*
X00434500Y00383250D02*
D03*
Y00398250D02*
D03*
D45*
X00374250Y00402750D02*
D03*
Y00396250D02*
D03*
Y00389750D02*
D03*
Y00383250D02*
D03*
X00415750Y00402750D02*
D03*
Y00396250D02*
D03*
Y00389750D02*
D03*
Y00383250D02*
D03*
D46*
X00337500Y00351750D02*
D03*
Y00345250D02*
D03*
Y00338750D02*
D03*
Y00332250D02*
D03*
Y00325750D02*
D03*
Y00319250D02*
D03*
Y00312750D02*
D03*
Y00306250D02*
D03*
Y00299750D02*
D03*
Y00293250D02*
D03*
Y00286750D02*
D03*
Y00280250D02*
D03*
Y00273750D02*
D03*
Y00267250D02*
D03*
X00406500Y00351750D02*
D03*
Y00345250D02*
D03*
Y00338750D02*
D03*
Y00332250D02*
D03*
Y00325750D02*
D03*
Y00319250D02*
D03*
Y00312750D02*
D03*
Y00306250D02*
D03*
Y00299750D02*
D03*
Y00293250D02*
D03*
Y00286750D02*
D03*
Y00280250D02*
D03*
Y00273750D02*
D03*
Y00267250D02*
D03*
D47*
X00431750Y00352250D02*
D03*
X00453750D02*
D03*
X00432000Y00332500D02*
D03*
X00454000D02*
D03*
D48*
X00567500Y00297250D02*
D03*
X00567500Y00319250D02*
D03*
X00583500D02*
D03*
Y00297250D02*
D03*
D49*
X00563501Y00399501D02*
D03*
X00597501D02*
D03*
D50*
X00272000Y00280750D02*
D03*
X00304000D02*
D03*
Y00265750D02*
D03*
X00272000D02*
D03*
D51*
X00532500Y00292500D02*
D03*
Y00297500D02*
D03*
Y00302500D02*
D03*
Y00307500D02*
D03*
Y00312500D02*
D03*
Y00317500D02*
D03*
Y00322500D02*
D03*
Y00327500D02*
D03*
Y00332500D02*
D03*
Y00337500D02*
D03*
X00472500D02*
D03*
Y00332500D02*
D03*
Y00327500D02*
D03*
Y00322500D02*
D03*
Y00317500D02*
D03*
Y00312500D02*
D03*
Y00307500D02*
D03*
Y00302500D02*
D03*
Y00297500D02*
D03*
Y00292500D02*
D03*
D52*
X00525000Y00345000D02*
D03*
X00520000D02*
D03*
X00515000D02*
D03*
X00510000D02*
D03*
X00505000D02*
D03*
X00500000D02*
D03*
X00495000D02*
D03*
X00490000D02*
D03*
X00485000D02*
D03*
X00480000D02*
D03*
Y00285000D02*
D03*
X00485000D02*
D03*
X00490000D02*
D03*
X00495000D02*
D03*
X00500000D02*
D03*
X00505000D02*
D03*
X00510000D02*
D03*
X00515000D02*
D03*
X00520000D02*
D03*
X00525000D02*
D03*
D53*
X00502500Y00315000D02*
D03*
D54*
X00290750Y00308625D02*
D03*
X00268500Y00325625D02*
D03*
X00269250Y00341625D02*
D03*
X00291500Y00358625D02*
D03*
X00268500Y00363125D02*
D03*
Y00304875D02*
D03*
X00450500Y00266000D02*
D03*
X00533500Y00388500D02*
D03*
X00407000Y00366000D02*
D03*
X00474500Y00366750D02*
D03*
X00441000Y00321750D02*
D03*
X00541000Y00266750D02*
D03*
X00595250Y00284000D02*
D03*
X00320500Y00260500D02*
D03*
X00373500Y00317250D02*
D03*
X00460750Y00407750D02*
D03*
X00394750Y00400750D02*
D03*
X00308750Y00406750D02*
D03*
X00336500Y00371000D02*
D03*
X00501000Y00357750D02*
D03*
X00529000D02*
D03*
X00556000Y00262750D02*
D03*
X00288000Y00266000D02*
D03*
X00447750Y00383250D02*
D03*
X00443000Y00332250D02*
D03*
X00545750Y00292750D02*
D03*
X00564750Y00340000D02*
D03*
X00295000Y00396250D02*
D03*
X00449500Y00300250D02*
D03*
X00429250Y00318000D02*
D03*
Y00273750D02*
D03*
X00564250Y00331750D02*
D03*
X00435250Y00297000D02*
D03*
X00502500Y00330000D02*
D03*
Y00300000D02*
D03*
M02*
