%FSAX44Y44*%
%MOMM*%
G71*
G01*
G75*
G04 Layer_Color=65535*
%ADD10R,0.6000X0.5000*%
%ADD11R,0.5000X0.6000*%
%ADD12R,2.1000X1.4750*%
%ADD13R,1.3800X0.4500*%
%ADD14R,1.9000X1.1750*%
%ADD15R,1.9000X2.3750*%
%ADD16R,0.7000X0.9000*%
%ADD17R,0.9000X0.7000*%
%ADD18O,1.8000X0.4500*%
%ADD19O,2.1000X0.3500*%
%ADD20R,0.6000X0.6000*%
%ADD21R,1.1500X1.4000*%
%ADD22R,1.0000X2.0000*%
%ADD23R,1.4000X0.7000*%
%ADD24O,0.8000X0.2000*%
%ADD25O,0.2000X0.8000*%
%ADD26R,4.6000X4.6000*%
%ADD27C,0.2000*%
%ADD28C,0.3000*%
%ADD29C,0.5000*%
%ADD30C,0.6000*%
%ADD31C,1.0160*%
G04:AMPARAMS|DCode=32|XSize=1.4mm|YSize=1.4mm|CornerRadius=0mm|HoleSize=0mm|Usage=FLASHONLY|Rotation=0.000|XOffset=0mm|YOffset=0mm|HoleType=Round|Shape=Relief|Width=0.15mm|Gap=0.15mm|Entries=4|*
%AMTHD32*
7,0,0,1.4000,1.1000,0.1500,45*
%
%ADD32THD32*%
%ADD33C,1.3000*%
%ADD34C,0.2500*%
%ADD35C,0.6000*%
%ADD36C,0.1250*%
D27*
X00588510Y00287260D02*
G03*
X00588510Y00287260I-00000010J00000000D01*
G01*
X00559510Y00412500D02*
G03*
X00559510Y00412500I-00000010J00000000D01*
G01*
X00309010Y00289250D02*
G03*
X00309010Y00289250I-00000010J00000000D01*
G01*
X00297000Y00369000D02*
Y00374000D01*
X00282000D02*
X00297000D01*
Y00294000D02*
Y00299000D01*
X00282000Y00294000D02*
X00297000D01*
X00314000Y00386750D02*
X00318000D01*
X00314000Y00379750D02*
X00318000D01*
X00338500Y00388500D02*
Y00392500D01*
X00331500Y00388500D02*
Y00392500D01*
X00359750Y00388500D02*
Y00392500D01*
X00352750Y00388500D02*
Y00392500D01*
X00387250Y00409000D02*
X00402750D01*
X00387250Y00377000D02*
X00402750D01*
X00387250D02*
Y00409000D01*
X00402750Y00377000D02*
Y00409000D01*
X00352000Y00362000D02*
X00392000D01*
X00352000Y00257000D02*
X00392000D01*
X00352000D02*
Y00362000D01*
X00392000Y00257000D02*
Y00362000D01*
X00437750Y00348250D02*
Y00356250D01*
X00447750Y00348250D02*
Y00356250D01*
X00437750Y00352250D02*
X00447750Y00348250D01*
X00437750Y00352250D02*
X00447750Y00356250D01*
X00438000Y00328500D02*
Y00336500D01*
X00448000Y00328500D02*
Y00336500D01*
X00438000Y00332500D02*
X00448000Y00328500D01*
X00438000Y00332500D02*
X00448000Y00336500D01*
X00588500Y00307250D02*
Y00309250D01*
X00562500Y00307250D02*
Y00309250D01*
X00571500Y00408500D02*
X00589500D01*
X00571500Y00390500D02*
X00589500D01*
X00270000Y00287250D02*
Y00289250D01*
X00306000D01*
Y00287250D02*
Y00289250D01*
Y00257250D02*
Y00259250D01*
X00270000Y00257250D02*
X00306000D01*
X00270000D02*
Y00259250D01*
X00306000Y00272250D02*
Y00274250D01*
X00270000Y00272250D02*
Y00274250D01*
X00450250Y00281250D02*
Y00285250D01*
X00443250Y00281250D02*
Y00285250D01*
X00431000Y00388750D02*
Y00392750D01*
X00438000Y00388750D02*
Y00392750D01*
X00274500Y00391250D02*
X00278500D01*
X00274500Y00401250D02*
X00278500D01*
X00573500Y00267750D02*
X00577500D01*
X00573500Y00257750D02*
X00577500D01*
X00534500Y00283000D02*
Y00287500D01*
X00530000Y00283000D02*
X00534500D01*
X00470500D02*
X00475000D01*
X00470500D02*
Y00287500D01*
Y00342500D02*
Y00347000D01*
X00475000D01*
X00534500Y00342500D02*
Y00347000D01*
X00530000D02*
X00534500D01*
D34*
X00417000Y00375500D02*
G03*
X00417000Y00375500I-00001250J00000000D01*
G01*
X00407750Y00260000D02*
G03*
X00407750Y00260000I-00001250J00000000D01*
G01*
X00542250Y00284500D02*
G03*
X00542250Y00284500I-00001250J00000000D01*
G01*
D35*
X00385000Y00267000D02*
G03*
X00385000Y00267000I-00003000J00000000D01*
G01*
D36*
X00274500Y00396250D02*
X00278500Y00398750D01*
Y00393750D02*
Y00398750D01*
X00274500Y00396250D02*
X00278500Y00393750D01*
X00274500Y00393750D02*
Y00398750D01*
X00573500Y00260250D02*
X00577500Y00262750D01*
X00573500Y00260250D02*
Y00265250D01*
X00577500Y00262750D01*
Y00260250D02*
Y00265250D01*
X00590750Y00270750D02*
Y00276748D01*
X00593749D01*
X00594749Y00275748D01*
Y00273749D01*
X00593749Y00272749D01*
X00590750D01*
X00592749D02*
X00594749Y00270750D01*
X00600747D02*
X00596748D01*
X00600747Y00274749D01*
Y00275748D01*
X00599747Y00276748D01*
X00597748D01*
X00596748Y00275748D01*
X00591250Y00265748D02*
Y00259750D01*
X00594249D01*
X00595249Y00260750D01*
Y00264748D01*
X00594249Y00265748D01*
X00591250D01*
X00597248Y00264748D02*
X00598248Y00265748D01*
X00600247D01*
X00601247Y00264748D01*
Y00263749D01*
X00600247Y00262749D01*
X00599247D01*
X00600247D01*
X00601247Y00261749D01*
Y00260750D01*
X00600247Y00259750D01*
X00598248D01*
X00597248Y00260750D01*
X00594750Y00381500D02*
Y00385499D01*
X00596749Y00387498D01*
X00598749Y00385499D01*
Y00381500D01*
Y00384499D01*
X00594750D01*
X00600748Y00381500D02*
X00602747D01*
X00601748D01*
Y00387498D01*
X00600748Y00386498D01*
X00366499Y00375248D02*
X00365499Y00376248D01*
X00363500D01*
X00362500Y00375248D01*
Y00371250D01*
X00363500Y00370250D01*
X00365499D01*
X00366499Y00371250D01*
X00372497Y00370250D02*
X00368498D01*
X00372497Y00374249D01*
Y00375248D01*
X00371497Y00376248D01*
X00369498D01*
X00368498Y00375248D01*
X00425499Y00296998D02*
X00424499Y00297998D01*
X00422500D01*
X00421500Y00296998D01*
Y00293000D01*
X00422500Y00292000D01*
X00424499D01*
X00425499Y00293000D01*
X00427498Y00296998D02*
X00428498Y00297998D01*
X00430497D01*
X00431497Y00296998D01*
Y00295999D01*
X00430497Y00294999D01*
X00429497D01*
X00430497D01*
X00431497Y00293999D01*
Y00293000D01*
X00430497Y00292000D01*
X00428498D01*
X00427498Y00293000D01*
X00434249Y00409498D02*
X00433249Y00410498D01*
X00431250D01*
X00430250Y00409498D01*
Y00405500D01*
X00431250Y00404500D01*
X00433249D01*
X00434249Y00405500D01*
X00436248Y00404500D02*
X00438247D01*
X00437248D01*
Y00410498D01*
X00436248Y00409498D01*
X00357249Y00409248D02*
X00356249Y00410248D01*
X00354250D01*
X00353250Y00409248D01*
Y00405250D01*
X00354250Y00404250D01*
X00356249D01*
X00357249Y00405250D01*
X00362247Y00404250D02*
Y00410248D01*
X00359248Y00407249D01*
X00363247D01*
X00316502Y00316749D02*
X00315502Y00315749D01*
Y00313750D01*
X00316502Y00312750D01*
X00320500D01*
X00321500Y00313750D01*
Y00315749D01*
X00320500Y00316749D01*
X00315502Y00322747D02*
Y00318748D01*
X00318501D01*
X00317501Y00320747D01*
Y00321747D01*
X00318501Y00322747D01*
X00320500D01*
X00321500Y00321747D01*
Y00319748D01*
X00320500Y00318748D01*
X00344002Y00403499D02*
X00343002Y00402499D01*
Y00400500D01*
X00344002Y00399500D01*
X00348000D01*
X00349000Y00400500D01*
Y00402499D01*
X00348000Y00403499D01*
X00343002Y00409497D02*
X00344002Y00407497D01*
X00346001Y00405498D01*
X00348000D01*
X00349000Y00406498D01*
Y00408497D01*
X00348000Y00409497D01*
X00347001D01*
X00346001Y00408497D01*
Y00405498D01*
X00334499Y00409998D02*
X00333499Y00410998D01*
X00331500D01*
X00330500Y00409998D01*
Y00406000D01*
X00331500Y00405000D01*
X00333499D01*
X00334499Y00406000D01*
X00336498Y00410998D02*
X00340497D01*
Y00409998D01*
X00336498Y00406000D01*
Y00405000D01*
X00328499Y00374248D02*
X00327499Y00375248D01*
X00325500D01*
X00324500Y00374248D01*
Y00370250D01*
X00325500Y00369250D01*
X00327499D01*
X00328499Y00370250D01*
X00330498Y00374248D02*
X00331498Y00375248D01*
X00333497D01*
X00334497Y00374248D01*
Y00373249D01*
X00333497Y00372249D01*
X00334497Y00371249D01*
Y00370250D01*
X00333497Y00369250D01*
X00331498D01*
X00330498Y00370250D01*
Y00371249D01*
X00331498Y00372249D01*
X00330498Y00373249D01*
Y00374248D01*
X00331498Y00372249D02*
X00333497D01*
X00307252Y00316749D02*
X00306252Y00315749D01*
Y00313750D01*
X00307252Y00312750D01*
X00311250D01*
X00312250Y00313750D01*
Y00315749D01*
X00311250Y00316749D01*
Y00318748D02*
X00312250Y00319748D01*
Y00321747D01*
X00311250Y00322747D01*
X00307252D01*
X00306252Y00321747D01*
Y00319748D01*
X00307252Y00318748D01*
X00308251D01*
X00309251Y00319748D01*
Y00322747D01*
X00306502Y00354249D02*
X00305502Y00353249D01*
Y00351250D01*
X00306502Y00350250D01*
X00310500D01*
X00311500Y00351250D01*
Y00353249D01*
X00310500Y00354249D01*
X00311500Y00356248D02*
Y00358247D01*
Y00357248D01*
X00305502D01*
X00306502Y00356248D01*
Y00361246D02*
X00305502Y00362246D01*
Y00364245D01*
X00306502Y00365245D01*
X00310500D01*
X00311500Y00364245D01*
Y00362246D01*
X00310500Y00361246D01*
X00306502D01*
X00553752Y00279999D02*
X00552752Y00278999D01*
Y00277000D01*
X00553752Y00276000D01*
X00557750D01*
X00558750Y00277000D01*
Y00278999D01*
X00557750Y00279999D01*
X00558750Y00285997D02*
Y00281998D01*
X00554751Y00285997D01*
X00553752D01*
X00552752Y00284997D01*
Y00282998D01*
X00553752Y00281998D01*
X00558750Y00287996D02*
Y00289995D01*
Y00288996D01*
X00552752D01*
X00553752Y00287996D01*
X00579749Y00342248D02*
X00578749Y00343248D01*
X00576750D01*
X00575750Y00342248D01*
Y00338250D01*
X00576750Y00337250D01*
X00578749D01*
X00579749Y00338250D01*
X00585747Y00337250D02*
X00581748D01*
X00585747Y00341249D01*
Y00342248D01*
X00584747Y00343248D01*
X00582748D01*
X00581748Y00342248D01*
X00591745Y00337250D02*
X00587746D01*
X00591745Y00341249D01*
Y00342248D01*
X00590745Y00343248D01*
X00588746D01*
X00587746Y00342248D01*
X00429249Y00280998D02*
X00428249Y00281998D01*
X00426250D01*
X00425250Y00280998D01*
Y00277000D01*
X00426250Y00276000D01*
X00428249D01*
X00429249Y00277000D01*
X00431248Y00276000D02*
X00433247D01*
X00432248D01*
Y00281998D01*
X00431248Y00280998D01*
X00440245Y00276000D02*
X00436246D01*
X00440245Y00279999D01*
Y00280998D01*
X00439245Y00281998D01*
X00437246D01*
X00436246Y00280998D01*
X00546499Y00346998D02*
X00545499Y00347998D01*
X00543500D01*
X00542500Y00346998D01*
Y00343000D01*
X00543500Y00342000D01*
X00545499D01*
X00546499Y00343000D01*
X00548498Y00342000D02*
X00550497D01*
X00549498D01*
Y00347998D01*
X00548498Y00346998D01*
X00553496D02*
X00554496Y00347998D01*
X00556496D01*
X00557495Y00346998D01*
Y00345999D01*
X00556496Y00344999D01*
X00555496D01*
X00556496D01*
X00557495Y00343999D01*
Y00343000D01*
X00556496Y00342000D01*
X00554496D01*
X00553496Y00343000D01*
X00455502Y00300749D02*
X00454502Y00299749D01*
Y00297750D01*
X00455502Y00296750D01*
X00459500D01*
X00460500Y00297750D01*
Y00299749D01*
X00459500Y00300749D01*
X00460500Y00302748D02*
Y00304747D01*
Y00303748D01*
X00454502D01*
X00455502Y00302748D01*
X00460500Y00310746D02*
X00454502D01*
X00457501Y00307746D01*
Y00311745D01*
X00543002Y00301749D02*
X00542002Y00300749D01*
Y00298750D01*
X00543002Y00297750D01*
X00547000D01*
X00548000Y00298750D01*
Y00300749D01*
X00547000Y00301749D01*
X00548000Y00303748D02*
Y00305747D01*
Y00304748D01*
X00542002D01*
X00543002Y00303748D01*
X00542002Y00312745D02*
Y00308746D01*
X00545001D01*
X00544001Y00310746D01*
Y00311745D01*
X00545001Y00312745D01*
X00547000D01*
X00548000Y00311745D01*
Y00309746D01*
X00547000Y00308746D01*
X00562502Y00331999D02*
X00561502Y00330999D01*
Y00329000D01*
X00562502Y00328000D01*
X00566500D01*
X00567500Y00329000D01*
Y00330999D01*
X00566500Y00331999D01*
X00567500Y00333998D02*
Y00335997D01*
Y00334998D01*
X00561502D01*
X00562502Y00333998D01*
X00561502Y00342995D02*
X00562502Y00340996D01*
X00564501Y00338996D01*
X00566500D01*
X00567500Y00339996D01*
Y00341996D01*
X00566500Y00342995D01*
X00565501D01*
X00564501Y00341996D01*
Y00338996D01*
X00534252Y00368999D02*
X00533252Y00367999D01*
Y00366000D01*
X00534252Y00365000D01*
X00538250D01*
X00539250Y00366000D01*
Y00367999D01*
X00538250Y00368999D01*
X00539250Y00370998D02*
Y00372997D01*
Y00371998D01*
X00533252D01*
X00534252Y00370998D01*
X00533252Y00375996D02*
Y00379995D01*
X00534252D01*
X00538250Y00375996D01*
X00539250D01*
X00488752Y00369499D02*
X00487752Y00368499D01*
Y00366500D01*
X00488752Y00365500D01*
X00492750D01*
X00493750Y00366500D01*
Y00368499D01*
X00492750Y00369499D01*
X00493750Y00371498D02*
Y00373497D01*
Y00372498D01*
X00487752D01*
X00488752Y00371498D01*
Y00376496D02*
X00487752Y00377496D01*
Y00379496D01*
X00488752Y00380495D01*
X00489751D01*
X00490751Y00379496D01*
X00491751Y00380495D01*
X00492750D01*
X00493750Y00379496D01*
Y00377496D01*
X00492750Y00376496D01*
X00491751D01*
X00490751Y00377496D01*
X00489751Y00376496D01*
X00488752D01*
X00490751Y00377496D02*
Y00379496D01*
X00256002Y00259250D02*
X00262000D01*
Y00262249D01*
X00261000Y00263249D01*
X00257002D01*
X00256002Y00262249D01*
Y00259250D01*
X00262000Y00269247D02*
Y00265248D01*
X00258001Y00269247D01*
X00257002D01*
X00256002Y00268247D01*
Y00266248D01*
X00257002Y00265248D01*
X00256252Y00390750D02*
X00262250D01*
Y00393749D01*
X00261250Y00394749D01*
X00257252D01*
X00256252Y00393749D01*
Y00390750D01*
X00262250Y00396748D02*
Y00398747D01*
Y00397748D01*
X00256252D01*
X00257252Y00396748D01*
X00419502Y00327500D02*
X00425500D01*
Y00330499D01*
X00424500Y00331499D01*
X00420502D01*
X00419502Y00330499D01*
Y00327500D01*
X00425500Y00336497D02*
X00419502D01*
X00422501Y00333498D01*
Y00337497D01*
X00419252Y00347500D02*
X00425250D01*
Y00350499D01*
X00424250Y00351499D01*
X00420252D01*
X00419252Y00350499D01*
Y00347500D01*
Y00357497D02*
Y00353498D01*
X00422251D01*
X00421251Y00355497D01*
Y00356497D01*
X00422251Y00357497D01*
X00424250D01*
X00425250Y00356497D01*
Y00354498D01*
X00424250Y00353498D01*
X00311999Y00396748D02*
X00308000D01*
Y00393749D01*
X00309999D01*
X00308000D01*
Y00390750D01*
X00317997Y00396748D02*
X00313998D01*
Y00390750D01*
X00317997D01*
X00313998Y00393749D02*
X00315997D01*
X00319996Y00390750D02*
X00321996D01*
X00320996D01*
Y00396748D01*
X00319996Y00395748D01*
X00255502Y00286749D02*
Y00284749D01*
Y00285749D01*
X00260500D01*
X00261500Y00284749D01*
Y00283750D01*
X00260500Y00282750D01*
X00261500Y00288748D02*
Y00290747D01*
Y00289748D01*
X00255502D01*
X00256502Y00288748D01*
X00516500Y00394498D02*
Y00388500D01*
X00520499D01*
X00526497D02*
X00522498D01*
X00526497Y00392499D01*
Y00393498D01*
X00525497Y00394498D01*
X00523498D01*
X00522498Y00393498D01*
X00262500Y00404250D02*
X00256502D01*
Y00407249D01*
X00257502Y00408249D01*
X00259501D01*
X00260501Y00407249D01*
Y00404250D01*
Y00406249D02*
X00262500Y00408249D01*
Y00410248D02*
Y00412247D01*
Y00411248D01*
X00256502D01*
X00257502Y00410248D01*
X00320000Y00296750D02*
X00314002D01*
Y00299749D01*
X00315002Y00300749D01*
X00317001D01*
X00318001Y00299749D01*
Y00296750D01*
Y00298749D02*
X00320000Y00300749D01*
X00315002Y00302748D02*
X00314002Y00303748D01*
Y00305747D01*
X00315002Y00306747D01*
X00316001D01*
X00317001Y00305747D01*
Y00304747D01*
Y00305747D01*
X00318001Y00306747D01*
X00319000D01*
X00320000Y00305747D01*
Y00303748D01*
X00319000Y00302748D01*
X00314750Y00265750D02*
Y00271748D01*
X00317749D01*
X00318749Y00270748D01*
Y00268749D01*
X00317749Y00267749D01*
X00314750D01*
X00316749D02*
X00318749Y00265750D01*
X00323747D02*
Y00271748D01*
X00320748Y00268749D01*
X00324747D01*
X00601000Y00316500D02*
X00595002D01*
Y00319499D01*
X00596002Y00320499D01*
X00598001D01*
X00599001Y00319499D01*
Y00316500D01*
Y00318499D02*
X00601000Y00320499D01*
X00595002Y00326497D02*
Y00322498D01*
X00598001D01*
X00597001Y00324497D01*
Y00325497D01*
X00598001Y00326497D01*
X00600000D01*
X00601000Y00325497D01*
Y00323498D01*
X00600000Y00322498D01*
X00389000Y00372998D02*
Y00368000D01*
X00390000Y00367000D01*
X00391999D01*
X00392999Y00368000D01*
Y00372998D01*
X00394998Y00367000D02*
X00396997D01*
X00395998D01*
Y00372998D01*
X00394998Y00371998D01*
X00414500Y00262248D02*
Y00257250D01*
X00415500Y00256250D01*
X00417499D01*
X00418499Y00257250D01*
Y00262248D01*
X00424497Y00256250D02*
X00420498D01*
X00424497Y00260249D01*
Y00261248D01*
X00423497Y00262248D01*
X00421498D01*
X00420498Y00261248D01*
X00591750Y00302998D02*
Y00301998D01*
X00593749Y00299999D01*
X00595749Y00301998D01*
Y00302998D01*
X00593749Y00299999D02*
Y00297000D01*
X00597748D02*
X00599747D01*
X00598748D01*
Y00302998D01*
X00597748Y00301998D01*
X00497499Y00360498D02*
X00496499Y00361498D01*
X00494500D01*
X00493500Y00360498D01*
Y00356500D01*
X00494500Y00355500D01*
X00496499D01*
X00497499Y00356500D01*
X00499498Y00355500D02*
X00501497D01*
X00500498D01*
Y00361498D01*
X00499498Y00360498D01*
X00504496Y00355500D02*
X00506496D01*
X00505496D01*
Y00361498D01*
X00504496Y00360498D01*
X00516502Y00374000D02*
X00522500D01*
Y00377999D01*
Y00379998D02*
Y00381997D01*
Y00380998D01*
X00516502D01*
X00517502Y00379998D01*
X00510749Y00272498D02*
X00509749Y00273498D01*
X00507750D01*
X00506750Y00272498D01*
Y00268500D01*
X00507750Y00267500D01*
X00509749D01*
X00510749Y00268500D01*
X00516747Y00267500D02*
X00512748D01*
X00516747Y00271499D01*
Y00272498D01*
X00515747Y00273498D01*
X00513748D01*
X00512748Y00272498D01*
X00518746D02*
X00519746Y00273498D01*
X00521745D01*
X00522745Y00272498D01*
Y00268500D01*
X00521745Y00267500D01*
X00519746D01*
X00518746Y00268500D01*
Y00272498D01*
X00438749Y00313248D02*
X00437749Y00314248D01*
X00435750D01*
X00434750Y00313248D01*
Y00309250D01*
X00435750Y00308250D01*
X00437749D01*
X00438749Y00309250D01*
X00440748Y00308250D02*
X00442747D01*
X00441748D01*
Y00314248D01*
X00440748Y00313248D01*
X00445746Y00309250D02*
X00446746Y00308250D01*
X00448745D01*
X00449745Y00309250D01*
Y00313248D01*
X00448745Y00314248D01*
X00446746D01*
X00445746Y00313248D01*
Y00312249D01*
X00446746Y00311249D01*
X00449745D01*
X00473000Y00358498D02*
Y00353500D01*
X00474000Y00352500D01*
X00475999D01*
X00476999Y00353500D01*
Y00358498D01*
X00478998Y00357498D02*
X00479998Y00358498D01*
X00481997D01*
X00482997Y00357498D01*
Y00356499D01*
X00481997Y00355499D01*
X00480997D01*
X00481997D01*
X00482997Y00354499D01*
Y00353500D01*
X00481997Y00352500D01*
X00479998D01*
X00478998Y00353500D01*
X00447000Y00391998D02*
X00448999D01*
X00448000D01*
Y00386000D01*
X00447000D01*
X00448999D01*
X00451998D02*
Y00391998D01*
X00455997Y00386000D01*
Y00391998D01*
X00457996Y00386000D02*
Y00391998D01*
X00460995D01*
X00461995Y00390998D01*
Y00388999D01*
X00460995Y00387999D01*
X00457996D01*
X00459996D02*
X00461995Y00386000D01*
X00463994Y00391998D02*
X00465994D01*
X00464994D01*
Y00386000D01*
X00463994D01*
X00465994D01*
X00468993D02*
Y00389999D01*
X00470992Y00391998D01*
X00472992Y00389999D01*
Y00386000D01*
Y00388999D01*
X00468993D01*
X00480989Y00386000D02*
Y00389999D01*
X00482988Y00391998D01*
X00484988Y00389999D01*
Y00386000D01*
Y00388999D01*
X00480989D01*
X00486987Y00391998D02*
Y00387999D01*
X00488986Y00386000D01*
X00490986Y00387999D01*
Y00391998D01*
X00492985D02*
X00494985D01*
X00493985D01*
Y00386000D01*
X00492985D01*
X00494985D01*
X00497984Y00391998D02*
X00501982D01*
Y00390998D01*
X00497984Y00387000D01*
Y00386000D01*
X00501982D01*
X00443000Y00402748D02*
Y00396750D01*
X00445999D01*
X00446999Y00397750D01*
Y00401748D01*
X00445999Y00402748D01*
X00443000D01*
X00449998Y00396750D02*
X00451997D01*
X00452997Y00397750D01*
Y00399749D01*
X00451997Y00400749D01*
X00449998D01*
X00448998Y00399749D01*
Y00397750D01*
X00449998Y00396750D01*
X00454996D02*
Y00400749D01*
X00457995D01*
X00458995Y00399749D01*
Y00396750D01*
X00462994Y00394751D02*
X00463993D01*
X00464993Y00395750D01*
Y00400749D01*
X00461994D01*
X00460994Y00399749D01*
Y00397750D01*
X00461994Y00396750D01*
X00464993D01*
X00466992D02*
X00468992D01*
X00467992D01*
Y00402748D01*
X00466992D01*
X00474990Y00396750D02*
X00472990D01*
X00471991Y00397750D01*
Y00399749D01*
X00472990Y00400749D01*
X00474990D01*
X00475989Y00399749D01*
Y00398749D01*
X00471991D01*
X00483987Y00402748D02*
Y00398749D01*
X00485986Y00396750D01*
X00487985Y00398749D01*
Y00402748D01*
X00489985Y00396750D02*
X00491984D01*
X00490984D01*
Y00402748D01*
X00489985Y00401748D01*
X00494983Y00396750D02*
Y00397750D01*
X00495983D01*
Y00396750D01*
X00494983D01*
X00499981Y00401748D02*
X00500981Y00402748D01*
X00502980D01*
X00503980Y00401748D01*
Y00397750D01*
X00502980Y00396750D01*
X00500981D01*
X00499981Y00397750D01*
Y00401748D01*
X00467000Y00411498D02*
Y00406500D01*
X00468000Y00405500D01*
X00469999D01*
X00470999Y00406500D01*
Y00411498D01*
X00476997Y00410498D02*
X00475997Y00411498D01*
X00473998D01*
X00472998Y00410498D01*
Y00409499D01*
X00473998Y00408499D01*
X00475997D01*
X00476997Y00407499D01*
Y00406500D01*
X00475997Y00405500D01*
X00473998D01*
X00472998Y00406500D01*
X00478996Y00411498D02*
Y00405500D01*
X00481995D01*
X00482995Y00406500D01*
Y00407499D01*
X00481995Y00408499D01*
X00478996D01*
X00481995D01*
X00482995Y00409499D01*
Y00410498D01*
X00481995Y00411498D01*
X00478996D01*
M02*
