%FSAX44Y44*%
%MOMM*%
G71*
G01*
G75*
G04 Layer_Color=2752767*
%ADD10R,0.6000X0.5000*%
%ADD11R,0.5000X0.6000*%
%ADD12R,2.1000X1.4750*%
%ADD13R,1.3800X0.4500*%
%ADD14R,1.9000X1.1750*%
%ADD15R,1.9000X2.3750*%
%ADD16R,0.7000X0.9000*%
%ADD17R,0.9000X0.7000*%
%ADD18O,1.8000X0.4500*%
%ADD19O,2.1000X0.3500*%
%ADD20R,0.6000X0.6000*%
%ADD21R,1.1500X1.4000*%
%ADD22R,1.0000X2.0000*%
%ADD23R,1.4000X0.7000*%
%ADD24O,0.8000X0.2000*%
%ADD25O,0.2000X0.8000*%
%ADD26R,4.6000X4.6000*%
%ADD27C,0.2000*%
%ADD28C,0.3000*%
%ADD29C,0.5000*%
%ADD30C,0.6000*%
%ADD31C,1.0160*%
G04:AMPARAMS|DCode=32|XSize=1.4mm|YSize=1.4mm|CornerRadius=0mm|HoleSize=0mm|Usage=FLASHONLY|Rotation=0.000|XOffset=0mm|YOffset=0mm|HoleType=Round|Shape=Relief|Width=0.15mm|Gap=0.15mm|Entries=4|*
%AMTHD32*
7,0,0,1.4000,1.1000,0.1500,45*
%
%ADD32THD32*%
%ADD33C,1.3000*%
%ADD34C,0.2500*%
%ADD35C,0.6000*%
%ADD36C,0.1250*%
%ADD37R,0.7500X0.6500*%
%ADD38R,0.6500X0.7500*%
%ADD39R,2.2500X1.6250*%
%ADD40R,1.5300X0.6000*%
%ADD41R,2.0500X1.3250*%
%ADD42R,2.0500X2.5250*%
%ADD43R,0.8500X1.0500*%
%ADD44R,1.0500X0.8500*%
%ADD45O,1.9500X0.6000*%
%ADD46O,2.2500X0.5000*%
%ADD47R,0.7500X0.7500*%
%ADD48R,1.3000X1.5500*%
%ADD49R,1.1500X2.1500*%
%ADD50R,1.5500X0.8500*%
%ADD51O,0.9500X0.3500*%
%ADD52O,0.3500X0.9500*%
%ADD53R,4.7500X4.7500*%
%ADD54C,0.7500*%
%ADD55C,0.1270*%
D55*
X00285670Y00303545D02*
Y00313705D01*
X00295830D01*
Y00303545D01*
X00285670D01*
X00263420Y00320545D02*
Y00330705D01*
X00273580D01*
Y00320545D01*
X00263420D01*
X00264170Y00336545D02*
Y00346705D01*
X00274330D01*
Y00336545D01*
X00264170D01*
X00286420Y00353545D02*
Y00363705D01*
X00296580D01*
Y00353545D01*
X00286420D01*
X00263420Y00358045D02*
Y00368205D01*
X00273580D01*
Y00358045D01*
X00263420D01*
Y00299795D02*
Y00309955D01*
X00273580D01*
Y00299795D01*
X00263420D01*
X00445420Y00260920D02*
Y00271080D01*
X00455580D01*
Y00260920D01*
X00445420D01*
X00528420Y00383420D02*
Y00393580D01*
X00538580D01*
Y00383420D01*
X00528420D01*
X00401920Y00360920D02*
Y00371080D01*
X00412080D01*
Y00360920D01*
X00401920D01*
X00469420Y00361670D02*
Y00371830D01*
X00479580D01*
Y00361670D01*
X00469420D01*
X00435920Y00316670D02*
Y00326830D01*
X00446080D01*
Y00316670D01*
X00435920D01*
X00535920Y00261670D02*
Y00271830D01*
X00546080D01*
Y00261670D01*
X00535920D01*
X00590170Y00278920D02*
Y00289080D01*
X00600330D01*
Y00278920D01*
X00590170D01*
X00315420Y00255420D02*
Y00265580D01*
X00325580D01*
Y00255420D01*
X00315420D01*
X00368420Y00312170D02*
Y00322330D01*
X00378580D01*
Y00312170D01*
X00368420D01*
X00455670Y00402670D02*
Y00412830D01*
X00465830D01*
Y00402670D01*
X00455670D01*
X00389670Y00395670D02*
Y00405830D01*
X00399830D01*
Y00395670D01*
X00389670D01*
X00303670Y00401670D02*
Y00411830D01*
X00313830D01*
Y00401670D01*
X00303670D01*
X00331420Y00365920D02*
Y00376080D01*
X00341580D01*
Y00365920D01*
X00331420D01*
X00495920Y00352670D02*
Y00362830D01*
X00506080D01*
Y00352670D01*
X00495920D01*
X00523920D02*
Y00362830D01*
X00534080D01*
Y00352670D01*
X00523920D01*
X00550920Y00257670D02*
Y00267830D01*
X00561080D01*
Y00257670D01*
X00550920D01*
X00282920Y00260920D02*
Y00271080D01*
X00293080D01*
Y00260920D01*
X00282920D01*
X00442670Y00378170D02*
Y00388330D01*
X00452830D01*
Y00378170D01*
X00442670D01*
X00437920Y00327170D02*
Y00337330D01*
X00448080D01*
Y00327170D01*
X00437920D01*
X00540670Y00287670D02*
Y00297830D01*
X00550830D01*
Y00287670D01*
X00540670D01*
X00559670Y00334920D02*
Y00345080D01*
X00569830D01*
Y00334920D01*
X00559670D01*
X00289920Y00391170D02*
Y00401330D01*
X00300080D01*
Y00391170D01*
X00289920D01*
X00444420Y00295170D02*
Y00305330D01*
X00454580D01*
Y00295170D01*
X00444420D01*
X00424170Y00312920D02*
Y00323080D01*
X00434330D01*
Y00312920D01*
X00424170D01*
Y00268670D02*
Y00278830D01*
X00434330D01*
Y00268670D01*
X00424170D01*
X00559170Y00326670D02*
Y00336830D01*
X00569330D01*
Y00326670D01*
X00559170D01*
X00430170Y00291920D02*
Y00302080D01*
X00440330D01*
Y00291920D01*
X00430170D01*
X00497420Y00324920D02*
Y00335080D01*
X00507580D01*
Y00324920D01*
X00497420D01*
Y00294920D02*
Y00305080D01*
X00507580D01*
Y00294920D01*
X00497420D01*
M02*
