%FSAX44Y44*%
%MOMM*%
G71*
G01*
G75*
G04 Layer_Physical_Order=1*
G04 Layer_Color=255*
%ADD10R,0.6000X0.5000*%
%ADD11R,0.5000X0.6000*%
%ADD12R,2.1000X1.4750*%
%ADD13R,1.3800X0.4500*%
%ADD14R,1.9000X1.1750*%
%ADD15R,1.9000X2.3750*%
%ADD16R,0.7000X0.9000*%
%ADD17R,0.9000X0.7000*%
%ADD18O,1.8000X0.4500*%
%ADD19O,2.1000X0.3500*%
%ADD20R,0.6000X0.6000*%
%ADD21R,1.1500X1.4000*%
%ADD22R,1.0000X2.0000*%
%ADD23R,1.4000X0.7000*%
%ADD24O,0.8000X0.2000*%
%ADD25O,0.2000X0.8000*%
%ADD26R,4.6000X4.6000*%
%ADD27C,0.2000*%
%ADD28C,0.3000*%
%ADD29C,0.5000*%
%ADD30C,0.6000*%
G36*
X00542500Y00414000D02*
X00542500Y00414000D01*
X00542500Y00414000D01*
Y00403283D01*
X00517251D01*
X00516272Y00403154D01*
X00516004Y00403044D01*
X00515359Y00402776D01*
X00514576Y00402175D01*
X00508075Y00395675D01*
X00507474Y00394891D01*
X00507207Y00394246D01*
X00507096Y00393979D01*
X00506968Y00393000D01*
Y00387250D01*
X00507000Y00387004D01*
Y00383000D01*
X00514500D01*
Y00387004D01*
X00514532Y00387250D01*
Y00391433D01*
X00518817Y00395718D01*
X00542500D01*
Y00349355D01*
X00542500Y00349355D01*
X00542500D01*
X00542500Y00349000D01*
X00541794Y00348294D01*
X00541500D01*
X00540768Y00348148D01*
X00540622Y00348119D01*
X00539878Y00347622D01*
X00535628Y00343372D01*
X00535131Y00342628D01*
X00534956Y00341750D01*
Y00340450D01*
X00534300Y00339794D01*
X00529500D01*
X00528622Y00339619D01*
X00527878Y00339122D01*
X00527878Y00339122D01*
Y00339122D01*
X00527781Y00338978D01*
X00527000Y00339500D01*
X00526478Y00340281D01*
X00526622Y00340378D01*
X00526622D01*
X00526622Y00340378D01*
X00527119Y00341122D01*
X00527294Y00342000D01*
Y00348000D01*
X00527119Y00348878D01*
X00526622Y00349622D01*
X00526103Y00349969D01*
X00526019Y00350827D01*
X00526192Y00351697D01*
X00528079Y00353585D01*
X00529000Y00353463D01*
X00530109Y00353609D01*
X00531143Y00354038D01*
X00532031Y00354719D01*
X00532712Y00355607D01*
X00533141Y00356641D01*
X00533287Y00357750D01*
X00533141Y00358859D01*
X00532712Y00359893D01*
X00532031Y00360781D01*
X00531143Y00361462D01*
X00531044Y00361503D01*
Y00363500D01*
X00532500D01*
Y00372000D01*
X00532500D01*
Y00373000D01*
X00532750Y00373250D01*
X00532750D01*
Y00377000D01*
X00524750D01*
Y00373250D01*
X00525000D01*
Y00372000D01*
X00525000D01*
Y00370044D01*
X00523250D01*
Y00372000D01*
X00515750D01*
Y00372000D01*
X00515561D01*
X00514500Y00373061D01*
Y00381500D01*
X00507000D01*
Y00373000D01*
X00507000D01*
X00507000Y00372000D01*
X00507000D01*
Y00363500D01*
X00514500D01*
Y00363500D01*
X00515750Y00363500D01*
Y00363500D01*
X00523250D01*
Y00365456D01*
X00525000D01*
Y00363500D01*
X00526456D01*
Y00361155D01*
X00525969Y00360781D01*
X00525288Y00359893D01*
X00524859Y00358859D01*
X00524747Y00358004D01*
X00523250Y00358102D01*
Y00362000D01*
X00515750D01*
Y00362000D01*
X00514845Y00362000D01*
X00514500D01*
Y00362000D01*
X00514500D01*
X00514500D01*
X00507000D01*
Y00356954D01*
X00506463Y00356732D01*
X00505273Y00357645D01*
X00505287Y00357750D01*
X00505141Y00358859D01*
X00504712Y00359893D01*
X00504031Y00360781D01*
X00503294Y00361347D01*
Y00364250D01*
X00504750D01*
Y00372750D01*
X00504750D01*
Y00373750D01*
X00505000Y00374000D01*
X00505000D01*
Y00377750D01*
X00497000D01*
Y00374000D01*
X00497250D01*
Y00372750D01*
X00497250D01*
Y00364250D01*
X00498706D01*
Y00361347D01*
X00497969Y00360781D01*
X00497288Y00359893D01*
X00496859Y00358859D01*
X00496713Y00357750D01*
X00496859Y00356641D01*
X00497288Y00355607D01*
X00497969Y00354719D01*
X00498857Y00354038D01*
X00499891Y00353609D01*
X00501000Y00353463D01*
X00501921Y00353585D01*
X00503808Y00351698D01*
X00503981Y00350827D01*
X00503897Y00349969D01*
X00503378Y00349622D01*
X00503250Y00349431D01*
X00501750D01*
X00501622Y00349622D01*
X00500878Y00350120D01*
X00500000Y00350294D01*
X00499122Y00350120D01*
X00498378Y00349622D01*
X00498250Y00349431D01*
X00496750D01*
X00496622Y00349622D01*
X00495878Y00350120D01*
X00495000Y00350294D01*
X00494122Y00350120D01*
X00493378Y00349622D01*
X00493250Y00349431D01*
X00491750D01*
X00491622Y00349622D01*
X00490878Y00350120D01*
X00490000Y00350294D01*
X00489122Y00350120D01*
X00488378Y00349622D01*
X00488250Y00349431D01*
X00486750D01*
X00486622Y00349622D01*
X00485878Y00350120D01*
X00485000Y00350294D01*
X00484122Y00350120D01*
X00483378Y00349622D01*
X00483250Y00349431D01*
X00481750D01*
X00481622Y00349622D01*
X00480878Y00350120D01*
X00480000Y00350294D01*
X00479122Y00350120D01*
X00478378Y00349622D01*
X00477881Y00348878D01*
X00477706Y00348000D01*
Y00342000D01*
X00477881Y00341122D01*
X00478378Y00340378D01*
X00478378Y00340378D01*
X00478378D01*
X00478000Y00339500D01*
X00478000D01*
X00477302Y00339302D01*
D01*
X00476475Y00339855D01*
X00475500Y00340049D01*
X00473250D01*
Y00337500D01*
X00471750D01*
Y00340049D01*
X00469500D01*
X00468525Y00339855D01*
X00467698Y00339302D01*
X00467145Y00338475D01*
X00467037Y00337932D01*
X00465544Y00338078D01*
Y00349750D01*
X00465398Y00350482D01*
X00465369Y00350628D01*
X00464872Y00351372D01*
X00462372Y00353872D01*
X00461628Y00354370D01*
X00460750Y00354544D01*
X00458000D01*
Y00356500D01*
X00449500D01*
Y00348000D01*
X00458000D01*
Y00349956D01*
X00459800D01*
X00460956Y00348800D01*
Y00335250D01*
X00461130Y00334372D01*
X00461628Y00333628D01*
X00464378Y00330878D01*
X00465122Y00330381D01*
X00466000Y00330206D01*
X00467011D01*
X00467718Y00328883D01*
X00467380Y00328378D01*
X00467206Y00327500D01*
X00467380Y00326622D01*
X00467878Y00325878D01*
X00468069Y00325750D01*
Y00324250D01*
X00467878Y00324122D01*
X00467380Y00323378D01*
X00467206Y00322500D01*
X00467380Y00321622D01*
X00467718Y00321117D01*
X00467011Y00319794D01*
X00465000D01*
Y00322250D01*
X00456500D01*
Y00322250D01*
X00455500D01*
X00455250Y00322500D01*
Y00322500D01*
X00451500D01*
Y00318500D01*
X00450000D01*
Y00322500D01*
X00446250D01*
Y00322500D01*
X00445440D01*
X00445384Y00322925D01*
X00444931Y00324019D01*
X00444209Y00324959D01*
X00443269Y00325681D01*
X00442175Y00326134D01*
X00441750Y00326190D01*
Y00321750D01*
Y00317310D01*
X00442175Y00317366D01*
X00443269Y00317819D01*
X00444209Y00318541D01*
X00444830Y00319349D01*
X00446250Y00318867D01*
Y00314794D01*
X00435700D01*
X00433415Y00317079D01*
X00433537Y00318000D01*
X00433391Y00319109D01*
X00432962Y00320143D01*
X00432281Y00321031D01*
X00431393Y00321712D01*
X00430359Y00322141D01*
X00429250Y00322287D01*
X00428140Y00322141D01*
X00427107Y00321712D01*
X00426546Y00321282D01*
X00425182Y00321906D01*
X00424794Y00328500D01*
X00424794Y00328500D01*
X00424794D01*
X00424619Y00329378D01*
X00424122Y00330122D01*
X00420372Y00333872D01*
X00419628Y00334370D01*
X00418750Y00334544D01*
X00417188D01*
X00416920Y00334750D01*
Y00336250D01*
X00417390Y00336610D01*
X00417870Y00337237D01*
X00418173Y00337967D01*
X00418276Y00338750D01*
X00418173Y00339533D01*
X00417870Y00340263D01*
X00417390Y00340890D01*
X00416920Y00341250D01*
Y00341895D01*
X00417981Y00342956D01*
X00421800D01*
X00427825Y00336931D01*
X00427750Y00336750D01*
X00427750D01*
X00427750Y00336750D01*
Y00328250D01*
X00436250D01*
Y00336750D01*
X00434145D01*
X00434119Y00336878D01*
X00433622Y00337622D01*
X00424372Y00346872D01*
X00423628Y00347369D01*
X00422750Y00347544D01*
X00417188D01*
X00416920Y00347750D01*
Y00348395D01*
X00417981Y00349456D01*
X00427500D01*
Y00348000D01*
X00436000D01*
Y00356500D01*
X00427500D01*
Y00354044D01*
X00417188D01*
X00416763Y00354370D01*
X00416033Y00354673D01*
X00415250Y00354776D01*
X00397750D01*
X00396967Y00354673D01*
X00396237Y00354370D01*
X00395610Y00353890D01*
X00395130Y00353263D01*
X00394827Y00352533D01*
X00394724Y00351750D01*
X00394827Y00350967D01*
X00395130Y00350237D01*
X00395610Y00349610D01*
X00396080Y00349250D01*
Y00347750D01*
X00395610Y00347390D01*
X00395130Y00346763D01*
X00394827Y00346033D01*
X00394724Y00345250D01*
X00394827Y00344467D01*
X00395130Y00343737D01*
X00395610Y00343110D01*
X00396080Y00342750D01*
X00396080Y00341250D01*
X00395610Y00340890D01*
X00395130Y00340263D01*
X00394827Y00339533D01*
X00394724Y00338750D01*
X00394827Y00337967D01*
X00395130Y00337237D01*
X00395610Y00336610D01*
X00396080Y00336250D01*
Y00334750D01*
X00395610Y00334390D01*
X00395130Y00333763D01*
X00394827Y00333033D01*
X00394724Y00332250D01*
X00394827Y00331467D01*
X00395130Y00330737D01*
X00395610Y00330110D01*
X00396080Y00329750D01*
X00396080Y00328250D01*
X00395610Y00327890D01*
X00395130Y00327263D01*
X00394827Y00326533D01*
X00394724Y00325750D01*
X00394827Y00324967D01*
X00395130Y00324237D01*
X00395610Y00323610D01*
X00396080Y00323250D01*
Y00321750D01*
X00395610Y00321390D01*
X00395130Y00320763D01*
X00394827Y00320033D01*
X00394724Y00319250D01*
X00394827Y00318467D01*
X00395130Y00317737D01*
X00395610Y00317110D01*
X00396080Y00316750D01*
X00396080Y00315250D01*
X00395610Y00314890D01*
X00395130Y00314263D01*
X00394827Y00313533D01*
X00394724Y00312750D01*
X00394827Y00311967D01*
X00395130Y00311237D01*
X00395610Y00310610D01*
X00395875Y00310408D01*
X00395875Y00308908D01*
X00395432Y00308568D01*
X00394911Y00307889D01*
X00394584Y00307098D01*
X00394571Y00307000D01*
X00406500D01*
Y00305500D01*
X00394571D01*
X00394584Y00305402D01*
X00394911Y00304611D01*
X00395432Y00303932D01*
X00395875Y00303592D01*
Y00302092D01*
X00395610Y00301890D01*
X00395130Y00301263D01*
X00394827Y00300533D01*
X00394724Y00299750D01*
X00394827Y00298967D01*
X00395130Y00298237D01*
X00395610Y00297610D01*
X00396080Y00297250D01*
Y00295750D01*
X00395610Y00295390D01*
X00395130Y00294763D01*
X00394827Y00294033D01*
X00394724Y00293250D01*
X00394827Y00292467D01*
X00395130Y00291737D01*
X00395610Y00291110D01*
X00396080Y00290750D01*
X00396080Y00289250D01*
X00395610Y00288890D01*
X00395130Y00288263D01*
X00394827Y00287533D01*
X00394724Y00286750D01*
X00394827Y00285967D01*
X00395130Y00285237D01*
X00395610Y00284610D01*
X00396080Y00284250D01*
Y00282750D01*
X00395610Y00282390D01*
X00395130Y00281763D01*
X00394827Y00281033D01*
X00394724Y00280250D01*
X00394827Y00279467D01*
X00395130Y00278737D01*
X00395610Y00278110D01*
X00396080Y00277750D01*
X00396080Y00276250D01*
X00395610Y00275890D01*
X00395130Y00275263D01*
X00394827Y00274533D01*
X00394724Y00273750D01*
X00394827Y00272967D01*
X00395130Y00272237D01*
X00395610Y00271610D01*
X00396080Y00271250D01*
Y00269750D01*
X00395610Y00269390D01*
X00395130Y00268763D01*
X00394827Y00268033D01*
X00394724Y00267250D01*
X00394827Y00266467D01*
X00395130Y00265737D01*
X00395610Y00265110D01*
X00396237Y00264629D01*
X00396967Y00264327D01*
X00397750Y00264224D01*
X00415250D01*
X00416033Y00264327D01*
X00416763Y00264629D01*
X00417188Y00264956D01*
X00423800D01*
X00424378Y00264378D01*
X00425122Y00263881D01*
X00426000Y00263706D01*
X00446903D01*
X00447469Y00262969D01*
X00448357Y00262288D01*
X00449390Y00261859D01*
X00450500Y00261713D01*
X00451609Y00261859D01*
X00452643Y00262288D01*
X00453531Y00262969D01*
X00454212Y00263857D01*
X00454641Y00264890D01*
X00454787Y00266000D01*
X00454641Y00267110D01*
X00454212Y00268143D01*
X00453531Y00269031D01*
X00452643Y00269712D01*
X00452482Y00270102D01*
X00452750Y00270750D01*
X00452750Y00272894D01*
X00452750Y00272894D01*
X00452750D01*
Y00275000D01*
X00447500D01*
Y00270384D01*
X00447858Y00269330D01*
X00447469Y00269031D01*
X00446903Y00268294D01*
X00431028D01*
X00430736Y00269765D01*
X00431393Y00270038D01*
X00432281Y00270719D01*
X00432962Y00271607D01*
X00433391Y00272640D01*
X00433537Y00273750D01*
X00433391Y00274860D01*
X00432962Y00275893D01*
X00432281Y00276781D01*
X00431393Y00277462D01*
X00430359Y00277891D01*
X00429250Y00278037D01*
X00428329Y00277915D01*
X00424630Y00281614D01*
X00425204Y00283000D01*
X00430000D01*
Y00283000D01*
X00431000D01*
X00431250Y00282750D01*
Y00282750D01*
X00435000D01*
Y00286750D01*
X00436500D01*
Y00282750D01*
X00440250D01*
Y00286000D01*
X00441000D01*
Y00286000D01*
X00452500D01*
Y00286000D01*
X00453250D01*
Y00285750D01*
D01*
D01*
Y00285750D01*
X00453250D01*
Y00281250D01*
X00452750Y00280750D01*
X00452189Y00280750D01*
X00452189Y00280750D01*
Y00280750D01*
X00447500D01*
Y00276500D01*
X00452750D01*
Y00276750D01*
X00452750D01*
X00453250D01*
X00453811Y00276750D01*
X00453811Y00276750D01*
Y00276750D01*
X00456500D01*
Y00281250D01*
X00457250D01*
Y00282000D01*
X00461250D01*
Y00285750D01*
X00461000D01*
Y00287000D01*
X00461000D01*
Y00290206D01*
X00475500D01*
X00476378Y00290381D01*
X00477122Y00290878D01*
X00477122Y00290878D01*
Y00290878D01*
X00477219Y00291022D01*
X00478000Y00290500D01*
X00478522Y00289719D01*
X00478378Y00289622D01*
X00478378D01*
X00478378Y00289622D01*
X00477881Y00288878D01*
X00477706Y00288000D01*
Y00282000D01*
X00477881Y00281122D01*
X00478378Y00280378D01*
X00479122Y00279881D01*
X00480000Y00279706D01*
X00480878Y00279881D01*
X00481622Y00280378D01*
X00481750Y00280569D01*
X00483250D01*
X00483378Y00280378D01*
X00484122Y00279881D01*
X00485000Y00279706D01*
X00485878Y00279881D01*
X00486622Y00280378D01*
X00486750Y00280569D01*
X00488250D01*
X00488378Y00280378D01*
X00489122Y00279881D01*
X00490000Y00279706D01*
X00490878Y00279881D01*
X00491622Y00280378D01*
X00491750Y00280569D01*
X00493250D01*
X00493378Y00280378D01*
X00494122Y00279881D01*
X00495000Y00279706D01*
X00495090Y00279724D01*
X00496250Y00278772D01*
Y00270500D01*
X00496250D01*
Y00269500D01*
X00496000Y00269250D01*
X00496000D01*
Y00265500D01*
X00504000D01*
Y00269250D01*
X00503750D01*
Y00270500D01*
X00503750D01*
Y00278772D01*
X00504910Y00279724D01*
X00505000Y00279706D01*
X00505878Y00279881D01*
X00506622Y00280378D01*
X00506750Y00280569D01*
X00508250D01*
X00508378Y00280378D01*
X00509122Y00279881D01*
X00510000Y00279706D01*
X00510878Y00279881D01*
X00511622Y00280378D01*
X00511750Y00280569D01*
X00513250D01*
X00513378Y00280378D01*
X00514122Y00279881D01*
X00515000Y00279706D01*
X00515878Y00279881D01*
X00516622Y00280378D01*
X00516622Y00280378D01*
Y00280378D01*
X00517645Y00281025D01*
X00517645Y00281024D01*
X00518198Y00280198D01*
X00519025Y00279645D01*
X00519250Y00279600D01*
Y00285000D01*
X00520750D01*
Y00279600D01*
X00520975Y00279645D01*
X00521487Y00279987D01*
X00522873Y00279413D01*
X00522881Y00279372D01*
X00523378Y00278628D01*
X00524878Y00277128D01*
X00525622Y00276630D01*
X00526500Y00276456D01*
X00567300D01*
X00569250Y00274506D01*
Y00269750D01*
X00569250D01*
Y00269561D01*
X00568189Y00268500D01*
X00563250D01*
Y00265044D01*
X00559597D01*
X00559031Y00265781D01*
X00558143Y00266462D01*
X00557109Y00266891D01*
X00556000Y00267037D01*
X00554891Y00266891D01*
X00553857Y00266462D01*
X00552969Y00265781D01*
X00552288Y00264893D01*
X00551859Y00263860D01*
X00551713Y00262750D01*
X00551859Y00261640D01*
X00552288Y00260607D01*
X00552969Y00259719D01*
X00553857Y00259038D01*
X00554891Y00258609D01*
X00556000Y00258463D01*
X00557109Y00258609D01*
X00558143Y00259038D01*
X00559031Y00259719D01*
X00559597Y00260456D01*
X00563250D01*
Y00257000D01*
X00572750D01*
Y00268500D01*
X00572750D01*
Y00268689D01*
X00573811Y00269750D01*
X00577750D01*
Y00277250D01*
X00572994D01*
X00569872Y00280372D01*
X00569128Y00280869D01*
X00568250Y00281044D01*
X00527450D01*
X00527294Y00281200D01*
Y00285000D01*
X00527294Y00285000D01*
Y00288000D01*
X00527119Y00288878D01*
X00526622Y00289622D01*
X00526622Y00289622D01*
X00526622D01*
X00526478Y00289719D01*
X00527000Y00290500D01*
X00527781Y00291022D01*
X00527878Y00290878D01*
Y00290878D01*
X00527878Y00290878D01*
X00528622Y00290381D01*
X00529500Y00290206D01*
X00535500D01*
X00536378Y00290381D01*
X00537122Y00290878D01*
X00537619Y00291622D01*
X00537794Y00292500D01*
X00537619Y00293378D01*
X00537122Y00294122D01*
X00536931Y00294250D01*
Y00295750D01*
X00537122Y00295878D01*
X00537619Y00296622D01*
X00537794Y00297500D01*
X00537619Y00298378D01*
X00537282Y00298883D01*
X00537989Y00300206D01*
X00542550D01*
X00543456Y00299300D01*
Y00296347D01*
X00542719Y00295781D01*
X00542038Y00294893D01*
X00541609Y00293860D01*
X00541463Y00292750D01*
X00541609Y00291640D01*
X00542038Y00290607D01*
X00542719Y00289719D01*
X00543607Y00289038D01*
X00544641Y00288609D01*
X00545750Y00288463D01*
X00546860Y00288609D01*
X00547893Y00289038D01*
X00548781Y00289719D01*
X00549462Y00290607D01*
X00549891Y00291640D01*
X00550037Y00292750D01*
X00551500Y00292750D01*
X00551500Y00292750D01*
X00551500Y00292750D01*
X00554750D01*
Y00297250D01*
X00556250D01*
Y00292750D01*
X00559189D01*
X00559189Y00292750D01*
Y00292750D01*
X00559500Y00292750D01*
X00560250Y00292000D01*
Y00288750D01*
X00566750D01*
Y00297250D01*
X00567500D01*
Y00298000D01*
X00574750D01*
Y00305206D01*
X00576500D01*
Y00289000D01*
X00590500D01*
Y00305500D01*
X00585538D01*
X00585122Y00306122D01*
X00582122Y00309122D01*
X00581834Y00309315D01*
X00582270Y00310750D01*
X00582750D01*
Y00319250D01*
X00583500D01*
Y00320000D01*
X00590750D01*
Y00326689D01*
X00590750Y00326689D01*
X00590750D01*
X00590750Y00327750D01*
X00590750Y00327750D01*
X00592750D01*
Y00329000D01*
X00592750D01*
X00593000D01*
X00593811Y00329000D01*
X00593811Y00329000D01*
Y00329000D01*
X00596250D01*
Y00333500D01*
X00597000D01*
Y00334250D01*
X00601000D01*
Y00338000D01*
X00600750D01*
Y00339250D01*
X00600750D01*
Y00347750D01*
X00600750D01*
Y00347939D01*
X00601811Y00349000D01*
X00604000D01*
Y00254000D01*
X00254000D01*
Y00414000D01*
X00542500D01*
Y00414000D01*
D02*
G37*
G36*
X00593250Y00342756D02*
Y00339250D01*
X00593250D01*
Y00338250D01*
X00593000Y00338000D01*
X00593000D01*
Y00336000D01*
X00592750Y00335750D01*
X00591939Y00335750D01*
X00591939Y00335750D01*
Y00335750D01*
X00589000D01*
Y00331750D01*
X00587500D01*
Y00335750D01*
X00583750D01*
Y00335500D01*
X00582500D01*
Y00335500D01*
X00574000D01*
Y00334044D01*
X00573500D01*
X00572622Y00333869D01*
X00571878Y00333372D01*
X00570159Y00331653D01*
X00568738Y00332135D01*
X00568634Y00332925D01*
X00568181Y00334019D01*
X00567459Y00334959D01*
X00567436Y00334977D01*
X00567288Y00335334D01*
Y00336591D01*
X00567781Y00336969D01*
X00568462Y00337857D01*
X00568891Y00338890D01*
X00569037Y00340000D01*
X00568891Y00341110D01*
X00568462Y00342143D01*
X00568296Y00342361D01*
X00568959Y00343706D01*
X00592300D01*
X00593250Y00342756D01*
D02*
G37*
%LPC*%
G36*
X00372750Y00321690D02*
X00372325Y00321634D01*
X00371231Y00321181D01*
X00370290Y00320459D01*
X00369569Y00319519D01*
X00369116Y00318425D01*
X00369060Y00318000D01*
X00372750D01*
Y00321690D01*
D02*
G37*
G36*
X00374250D02*
Y00318000D01*
X00377940D01*
X00377884Y00318425D01*
X00377431Y00319519D01*
X00376709Y00320459D01*
X00375769Y00321181D01*
X00374675Y00321634D01*
X00374250Y00321690D01*
D02*
G37*
G36*
X00322500Y00327750D02*
X00319250D01*
Y00324000D01*
X00322500D01*
Y00327750D01*
D02*
G37*
G36*
X00440250Y00326190D02*
X00439825Y00326134D01*
X00438731Y00325681D01*
X00437791Y00324959D01*
X00437069Y00324019D01*
X00436616Y00322925D01*
X00436560Y00322500D01*
X00440250D01*
Y00326190D01*
D02*
G37*
G36*
X00279500Y00324875D02*
X00257500D01*
Y00319311D01*
D01*
D01*
D01*
X00257500Y00319311D01*
X00257500D01*
X00257500Y00318250D01*
D01*
D01*
D01*
D01*
Y00318250D01*
X00257500Y00317189D01*
X00257500Y00317189D01*
X00257500D01*
D01*
D01*
D01*
Y00305625D01*
X00268500D01*
Y00304875D01*
X00269250D01*
Y00291500D01*
X00279500D01*
Y00300500D01*
X00279500Y00300500D01*
X00280561Y00300500D01*
X00280561Y00300500D01*
Y00300500D01*
X00290750D01*
Y00309375D01*
X00291500D01*
Y00310125D01*
X00303500D01*
Y00318250D01*
X00303500D01*
Y00320250D01*
X00286700D01*
Y00319311D01*
X00285639Y00318250D01*
X00279500Y00318250D01*
X00279500Y00319311D01*
X00279500Y00319311D01*
X00279500D01*
Y00324875D01*
D02*
G37*
G36*
X00440250Y00321000D02*
X00436560D01*
X00436616Y00320575D01*
X00437069Y00319481D01*
X00437791Y00318541D01*
X00438731Y00317819D01*
X00439825Y00317366D01*
X00440250Y00317310D01*
Y00321000D01*
D02*
G37*
G36*
X00349429Y00312000D02*
X00325571D01*
X00325584Y00311902D01*
X00325911Y00311111D01*
X00326432Y00310432D01*
X00326875Y00310092D01*
Y00309473D01*
X00326559Y00308544D01*
X00313000D01*
Y00309750D01*
X00305500D01*
Y00301250D01*
X00313000D01*
Y00303956D01*
X00326812D01*
X00327080Y00303750D01*
Y00303105D01*
X00326019Y00302044D01*
X00323750D01*
X00322872Y00301870D01*
X00322128Y00301372D01*
X00321128Y00300372D01*
X00320630Y00299628D01*
X00320456Y00298750D01*
Y00293000D01*
X00315750D01*
Y00284500D01*
X00315750D01*
Y00284105D01*
X00314689Y00283044D01*
X00312250D01*
Y00285500D01*
X00295750D01*
Y00276000D01*
X00312250D01*
Y00278456D01*
X00315750D01*
Y00274500D01*
X00323250D01*
Y00283000D01*
X00318801D01*
X00317794Y00284111D01*
X00317832Y00284500D01*
X00323250D01*
Y00287756D01*
X00324372Y00288878D01*
X00324704Y00289375D01*
X00324869Y00289622D01*
X00325044Y00290500D01*
Y00290818D01*
X00325655Y00291026D01*
X00326875Y00290152D01*
Y00289408D01*
X00326432Y00289068D01*
X00325911Y00288389D01*
X00325584Y00287598D01*
X00325571Y00287500D01*
X00349429D01*
X00349416Y00287598D01*
X00349089Y00288389D01*
X00348568Y00289068D01*
X00348125Y00289408D01*
Y00290908D01*
X00348390Y00291110D01*
X00348871Y00291737D01*
X00349173Y00292467D01*
X00349276Y00293250D01*
X00349173Y00294033D01*
X00348871Y00294763D01*
X00348390Y00295390D01*
X00347920Y00295750D01*
Y00297250D01*
X00348390Y00297610D01*
X00348871Y00298237D01*
X00349173Y00298967D01*
X00349276Y00299750D01*
X00349173Y00300533D01*
X00348871Y00301263D01*
X00348390Y00301890D01*
X00347920Y00302250D01*
X00347920Y00303750D01*
X00348390Y00304110D01*
X00348871Y00304737D01*
X00349173Y00305467D01*
X00349276Y00306250D01*
X00349173Y00307033D01*
X00348871Y00307763D01*
X00348390Y00308390D01*
X00348125Y00308592D01*
X00348125Y00310092D01*
X00348568Y00310432D01*
X00349089Y00311111D01*
X00349416Y00311902D01*
X00349429Y00312000D01*
D02*
G37*
G36*
X00303500Y00308625D02*
X00292250D01*
Y00300500D01*
X00303500D01*
Y00308625D01*
D02*
G37*
G36*
X00590750Y00318500D02*
X00584250D01*
Y00310750D01*
X00590750D01*
Y00318500D01*
D02*
G37*
G36*
X00377940Y00316500D02*
X00374250D01*
Y00312810D01*
X00374675Y00312866D01*
X00375769Y00313319D01*
X00376709Y00314041D01*
X00377431Y00314981D01*
X00377884Y00316075D01*
X00377940Y00316500D01*
D02*
G37*
G36*
X00372750D02*
X00369060D01*
X00369116Y00316075D01*
X00369569Y00314981D01*
X00370290Y00314041D01*
X00371231Y00313319D01*
X00372325Y00312866D01*
X00372750Y00312810D01*
Y00316500D01*
D02*
G37*
G36*
X00303500Y00367500D02*
X00292250D01*
Y00359375D01*
X00303500D01*
Y00367500D01*
D02*
G37*
G36*
X00267750Y00341625D02*
X00257500D01*
Y00335000D01*
X00267750D01*
Y00341625D01*
D02*
G37*
G36*
X00406250Y00365250D02*
X00402560D01*
X00402616Y00364825D01*
X00403069Y00363731D01*
X00403791Y00362791D01*
X00404731Y00362069D01*
X00405825Y00361616D01*
X00406250Y00361560D01*
Y00365250D01*
D02*
G37*
G36*
X00473750Y00366000D02*
X00470060D01*
X00470116Y00365575D01*
X00470569Y00364481D01*
X00471291Y00363540D01*
X00472231Y00362819D01*
X00473325Y00362366D01*
X00473750Y00362310D01*
Y00366000D01*
D02*
G37*
G36*
X00411440Y00365250D02*
X00407750D01*
Y00361560D01*
X00408175Y00361616D01*
X00409269Y00362069D01*
X00410209Y00362791D01*
X00410931Y00363731D01*
X00411384Y00364825D01*
X00411440Y00365250D01*
D02*
G37*
G36*
X00279500Y00341625D02*
X00269250D01*
Y00335000D01*
X00279500D01*
Y00335000D01*
Y00341625D01*
D02*
G37*
G36*
X00267750Y00333000D02*
X00257500D01*
Y00326375D01*
X00267750D01*
Y00333000D01*
D02*
G37*
G36*
X00309000Y00328250D02*
X00305437D01*
X00305750Y00326678D01*
Y00324500D01*
X00309000D01*
Y00328250D01*
D02*
G37*
G36*
X00279500Y00333000D02*
X00269250D01*
Y00326375D01*
X00279500D01*
Y00333000D01*
D02*
G37*
G36*
X00458250Y00336750D02*
X00449750D01*
Y00334544D01*
X00446597D01*
X00446031Y00335281D01*
X00445143Y00335962D01*
X00444109Y00336391D01*
X00443000Y00336537D01*
X00441890Y00336391D01*
X00440857Y00335962D01*
X00439969Y00335281D01*
X00439288Y00334393D01*
X00438859Y00333359D01*
X00438713Y00332250D01*
X00438859Y00331141D01*
X00439288Y00330107D01*
X00439969Y00329219D01*
X00440857Y00328538D01*
X00441890Y00328109D01*
X00443000Y00327963D01*
X00444109Y00328109D01*
X00445143Y00328538D01*
X00446031Y00329219D01*
X00446597Y00329956D01*
X00449750D01*
Y00328250D01*
X00458250D01*
Y00336750D01*
D02*
G37*
G36*
X00601000Y00332750D02*
X00597750D01*
Y00329000D01*
X00601000D01*
Y00332750D01*
D02*
G37*
G36*
X00267750Y00304125D02*
X00257500D01*
Y00291500D01*
X00267750D01*
Y00304125D01*
D02*
G37*
G36*
X00280250Y00270500D02*
X00263750D01*
Y00261000D01*
X00280250D01*
Y00263456D01*
X00284595D01*
X00284969Y00262969D01*
X00285857Y00262288D01*
X00286891Y00261859D01*
X00288000Y00261713D01*
X00289109Y00261859D01*
X00290143Y00262288D01*
X00291031Y00262969D01*
X00291712Y00263857D01*
X00292141Y00264890D01*
X00292287Y00266000D01*
X00292141Y00267110D01*
X00291712Y00268143D01*
X00291031Y00269031D01*
X00290143Y00269712D01*
X00289109Y00270141D01*
X00288000Y00270287D01*
X00286891Y00270141D01*
X00285857Y00269712D01*
X00284969Y00269031D01*
X00284288Y00268143D01*
X00284247Y00268044D01*
X00280250D01*
Y00270500D01*
D02*
G37*
G36*
X00321250Y00264940D02*
Y00261250D01*
X00324940D01*
X00324884Y00261675D01*
X00324431Y00262769D01*
X00323709Y00263710D01*
X00322769Y00264431D01*
X00321675Y00264884D01*
X00321250Y00264940D01*
D02*
G37*
G36*
X00319750D02*
X00319325Y00264884D01*
X00318231Y00264431D01*
X00317291Y00263710D01*
X00316569Y00262769D01*
X00316116Y00261675D01*
X00316060Y00261250D01*
X00319750D01*
Y00264940D01*
D02*
G37*
G36*
X00349429Y00279500D02*
X00325571D01*
X00325584Y00279402D01*
X00325911Y00278611D01*
X00326432Y00277932D01*
X00326875Y00277593D01*
Y00276092D01*
X00326610Y00275890D01*
X00326129Y00275263D01*
X00325827Y00274533D01*
X00325724Y00273750D01*
X00325827Y00272967D01*
X00326129Y00272237D01*
X00326610Y00271610D01*
X00327080Y00271250D01*
Y00269750D01*
X00326610Y00269390D01*
X00326129Y00268763D01*
X00325827Y00268033D01*
X00325724Y00267250D01*
X00325827Y00266467D01*
X00326129Y00265737D01*
X00326610Y00265110D01*
X00327237Y00264629D01*
X00327967Y00264327D01*
X00328750Y00264224D01*
X00346250D01*
X00347033Y00264327D01*
X00347763Y00264629D01*
X00348390Y00265110D01*
X00348871Y00265737D01*
X00349173Y00266467D01*
X00349276Y00267250D01*
X00349173Y00268033D01*
X00348871Y00268763D01*
X00348390Y00269390D01*
X00347920Y00269750D01*
Y00271250D01*
X00348390Y00271610D01*
X00348871Y00272237D01*
X00349173Y00272967D01*
X00349276Y00273750D01*
X00349173Y00274533D01*
X00348871Y00275263D01*
X00348390Y00275890D01*
X00348125Y00276092D01*
Y00277593D01*
X00348568Y00277932D01*
X00349089Y00278611D01*
X00349416Y00279402D01*
X00349429Y00279500D01*
D02*
G37*
G36*
X00545440Y00266000D02*
X00541750D01*
Y00262310D01*
X00542175Y00262366D01*
X00543269Y00262819D01*
X00544210Y00263541D01*
X00544931Y00264481D01*
X00545384Y00265575D01*
X00545440Y00266000D01*
D02*
G37*
G36*
X00540250D02*
X00536560D01*
X00536616Y00265575D01*
X00537069Y00264481D01*
X00537791Y00263541D01*
X00538731Y00262819D01*
X00539825Y00262366D01*
X00540250Y00262310D01*
Y00266000D01*
D02*
G37*
G36*
X00587750Y00277250D02*
X00579250D01*
Y00269750D01*
X00579250D01*
Y00269500D01*
X00578250Y00268500D01*
X00578250D01*
Y00257000D01*
X00587750D01*
Y00268500D01*
X00587750D01*
Y00269750D01*
X00587750Y00269750D01*
Y00269750D01*
Y00277250D01*
D02*
G37*
G36*
X00324940Y00259750D02*
X00321250D01*
Y00256060D01*
X00321675Y00256116D01*
X00322769Y00256569D01*
X00323709Y00257291D01*
X00324431Y00258231D01*
X00324884Y00259325D01*
X00324940Y00259750D01*
D02*
G37*
G36*
X00319750D02*
X00316060D01*
X00316116Y00259325D01*
X00316569Y00258231D01*
X00317291Y00257291D01*
X00318231Y00256569D01*
X00319325Y00256116D01*
X00319750Y00256060D01*
Y00259750D01*
D02*
G37*
G36*
X00312250Y00270500D02*
X00295750D01*
Y00261000D01*
X00312250D01*
Y00270500D01*
D02*
G37*
G36*
X00504000Y00264000D02*
X00500750D01*
Y00260250D01*
X00504000D01*
Y00264000D01*
D02*
G37*
G36*
X00499250D02*
X00496000D01*
Y00260250D01*
X00499250D01*
Y00264000D01*
D02*
G37*
G36*
X00313000Y00299750D02*
X00305500D01*
Y00294994D01*
X00303800Y00293294D01*
X00294250D01*
X00293372Y00293120D01*
X00292628Y00292622D01*
X00283050Y00283044D01*
X00280250D01*
Y00285500D01*
X00263750D01*
Y00276000D01*
X00280250D01*
Y00278456D01*
X00284000D01*
X00284878Y00278631D01*
X00285622Y00279128D01*
X00295200Y00288706D01*
X00304750D01*
X00305628Y00288881D01*
X00306372Y00289378D01*
X00308244Y00291250D01*
X00313000D01*
Y00299750D01*
D02*
G37*
G36*
X00349429Y00286000D02*
X00325571D01*
X00325584Y00285902D01*
X00325911Y00285111D01*
X00326432Y00284432D01*
X00326669Y00284250D01*
Y00282750D01*
X00326432Y00282568D01*
X00325911Y00281889D01*
X00325584Y00281098D01*
X00325571Y00281000D01*
X00349429D01*
X00349416Y00281098D01*
X00349089Y00281889D01*
X00348568Y00282568D01*
X00348331Y00282750D01*
Y00284250D01*
X00348568Y00284432D01*
X00349089Y00285111D01*
X00349416Y00285902D01*
X00349429Y00286000D01*
D02*
G37*
G36*
X00599690Y00283250D02*
X00596000D01*
Y00279560D01*
X00596425Y00279616D01*
X00597519Y00280069D01*
X00598459Y00280791D01*
X00599181Y00281731D01*
X00599634Y00282825D01*
X00599690Y00283250D01*
D02*
G37*
G36*
X00574750Y00296500D02*
X00568250D01*
Y00288750D01*
X00574750D01*
Y00296500D01*
D02*
G37*
G36*
X00596000Y00288440D02*
Y00284750D01*
X00599690D01*
X00599634Y00285175D01*
X00599181Y00286269D01*
X00598459Y00287209D01*
X00597519Y00287931D01*
X00596425Y00288384D01*
X00596000Y00288440D01*
D02*
G37*
G36*
X00594500D02*
X00594075Y00288384D01*
X00592981Y00287931D01*
X00592040Y00287209D01*
X00591319Y00286269D01*
X00590866Y00285175D01*
X00590810Y00284750D01*
X00594500D01*
Y00288440D01*
D02*
G37*
G36*
X00446000Y00275000D02*
X00440750D01*
Y00270750D01*
X00446000D01*
Y00275000D01*
D02*
G37*
G36*
X00541750Y00271190D02*
Y00267500D01*
X00545440D01*
X00545384Y00267925D01*
X00544931Y00269019D01*
X00544210Y00269960D01*
X00543269Y00270681D01*
X00542175Y00271134D01*
X00541750Y00271190D01*
D02*
G37*
G36*
X00540250D02*
X00539825Y00271134D01*
X00538731Y00270681D01*
X00537791Y00269960D01*
X00537069Y00269019D01*
X00536616Y00267925D01*
X00536560Y00267500D01*
X00540250D01*
Y00271190D01*
D02*
G37*
G36*
X00594500Y00283250D02*
X00590810D01*
X00590866Y00282825D01*
X00591319Y00281731D01*
X00592040Y00280791D01*
X00592981Y00280069D01*
X00594075Y00279616D01*
X00594500Y00279560D01*
Y00283250D01*
D02*
G37*
G36*
X00461250Y00280500D02*
X00458000D01*
Y00276750D01*
X00461250D01*
Y00280500D01*
D02*
G37*
G36*
X00446000Y00280750D02*
X00440750D01*
Y00276500D01*
X00446000D01*
Y00280750D01*
D02*
G37*
G36*
X00395500Y00405190D02*
Y00401500D01*
X00399190D01*
X00399134Y00401925D01*
X00398681Y00403019D01*
X00397960Y00403959D01*
X00397019Y00404681D01*
X00395925Y00405134D01*
X00395500Y00405190D01*
D02*
G37*
G36*
X00394000D02*
X00393575Y00405134D01*
X00392481Y00404681D01*
X00391541Y00403959D01*
X00390819Y00403019D01*
X00390366Y00401925D01*
X00390310Y00401500D01*
X00394000D01*
Y00405190D01*
D02*
G37*
G36*
X00440500Y00403250D02*
X00435250D01*
Y00399000D01*
X00440500D01*
Y00403250D01*
D02*
G37*
G36*
X00373500Y00406532D02*
X00367500D01*
X00366521Y00406404D01*
X00365609Y00406026D01*
X00364826Y00405424D01*
X00364224Y00404641D01*
X00363847Y00403729D01*
X00363751Y00403000D01*
X00363747D01*
D01*
X00362250D01*
Y00403000D01*
Y00403000D01*
D01*
D01*
D01*
D01*
X00362213D01*
Y00403000D01*
X00357000D01*
Y00398000D01*
X00355500D01*
Y00403000D01*
X00350250D01*
Y00398000D01*
X00349750Y00397500D01*
X00349189Y00397500D01*
X00349189Y00397500D01*
Y00397500D01*
X00346500D01*
Y00393000D01*
X00345000D01*
Y00397500D01*
X00342061D01*
X00342061Y00397500D01*
Y00397500D01*
X00341750Y00397500D01*
X00341000Y00398250D01*
Y00403000D01*
X00335750D01*
Y00398000D01*
Y00393000D01*
X00340689D01*
X00340689Y00393000D01*
Y00393000D01*
X00341000Y00393000D01*
X00341750Y00392250D01*
Y00388500D01*
X00341750D01*
Y00387750D01*
X00340750D01*
D01*
D01*
X00340750D01*
Y00387750D01*
X00329250D01*
D01*
X00329250D01*
X00328250Y00388750D01*
Y00389000D01*
X00318750D01*
Y00377561D01*
X00318750Y00377561D01*
X00318750D01*
X00318750Y00377500D01*
X00317750Y00376500D01*
X00313500D01*
Y00376500D01*
X00313250D01*
Y00377500D01*
D01*
D01*
Y00377500D01*
X00313250D01*
Y00389000D01*
X00303750D01*
Y00377500D01*
X00303750D01*
X00303750Y00376250D01*
X00303750D01*
Y00368750D01*
X00305226D01*
Y00354267D01*
X00303979Y00353434D01*
X00303500Y00353633D01*
Y00357875D01*
X00291500D01*
Y00358625D01*
X00290750D01*
Y00367500D01*
X00280561D01*
D01*
D01*
D01*
X00280561Y00367500D01*
Y00367500D01*
X00279500Y00367500D01*
D01*
X00279500D01*
Y00376500D01*
X00269250D01*
Y00363125D01*
X00268500D01*
Y00362375D01*
X00257500D01*
Y00350811D01*
X00257500Y00350811D01*
X00257500D01*
X00257500Y00349750D01*
Y00349750D01*
Y00349750D01*
X00257500Y00348689D01*
X00257500Y00348689D01*
X00257500D01*
Y00343125D01*
X00279500D01*
Y00349750D01*
D01*
X00280561Y00349750D01*
X00280561Y00349750D01*
Y00349750D01*
X00286950D01*
Y00343500D01*
Y00337000D01*
Y00330500D01*
Y00324750D01*
X00286700D01*
Y00321750D01*
X00303500D01*
Y00324750D01*
X00303250D01*
Y00330500D01*
Y00331706D01*
X00304750D01*
X00305139Y00329750D01*
X00309750D01*
Y00329000D01*
X00310500D01*
Y00324500D01*
X00313439D01*
X00313439Y00324500D01*
Y00324500D01*
X00313750Y00324500D01*
X00314500Y00324000D01*
X00314811Y00324000D01*
X00314811Y00324000D01*
Y00324000D01*
X00317750D01*
Y00328500D01*
X00318500D01*
Y00329250D01*
X00322500D01*
Y00333000D01*
X00322250D01*
Y00334250D01*
X00322250D01*
Y00336456D01*
X00326559D01*
X00326875Y00335527D01*
Y00334908D01*
X00326432Y00334568D01*
X00325911Y00333889D01*
X00325584Y00333098D01*
X00325571Y00333000D01*
X00337500D01*
Y00331500D01*
X00325571D01*
X00325584Y00331402D01*
X00325911Y00330611D01*
X00326432Y00329932D01*
X00326875Y00329593D01*
Y00328092D01*
X00326610Y00327890D01*
X00326129Y00327263D01*
X00325827Y00326533D01*
X00325724Y00325750D01*
X00325827Y00324967D01*
X00326129Y00324237D01*
X00326610Y00323610D01*
X00327080Y00323250D01*
Y00321750D01*
X00326610Y00321390D01*
X00326129Y00320763D01*
X00325827Y00320033D01*
X00325724Y00319250D01*
X00325827Y00318467D01*
X00326129Y00317737D01*
X00326610Y00317110D01*
X00326875Y00316908D01*
Y00315408D01*
X00326432Y00315068D01*
X00325911Y00314389D01*
X00325584Y00313598D01*
X00325571Y00313500D01*
X00349429D01*
X00349416Y00313598D01*
X00349089Y00314389D01*
X00348568Y00315068D01*
X00348125Y00315408D01*
Y00316027D01*
X00348441Y00316956D01*
X00350250D01*
X00351128Y00317131D01*
X00351872Y00317628D01*
X00357872Y00323628D01*
X00358369Y00324372D01*
X00358544Y00325250D01*
Y00370000D01*
X00360500D01*
Y00377500D01*
D01*
Y00377500D01*
X00361250Y00378250D01*
X00362000D01*
Y00384666D01*
X00363323Y00385373D01*
X00364104Y00384851D01*
X00363847Y00384229D01*
X00363816Y00384000D01*
X00384684D01*
X00384654Y00384229D01*
X00384276Y00385141D01*
X00383900Y00385631D01*
X00384563Y00386976D01*
X00405560D01*
X00406097Y00386276D01*
X00406415Y00385631D01*
X00405943Y00385015D01*
X00405590Y00384164D01*
X00405470Y00383250D01*
X00405590Y00382336D01*
X00405943Y00381485D01*
X00406504Y00380754D01*
X00407235Y00380193D01*
X00408086Y00379840D01*
X00409000Y00379720D01*
X00422500D01*
X00423414Y00379840D01*
X00424265Y00380193D01*
X00424635Y00380476D01*
X00428750D01*
Y00378500D01*
X00440250D01*
Y00380476D01*
X00444521D01*
X00444719Y00380219D01*
X00445607Y00379538D01*
X00446641Y00379109D01*
X00447750Y00378963D01*
X00448859Y00379109D01*
X00449893Y00379538D01*
X00450781Y00380219D01*
X00451462Y00381107D01*
X00451891Y00382141D01*
X00452037Y00383250D01*
X00451891Y00384360D01*
X00451462Y00385393D01*
X00450781Y00386281D01*
X00449893Y00386962D01*
X00448859Y00387391D01*
X00447750Y00387537D01*
X00446641Y00387391D01*
X00445607Y00386962D01*
X00444719Y00386281D01*
X00444521Y00386024D01*
X00440250D01*
Y00388000D01*
X00428750D01*
Y00386024D01*
X00425940D01*
X00425403Y00386724D01*
X00425085Y00387369D01*
X00425557Y00387985D01*
X00425910Y00388836D01*
X00426030Y00389750D01*
X00425910Y00390664D01*
X00425557Y00391515D01*
X00424996Y00392246D01*
D01*
D01*
D01*
X00424996Y00392246D01*
X00424996D01*
X00424391Y00392974D01*
X00425174Y00393576D01*
X00425776Y00394359D01*
X00426153Y00395271D01*
X00426184Y00395500D01*
X00405316D01*
X00405346Y00395271D01*
X00405724Y00394359D01*
X00406100Y00393869D01*
X00405437Y00392524D01*
X00384563D01*
X00383900Y00393869D01*
X00384276Y00394359D01*
X00384654Y00395271D01*
X00384684Y00395500D01*
X00374250D01*
Y00397000D01*
X00384684D01*
X00384654Y00397229D01*
X00384276Y00398141D01*
X00383675Y00398924D01*
Y00400075D01*
X00384276Y00400859D01*
X00384654Y00401771D01*
X00384684Y00402000D01*
X00374250D01*
Y00402750D01*
X00373500D01*
Y00406532D01*
D02*
G37*
G36*
X00313190Y00406000D02*
X00309500D01*
Y00402310D01*
X00309925Y00402366D01*
X00311019Y00402819D01*
X00311959Y00403541D01*
X00312681Y00404481D01*
X00313134Y00405575D01*
X00313190Y00406000D01*
D02*
G37*
G36*
X00308000D02*
X00304310D01*
X00304366Y00405575D01*
X00304819Y00404481D01*
X00305541Y00403541D01*
X00306481Y00402819D01*
X00307575Y00402366D01*
X00308000Y00402310D01*
Y00406000D01*
D02*
G37*
G36*
X00399190Y00400000D02*
X00395500D01*
Y00396310D01*
X00395925Y00396366D01*
X00397019Y00396819D01*
X00397960Y00397541D01*
X00398681Y00398481D01*
X00399134Y00399575D01*
X00399190Y00400000D01*
D02*
G37*
G36*
X00394000D02*
X00390310D01*
X00390366Y00399575D01*
X00390819Y00398481D01*
X00391541Y00397541D01*
X00392481Y00396819D01*
X00393575Y00396366D01*
X00394000Y00396310D01*
Y00400000D01*
D02*
G37*
G36*
X00440500Y00397500D02*
X00435250D01*
Y00393250D01*
X00440500D01*
Y00397500D01*
D02*
G37*
G36*
X00433750Y00403250D02*
X00428500D01*
Y00399000D01*
X00433750D01*
Y00403250D01*
D02*
G37*
G36*
X00334250Y00403000D02*
X00329000D01*
Y00398750D01*
X00334250D01*
Y00403000D01*
D02*
G37*
G36*
X00426184Y00402000D02*
X00405316D01*
X00405346Y00401771D01*
X00405724Y00400859D01*
X00406325Y00400075D01*
Y00398924D01*
X00405724Y00398141D01*
X00405346Y00397229D01*
X00405316Y00397000D01*
X00426184D01*
X00426153Y00397229D01*
X00425776Y00398141D01*
X00425174Y00398924D01*
Y00400075D01*
X00425776Y00400859D01*
X00426153Y00401771D01*
X00426184Y00402000D01*
D02*
G37*
G36*
X00309500Y00411190D02*
Y00407500D01*
X00313190D01*
X00313134Y00407925D01*
X00312681Y00409019D01*
X00311959Y00409959D01*
X00311019Y00410681D01*
X00309925Y00411134D01*
X00309500Y00411190D01*
D02*
G37*
G36*
X00308000D02*
X00307575Y00411134D01*
X00306481Y00410681D01*
X00305541Y00409959D01*
X00304819Y00409019D01*
X00304366Y00407925D01*
X00304310Y00407500D01*
X00308000D01*
Y00411190D01*
D02*
G37*
G36*
X00422500Y00406532D02*
X00416500D01*
Y00403500D01*
X00426184D01*
X00426153Y00403729D01*
X00425776Y00404641D01*
X00425174Y00405424D01*
X00424391Y00406026D01*
X00423479Y00406404D01*
X00422500Y00406532D01*
D02*
G37*
G36*
X00461500Y00412190D02*
Y00408500D01*
X00465190D01*
X00465134Y00408925D01*
X00464681Y00410019D01*
X00463959Y00410960D01*
X00463019Y00411681D01*
X00461925Y00412134D01*
X00461500Y00412190D01*
D02*
G37*
G36*
X00460000D02*
X00459575Y00412134D01*
X00458481Y00411681D01*
X00457541Y00410960D01*
X00456819Y00410019D01*
X00456366Y00408925D01*
X00456310Y00408500D01*
X00460000D01*
Y00412190D01*
D02*
G37*
G36*
X00283750Y00411500D02*
X00280000D01*
Y00408250D01*
X00283750D01*
Y00411500D01*
D02*
G37*
G36*
X00278500D02*
X00274750D01*
Y00411250D01*
X00273500D01*
Y00411250D01*
X00265000D01*
Y00403750D01*
X00266706D01*
Y00402000D01*
X00264250D01*
Y00390500D01*
X00273750D01*
Y00402000D01*
X00271294D01*
Y00403750D01*
X00273500D01*
Y00403750D01*
X00274500D01*
X00274750Y00403500D01*
Y00403500D01*
X00278500D01*
Y00407500D01*
Y00411500D01*
D02*
G37*
G36*
X00465190Y00407000D02*
X00461500D01*
Y00403310D01*
X00461925Y00403366D01*
X00463019Y00403819D01*
X00463959Y00404541D01*
X00464681Y00405481D01*
X00465134Y00406575D01*
X00465190Y00407000D01*
D02*
G37*
G36*
X00460000D02*
X00456310D01*
X00456366Y00406575D01*
X00456819Y00405481D01*
X00457541Y00404541D01*
X00458481Y00403819D01*
X00459575Y00403366D01*
X00460000Y00403310D01*
Y00407000D01*
D02*
G37*
G36*
X00415000Y00406532D02*
X00409000D01*
X00408021Y00406404D01*
X00407109Y00406026D01*
X00406325Y00405424D01*
X00405724Y00404641D01*
X00405346Y00403729D01*
X00405316Y00403500D01*
X00415000D01*
Y00406532D01*
D02*
G37*
G36*
X00381000D02*
X00375000D01*
Y00403500D01*
X00384684D01*
X00384654Y00403729D01*
X00384276Y00404641D01*
X00383675Y00405424D01*
X00382891Y00406026D01*
X00381979Y00406404D01*
X00381000Y00406532D01*
D02*
G37*
G36*
X00283750Y00406750D02*
X00280000D01*
Y00403500D01*
X00283750D01*
Y00406750D01*
D02*
G37*
G36*
X00433750Y00397500D02*
X00428500D01*
Y00393250D01*
X00433750D01*
Y00397500D01*
D02*
G37*
G36*
X00528000Y00382250D02*
X00524750D01*
Y00378500D01*
X00528000D01*
Y00382250D01*
D02*
G37*
G36*
X00475250Y00371190D02*
Y00367500D01*
X00478940D01*
X00478884Y00367925D01*
X00478431Y00369019D01*
X00477709Y00369959D01*
X00476769Y00370681D01*
X00475675Y00371134D01*
X00475250Y00371190D01*
D02*
G37*
G36*
X00500250Y00383000D02*
X00497000D01*
Y00379250D01*
X00500250D01*
Y00383000D01*
D02*
G37*
G36*
X00532750Y00382250D02*
X00529500D01*
Y00378500D01*
X00532750D01*
Y00382250D01*
D02*
G37*
G36*
X00473750Y00371190D02*
X00473325Y00371134D01*
X00472231Y00370681D01*
X00471291Y00369959D01*
X00470569Y00369019D01*
X00470116Y00367925D01*
X00470060Y00367500D01*
X00473750D01*
Y00371190D01*
D02*
G37*
G36*
X00267750Y00376500D02*
X00257500D01*
Y00363875D01*
X00267750D01*
Y00376500D01*
D02*
G37*
G36*
X00478940Y00366000D02*
X00475250D01*
Y00362310D01*
X00475675Y00362366D01*
X00476769Y00362819D01*
X00477709Y00363540D01*
X00478431Y00364481D01*
X00478884Y00365575D01*
X00478940Y00366000D01*
D02*
G37*
G36*
X00407750Y00370440D02*
Y00366750D01*
X00411440D01*
X00411384Y00367175D01*
X00410931Y00368269D01*
X00410209Y00369209D01*
X00409269Y00369931D01*
X00408175Y00370384D01*
X00407750Y00370440D01*
D02*
G37*
G36*
X00406250D02*
X00405825Y00370384D01*
X00404731Y00369931D01*
X00403791Y00369209D01*
X00403069Y00368269D01*
X00402616Y00367175D01*
X00402560Y00366750D01*
X00406250D01*
Y00370440D01*
D02*
G37*
G36*
X00532750Y00392940D02*
X00532325Y00392884D01*
X00531231Y00392431D01*
X00530291Y00391710D01*
X00529569Y00390769D01*
X00529116Y00389675D01*
X00529060Y00389250D01*
X00532750D01*
Y00392940D01*
D02*
G37*
G36*
X00537940Y00387750D02*
X00534250D01*
Y00384060D01*
X00534675Y00384116D01*
X00535769Y00384569D01*
X00536709Y00385291D01*
X00537431Y00386231D01*
X00537884Y00387325D01*
X00537940Y00387750D01*
D02*
G37*
G36*
X00532750D02*
X00529060D01*
X00529116Y00387325D01*
X00529569Y00386231D01*
X00530291Y00385291D01*
X00531231Y00384569D01*
X00532325Y00384116D01*
X00532750Y00384060D01*
Y00387750D01*
D02*
G37*
G36*
X00334250Y00397250D02*
X00329000D01*
Y00393000D01*
X00334250D01*
Y00397250D01*
D02*
G37*
G36*
X00288750Y00402000D02*
X00279250D01*
Y00390500D01*
X00288750D01*
Y00393956D01*
X00291403D01*
X00291969Y00393219D01*
X00292857Y00392538D01*
X00293890Y00392109D01*
X00295000Y00391963D01*
X00296109Y00392109D01*
X00297143Y00392538D01*
X00298031Y00393219D01*
X00298712Y00394107D01*
X00299141Y00395140D01*
X00299287Y00396250D01*
X00299141Y00397360D01*
X00298712Y00398393D01*
X00298031Y00399281D01*
X00297143Y00399962D01*
X00296109Y00400391D01*
X00295000Y00400537D01*
X00293890Y00400391D01*
X00292857Y00399962D01*
X00291969Y00399281D01*
X00291403Y00398544D01*
X00288750D01*
Y00402000D01*
D02*
G37*
G36*
X00534250Y00392940D02*
Y00389250D01*
X00537940D01*
X00537884Y00389675D01*
X00537431Y00390769D01*
X00536709Y00391710D01*
X00535769Y00392431D01*
X00534675Y00392884D01*
X00534250Y00392940D01*
D02*
G37*
G36*
X00384684Y00382500D02*
X00375000D01*
Y00379468D01*
X00381000D01*
X00381979Y00379596D01*
X00382891Y00379974D01*
X00383675Y00380575D01*
X00384276Y00381359D01*
X00384654Y00382271D01*
X00384684Y00382500D01*
D02*
G37*
G36*
X00373500D02*
X00363816D01*
X00363847Y00382271D01*
X00364224Y00381359D01*
X00364826Y00380575D01*
X00365609Y00379974D01*
X00366521Y00379596D01*
X00367500Y00379468D01*
X00373500D01*
Y00382500D01*
D02*
G37*
G36*
X00505000Y00383000D02*
X00501750D01*
Y00379250D01*
X00505000D01*
Y00383000D01*
D02*
G37*
%LPD*%
G36*
X00341683Y00377133D02*
X00341376Y00374324D01*
X00339931Y00373920D01*
X00339709Y00374209D01*
X00338769Y00374931D01*
X00337675Y00375384D01*
X00337250Y00375440D01*
Y00371000D01*
Y00366560D01*
X00337675Y00366616D01*
X00338769Y00367069D01*
X00339709Y00367791D01*
X00340431Y00368731D01*
X00340884Y00369825D01*
X00340884Y00369825D01*
X00340884Y00369825D01*
D01*
X00340889Y00369863D01*
X00341750Y00369750D01*
X00342012Y00369750D01*
X00342012Y00369750D01*
Y00369750D01*
X00345500D01*
Y00373750D01*
X00347000D01*
Y00369750D01*
X00350750D01*
Y00370000D01*
X00352000D01*
Y00370000D01*
X00353956D01*
Y00357248D01*
X00352570Y00356674D01*
X00349872Y00359372D01*
X00349128Y00359869D01*
X00348250Y00360044D01*
X00325500D01*
X00324622Y00359869D01*
X00323878Y00359372D01*
X00322500Y00359943D01*
Y00361000D01*
X00314500D01*
Y00357250D01*
X00314750D01*
Y00356000D01*
X00314750D01*
Y00351244D01*
X00313550Y00350044D01*
X00311470D01*
X00311353Y00350133D01*
X00310579Y00351291D01*
X00310679Y00351532D01*
X00310774Y00352250D01*
Y00368750D01*
X00312250D01*
Y00368750D01*
X00313250D01*
X00313500Y00368500D01*
Y00368500D01*
X00317250D01*
Y00372500D01*
X00318000D01*
Y00373250D01*
X00322500D01*
Y00376439D01*
X00322500Y00376439D01*
X00322500D01*
X00322500Y00376500D01*
X00323500Y00377500D01*
X00328250D01*
Y00378250D01*
X00329250D01*
Y00378250D01*
X00340681D01*
X00341683Y00377133D01*
D02*
G37*
%LPC*%
G36*
X00317750Y00366250D02*
X00314500D01*
Y00362500D01*
X00317750D01*
Y00366250D01*
D02*
G37*
G36*
X00322500D02*
X00319250D01*
Y00362500D01*
X00322500D01*
Y00366250D01*
D02*
G37*
G36*
Y00371750D02*
X00318750D01*
Y00368500D01*
X00322500D01*
Y00371750D01*
D02*
G37*
G36*
X00335750Y00375440D02*
X00335325Y00375384D01*
X00334231Y00374931D01*
X00333290Y00374209D01*
X00332569Y00373269D01*
X00332116Y00372175D01*
X00332060Y00371750D01*
X00335750D01*
Y00375440D01*
D02*
G37*
G36*
Y00370250D02*
X00332060D01*
X00332116Y00369825D01*
X00332569Y00368731D01*
X00333290Y00367791D01*
X00334231Y00367069D01*
X00335325Y00366616D01*
X00335750Y00366560D01*
Y00370250D01*
D02*
G37*
%LPD*%
D10*
X00573500Y00273500D02*
D03*
X00583500D02*
D03*
X00269250Y00407500D02*
D03*
X00279250D02*
D03*
X00318000Y00372500D02*
D03*
X00308000D02*
D03*
X00425750Y00286750D02*
D03*
X00435750D02*
D03*
X00544750Y00336750D02*
D03*
X00554750D02*
D03*
X00544750Y00328000D02*
D03*
X00554750D02*
D03*
X00578250Y00331750D02*
D03*
X00588250D02*
D03*
X00544750Y00319250D02*
D03*
X00554750D02*
D03*
X00346250Y00373750D02*
D03*
X00356250D02*
D03*
X00460750Y00318500D02*
D03*
X00450750D02*
D03*
D11*
X00309750Y00339000D02*
D03*
Y00329000D02*
D03*
X00318500Y00328500D02*
D03*
Y00338500D02*
D03*
X00501000Y00368500D02*
D03*
Y00378500D02*
D03*
X00528750Y00367750D02*
D03*
Y00377750D02*
D03*
X00345750Y00383000D02*
D03*
Y00393000D02*
D03*
X00319500Y00278750D02*
D03*
Y00288750D02*
D03*
X00309250Y00295500D02*
D03*
Y00305500D02*
D03*
X00318500Y00351750D02*
D03*
Y00361750D02*
D03*
X00457250Y00291250D02*
D03*
Y00281250D02*
D03*
X00597000Y00333500D02*
D03*
Y00343500D02*
D03*
X00510750Y00357750D02*
D03*
Y00367750D02*
D03*
X00519500D02*
D03*
Y00357750D02*
D03*
X00510750Y00377250D02*
D03*
Y00387250D02*
D03*
X00555500Y00297250D02*
D03*
Y00307250D02*
D03*
X00500000Y00274750D02*
D03*
Y00264750D02*
D03*
D12*
X00291500Y00358625D02*
D03*
Y00309375D02*
D03*
D13*
X00295100Y00321000D02*
D03*
Y00327500D02*
D03*
Y00334000D02*
D03*
Y00347000D02*
D03*
Y00340500D02*
D03*
D14*
X00268500Y00325625D02*
D03*
Y00342375D02*
D03*
D15*
Y00304875D02*
D03*
Y00363125D02*
D03*
D16*
X00308500Y00383250D02*
D03*
X00323500D02*
D03*
X00284000Y00396250D02*
D03*
X00269000D02*
D03*
X00568000Y00262750D02*
D03*
X00583000D02*
D03*
D17*
X00335000Y00398000D02*
D03*
Y00383000D02*
D03*
X00356250Y00398000D02*
D03*
Y00383000D02*
D03*
X00446750Y00290750D02*
D03*
Y00275750D02*
D03*
X00434500Y00383250D02*
D03*
Y00398250D02*
D03*
D18*
X00374250Y00402750D02*
D03*
Y00396250D02*
D03*
Y00389750D02*
D03*
Y00383250D02*
D03*
X00415750Y00402750D02*
D03*
Y00396250D02*
D03*
Y00389750D02*
D03*
Y00383250D02*
D03*
D19*
X00337500Y00351750D02*
D03*
Y00345250D02*
D03*
Y00338750D02*
D03*
Y00332250D02*
D03*
Y00325750D02*
D03*
Y00319250D02*
D03*
Y00312750D02*
D03*
Y00306250D02*
D03*
Y00299750D02*
D03*
Y00293250D02*
D03*
Y00286750D02*
D03*
Y00280250D02*
D03*
Y00273750D02*
D03*
Y00267250D02*
D03*
X00406500Y00351750D02*
D03*
Y00345250D02*
D03*
Y00338750D02*
D03*
Y00332250D02*
D03*
Y00325750D02*
D03*
Y00319250D02*
D03*
Y00312750D02*
D03*
Y00306250D02*
D03*
Y00299750D02*
D03*
Y00293250D02*
D03*
Y00286750D02*
D03*
Y00280250D02*
D03*
Y00273750D02*
D03*
Y00267250D02*
D03*
D20*
X00431750Y00352250D02*
D03*
X00453750D02*
D03*
X00432000Y00332500D02*
D03*
X00454000D02*
D03*
D21*
X00567500Y00297250D02*
D03*
X00567500Y00319250D02*
D03*
X00583500D02*
D03*
Y00297250D02*
D03*
D22*
X00563501Y00399501D02*
D03*
X00597501D02*
D03*
D23*
X00272000Y00280750D02*
D03*
X00304000D02*
D03*
Y00265750D02*
D03*
X00272000D02*
D03*
D24*
X00532500Y00292500D02*
D03*
Y00297500D02*
D03*
Y00302500D02*
D03*
Y00307500D02*
D03*
Y00312500D02*
D03*
Y00317500D02*
D03*
Y00322500D02*
D03*
Y00327500D02*
D03*
Y00332500D02*
D03*
Y00337500D02*
D03*
X00472500D02*
D03*
Y00332500D02*
D03*
Y00327500D02*
D03*
Y00322500D02*
D03*
Y00317500D02*
D03*
Y00312500D02*
D03*
Y00307500D02*
D03*
Y00302500D02*
D03*
Y00297500D02*
D03*
Y00292500D02*
D03*
D25*
X00525000Y00345000D02*
D03*
X00520000D02*
D03*
X00515000D02*
D03*
X00510000D02*
D03*
X00505000D02*
D03*
X00500000D02*
D03*
X00495000D02*
D03*
X00490000D02*
D03*
X00485000D02*
D03*
X00480000D02*
D03*
Y00285000D02*
D03*
X00485000D02*
D03*
X00490000D02*
D03*
X00495000D02*
D03*
X00500000D02*
D03*
X00505000D02*
D03*
X00510000D02*
D03*
X00515000D02*
D03*
X00520000D02*
D03*
X00525000D02*
D03*
D26*
X00502500Y00315000D02*
D03*
D27*
X00323750Y00299750D02*
X00337500D01*
X00322750Y00298750D02*
X00323750Y00299750D01*
X00322750Y00290500D02*
Y00298750D01*
X00321000Y00288750D02*
X00322750Y00290500D01*
X00319500Y00288750D02*
X00321000D01*
X00457250Y00281250D02*
X00458500Y00280000D01*
X00465750D01*
X00284000Y00280750D02*
X00294250Y00291000D01*
X00272000Y00280750D02*
X00284000D01*
X00294250Y00291000D02*
X00304750D01*
X00309250Y00295500D01*
X00426000Y00266000D02*
X00450500D01*
X00424750Y00267250D02*
X00426000Y00266000D01*
X00406500Y00267250D02*
X00424750D01*
X00441000Y00321750D02*
X00444250Y00318500D01*
X00450750D01*
X00310000Y00306250D02*
X00337500D01*
X00309250Y00305500D02*
X00310000Y00306250D01*
X00588250Y00331750D02*
X00588500Y00332000D01*
Y00337000D01*
X00585500Y00340000D02*
X00588500Y00337000D01*
X00574750Y00340000D02*
X00585500D01*
X00566500Y00331750D02*
X00574750Y00340000D01*
X00564250Y00331750D02*
X00566500D01*
X00595000Y00331750D02*
X00597000Y00333750D01*
X00588250Y00331750D02*
X00595000D01*
X00564068Y00331750D02*
X00564250D01*
X00560568Y00328250D02*
X00564068Y00331750D01*
X00555000Y00328250D02*
X00560568D01*
X00554750Y00328000D02*
X00555000Y00328250D01*
X00295100Y00340500D02*
X00302404D01*
X00309654Y00347750D01*
X00314500D01*
X00318500Y00351750D01*
X00309750Y00343250D02*
X00311000Y00344500D01*
X00309750Y00339000D02*
Y00343250D01*
X00304750Y00334000D02*
X00309750Y00339000D01*
X00295100Y00334000D02*
X00304750D01*
X00318500Y00351750D02*
X00319500D01*
X00325500Y00357750D01*
X00320750Y00344500D02*
X00328000Y00351750D01*
X00311000Y00344500D02*
X00320750D01*
X00328000Y00351750D02*
X00337500D01*
X00304000Y00280750D02*
X00317500D01*
X00319500Y00278750D01*
X00501000Y00368500D02*
X00501000Y00368500D01*
X00501000Y00357750D02*
Y00368500D01*
X00519500Y00367750D02*
X00519500Y00367750D01*
X00528750D01*
Y00358000D02*
X00529000Y00357750D01*
X00528750Y00358000D02*
Y00367750D01*
X00510000Y00345000D02*
Y00348750D01*
X00501000Y00357750D02*
X00510000Y00348750D01*
X00520000D02*
X00529000Y00357750D01*
X00519500Y00352846D02*
Y00357750D01*
X00515000Y00348346D02*
X00519500Y00352846D01*
X00568250Y00278750D02*
X00573500Y00273500D01*
X00526500Y00278750D02*
X00568250D01*
X00525000Y00280250D02*
X00526500Y00278750D01*
X00583000Y00262750D02*
X00583500Y00263250D01*
Y00273500D01*
X00556000Y00262750D02*
X00556000Y00262750D01*
X00568000D01*
X00288000Y00265750D02*
Y00266000D01*
X00272000Y00265750D02*
X00288000D01*
X00406500Y00345250D02*
X00422750D01*
X00466000Y00332500D02*
X00472500D01*
X00472500Y00332500D01*
X00453750Y00332250D02*
X00454000Y00332500D01*
X00443000Y00332250D02*
X00453750D01*
X00545750Y00292750D02*
Y00300250D01*
X00543500Y00302500D02*
X00545750Y00300250D01*
X00532500Y00302500D02*
X00543500D01*
X00532500Y00317500D02*
X00537000D01*
X00538750Y00319250D01*
X00544750D01*
X00544750Y00319250D01*
X00532500Y00327500D02*
X00544250D01*
X00544750Y00328000D01*
X00532500Y00332500D02*
X00536750D01*
X00541000Y00336750D01*
X00544750D01*
X00532500Y00337500D02*
X00535250D01*
X00537250Y00339500D01*
X00544750Y00336750D02*
Y00340500D01*
X00532500Y00312500D02*
X00549000D01*
X00269000Y00396250D02*
Y00407250D01*
X00269250Y00407500D01*
X00284000Y00396250D02*
X00295000D01*
X00295000Y00396250D01*
X00337500Y00319250D02*
X00350250D01*
X00356250Y00325250D01*
Y00373750D01*
X00337500Y00345250D02*
X00348750D01*
X00351375Y00347875D01*
X00458500Y00292500D02*
X00472500D01*
X00457250Y00291250D02*
X00458500Y00292500D01*
X00447250Y00291250D02*
X00457250D01*
X00446750Y00290750D02*
X00447250Y00291250D01*
X00449500Y00300250D02*
X00460500D01*
X00463250Y00297500D01*
X00472500D01*
X00472500Y00297500D01*
X00464000Y00302500D02*
X00472500D01*
X00461750Y00317500D02*
X00472500D01*
X00460750Y00318500D02*
X00461750Y00317500D01*
X00463596Y00307500D02*
X00472500D01*
X00406500Y00332250D02*
X00418750D01*
X00465000Y00312500D02*
X00472500D01*
X00465000Y00312500D02*
X00465000Y00312500D01*
X00463192Y00312500D02*
X00465000D01*
X00325500Y00357750D02*
X00348250D01*
X00351375Y00354625D01*
Y00347875D02*
Y00354625D01*
X00532500Y00307500D02*
X00580500D01*
X00583500Y00304500D01*
Y00297250D02*
Y00304500D01*
X00549000Y00312500D02*
X00550250Y00313750D01*
X00562000D01*
X00422750Y00345250D02*
X00432000Y00336000D01*
Y00332500D02*
Y00336000D01*
X00431250Y00351750D02*
X00431750Y00352250D01*
X00406500Y00351750D02*
X00431250D01*
X00544750Y00340500D02*
X00547000Y00342750D01*
X00537250Y00341750D02*
X00541500Y00346000D01*
X00537250Y00339500D02*
Y00341750D01*
X00554750Y00319250D02*
Y00328000D01*
Y00336750D01*
X00555250Y00336250D01*
X00418750Y00332250D02*
X00422500Y00328500D01*
Y00314750D02*
Y00328500D01*
X00406500Y00293250D02*
X00419250D01*
X00435250Y00297000D02*
X00440500D01*
X00446750Y00290750D01*
X00425750Y00287500D02*
X00435250Y00297000D01*
X00425750Y00286750D02*
Y00287500D01*
X00418500Y00286750D02*
X00425750D01*
X00418500Y00286750D02*
X00418500Y00286750D01*
X00406500Y00286750D02*
X00418500D01*
X00406500Y00280250D02*
X00422750D01*
X00429250Y00273750D01*
X00422500Y00314750D02*
X00428500Y00308750D01*
X00462346D01*
X00463596Y00307500D01*
X00419250Y00293250D02*
X00431500Y00305500D01*
X00461000D01*
X00464000Y00302500D01*
X00429250Y00318000D02*
X00434750Y00312500D01*
X00463192D01*
X00463192Y00312500D01*
X00562000Y00342750D02*
X00564750Y00340000D01*
X00547000Y00342750D02*
X00562000D01*
X00562000Y00313750D02*
X00566000Y00317750D01*
Y00324250D01*
X00573500Y00331750D01*
X00578250D01*
X00541500Y00346000D02*
X00593250D01*
X00595500Y00343750D01*
X00597000D01*
X00520000Y00345000D02*
Y00348750D01*
X00510750Y00367750D02*
Y00377250D01*
Y00352596D02*
Y00357750D01*
Y00352596D02*
X00515000Y00348346D01*
X00463250Y00335250D02*
X00466000Y00332500D01*
X00453750Y00352250D02*
X00460750D01*
X00463250Y00349750D01*
Y00335250D02*
Y00349750D01*
X00525000Y00280250D02*
Y00285000D01*
X00500000Y00274750D02*
Y00285000D01*
X00500000Y00274750D02*
X00500000Y00274750D01*
X00318750Y00338750D02*
X00337500D01*
X00318500Y00338500D02*
X00318750Y00338750D01*
D28*
X00308000Y00352250D02*
Y00372500D01*
X00302750Y00347000D02*
X00308000Y00352250D01*
X00295100Y00347000D02*
X00302750D01*
X00415750Y00383250D02*
X00434500D01*
X00415750Y00383250D02*
X00415750Y00383250D01*
X00434500D02*
X00447750D01*
X00308000Y00372500D02*
Y00382750D01*
X00308500Y00383250D01*
X00356000D02*
X00356250Y00383000D01*
Y00373750D02*
Y00383000D01*
X00356250Y00373750D02*
X00356250Y00373750D01*
Y00383000D02*
X00363000Y00389750D01*
X00374250D01*
X00415750D01*
X00323500Y00383250D02*
X00356000D01*
D29*
X00517251Y00399501D02*
X00563501D01*
X00510750Y00393000D02*
X00517251Y00399501D01*
X00510750Y00387250D02*
Y00393000D01*
D30*
X00290750Y00308625D02*
D03*
X00268500Y00325625D02*
D03*
X00269250Y00341625D02*
D03*
X00291500Y00358625D02*
D03*
X00268500Y00363125D02*
D03*
Y00304875D02*
D03*
X00450500Y00266000D02*
D03*
X00533500Y00388500D02*
D03*
X00407000Y00366000D02*
D03*
X00474500Y00366750D02*
D03*
X00441000Y00321750D02*
D03*
X00541000Y00266750D02*
D03*
X00595250Y00284000D02*
D03*
X00320500Y00260500D02*
D03*
X00373500Y00317250D02*
D03*
X00460750Y00407750D02*
D03*
X00394750Y00400750D02*
D03*
X00308750Y00406750D02*
D03*
X00336500Y00371000D02*
D03*
X00501000Y00357750D02*
D03*
X00529000D02*
D03*
X00556000Y00262750D02*
D03*
X00288000Y00266000D02*
D03*
X00447750Y00383250D02*
D03*
X00443000Y00332250D02*
D03*
X00545750Y00292750D02*
D03*
X00564750Y00340000D02*
D03*
X00295000Y00396250D02*
D03*
X00449500Y00300250D02*
D03*
X00429250Y00318000D02*
D03*
Y00273750D02*
D03*
X00564250Y00331750D02*
D03*
X00435250Y00297000D02*
D03*
X00502500Y00330000D02*
D03*
Y00300000D02*
D03*
M02*
