%FSAX44Y44*%
%MOMM*%
G71*
G01*
G75*
G04 Layer_Physical_Order=4*
G04 Layer_Color=16711680*
%ADD10R,0.6000X0.5000*%
%ADD11R,0.5000X0.6000*%
%ADD12R,2.1000X1.4750*%
%ADD13R,1.3800X0.4500*%
%ADD14R,1.9000X1.1750*%
%ADD15R,1.9000X2.3750*%
%ADD16R,0.7000X0.9000*%
%ADD17R,0.9000X0.7000*%
%ADD18O,1.8000X0.4500*%
%ADD19O,2.1000X0.3500*%
%ADD20R,0.6000X0.6000*%
%ADD21R,1.1500X1.4000*%
%ADD22R,1.0000X2.0000*%
%ADD23R,1.4000X0.7000*%
%ADD24O,0.8000X0.2000*%
%ADD25O,0.2000X0.8000*%
%ADD26R,4.6000X4.6000*%
%ADD27C,0.2000*%
%ADD28C,0.3000*%
%ADD29C,0.5000*%
%ADD30C,0.6000*%
%ADD31C,1.0160*%
G04:AMPARAMS|DCode=32|XSize=1.4mm|YSize=1.4mm|CornerRadius=0mm|HoleSize=0mm|Usage=FLASHONLY|Rotation=0.000|XOffset=0mm|YOffset=0mm|HoleType=Round|Shape=Relief|Width=0.15mm|Gap=0.15mm|Entries=4|*
%AMTHD32*
7,0,0,1.4000,1.1000,0.1500,45*
%
%ADD32THD32*%
%ADD33C,1.3000*%
G36*
X00542500Y00414000D02*
X00542500Y00414000D01*
X00542500Y00414000D01*
Y00349000D01*
X00604000D01*
Y00254000D01*
X00254000D01*
Y00414000D01*
X00542500D01*
Y00414000D01*
D02*
G37*
%LPC*%
G36*
X00377940Y00316500D02*
X00374250D01*
Y00312810D01*
X00374675Y00312866D01*
X00375769Y00313319D01*
X00376709Y00314041D01*
X00377431Y00314981D01*
X00377884Y00316075D01*
X00377940Y00316500D01*
D02*
G37*
G36*
X00372750D02*
X00369060D01*
X00369116Y00316075D01*
X00369569Y00314981D01*
X00370290Y00314041D01*
X00371231Y00313319D01*
X00372325Y00312866D01*
X00372750Y00312810D01*
Y00316500D01*
D02*
G37*
G36*
X00440250Y00321000D02*
X00436560D01*
X00436616Y00320575D01*
X00437069Y00319481D01*
X00437791Y00318541D01*
X00438731Y00317819D01*
X00439825Y00317366D01*
X00440250Y00317310D01*
Y00321000D01*
D02*
G37*
G36*
X00372750Y00321690D02*
X00372325Y00321634D01*
X00371231Y00321181D01*
X00370290Y00320459D01*
X00369569Y00319519D01*
X00369116Y00318425D01*
X00369060Y00318000D01*
X00372750D01*
Y00321690D01*
D02*
G37*
G36*
X00445440Y00321000D02*
X00441750D01*
Y00317310D01*
X00442175Y00317366D01*
X00443269Y00317819D01*
X00444209Y00318541D01*
X00444931Y00319481D01*
X00445384Y00320575D01*
X00445440Y00321000D01*
D02*
G37*
G36*
X00291500Y00313065D02*
Y00309375D01*
X00295190D01*
X00295134Y00309800D01*
X00294681Y00310894D01*
X00293960Y00311835D01*
X00293019Y00312556D01*
X00291925Y00313009D01*
X00291500Y00313065D01*
D02*
G37*
G36*
X00295190Y00307875D02*
X00291500D01*
Y00304185D01*
X00291925Y00304241D01*
X00293019Y00304694D01*
X00293960Y00305416D01*
X00294681Y00306356D01*
X00295134Y00307450D01*
X00295190Y00307875D01*
D02*
G37*
G36*
X00290000D02*
X00286310D01*
X00286366Y00307450D01*
X00286819Y00306356D01*
X00287541Y00305416D01*
X00288481Y00304694D01*
X00289575Y00304241D01*
X00290000Y00304185D01*
Y00307875D01*
D02*
G37*
G36*
X00267750Y00309315D02*
X00267325Y00309259D01*
X00266231Y00308806D01*
X00265291Y00308084D01*
X00264569Y00307144D01*
X00264116Y00306050D01*
X00264060Y00305625D01*
X00267750D01*
Y00309315D01*
D02*
G37*
G36*
X00290000Y00313065D02*
X00289575Y00313009D01*
X00288481Y00312556D01*
X00287541Y00311835D01*
X00286819Y00310894D01*
X00286366Y00309800D01*
X00286310Y00309375D01*
X00290000D01*
Y00313065D01*
D02*
G37*
G36*
X00269250Y00309315D02*
Y00305625D01*
X00272940D01*
X00272884Y00306050D01*
X00272431Y00307144D01*
X00271709Y00308084D01*
X00270769Y00308806D01*
X00269675Y00309259D01*
X00269250Y00309315D01*
D02*
G37*
G36*
X00267750Y00330065D02*
X00267325Y00330009D01*
X00266231Y00329556D01*
X00265291Y00328834D01*
X00264569Y00327894D01*
X00264116Y00326800D01*
X00264060Y00326375D01*
X00267750D01*
Y00330065D01*
D02*
G37*
G36*
X00506940Y00329250D02*
X00503250D01*
Y00325560D01*
X00503675Y00325616D01*
X00504769Y00326069D01*
X00505709Y00326791D01*
X00506431Y00327731D01*
X00506884Y00328825D01*
X00506940Y00329250D01*
D02*
G37*
G36*
X00269250Y00330065D02*
Y00326375D01*
X00272940D01*
X00272884Y00326800D01*
X00272431Y00327894D01*
X00271709Y00328834D01*
X00270769Y00329556D01*
X00269675Y00330009D01*
X00269250Y00330065D01*
D02*
G37*
G36*
X00568690Y00331000D02*
X00565000D01*
Y00327310D01*
X00565425Y00327366D01*
X00566519Y00327819D01*
X00567459Y00328541D01*
X00568181Y00329481D01*
X00568634Y00330575D01*
X00568690Y00331000D01*
D02*
G37*
G36*
X00563500D02*
X00559810D01*
X00559866Y00330575D01*
X00560319Y00329481D01*
X00561041Y00328541D01*
X00561981Y00327819D01*
X00563075Y00327366D01*
X00563500Y00327310D01*
Y00331000D01*
D02*
G37*
G36*
X00501750Y00329250D02*
X00498060D01*
X00498116Y00328825D01*
X00498569Y00327731D01*
X00499291Y00326791D01*
X00500231Y00326069D01*
X00501325Y00325616D01*
X00501750Y00325560D01*
Y00329250D01*
D02*
G37*
G36*
X00267750Y00324875D02*
X00264060D01*
X00264116Y00324450D01*
X00264569Y00323356D01*
X00265291Y00322416D01*
X00266231Y00321694D01*
X00267325Y00321241D01*
X00267750Y00321185D01*
Y00324875D01*
D02*
G37*
G36*
X00374250Y00321690D02*
Y00318000D01*
X00377940D01*
X00377884Y00318425D01*
X00377431Y00319519D01*
X00376709Y00320459D01*
X00375769Y00321181D01*
X00374675Y00321634D01*
X00374250Y00321690D01*
D02*
G37*
G36*
X00272940Y00324875D02*
X00269250D01*
Y00321185D01*
X00269675Y00321241D01*
X00270769Y00321694D01*
X00271709Y00322416D01*
X00272431Y00323356D01*
X00272884Y00324450D01*
X00272940Y00324875D01*
D02*
G37*
G36*
X00441750Y00326190D02*
Y00322500D01*
X00445440D01*
X00445384Y00322925D01*
X00444931Y00324019D01*
X00444209Y00324959D01*
X00443269Y00325681D01*
X00442175Y00326134D01*
X00441750Y00326190D01*
D02*
G37*
G36*
X00440250D02*
X00439825Y00326134D01*
X00438731Y00325681D01*
X00437791Y00324959D01*
X00437069Y00324019D01*
X00436616Y00322925D01*
X00436560Y00322500D01*
X00440250D01*
Y00326190D01*
D02*
G37*
G36*
X00503250Y00304440D02*
Y00300750D01*
X00506940D01*
X00506884Y00301175D01*
X00506431Y00302269D01*
X00505709Y00303209D01*
X00504769Y00303931D01*
X00503675Y00304384D01*
X00503250Y00304440D01*
D02*
G37*
G36*
X00540250Y00266000D02*
X00536560D01*
X00536616Y00265575D01*
X00537069Y00264481D01*
X00537791Y00263541D01*
X00538731Y00262819D01*
X00539825Y00262366D01*
X00540250Y00262310D01*
Y00266000D01*
D02*
G37*
G36*
X00288000Y00270287D02*
X00286891Y00270141D01*
X00285857Y00269712D01*
X00284969Y00269031D01*
X00284288Y00268143D01*
X00283859Y00267110D01*
X00283713Y00266000D01*
X00283859Y00264890D01*
X00284288Y00263857D01*
X00284969Y00262969D01*
X00285857Y00262288D01*
X00286891Y00261859D01*
X00288000Y00261713D01*
X00289109Y00261859D01*
X00290143Y00262288D01*
X00291031Y00262969D01*
X00291712Y00263857D01*
X00292141Y00264890D01*
X00292287Y00266000D01*
X00292141Y00267110D01*
X00291712Y00268143D01*
X00291031Y00269031D01*
X00290143Y00269712D01*
X00289109Y00270141D01*
X00288000Y00270287D01*
D02*
G37*
G36*
X00545440Y00266000D02*
X00541750D01*
Y00262310D01*
X00542175Y00262366D01*
X00543269Y00262819D01*
X00544210Y00263541D01*
X00544931Y00264481D01*
X00545384Y00265575D01*
X00545440Y00266000D01*
D02*
G37*
G36*
X00541750Y00271190D02*
Y00267500D01*
X00545440D01*
X00545384Y00267925D01*
X00544931Y00269019D01*
X00544210Y00269960D01*
X00543269Y00270681D01*
X00542175Y00271134D01*
X00541750Y00271190D01*
D02*
G37*
G36*
X00540250D02*
X00539825Y00271134D01*
X00538731Y00270681D01*
X00537791Y00269960D01*
X00537069Y00269019D01*
X00536616Y00267925D01*
X00536560Y00267500D01*
X00540250D01*
Y00271190D01*
D02*
G37*
G36*
X00321250Y00264940D02*
Y00261250D01*
X00324940D01*
X00324884Y00261675D01*
X00324431Y00262769D01*
X00323709Y00263710D01*
X00322769Y00264431D01*
X00321675Y00264884D01*
X00321250Y00264940D01*
D02*
G37*
G36*
X00324940Y00259750D02*
X00321250D01*
Y00256060D01*
X00321675Y00256116D01*
X00322769Y00256569D01*
X00323709Y00257291D01*
X00324431Y00258231D01*
X00324884Y00259325D01*
X00324940Y00259750D01*
D02*
G37*
G36*
X00319750D02*
X00316060D01*
X00316116Y00259325D01*
X00316569Y00258231D01*
X00317291Y00257291D01*
X00318231Y00256569D01*
X00319325Y00256116D01*
X00319750Y00256060D01*
Y00259750D01*
D02*
G37*
G36*
X00556000Y00267037D02*
X00554891Y00266891D01*
X00553857Y00266462D01*
X00552969Y00265781D01*
X00552288Y00264893D01*
X00551859Y00263860D01*
X00551713Y00262750D01*
X00551859Y00261640D01*
X00552288Y00260607D01*
X00552969Y00259719D01*
X00553857Y00259038D01*
X00554891Y00258609D01*
X00556000Y00258463D01*
X00557109Y00258609D01*
X00558143Y00259038D01*
X00559031Y00259719D01*
X00559712Y00260607D01*
X00560141Y00261640D01*
X00560287Y00262750D01*
X00560141Y00263860D01*
X00559712Y00264893D01*
X00559031Y00265781D01*
X00558143Y00266462D01*
X00557109Y00266891D01*
X00556000Y00267037D01*
D02*
G37*
G36*
X00319750Y00264940D02*
X00319325Y00264884D01*
X00318231Y00264431D01*
X00317291Y00263710D01*
X00316569Y00262769D01*
X00316116Y00261675D01*
X00316060Y00261250D01*
X00319750D01*
Y00264940D01*
D02*
G37*
G36*
X00449500Y00304537D02*
X00448391Y00304391D01*
X00447357Y00303962D01*
X00446469Y00303281D01*
X00445788Y00302393D01*
X00445359Y00301360D01*
X00445213Y00300250D01*
X00445359Y00299140D01*
X00445788Y00298107D01*
X00446469Y00297219D01*
X00447357Y00296538D01*
X00447956Y00296289D01*
Y00269405D01*
X00447469Y00269031D01*
X00446788Y00268143D01*
X00446359Y00267110D01*
X00446213Y00266000D01*
X00446359Y00264890D01*
X00446788Y00263857D01*
X00447469Y00262969D01*
X00448110Y00262477D01*
X00448130Y00262372D01*
X00448628Y00261628D01*
X00449372Y00261131D01*
X00450250Y00260956D01*
X00451128Y00261131D01*
X00451872Y00261628D01*
X00452122Y00261878D01*
X00452301Y00262146D01*
X00452643Y00262288D01*
X00453531Y00262969D01*
X00454212Y00263857D01*
X00454641Y00264890D01*
X00454787Y00266000D01*
X00454641Y00267110D01*
X00454212Y00268143D01*
X00453531Y00269031D01*
X00452643Y00269712D01*
X00452544Y00269753D01*
Y00297236D01*
X00453212Y00298107D01*
X00453641Y00299140D01*
X00453787Y00300250D01*
X00453641Y00301360D01*
X00453212Y00302393D01*
X00452531Y00303281D01*
X00451643Y00303962D01*
X00450610Y00304391D01*
X00449500Y00304537D01*
D02*
G37*
G36*
X00506940Y00299250D02*
X00503250D01*
Y00295560D01*
X00503675Y00295616D01*
X00504769Y00296069D01*
X00505709Y00296791D01*
X00506431Y00297731D01*
X00506884Y00298825D01*
X00506940Y00299250D01*
D02*
G37*
G36*
X00501750D02*
X00498060D01*
X00498116Y00298825D01*
X00498569Y00297731D01*
X00499291Y00296791D01*
X00500231Y00296069D01*
X00501325Y00295616D01*
X00501750Y00295560D01*
Y00299250D01*
D02*
G37*
G36*
X00267750Y00304125D02*
X00264060D01*
X00264116Y00303700D01*
X00264569Y00302606D01*
X00265291Y00301665D01*
X00266231Y00300944D01*
X00267325Y00300491D01*
X00267750Y00300435D01*
Y00304125D01*
D02*
G37*
G36*
X00501750Y00304440D02*
X00501325Y00304384D01*
X00500231Y00303931D01*
X00499291Y00303209D01*
X00498569Y00302269D01*
X00498116Y00301175D01*
X00498060Y00300750D01*
X00501750D01*
Y00304440D01*
D02*
G37*
G36*
X00272940Y00304125D02*
X00269250D01*
Y00300435D01*
X00269675Y00300491D01*
X00270769Y00300944D01*
X00271709Y00301665D01*
X00272431Y00302606D01*
X00272884Y00303700D01*
X00272940Y00304125D01*
D02*
G37*
G36*
X00429250Y00322287D02*
X00428140Y00322141D01*
X00427107Y00321712D01*
X00426219Y00321031D01*
X00425538Y00320143D01*
X00425109Y00319109D01*
X00424963Y00318000D01*
X00425109Y00316891D01*
X00425538Y00315857D01*
X00426219Y00314969D01*
X00426956Y00314403D01*
Y00277347D01*
X00426219Y00276781D01*
X00425538Y00275893D01*
X00425109Y00274860D01*
X00424963Y00273750D01*
X00425109Y00272640D01*
X00425538Y00271607D01*
X00426219Y00270719D01*
X00427107Y00270038D01*
X00428140Y00269609D01*
X00429250Y00269463D01*
X00430359Y00269609D01*
X00431393Y00270038D01*
X00432281Y00270719D01*
X00432962Y00271607D01*
X00433391Y00272640D01*
X00433537Y00273750D01*
X00433391Y00274860D01*
X00432962Y00275893D01*
X00432281Y00276781D01*
X00431544Y00277347D01*
Y00292791D01*
X00432889Y00293454D01*
X00433107Y00293288D01*
X00434141Y00292859D01*
X00435250Y00292713D01*
X00436359Y00292859D01*
X00437393Y00293288D01*
X00438281Y00293969D01*
X00438962Y00294857D01*
X00439391Y00295891D01*
X00439537Y00297000D01*
X00439391Y00298109D01*
X00438962Y00299143D01*
X00438281Y00300031D01*
X00437393Y00300712D01*
X00436359Y00301141D01*
X00435250Y00301287D01*
X00434141Y00301141D01*
X00433107Y00300712D01*
X00432889Y00300546D01*
X00431544Y00301209D01*
Y00314403D01*
X00432281Y00314969D01*
X00432962Y00315857D01*
X00433391Y00316891D01*
X00433537Y00318000D01*
X00433391Y00319109D01*
X00432962Y00320143D01*
X00432281Y00321031D01*
X00431393Y00321712D01*
X00430359Y00322141D01*
X00429250Y00322287D01*
D02*
G37*
G36*
X00599690Y00283250D02*
X00596000D01*
Y00279560D01*
X00596425Y00279616D01*
X00597519Y00280069D01*
X00598459Y00280791D01*
X00599181Y00281731D01*
X00599634Y00282825D01*
X00599690Y00283250D01*
D02*
G37*
G36*
X00594500D02*
X00590810D01*
X00590866Y00282825D01*
X00591319Y00281731D01*
X00592040Y00280791D01*
X00592981Y00280069D01*
X00594075Y00279616D01*
X00594500Y00279560D01*
Y00283250D01*
D02*
G37*
G36*
Y00288440D02*
X00594075Y00288384D01*
X00592981Y00287931D01*
X00592040Y00287209D01*
X00591319Y00286269D01*
X00590866Y00285175D01*
X00590810Y00284750D01*
X00594500D01*
Y00288440D01*
D02*
G37*
G36*
X00443000Y00336537D02*
X00441890Y00336391D01*
X00440857Y00335962D01*
X00439969Y00335281D01*
X00439288Y00334393D01*
X00438859Y00333359D01*
X00438713Y00332250D01*
X00438859Y00331141D01*
X00439288Y00330107D01*
X00439969Y00329219D01*
X00440857Y00328538D01*
X00441890Y00328109D01*
X00443000Y00327963D01*
X00444109Y00328109D01*
X00445143Y00328538D01*
X00446031Y00329219D01*
X00446597Y00329956D01*
X00456550D01*
X00459706Y00326800D01*
Y00291250D01*
X00459881Y00290372D01*
X00460378Y00289628D01*
X00465128Y00284878D01*
X00465872Y00284380D01*
X00466018Y00284352D01*
X00466750Y00284206D01*
X00539500D01*
X00540378Y00284380D01*
X00541122Y00284878D01*
X00544829Y00288585D01*
X00545750Y00288463D01*
X00546860Y00288609D01*
X00547893Y00289038D01*
X00548781Y00289719D01*
X00549462Y00290607D01*
X00549891Y00291640D01*
X00550037Y00292750D01*
X00549891Y00293860D01*
X00549462Y00294893D01*
X00548781Y00295781D01*
X00547893Y00296462D01*
X00546860Y00296891D01*
X00545750Y00297037D01*
X00544641Y00296891D01*
X00543607Y00296462D01*
X00542719Y00295781D01*
X00542038Y00294893D01*
X00541609Y00293860D01*
X00541463Y00292750D01*
X00541585Y00291829D01*
X00538550Y00288794D01*
X00467700D01*
X00464294Y00292200D01*
Y00327750D01*
X00464119Y00328628D01*
X00463622Y00329372D01*
X00459122Y00333872D01*
X00458378Y00334370D01*
X00457500Y00334544D01*
X00446597D01*
X00446031Y00335281D01*
X00445143Y00335962D01*
X00444109Y00336391D01*
X00443000Y00336537D01*
D02*
G37*
G36*
X00596000Y00288440D02*
Y00284750D01*
X00599690D01*
X00599634Y00285175D01*
X00599181Y00286269D01*
X00598459Y00287209D01*
X00597519Y00287931D01*
X00596425Y00288384D01*
X00596000Y00288440D01*
D02*
G37*
G36*
X00537940Y00387750D02*
X00534250D01*
Y00384060D01*
X00534675Y00384116D01*
X00535769Y00384569D01*
X00536709Y00385291D01*
X00537431Y00386231D01*
X00537884Y00387325D01*
X00537940Y00387750D01*
D02*
G37*
G36*
X00532750D02*
X00529060D01*
X00529116Y00387325D01*
X00529569Y00386231D01*
X00530291Y00385291D01*
X00531231Y00384569D01*
X00532325Y00384116D01*
X00532750Y00384060D01*
Y00387750D01*
D02*
G37*
G36*
Y00392940D02*
X00532325Y00392884D01*
X00531231Y00392431D01*
X00530291Y00391710D01*
X00529569Y00390769D01*
X00529116Y00389675D01*
X00529060Y00389250D01*
X00532750D01*
Y00392940D01*
D02*
G37*
G36*
X00295000Y00400537D02*
X00293890Y00400391D01*
X00292857Y00399962D01*
X00291969Y00399281D01*
X00291288Y00398393D01*
X00290859Y00397360D01*
X00290713Y00396250D01*
X00290859Y00395140D01*
X00291288Y00394107D01*
X00291969Y00393219D01*
X00292857Y00392538D01*
X00293890Y00392109D01*
X00295000Y00391963D01*
X00296109Y00392109D01*
X00297143Y00392538D01*
X00298031Y00393219D01*
X00298712Y00394107D01*
X00299141Y00395140D01*
X00299287Y00396250D01*
X00299141Y00397360D01*
X00298712Y00398393D01*
X00298031Y00399281D01*
X00297143Y00399962D01*
X00296109Y00400391D01*
X00295000Y00400537D01*
D02*
G37*
G36*
X00534250Y00392940D02*
Y00389250D01*
X00537940D01*
X00537884Y00389675D01*
X00537431Y00390769D01*
X00536709Y00391710D01*
X00535769Y00392431D01*
X00534675Y00392884D01*
X00534250Y00392940D01*
D02*
G37*
G36*
X00447750Y00387537D02*
X00446641Y00387391D01*
X00445607Y00386962D01*
X00444719Y00386281D01*
X00444038Y00385393D01*
X00443609Y00384360D01*
X00443463Y00383250D01*
X00443609Y00382141D01*
X00444038Y00381107D01*
X00444719Y00380219D01*
X00445607Y00379538D01*
X00446641Y00379109D01*
X00447750Y00378963D01*
X00448859Y00379109D01*
X00449893Y00379538D01*
X00450781Y00380219D01*
X00451462Y00381107D01*
X00451891Y00382141D01*
X00452037Y00383250D01*
X00451891Y00384360D01*
X00451462Y00385393D01*
X00450781Y00386281D01*
X00449893Y00386962D01*
X00448859Y00387391D01*
X00447750Y00387537D01*
D02*
G37*
G36*
X00473750Y00371190D02*
X00473325Y00371134D01*
X00472231Y00370681D01*
X00471291Y00369959D01*
X00470569Y00369019D01*
X00470116Y00367925D01*
X00470060Y00367500D01*
X00473750D01*
Y00371190D01*
D02*
G37*
G36*
X00407750Y00370440D02*
Y00366750D01*
X00411440D01*
X00411384Y00367175D01*
X00410931Y00368269D01*
X00410209Y00369209D01*
X00409269Y00369931D01*
X00408175Y00370384D01*
X00407750Y00370440D01*
D02*
G37*
G36*
X00475250Y00371190D02*
Y00367500D01*
X00478940D01*
X00478884Y00367925D01*
X00478431Y00369019D01*
X00477709Y00369959D01*
X00476769Y00370681D01*
X00475675Y00371134D01*
X00475250Y00371190D01*
D02*
G37*
G36*
X00337250Y00375440D02*
Y00371750D01*
X00340940D01*
X00340884Y00372175D01*
X00340431Y00373269D01*
X00339709Y00374209D01*
X00338769Y00374931D01*
X00337675Y00375384D01*
X00337250Y00375440D01*
D02*
G37*
G36*
X00335750D02*
X00335325Y00375384D01*
X00334231Y00374931D01*
X00333290Y00374209D01*
X00332569Y00373269D01*
X00332116Y00372175D01*
X00332060Y00371750D01*
X00335750D01*
Y00375440D01*
D02*
G37*
G36*
X00394000Y00400000D02*
X00390310D01*
X00390366Y00399575D01*
X00390819Y00398481D01*
X00391541Y00397541D01*
X00392481Y00396819D01*
X00393575Y00396366D01*
X00394000Y00396310D01*
Y00400000D01*
D02*
G37*
G36*
X00308000Y00411190D02*
X00307575Y00411134D01*
X00306481Y00410681D01*
X00305541Y00409959D01*
X00304819Y00409019D01*
X00304366Y00407925D01*
X00304310Y00407500D01*
X00308000D01*
Y00411190D01*
D02*
G37*
G36*
X00465190Y00407000D02*
X00461500D01*
Y00403310D01*
X00461925Y00403366D01*
X00463019Y00403819D01*
X00463959Y00404541D01*
X00464681Y00405481D01*
X00465134Y00406575D01*
X00465190Y00407000D01*
D02*
G37*
G36*
X00309500Y00411190D02*
Y00407500D01*
X00313190D01*
X00313134Y00407925D01*
X00312681Y00409019D01*
X00311959Y00409959D01*
X00311019Y00410681D01*
X00309925Y00411134D01*
X00309500Y00411190D01*
D02*
G37*
G36*
X00461500Y00412190D02*
Y00408500D01*
X00465190D01*
X00465134Y00408925D01*
X00464681Y00410019D01*
X00463959Y00410960D01*
X00463019Y00411681D01*
X00461925Y00412134D01*
X00461500Y00412190D01*
D02*
G37*
G36*
X00460000D02*
X00459575Y00412134D01*
X00458481Y00411681D01*
X00457541Y00410960D01*
X00456819Y00410019D01*
X00456366Y00408925D01*
X00456310Y00408500D01*
X00460000D01*
Y00412190D01*
D02*
G37*
G36*
Y00407000D02*
X00456310D01*
X00456366Y00406575D01*
X00456819Y00405481D01*
X00457541Y00404541D01*
X00458481Y00403819D01*
X00459575Y00403366D01*
X00460000Y00403310D01*
Y00407000D01*
D02*
G37*
G36*
X00394000Y00405190D02*
X00393575Y00405134D01*
X00392481Y00404681D01*
X00391541Y00403959D01*
X00390819Y00403019D01*
X00390366Y00401925D01*
X00390310Y00401500D01*
X00394000D01*
Y00405190D01*
D02*
G37*
G36*
X00399190Y00400000D02*
X00395500D01*
Y00396310D01*
X00395925Y00396366D01*
X00397019Y00396819D01*
X00397960Y00397541D01*
X00398681Y00398481D01*
X00399134Y00399575D01*
X00399190Y00400000D01*
D02*
G37*
G36*
X00395500Y00405190D02*
Y00401500D01*
X00399190D01*
X00399134Y00401925D01*
X00398681Y00403019D01*
X00397960Y00403959D01*
X00397019Y00404681D01*
X00395925Y00405134D01*
X00395500Y00405190D01*
D02*
G37*
G36*
X00313190Y00406000D02*
X00309500D01*
Y00402310D01*
X00309925Y00402366D01*
X00311019Y00402819D01*
X00311959Y00403541D01*
X00312681Y00404481D01*
X00313134Y00405575D01*
X00313190Y00406000D01*
D02*
G37*
G36*
X00308000D02*
X00304310D01*
X00304366Y00405575D01*
X00304819Y00404481D01*
X00305541Y00403541D01*
X00306481Y00402819D01*
X00307575Y00402366D01*
X00308000Y00402310D01*
Y00406000D01*
D02*
G37*
G36*
X00290750Y00357875D02*
X00287060D01*
X00287116Y00357450D01*
X00287569Y00356356D01*
X00288291Y00355415D01*
X00289231Y00354694D01*
X00290325Y00354241D01*
X00290750Y00354185D01*
Y00357875D01*
D02*
G37*
G36*
X00270000Y00346065D02*
Y00342375D01*
X00273690D01*
X00273634Y00342800D01*
X00273181Y00343894D01*
X00272459Y00344834D01*
X00271519Y00345556D01*
X00270425Y00346009D01*
X00270000Y00346065D01*
D02*
G37*
G36*
X00295940Y00357875D02*
X00292250D01*
Y00354185D01*
X00292675Y00354241D01*
X00293769Y00354694D01*
X00294709Y00355415D01*
X00295431Y00356356D01*
X00295884Y00357450D01*
X00295940Y00357875D01*
D02*
G37*
G36*
X00272940Y00362375D02*
X00269250D01*
Y00358685D01*
X00269675Y00358741D01*
X00270769Y00359194D01*
X00271709Y00359916D01*
X00272431Y00360856D01*
X00272884Y00361950D01*
X00272940Y00362375D01*
D02*
G37*
G36*
X00267750D02*
X00264060D01*
X00264116Y00361950D01*
X00264569Y00360856D01*
X00265291Y00359916D01*
X00266231Y00359194D01*
X00267325Y00358741D01*
X00267750Y00358685D01*
Y00362375D01*
D02*
G37*
G36*
X00268500Y00346065D02*
X00268075Y00346009D01*
X00266981Y00345556D01*
X00266040Y00344834D01*
X00265319Y00343894D01*
X00264866Y00342800D01*
X00264810Y00342375D01*
X00268500D01*
Y00346065D01*
D02*
G37*
G36*
X00503250Y00334440D02*
Y00330750D01*
X00506940D01*
X00506884Y00331175D01*
X00506431Y00332269D01*
X00505709Y00333209D01*
X00504769Y00333931D01*
X00503675Y00334384D01*
X00503250Y00334440D01*
D02*
G37*
G36*
X00501750D02*
X00501325Y00334384D01*
X00500231Y00333931D01*
X00499291Y00333209D01*
X00498569Y00332269D01*
X00498116Y00331175D01*
X00498060Y00330750D01*
X00501750D01*
Y00334440D01*
D02*
G37*
G36*
X00564750Y00344287D02*
X00563641Y00344141D01*
X00562607Y00343712D01*
X00561719Y00343031D01*
X00561038Y00342143D01*
X00560609Y00341110D01*
X00560463Y00340000D01*
X00560609Y00338890D01*
X00561038Y00337857D01*
X00561719Y00336969D01*
X00561981Y00335681D01*
X00561981Y00335681D01*
X00561981Y00335681D01*
X00561981D01*
X00561981Y00335681D01*
D01*
X00561041Y00334959D01*
X00560319Y00334019D01*
X00559866Y00332925D01*
X00559810Y00332500D01*
X00568690D01*
X00568634Y00332925D01*
X00568181Y00334019D01*
X00567459Y00334959D01*
X00567436Y00334977D01*
X00567288Y00335334D01*
Y00336591D01*
X00567781Y00336969D01*
X00568462Y00337857D01*
X00568891Y00338890D01*
X00569037Y00340000D01*
X00568891Y00341110D01*
X00568462Y00342143D01*
X00567781Y00343031D01*
X00566893Y00343712D01*
X00565859Y00344141D01*
X00564750Y00344287D01*
D02*
G37*
G36*
X00273690Y00340875D02*
X00270000D01*
Y00337185D01*
X00270425Y00337241D01*
X00271519Y00337694D01*
X00272459Y00338416D01*
X00273181Y00339356D01*
X00273634Y00340450D01*
X00273690Y00340875D01*
D02*
G37*
G36*
X00268500D02*
X00264810D01*
X00264866Y00340450D01*
X00265319Y00339356D01*
X00266040Y00338416D01*
X00266981Y00337694D01*
X00268075Y00337241D01*
X00268500Y00337185D01*
Y00340875D01*
D02*
G37*
G36*
X00290750Y00363065D02*
X00290325Y00363009D01*
X00289231Y00362556D01*
X00288291Y00361834D01*
X00287569Y00360894D01*
X00287116Y00359800D01*
X00287060Y00359375D01*
X00290750D01*
Y00363065D01*
D02*
G37*
G36*
X00269250Y00367565D02*
Y00363875D01*
X00272940D01*
X00272884Y00364300D01*
X00272431Y00365394D01*
X00271709Y00366334D01*
X00270769Y00367056D01*
X00269675Y00367509D01*
X00269250Y00367565D01*
D02*
G37*
G36*
X00267750D02*
X00267325Y00367509D01*
X00266231Y00367056D01*
X00265291Y00366334D01*
X00264569Y00365394D01*
X00264116Y00364300D01*
X00264060Y00363875D01*
X00267750D01*
Y00367565D01*
D02*
G37*
G36*
X00335750Y00370250D02*
X00332060D01*
X00332116Y00369825D01*
X00332569Y00368731D01*
X00333290Y00367791D01*
X00334231Y00367069D01*
X00335325Y00366616D01*
X00335750Y00366560D01*
Y00370250D01*
D02*
G37*
G36*
X00406250Y00370440D02*
X00405825Y00370384D01*
X00404731Y00369931D01*
X00403791Y00369209D01*
X00403069Y00368269D01*
X00402616Y00367175D01*
X00402560Y00366750D01*
X00406250D01*
Y00370440D01*
D02*
G37*
G36*
X00340940Y00370250D02*
X00337250D01*
Y00366560D01*
X00337675Y00366616D01*
X00338769Y00367069D01*
X00339709Y00367791D01*
X00340431Y00368731D01*
X00340884Y00369825D01*
X00340940Y00370250D01*
D02*
G37*
G36*
X00478940Y00366000D02*
X00475250D01*
Y00362310D01*
X00475675Y00362366D01*
X00476769Y00362819D01*
X00477709Y00363540D01*
X00478431Y00364481D01*
X00478884Y00365575D01*
X00478940Y00366000D01*
D02*
G37*
G36*
X00529000Y00362037D02*
X00527891Y00361891D01*
X00526857Y00361462D01*
X00525969Y00360781D01*
X00525403Y00360044D01*
X00504597D01*
X00504031Y00360781D01*
X00503143Y00361462D01*
X00502109Y00361891D01*
X00501000Y00362037D01*
X00499891Y00361891D01*
X00498857Y00361462D01*
X00497969Y00360781D01*
X00497288Y00359893D01*
X00496859Y00358859D01*
X00496713Y00357750D01*
X00496859Y00356641D01*
X00497288Y00355607D01*
X00497969Y00354719D01*
X00498857Y00354038D01*
X00499891Y00353609D01*
X00501000Y00353463D01*
X00502109Y00353609D01*
X00503143Y00354038D01*
X00504031Y00354719D01*
X00504597Y00355456D01*
X00525403D01*
X00525969Y00354719D01*
X00526857Y00354038D01*
X00527891Y00353609D01*
X00529000Y00353463D01*
X00530109Y00353609D01*
X00531143Y00354038D01*
X00532031Y00354719D01*
X00532712Y00355607D01*
X00533141Y00356641D01*
X00533287Y00357750D01*
X00533141Y00358859D01*
X00532712Y00359893D01*
X00532031Y00360781D01*
X00531143Y00361462D01*
X00530109Y00361891D01*
X00529000Y00362037D01*
D02*
G37*
G36*
X00292250Y00363065D02*
Y00359375D01*
X00295940D01*
X00295884Y00359800D01*
X00295431Y00360894D01*
X00294709Y00361834D01*
X00293769Y00362556D01*
X00292675Y00363009D01*
X00292250Y00363065D01*
D02*
G37*
G36*
X00406250Y00365250D02*
X00402560D01*
X00402616Y00364825D01*
X00403069Y00363731D01*
X00403791Y00362791D01*
X00404731Y00362069D01*
X00405825Y00361616D01*
X00406250Y00361560D01*
Y00365250D01*
D02*
G37*
G36*
X00473750Y00366000D02*
X00470060D01*
X00470116Y00365575D01*
X00470569Y00364481D01*
X00471291Y00363540D01*
X00472231Y00362819D01*
X00473325Y00362366D01*
X00473750Y00362310D01*
Y00366000D01*
D02*
G37*
G36*
X00411440Y00365250D02*
X00407750D01*
Y00361560D01*
X00408175Y00361616D01*
X00409269Y00362069D01*
X00410209Y00362791D01*
X00410931Y00363731D01*
X00411384Y00364825D01*
X00411440Y00365250D01*
D02*
G37*
%LPD*%
D27*
X00450250Y00263250D02*
Y00299500D01*
X00450500Y00263500D02*
Y00266000D01*
X00450250Y00263250D02*
X00450500Y00263500D01*
X00501000Y00357750D02*
X00529000D01*
X00443000Y00332250D02*
X00457500D01*
X00462000Y00291250D02*
X00466750Y00286500D01*
X00539500D01*
X00545750Y00292750D01*
X00457500Y00332250D02*
X00462000Y00327750D01*
Y00291250D02*
Y00327750D01*
X00429250Y00273750D02*
Y00318000D01*
X00449500Y00300250D02*
X00450250Y00299500D01*
D30*
X00290750Y00308625D02*
D03*
X00268500Y00325625D02*
D03*
X00269250Y00341625D02*
D03*
X00291500Y00358625D02*
D03*
X00268500Y00363125D02*
D03*
Y00304875D02*
D03*
X00450500Y00266000D02*
D03*
X00533500Y00388500D02*
D03*
X00407000Y00366000D02*
D03*
X00474500Y00366750D02*
D03*
X00441000Y00321750D02*
D03*
X00541000Y00266750D02*
D03*
X00595250Y00284000D02*
D03*
X00320500Y00260500D02*
D03*
X00373500Y00317250D02*
D03*
X00460750Y00407750D02*
D03*
X00394750Y00400750D02*
D03*
X00308750Y00406750D02*
D03*
X00336500Y00371000D02*
D03*
X00501000Y00357750D02*
D03*
X00529000D02*
D03*
X00556000Y00262750D02*
D03*
X00288000Y00266000D02*
D03*
X00447750Y00383250D02*
D03*
X00443000Y00332250D02*
D03*
X00545750Y00292750D02*
D03*
X00564750Y00340000D02*
D03*
X00295000Y00396250D02*
D03*
X00449500Y00300250D02*
D03*
X00429250Y00318000D02*
D03*
Y00273750D02*
D03*
X00564250Y00331750D02*
D03*
X00435250Y00297000D02*
D03*
X00502500Y00330000D02*
D03*
Y00300000D02*
D03*
M02*
