M48
;Layer_Color=9474304
;FILE_FORMAT=4:4
METRIC
;TYPE=PLATED
T1F00S00C0.3000
%
T01
X00288000Y00266000
X00320500Y00260500
X00290750Y00308625
X00268500Y00304875
Y00325625
X00269250Y00341625
X00268500Y00363125
X00291500Y00358625
X00295000Y00396250
X00336500Y00371000
X00373500Y00317250
X00429250Y00318000
X00441000Y00321750
X00443000Y00332250
X00449500Y00300250
X00435250Y00297000
X00429250Y00273750
X00450500Y00266000
X00502500Y00300000
Y00330000
X00501000Y00357750
X00529000
X00533500Y00388500
X00564750Y00340000
X00564250Y00331750
X00545750Y00292750
X00541000Y00266750
X00556000Y00262750
X00595250Y00284000
X00474500Y00366750
X00447750Y00383250
X00407000Y00366000
X00460750Y00407750
X00394750Y00400750
X00308750Y00406750
M30
